<?xml version="1.0" encoding="UTF-8" standalone="no"?>
<!-- Created with Inkscape (http://www.inkscape.org/) -->

<svg
   xmlns:dc="http://purl.org/dc/elements/1.1/"
   xmlns:cc="http://creativecommons.org/ns#"
   xmlns:rdf="http://www.w3.org/1999/02/22-rdf-syntax-ns#"
   xmlns:svg="http://www.w3.org/2000/svg"
   xmlns="http://www.w3.org/2000/svg"
   xmlns:inkscape="http://www.inkscape.org/namespaces/inkscape"
   version="1.1"
   width="123.45175"
   height="117.0565"
   id="svg2"
   xml:space="preserve"><metadata
     id="metadata8"><rdf:RDF><cc:Work
         rdf:about=""><dc:format>image/svg+xml</dc:format><dc:type
           rdf:resource="http://purl.org/dc/dcmitype/StillImage" /></cc:Work></rdf:RDF></metadata><defs
     id="defs6"><linearGradient
       x1="0"
       y1="0"
       x2="1"
       y2="0"
       id="linearGradient24"
       gradientUnits="userSpaceOnUse"
       gradientTransform="matrix(73.468796,0,0,-73.468796,13.253498,48.406708)"
       spreadMethod="pad"><stop
         id="stop26"
         style="stop-color:#f89d0e;stop-opacity:1"
         offset="0" /><stop
         id="stop28"
         style="stop-color:#f6f013;stop-opacity:1"
         offset="1" /></linearGradient><clipPath
       id="clipPath36"><path
         d="m 3.595,18.359 91.5,0 0,62.262 -91.5,0 0,-62.262 z"
         inkscape:connector-curvature="0"
         id="path38" /></clipPath><linearGradient
       x1="0"
       y1="0"
       x2="1"
       y2="0"
       id="linearGradient60"
       gradientUnits="userSpaceOnUse"
       gradientTransform="matrix(16.659605,0,0,19.166746,24.235693,44.175835)"
       spreadMethod="pad"><stop
         id="stop62"
         style="stop-color:#888a8a;stop-opacity:1"
         offset="0" /><stop
         id="stop64"
         style="stop-color:#474748;stop-opacity:1"
         offset="1" /></linearGradient><clipPath
       id="clipPath72"><path
         d="m 3.595,18.359 91.5,0 0,62.262 -91.5,0 0,-62.262 z"
         inkscape:connector-curvature="0"
         id="path74" /></clipPath><linearGradient
       x1="0"
       y1="0"
       x2="1"
       y2="0"
       id="linearGradient92"
       gradientUnits="userSpaceOnUse"
       gradientTransform="matrix(37.811264,-17.479347,11.225207,58.877865,32.855625,55.629456)"
       spreadMethod="pad"><stop
         id="stop94"
         style="stop-color:#888a8a;stop-opacity:1"
         offset="0" /><stop
         id="stop96"
         style="stop-color:#474748;stop-opacity:1"
         offset="1" /></linearGradient><clipPath
       id="clipPath104"><path
         d="m 3.595,18.359 91.5,0 0,62.262 -91.5,0 0,-62.262 z"
         inkscape:connector-curvature="0"
         id="path106" /></clipPath><linearGradient
       x1="0"
       y1="0"
       x2="1"
       y2="0"
       id="linearGradient124"
       gradientUnits="userSpaceOnUse"
       gradientTransform="matrix(25.324984,0,0,36.361736,37.739689,40.329731)"
       spreadMethod="pad"><stop
         id="stop126"
         style="stop-color:#ffffff;stop-opacity:1"
         offset="0" /><stop
         id="stop128"
         style="stop-color:#f6f6f6;stop-opacity:1"
         offset="1" /></linearGradient><clipPath
       id="clipPath136"><path
         d="m 3.595,18.359 91.5,0 0,62.262 -91.5,0 0,-62.262 z"
         inkscape:connector-curvature="0"
         id="path138" /></clipPath><linearGradient
       x1="0"
       y1="0"
       x2="1"
       y2="0"
       id="linearGradient156"
       gradientUnits="userSpaceOnUse"
       gradientTransform="matrix(22.017244,-14.360623,56.52969,15.95765,24.421364,34.887798)"
       spreadMethod="pad"><stop
         id="stop158"
         style="stop-color:#f6f013;stop-opacity:1"
         offset="0" /><stop
         id="stop160"
         style="stop-color:#f89d0e;stop-opacity:1"
         offset="1" /></linearGradient><clipPath
       id="clipPath168"><path
         d="m 3.595,18.359 91.5,0 0,62.262 -91.5,0 0,-62.262 z"
         inkscape:connector-curvature="0"
         id="path170" /></clipPath><clipPath
       id="clipPath204"><path
         d="M 48.086,70.853 C 42.683,70.624 40.27,70.27 40.383,67.33 l 0,0 c 0.216,-5.586 0.059,-4.408 1.705,-3.23 l 0,0 c 1.161,0.83 3.221,1.661 6.943,0.116 l 0,0 c 4.693,-1.374 7.614,-1.85 7.121,2.611 l 0,0 c -0.19,3.539 -2.193,4.135 -5.039,4.135 l 0,0 c -0.93,0 -1.951,-0.064 -3.027,-0.109"
         inkscape:connector-curvature="0"
         id="path206" /></clipPath><linearGradient
       x1="0"
       y1="0"
       x2="1"
       y2="0"
       id="linearGradient216"
       gradientUnits="userSpaceOnUse"
       gradientTransform="matrix(-6.8135386,7.6211405,-11.80387,-4.3991446,50.942173,63.101299)"
       spreadMethod="pad"><stop
         id="stop218"
         style="stop-color:#ffffff;stop-opacity:0.38431373"
         offset="0" /><stop
         id="stop220"
         style="stop-color:#ffffff;stop-opacity:0.75001144"
         offset="1" /><stop
         id="stop222"
         style="stop-color:#ffffff;stop-opacity:0.75001144"
         offset="1" /></linearGradient><mask
       id="mask224"><g
         id="g226"><g
           id="g228"><g
             id="g230"><g
               id="g232"><path
                 d="m -32768,32767 65535,0 0,-65535 -65535,0 0,65535 z"
                 inkscape:connector-curvature="0"
                 id="path234"
                 style="fill:url(#linearGradient216);stroke:none" /></g></g></g></g></mask><linearGradient
       x1="0"
       y1="0"
       x2="1"
       y2="0"
       id="linearGradient240"
       gradientUnits="userSpaceOnUse"
       gradientTransform="matrix(-6.8135386,7.6211405,-11.80387,-4.3991446,50.942173,63.101299)"
       spreadMethod="pad"><stop
         id="stop242"
         style="stop-color:#ffffff;stop-opacity:1"
         offset="0" /><stop
         id="stop244"
         style="stop-color:#f3fbfc;stop-opacity:1"
         offset="1" /><stop
         id="stop246"
         style="stop-color:#f3fbfc;stop-opacity:1"
         offset="1" /></linearGradient><clipPath
       id="clipPath254"><path
         d="m 3.595,18.359 91.5,0 0,62.262 -91.5,0 0,-62.262 z"
         inkscape:connector-curvature="0"
         id="path256" /></clipPath><linearGradient
       x1="0"
       y1="0"
       x2="1"
       y2="0"
       id="linearGradient274"
       gradientUnits="userSpaceOnUse"
       gradientTransform="matrix(-2.9908233,0.1628274,-0.7951728,-0.6124302,42.299305,69.104126)"
       spreadMethod="pad"><stop
         id="stop276"
         style="stop-color:#262525;stop-opacity:1"
         offset="0" /><stop
         id="stop278"
         style="stop-color:#cbcbc8;stop-opacity:1"
         offset="1" /></linearGradient><clipPath
       id="clipPath286"><path
         d="m 3.595,18.359 91.5,0 0,62.262 -91.5,0 0,-62.262 z"
         inkscape:connector-curvature="0"
         id="path288" /></clipPath><linearGradient
       x1="0"
       y1="0"
       x2="1"
       y2="0"
       id="linearGradient306"
       gradientUnits="userSpaceOnUse"
       gradientTransform="matrix(13.932816,-11.556963,17.899799,8.9956884,37.559524,67.378616)"
       spreadMethod="pad"><stop
         id="stop308"
         style="stop-color:#f6f013;stop-opacity:1"
         offset="0" /><stop
         id="stop310"
         style="stop-color:#f89d0e;stop-opacity:1"
         offset="1" /></linearGradient><clipPath
       id="clipPath318"><path
         d="m 3.595,18.359 91.5,0 0,62.262 -91.5,0 0,-62.262 z"
         inkscape:connector-curvature="0"
         id="path320" /></clipPath><linearGradient
       x1="0"
       y1="0"
       x2="1"
       y2="0"
       id="linearGradient338"
       gradientUnits="userSpaceOnUse"
       gradientTransform="matrix(9.732501,-16.61495,-51.643143,-1.2674015,58.866867,36.054783)"
       spreadMethod="pad"><stop
         id="stop340"
         style="stop-color:#f6f013;stop-opacity:1"
         offset="0" /><stop
         id="stop342"
         style="stop-color:#f89d0e;stop-opacity:1"
         offset="1" /></linearGradient><clipPath
       id="clipPath350"><path
         d="m 3.595,18.359 91.5,0 0,62.262 -91.5,0 0,-62.262 z"
         inkscape:connector-curvature="0"
         id="path352" /></clipPath><linearGradient
       x1="0"
       y1="0"
       x2="1"
       y2="0"
       id="linearGradient382"
       gradientUnits="userSpaceOnUse"
       gradientTransform="matrix(18.500248,-5.7417459,11.439423,31.165159,53.803974,58.536987)"
       spreadMethod="pad"><stop
         id="stop384"
         style="stop-color:#262525;stop-opacity:1"
         offset="0" /><stop
         id="stop386"
         style="stop-color:#cbcbc8;stop-opacity:1"
         offset="1" /></linearGradient><clipPath
       id="clipPath394"><path
         d="m 3.595,18.359 91.5,0 0,62.262 -91.5,0 0,-62.262 z"
         inkscape:connector-curvature="0"
         id="path396" /></clipPath><linearGradient
       x1="0"
       y1="0"
       x2="1"
       y2="0"
       id="linearGradient414"
       gradientUnits="userSpaceOnUse"
       gradientTransform="matrix(-6.0346508,2.8560691,-3.2981374,-7.3476295,67.009392,52.693775)"
       spreadMethod="pad"><stop
         id="stop416"
         style="stop-color:#989999;stop-opacity:1"
         offset="0" /><stop
         id="stop418"
         style="stop-color:#bcbbb9;stop-opacity:1"
         offset="0.14490999" /><stop
         id="stop420"
         style="stop-color:#a4a4a3;stop-opacity:1"
         offset="0.193214" /><stop
         id="stop422"
         style="stop-color:#8e8f8e;stop-opacity:1"
         offset="0.334207" /><stop
         id="stop424"
         style="stop-color:#f2f2f2;stop-opacity:1"
         offset="0.48269501" /><stop
         id="stop426"
         style="stop-color:#ffffff;stop-opacity:1"
         offset="0.71234298" /><stop
         id="stop428"
         style="stop-color:#989999;stop-opacity:1"
         offset="0.83263499" /><stop
         id="stop430"
         style="stop-color:#a4a4a3;stop-opacity:1"
         offset="0.86108398" /><stop
         id="stop432"
         style="stop-color:#aaaaa9;stop-opacity:1"
         offset="0.94790602" /><stop
         id="stop434"
         style="stop-color:#797a7b;stop-opacity:1"
         offset="1" /></linearGradient><clipPath
       id="clipPath442"><path
         d="m 3.595,18.359 91.5,0 0,62.262 -91.5,0 0,-62.262 z"
         inkscape:connector-curvature="0"
         id="path444" /></clipPath><linearGradient
       x1="0"
       y1="0"
       x2="1"
       y2="0"
       id="linearGradient462"
       gradientUnits="userSpaceOnUse"
       gradientTransform="matrix(11.258903,-4.4695787,12.173911,30.666124,49.040043,40.131458)"
       spreadMethod="pad"><stop
         id="stop464"
         style="stop-color:#989999;stop-opacity:1"
         offset="0" /><stop
         id="stop466"
         style="stop-color:#bcbbb9;stop-opacity:1"
         offset="0.14490999" /><stop
         id="stop468"
         style="stop-color:#a4a4a3;stop-opacity:1"
         offset="0.193214" /><stop
         id="stop470"
         style="stop-color:#8e8f8e;stop-opacity:1"
         offset="0.334207" /><stop
         id="stop472"
         style="stop-color:#f2f2f2;stop-opacity:1"
         offset="0.48269501" /><stop
         id="stop474"
         style="stop-color:#ffffff;stop-opacity:1"
         offset="0.71234298" /><stop
         id="stop476"
         style="stop-color:#989999;stop-opacity:1"
         offset="0.83263499" /><stop
         id="stop478"
         style="stop-color:#a4a4a3;stop-opacity:1"
         offset="0.86108398" /><stop
         id="stop480"
         style="stop-color:#aaaaa9;stop-opacity:1"
         offset="0.94790602" /><stop
         id="stop482"
         style="stop-color:#797a7b;stop-opacity:1"
         offset="1" /></linearGradient><clipPath
       id="clipPath490"><path
         d="m 3.595,18.359 91.5,0 0,62.262 -91.5,0 0,-62.262 z"
         inkscape:connector-curvature="0"
         id="path492" /></clipPath><linearGradient
       x1="0"
       y1="0"
       x2="1"
       y2="0"
       id="linearGradient510"
       gradientUnits="userSpaceOnUse"
       gradientTransform="matrix(5.002924,-12.270627,11.083549,9.4512968,63.025906,69.178703)"
       spreadMethod="pad"><stop
         id="stop512"
         style="stop-color:#262525;stop-opacity:1"
         offset="0" /><stop
         id="stop514"
         style="stop-color:#cbcbc8;stop-opacity:1"
         offset="1" /></linearGradient><clipPath
       id="clipPath522"><path
         d="m 3.595,18.359 91.5,0 0,62.262 -91.5,0 0,-62.262 z"
         inkscape:connector-curvature="0"
         id="path524" /></clipPath><linearGradient
       x1="0"
       y1="0"
       x2="1"
       y2="0"
       id="linearGradient542"
       gradientUnits="userSpaceOnUse"
       gradientTransform="matrix(12.00205,-4.764595,7.5268102,18.96006,57.123364,61.127735)"
       spreadMethod="pad"><stop
         id="stop544"
         style="stop-color:#989999;stop-opacity:1"
         offset="0" /><stop
         id="stop546"
         style="stop-color:#bcbbb9;stop-opacity:1"
         offset="0.14490999" /><stop
         id="stop548"
         style="stop-color:#a4a4a3;stop-opacity:1"
         offset="0.193214" /><stop
         id="stop550"
         style="stop-color:#8e8f8e;stop-opacity:1"
         offset="0.334207" /><stop
         id="stop552"
         style="stop-color:#f2f2f2;stop-opacity:1"
         offset="0.48269501" /><stop
         id="stop554"
         style="stop-color:#ffffff;stop-opacity:1"
         offset="0.71234298" /><stop
         id="stop556"
         style="stop-color:#989999;stop-opacity:1"
         offset="0.83263499" /><stop
         id="stop558"
         style="stop-color:#a4a4a3;stop-opacity:1"
         offset="0.86108398" /><stop
         id="stop560"
         style="stop-color:#aaaaa9;stop-opacity:1"
         offset="0.94790602" /><stop
         id="stop562"
         style="stop-color:#797a7b;stop-opacity:1"
         offset="1" /></linearGradient><clipPath
       id="clipPath570"><path
         d="m 3.595,18.359 91.5,0 0,62.262 -91.5,0 0,-62.262 z"
         inkscape:connector-curvature="0"
         id="path572" /></clipPath><linearGradient
       x1="0"
       y1="0"
       x2="1"
       y2="0"
       id="linearGradient590"
       gradientUnits="userSpaceOnUse"
       gradientTransform="matrix(-7.2550712,6.6053095,-6.8766422,-10.09564,64.633026,68.638626)"
       spreadMethod="pad"><stop
         id="stop592"
         style="stop-color:#262525;stop-opacity:1"
         offset="0" /><stop
         id="stop594"
         style="stop-color:#cbcbc8;stop-opacity:1"
         offset="1" /></linearGradient><clipPath
       id="clipPath602"><path
         d="m 3.595,18.359 91.5,0 0,62.262 -91.5,0 0,-62.262 z"
         inkscape:connector-curvature="0"
         id="path604" /></clipPath><linearGradient
       x1="0"
       y1="0"
       x2="1"
       y2="0"
       id="linearGradient622"
       gradientUnits="userSpaceOnUse"
       gradientTransform="matrix(13.6983,-4.1004548,10.841561,28.866644,57.698555,65.383156)"
       spreadMethod="pad"><stop
         id="stop624"
         style="stop-color:#989999;stop-opacity:1"
         offset="0" /><stop
         id="stop626"
         style="stop-color:#bcbbb9;stop-opacity:1"
         offset="0.14490999" /><stop
         id="stop628"
         style="stop-color:#a4a4a3;stop-opacity:1"
         offset="0.193214" /><stop
         id="stop630"
         style="stop-color:#8e8f8e;stop-opacity:1"
         offset="0.334207" /><stop
         id="stop632"
         style="stop-color:#f2f2f2;stop-opacity:1"
         offset="0.48269501" /><stop
         id="stop634"
         style="stop-color:#ffffff;stop-opacity:1"
         offset="0.71234298" /><stop
         id="stop636"
         style="stop-color:#989999;stop-opacity:1"
         offset="0.83263499" /><stop
         id="stop638"
         style="stop-color:#a4a4a3;stop-opacity:1"
         offset="0.86108398" /><stop
         id="stop640"
         style="stop-color:#aaaaa9;stop-opacity:1"
         offset="0.94790602" /><stop
         id="stop642"
         style="stop-color:#797a7b;stop-opacity:1"
         offset="1" /></linearGradient><clipPath
       id="clipPath650"><path
         d="m 3.595,18.359 91.5,0 0,62.262 -91.5,0 0,-62.262 z"
         inkscape:connector-curvature="0"
         id="path652" /></clipPath><linearGradient
       x1="0"
       y1="0"
       x2="1"
       y2="0"
       id="linearGradient694"
       gradientUnits="userSpaceOnUse"
       gradientTransform="matrix(-1.8019638,-0.2035044,2.5313618,-1.5100447,66.66182,73.475616)"
       spreadMethod="pad"><stop
         id="stop696"
         style="stop-color:#262525;stop-opacity:1"
         offset="0" /><stop
         id="stop698"
         style="stop-color:#cbcbc8;stop-opacity:1"
         offset="1" /></linearGradient><clipPath
       id="clipPath706"><path
         d="m 3.595,18.359 91.5,0 0,62.262 -91.5,0 0,-62.262 z"
         inkscape:connector-curvature="0"
         id="path708" /></clipPath><linearGradient
       x1="0"
       y1="0"
       x2="1"
       y2="0"
       id="linearGradient734"
       gradientUnits="userSpaceOnUse"
       gradientTransform="matrix(1.8772314,-6.3159928,5.477838,7.3149924,60.962898,69.232941)"
       spreadMethod="pad"><stop
         id="stop736"
         style="stop-color:#a6a6a5;stop-opacity:1"
         offset="0" /><stop
         id="stop738"
         style="stop-color:#343334;stop-opacity:1"
         offset="1" /></linearGradient><clipPath
       id="clipPath746"><path
         d="m 3.595,18.359 91.5,0 0,62.262 -91.5,0 0,-62.262 z"
         inkscape:connector-curvature="0"
         id="path748" /></clipPath><linearGradient
       x1="0"
       y1="0"
       x2="1"
       y2="0"
       id="linearGradient766"
       gradientUnits="userSpaceOnUse"
       gradientTransform="matrix(20.178026,0,0,17.190405,50.116894,43.123543)"
       spreadMethod="pad"><stop
         id="stop768"
         style="stop-color:#888a8a;stop-opacity:1"
         offset="0" /><stop
         id="stop770"
         style="stop-color:#474748;stop-opacity:1"
         offset="1" /></linearGradient><clipPath
       id="clipPath778"><path
         d="m 3.595,18.359 91.5,0 0,62.262 -91.5,0 0,-62.262 z"
         inkscape:connector-curvature="0"
         id="path780" /></clipPath></defs><g
     transform="matrix(1.25,0,0,-1.25,0,117.0565)"
     id="g10"><g
       id="g12"><g
         id="g14"><g
           id="g20"><g
             id="g22"><path
               d="m 13.253,30.799 c 0,-0.509 0.018,-1.014 0.039,-1.518 l 0,0 73.392,0 c 0.02,0.504 0.038,1.009 0.038,1.518 l 0,0 c 0,20.288 -16.446,36.734 -36.734,36.734 l 0,0 C 29.7,67.533 13.253,51.087 13.253,30.799"
               inkscape:connector-curvature="0"
               id="path30"
               style="fill:url(#linearGradient24);stroke:none" /></g></g></g></g><g
       id="g32"><g
         clip-path="url(#clipPath36)"
         id="g34"><g
           transform="translate(13.5839,29.5844)"
           id="g40"><path
             d="m 0,0 72.808,0 c 0.015,0.403 0.026,0.808 0.026,1.214 0,20.088 -16.342,36.431 -36.43,36.431 C 16.316,37.645 -0.027,21.302 -0.027,1.214 -0.027,0.808 -0.015,0.403 0,0 m 73.391,-0.607 -73.974,0 -0.012,0.291 c -0.021,0.508 -0.039,1.017 -0.039,1.53 0,20.423 16.615,37.038 37.038,37.038 20.423,0 37.038,-16.615 37.038,-37.038 0,-0.513 -0.018,-1.022 -0.038,-1.53 l -0.013,-0.291 z"
             inkscape:connector-curvature="0"
             id="path42"
             style="fill:#100f0d;fill-opacity:1;fill-rule:nonzero;stroke:none" /></g><g
           transform="translate(15.0757,35.3523)"
           id="g44"><path
             d="M 0,0 C 2.242,17.274 17.038,30.663 34.912,30.663 52.787,30.663 67.583,17.274 69.824,0 l 3.06,0 C 70.624,18.952 54.463,33.699 34.912,33.699 15.362,33.699 -0.8,18.952 -3.06,0 L 0,0 z"
             inkscape:connector-curvature="0"
             id="path46"
             style="fill:#100f0d;fill-opacity:1;fill-rule:nonzero;stroke:none" /></g></g></g><g
       id="g48"><g
         id="g50"><g
           id="g56"><g
             id="g58"><path
               d="m 24.236,51.456 c 0.01,-0.981 0.54,-4.377 1.12,-5.695 l 0,0 c 0.894,-2.031 3.698,-4.705 6.746,-7.264 l 0,0 c 3.166,-2.66 3.919,-2.965 5.819,-2.358 l 0,0 c 1.809,0.578 3.025,2.464 2.972,4.608 l 0,0 c -0.029,1.204 -1.044,5.657 -1.55,6.806 l 0,0 c -0.783,1.776 -0.631,3.129 -2.337,2.278 l 0,0 c -2.899,0.055 -6.744,0.278 -9.364,2.006 l 0,0 c -0.546,0.462 -1.153,0.639 -1.702,0.639 l 0,0 c -0.94,0 -1.709,-0.519 -1.704,-1.02"
               inkscape:connector-curvature="0"
               id="path66"
               style="fill:url(#linearGradient60);stroke:none" /></g></g></g></g><g
       id="g68"><g
         clip-path="url(#clipPath72)"
         id="g70"><g
           transform="translate(25.9398,52.2729)"
           id="g76"><path
             d="m 0,0 c -0.523,0 -1.043,-0.185 -1.324,-0.469 -0.115,-0.116 -0.177,-0.239 -0.176,-0.346 0.01,-0.995 0.55,-4.359 1.103,-5.614 0.74,-1.68 2.929,-4.033 6.69,-7.191 2.261,-1.9 3.253,-2.573 4.313,-2.573 0.363,0 0.755,0.075 1.312,0.254 1.719,0.548 2.883,2.361 2.832,4.408 -0.029,1.19 -1.033,5.593 -1.534,6.729 -0.186,0.423 -0.32,0.82 -0.437,1.169 -0.416,1.235 -0.604,1.519 -1.622,1.008 l -0.045,-0.021 -0.05,0 C 7.813,-2.584 4.147,-2.292 1.589,-0.605 0.994,-0.103 0.398,0 0,0 m 10.606,-16.601 0,0 c -1.186,0 -2.23,0.7 -4.575,2.668 -3.863,3.245 -6.024,5.577 -6.802,7.34 -0.581,1.321 -1.126,4.725 -1.137,5.774 -0.002,0.219 0.099,0.44 0.294,0.636 0.36,0.365 0.978,0.59 1.614,0.59 0.466,0 1.163,-0.119 1.833,-0.687 2.439,-1.607 6.009,-1.895 9.188,-1.958 0.36,0.175 0.656,0.26 0.903,0.26 0.727,0 0.954,-0.672 1.241,-1.525 0.114,-0.342 0.245,-0.728 0.424,-1.135 0.512,-1.161 1.538,-5.665 1.568,-6.883 0.055,-2.227 -1.225,-4.204 -3.115,-4.807 -0.6,-0.192 -1.029,-0.273 -1.436,-0.273"
             inkscape:connector-curvature="0"
             id="path78"
             style="fill:#100f0d;fill-opacity:1;fill-rule:nonzero;stroke:none" /></g></g></g><g
       id="g80"><g
         id="g82"><g
           id="g88"><g
             id="g90"><path
               d="m 49.82,76.973 c -1.756,-1.065 -8.873,0.361 -8.143,-11.519 l 0,0 C 39.422,51.72 33.837,52.083 35.133,31.658 l 0,0 c 0.573,-6.411 4.222,-11.493 9.805,-12.691 l 0,0 c 2.037,-0.219 3.895,-0.451 5.622,-0.608 l 0,0 6.518,0 c 2.401,0.352 4.618,1.234 6.862,3.039 l 0,0 c 5.193,4.176 8.272,9.417 5.979,18.011 l 0,0 C 67.372,50.229 64.27,54.84 60.478,71.842 l 0,0 c -2.395,4.424 -5.543,5.22 -8.611,5.22 l 0,0 c -0.69,0 -1.376,-0.04 -2.047,-0.089"
               inkscape:connector-curvature="0"
               id="path98"
               style="fill:url(#linearGradient92);stroke:none" /></g></g></g></g><g
       id="g100"><g
         clip-path="url(#clipPath104)"
         id="g102"><g
           transform="translate(49.8807,76.7734)"
           id="g108"><path
             d="M 0,0 C -0.371,-0.209 -0.921,-0.323 -1.555,-0.454 -4.181,-1 -8.578,-1.912 -8,-11.307 c -0.845,-5.173 -2.136,-8.314 -3.385,-11.352 -2.042,-4.966 -3.97,-9.656 -3.159,-22.444 0.586,-6.56 4.281,-11.354 9.645,-12.505 0.706,-0.075 1.411,-0.154 2.095,-0.232 2.672,-0.302 4.979,-0.564 7.121,-0.564 3.963,0 6.838,0.953 9.614,3.186 6.069,4.883 7.892,10.373 5.911,17.801 -1.095,4.651 -2.313,8.213 -3.602,11.985 -1.722,5.037 -3.675,10.747 -5.835,20.428 C 7.967,-0.521 4.783,0.085 1.988,0.085 1.293,0.085 0.596,0.042 0,0 m 4.317,-58.811 c -2.165,0 -4.483,0.263 -7.167,0.566 -0.683,0.078 -1.387,0.158 -2.114,0.236 -5.565,1.194 -9.384,6.126 -9.986,12.875 -0.818,12.887 1.128,17.62 3.188,22.631 1.241,3.016 2.523,6.135 3.357,11.216 -0.601,9.703 4.012,10.66 6.768,11.231 0.621,0.129 1.158,0.241 1.47,0.43 l 0.091,0.029 c 0.613,0.044 1.338,0.089 2.064,0.089 2.749,0 6.233,-0.605 8.789,-5.327 l 0.019,-0.053 c 2.159,-9.676 4.109,-15.38 5.829,-20.412 1.293,-3.782 2.514,-7.354 3.612,-12.018 2.027,-7.599 0.161,-13.22 -6.051,-18.217 -2.854,-2.296 -5.806,-3.276 -9.869,-3.276"
             inkscape:connector-curvature="0"
             id="path110"
             style="fill:#100f0d;fill-opacity:1;fill-rule:nonzero;stroke:none" /></g></g></g><g
       id="g112"><g
         id="g114"><g
           id="g120"><g
             id="g122"><path
               d="m 47.874,58.292 c -1.176,-0.655 -5.437,0.987 -4.948,-6.332 l 0,0 C 41.415,43.499 37.164,42.959 38.032,30.375 l 0,0 c 0.384,-3.948 2.83,-7.079 6.571,-7.817 l 0,0 c 5.508,-0.545 11.509,-0.46 14.61,3.222 l 0,0 c 3.551,4.093 1.974,7.372 0.438,12.666 l 0,0 c -1.706,6.666 -2.093,6.211 -4.634,16.685 l 0,0 c -1.605,2.725 -3.713,3.216 -5.769,3.216 l 0,0 c -0.463,0 -0.923,-0.025 -1.374,-0.055"
               inkscape:connector-curvature="0"
               id="path130"
               style="fill:url(#linearGradient124);stroke:none" /></g></g></g></g><g
       id="g132"><g
         clip-path="url(#clipPath136)"
         id="g134"><g
           transform="translate(47.9301,58.0922)"
           id="g140"><path
             d="m 0,0 c -0.289,-0.144 -0.688,-0.179 -1.147,-0.219 -1.698,-0.149 -4.024,-0.354 -3.653,-5.9 -0.574,-3.244 -1.532,-5.317 -2.457,-7.321 -1.531,-3.315 -2.977,-6.445 -2.437,-14.263 0.388,-4.002 2.843,-6.929 6.406,-7.632 1.642,-0.161 3.085,-0.241 4.394,-0.241 4.819,0 8.097,1.11 10.02,3.394 3.096,3.569 2.22,6.455 0.895,10.825 -0.162,0.53 -0.329,1.08 -0.495,1.654 -0.713,2.785 -1.193,4.316 -1.7,5.937 -0.715,2.283 -1.453,4.643 -2.93,10.728 C 5.281,-0.316 3.17,0.051 1.317,0.051 0.858,0.051 0.396,0.025 0,0 m 1.106,-35.983 c -1.322,0 -2.779,0.08 -4.453,0.245 -3.766,0.742 -6.346,3.807 -6.753,8.002 -0.548,7.927 0.919,11.103 2.473,14.466 0.915,1.982 1.861,4.03 2.423,7.173 -0.4,5.895 2.368,6.138 4.021,6.284 0.436,0.038 0.812,0.071 1.027,0.191 l 0.086,0.025 c 0.412,0.028 0.9,0.055 1.387,0.055 1.859,0 4.214,-0.377 5.945,-3.315 l 0.023,-0.056 c 1.478,-6.093 2.216,-8.451 2.93,-10.732 0.509,-1.626 0.99,-3.162 1.704,-5.951 0.164,-0.566 0.331,-1.115 0.491,-1.643 1.316,-4.337 2.267,-7.471 -0.974,-11.207 -2.004,-2.379 -5.383,-3.537 -10.33,-3.537"
             inkscape:connector-curvature="0"
             id="path142"
             style="fill:#100f0d;fill-opacity:1;fill-rule:nonzero;stroke:none" /></g></g></g><g
       id="g144"><g
         id="g146"><g
           id="g152"><g
             id="g154"><path
               d="m 36.172,37.655 c -2.335,-1.096 -0.617,-1.587 -2.554,-2.903 l 0,0 c -1.033,-0.701 -1.704,-0.608 -2.361,-0.514 l 0,0 c -0.626,0.09 -1.241,0.179 -2.146,-0.423 l 0,0 c -2.337,-1.556 -0.009,-1.976 -2.528,-4.203 l 0,0 c -2.584,-2.287 -3.872,0.128 -3.707,-2.964 l 0,0 c 0.117,-2.172 6.9,-6.628 12.866,-8.289 l 0,0 6.988,0 c 4.481,2.943 -3.662,19.348 -6.321,19.347 l 0,0 c -0.085,0 -0.164,-0.017 -0.237,-0.051"
               inkscape:connector-curvature="0"
               id="path162"
               style="fill:url(#linearGradient156);stroke:none" /></g></g></g></g><g
       id="g164"><g
         clip-path="url(#clipPath168)"
         id="g166"><g
           transform="translate(42.3186,18.142)"
           id="g172"><path
             d="m 0,0 c -5.59,-2.313 -19.276,5.414 -19.442,8.506 -0.166,3.092 1.122,0.677 3.707,2.963 2.519,2.228 0.19,2.648 2.528,4.204 1.852,1.233 2.488,-0.434 4.506,0.937 1.938,1.316 0.22,1.807 2.554,2.903 C -3.717,20.653 5.524,2.285 0,0 l 0,0 z"
             inkscape:connector-curvature="0"
             id="path174"
             style="fill:none;stroke:#100f0d;stroke-width:0.40700001;stroke-linecap:butt;stroke-linejoin:miter;stroke-miterlimit:4;stroke-opacity:1;stroke-dasharray:none" /></g><g
           transform="translate(46.377,69.0875)"
           id="g176"><path
             d="m 0,0 c -0.454,0.627 -1.181,0.66 -1.634,0.573 -0.26,-0.04 -0.607,-0.373 -0.834,-0.867 -0.153,-0.333 -0.274,-0.754 -0.287,-1.201 -0.027,-1.186 0.074,-1.646 0.347,-2.453 0.32,-0.947 1.107,-1.441 1.695,-1.208 0.607,0.241 0.627,0.22 1.027,1.101 0.326,0.674 0.486,1.02 0.473,2.047 C 0.786,-1.001 0.473,-0.654 0,0"
             inkscape:connector-curvature="0"
             id="path178"
             style="fill:#ffffff;fill-opacity:1;fill-rule:nonzero;stroke:none" /></g><g
           transform="translate(53.8127,68.6673)"
           id="g180"><path
             d="M 0,0 C -0.639,1.128 -1,1.307 -1.92,1.381 -3.334,1.5 -3.995,0.514 -4.301,-0.193 c -0.334,-0.766 -0.267,-0.66 -0.247,-1.627 0.02,-1.021 0.334,-1.44 0.68,-2.081 0.354,-0.62 1.794,-0.974 1.968,-0.967 1.514,0.161 2.047,0.747 2.32,1.767 C 0.667,-2.194 0.674,-1.187 0,0"
             inkscape:connector-curvature="0"
             id="path182"
             style="fill:#ffffff;fill-opacity:1;fill-rule:nonzero;stroke:none" /></g><g
           transform="translate(45.0958,68.0397)"
           id="g184"><path
             d="m 0,0 c 0.307,0 0.687,-0.206 0.867,-0.473 0.193,-0.274 0.334,-0.661 0.334,-1.094 0,-0.647 -0.067,-1.361 -0.454,-1.581 -0.12,-0.073 -0.38,-0.134 -0.534,-0.134 -0.346,0 -0.373,0.221 -0.7,0.554 -0.106,0.12 -0.439,0.707 -0.439,1.193 0,0.3 -0.074,0.735 0.193,1.121 C -0.553,-0.133 -0.32,0 0,0"
             inkscape:connector-curvature="0"
             id="path186"
             style="fill:#100f0d;fill-opacity:1;fill-rule:nonzero;stroke:none" /></g><g
           transform="translate(45.7832,67.2195)"
           id="g188"><path
             d="m 0,0 c -0.174,0.373 -0.648,0.461 -0.767,0.281 -0.12,-0.187 0.034,-0.367 0.3,-0.754 C -0.194,-0.886 -0.294,-1.34 0.02,-1.24 0.139,-1.2 0.167,-0.38 0,0 z"
             inkscape:connector-curvature="0"
             id="path190"
             style="fill:#959595;fill-opacity:1;fill-rule:nonzero;stroke:none" /></g><g
           transform="translate(51.7919,68.08)"
           id="g192"><path
             d="M 0,0 C 0.761,0 1.201,-0.68 1.354,-1.547 1.414,-1.941 1.322,-2.394 1.08,-2.707 0.808,-3.068 0.321,-3.294 -0.073,-3.294 c -0.374,0 -0.794,-0.061 -1.014,0.246 -0.226,0.314 -0.273,1.008 -0.273,1.501 0,0.553 0.16,0.947 0.439,1.261 C -0.706,-0.053 -0.32,0 0,0"
             inkscape:connector-curvature="0"
             id="path194"
             style="fill:#100f0d;fill-opacity:1;fill-rule:nonzero;stroke:none" /></g><g
           transform="translate(52.4728,67.4667)"
           id="g196"><path
             d="M 0,0 C -0.268,0.3 -0.494,0.394 -0.634,0.3 -0.908,0.12 -0.687,-0.034 -0.441,-0.307 -0.281,-0.48 -0.2,-0.887 0.067,-0.753 0.407,-0.566 0.287,-0.32 0,0"
             inkscape:connector-curvature="0"
             id="path198"
             style="fill:#959595;fill-opacity:1;fill-rule:nonzero;stroke:none" /></g></g></g><g
       id="g200"><g
         clip-path="url(#clipPath204)"
         id="g202"><g
           id="g208"><g
             id="g210" /><g
             mask="url(#mask224)"
             id="g236"><g
               id="g238"><path
                 d="M 48.086,70.853 C 42.683,70.624 40.27,70.27 40.383,67.33 l 0,0 c 0.216,-5.586 0.059,-4.408 1.705,-3.23 l 0,0 c 1.161,0.83 3.221,1.661 6.943,0.116 l 0,0 c 4.693,-1.374 7.614,-1.85 7.121,2.611 l 0,0 c -0.19,3.539 -2.193,4.135 -5.039,4.135 l 0,0 c -0.93,0 -1.951,-0.064 -3.027,-0.109"
                 inkscape:connector-curvature="0"
                 id="path248"
                 style="fill:url(#linearGradient240);stroke:none" /></g></g></g></g></g><g
       id="g250"><g
         clip-path="url(#clipPath254)"
         id="g252"><g
           transform="translate(51.1146,70.7582)"
           id="g258"><path
             d="M 0,0 C -0.685,0 -1.418,-0.035 -2.195,-0.072 L -3.02,-0.109 c -5.418,-0.23 -7.613,-0.593 -7.508,-3.311 l 0.037,-0.974 c 0.064,-1.711 0.104,-2.784 0.218,-3.028 0.083,0.048 0.238,0.187 0.366,0.303 0.641,0.575 1.835,1.646 4.04,1.646 1.153,0 2.452,-0.297 3.862,-0.881 1.929,-0.564 3.463,-0.944 4.614,-0.944 0.817,0 1.39,0.196 1.751,0.599 0.466,0.521 0.621,1.419 0.474,2.745 C 4.657,-0.646 2.928,0 0,0 m -10.303,-7.845 c -0.467,0 -0.484,0.458 -0.595,3.436 l -0.037,0.973 c -0.125,3.236 2.77,3.516 7.897,3.733 l 0.824,0.038 C -1.433,0.372 -0.695,0.407 0,0.407 3.006,0.407 5.048,-0.329 5.24,-3.921 5.4,-5.357 5.211,-6.358 4.663,-6.971 4.22,-7.465 3.548,-7.705 2.609,-7.705 c -1.199,0 -2.766,0.387 -4.749,0.967 -1.381,0.572 -2.628,0.858 -3.727,0.858 -2.05,0 -3.125,-0.966 -3.767,-1.543 -0.294,-0.263 -0.47,-0.422 -0.669,-0.422"
             inkscape:connector-curvature="0"
             id="path260"
             style="fill:#100f0d;fill-opacity:1;fill-rule:nonzero;stroke:none" /></g></g></g><g
       id="g262"><g
         id="g264"><g
           id="g270"><g
             id="g272"><path
               d="m 39.82,67.474 c 0.032,-0.162 0.044,-0.281 0.046,-0.365 l 0,0 c 0.179,0.558 1.471,2.438 9.04,2.684 l 0,0 c 4.176,0.135 7.069,-0.186 9.03,-0.507 l 0,0 c 3.236,-0.531 3.938,-1.061 3.69,0.462 l 0,0 c -0.135,0.833 -3.743,0.15 -13.987,1.32 l 0,0 c -0.621,0.071 -1.238,0.106 -1.838,0.106 l 0,0 c -3.533,0 -6.463,-1.231 -5.981,-3.7 m 0.046,-0.365 c -0.061,-0.187 0.005,-0.225 0,0"
               inkscape:connector-curvature="0"
               id="path280"
               style="fill:url(#linearGradient274);stroke:none" /></g></g></g></g><g
       id="g282"><g
         clip-path="url(#clipPath286)"
         id="g284"><g
           transform="translate(45.8021,70.9702)"
           id="g290"><path
             d="m 0,0 c -2.495,0 -4.495,-0.62 -5.351,-1.659 -0.378,-0.46 -0.534,-0.997 -0.462,-1.601 0.697,0.822 2.769,2.087 8.91,2.286 5.657,0.185 8.936,-0.461 10.796,-0.826 0.986,-0.193 1.59,-0.29 1.715,-0.145 0.107,0.126 0.038,0.55 0.015,0.69 C 15.582,-1 14.313,-0.954 12.557,-0.891 10.304,-0.809 6.9,-0.686 1.814,-0.104 1.204,-0.035 0.594,0 0,0 m -5.956,-4.22 -0.104,0 -0.063,0.085 c -0.021,0.029 -0.074,0.102 -0.019,0.3 -0.003,0.073 -0.015,0.172 -0.04,0.3 -0.158,0.808 0.016,1.527 0.517,2.135 0.946,1.149 3.011,1.807 5.665,1.807 0.609,0 1.235,-0.036 1.86,-0.107 5.071,-0.579 8.465,-0.702 10.712,-0.783 2.511,-0.091 3.358,-0.121 3.453,-0.706 0.073,-0.451 0.083,-0.796 -0.107,-1.02 -0.166,-0.195 -0.425,-0.218 -0.606,-0.218 -0.338,0 -0.825,0.095 -1.498,0.227 -1.843,0.362 -5.106,1.001 -10.704,0.82 -7.636,-0.248 -8.713,-2.179 -8.843,-2.515 -0.001,-0.163 -0.037,-0.222 -0.075,-0.262 l -0.06,-0.061 -0.088,-0.002 z"
             inkscape:connector-curvature="0"
             id="path292"
             style="fill:#100f0d;fill-opacity:1;fill-rule:nonzero;stroke:none" /></g></g></g><g
       id="g294"><g
         id="g296"><g
           id="g302"><g
             id="g304"><path
               d="m 42.464,64.337 c -1.243,-0.003 -2.285,0.258 -3.176,0.52 l 0,0 c -1.848,0.542 -3.042,1.086 -4.018,-0.734 l 0,0 c 0.371,-4.65 1.434,-5.232 10.43,-8.969 l 0,0 c 4.692,-1.373 7.614,0.95 6.611,4.647 l 0,0 c -0.304,4.503 -1.786,5.917 -4.129,5.917 l 0,0 c -1.556,0 -3.494,-0.624 -5.718,-1.381"
               inkscape:connector-curvature="0"
               id="path312"
               style="fill:url(#linearGradient306);stroke:none" /></g></g></g></g><g
       id="g314"><g
         clip-path="url(#clipPath318)"
         id="g316"><g
           transform="translate(35.4779,64.0786)"
           id="g322"><path
             d="m 0,0 c 0.365,-4.465 1.391,-5.036 10.3,-8.736 0.865,-0.252 1.708,-0.384 2.485,-0.384 1.497,0 2.702,0.497 3.393,1.4 0.665,0.87 0.824,2.042 0.459,3.389 -0.348,5.086 -2.182,5.767 -3.932,5.767 -1.507,0 -3.372,-0.594 -5.654,-1.371 L 6.986,0.054 C 5.5,0.055 4.294,0.419 3.325,0.712 2.644,0.918 2.055,1.096 1.556,1.096 0.892,1.096 0.424,0.768 0,0 m 12.785,-9.527 c -0.815,0 -1.697,0.136 -2.62,0.407 -9.032,3.75 -10.197,4.411 -10.576,9.147 l -0.005,0.06 0.028,0.054 c 0.506,0.942 1.105,1.362 1.944,1.362 0.559,0 1.174,-0.187 1.887,-0.401 0.992,-0.3 2.117,-0.64 3.525,-0.641 2.27,0.778 4.168,1.382 5.737,1.382 2.71,0 4.046,-1.883 4.331,-6.107 0.388,-1.413 0.2,-2.743 -0.535,-3.704 -0.769,-1.006 -2.089,-1.559 -3.716,-1.559"
             inkscape:connector-curvature="0"
             id="path324"
             style="fill:#100f0d;fill-opacity:1;fill-rule:nonzero;stroke:none" /></g></g></g><g
       id="g326"><g
         id="g328"><g
           id="g334"><g
             id="g336"><path
               d="m 57.361,18.359 10.569,0 c 4.365,2.678 8.228,6.729 7.956,8.521 l 0,0 c -0.255,1.682 -0.594,1.64 -1.341,1.597 l 0,0 c -0.589,-0.033 -1.434,-0.068 -2.694,0.748 l 0,0 c -2.785,1.8 -0.701,2.531 -3.184,3.707 l 0,0 c -0.964,0.456 -1.517,0.282 -2.085,0.106 l 0,0 c -0.59,-0.182 -1.196,-0.364 -2.292,0.168 l 0,0 c -2.064,1 -0.562,1.716 -2.951,2.448 l 0,0 c -0.049,0.014 -0.099,0.022 -0.149,0.022 l 0,0 C 59.146,35.678 55.703,23.689 57.361,18.359"
               inkscape:connector-curvature="0"
               id="path344"
               style="fill:url(#linearGradient338);stroke:none" /></g></g></g></g><g
       id="g346"><g
         clip-path="url(#clipPath350)"
         id="g348"><g
           transform="translate(59.4789,15.9419)"
           id="g354"><path
             d="m 0,0 c 5.659,-1.452 16.864,7.928 16.407,10.939 -0.457,3.01 -1.178,0.497 -4.036,2.344 -2.784,1.8 -0.7,2.531 -3.182,3.707 C 7.222,17.922 6.96,16.223 4.811,17.264 2.747,18.264 4.249,18.98 1.86,19.712 -0.626,20.473 -5.592,1.435 0,0 z"
             inkscape:connector-curvature="0"
             id="path356"
             style="fill:none;stroke:#100f0d;stroke-width:0.40700001;stroke-linecap:butt;stroke-linejoin:miter;stroke-miterlimit:4;stroke-opacity:1;stroke-dasharray:none" /></g><g
           transform="translate(46.701,59.3588)"
           id="g358"><path
             d="m 0,0 c -4.16,0 -6.325,1.555 -7.759,2.584 -0.682,0.49 -1.22,0.876 -1.692,0.876 -1.094,0 -1.464,-0.689 -1.479,-0.719 l -0.363,0.184 c 0.019,0.039 0.486,0.943 1.842,0.943 0.603,0 1.188,-0.421 1.93,-0.953 1.843,-1.324 4.928,-3.541 12.143,-1.958 L 4.709,0.559 C 2.902,0.163 1.346,0 0,0"
             inkscape:connector-curvature="0"
             id="path360"
             style="fill:#100f0d;fill-opacity:1;fill-rule:nonzero;stroke:none" /></g><g
           transform="translate(67.5487,73.4461)"
           id="g362"><path
             d="m 0,0 c 0.074,-0.865 -0.669,-1.43 -0.869,-2.429 0.412,0.107 2.384,0.125 4.005,0.184 C 2.412,-1.564 0.969,-0.547 0,0"
             inkscape:connector-curvature="0"
             id="path364"
             style="fill:#b2b2b1;fill-opacity:1;fill-rule:nonzero;stroke:none" /></g><g
           transform="translate(67.7421,73.0971)"
           id="g366"><path
             d="m 0,0 c -0.053,-0.376 -0.231,-0.702 -0.417,-1.042 -0.135,-0.248 -0.274,-0.503 -0.37,-0.792 0.493,0.048 1.365,0.072 2.34,0.099 0.288,0.008 0.58,0.016 0.869,0.025 C 1.764,-1.163 0.798,-0.479 0,0 m -1.326,-2.359 0.064,0.319 c 0.095,0.473 0.304,0.855 0.488,1.193 0.222,0.407 0.414,0.758 0.378,1.178 l -0.033,0.385 0.336,-0.19 C 0.954,-0.065 2.378,-1.085 3.082,-1.748 L 3.437,-2.082 2.95,-2.1 C 2.501,-2.116 2.026,-2.129 1.564,-2.142 0.434,-2.173 -0.735,-2.205 -1.011,-2.277 l -0.315,-0.082 z"
             inkscape:connector-curvature="0"
             id="path368"
             style="fill:#100f0d;fill-opacity:1;fill-rule:nonzero;stroke:none" /></g></g></g><g
       id="g370"><g
         id="g372"><g
           id="g378"><g
             id="g380"><path
               d="m 54.329,51.811 c -0.535,-1.085 -1.332,-1.385 1.201,-3.682 l 0,0 c 5.073,-4.6 8.271,-1.877 12.321,5.197 l 0,0 c 1.058,2.664 1.743,4.109 3.89,10.56 l 0,0 C 57.272,54.537 57.432,56.503 54.329,51.811"
               inkscape:connector-curvature="0"
               id="path388"
               style="fill:url(#linearGradient382);stroke:none" /></g></g></g></g><g
       id="g390"><g
         clip-path="url(#clipPath394)"
         id="g392"><g
           transform="translate(71.3646,63.3998)"
           id="g398"><path
             d="m 0,0 c -5.349,-3.439 -8.632,-5.289 -10.826,-6.525 -3.535,-1.993 -4.172,-2.352 -6.04,-5.175 -0.064,-0.133 -0.145,-0.273 -0.222,-0.404 -0.432,-0.74 -0.67,-1.147 1.391,-3.016 1.644,-1.491 3.103,-2.216 4.459,-2.216 l 0,0 c 2.367,0 4.553,2.134 7.548,7.364 0.175,0.447 0.351,0.882 0.525,1.313 C -2.379,-6.72 -1.635,-4.884 0,0 m -11.238,-17.743 0,0 c -1.462,0 -3.01,0.76 -4.733,2.322 -2.202,1.997 -2.018,2.581 -1.468,3.523 0.072,0.124 0.148,0.254 0.22,0.4 1.935,2.928 2.669,3.341 6.193,5.327 2.256,1.271 5.665,3.192 11.292,6.827 L 0.752,0.971 0.57,0.421 c -1.768,-5.312 -2.54,-7.216 -3.357,-9.234 -0.174,-0.429 -0.35,-0.863 -0.537,-1.335 -3.091,-5.402 -5.38,-7.595 -7.914,-7.595"
             inkscape:connector-curvature="0"
             id="path400"
             style="fill:#100f0d;fill-opacity:1;fill-rule:nonzero;stroke:none" /></g></g></g><g
       id="g402"><g
         id="g404"><g
           id="g410"><g
             id="g412"><path
               d="m 61.301,50.272 c 0.728,-0.669 0.142,-1.029 0.877,-1.388 l 0,0 c 1.388,0.749 3.55,2.239 4.471,2.713 l 0,0 c 0.304,0.245 2.306,1.273 2.95,5.967 l 0,0 c -2.895,-6.267 -5.073,-6.026 -8.298,-7.292"
               inkscape:connector-curvature="0"
               id="path436"
               style="fill:url(#linearGradient414);stroke:none" /></g></g></g></g><g
       id="g438"><g
         clip-path="url(#clipPath442)"
         id="g440"><g
           transform="translate(61.6556,50.1899)"
           id="g446"><path
             d="M 0,0 C 0.212,-0.271 0.25,-0.501 0.28,-0.68 0.311,-0.863 0.327,-0.96 0.521,-1.073 1.229,-0.685 2.137,-0.109 2.941,0.4 3.719,0.893 4.454,1.358 4.9,1.588 4.906,1.585 4.929,1.613 4.981,1.65 6.168,2.479 7.005,3.93 7.48,5.972 5.291,1.798 3.438,1.173 1.146,0.4 0.776,0.276 0.396,0.147 0,0 m 0.528,-1.533 -0.094,0.046 c -0.471,0.228 -0.516,0.501 -0.556,0.741 -0.034,0.205 -0.066,0.398 -0.37,0.678 l -0.24,0.22 0.303,0.119 c 0.507,0.2 0.984,0.36 1.445,0.516 2.422,0.816 4.334,1.46 6.742,6.672 L 8.145,7.347 C 7.744,4.425 6.758,2.396 5.215,1.316 5.175,1.288 5.143,1.267 5.121,1.249 4.656,1.004 3.929,0.544 3.16,0.056 2.313,-0.48 1.353,-1.089 0.62,-1.484 L 0.528,-1.533 z"
             inkscape:connector-curvature="0"
             id="path448"
             style="fill:#100f0d;fill-opacity:1;fill-rule:nonzero;stroke:none" /></g></g></g><g
       id="g450"><g
         id="g452"><g
           id="g458"><g
             id="g460"><path
               d="M 54.367,53.35 C 48.589,38.795 49.758,40.686 43.98,26.132 l 0,0 c 0.493,-2.926 7.883,-5.786 10.373,-4.205 l 0,0 c 5.778,14.555 5.858,13.714 11.636,28.269 l 0,0 c 0.845,2.128 0.274,0.704 -0.695,-0.718 l 0,0 c -0.687,-1.01 -1.575,-2.019 -2.301,-1.762 l 0,0 c -1.453,0.515 0.171,2.101 -1.941,2.931 l 0,0 c -1.174,0.461 -1.774,-0.038 -2.375,-0.537 l 0,0 c -0.574,-0.477 -1.148,-0.955 -2.225,-0.591 l 0,0 c -2.147,0.722 -1.315,4.923 -1.561,4.922 l 0,0 c -0.067,0 -0.215,-0.312 -0.524,-1.091"
               inkscape:connector-curvature="0"
               id="path484"
               style="fill:url(#linearGradient462);stroke:none" /></g></g></g></g><g
       id="g486"><g
         clip-path="url(#clipPath490)"
         id="g488"><g
           transform="translate(44.1913,26.1118)"
           id="g494"><path
             d="m 0,0 c 0.442,-2.208 5.114,-4.433 8.209,-4.433 0.753,0 1.354,0.13 1.789,0.386 2.874,7.239 4.359,10.716 5.795,14.079 1.374,3.214 2.791,6.532 5.424,13.143 -0.693,-1.006 -1.454,-1.815 -2.176,-1.815 -0.106,0 -0.209,0.018 -0.307,0.052 -0.787,0.279 -0.82,0.859 -0.849,1.372 -0.034,0.595 -0.066,1.155 -1.099,1.562 -0.288,0.113 -0.546,0.169 -0.787,0.169 -0.574,0 -0.966,-0.327 -1.382,-0.672 -0.453,-0.377 -0.922,-0.767 -1.644,-0.767 -0.247,0 -0.501,0.045 -0.778,0.138 -1.719,0.579 -1.685,3.109 -1.655,4.382 C 10.488,27.471 10.43,27.327 10.365,27.163 7.477,19.889 6.306,16.671 5.174,13.56 4.043,10.453 2.874,7.241 0,0 M 8.209,-4.84 C 4.872,-4.84 0,-2.453 -0.412,-0.014 L -0.421,0.043 -0.4,0.096 c 2.888,7.274 4.059,10.492 5.191,13.603 1.133,3.114 2.306,6.334 5.195,13.614 0.443,1.116 0.525,1.22 0.714,1.22 l 0.085,0 0.076,-0.068 c 0.101,-0.104 0.101,-0.255 0.088,-0.819 -0.028,-1.153 -0.087,-3.553 1.376,-4.045 0.234,-0.08 0.446,-0.118 0.648,-0.118 0.575,0 0.968,0.327 1.384,0.673 0.453,0.376 0.921,0.766 1.642,0.766 0.293,0 0.599,-0.065 0.937,-0.197 1.274,-0.501 1.319,-1.287 1.355,-1.917 0.028,-0.496 0.047,-0.824 0.579,-1.011 0.054,-0.02 0.111,-0.029 0.171,-0.029 0.979,0 2.338,2.384 2.785,3.168 0.23,0.403 0.249,0.436 0.381,0.436 l 0.107,0 0.062,-0.091 C 22.45,25.174 22.45,25.174 21.987,24.009 19.098,16.731 17.608,13.244 16.168,9.872 14.729,6.502 13.24,3.017 10.351,-4.261 L 10.327,-4.322 10.271,-4.357 C 9.767,-4.678 9.073,-4.84 8.209,-4.84"
             inkscape:connector-curvature="0"
             id="path496"
             style="fill:#100f0d;fill-opacity:1;fill-rule:nonzero;stroke:none" /></g></g></g><g
       id="g498"><g
         id="g500"><g
           id="g506"><g
             id="g508"><path
               d="m 56.518,58.9 c -0.534,-1.086 -0.683,-1.683 -0.411,-1.621 l 0,0 c 6.331,1.425 11.606,5.981 16.56,8.558 l 0,0 c 1.438,1.539 2.033,3.818 2.033,3.818 l 0,0 c 0,0 -2.375,-0.639 -7.065,0.573 l 0,0 C 63.891,63.925 58.823,63.665 56.518,58.9"
               inkscape:connector-curvature="0"
               id="path516"
               style="fill:url(#linearGradient510);stroke:none" /></g></g></g></g><g
       id="g518"><g
         clip-path="url(#clipPath522)"
         id="g520"><g
           transform="translate(67.7313,69.9926)"
           id="g526"><path
             d="m 0,0 c -1.948,-3.221 -4.261,-4.874 -6.305,-6.335 -1.952,-1.395 -3.639,-2.601 -4.725,-4.846 -0.388,-0.787 -0.491,-1.151 -0.516,-1.306 4.23,0.981 7.935,3.332 11.52,5.606 1.677,1.064 3.262,2.069 4.837,2.89 1.06,1.147 1.649,2.723 1.865,3.388 C 6.363,-0.651 5.837,-0.71 5.099,-0.71 3.578,-0.71 1.863,-0.471 0,0 m -11.66,-12.922 c -0.104,0 -0.194,0.05 -0.247,0.136 -0.067,0.106 -0.205,0.33 0.511,1.784 1.131,2.338 2.939,3.63 4.854,4.999 2.039,1.457 4.35,3.108 6.27,6.342 l 0.226,0.094 c 1.86,-0.482 3.64,-0.736 5.145,-0.736 1.195,0 1.811,0.16 1.817,0.161 L 7.166,-0.39 C 7.141,-0.484 6.542,-2.736 5.084,-4.294 L 5.029,-4.336 C 3.46,-5.152 1.873,-6.159 0.192,-7.226 -3.457,-9.54 -7.229,-11.933 -11.58,-12.912 l -0.08,-0.01 z"
             inkscape:connector-curvature="0"
             id="path528"
             style="fill:#100f0d;fill-opacity:1;fill-rule:nonzero;stroke:none" /></g></g></g><g
       id="g530"><g
         id="g532"><g
           id="g538"><g
             id="g540"><path
               d="m 55.906,57.209 c -0.534,-1.086 -1.698,-3.053 -2.204,-5.616 l 0,0 c 7.698,8.169 3.746,2.205 17.977,12.256 l 0,0 c 0.303,0.245 0.707,0.612 0.999,1.997 l 0,0 C 59.081,57.652 61.007,58.593 55.906,57.209"
               inkscape:connector-curvature="0"
               id="path564"
               style="fill:url(#linearGradient542);stroke:none" /></g></g></g></g><g
       id="g566"><g
         clip-path="url(#clipPath570)"
         id="g568"><g
           transform="translate(56.0472,57.0366)"
           id="g574"><path
             d="m 0,0 c -0.073,-0.146 -0.155,-0.306 -0.246,-0.479 -0.521,-1.01 -1.278,-2.476 -1.737,-4.287 3.672,3.856 4.511,4.228 6.421,5.077 1.755,0.78 4.407,1.958 11.076,6.668 0.214,0.172 0.535,0.431 0.805,1.405 C 14.908,7.533 13.67,6.784 12.578,6.124 4.35,1.147 4.35,1.147 1.082,0.288 0.757,0.202 0.401,0.108 0,0 m -2.682,-6.098 0.137,0.694 c 0.434,2.199 1.339,3.952 1.938,5.111 0.106,0.205 0.202,0.391 0.283,0.556 l 0.04,0.083 0.089,0.023 c 0.438,0.119 0.824,0.221 1.173,0.313 3.211,0.844 3.211,0.844 11.389,5.791 1.199,0.724 2.573,1.555 4.159,2.511 l 0.4,0.242 L 16.83,8.768 C 16.538,7.376 16.124,6.947 15.759,6.653 9.047,1.913 6.373,0.725 4.604,-0.062 2.661,-0.925 1.856,-1.281 -2.197,-5.583 l -0.485,-0.515 z"
             inkscape:connector-curvature="0"
             id="path576"
             style="fill:#100f0d;fill-opacity:1;fill-rule:nonzero;stroke:none" /></g></g></g><g
       id="g578"><g
         id="g580"><g
           id="g586"><g
             id="g588"><path
               d="m 60.012,66.38 c 5.143,2.124 6.593,4.772 7.294,6.291 l 0,0 c -2.993,1.177 -3.96,1.491 -6.046,2.359 l 0,0 c -1.694,-3.748 0.327,-5.478 -1.248,-8.65"
               inkscape:connector-curvature="0"
               id="path596"
               style="fill:url(#linearGradient590);stroke:none" /></g></g></g></g><g
       id="g598"><g
         clip-path="url(#clipPath602)"
         id="g600"><g
           transform="translate(61.3666,74.7661)"
           id="g606"><path
             d="m 0,0 c -0.758,-1.774 -0.661,-3.081 -0.566,-4.346 0.087,-1.167 0.17,-2.276 -0.389,-3.649 4.216,1.849 5.771,4.033 6.618,5.79 C 4.532,-1.762 3.698,-1.444 2.975,-1.169 1.95,-0.78 1.13,-0.468 0,0 m -1.779,-8.782 0.241,0.486 c 0.746,1.502 0.659,2.677 0.566,3.92 -0.102,1.358 -0.207,2.763 0.68,4.725 l 0.082,0.18 0.182,-0.077 C 1.194,-0.057 2.043,-0.38 3.119,-0.789 3.886,-1.08 4.777,-1.419 6.014,-1.905 L 6.215,-1.984 6.125,-2.18 C 5.239,-4.1 3.597,-6.562 -1.277,-8.575 l -0.502,-0.207 z"
             inkscape:connector-curvature="0"
             id="path608"
             style="fill:#100f0d;fill-opacity:1;fill-rule:nonzero;stroke:none" /></g></g></g><g
       id="g610"><g
         id="g612"><g
           id="g618"><g
             id="g620"><path
               d="m 56.087,57.895 c 2.381,10.929 9.565,8.657 11.406,12.511 l 0,0 c -1.087,0.391 -0.893,-0.044 -2.58,0.788 l 0,0 C 62.212,67.791 56.331,68.209 56.087,57.895"
               inkscape:connector-curvature="0"
               id="path644"
               style="fill:url(#linearGradient622);stroke:none" /></g></g></g></g><g
       id="g646"><g
         clip-path="url(#clipPath650)"
         id="g648"><g
           transform="translate(64.9686,70.9399)"
           id="g654"><path
             d="m 0,0 c -0.79,-0.943 -1.807,-1.588 -2.881,-2.269 -2.362,-1.496 -5.006,-3.171 -5.655,-8.688 1.739,5.412 4.865,6.805 7.429,7.946 1.433,0.639 2.682,1.196 3.341,2.36 -0.267,0.081 -0.435,0.1 -0.611,0.12 C 1.274,-0.491 0.944,-0.454 0,0 m -8.683,-13.088 -0.402,0.048 c 0.176,7.434 3.262,9.39 5.985,11.116 1.092,0.692 2.123,1.345 2.885,2.305 L -0.113,0.509 0.034,0.437 C 1.027,-0.054 1.339,-0.089 1.668,-0.126 1.903,-0.152 2.145,-0.181 2.593,-0.342 L 2.805,-0.418 2.708,-0.621 C 2.02,-2.063 0.647,-2.675 -0.942,-3.383 -3.718,-4.619 -7.173,-6.158 -8.683,-13.088"
             inkscape:connector-curvature="0"
             id="path656"
             style="fill:#100f0d;fill-opacity:1;fill-rule:nonzero;stroke:none" /></g><g
           transform="translate(68.1089,72.5658)"
           id="g658"><path
             d="M 0,0 C 0.074,-0.865 -0.156,-1.06 -0.365,-1.712 0.047,-1.604 0.559,-1.58 2.18,-1.521 1.456,-0.84 0.969,-0.547 0,0"
             inkscape:connector-curvature="0"
             id="path660"
             style="fill:#272525;fill-opacity:1;fill-rule:nonzero;stroke:none" /></g><g
           transform="translate(68.326,72.2084)"
           id="g662"><path
             d="m 0,0 c -0.008,-0.44 -0.112,-0.699 -0.229,-0.989 -0.013,-0.032 -0.026,-0.064 -0.039,-0.097 0.348,0.049 0.837,0.073 1.72,0.107 C 0.991,-0.589 0.586,-0.336 0,0 m -0.889,-1.646 0.113,0.354 c 0.057,0.177 0.115,0.321 0.169,0.455 0.143,0.355 0.237,0.589 0.187,1.177 l -0.033,0.385 0.336,-0.19 c 0.94,-0.531 1.465,-0.841 2.22,-1.551 L 2.458,-1.35 1.97,-1.367 c -1.586,-0.058 -2.107,-0.081 -2.5,-0.185 l -0.359,-0.094 z"
             inkscape:connector-curvature="0"
             id="path664"
             style="fill:#100f0d;fill-opacity:1;fill-rule:nonzero;stroke:none" /></g><g
           transform="translate(52.2156,38.7389)"
           id="g666"><path
             d="m 0,0 c -0.339,-0.505 -2.268,-4.967 -2.1,-5.8 0.061,-0.303 5.805,-2.729 6.387,-2.244 1.166,0.972 2.962,4.917 2.483,5.712 C 6.356,-1.644 0.178,0.266 0,0"
             inkscape:connector-curvature="0"
             id="path668"
             style="fill:#6a6b6d;fill-opacity:1;fill-rule:nonzero;stroke:none" /></g><g
           transform="translate(50.309,33.0239)"
           id="g670"><path
             d="m 0,0 c 0.433,-0.343 4.702,-2.189 5.918,-2.189 0.114,0 0.148,0.019 0.149,0.019 1.236,1.03 2.808,4.831 2.435,5.448 C 8.188,3.801 3,5.509 2.035,5.536 1.584,4.77 -0.069,0.811 0,0 m 5.918,-2.597 c -1.194,0 -6.208,1.963 -6.311,2.471 -0.19,0.94 1.829,5.504 2.131,5.954 0.077,0.115 0.22,0.115 0.274,0.115 0.834,0 6.394,-1.715 6.839,-2.454 C 9.401,2.576 7.542,-1.47 6.324,-2.485 6.233,-2.562 6.104,-2.597 5.918,-2.597"
             inkscape:connector-curvature="0"
             id="path672"
             style="fill:#100f0d;fill-opacity:1;fill-rule:nonzero;stroke:none" /></g><g
           transform="translate(51.7396,37.8548)"
           id="g674"><path
             d="m 0,0 c -0.258,-0.351 -1.485,-3.435 -1.434,-4.05 0.044,-0.539 5.115,-2.995 6.517,-2.137 1.021,0.623 1.953,3.238 1.732,3.896 C 6.45,-1.207 0.136,0.185 0,0"
             inkscape:connector-curvature="0"
             id="path676"
             style="fill:#808182;fill-opacity:1;fill-rule:nonzero;stroke:none" /></g><g
           transform="translate(51.8617,37.6674)"
           id="g678"><path
             d="m 0,0 c -0.312,-0.552 -1.396,-3.328 -1.353,-3.846 0.167,-0.347 3.529,-2.131 5.49,-2.131 l 0.001,0 c 0.313,0 0.554,0.051 0.717,0.151 0.966,0.59 1.822,3.131 1.645,3.657 C 6.218,-1.333 0.94,-0.03 0,0 m 4.138,-6.384 -0.001,0 c -1.852,0 -5.84,1.825 -5.896,2.505 -0.057,0.69 1.222,3.846 1.473,4.187 0.073,0.1 0.196,0.1 0.254,0.1 0.677,0 6.512,-1.244 6.917,-2.446 C 7.137,-2.785 6.155,-5.51 5.067,-6.174 4.84,-6.313 4.527,-6.384 4.138,-6.384"
             inkscape:connector-curvature="0"
             id="path680"
             style="fill:#100f0d;fill-opacity:1;fill-rule:nonzero;stroke:none" /></g></g></g><g
       id="g682"><g
         id="g684"><g
           id="g690"><g
             id="g692"><path
               d="m 66.656,71.297 c 0.885,1.3 -0.049,0.026 0.651,1.545 l 0,0 c -1.478,0.819 -3.188,1.348 -5.894,2.219 l 0,0 c 2.919,-1.768 4.353,-2.372 5.243,-3.764"
               inkscape:connector-curvature="0"
               id="path700"
               style="fill:url(#linearGradient694);stroke:none" /></g></g></g></g><g
       id="g702"><g
         clip-path="url(#clipPath706)"
         id="g704"><g
           transform="translate(63.0844,74.3071)"
           id="g710"><path
             d="m 0,0 c 0.029,-0.018 0.059,-0.034 0.087,-0.052 1.744,-1.017 2.763,-1.613 3.484,-2.595 0.072,0.107 0.143,0.216 0.183,0.284 -0.049,0.131 -0.002,0.34 0.205,0.809 C 2.88,-0.979 1.653,-0.54 0,0 M 3.566,-3.379 3.4,-3.119 c -0.676,1.056 -1.686,1.646 -3.518,2.716 -0.493,0.288 -1.043,0.609 -1.659,0.982 l 0.168,0.367 0.466,-0.149 C 1.299,0.012 2.912,-0.507 4.322,-1.287 L 4.487,-1.378 4.408,-1.55 C 4.211,-1.978 4.16,-2.15 4.147,-2.215 4.263,-2.356 4.173,-2.488 3.74,-3.124 L 3.566,-3.379 z"
             inkscape:connector-curvature="0"
             id="path712"
             style="fill:#100f0d;fill-opacity:1;fill-rule:nonzero;stroke:none" /></g><g
           transform="translate(74.4931,69.6558)"
           id="g714"><path
             d="m 0,0 -3.96,1.491 c 0,0 -3.111,-0.672 -5.372,0.145 -2.262,0.816 2.34,-1.01 2.34,-1.01 0,0 5.65,-1.27 6.992,-0.626"
             inkscape:connector-curvature="0"
             id="path716"
             style="fill:#dddbd9;fill-opacity:1;fill-rule:nonzero;stroke:none" /></g><g
           transform="translate(67.576,70.4711)"
           id="g718"><path
             d="m 0,0 c 0.011,0 3.57,-0.794 5.657,-0.794 0.222,0 0.407,0.01 0.561,0.024 L 2.941,0.465 C 2.677,0.412 1.593,0.212 0.299,0.212 c -0.321,0 -0.63,0.013 -0.925,0.037 C -0.404,0.16 -0.191,0.075 0,0 m 5.657,-1.201 c -2.134,0 -5.629,0.78 -5.777,0.813 -3.16,1.251 -3.16,1.251 -3.121,1.455 l 0.032,0.166 0.171,10e-4 c 0.046,0 0.076,0 0.692,-0.222 0.721,-0.261 1.611,-0.393 2.645,-0.393 1.414,0 2.604,0.253 2.616,0.256 L 2.973,0.888 7.435,-0.793 7.005,-0.999 C 6.722,-1.135 6.281,-1.201 5.657,-1.201"
             inkscape:connector-curvature="0"
             id="path720"
             style="fill:#100f0d;fill-opacity:1;fill-rule:nonzero;stroke:none" /></g></g></g><g
       id="g722"><g
         id="g724"><g
           id="g730"><g
             id="g732"><path
               d="m 56.848,59.865 c 4.14,5.2 5.517,3.01 10.693,10.448 l 0,0 C 64.84,66.91 58.078,67.191 56.848,59.865"
               inkscape:connector-curvature="0"
               id="path740"
               style="fill:url(#linearGradient734);stroke:none" /></g></g></g></g><g
       id="g742"><g
         clip-path="url(#clipPath746)"
         id="g744"><g
           transform="translate(66.2079,68.8295)"
           id="g750"><path
             d="m 0,0 c -0.772,-0.533 -1.653,-0.979 -2.563,-1.437 -2.691,-1.36 -5.468,-2.762 -6.435,-6.767 1.574,1.846 2.771,2.646 3.933,3.423 C -3.654,-3.838 -2.202,-2.867 0,0 m -9.691,-9.708 0.13,0.777 c 0.81,4.825 3.999,6.435 6.814,7.857 1.537,0.776 2.989,1.51 3.921,2.684 L 1.5,1.367 c -2.926,-4.206 -4.661,-5.365 -6.338,-6.487 -1.32,-0.882 -2.566,-1.715 -4.363,-3.972 l -0.49,-0.616 z"
             inkscape:connector-curvature="0"
             id="path752"
             style="fill:#100f0d;fill-opacity:1;fill-rule:nonzero;stroke:none" /></g></g></g><g
       id="g754"><g
         id="g756"><g
           id="g762"><g
             id="g764"><path
               d="m 50.117,50.284 c 0.013,-0.963 0.221,-3.712 0.99,-5.004 l 0,0 c 1.186,-1.994 3.496,-4.995 7.536,-7.507 l 0,0 c 4.196,-2.61 5.193,-2.909 7.71,-2.313 l 0,0 c 2.398,0.567 4.01,2.417 3.94,4.521 l 0,0 c -0.04,1.181 -1.384,5.551 -2.056,6.679 l 0,0 c -1.037,1.742 -1.363,1.831 -3.622,0.997 l 0,0 C 61.11,46.48 60.595,46.771 59.54,46.78 l 0,0 c -2.264,0.076 -3.156,1.539 -6.288,3.504 l 0,0 c -0.874,0.548 -1.594,0.762 -2.123,0.762 l 0,0 c -0.656,0 -1.018,-0.33 -1.012,-0.762"
               inkscape:connector-curvature="0"
               id="path772"
               style="fill:url(#linearGradient766);stroke:none" /></g></g></g></g><g
       id="g774"><g
         clip-path="url(#clipPath778)"
         id="g776"><g
           transform="translate(51.1298,50.8432)"
           id="g782"><path
             d="m 0,0 c -0.297,0 -0.538,-0.078 -0.676,-0.219 -0.09,-0.091 -0.135,-0.204 -0.133,-0.337 0.012,-0.873 0.214,-3.647 0.961,-4.903 1.203,-2.023 3.475,-4.956 7.469,-7.438 3.015,-1.875 4.342,-2.541 5.781,-2.541 l 0.001,0 c 0.493,0 1.023,0.075 1.773,0.252 2.295,0.543 3.85,2.318 3.783,4.317 -0.039,1.164 -1.365,5.469 -2.026,6.581 -0.62,1.04 -0.943,1.41 -1.525,1.41 -0.419,0 -0.997,-0.184 -1.852,-0.5 C 10.45,-4.421 9.687,-4.329 8.88,-4.285 8.727,-4.277 8.575,-4.269 8.41,-4.268 6.818,-4.214 5.891,-3.518 4.488,-2.463 3.807,-1.951 3.035,-1.371 2.014,-0.731 1.051,-0.127 0.387,0 0,0 m 13.403,-15.846 -0.001,0 c -1.538,0 -2.908,0.682 -5.996,2.603 -4.063,2.526 -6.378,5.514 -7.604,7.575 -0.796,1.34 -1.005,4.141 -1.018,5.106 -0.004,0.243 0.083,0.46 0.25,0.629 0.553,0.562 1.829,0.405 3.196,-0.453 1.036,-0.649 1.815,-1.235 2.502,-1.752 1.39,-1.043 2.228,-1.673 3.686,-1.722 0.167,-0.001 0.326,-0.01 0.485,-0.019 0.739,-0.043 1.442,-0.146 4.517,0.886 0.915,0.338 1.505,0.522 1.988,0.522 0.855,0 1.279,-0.608 1.874,-1.608 0.681,-1.144 2.045,-5.576 2.085,-6.776 0.073,-2.196 -1.612,-4.139 -4.097,-4.727 -0.783,-0.185 -1.341,-0.264 -1.867,-0.264"
             inkscape:connector-curvature="0"
             id="path784"
             style="fill:#100f0d;fill-opacity:1;fill-rule:nonzero;stroke:none" /></g><path
           d="m 94.995,18.351 -91.229,0 0,19.885 91.229,0 0,-19.885 z"
           inkscape:connector-curvature="0"
           id="path786"
           style="fill:#100f0d;fill-opacity:1;fill-rule:nonzero;stroke:none" /><g
           transform="translate(12.3768,33.0072)"
           id="g788"><path
             d="m 0,0 3.143,0 0,-7.666 4.905,0 0,-2.504 L 0,-10.17 0,0 z"
             inkscape:connector-curvature="0"
             id="path790"
             style="fill:#4b96d8;fill-opacity:1;fill-rule:nonzero;stroke:none" /></g><path
           d="m 21.77,30.204 2.823,0 0,-7.367 -2.823,0 0,7.367 z m 0,2.803 2.823,0 0,-1.922 -2.823,0 0,1.922 z"
           inkscape:connector-curvature="0"
           id="path792"
           style="fill:#4b96d8;fill-opacity:1;fill-rule:nonzero;stroke:none" /><g
           transform="translate(26.3971,30.2043)"
           id="g794"><path
             d="m 0,0 2.629,0 0,-1.2 c 0.393,0.49 0.791,0.841 1.194,1.051 0.402,0.211 0.892,0.316 1.47,0.316 0.782,0 1.394,-0.233 1.835,-0.698 0.442,-0.465 0.663,-1.183 0.663,-2.154 l 0,-4.682 -2.837,0 0,4.051 c 0,0.463 -0.086,0.79 -0.257,0.982 -0.172,0.192 -0.412,0.288 -0.722,0.288 -0.342,0 -0.62,-0.13 -0.832,-0.389 C 2.93,-2.694 2.824,-3.159 2.824,-3.829 l 0,-3.538 L 0,-7.367 0,0 z"
             inkscape:connector-curvature="0"
             id="path796"
             style="fill:#4b96d8;fill-opacity:1;fill-rule:nonzero;stroke:none" /></g><g
           transform="translate(43.6371,22.837)"
           id="g798"><path
             d="m 0,0 -2.636,0 0,1.193 c -0.393,-0.49 -0.79,-0.839 -1.19,-1.047 -0.4,-0.208 -0.891,-0.313 -1.474,-0.313 -0.777,0 -1.387,0.233 -1.828,0.698 -0.442,0.465 -0.663,1.18 -0.663,2.147 l 0,4.689 2.838,0 0,-4.051 c 0,-0.462 0.085,-0.791 0.256,-0.985 0.172,-0.194 0.412,-0.291 0.722,-0.291 0.338,0 0.614,0.129 0.829,0.388 0.215,0.259 0.322,0.724 0.322,1.395 l 0,3.544 L 0,7.367 0,0 z"
             inkscape:connector-curvature="0"
             id="path800"
             style="fill:#4b96d8;fill-opacity:1;fill-rule:nonzero;stroke:none" /></g><g
           transform="translate(44.7193,30.2043)"
           id="g802"><path
             d="M 0,0 3.351,0 4.52,-2.053 5.883,0 8.998,0 6.485,-3.51 l 2.693,-3.857 -3.295,0 -1.363,2.372 -1.599,-2.372 -3.06,0 L 2.537,-3.51 0,0 z"
             inkscape:connector-curvature="0"
             id="path804"
             style="fill:#4b96d8;fill-opacity:1;fill-rule:nonzero;stroke:none" /></g><g
           transform="translate(61.7852,26.9995)"
           id="g806"><path
             d="M 0,0 2.754,-0.832 C 2.569,-1.605 2.278,-2.25 1.88,-2.768 1.482,-3.286 0.988,-3.677 0.399,-3.941 c -0.59,-0.263 -1.34,-0.395 -2.251,-0.395 -1.106,0 -2.009,0.16 -2.71,0.482 -0.7,0.321 -1.305,0.886 -1.813,1.695 -0.509,0.809 -0.764,1.844 -0.764,3.106 0,1.682 0.448,2.975 1.343,3.879 0.895,0.904 2.161,1.356 3.798,1.356 1.281,0 2.289,-0.26 3.021,-0.778 C 1.756,4.887 2.301,4.091 2.657,3.018 L -0.118,2.4 c -0.097,0.31 -0.199,0.537 -0.305,0.68 -0.176,0.241 -0.391,0.426 -0.645,0.555 -0.255,0.13 -0.539,0.194 -0.854,0.194 -0.712,0 -1.257,-0.286 -1.637,-0.859 -0.287,-0.425 -0.43,-1.092 -0.43,-2.002 0,-1.128 0.171,-1.9 0.513,-2.318 0.343,-0.418 0.824,-0.627 1.443,-0.627 0.602,0 1.056,0.169 1.364,0.506 C -0.362,-1.133 -0.139,-0.643 0,0"
             inkscape:connector-curvature="0"
             id="path808"
             style="fill:#4b96d8;fill-opacity:1;fill-rule:nonzero;stroke:none" /></g><g
           transform="translate(66.0865,33.0072)"
           id="g810"><path
             d="m 0,0 2.935,0 3.829,-5.626 0,5.626 2.962,0 0,-10.17 -2.962,0 -3.809,5.584 0,-5.584 L 0,-10.17 0,0 z"
             inkscape:connector-curvature="0"
             id="path812"
             style="fill:#4b96d8;fill-opacity:1;fill-rule:nonzero;stroke:none" /></g><g
           transform="translate(84.6719,26.9995)"
           id="g814"><path
             d="M 0,0 2.754,-0.832 C 2.569,-1.605 2.278,-2.25 1.88,-2.768 1.482,-3.286 0.988,-3.677 0.399,-3.941 c -0.59,-0.263 -1.34,-0.395 -2.251,-0.395 -1.106,0 -2.009,0.16 -2.71,0.482 -0.7,0.321 -1.305,0.886 -1.813,1.695 -0.509,0.809 -0.764,1.844 -0.764,3.106 0,1.682 0.448,2.975 1.343,3.879 0.895,0.904 2.161,1.356 3.798,1.356 1.281,0 2.289,-0.26 3.021,-0.778 C 1.756,4.887 2.301,4.091 2.657,3.018 L -0.118,2.4 c -0.097,0.31 -0.199,0.537 -0.305,0.68 -0.176,0.241 -0.391,0.426 -0.645,0.555 -0.255,0.13 -0.539,0.194 -0.854,0.194 -0.712,0 -1.257,-0.286 -1.637,-0.859 -0.287,-0.425 -0.43,-1.092 -0.43,-2.002 0,-1.128 0.171,-1.9 0.513,-2.318 0.343,-0.418 0.824,-0.627 1.443,-0.627 0.602,0 1.056,0.169 1.364,0.506 C -0.362,-1.133 -0.139,-0.643 0,0"
             inkscape:connector-curvature="0"
             id="path816"
             style="fill:#4b96d8;fill-opacity:1;fill-rule:nonzero;stroke:none" /></g></g></g></g></svg>