999
dxfrw 0.5.10
0
SECTION
2
HEADER
9
$ACADVER
1
AC1021
9
$HANDSEED
5
20000
9
$DWGCODEPAGE
3
ANSI_1252
9
$INSBASE
10
0
20
0
30
0
9
$EXTMIN
10
-19
20
22.8
30
0
9
$EXTMAX
10
-12
20
32.8
30
0
9
$LIMMIN
10
0
20
0
9
$LIMMAX
10
0
20
0
9
$ORTHOMODE
70
0
9
$LTSCALE
40
1
9
$TEXTSTYLE
7
STANDARD
9
$CLAYER
8
0
9
$DIMASZ
40
0.18
9
$DIMLFAC
40
1
9
$DIMSCALE
40
1
9
$DIMEXO
40
0.0625
9
$DIMEXE
40
0.18
9
$DIMTXT
40
0.18
9
$DIMTSZ
40
0
9
$DIMAUNIT
70
0
9
$DIMADEC
70
0
9
$DIMLUNIT
70
2
9
$DIMSTYLE
2
STANDARD
9
$DIMGAP
40
0.09
9
$DIMTIH
70
1
9
$LUNITS
70
2
9
$LUPREC
70
4
9
$AUNITS
70
0
9
$AUPREC
70
0
9
$SPLINESEGS
70
8
9
$GRIDMODE
70
1
9
$SNAPSTYLE
70
0
9
$PINSBASE
10
0
20
0
30
0
9
$PLIMMIN
10
0
20
0
9
$PLIMMAX
10
12
20
9
9
$INSUNITS
70
1
9
$PSVPSCALE
40
1
0
ENDSEC
0
SECTION
2
CLASSES
0
ENDSEC
0
SECTION
2
TABLES
0
TABLE
2
VPORT
5
8
330
0
100
AcDbSymbolTable
70
1
0
VPORT
5
31
330
2
100
AcDbSymbolTableRecord
100
AcDbViewportTableRecord
2
*ACTIVE
70
0
10
0
20
0
11
1
21
1
12
-3.69308600337
22
16.4839797639
13
0
23
0
14
10
24
10
15
10
25
10
16
0
26
0
36
1
17
0
27
0
37
0
40
10.3372681282
41
1.56933115824
42
50
43
0
44
0
50
0
51
0
71
0
72
100
73
1
74
3
75
0
76
1
77
0
78
0
281
0
65
1
110
0
120
0
130
0
111
1
121
0
131
0
112
0
122
1
132
0
79
0
146
0
348
10020
60
7
61
5
292
1
282
1
141
0
142
0
63
250
421
3358443
0
ENDTAB
0
TABLE
2
LTYPE
5
5
330
0
100
AcDbSymbolTable
70
4
0
LTYPE
5
14
330
5
100
AcDbSymbolTableRecord
100
AcDbLinetypeTableRecord
2
ByBlock
70
0
3

72
65
73
0
40
0
0
LTYPE
5
15
330
5
100
AcDbSymbolTableRecord
100
AcDbLinetypeTableRecord
2
ByLayer
70
0
3

72
65
73
0
40
0
0
LTYPE
5
16
330
5
100
AcDbSymbolTableRecord
100
AcDbLinetypeTableRecord
2
Continuous
70
0
3
Solid line
72
65
73
0
40
0
0
LTYPE
5
32
330
5
100
AcDbSymbolTableRecord
100
AcDbLinetypeTableRecord
2
DOT
70
0
3
Dot . . . . . . . . . . . . . . . . . . . . . .
72
65
73
2
40
6.35
49
0
74
0
49
-6.35
74
0
0
LTYPE
5
33
330
5
100
AcDbSymbolTableRecord
100
AcDbLinetypeTableRecord
2
DOT2
70
0
3
Dot (.5x) .....................................
72
65
73
2
40
3.175
49
0
74
0
49
-3.175
74
0
0
LTYPE
5
34
330
5
100
AcDbSymbolTableRecord
100
AcDbLinetypeTableRecord
2
DOTX2
70
0
3
Dot (2x) .  .  .  .  .  .  .  .  .  .  .  .  .
72
65
73
2
40
12.7
49
0
74
0
49
-12.7
74
0
0
LTYPE
5
35
330
5
100
AcDbSymbolTableRecord
100
AcDbLinetypeTableRecord
2
DASHED
70
0
3
Dot . . . . . . . . . . . . . . . . . . . . . .
72
65
73
2
40
19.05
49
12.7
74
0
49
-6.35
74
0
0
LTYPE
5
36
330
5
100
AcDbSymbolTableRecord
100
AcDbLinetypeTableRecord
2
DASHED2
70
0
3
Dashed (.5x) _ _ _ _ _ _ _ _ _ _ _ _ _ _ _ _ _
72
65
73
2
40
9.525
49
6.35
74
0
49
-3.175
74
0
0
LTYPE
5
37
330
5
100
AcDbSymbolTableRecord
100
AcDbLinetypeTableRecord
2
DASHEDX2
70
0
3
Dashed (2x) ____  ____  ____  ____  ____  ___
72
65
73
2
40
38.1
49
25.4
74
0
49
-12.7
74
0
0
LTYPE
5
38
330
5
100
AcDbSymbolTableRecord
100
AcDbLinetypeTableRecord
2
DASHDOT
70
0
3
Dash dot __ . __ . __ . __ . __ . __ . __ . __
72
65
73
4
40
25.4
49
12.7
74
0
49
-6.35
74
0
49
0
74
0
49
-6.35
74
0
0
LTYPE
5
39
330
5
100
AcDbSymbolTableRecord
100
AcDbLinetypeTableRecord
2
DASHDOT2
70
0
3
Dash dot (.5x) _._._._._._._._._._._._._._._.
72
65
73
4
40
12.7
49
6.35
74
0
49
-3.175
74
0
49
0
74
0
49
-3.175
74
0
0
LTYPE
5
3A
330
5
100
AcDbSymbolTableRecord
100
AcDbLinetypeTableRecord
2
DASHDOTX2
70
0
3
Dash dot (2x) ____  .  ____  .  ____  .  ___
72
65
73
4
40
50.8
49
25.4
74
0
49
-12.7
74
0
49
0
74
0
49
-12.7
74
0
0
LTYPE
5
3B
330
5
100
AcDbSymbolTableRecord
100
AcDbLinetypeTableRecord
2
DIVIDE
70
0
3
Divide ____ . . ____ . . ____ . . ____ . . ____
72
65
73
6
40
31.75
49
12.7
74
0
49
-6.35
74
0
49
0
74
0
49
-6.35
74
0
49
0
74
0
49
-6.35
74
0
0
LTYPE
5
3C
330
5
100
AcDbSymbolTableRecord
100
AcDbLinetypeTableRecord
2
DIVIDE2
70
0
3
Divide (.5x) __..__..__..__..__..__..__..__.._
72
65
73
6
40
15.875
49
6.35
74
0
49
-3.175
74
0
49
0
74
0
49
-3.175
74
0
49
0
74
0
49
-3.175
74
0
0
LTYPE
5
3D
330
5
100
AcDbSymbolTableRecord
100
AcDbLinetypeTableRecord
2
DIVIDEX2
70
0
3
Divide (2x) ________  .  .  ________  .  .  _
72
65
73
6
40
63.5
49
25.4
74
0
49
-12.7
74
0
49
0
74
0
49
-12.7
74
0
49
0
74
0
49
-12.7
74
0
0
LTYPE
5
3E
330
5
100
AcDbSymbolTableRecord
100
AcDbLinetypeTableRecord
2
BORDER
70
0
3
Border __ __ . __ __ . __ __ . __ __ . __ __ .
72
65
73
6
40
44.45
49
12.7
74
0
49
-6.35
74
0
49
12.7
74
0
49
-6.35
74
0
49
0
74
0
49
-6.35
74
0
0
LTYPE
5
3F
330
5
100
AcDbSymbolTableRecord
100
AcDbLinetypeTableRecord
2
BORDER2
70
0
3
Border (.5x) __.__.__.__.__.__.__.__.__.__.__.
72
65
73
6
40
22.225
49
6.35
74
0
49
-3.175
74
0
49
6.35
74
0
49
-3.175
74
0
49
0
74
0
49
-3.175
74
0
0
LTYPE
5
40
330
5
100
AcDbSymbolTableRecord
100
AcDbLinetypeTableRecord
2
BORDERX2
70
0
3
Border (2x) ____  ____  .  ____  ____  .  ___
72
65
73
6
40
88.9
49
25.4
74
0
49
-12.7
74
0
49
25.4
74
0
49
-12.7
74
0
49
0
74
0
49
-12.7
74
0
0
LTYPE
5
41
330
5
100
AcDbSymbolTableRecord
100
AcDbLinetypeTableRecord
2
CENTER
70
0
3
Center ____ _ ____ _ ____ _ ____ _ ____ _ ____
72
65
73
4
40
50.8
49
31.75
74
0
49
-6.35
74
0
49
6.35
74
0
49
-6.35
74
0
0
LTYPE
5
42
330
5
100
AcDbSymbolTableRecord
100
AcDbLinetypeTableRecord
2
CENTER2
70
0
3
Center (.5x) ___ _ ___ _ ___ _ ___ _ ___ _ ___
72
65
73
4
40
28.575
49
19.05
74
0
49
-3.175
74
0
49
3.175
74
0
49
-3.175
74
0
0
LTYPE
5
43
330
5
100
AcDbSymbolTableRecord
100
AcDbLinetypeTableRecord
2
CENTERX2
70
0
3
Center (2x) ________  __  ________  __  _____
72
65
73
4
40
101.6
49
63.5
74
0
49
-12.7
74
0
49
12.7
74
0
49
-12.7
74
0
0
ENDTAB
0
TABLE
2
LAYER
5
2
330
0
100
AcDbSymbolTable
70
1
0
LAYER
5
10
330
2
100
AcDbSymbolTableRecord
100
AcDbLayerTableRecord
2
0
70
0
62
7
6
CONTINUOUS
370
-3
390
F
0
LAYER
5
44
330
2
100
AcDbSymbolTableRecord
100
AcDbLayerTableRecord
2
PROCEDURE
70
0
62
7
6
CONTINUOUS
370
35
390
F
0
LAYER
5
45
330
2
100
AcDbSymbolTableRecord
100
AcDbLayerTableRecord
2
PARAMS
70
0
62
7
6
CONTINUOUS
370
13
390
F
0
LAYER
5
46
330
2
100
AcDbSymbolTableRecord
100
AcDbLayerTableRecord
2
OUTLINE
70
0
62
7
6
CONTINUOUS
370
13
390
F
0
LAYER
5
47
330
2
100
AcDbSymbolTableRecord
100
AcDbLayerTableRecord
2
DETECTIONS
70
0
62
7
6
CONTINUOUS
370
35
390
F
0
LAYER
5
48
330
2
100
AcDbSymbolTableRecord
100
AcDbLayerTableRecord
2
HOME_SWS
70
0
62
7
6
CONTINUOUS
370
13
390
F
0
LAYER
5
49
330
2
100
AcDbSymbolTableRecord
100
AcDbLayerTableRecord
2
INDEX_PULSES
70
0
62
7
6
CONTINUOUS
370
13
390
F
0
LAYER
5
4A
330
2
100
AcDbSymbolTableRecord
100
AcDbLayerTableRecord
2
DESCRIPTION
70
0
62
7
6
CONTINUOUS
370
13
390
F
0
LAYER
5
4B
330
2
100
AcDbSymbolTableRecord
100
AcDbLayerTableRecord
2
GAPS
70
0
62
7
6
DOT
370
18
390
F
0
ENDTAB
0
TABLE
2
STYLE
5
3
330
0
100
AcDbSymbolTable
70
3
0
STYLE
5
4C
330
2
100
AcDbSymbolTableRecord
100
AcDbTextStyleTableRecord
2
style1
70
0
40
0
41
1
50
0
71
0
42
1
3
style1
4

0
STYLE
5
4D
330
2
100
AcDbSymbolTableRecord
100
AcDbTextStyleTableRecord
2
Standard
70
0
40
0
41
1
50
0
71
0
42
1
3
txt
4

0
ENDTAB
0
TABLE
2
VIEW
5
6
330
0
100
AcDbSymbolTable
70
0
0
ENDTAB
0
TABLE
2
UCS
5
7
330
0
100
AcDbSymbolTable
70
0
0
ENDTAB
0
TABLE
2
APPID
5
9
330
0
100
AcDbSymbolTable
70
1
0
APPID
5
12
330
9
100
AcDbSymbolTableRecord
100
AcDbRegAppTableRecord
2
ACAD
70
0
0
ENDTAB
0
TABLE
2
DIMSTYLE
5
A
330
0
100
AcDbSymbolTable
70
1
100
AcDbDimStyleTable
71
1
0
DIMSTYLE
105
4E
330
A
100
AcDbSymbolTableRecord
100
AcDbDimStyleTableRecord
2
Standard
70
0
40
1
41
0.18
42
0.0625
43
0.38
44
0.18
45
0
46
0
47
0
48
0
140
0.18
141
0.09
142
0
143
25.4
144
1
145
0
146
1
147
0.09
148
0
71
0
72
0
73
0
74
1
75
0
76
0
77
0
78
0
79
0
170
0
171
2
172
0
173
0
174
0
175
0
176
0
177
0
178
0
179
0
271
4
272
4
273
2
274
2
275
0
276
0
277
2
278
46
279
0
280
0
281
0
282
0
283
1
284
0
285
0
286
0
288
0
289
3
340
Standard
341

371
-2
372
-2
0
ENDTAB
0
TABLE
2
BLOCK_RECORD
5
1
330
0
100
AcDbSymbolTable
70
2
0
BLOCK_RECORD
5
1F
330
1
100
AcDbSymbolTableRecord
100
AcDbBlockTableRecord
2
*Model_Space
70
0
280
1
281
0
0
BLOCK_RECORD
5
1E
330
1
100
AcDbSymbolTableRecord
100
AcDbBlockTableRecord
2
*Paper_Space
70
0
280
1
281
0
0
ENDTAB
0
ENDSEC
0
SECTION
2
BLOCKS
0
BLOCK
5
20
330
1F
100
AcDbEntity
8
0
100
AcDbBlockBegin
2
*Model_Space
70
0
10
0
20
0
30
0
3
*Model_Space
1

0
ENDBLK
5
21
330
1F
100
AcDbEntity
8
0
100
AcDbBlockEnd
0
BLOCK
5
1C
330
1B
100
AcDbEntity
8
0
100
AcDbBlockBegin
2
*Paper_Space
70
0
10
0
20
0
30
0
3
*Paper_Space
1

0
ENDBLK
5
1D
330
1F
100
AcDbEntity
8
0
100
AcDbBlockEnd
0
ENDSEC
0
SECTION
2
ENTITIES
0
LINE
5
4F
100
AcDbEntity
8
PROCEDURE
6
ByLayer
62
7
370
-1
100
AcDbLine
10
-15.15
20
31.8
11
-17.8
21
31.8
0
LWPOLYLINE
5
50
100
AcDbEntity
8
PROCEDURE
6
ByLayer
62
7
370
-1
100
AcDbPolyline
90
4
70
0
43
0
10
-15.15
20
31.8
10
-15.33
20
31.84
10
-15.33
20
31.76
10
-15.15
20
31.8
0
LINE
5
51
100
AcDbEntity
8
PROCEDURE
6
ByLayer
62
7
370
-1
100
AcDbLine
10
-15.15
20
26.8
11
-17.8
21
26.8
0
LWPOLYLINE
5
52
100
AcDbEntity
8
PROCEDURE
6
ByLayer
62
7
370
-1
100
AcDbPolyline
90
4
70
0
43
0
10
-15.15
20
26.8
10
-15.33
20
26.84
10
-15.33
20
26.76
10
-15.15
20
26.8
0
LINE
5
53
100
AcDbEntity
8
PROCEDURE
6
ByLayer
62
7
370
-1
100
AcDbLine
10
-15.15
20
29.35
11
-17.8
21
29.35
0
LWPOLYLINE
5
54
100
AcDbEntity
8
PROCEDURE
6
ByLayer
62
7
370
-1
100
AcDbPolyline
90
4
70
0
43
0
10
-15.15
20
29.35
10
-15.33
20
29.39
10
-15.33
20
29.31
10
-15.15
20
29.35
0
LINE
5
55
100
AcDbEntity
8
PROCEDURE
6
ByLayer
62
7
370
-1
100
AcDbLine
10
-15.15
20
24.35
11
-17.8
21
24.35
0
LWPOLYLINE
5
56
100
AcDbEntity
8
PROCEDURE
6
ByLayer
62
7
370
-1
100
AcDbPolyline
90
4
70
0
43
0
10
-15.15
20
24.35
10
-15.33
20
24.39
10
-15.33
20
24.31
10
-15.15
20
24.35
0
LINE
5
57
100
AcDbEntity
8
PROCEDURE
6
ByLayer
62
7
370
-1
100
AcDbLine
10
-16.25
20
31.5
11
-15.15
21
31.5
0
LWPOLYLINE
5
58
100
AcDbEntity
8
PROCEDURE
6
ByLayer
62
7
370
-1
100
AcDbPolyline
90
4
70
0
43
0
10
-16.25
20
31.5
10
-16.07
20
31.46
10
-16.07
20
31.54
10
-16.25
20
31.5
0
LINE
5
59
100
AcDbEntity
8
PROCEDURE
6
ByLayer
62
7
370
-1
100
AcDbLine
10
-16.45
20
26.5
11
-15.15
21
26.5
0
LWPOLYLINE
5
5A
100
AcDbEntity
8
PROCEDURE
6
ByLayer
62
7
370
-1
100
AcDbPolyline
90
4
70
0
43
0
10
-16.45
20
26.5
10
-16.27
20
26.46
10
-16.27
20
26.54
10
-16.45
20
26.5
0
LINE
5
5B
100
AcDbEntity
8
PROCEDURE
6
ByLayer
62
7
370
-1
100
AcDbLine
10
-16.3
20
29.05
11
-15.15
21
29.05
0
LWPOLYLINE
5
5C
100
AcDbEntity
8
PROCEDURE
6
ByLayer
62
7
370
-1
100
AcDbPolyline
90
4
70
0
43
0
10
-16.3
20
29.05
10
-16.12
20
29.01
10
-16.12
20
29.09
10
-16.3
20
29.05
0
LINE
5
5D
100
AcDbEntity
8
PROCEDURE
6
ByLayer
62
7
370
-1
100
AcDbLine
10
-16.3
20
24.05
11
-15.15
21
24.05
0
LWPOLYLINE
5
5E
100
AcDbEntity
8
PROCEDURE
6
ByLayer
62
7
370
-1
100
AcDbPolyline
90
4
70
0
43
0
10
-16.3
20
24.05
10
-16.12
20
24.01
10
-16.12
20
24.09
10
-16.3
20
24.05
0
LINE
5
5F
100
AcDbEntity
8
PROCEDURE
6
ByLayer
62
7
370
-1
100
AcDbLine
10
-15.4
20
28.75
11
-16.3
21
28.75
0
LWPOLYLINE
5
60
100
AcDbEntity
8
PROCEDURE
6
ByLayer
62
7
370
-1
100
AcDbPolyline
90
4
70
0
43
0
10
-15.4
20
28.75
10
-15.58
20
28.79
10
-15.58
20
28.71
10
-15.4
20
28.75
0
LINE
5
61
100
AcDbEntity
8
PROCEDURE
6
ByLayer
62
7
370
-1
100
AcDbLine
10
-15.3
20
23.75
11
-16.3
21
23.75
0
LWPOLYLINE
5
62
100
AcDbEntity
8
PROCEDURE
6
ByLayer
62
7
370
-1
100
AcDbPolyline
90
4
70
0
43
0
10
-15.3
20
23.75
10
-15.48
20
23.79
10
-15.48
20
23.71
10
-15.3
20
23.75
0
LINE
5
63
100
AcDbEntity
8
PROCEDURE
6
ByLayer
62
7
370
-1
100
AcDbLine
10
-18.3
20
31.2
11
-16.25
21
31.2
0
LWPOLYLINE
5
64
100
AcDbEntity
8
PROCEDURE
6
ByLayer
62
7
370
-1
100
AcDbPolyline
90
4
70
0
43
0
10
-18.3
20
31.2
10
-18.12
20
31.16
10
-18.12
20
31.24
10
-18.3
20
31.2
0
LINE
5
65
100
AcDbEntity
8
PROCEDURE
6
ByLayer
62
7
370
-1
100
AcDbLine
10
-18.65
20
26.2
11
-16.45
21
26.2
0
LWPOLYLINE
5
66
100
AcDbEntity
8
PROCEDURE
6
ByLayer
62
7
370
-1
100
AcDbPolyline
90
4
70
0
43
0
10
-18.65
20
26.2
10
-18.47
20
26.16
10
-18.47
20
26.24
10
-18.65
20
26.2
0
LINE
5
67
100
AcDbEntity
8
PROCEDURE
6
ByLayer
62
7
370
-1
100
AcDbLine
10
-18.3
20
28.45
11
-15.4
21
28.45
0
LWPOLYLINE
5
68
100
AcDbEntity
8
PROCEDURE
6
ByLayer
62
7
370
-1
100
AcDbPolyline
90
4
70
0
43
0
10
-18.3
20
28.45
10
-18.12
20
28.41
10
-18.12
20
28.49
10
-18.3
20
28.45
0
LINE
5
69
100
AcDbEntity
8
PROCEDURE
6
ByLayer
62
7
370
-1
100
AcDbLine
10
-18.15
20
23.45
11
-15.3
21
23.45
0
LWPOLYLINE
5
6A
100
AcDbEntity
8
PROCEDURE
6
ByLayer
62
7
370
-1
100
AcDbPolyline
90
4
70
0
43
0
10
-18.15
20
23.45
10
-17.97
20
23.41
10
-17.97
20
23.49
10
-18.15
20
23.45
0
LINE
5
6B
100
AcDbEntity
8
PROCEDURE
6
ByLayer
62
7
370
-1
100
AcDbLine
10
-17.8
20
31.8
11
-15.3
21
31.8
0
LINE
5
6C
100
AcDbEntity
8
PROCEDURE
6
ByLayer
62
7
370
-1
100
AcDbLine
10
-17.8
20
26.8
11
-15.3
21
26.8
0
LINE
5
6D
100
AcDbEntity
8
PROCEDURE
6
ByLayer
62
7
370
-1
100
AcDbLine
10
-17.8
20
29.35
11
-15.3
21
29.35
0
LINE
5
6E
100
AcDbEntity
8
PROCEDURE
6
ByLayer
62
7
370
-1
100
AcDbLine
10
-17.8
20
24.35
11
-15.3
21
24.35
0
LINE
5
6F
100
AcDbEntity
8
PROCEDURE
6
ByLayer
62
7
370
-1
100
AcDbLine
10
-15.15
20
31.5
11
-16.05
21
31.5
0
LINE
5
70
100
AcDbEntity
8
PROCEDURE
6
ByLayer
62
7
370
-1
100
AcDbLine
10
-15.15
20
26.5
11
-16.25
21
26.5
0
LINE
5
71
100
AcDbEntity
8
PROCEDURE
6
ByLayer
62
7
370
-1
100
AcDbLine
10
-15.15
20
29.05
11
-16.1
21
29.05
0
LINE
5
72
100
AcDbEntity
8
PROCEDURE
6
ByLayer
62
7
370
-1
100
AcDbLine
10
-15.15
20
24.05
11
-16.1
21
24.05
0
LINE
5
73
100
AcDbEntity
8
PROCEDURE
6
ByLayer
62
7
370
-1
100
AcDbLine
10
-15.6
20
28.75
11
-16.3
21
28.75
0
LINE
5
74
100
AcDbEntity
8
PROCEDURE
6
ByLayer
62
7
370
-1
100
AcDbLine
10
-15.5
20
23.75
11
-16.3
21
23.75
0
LINE
5
75
100
AcDbEntity
8
PROCEDURE
6
ByLayer
62
7
370
-1
100
AcDbLine
10
-16.25
20
31.2
11
-18.1
21
31.2
0
LINE
5
76
100
AcDbEntity
8
PROCEDURE
6
ByLayer
62
7
370
-1
100
AcDbLine
10
-16.45
20
26.2
11
-18.45
21
26.2
0
LINE
5
77
100
AcDbEntity
8
PROCEDURE
6
ByLayer
62
7
370
-1
100
AcDbLine
10
-15.4
20
28.45
11
-18.1
21
28.45
0
LINE
5
78
100
AcDbEntity
8
PROCEDURE
6
ByLayer
62
7
370
-1
100
AcDbLine
10
-15.3
20
23.45
11
-17.95
21
23.45
0
LINE
5
79
100
AcDbEntity
8
PROCEDURE
6
ByLayer
62
7
370
-1
100
AcDbLine
10
-18.3
20
31.3
11
-18.3
21
31
0
LINE
5
7A
100
AcDbEntity
8
PROCEDURE
6
ByLayer
62
7
370
-1
100
AcDbLine
10
-18.65
20
26.3
11
-18.65
21
25.85
0
LINE
5
7B
100
AcDbEntity
8
PROCEDURE
6
ByLayer
62
7
370
-1
100
AcDbLine
10
-18.3
20
28.55
11
-18.3
21
28.25
0
LINE
5
7C
100
AcDbEntity
8
PROCEDURE
6
ByLayer
62
7
370
-1
100
AcDbLine
10
-18.15
20
23.55
11
-18.15
21
23.1
0
MTEXT
5
7D
100
AcDbEntity
8
PROCEDURE
6
ByLayer
62
7
370
-1
100
AcDbMText
10
-18.15
20
23
30
0
40
0.08
41
0.231111111111
71
5
72
5
1
1.000
7
style1
210
0
220
0
230
1
50
0
73
2
44
0.96
0
MTEXT
5
7E
100
AcDbEntity
8
PROCEDURE
6
ByLayer
62
7
370
-1
100
AcDbMText
10
-18.3
20
30.9
30
0
40
0.08
41
0.231111111111
71
5
72
5
1
1.000
7
style1
210
0
220
0
230
1
50
0
73
2
44
0.96
0
MTEXT
5
7F
100
AcDbEntity
8
PROCEDURE
6
ByLayer
62
7
370
-1
100
AcDbMText
10
-18.65
20
25.75
30
0
40
0.08
41
0.231111111111
71
5
72
5
1
1.000
7
style1
210
0
220
0
230
1
50
0
73
2
44
0.96
0
MTEXT
5
80
100
AcDbEntity
8
PROCEDURE
6
ByLayer
62
7
370
-1
100
AcDbMText
10
-18.3
20
28.15
30
0
40
0.08
41
0.231111111111
71
5
72
5
1
1.000
7
style1
210
0
220
0
230
1
50
0
73
2
44
0.96
0
LINE
5
81
100
AcDbEntity
8
PROCEDURE
6
ByLayer
62
7
370
-1
100
AcDbLine
10
-19
20
30.3
11
-19
21
30.3
0
LINE
5
82
100
AcDbEntity
8
PROCEDURE
6
ByLayer
62
7
370
-1
100
AcDbLine
10
-19
20
27.8
11
-19
21
27.8
0
LINE
5
83
100
AcDbEntity
8
PROCEDURE
6
ByLayer
62
7
370
-1
100
AcDbLine
10
-19
20
25.3
11
-19
21
25.3
0
LINE
5
84
100
AcDbEntity
8
PROCEDURE
6
ByLayer
62
7
370
-1
100
AcDbLine
10
-19
20
22.8
11
-19
21
22.8
0
LINE
5
85
100
AcDbEntity
8
OUTLINE
6
ByLayer
62
7
370
-1
100
AcDbLine
10
-19
20
30.3
11
-19
21
32.8
0
LINE
5
86
100
AcDbEntity
8
OUTLINE
6
ByLayer
62
7
370
-1
100
AcDbLine
10
-19
20
32.8
11
-12
21
32.8
0
LINE
5
87
100
AcDbEntity
8
OUTLINE
6
ByLayer
62
7
370
-1
100
AcDbLine
10
-12
20
32.8
11
-12
21
30.3
0
LINE
5
88
100
AcDbEntity
8
OUTLINE
6
ByLayer
62
7
370
-1
100
AcDbLine
10
-12
20
30.3
11
-19
21
30.3
0
LINE
5
89
100
AcDbEntity
8
OUTLINE
6
ByLayer
62
7
370
-1
100
AcDbLine
10
-19
20
27.8
11
-19
21
30.3
0
LINE
5
8A
100
AcDbEntity
8
OUTLINE
6
ByLayer
62
7
370
-1
100
AcDbLine
10
-12
20
30.3
11
-12
21
27.8
0
LINE
5
8B
100
AcDbEntity
8
OUTLINE
6
ByLayer
62
7
370
-1
100
AcDbLine
10
-12
20
27.8
11
-19
21
27.8
0
LINE
5
8C
100
AcDbEntity
8
OUTLINE
6
ByLayer
62
7
370
-1
100
AcDbLine
10
-19
20
25.3
11
-19
21
27.8
0
LINE
5
8D
100
AcDbEntity
8
OUTLINE
6
ByLayer
62
7
370
-1
100
AcDbLine
10
-12
20
27.8
11
-12
21
25.3
0
LINE
5
8E
100
AcDbEntity
8
OUTLINE
6
ByLayer
62
7
370
-1
100
AcDbLine
10
-12
20
25.3
11
-19
21
25.3
0
LINE
5
8F
100
AcDbEntity
8
OUTLINE
6
ByLayer
62
7
370
-1
100
AcDbLine
10
-19
20
22.8
11
-19
21
25.3
0
LINE
5
90
100
AcDbEntity
8
OUTLINE
6
ByLayer
62
7
370
-1
100
AcDbLine
10
-12
20
25.3
11
-12
21
22.8
0
LINE
5
91
100
AcDbEntity
8
OUTLINE
6
ByLayer
62
7
370
-1
100
AcDbLine
10
-12
20
22.8
11
-19
21
22.8
0
MTEXT
5
92
100
AcDbEntity
8
PARAMS
6
ByLayer
62
7
370
13
100
AcDbMText
10
-18.6
20
32.45
30
0
40
0.08
41
1.3822221883
71
4
72
5
1
SEARCH_VEL = POSITIVE
7
style1
210
0
220
0
230
1
50
0
73
2
44
0.96
0
MTEXT
5
93
100
AcDbEntity
8
PARAMS
6
ByLayer
62
7
370
13
100
AcDbMText
10
-18.6
20
27.45
30
0
40
0.08
41
1.3822221883
71
4
72
5
1
SEARCH_VEL = POSITIVE
7
style1
210
0
220
0
230
1
50
0
73
2
44
0.96
0
MTEXT
5
94
100
AcDbEntity
8
PARAMS
6
ByLayer
62
7
370
13
100
AcDbMText
10
-18.6
20
30
30
0
40
0.08
41
1.3822221883
71
4
72
5
1
SEARCH_VEL = POSITIVE
7
style1
210
0
220
0
230
1
50
0
73
2
44
0.96
0
MTEXT
5
95
100
AcDbEntity
8
PARAMS
6
ByLayer
62
7
370
13
100
AcDbMText
10
-18.6
20
25
30
0
40
0.08
41
1.3822221883
71
4
72
5
1
SEARCH_VEL = POSITIVE
7
style1
210
0
220
0
230
1
50
0
73
2
44
0.96
0
MTEXT
5
96
100
AcDbEntity
8
PARAMS
6
ByLayer
62
7
370
13
100
AcDbMText
10
-18.6
20
32.3
30
0
40
0.08
41
1.35555555556
71
4
72
5
1
LATCH_VEL = NEGATIVE
7
style1
210
0
220
0
230
1
50
0
73
2
44
0.96
0
MTEXT
5
97
100
AcDbEntity
8
PARAMS
6
ByLayer
62
7
370
13
100
AcDbMText
10
-18.6
20
27.3
30
0
40
0.08
41
1.35555555556
71
4
72
5
1
LATCH_VEL = NEGATIVE
7
style1
210
0
220
0
230
1
50
0
73
2
44
0.96
0
MTEXT
5
98
100
AcDbEntity
8
PARAMS
6
ByLayer
62
7
370
13
100
AcDbMText
10
-18.6
20
29.85
30
0
40
0.08
41
1.31111109415
71
4
72
5
1
LATCH_VEL = POSITIVE
7
style1
210
0
220
0
230
1
50
0
73
2
44
0.96
0
MTEXT
5
99
100
AcDbEntity
8
PARAMS
6
ByLayer
62
7
370
13
100
AcDbMText
10
-18.6
20
24.85
30
0
40
0.08
41
1.31111109415
71
4
72
5
1
LATCH_VEL = POSITIVE
7
style1
210
0
220
0
230
1
50
0
73
2
44
0.96
0
MTEXT
5
9A
100
AcDbEntity
8
PARAMS
6
ByLayer
62
7
370
13
100
AcDbMText
10
-18.6
20
32.15
30
0
40
0.08
41
1.13333329941
71
4
72
5
1
USE_INDEX = FALSE
7
style1
210
0
220
0
230
1
50
0
73
2
44
0.96
0
MTEXT
5
9B
100
AcDbEntity
8
PARAMS
6
ByLayer
62
7
370
13
100
AcDbMText
10
-18.6
20
27.15
30
0
40
0.08
41
1.07111109415
71
4
72
5
1
USE_INDEX = TRUE
7
style1
210
0
220
0
230
1
50
0
73
2
44
0.96
0
MTEXT
5
9C
100
AcDbEntity
8
PARAMS
6
ByLayer
62
7
370
13
100
AcDbMText
10
-18.6
20
29.7
30
0
40
0.08
41
1.13333329941
71
4
72
5
1
USE_INDEX = FALSE
7
style1
210
0
220
0
230
1
50
0
73
2
44
0.96
0
MTEXT
5
9D
100
AcDbEntity
8
PARAMS
6
ByLayer
62
7
370
13
100
AcDbMText
10
-18.6
20
24.7
30
0
40
0.08
41
1.07111109415
71
4
72
5
1
USE_INDEX = TRUE
7
style1
210
0
220
0
230
1
50
0
73
2
44
0.96
0
MTEXT
5
9E
100
AcDbEntity
8
PARAMS
6
ByLayer
62
7
370
13
100
AcDbMText
10
-17.05
20
25
30
0
40
0.08
41
1.23999998304
71
4
72
5
1
HOME_OFFSET = 3.000
7
style1
210
0
220
0
230
1
50
0
73
2
44
0.96
0
MTEXT
5
9F
100
AcDbEntity
8
PARAMS
6
ByLayer
62
7
370
13
100
AcDbMText
10
-17.05
20
32.45
30
0
40
0.08
41
1.23999998304
71
4
72
5
1
HOME_OFFSET = 3.000
7
style1
210
0
220
0
230
1
50
0
73
2
44
0.96
0
MTEXT
5
A0
100
AcDbEntity
8
PARAMS
6
ByLayer
62
7
370
13
100
AcDbMText
10
-17.05
20
27.45
30
0
40
0.08
41
1.23999998304
71
4
72
5
1
HOME_OFFSET = 3.000
7
style1
210
0
220
0
230
1
50
0
73
2
44
0.96
0
MTEXT
5
A1
100
AcDbEntity
8
PARAMS
6
ByLayer
62
7
370
13
100
AcDbMText
10
-17.05
20
30
30
0
40
0.08
41
1.23999998304
71
4
72
5
1
HOME_OFFSET = 3.000
7
style1
210
0
220
0
230
1
50
0
73
2
44
0.96
0
MTEXT
5
A2
100
AcDbEntity
8
PARAMS
6
ByLayer
62
7
370
13
100
AcDbMText
10
-17.05
20
24.85
30
0
40
0.08
41
0.697777777778
71
4
72
5
1
HOME = 1.000
7
style1
210
0
220
0
230
1
50
0
73
2
44
0.96
0
MTEXT
5
A3
100
AcDbEntity
8
PARAMS
6
ByLayer
62
7
370
13
100
AcDbMText
10
-17.05
20
32.3
30
0
40
0.08
41
0.697777777778
71
4
72
5
1
HOME = 1.000
7
style1
210
0
220
0
230
1
50
0
73
2
44
0.96
0
MTEXT
5
A4
100
AcDbEntity
8
PARAMS
6
ByLayer
62
7
370
13
100
AcDbMText
10
-17.05
20
27.3
30
0
40
0.08
41
0.697777777778
71
4
72
5
1
HOME = 1.000
7
style1
210
0
220
0
230
1
50
0
73
2
44
0.96
0
MTEXT
5
A5
100
AcDbEntity
8
PARAMS
6
ByLayer
62
7
370
13
100
AcDbMText
10
-17.05
20
29.85
30
0
40
0.08
41
0.697777777778
71
4
72
5
1
HOME = 1.000
7
style1
210
0
220
0
230
1
50
0
73
2
44
0.96
0
LINE
5
A6
100
AcDbEntity
8
HOME_SWS
6
ByLayer
62
7
370
13
100
AcDbLine
10
-15.9
20
32.1
11
-15.9
21
31
0
LINE
5
A7
100
AcDbEntity
8
HOME_SWS
6
ByLayer
62
7
370
13
100
AcDbLine
10
-15.75
20
32.1
11
-15.75
21
31.4
0
LINE
5
A8
100
AcDbEntity
8
HOME_SWS
6
ByLayer
62
7
370
13
100
AcDbLine
10
-15.9
20
27
11
-15.9
21
26.4
0
LINE
5
A9
100
AcDbEntity
8
HOME_SWS
6
ByLayer
62
7
370
13
100
AcDbLine
10
-15.75
20
27
11
-15.75
21
26.4
0
LINE
5
AA
100
AcDbEntity
8
HOME_SWS
6
ByLayer
62
7
370
13
100
AcDbLine
10
-15.9
20
29.55
11
-15.9
21
28.65
0
LINE
5
AB
100
AcDbEntity
8
HOME_SWS
6
ByLayer
62
7
370
13
100
AcDbLine
10
-15.75
20
29.55
11
-15.75
21
28.25
0
LINE
5
AC
100
AcDbEntity
8
HOME_SWS
6
ByLayer
62
7
370
13
100
AcDbLine
10
-15.9
20
24.55
11
-15.9
21
23.65
0
LINE
5
AD
100
AcDbEntity
8
HOME_SWS
6
ByLayer
62
7
370
13
100
AcDbLine
10
-15.75
20
24.55
11
-15.75
21
23.65
0
LWPOLYLINE
5
AE
100
AcDbEntity
8
HOME_SWS
6
ByLayer
62
7
370
13
100
AcDbPolyline
90
3
70
0
43
0
10
-15.730232
20
32.129281
10
-15.65
20
32.25
10
-15.45
20
32.25
0
LWPOLYLINE
5
AF
100
AcDbEntity
8
HOME_SWS
6
ByLayer
62
7
370
13
100
AcDbPolyline
90
4
70
0
43
0
10
-15.730232
20
32.129281
10
-15.678531
20
32.178969
10
-15.704441
20
32.19619
10
-15.730232
20
32.129281
0
LWPOLYLINE
5
B0
100
AcDbEntity
8
HOME_SWS
6
ByLayer
62
7
370
13
100
AcDbPolyline
90
3
70
0
43
0
10
-15.730232
20
27.029281
10
-15.65
20
27.15
10
-15.45
20
27.15
0
LWPOLYLINE
5
B1
100
AcDbEntity
8
HOME_SWS
6
ByLayer
62
7
370
13
100
AcDbPolyline
90
4
70
0
43
0
10
-15.730232
20
27.029281
10
-15.678531
20
27.078969
10
-15.704441
20
27.09619
10
-15.730232
20
27.029281
0
LWPOLYLINE
5
B2
100
AcDbEntity
8
HOME_SWS
6
ByLayer
62
7
370
13
100
AcDbPolyline
90
3
70
0
43
0
10
-15.730232
20
29.579281
10
-15.65
20
29.7
10
-15.45
20
29.7
0
LWPOLYLINE
5
B3
100
AcDbEntity
8
HOME_SWS
6
ByLayer
62
7
370
13
100
AcDbPolyline
90
4
70
0
43
0
10
-15.730232
20
29.579281
10
-15.678531
20
29.628969
10
-15.704441
20
29.64619
10
-15.730232
20
29.579281
0
LWPOLYLINE
5
B4
100
AcDbEntity
8
HOME_SWS
6
ByLayer
62
7
370
13
100
AcDbPolyline
90
3
70
0
43
0
10
-15.730232
20
24.579281
10
-15.65
20
24.7
10
-15.45
20
24.7
0
LWPOLYLINE
5
B5
100
AcDbEntity
8
HOME_SWS
6
ByLayer
62
7
370
13
100
AcDbPolyline
90
4
70
0
43
0
10
-15.730232
20
24.579281
10
-15.678531
20
24.628969
10
-15.704441
20
24.64619
10
-15.730232
20
24.579281
0
MTEXT
5
B6
100
AcDbEntity
8
HOME_SWS
6
ByLayer
62
7
370
13
100
AcDbMText
10
-15.4
20
32.25
30
0
40
0.08
41
1.08888885497
71
4
72
5
1
HOME SWITCH TRIPS
7
style1
210
0
220
0
230
1
50
0
73
2
44
0.96
0
MTEXT
5
B7
100
AcDbEntity
8
HOME_SWS
6
ByLayer
62
7
370
13
100
AcDbMText
10
-15.4
20
27.15
30
0
40
0.08
41
1.08888885497
71
4
72
5
1
HOME SWITCH TRIPS
7
style1
210
0
220
0
230
1
50
0
73
2
44
0.96
0
MTEXT
5
B8
100
AcDbEntity
8
HOME_SWS
6
ByLayer
62
7
370
13
100
AcDbMText
10
-15.4
20
29.7
30
0
40
0.08
41
1.08888885497
71
4
72
5
1
HOME SWITCH TRIPS
7
style1
210
0
220
0
230
1
50
0
73
2
44
0.96
0
MTEXT
5
B9
100
AcDbEntity
8
HOME_SWS
6
ByLayer
62
7
370
13
100
AcDbMText
10
-15.4
20
24.7
30
0
40
0.08
41
1.08888885497
71
4
72
5
1
HOME SWITCH TRIPS
7
style1
210
0
220
0
230
1
50
0
73
2
44
0.96
0
MTEXT
5
BA
100
AcDbEntity
8
HOME_SWS
6
ByLayer
62
7
370
13
100
AcDbMText
10
-15.9
20
30.9
30
0
40
0.08
41
0.248888888889
71
5
72
5
1
3.000
7
style1
210
0
220
0
230
1
50
0
73
2
44
0.96
0
MTEXT
5
BB
100
AcDbEntity
8
HOME_SWS
6
ByLayer
62
7
370
13
100
AcDbMText
10
-15.75
20
28.15
30
0
40
0.08
41
0.248888888889
71
5
72
5
1
3.000
7
style1
210
0
220
0
230
1
50
0
73
2
44
0.96
0
LWPOLYLINE
5
BC
100
AcDbEntity
8
HOME_SWS
6
ByLayer
62
7
370
13
100
AcDbPolyline
90
3
70
0
43
0
10
-15.877391
20
27.029352
10
-15.7
20
27.3
10
-15.5
20
27.3
0
LWPOLYLINE
5
BD
100
AcDbEntity
8
HOME_SWS
6
ByLayer
62
7
370
13
100
AcDbPolyline
90
4
70
0
43
0
10
-15.877391
20
27.029352
10
-15.826008
20
27.07937
10
-15.852028
20
27.096424
10
-15.877391
20
27.029352
0
LWPOLYLINE
5
BE
100
AcDbEntity
8
HOME_SWS
6
ByLayer
62
7
370
13
100
AcDbPolyline
90
3
70
0
43
0
10
-15.877391
20
29.579352
10
-15.7
20
29.85
10
-15.5
20
29.85
0
LWPOLYLINE
5
BF
100
AcDbEntity
8
HOME_SWS
6
ByLayer
62
7
370
13
100
AcDbPolyline
90
4
70
0
43
0
10
-15.877391
20
29.579352
10
-15.826008
20
29.62937
10
-15.852028
20
29.646424
10
-15.877391
20
29.579352
0
LWPOLYLINE
5
C0
100
AcDbEntity
8
HOME_SWS
6
ByLayer
62
7
370
13
100
AcDbPolyline
90
3
70
0
43
0
10
-15.877391
20
32.129352
10
-15.7
20
32.4
10
-15.5
20
32.4
0
LWPOLYLINE
5
C1
100
AcDbEntity
8
HOME_SWS
6
ByLayer
62
7
370
13
100
AcDbPolyline
90
4
70
0
43
0
10
-15.877391
20
32.129352
10
-15.826008
20
32.17937
10
-15.852028
20
32.196424
10
-15.877391
20
32.129352
0
LWPOLYLINE
5
C2
100
AcDbEntity
8
HOME_SWS
6
ByLayer
62
7
370
13
100
AcDbPolyline
90
3
70
0
43
0
10
-15.877391
20
24.579352
10
-15.7
20
24.85
10
-15.5
20
24.85
0
LWPOLYLINE
5
C3
100
AcDbEntity
8
HOME_SWS
6
ByLayer
62
7
370
13
100
AcDbPolyline
90
4
70
0
43
0
10
-15.877391
20
24.579352
10
-15.826008
20
24.62937
10
-15.852028
20
24.646424
10
-15.877391
20
24.579352
0
MTEXT
5
C4
100
AcDbEntity
8
HOME_SWS
6
ByLayer
62
7
370
13
100
AcDbMText
10
-15.45
20
27.3
30
0
40
0.08
41
1.31999994912
71
4
72
5
1
HOME SWITCH RELEASES
7
style1
210
0
220
0
230
1
50
0
73
2
44
0.96
0
MTEXT
5
C5
100
AcDbEntity
8
HOME_SWS
6
ByLayer
62
7
370
13
100
AcDbMText
10
-15.45
20
29.85
30
0
40
0.08
41
1.31999994912
71
4
72
5
1
HOME SWITCH RELEASES
7
style1
210
0
220
0
230
1
50
0
73
2
44
0.96
0
MTEXT
5
C6
100
AcDbEntity
8
HOME_SWS
6
ByLayer
62
7
370
13
100
AcDbMText
10
-15.45
20
32.4
30
0
40
0.08
41
1.31999994912
71
4
72
5
1
HOME SWITCH RELEASES
7
style1
210
0
220
0
230
1
50
0
73
2
44
0.96
0
MTEXT
5
C7
100
AcDbEntity
8
HOME_SWS
6
ByLayer
62
7
370
13
100
AcDbMText
10
-15.45
20
24.85
30
0
40
0.08
41
1.31999994912
71
4
72
5
1
HOME SWITCH RELEASES
7
style1
210
0
220
0
230
1
50
0
73
2
44
0.96
0
LINE
5
C8
100
AcDbEntity
8
INDEX_PULSES
6
ByLayer
62
7
370
13
100
AcDbLine
10
-15.1
20
26.05
11
-15.1
21
25.95
0
LINE
5
C9
100
AcDbEntity
8
INDEX_PULSES
6
ByLayer
62
7
370
13
100
AcDbLine
10
-15.1
20
23.3
11
-15.1
21
23.2
0
LINE
5
CA
100
AcDbEntity
8
INDEX_PULSES
6
ByLayer
62
7
370
13
100
AcDbLine
10
-15.6
20
26.05
11
-15.6
21
25.95
0
LINE
5
CB
100
AcDbEntity
8
INDEX_PULSES
6
ByLayer
62
7
370
13
100
AcDbLine
10
-15.6
20
23.85
11
-15.6
21
23.1
0
LINE
5
CC
100
AcDbEntity
8
INDEX_PULSES
6
ByLayer
62
7
370
13
100
AcDbLine
10
-16.1
20
26.6
11
-16.1
21
25.85
0
LINE
5
CD
100
AcDbEntity
8
INDEX_PULSES
6
ByLayer
62
7
370
13
100
AcDbLine
10
-16.1
20
23.3
11
-16.1
21
23.2
0
LINE
5
CE
100
AcDbEntity
8
INDEX_PULSES
6
ByLayer
62
7
370
13
100
AcDbLine
10
-16.6
20
26.05
11
-16.6
21
25.95
0
LINE
5
CF
100
AcDbEntity
8
INDEX_PULSES
6
ByLayer
62
7
370
13
100
AcDbLine
10
-16.6
20
23.3
11
-16.6
21
23.2
0
LINE
5
D0
100
AcDbEntity
8
INDEX_PULSES
6
ByLayer
62
7
370
13
100
AcDbLine
10
-17.1
20
26.05
11
-17.1
21
25.95
0
LINE
5
D1
100
AcDbEntity
8
INDEX_PULSES
6
ByLayer
62
7
370
13
100
AcDbLine
10
-17.1
20
23.3
11
-17.1
21
23.2
0
LINE
5
D2
100
AcDbEntity
8
INDEX_PULSES
6
ByLayer
62
7
370
13
100
AcDbLine
10
-17.6
20
26.05
11
-17.6
21
25.95
0
LINE
5
D3
100
AcDbEntity
8
INDEX_PULSES
6
ByLayer
62
7
370
13
100
AcDbLine
10
-17.6
20
23.3
11
-17.6
21
23.2
0
MTEXT
5
D4
100
AcDbEntity
8
INDEX_PULSES
6
ByLayer
62
7
370
13
100
AcDbMText
10
-15.3
20
25.7
30
0
40
0.08
41
0.753333299413
71
4
72
5
1
INDEX PULSES
7
style1
210
0
220
0
230
1
50
0
73
2
44
0.96
0
MTEXT
5
D5
100
AcDbEntity
8
INDEX_PULSES
6
ByLayer
62
7
370
13
100
AcDbMText
10
-14.8
20
22.95
30
0
40
0.08
41
0.753333299413
71
4
72
5
1
INDEX PULSES
7
style1
210
0
220
0
230
1
50
0
73
2
44
0.96
0
LWPOLYLINE
5
D6
100
AcDbEntity
8
INDEX_PULSES
6
ByLayer
62
7
370
13
100
AcDbPolyline
90
2
70
0
43
0
10
-16.072126
20
25.945118
10
-15.3
20
25.7
0
LWPOLYLINE
5
D7
100
AcDbEntity
8
INDEX_PULSES
6
ByLayer
62
7
370
13
100
AcDbPolyline
90
4
70
0
43
0
10
-16.072126
20
25.945118
10
-16.010114
20
25.909111
10
-16.000701
20
25.938764
10
-16.072126
20
25.945118
0
LWPOLYLINE
5
D8
100
AcDbEntity
8
INDEX_PULSES
6
ByLayer
62
7
370
13
100
AcDbPolyline
90
2
70
0
43
0
10
-15.572126
20
23.195118
10
-14.8
20
22.95
0
LWPOLYLINE
5
D9
100
AcDbEntity
8
INDEX_PULSES
6
ByLayer
62
7
370
13
100
AcDbPolyline
90
4
70
0
43
0
10
-15.572126
20
23.195118
10
-15.510114
20
23.159111
10
-15.500701
20
23.188764
10
-15.572126
20
23.195118
0
LWPOLYLINE
5
DA
100
AcDbEntity
8
INDEX_PULSES
6
ByLayer
62
7
370
13
100
AcDbPolyline
90
2
70
0
43
0
10
-15.569971
20
25.930748
10
-15.3
20
25.7
0
LWPOLYLINE
5
DB
100
AcDbEntity
8
INDEX_PULSES
6
ByLayer
62
7
370
13
100
AcDbPolyline
90
4
70
0
43
0
10
-15.569971
20
25.930748
10
-15.526866
20
25.873442
10
-15.506652
20
25.897092
10
-15.569971
20
25.930748
0
LWPOLYLINE
5
DC
100
AcDbEntity
8
INDEX_PULSES
6
ByLayer
62
7
370
13
100
AcDbPolyline
90
2
70
0
43
0
10
-15.069971
20
23.180748
10
-14.8
20
22.95
0
LWPOLYLINE
5
DD
100
AcDbEntity
8
INDEX_PULSES
6
ByLayer
62
7
370
13
100
AcDbPolyline
90
4
70
0
43
0
10
-15.069971
20
23.180748
10
-15.026866
20
23.123442
10
-15.006652
20
23.147092
10
-15.069971
20
23.180748
0
MTEXT
5
DE
100
AcDbEntity
8
INDEX_PULSES
6
ByLayer
62
7
370
13
100
AcDbMText
10
-15.6
20
23
30
0
40
0.08
41
0.248888888889
71
5
72
5
1
3.000
7
style1
210
0
220
0
230
1
50
0
73
2
44
0.96
0
MTEXT
5
DF
100
AcDbEntity
8
INDEX_PULSES
6
ByLayer
62
7
370
13
100
AcDbMText
10
-16.1
20
25.75
30
0
40
0.08
41
0.248888888889
71
5
72
5
1
3.000
7
style1
210
0
220
0
230
1
50
0
73
2
44
0.96
0
MTEXT
5
E0
100
AcDbEntity
8
DESCRIPTION
6
ByLayer
62
7
370
-1
100
AcDbMText
10
-15
20
26.56
30
0
40
0.08
41
1.83999998304
71
4
72
5
1
FINAL DETECTION OF SWITCH AND
7
style1
210
0
220
0
230
1
50
0
73
2
44
0.96
0
MTEXT
5
E1
100
AcDbEntity
8
DESCRIPTION
6
ByLayer
62
7
370
-1
100
AcDbMText
10
-15
20
23.81
30
0
40
0.08
41
1.83999998304
71
4
72
5
1
FINAL DETECTION OF SWITCH AND
7
style1
210
0
220
0
230
1
50
0
73
2
44
0.96
0
LWPOLYLINE
5
E2
100
AcDbEntity
8
DESCRIPTION
6
ByLayer
62
7
370
-1
100
AcDbPolyline
90
3
70
0
43
0
10
-15.5
20
31.9
10
-15.35
20
32.05
10
-15.2
20
32.05
0
LWPOLYLINE
5
E3
100
AcDbEntity
8
DESCRIPTION
6
ByLayer
62
7
370
-1
100
AcDbPolyline
90
4
70
0
43
0
10
-15.5
20
31.9
10
-15.439503
20
31.938498
10
-15.461502
20
31.960497
10
-15.5
20
31.9
0
MTEXT
5
E4
100
AcDbEntity
8
DESCRIPTION
6
ByLayer
62
7
370
-1
100
AcDbMText
10
-15.15
20
32.05
30
0
40
0.08
41
0.613333316373
71
4
72
5
1
OVERSHOOT
7
style1
210
0
220
0
230
1
50
0
73
2
44
0.96
0
LINE
5
E5
100
AcDbEntity
8
GAPS
6
ByLayer
62
256
370
-1
100
AcDbLine
10
-15.15
20
24.35
11
-15.15
21
24.05
0
LINE
5
E6
100
AcDbEntity
8
GAPS
6
ByLayer
62
256
370
-1
100
AcDbLine
10
-16.3
20
24.05
11
-16.3
21
23.75
0
LINE
5
E7
100
AcDbEntity
8
GAPS
6
ByLayer
62
256
370
-1
100
AcDbLine
10
-15.3
20
23.75
11
-15.3
21
23.45
0
LINE
5
E8
100
AcDbEntity
8
GAPS
6
ByLayer
62
256
370
-1
100
AcDbLine
10
-15.15
20
26.8
11
-15.15
21
26.5
0
LINE
5
E9
100
AcDbEntity
8
GAPS
6
ByLayer
62
256
370
-1
100
AcDbLine
10
-16.45
20
26.5
11
-16.45
21
26.2
0
LINE
5
EA
100
AcDbEntity
8
GAPS
6
ByLayer
62
256
370
-1
100
AcDbLine
10
-15.15
20
29.35
11
-15.15
21
29.05
0
LINE
5
EB
100
AcDbEntity
8
GAPS
6
ByLayer
62
256
370
-1
100
AcDbLine
10
-16.3
20
29.05
11
-16.3
21
28.75
0
LINE
5
EC
100
AcDbEntity
8
GAPS
6
ByLayer
62
256
370
-1
100
AcDbLine
10
-15.4
20
28.75
11
-15.4
21
28.45
0
LINE
5
ED
100
AcDbEntity
8
GAPS
6
ByLayer
62
256
370
-1
100
AcDbLine
10
-15.15
20
31.8
11
-15.15
21
31.5
0
LINE
5
EE
100
AcDbEntity
8
GAPS
6
ByLayer
62
256
370
-1
100
AcDbLine
10
-16.25
20
31.5
11
-16.25
21
31.2
0
CIRCLE
5
EF
100
AcDbEntity
8
DETECTIONS
6
ByLayer
62
256
370
-1
100
AcDbCircle
10
-15.75
20
31.8
40
0.025
0
CIRCLE
5
F0
100
AcDbEntity
8
DETECTIONS
6
ByLayer
62
256
370
-1
100
AcDbCircle
10
-15.9
20
31.5
40
0.025
0
CIRCLE
5
F1
100
AcDbEntity
8
DETECTIONS
6
ByLayer
62
256
370
-1
100
AcDbCircle
10
-18.3
20
31.2
40
0.025
0
CIRCLE
5
F2
100
AcDbEntity
8
DETECTIONS
6
ByLayer
62
256
370
-1
100
AcDbCircle
10
-15.75
20
29.35
40
0.025
0
CIRCLE
5
F3
100
AcDbEntity
8
DETECTIONS
6
ByLayer
62
256
370
-1
100
AcDbCircle
10
-15.9
20
29.05
40
0.025
0
CIRCLE
5
F4
100
AcDbEntity
8
DETECTIONS
6
ByLayer
62
256
370
-1
100
AcDbCircle
10
-15.75
20
28.75
40
0.025
0
CIRCLE
5
F5
100
AcDbEntity
8
DETECTIONS
6
ByLayer
62
256
370
-1
100
AcDbCircle
10
-18.3
20
28.45
40
0.025
0
CIRCLE
5
F6
100
AcDbEntity
8
DETECTIONS
6
ByLayer
62
256
370
-1
100
AcDbCircle
10
-15.75
20
26.8
40
0.025
0
CIRCLE
5
F7
100
AcDbEntity
8
DETECTIONS
6
ByLayer
62
256
370
-1
100
AcDbCircle
10
-15.9
20
26.5
40
0.025
0
CIRCLE
5
F8
100
AcDbEntity
8
DETECTIONS
6
ByLayer
62
256
370
-1
100
AcDbCircle
10
-16.1
20
26.5
40
0.025
0
CIRCLE
5
F9
100
AcDbEntity
8
DETECTIONS
6
ByLayer
62
256
370
-1
100
AcDbCircle
10
-18.65
20
26.2
40
0.025
0
CIRCLE
5
FA
100
AcDbEntity
8
DETECTIONS
6
ByLayer
62
256
370
-1
100
AcDbCircle
10
-15.75
20
24.35
40
0.025
0
CIRCLE
5
FB
100
AcDbEntity
8
DETECTIONS
6
ByLayer
62
256
370
-1
100
AcDbCircle
10
-15.9
20
24.05
40
0.025
0
CIRCLE
5
FC
100
AcDbEntity
8
DETECTIONS
6
ByLayer
62
256
370
-1
100
AcDbCircle
10
-15.75
20
23.75
40
0.025
0
CIRCLE
5
FD
100
AcDbEntity
8
DETECTIONS
6
ByLayer
62
256
370
-1
100
AcDbCircle
10
-15.6
20
23.75
40
0.025
0
CIRCLE
5
FE
100
AcDbEntity
8
DETECTIONS
6
ByLayer
62
256
370
-1
100
AcDbCircle
10
-18.15
20
23.45
40
0.025
0
MTEXT
5
FF
100
AcDbEntity
8
DESCRIPTION
6
ByLayer
62
7
370
-1
100
AcDbMText
10
-15
20
31.8
30
0
40
0.08
41
2.7466666069
71
4
72
5
1
SEARCH FOR HOME SWITCH (HOME_SEARCH_VEL)
7

210
0
220
0
230
1
50
0
73
2
44
0.96
0
MTEXT
5
100
100
AcDbEntity
8
DESCRIPTION
6
ByLayer
62
7
370
-1
100
AcDbMText
10
-15
20
31.5
30
0
40
0.08
41
2.77333330748
71
4
72
5
1
FINAL DETECTION OF SWITCH (HOME_LATCH_VEL)
7

210
0
220
0
230
1
50
0
73
2
44
0.96
0
MTEXT
5
101
100
AcDbEntity
8
DESCRIPTION
6
ByLayer
62
7
370
-1
100
AcDbMText
10
-15
20
29.35
30
0
40
0.08
41
2.7466666069
71
4
72
5
1
SEARCH FOR HOME SWITCH (HOME_SEARCH_VEL)
7

210
0
220
0
230
1
50
0
73
2
44
0.96
0
MTEXT
5
102
100
AcDbEntity
8
DESCRIPTION
6
ByLayer
62
7
370
-1
100
AcDbMText
10
-15
20
29.05
30
0
40
0.08
41
2.79777773497
71
4
72
5
1
BACK OFF OF HOME SWITCH (HOME_SEARCH_VEL)
7

210
0
220
0
230
1
50
0
73
2
44
0.96
0
MTEXT
5
103
100
AcDbEntity
8
DESCRIPTION
6
ByLayer
62
7
370
-1
100
AcDbMText
10
-15
20
28.75
30
0
40
0.08
41
2.77333330748
71
4
72
5
1
FINAL DETECTION OF SWITCH (HOME_LATCH_VEL)
7

210
0
220
0
230
1
50
0
73
2
44
0.96
0
MTEXT
5
104
100
AcDbEntity
8
DESCRIPTION
6
ByLayer
62
7
370
-1
100
AcDbMText
10
-15
20
31.2
30
0
40
0.08
41
2.37333330748
71
4
72
5
1
GO TO HOME POSITION (HOME_FINAL_VEL)
7

210
0
220
0
230
1
50
0
73
2
44
0.96
0
MTEXT
5
105
100
AcDbEntity
8
DESCRIPTION
6
ByLayer
62
7
370
-1
100
AcDbMText
10
-15
20
28.45
30
0
40
0.08
41
2.37333330748
71
4
72
5
1
GO TO HOME POSITION (HOME_FINAL_VEL)
7

210
0
220
0
230
1
50
0
73
2
44
0.96
0
MTEXT
5
106
100
AcDbEntity
8
DESCRIPTION
6
ByLayer
62
7
370
-1
100
AcDbMText
10
-15
20
26.8
30
0
40
0.08
41
2.7466666069
71
4
72
5
1
SEARCH FOR HOME SWITCH (HOME_SEARCH_VEL)
7

210
0
220
0
230
1
50
0
73
2
44
0.96
0
MTEXT
5
107
100
AcDbEntity
8
DESCRIPTION
6
ByLayer
62
7
370
-1
100
AcDbMText
10
-15
20
26.44
30
0
40
0.08
41
1.89777775193
71
4
72
5
1
INDEX PULSE (HOME_LATCH_VEL)
7

210
0
220
0
230
1
50
0
73
2
44
0.96
0
MTEXT
5
108
100
AcDbEntity
8
DESCRIPTION
6
ByLayer
62
7
370
-1
100
AcDbMText
10
-15
20
26.2
30
0
40
0.08
41
2.37333330748
71
4
72
5
1
GO TO HOME POSITION (HOME_FINAL_VEL)
7

210
0
220
0
230
1
50
0
73
2
44
0.96
0
MTEXT
5
109
100
AcDbEntity
8
DESCRIPTION
6
ByLayer
62
7
370
-1
100
AcDbMText
10
-15
20
24.35
30
0
40
0.08
41
2.7466666069
71
4
72
5
1
SEARCH FOR HOME SWITCH (HOME_SEARCH_VEL)
7

210
0
220
0
230
1
50
0
73
2
44
0.96
0
MTEXT
5
10A
100
AcDbEntity
8
DESCRIPTION
6
ByLayer
62
7
370
-1
100
AcDbMText
10
-15
20
24.05
30
0
40
0.08
41
2.79777773497
71
4
72
5
1
BACK OFF OF HOME SWITCH (HOME_SEARCH_VEL)
7

210
0
220
0
230
1
50
0
73
2
44
0.96
0
MTEXT
5
10B
100
AcDbEntity
8
DESCRIPTION
6
ByLayer
62
7
370
-1
100
AcDbMText
10
-15
20
23.69
30
0
40
0.08
41
1.89777775193
71
4
72
5
1
INDEX PULSE (HOME_LATCH_VEL)
7

210
0
220
0
230
1
50
0
73
2
44
0.96
0
MTEXT
5
10C
100
AcDbEntity
8
DESCRIPTION
6
ByLayer
62
7
370
-1
100
AcDbMText
10
-15
20
23.45
30
0
40
0.08
41
2.37333330748
71
4
72
5
1
GO TO HOME POSITION (HOME_FINAL_VEL)
7

210
0
220
0
230
1
50
0
73
2
44
0.96
0
ENDSEC
0
SECTION
2
OBJECTS
0
DICTIONARY
5
C
330
0
100
AcDbDictionary
281
1
3
ACAD_GROUP
350
D
0
DICTIONARY
5
D
330
C
100
AcDbDictionary
281
1
0
ENDSEC
0
EOF
