<?xml version="1.0" encoding="utf-8"?>
<!-- Generator: Adobe Illustrator 29.8.1, SVG Export Plug-In . SVG Version: 9.03 Build 0)  -->
<svg version="1.0" id="图层_2" xmlns="http://www.w3.org/2000/svg" xmlns:xlink="http://www.w3.org/1999/xlink" x="0px" y="0px"
	 viewBox="0 0 1203.31 227.01" style="enable-background:new 0 0 1203.31 227.01;" xml:space="preserve">
<style type="text/css">
	.st0{fill:#2C8AC8;}
	.st1{fill:#4F4E4A;}
	.st2{fill:#4F4E4A;stroke:#000000;stroke-width:4;stroke-miterlimit:10;}
	.st3{opacity:0.5;fill:url(#SVGID_1_);}
	.st4{fill:#E6E6E6;stroke:#000000;stroke-width:2;stroke-miterlimit:10;}
	.st5{fill:#F2F2F2;stroke:#000000;stroke-width:2;stroke-linejoin:round;stroke-miterlimit:10;}
	.st6{fill:#897C6C;stroke:#000000;stroke-width:4;stroke-miterlimit:10;}
	.st7{fill:none;stroke:#000000;stroke-width:5;stroke-miterlimit:10;}
	.st8{opacity:0.8;}
	.st9{fill:#897C6C;}
	.st10{opacity:0.7;}
	.st11{opacity:0.5;}
	.st12{fill:#897C6C;stroke:#000000;stroke-width:4;stroke-linecap:round;stroke-miterlimit:10;}
	.st13{fill:#F2F2F2;stroke:#000000;stroke-width:2;stroke-miterlimit:10;}
	.st14{opacity:0.7;fill:#333333;}
	.st15{opacity:0.78;fill:#BDDDF5;stroke:#000000;stroke-width:2;stroke-miterlimit:10;}
	.st16{fill:#4F4E4A;stroke:#000000;stroke-width:3;stroke-linecap:round;stroke-miterlimit:10;}
	.st17{fill:none;stroke:#000000;stroke-width:2;stroke-miterlimit:10;}
	.st18{opacity:0.7;fill:#F2F2F2;}
	.st19{opacity:0.78;fill:none;stroke:#000000;stroke-width:2;stroke-miterlimit:10;}
	.st20{fill:#B3B3B3;}
	.st21{fill:#FAAB09;stroke:#000000;stroke-width:2;stroke-miterlimit:10;}
</style>
<g>
	<rect x="159.17" y="127.82" class="st0" width="28.48" height="78.6"/>
	<rect x="159.17" y="98.99" class="st0" width="28.48" height="19.34"/>
	<polygon class="st0" points="143.95,180.78 143.95,206.42 59.85,206.42 59.85,98.85 91.92,98.85 91.92,180.78 	"/>
	<path class="st0" d="M287.89,150.5v55.92h-28.66v-49.09c-1.59-4.69-5.31-8.17-9.52-8.69c-6-0.74-12.69,4.58-13.44,12.69
		c0,15.03,0,30.06,0,45.09h-29.14v-78.6h26.54v11.2c12.7-14.32,31.48-17.28,42.92-9.46C286.01,136.01,287.6,147.82,287.89,150.5z"/>
	<path class="st0" d="M386.89,127.82v78.6h-26.27l-0.08-12.07c-11.55,14.15-29.73,17.7-41.55,10.42
		c-10.67-6.57-12.44-19.7-12.7-21.82c0-18.38,0-36.75,0-55.13h28.66v47.58c1.4,6.55,7.78,10.68,13.89,9.45
		c5.52-1.11,9.63-6.35,9.38-12.35c0-14.89,0-29.79,0-44.68H386.89z"/>
	<polygon class="st0" points="494.46,206.42 461.6,206.42 446.03,181.26 430.46,206.42 397.6,206.42 425.37,164.82 400.03,127.82
		432.89,127.82 446.07,149.5 459.27,127.82 492.13,127.82 466.55,165.23 	"/>
	<polygon class="st0" points="721.03,98.85 721.03,206.42 692.37,206.42 650.48,142.55 650.48,206.42 621.82,206.42 621.82,98.85
		650.48,98.85 692.37,162.72 692.37,98.85 	"/>
	<path class="st0" d="M575.82,136.95l27.8-6.83c-1.2-4.17-5.45-16.88-18.09-25.43c-11.37-7.7-22.92-7.55-29.98-7.47
		c-6.83,0.08-21.29,0.26-33.88,10.22c-17.04,13.48-18.19,35.01-18.59,42.33c-0.41,7.68-1.35,25.16,11,40.16
		c15.33,18.61,38.79,18.43,42.71,18.4c5.76-0.04,20-0.15,32.47-10.81c11.34-9.69,14.36-22.26,15.19-26.53
		c-9.26-2.59-18.53-5.17-27.79-7.76c-0.15,1.42-1.48,12.73-10.38,17.79c-4.1,2.33-8.57,2.63-9.78,2.7
		c-4.23,0.24-7.92-0.68-9.98-1.56c-10.08-4.27-12.81-20.5-12.71-29.74c0.03-2.46,0.48-22.25,12.66-28.91
		c4.77-2.61,10.04-2.59,10.04-2.59c1.89-0.01,6.41,0.23,10.9,3.21C574.03,128.52,575.54,135.52,575.82,136.95z"/>
	<path class="st0" d="M812.08,136.95l27.8-6.83c-1.2-4.17-5.45-16.88-18.09-25.43c-11.37-7.7-22.92-7.55-29.98-7.47
		c-6.83,0.08-21.29,0.26-33.88,10.22c-17.04,13.48-18.19,35.01-18.59,42.33c-0.41,7.68-1.35,25.16,11,40.16
		c15.33,18.61,38.79,18.43,42.71,18.4c5.76-0.04,20-0.15,32.47-10.81c11.34-9.69,14.36-22.26,15.19-26.53
		c-9.26-2.59-18.53-5.17-27.79-7.76c-0.15,1.42-1.48,12.73-10.38,17.79c-4.1,2.33-8.57,2.63-9.78,2.7
		c-4.23,0.24-7.92-0.68-9.98-1.56c-10.08-4.27-12.81-20.5-12.71-29.74c0.03-2.46,0.48-22.25,12.66-28.91
		c4.77-2.61,10.04-2.59,10.04-2.59c1.89-0.01,6.41,0.23,10.9,3.21C810.28,128.52,811.8,135.52,812.08,136.95z"/>
</g>
<g>
	<path class="st1" d="M982.66,116.32c-10.77,2.56-31.7,9.21-49.28,27.74c2.96,2.01,26.84,5.48,29.71,7.62"/>
	<path d="M982.66,116.32c-17.69,6.86-34.39,15.75-48.74,28.25c0,0-0.12-1.13-0.12-1.13c0.38,0.25,0.99,0.49,1.57,0.68
		c6.7,2.09,13.66,3.3,20.45,5.09c2.45,0.71,5.06,1.16,7.27,2.46c-1.11-0.64-2.39-0.89-3.62-1.22c-6.24-1.45-12.58-2.39-18.87-3.65
		c-2.84-0.66-5.76-0.94-8.32-2.52C944.16,128.55,963.05,118.15,982.66,116.32L982.66,116.32z"/>
</g>
<path class="st2" d="M981.26,45.67c6.33-18.83,26.13-38.68,51.21-41.23c22.35-2.27,43.7,9.78,55.01,24.92
	c13.79,18.44,4.63,30.74,22.39,74.55c5.78,14.26,11.28,25.94,11.28,25.94c13.28,28.2,17.7,30.32,16.85,35.61
	c-4.64,28.99-145.76,48.12-166.69,5.98c-10.51-21.16-4.89-40.42-4.89-40.42c1.9-6.63,4.45-9.64,7.04-20.16
	c2.48-10.08,2.56-17.17,3.01-25.18C977.61,65.56,978.22,54.72,981.26,45.67z"/>
<linearGradient id="SVGID_1_" gradientUnits="userSpaceOnUse" x1="1010.5729" y1="-3.8464" x2="1089.0031" y2="-3.8464" gradientTransform="matrix(2.151057e-16 1 -1 2.151057e-16 1030.0763 -1001.2341)">
	<stop  offset="0" style="stop-color:#FFFFFF"/>
	<stop  offset="1" style="stop-color:#000000;stop-opacity:0"/>
</linearGradient>
<ellipse class="st3" cx="1033.92" cy="48.55" rx="39.9" ry="39.22"/>
<path class="st4" d="M980.8,157.73c-3.11-25.57,19.18-50.81,43.5-50.01c18.33,0.6,33.03,15.84,37.96,31.66
	c6.62,21.25-2.98,48.15-23.82,55.86C1014.53,204.08,984.07,184.64,980.8,157.73z"/>
<path class="st5" d="M928.14,113.12c-0.72,2.69-1.44,5.38-2.16,8.07c-1.55-1.35-3.11-2.69-4.66-4.04c-0.19,2.03-0.38,4.05-0.57,6.08
	c-1.44-0.8-2.88-1.59-4.32-2.39c-1.25,3.22-2.5,6.44-3.75,9.66c28.27,18.68,56.53,37.36,84.8,56.04
	c38.55-18.41,77.1-36.83,115.66-55.24c-2.67-3.82-5.34-7.63-8.01-11.45c-1.42,1.37-2.84,2.75-4.26,4.12
	c-1.19-2.56-2.39-5.11-3.58-7.67c-0.87,1.42-1.74,2.84-2.61,4.26c-1.1-3.41-2.2-6.82-3.3-10.23c-4.64,4.83-12.55,12.1-23.96,18.07
	c-16.86,8.83-26.87,7.22-41.07,15.46c-6.83,3.96-16.41,11.24-25.2,25.54c-5.23-16.76-13.19-24.37-19.61-28.21
	c-10.39-6.23-18.75-3.78-32.28-10.57C939.09,125.52,932.3,118.37,928.14,113.12z"/>
<path class="st6" d="M937.59,227.01c-9.85-16.59-22.43-74.7-29.63-98.27c-0.58-1.9,1.47-3.52,3.19-2.52
	c24.81,14.39,49.62,28.79,74.42,43.19c0.22,0.12,0.41,0.28,0.58,0.48c1.19,1.42,6.26,6.87,14.35,6.65
	c7.28-0.2,11.83-4.85,13.13-6.36c0.22-0.25,0.48-0.45,0.78-0.58c33.45-14.78,66.89-29.56,100.34-44.34
	c1.39-0.61,2.97,0.34,3.07,1.85c2.34,33.3,4.66,66.6,7,99.9"/>
<line class="st7" x1="999.37" y1="227.01" x2="985.57" y2="169.41"/>
<g class="st8">
	<path class="st9" d="M1027.1,227.01h-0.13c-4.95-24.5-10.13-50.35-10.13-51.28L1027.1,227.01z"/>
	<path d="M1027.1,227.01l-0.13,0.01l-0.01,0l0-0.01c-1.19-4.2-2.24-8.44-3.3-12.67c-2.57-10.51-4.97-21.29-7.09-31.91
		c-0.36-1.93-1-4.77-1.23-6.71c0,0,2.97-0.29,2.97-0.29l2.51,13.13C1023,200.44,1025.29,215.04,1027.1,227.01L1027.1,227.01z
		 M1027.1,227.01c-2.91-11.86-6.53-26.63-9.11-38.48c0,0-2.62-12.51-2.62-12.51s2.97-0.29,2.97-0.29c1.46,8.33,3.22,17.1,4.62,25.43
		c1.49,8.59,2.9,17.19,4.02,25.85C1026.94,226.99,1027.1,227.01,1027.1,227.01L1027.1,227.01z"/>
</g>
<g class="st10">
	<path d="M1005.69,168.64c10.34-12.58,24.09-23.68,40.24-27.45c16.06-3.31,31.18-9.59,45.01-18.41
		c-6.49,5.01-13.57,9.31-21.06,12.75c-7.42,3.55-15.51,5.73-23.47,7.6c-8,1.75-15.2,5.34-21.96,9.9
		C1017.69,157.51,1011.4,162.76,1005.69,168.64L1005.69,168.64z"/>
</g>
<g class="st11">
	<path d="M1009.95,169.41c9.37-8.15,20.01-14.96,31.39-20c11.4-4.94,23.57-7.77,34.96-12.66c7.63-3.11,15.16-6.49,22.56-10.17
		c-14.05,8.78-29.43,15.39-45.23,20.3C1037.91,151.85,1023.37,159.83,1009.95,169.41L1009.95,169.41z"/>
</g>
<g class="st11">
	<path d="M920.64,125.07c11.48,6.72,23.14,12.95,35.27,18.41c12.21,5.4,23.44,13.37,32.14,23.52c-9.8-8.98-20.8-16.38-32.98-21.7
		C942.95,139.76,931.27,133.12,920.64,125.07L920.64,125.07z"/>
</g>
<g class="st11">
	<path d="M969.35,146.03c9.68,5.49,20.27,11.4,24.95,22.07c-3.04-4.71-6.74-8.94-11.26-12.25
		C978.58,152.46,973.81,149.42,969.35,146.03L969.35,146.03z"/>
</g>
<g class="st10">
	<path d="M927.69,122.78c8.34,5.44,17.18,9.95,26.55,13.21c6.26,2.24,12.87,3.53,18.91,6.52c6.07,2.99,11.36,7.41,15.6,12.64
		c2.07,2.63,3.97,5.39,5.55,8.32c-7.57-10.89-18.26-19.33-31.18-22.62C950.28,137.3,937.88,131.43,927.69,122.78L927.69,122.78z"/>
</g>
<path d="M1050.56,197.34l-3.57,1.1l-0.83-2.68l-0.06,0.02c-0.52,2.38-1.98,3.95-4.37,4.68c-1.94,0.6-3.71,0.37-5.31-0.68
	s-2.77-2.79-3.52-5.22c-0.8-2.6-0.8-4.89,0-6.85c0.8-1.97,2.27-3.28,4.42-3.94c2.12-0.66,3.93-0.28,5.42,1.12l0.06-0.02l-3.01-9.75
	l3.57-1.1L1050.56,197.34z M1044.82,191.23l-0.64-2.06c-0.34-1.12-1-1.95-1.97-2.51c-0.97-0.55-2.02-0.66-3.14-0.31
	c-1.33,0.41-2.23,1.23-2.68,2.46c-0.46,1.23-0.41,2.73,0.13,4.49c0.49,1.6,1.25,2.75,2.27,3.45c1.02,0.7,2.15,0.86,3.39,0.48
	c1.22-0.38,2.07-1.13,2.55-2.26C1045.21,193.84,1045.24,192.59,1044.82,191.23z"/>
<path d="M1062.32,194.11c-2.43,0.75-4.6,0.61-6.5-0.41c-1.91-1.02-3.23-2.75-3.98-5.18c-0.82-2.65-0.7-4.94,0.35-6.9
	c1.05-1.95,2.86-3.33,5.42-4.12c2.46-0.76,4.6-0.63,6.42,0.39c1.82,1.02,3.13,2.81,3.92,5.38c0.78,2.51,0.66,4.75-0.36,6.72
	C1066.58,191.97,1064.82,193.34,1062.32,194.11z M1058.28,180.42c-1.39,0.43-2.35,1.26-2.86,2.48c-0.51,1.22-0.5,2.69,0.03,4.4
	c0.51,1.65,1.32,2.82,2.43,3.52s2.36,0.83,3.73,0.41c1.4-0.43,2.34-1.23,2.8-2.4c0.47-1.17,0.43-2.61-0.1-4.33
	c-0.53-1.73-1.32-2.95-2.37-3.66S1059.68,179.98,1058.28,180.42z"/>
<path d="M1085.08,185.89c-1.04,1.12-2.42,1.94-4.14,2.47c-2.34,0.72-4.45,0.57-6.34-0.44s-3.19-2.69-3.91-5.02
	c-0.8-2.59-0.67-4.92,0.38-6.97c1.06-2.05,2.88-3.47,5.46-4.27c1.44-0.44,2.78-0.58,4.03-0.42l1.03,3.32
	c-1.35-0.48-2.65-0.53-3.89-0.15c-1.51,0.46-2.58,1.36-3.23,2.67c-0.65,1.32-0.72,2.8-0.21,4.45c0.5,1.63,1.35,2.78,2.55,3.44
	c1.2,0.66,2.56,0.76,4.09,0.29c1.28-0.4,2.35-1.23,3.21-2.49L1085.08,185.89z"/>
<path d="M1087.7,185.33l-1.02-3.31c1.65,0.6,3.27,0.66,4.88,0.16c2.15-0.66,3.03-1.63,2.64-2.9c-0.11-0.36-0.3-0.64-0.56-0.83
	c-0.26-0.19-0.58-0.34-0.95-0.44c-0.37-0.1-0.8-0.16-1.27-0.18c-0.47-0.02-1-0.05-1.58-0.08c-0.72-0.06-1.39-0.15-2-0.28
	c-0.61-0.13-1.14-0.32-1.59-0.58s-0.84-0.59-1.16-1s-0.57-0.92-0.76-1.53c-0.23-0.76-0.26-1.48-0.08-2.17
	c0.18-0.69,0.51-1.33,0.99-1.91c0.48-0.58,1.08-1.09,1.79-1.53c0.71-0.44,1.47-0.78,2.29-1.04c1.46-0.45,2.83-0.63,4.11-0.54
	l0.96,3.12c-1.34-0.42-2.73-0.4-4.17,0.04c-0.45,0.14-0.84,0.31-1.18,0.52c-0.34,0.21-0.61,0.43-0.81,0.67
	c-0.21,0.24-0.34,0.5-0.42,0.78c-0.07,0.27-0.07,0.55,0.02,0.83c0.1,0.34,0.26,0.6,0.48,0.79c0.22,0.19,0.49,0.33,0.83,0.43
	c0.34,0.09,0.73,0.15,1.17,0.18s0.94,0.05,1.51,0.06c0.76,0.07,1.46,0.16,2.08,0.28c0.63,0.12,1.19,0.3,1.68,0.55
	c0.49,0.25,0.91,0.58,1.27,0.99c0.35,0.41,0.63,0.95,0.83,1.61c0.25,0.8,0.28,1.55,0.09,2.26c-0.19,0.71-0.53,1.35-1.02,1.93
	c-0.49,0.58-1.11,1.09-1.86,1.53c-0.75,0.44-1.57,0.8-2.46,1.07C1090.72,185.34,1089.14,185.51,1087.7,185.33z"/>
<g>
	<path class="st1" d="M1105.9,108.91c4.1,3.44,9.44,8.42,14.86,15.11c3.05,3.77,37.28,47.02,21.51,72.24
		c-11.47,18.35-45.66,21.19-50.92,12.96c-3.53-5.53,4.88-18.51,10.4-24.82c6.51-7.45,11.36-8.31,17.67-16.33
		c5.11-6.5,7.58-13.12,8.87-17.62"/>
	<path d="M1106.03,108.75c8.58,4.77,15.33,12.21,20.96,20.11c5.7,7.87,10.82,16.18,14.93,25.07c8.89,19.04,11.94,41.8-8.67,54.34
		c-10.68,6.29-24.23,9.42-36.48,6.76c-17.95-4.31-3.19-24.6,3.91-32.66c3.22-3.66,7.48-6.56,11.19-9.5
		c3.61-2.88,6.5-6.44,9.09-10.24c2.63-3.81,4.85-7.92,7.07-12.25c0,0,0.52,0.15,0.52,0.15c-0.4,4.9-2,9.7-4.43,14.05
		c-2.43,4.34-5.75,8.25-9.62,11.47c-3.74,3.08-7.5,5.61-10.62,9.23c-3.9,4.44-13.02,16.9-10.56,22.64c2.58,2.95,7.4,3.09,11.2,3.28
		c13.19-0.14,28.05-4.91,35.66-16.19c7.29-12.03,2.8-27.1-2.39-39.21c-5.77-12.86-13.73-24.92-22.83-35.72
		c-3-3.66-6.13-7.22-9.2-11.01L1106.03,108.75L1106.03,108.75z"/>
</g>
<g>
	<path class="st1" d="M927.74,150.17c-9.05,10.26-20.5,26.2-15.36,41.49c6.05,18,32.6,27.72,38.7,22.17
		c4.1-3.74-0.13-15.22-2.9-20.46c-3.81-7.22-9.54-11.47-16.59-16.71c-4.65-3.45-8.83-5.91-11.89-7.56"/>
	<path d="M927.89,150.31c-5.39,10.96-14.96,20.89-14.49,33.81c0.39,15.24,16.26,26.36,30.21,28.7c1.96,0.22,3.92,0.28,5.52-0.54
		c0.33-0.23,0.55-0.41,0.75-0.8c0.97-2.09,0.37-5.38-0.22-7.79c-0.74-2.92-1.82-5.86-3.15-8.6c-5.65-11.63-18.05-16.83-26.94-25.75
		c0,0,0.26-0.47,0.26-0.47c4.92,1.06,9.3,3.49,13.28,6.42c4.01,2.93,7.96,5.77,11.48,9.43c4.77,4.9,7.82,11.23,9.64,17.81
		c4.76,17.21-8.92,17.54-21.15,12.4c-12.32-5.23-24.31-16.4-24.2-30.72c-0.02-12.34,8.49-27.4,18.7-34.15
		C927.59,150.04,927.89,150.31,927.89,150.31L927.89,150.31z"/>
</g>
<path class="st6" d="M1120.57,166.34c-0.92-13.08-1.83-26.15-2.75-39.23c-0.11-1.51-1.68-2.46-3.07-1.85
	c-11.09,4.9-22.17,9.8-33.26,14.7"/>
<path class="st12" d="M951.5,149.63l-40.35-23.42c-1.72-1-3.77,0.62-3.2,2.53l12.01,39.84"/>
<path class="st13" d="M1029.73,43.47c1.05-1.27,6.92-7.43,15.16-7.25c10.81,0.24,19.85,11.67,20.54,23.06
	c0.47,7.73-2.55,19.19-12.3,23.39c-9.43,4.06-18.48-1.54-19.01-1.88c-10.65-6.83-9.87-20.66-9.76-22.71
	C1024.5,55.57,1024.97,49.24,1029.73,43.47z"/>
<path class="st13" d="M990.88,40.26c0.76-0.31,4-1.66,7.52-0.52c7.45,2.41,9.67,13.86,9.18,21.08c-0.2,2.97-0.54,8.03-4.4,12.28
	c-3.79,4.18-10.95,7.57-16.29,4.95c-7.03-3.45-6.18-15.02-5.9-18.9C981.17,56.75,982.11,43.88,990.88,40.26z"/>
<path class="st14" d="M1047.69,68.91c0,5.45-3.96,9.86-8.84,9.86c-4.88,0-8.83-4.41-8.83-9.86c0-5.45,3.96-9.86,8.83-9.86
	c0.76,0,1.49,0.11,2.19,0.3c-1.73,0.68-2.96,2.41-2.96,4.44c0,2.62,2.05,4.75,4.57,4.75c2.06,0,3.81-1.42,4.38-3.36
	C1047.46,66.33,1047.69,67.59,1047.69,68.91z"/>
<path class="st14" d="M1000.43,67.07c0,4.43-3.22,8.03-7.19,8.03c-3.97,0-7.19-3.59-7.19-8.03c0-4.43,3.22-8.02,7.19-8.02
	c0.62,0,1.21,0.09,1.78,0.26c-1.41,0.54-2.41,1.95-2.41,3.61c0,2.13,1.66,3.86,3.72,3.86c1.67,0,3.09-1.15,3.55-2.73
	C1000.24,64.98,1000.43,66,1000.43,67.07z"/>
<path class="st15" d="M981.89,47.29c10.61-0.32,20.24,9.72,18.76,19.89c-1.53,10.51-14.33,16.94-24.21,13.53
	c-6.64-2.29-12.32-9.15-11.89-17.14C965.04,54.42,973.39,47.54,981.89,47.29z"/>
<path class="st16" d="M1096.51,52.79c-1.53,0.17-37.83,17.79-37.83,17.79"/>
<path class="st17" d="M1000.77,64.33c1.24-0.74,4.08-2.19,7.96-2.2c4.5-0.01,7.69,1.93,8.87,2.73"/>
<path class="st18" d="M969.6,55.8c2.98-3.8,8.11-5.88,9.12-4.77c1.09,1.19-2.55,6.13-4.18,8.1c-1.85,2.23-6.04,6.61-7.42,5.74
	C965.9,64.09,966.93,59.21,969.6,55.8z"/>
<path class="st19" d="M1017.58,65.25c2.52-7.92,11.1-13.62,20.12-13.47c9.22,0.16,17.71,6.41,19.95,15
	c3.18,12.23-7.27,25.48-18.93,26.09C1025.49,93.55,1013.59,77.78,1017.58,65.25z"/>
<path class="st19" d="M981.89,47.29c10.61-0.32,20.24,9.72,18.76,19.89c-1.53,10.51-14.33,16.94-24.21,13.53
	c-6.64-2.29-12.32-9.15-11.89-17.14C965.04,54.42,973.39,47.54,981.89,47.29z"/>
<ellipse class="st20" cx="1019.29" cy="121.02" rx="24.11" ry="18.24"/>
<path class="st21" d="M950.47,77.51c2.68-4.1,9.18-4.17,10.45-4.18c5.39-0.06,7.13,2.44,13.63,3.81c4.61,0.97,8.14,0.65,12.14,0.29
	c14.62-1.33,17.42-8.26,26-8.4c12.11-0.2,25.47,12.44,28.73,27.22c0.56,2.55,3.7,18.19-5.2,26.43c-10.91,10.09-31.54,1.3-54.33-8.41
	c-15.33-6.53-25.54-13.68-30.24-23.98C950.48,87.71,947.73,81.69,950.47,77.51z"/>
<g>
	<path d="M951.02,91.13c3.9-7.64,10.36-6.5,16.29-1.91c4.75,3.41,9.37,7.05,14.65,9.51c12.14,5.62,27.91,7.72,40.95,4.5
		c1.38-0.42,2.56-0.95,3.82-1.71c3.49-2.11,8.51-2.5,11.77,0.19c0,0-0.13,0.22-0.13,0.22c-4.2-1.74-8.38-0.35-11.97,2.02
		c-3.17,1.65-6.84,2.22-10.34,2.62c-15.89,1.49-32.61-2.07-45.36-11.96c-5.67-3.91-12.84-11.77-17.91-2.55
		C952.79,92.05,951.02,91.13,951.02,91.13L951.02,91.13z"/>
</g>
<path class="st15" d="M1017.58,65.25c2.52-7.92,11.1-13.62,20.12-13.47c9.22,0.16,17.71,6.41,19.95,15
	c3.18,12.23-7.27,25.48-18.93,26.09C1025.49,93.55,1013.59,77.78,1017.58,65.25z"/>
</svg>
