  0
SECTION
  2
HEADER
  9
$ACADVER
  1
AC1009
  9
$INSBASE
 10
0.0
 20
0.0
 30
0.0
  9
$EXTMIN
 10
4.3365
 20
-1.949
 30
0.0
  9
$EXTMAX
 10
17.1635
 20
7.949
 30
0.0
  9
$LIMMIN
 10
0.0
 20
0.0
  9
$LIMMAX
 10
0.0
 20
0.0
  9
$ORTHOMODE
 70
     0
  9
$REGENMODE
 70
     1
  9
$FILLMODE
 70
     1
  9
$QTEXTMODE
 70
     0
  9
$MIRRTEXT
 70
     1
  9
$DRAGMODE
 70
     2
  9
$LTSCALE
 40
1.0
  9
$OSMODE
 70
     0
  9
$ATTMODE
 70
     1
  9
$TEXTSIZE
 40
0.2
  9
$TRACEWID
 40
0.05
  9
$TEXTSTYLE
  7
STANDARD
  9
$CLAYER
  8
0
  9
$CELTYPE
  6
CONTINUOUS
  9
$CECOLOR
 62
   256
  9
$DIMSCALE
 40
1.0
  9
$DIMASZ
 40
0.18
  9
$DIMEXO
 40
0.0625
  9
$DIMDLI
 40
0.38
  9
$DIMRND
 40
0.0
  9
$DIMDLE
 40
0.0
  9
$DIMEXE
 40
0.18
  9
$DIMTP
 40
0.0
  9
$DIMTM
 40
0.0
  9
$DIMTXT
 40
0.18
  9
$DIMCEN
 40
0.09
  9
$DIMTSZ
 40
0.0
  9
$DIMTOL
 70
     0
  9
$DIMLIM
 70
     0
  9
$DIMTIH
 70
     1
  9
$DIMTOH
 70
     1
  9
$DIMSE1
 70
     0
  9
$DIMSE2
 70
     0
  9
$DIMTAD
 70
     0
  9
$DIMZIN
 70
     0
  9
$DIMBLK
  1

  9
$DIMASO
 70
     1
  9
$DIMSHO
 70
     1
  9
$DIMPOST
  1

  9
$DIMAPOST
  1

  9
$DIMALT
 70
     0
  9
$DIMALTD
 70
     2
  9
$DIMALTF
 40
25.4
  9
$DIMLFAC
 40
1.0
  9
$DIMTOFL
 70
     0
  9
$DIMTVP
 40
0.0
  9
$DIMTIX
 70
     0
  9
$DIMSOXD
 70
     0
  9
$DIMSAH
 70
     0
  9
$DIMBLK1
  1

  9
$DIMBLK2
  1

  9
$DIMSTYLE
  2
STANDARD
  9
$DIMCLRD
 70
     0
  9
$DIMCLRE
 70
     0
  9
$DIMCLRT
 70
     0
  9
$DIMTFAC
 40
1.0
  9
$DIMGAP
 40
0.09
  9
$LUNITS
 70
     2
  9
$LUPREC
 70
     4
  9
$AXISMODE
 70
     0
  9
$AXISUNIT
 10
0.0
 20
0.0
  9
$SKETCHINC
 40
0.1
  9
$FILLETRAD
 40
0.0
  9
$AUNITS
 70
     0
  9
$AUPREC
 70
     0
  9
$MENU
  1
acad
  9
$ELEVATION
 40
0.0
  9
$PELEVATION
 40
0.0
  9
$THICKNESS
 40
0.0
  9
$LIMCHECK
 70
     0
  9
$BLIPMODE
 70
     1
  9
$CHAMFERA
 40
0.0
  9
$CHAMFERB
 40
0.0
  9
$SKPOLY
 70
     0
  9
$TDCREATE
 40
0.000000000
  9
$TDUPDATE
 40
0.000000000
  9
$TDINDWG
 40
0.0000000000
  9
$TDUSRTIMER
 40
0.0000000000
  9
$USRTIMER
 70
     1
  9
$ANGBASE
 50
0.0
  9
$ANGDIR
 70
     0
  9
$PDMODE
 70
     0
  9
$PDSIZE
 40
0.0
  9
$PLINEWID
 40
0.0
  9
$COORDS
 70
     0
  9
$SPLFRAME
 70
     0
  9
$SPLINETYPE
 70
     6
  9
$SPLINESEGS
 70
     8
  9
$ATTDIA
 70
     0
  9
$ATTREQ
 70
     1
  9
$HANDLING
 70
     1
  9
$HANDSEED
  5
53E
  9
$SURFTAB1
 70
     6
  9
$SURFTAB2
 70
     6
  9
$SURFTYPE
 70
     6
  9
$SURFU
 70
     6
  9
$SURFV
 70
     6
  9
$UCSNAME
  2

  9
$UCSORG
 10
0.0
 20
0.0
 30
0.0
  9
$UCSXDIR
 10
1.0
 20
0.0
 30
0.0
  9
$UCSYDIR
 10
0.0
 20
1.0
 30
0.0
  9
$PUCSNAME
  2

  9
$PUCSORG
 10
0.0
 20
0.0
 30
0.0
  9
$PUCSXDIR
 10
1.0
 20
0.0
 30
0.0
  9
$PUCSYDIR
 10
0.0
 20
1.0
 30
0.0
  9
$USERI1
 70
     0
  9
$USERI2
 70
     0
  9
$USERI3
 70
     0
  9
$USERI4
 70
     0
  9
$USERI5
 70
     0
  9
$USERR1
 40
0.0
  9
$USERR2
 40
0.0
  9
$USERR3
 40
0.0
  9
$USERR4
 40
0.0
  9
$USERR5
 40
0.0
  9
$WORLDVIEW
 70
     1
  9
$SHADEDGE
 70
     3
  9
$SHADEDIF
 70
    70
  9
$TILEMODE
 70
     1
  9
$MAXACTVP
 70
    16
  9
$PINSBASE
 10
0.0
 20
0.0
 30
0.0
  9
$PLIMCHECK
 70
     0
  9
$PEXTMIN
 10
1.000000E+20
 20
1.000000E+20
 30
1.000000E+20
  9
$PEXTMAX
 10
-1.000000E+20
 20
-1.000000E+20
 30
-1.000000E+20
  9
$PLIMMIN
 10
0.0
 20
0.0
  9
$PLIMMAX
 10
12.0
 20
9.0
  9
$UNITMODE
 70
     0
  9
$VISRETAIN
 70
     0
  9
$PLINEGEN
 70
     1
  9
$PSLTSCALE
 70
     0
  9
$TREEDEPTH
 70
  3020
  9
$DWGCODEPAGE
  3
dos850
  0
ENDSEC
  0
SECTION
  2
TABLES
  0
TABLE
  2
VPORT
 70
     1
  0
VPORT
  2
*ACTIVE
 70
     0
 10
0.0
 20
0.0
 11
1.0
 21
1.0
 12
6.591288
 22
4.579184
 13
0.0
 23
0.0
 14
1.0
 24
1.0
 15
0.0
 25
0.0
 16
0.0
 26
0.0
 36
1.0
 17
0.0
 27
0.0
 37
0.0
 40
9.158369
 41
0.688564
 42
50.0
 43
0.0
 44
0.0
 50
0.0
 51
0.0
 71
     0
 72
   100
 73
     1
 74
     1
 75
     0
 76
     0
 77
     0
 78
     0
  0
ENDTAB
  0
TABLE
  2
LTYPE
 70
     1
  0
LTYPE
  2
CONTINUOUS
 70
    64
  3
Solid line
 72
    65
 73
     0
 40
0.0
  0
ENDTAB
  0
TABLE
  2
LAYER
 70
     7
  0
LAYER
  2
0
 70
     0
 62
     7
  6
CONTINUOUS
  0
LAYER
  2
MERGE
 70
     0
 62
     7
  6
CONTINUOUS
  0
LAYER
  2
STANDARD
 70
     0
 62
     7
  6
CONTINUOUS
  0
LAYER
  2
PINS
 70
     0
 62
     7
  6
CONTINUOUS
  0
LAYER
  2
PARAMS
 70
     0
 62
     7
  6
CONTINUOUS
  0
LAYER
  2
OUTLINE
 70
     0
 62
     7
  6
CONTINUOUS
  0
LAYER
  2
INTERNALS
 70
     0
 62
     7
  6
CONTINUOUS
  0
ENDTAB
  0
TABLE
  2
STYLE
 70
     2
  0
STYLE
  2
STANDARD
 70
     0
 40
0.0
 41
1.0
 50
0.0
 71
     0
 42
0.0
  3
txt
  4

  0
STYLE
  2
STYLE1
 70
     0
 40
0.0
 41
1.0
 50
0.0
 71
     0
 42
0.0
  3
Arial.ttf
  4

  0
ENDTAB
  0
TABLE
  2
VIEW
 70
     0
  0
ENDTAB
  0
TABLE
  2
UCS
 70
     0
  0
ENDTAB
  0
TABLE
  2
APPID
 70
     1
  0
APPID
  2
ACAD
 70
     0
  0
ENDTAB
  0
TABLE
  2
DIMSTYLE
 70
     1
  0
DIMSTYLE
  2
STANDARD
 70
     0
  3

  4

  5

  6

  7

 40
1.0
 41
0.18
 42
0.0625
 43
0.38
 44
0.18
 45
0.0
 46
0.0
 47
0.0
 48
0.0
 71
     0
 72
     0
 73
     1
 74
     1
 75
     0
 76
     0
 77
     0
 78
     0
140
0.18
141
0.09
142
0.0
143
25.4
144
1.0
145
0.0
146
1.0
147
0.09
170
     0
171
     2
172
     0
173
     0
174
     0
175
     0
176
     0
177
     0
178
     0
  0
ENDTAB
  0
ENDSEC
  0
SECTION
  2
BLOCKS
  0
ENDSEC
  0
SECTION
  2
ENTITIES
  0
LINE
  8
PINS
 62
     7
  5
24
 10
11.4
 20
3.5
 30
0.0
 11
11.3
 21
3.6
 31
0.0
  0
LINE
  8
PINS
 62
     7
  5
25
 10
11.3
 20
3.6
 30
0.0
 11
11.4
 21
3.7
 31
0.0
  0
LINE
  8
PINS
 62
     7
  5
26
 10
11.4
 20
3.7
 30
0.0
 11
12.7
 21
3.7
 31
0.0
  0
LINE
  8
PINS
 62
     7
  5
27
 10
12.7
 20
3.7
 30
0.0
 11
12.7
 21
3.5
 31
0.0
  0
LINE
  8
PINS
 62
     7
  5
28
 10
12.7
 20
3.5
 30
0.0
 11
11.4
 21
3.5
 31
0.0
  0
LINE
  8
OUTLINE
 62
     7
  5
29
 10
11.4
 20
3.5
 30
0.0
 11
11.4
 21
3.5
 31
0.0
  0
LINE
  8
PINS
 62
     7
  5
2A
 10
11.4
 20
3.7
 30
0.0
 11
11.3
 21
3.8
 31
0.0
  0
LINE
  8
PINS
 62
     7
  5
2B
 10
11.3
 20
3.8
 30
0.0
 11
11.4
 21
3.9
 31
0.0
  0
LINE
  8
PINS
 62
     7
  5
2C
 10
11.4
 20
3.9
 30
0.0
 11
12.7
 21
3.9
 31
0.0
  0
LINE
  8
PINS
 62
     7
  5
2D
 10
12.7
 20
3.9
 30
0.0
 11
12.7
 21
3.7
 31
0.0
  0
LINE
  8
PINS
 62
     7
  5
2E
 10
12.7
 20
3.7
 30
0.0
 11
11.4
 21
3.7
 31
0.0
  0
LINE
  8
OUTLINE
 62
     7
  5
2F
 10
11.4
 20
3.7
 30
0.0
 11
11.4
 21
3.7
 31
0.0
  0
TEXT
  8
PINS
 62
     7
  5
30
 10
11.67
 20
3.55
 30
0.0
 40
0.1
  1
pin-8-in-not
  7
STYLE1
 72
     1
 11
12.0
 21
3.6
 31
0.0
 73
     2
  0
TEXT
  8
PINS
 62
     7
  5
31
 10
11.78
 20
3.75
 30
0.0
 40
0.1
  1
pin-8-in
  7
STYLE1
 72
     1
 11
12.0
 21
3.8
 31
0.0
 73
     2
  0
CIRCLE
  8
INTERNALS
 62
     7
  5
32
 10
13.025
 20
3.6
 30
0.0
 40
0.025
  0
POLYLINE
  8
INTERNALS
 62
     7
  5
33
 66
     1
 10
0.0
 20
0.0
 30
0.0
 70
     1
  0
VERTEX
  8
INTERNALS
 62
     7
  5
34
 10
13.05
 20
3.6
 30
0.0
  0
VERTEX
  8
INTERNALS
 62
     7
  5
35
 10
13.3
 20
3.75
 30
0.0
  0
VERTEX
  8
INTERNALS
 62
     7
  5
36
 10
13.3
 20
3.45
 30
0.0
  0
VERTEX
  8
INTERNALS
 62
     7
  5
37
 10
13.05
 20
3.6
 30
0.0
  0
VERTEX
  8
INTERNALS
 62
     7
  5
38
 10
13.05
 20
3.6
 30
0.0
  0
SEQEND
  8
0
  5
39
  0
LINE
  8
INTERNALS
 62
     7
  5
3A
 10
12.7
 20
3.8
 30
0.0
 11
13.5
 21
3.8
 31
0.0
  0
LINE
  8
INTERNALS
 62
     7
  5
3B
 10
13.5
 20
3.8
 30
0.0
 11
13.5
 21
3.6
 31
0.0
  0
LINE
  8
INTERNALS
 62
     7
  5
3C
 10
13.5
 20
3.6
 30
0.0
 11
13.3
 21
3.6
 31
0.0
  0
LINE
  8
INTERNALS
 62
     7
  5
3D
 10
13.0
 20
3.6
 30
0.0
 11
12.7
 21
3.6
 31
0.0
  0
POLYLINE
  8
INTERNALS
 62
     7
  5
3E
 66
     1
 10
0.0
 20
0.0
 30
0.0
 70
     1
  0
VERTEX
  8
INTERNALS
 62
     7
  5
3F
 10
13.7
 20
3.7
 30
0.0
  0
VERTEX
  8
INTERNALS
 62
     7
  5
40
 10
14.0
 20
3.85
 30
0.0
  0
VERTEX
  8
INTERNALS
 62
     7
  5
41
 10
14.0
 20
3.55
 30
0.0
  0
VERTEX
  8
INTERNALS
 62
     7
  5
42
 10
13.7
 20
3.7
 30
0.0
  0
VERTEX
  8
INTERNALS
 62
     7
  5
43
 10
13.7
 20
3.7
 30
0.0
  0
SEQEND
  8
0
  5
44
  0
LINE
  8
INTERNALS
 62
     7
  5
45
 10
13.7
 20
3.7
 30
0.0
 11
13.5
 21
3.7
 31
0.0
  0
CIRCLE
  8
INTERNALS
 62
     7
  5
46
 10
13.5
 20
3.7
 30
0.0
 40
0.02
  0
LINE
  8
PINS
 62
     7
  5
47
 10
11.4
 20
3.0
 30
0.0
 11
11.3
 21
3.1
 31
0.0
  0
LINE
  8
PINS
 62
     7
  5
48
 10
11.3
 20
3.1
 30
0.0
 11
11.4
 21
3.2
 31
0.0
  0
LINE
  8
PINS
 62
     7
  5
49
 10
11.4
 20
3.2
 30
0.0
 11
12.7
 21
3.2
 31
0.0
  0
LINE
  8
PINS
 62
     7
  5
4A
 10
12.7
 20
3.2
 30
0.0
 11
12.7
 21
3.0
 31
0.0
  0
LINE
  8
PINS
 62
     7
  5
4B
 10
12.7
 20
3.0
 30
0.0
 11
11.4
 21
3.0
 31
0.0
  0
LINE
  8
OUTLINE
 62
     7
  5
4C
 10
11.4
 20
3.0
 30
0.0
 11
11.4
 21
3.0
 31
0.0
  0
LINE
  8
PINS
 62
     7
  5
4D
 10
11.4
 20
3.2
 30
0.0
 11
11.3
 21
3.3
 31
0.0
  0
LINE
  8
PINS
 62
     7
  5
4E
 10
11.3
 20
3.3
 30
0.0
 11
11.4
 21
3.4
 31
0.0
  0
LINE
  8
PINS
 62
     7
  5
4F
 10
11.4
 20
3.4
 30
0.0
 11
12.7
 21
3.4
 31
0.0
  0
LINE
  8
PINS
 62
     7
  5
50
 10
12.7
 20
3.4
 30
0.0
 11
12.7
 21
3.2
 31
0.0
  0
LINE
  8
PINS
 62
     7
  5
51
 10
12.7
 20
3.2
 30
0.0
 11
11.4
 21
3.2
 31
0.0
  0
LINE
  8
OUTLINE
 62
     7
  5
52
 10
11.4
 20
3.2
 30
0.0
 11
11.4
 21
3.2
 31
0.0
  0
TEXT
  8
PINS
 62
     7
  5
53
 10
11.67
 20
3.05
 30
0.0
 40
0.1
  1
pin-7-in-not
  7
STYLE1
 72
     1
 11
12.0
 21
3.1
 31
0.0
 73
     2
  0
TEXT
  8
PINS
 62
     7
  5
54
 10
11.78
 20
3.25
 30
0.0
 40
0.1
  1
pin-7-in
  7
STYLE1
 72
     1
 11
12.0
 21
3.3
 31
0.0
 73
     2
  0
CIRCLE
  8
INTERNALS
 62
     7
  5
55
 10
13.025
 20
3.1
 30
0.0
 40
0.025
  0
POLYLINE
  8
INTERNALS
 62
     7
  5
56
 66
     1
 10
0.0
 20
0.0
 30
0.0
 70
     1
  0
VERTEX
  8
INTERNALS
 62
     7
  5
57
 10
13.05
 20
3.1
 30
0.0
  0
VERTEX
  8
INTERNALS
 62
     7
  5
58
 10
13.3
 20
3.25
 30
0.0
  0
VERTEX
  8
INTERNALS
 62
     7
  5
59
 10
13.3
 20
2.95
 30
0.0
  0
VERTEX
  8
INTERNALS
 62
     7
  5
5A
 10
13.05
 20
3.1
 30
0.0
  0
VERTEX
  8
INTERNALS
 62
     7
  5
5B
 10
13.05
 20
3.1
 30
0.0
  0
SEQEND
  8
0
  5
5C
  0
LINE
  8
INTERNALS
 62
     7
  5
5D
 10
12.7
 20
3.3
 30
0.0
 11
13.5
 21
3.3
 31
0.0
  0
LINE
  8
INTERNALS
 62
     7
  5
5E
 10
13.5
 20
3.3
 30
0.0
 11
13.5
 21
3.1
 31
0.0
  0
LINE
  8
INTERNALS
 62
     7
  5
5F
 10
13.5
 20
3.1
 30
0.0
 11
13.3
 21
3.1
 31
0.0
  0
LINE
  8
INTERNALS
 62
     7
  5
60
 10
13.0
 20
3.1
 30
0.0
 11
12.7
 21
3.1
 31
0.0
  0
POLYLINE
  8
INTERNALS
 62
     7
  5
61
 66
     1
 10
0.0
 20
0.0
 30
0.0
 70
     1
  0
VERTEX
  8
INTERNALS
 62
     7
  5
62
 10
13.7
 20
3.2
 30
0.0
  0
VERTEX
  8
INTERNALS
 62
     7
  5
63
 10
14.0
 20
3.35
 30
0.0
  0
VERTEX
  8
INTERNALS
 62
     7
  5
64
 10
14.0
 20
3.05
 30
0.0
  0
VERTEX
  8
INTERNALS
 62
     7
  5
65
 10
13.7
 20
3.2
 30
0.0
  0
VERTEX
  8
INTERNALS
 62
     7
  5
66
 10
13.7
 20
3.2
 30
0.0
  0
SEQEND
  8
0
  5
67
  0
LINE
  8
INTERNALS
 62
     7
  5
68
 10
13.7
 20
3.2
 30
0.0
 11
13.5
 21
3.2
 31
0.0
  0
CIRCLE
  8
INTERNALS
 62
     7
  5
69
 10
13.5
 20
3.2
 30
0.0
 40
0.02
  0
LINE
  8
PINS
 62
     7
  5
6A
 10
11.4
 20
2.5
 30
0.0
 11
11.3
 21
2.6
 31
0.0
  0
LINE
  8
PINS
 62
     7
  5
6B
 10
11.3
 20
2.6
 30
0.0
 11
11.4
 21
2.7
 31
0.0
  0
LINE
  8
PINS
 62
     7
  5
6C
 10
11.4
 20
2.7
 30
0.0
 11
12.7
 21
2.7
 31
0.0
  0
LINE
  8
PINS
 62
     7
  5
6D
 10
12.7
 20
2.7
 30
0.0
 11
12.7
 21
2.5
 31
0.0
  0
LINE
  8
PINS
 62
     7
  5
6E
 10
12.7
 20
2.5
 30
0.0
 11
11.4
 21
2.5
 31
0.0
  0
LINE
  8
OUTLINE
 62
     7
  5
6F
 10
11.4
 20
2.5
 30
0.0
 11
11.4
 21
2.5
 31
0.0
  0
LINE
  8
PINS
 62
     7
  5
70
 10
11.4
 20
2.7
 30
0.0
 11
11.3
 21
2.8
 31
0.0
  0
LINE
  8
PINS
 62
     7
  5
71
 10
11.3
 20
2.8
 30
0.0
 11
11.4
 21
2.9
 31
0.0
  0
LINE
  8
PINS
 62
     7
  5
72
 10
11.4
 20
2.9
 30
0.0
 11
12.7
 21
2.9
 31
0.0
  0
LINE
  8
PINS
 62
     7
  5
73
 10
12.7
 20
2.9
 30
0.0
 11
12.7
 21
2.7
 31
0.0
  0
LINE
  8
PINS
 62
     7
  5
74
 10
12.7
 20
2.7
 30
0.0
 11
11.4
 21
2.7
 31
0.0
  0
LINE
  8
OUTLINE
 62
     7
  5
75
 10
11.4
 20
2.7
 30
0.0
 11
11.4
 21
2.7
 31
0.0
  0
TEXT
  8
PINS
 62
     7
  5
76
 10
11.67
 20
2.55
 30
0.0
 40
0.1
  1
pin-6-in-not
  7
STYLE1
 72
     1
 11
12.0
 21
2.6
 31
0.0
 73
     2
  0
TEXT
  8
PINS
 62
     7
  5
77
 10
11.78
 20
2.75
 30
0.0
 40
0.1
  1
pin-6-in
  7
STYLE1
 72
     1
 11
12.0
 21
2.8
 31
0.0
 73
     2
  0
CIRCLE
  8
INTERNALS
 62
     7
  5
78
 10
13.025
 20
2.6
 30
0.0
 40
0.025
  0
POLYLINE
  8
INTERNALS
 62
     7
  5
79
 66
     1
 10
0.0
 20
0.0
 30
0.0
 70
     1
  0
VERTEX
  8
INTERNALS
 62
     7
  5
7A
 10
13.05
 20
2.6
 30
0.0
  0
VERTEX
  8
INTERNALS
 62
     7
  5
7B
 10
13.3
 20
2.75
 30
0.0
  0
VERTEX
  8
INTERNALS
 62
     7
  5
7C
 10
13.3
 20
2.45
 30
0.0
  0
VERTEX
  8
INTERNALS
 62
     7
  5
7D
 10
13.05
 20
2.6
 30
0.0
  0
VERTEX
  8
INTERNALS
 62
     7
  5
7E
 10
13.05
 20
2.6
 30
0.0
  0
SEQEND
  8
0
  5
7F
  0
LINE
  8
INTERNALS
 62
     7
  5
80
 10
12.7
 20
2.8
 30
0.0
 11
13.5
 21
2.8
 31
0.0
  0
LINE
  8
INTERNALS
 62
     7
  5
81
 10
13.5
 20
2.8
 30
0.0
 11
13.5
 21
2.6
 31
0.0
  0
LINE
  8
INTERNALS
 62
     7
  5
82
 10
13.5
 20
2.6
 30
0.0
 11
13.3
 21
2.6
 31
0.0
  0
LINE
  8
INTERNALS
 62
     7
  5
83
 10
13.0
 20
2.6
 30
0.0
 11
12.7
 21
2.6
 31
0.0
  0
POLYLINE
  8
INTERNALS
 62
     7
  5
84
 66
     1
 10
0.0
 20
0.0
 30
0.0
 70
     1
  0
VERTEX
  8
INTERNALS
 62
     7
  5
85
 10
13.7
 20
2.7
 30
0.0
  0
VERTEX
  8
INTERNALS
 62
     7
  5
86
 10
14.0
 20
2.85
 30
0.0
  0
VERTEX
  8
INTERNALS
 62
     7
  5
87
 10
14.0
 20
2.55
 30
0.0
  0
VERTEX
  8
INTERNALS
 62
     7
  5
88
 10
13.7
 20
2.7
 30
0.0
  0
VERTEX
  8
INTERNALS
 62
     7
  5
89
 10
13.7
 20
2.7
 30
0.0
  0
SEQEND
  8
0
  5
8A
  0
LINE
  8
INTERNALS
 62
     7
  5
8B
 10
13.7
 20
2.7
 30
0.0
 11
13.5
 21
2.7
 31
0.0
  0
CIRCLE
  8
INTERNALS
 62
     7
  5
8C
 10
13.5
 20
2.7
 30
0.0
 40
0.02
  0
LINE
  8
PINS
 62
     7
  5
8D
 10
11.4
 20
2.0
 30
0.0
 11
11.3
 21
2.1
 31
0.0
  0
LINE
  8
PINS
 62
     7
  5
8E
 10
11.3
 20
2.1
 30
0.0
 11
11.4
 21
2.2
 31
0.0
  0
LINE
  8
PINS
 62
     7
  5
8F
 10
11.4
 20
2.2
 30
0.0
 11
12.7
 21
2.2
 31
0.0
  0
LINE
  8
PINS
 62
     7
  5
90
 10
12.7
 20
2.2
 30
0.0
 11
12.7
 21
2.0
 31
0.0
  0
LINE
  8
PINS
 62
     7
  5
91
 10
12.7
 20
2.0
 30
0.0
 11
11.4
 21
2.0
 31
0.0
  0
LINE
  8
OUTLINE
 62
     7
  5
92
 10
11.4
 20
2.0
 30
0.0
 11
11.4
 21
2.0
 31
0.0
  0
LINE
  8
PINS
 62
     7
  5
93
 10
11.4
 20
2.2
 30
0.0
 11
11.3
 21
2.3
 31
0.0
  0
LINE
  8
PINS
 62
     7
  5
94
 10
11.3
 20
2.3
 30
0.0
 11
11.4
 21
2.4
 31
0.0
  0
LINE
  8
PINS
 62
     7
  5
95
 10
11.4
 20
2.4
 30
0.0
 11
12.7
 21
2.4
 31
0.0
  0
LINE
  8
PINS
 62
     7
  5
96
 10
12.7
 20
2.4
 30
0.0
 11
12.7
 21
2.2
 31
0.0
  0
LINE
  8
PINS
 62
     7
  5
97
 10
12.7
 20
2.2
 30
0.0
 11
11.4
 21
2.2
 31
0.0
  0
LINE
  8
OUTLINE
 62
     7
  5
98
 10
11.4
 20
2.2
 30
0.0
 11
11.4
 21
2.2
 31
0.0
  0
TEXT
  8
PINS
 62
     7
  5
99
 10
11.67
 20
2.05
 30
0.0
 40
0.1
  1
pin-5-in-not
  7
STYLE1
 72
     1
 11
12.0
 21
2.1
 31
0.0
 73
     2
  0
TEXT
  8
PINS
 62
     7
  5
9A
 10
11.78
 20
2.25
 30
0.0
 40
0.1
  1
pin-5-in
  7
STYLE1
 72
     1
 11
12.0
 21
2.3
 31
0.0
 73
     2
  0
CIRCLE
  8
INTERNALS
 62
     7
  5
9B
 10
13.025
 20
2.1
 30
0.0
 40
0.025
  0
POLYLINE
  8
INTERNALS
 62
     7
  5
9C
 66
     1
 10
0.0
 20
0.0
 30
0.0
 70
     1
  0
VERTEX
  8
INTERNALS
 62
     7
  5
9D
 10
13.05
 20
2.1
 30
0.0
  0
VERTEX
  8
INTERNALS
 62
     7
  5
9E
 10
13.3
 20
2.25
 30
0.0
  0
VERTEX
  8
INTERNALS
 62
     7
  5
9F
 10
13.3
 20
1.95
 30
0.0
  0
VERTEX
  8
INTERNALS
 62
     7
  5
A0
 10
13.05
 20
2.1
 30
0.0
  0
VERTEX
  8
INTERNALS
 62
     7
  5
A1
 10
13.05
 20
2.1
 30
0.0
  0
SEQEND
  8
0
  5
A2
  0
LINE
  8
INTERNALS
 62
     7
  5
A3
 10
12.7
 20
2.3
 30
0.0
 11
13.5
 21
2.3
 31
0.0
  0
LINE
  8
INTERNALS
 62
     7
  5
A4
 10
13.5
 20
2.3
 30
0.0
 11
13.5
 21
2.1
 31
0.0
  0
LINE
  8
INTERNALS
 62
     7
  5
A5
 10
13.5
 20
2.1
 30
0.0
 11
13.3
 21
2.1
 31
0.0
  0
LINE
  8
INTERNALS
 62
     7
  5
A6
 10
13.0
 20
2.1
 30
0.0
 11
12.7
 21
2.1
 31
0.0
  0
POLYLINE
  8
INTERNALS
 62
     7
  5
A7
 66
     1
 10
0.0
 20
0.0
 30
0.0
 70
     1
  0
VERTEX
  8
INTERNALS
 62
     7
  5
A8
 10
13.7
 20
2.2
 30
0.0
  0
VERTEX
  8
INTERNALS
 62
     7
  5
A9
 10
14.0
 20
2.35
 30
0.0
  0
VERTEX
  8
INTERNALS
 62
     7
  5
AA
 10
14.0
 20
2.05
 30
0.0
  0
VERTEX
  8
INTERNALS
 62
     7
  5
AB
 10
13.7
 20
2.2
 30
0.0
  0
VERTEX
  8
INTERNALS
 62
     7
  5
AC
 10
13.7
 20
2.2
 30
0.0
  0
SEQEND
  8
0
  5
AD
  0
LINE
  8
INTERNALS
 62
     7
  5
AE
 10
13.7
 20
2.2
 30
0.0
 11
13.5
 21
2.2
 31
0.0
  0
CIRCLE
  8
INTERNALS
 62
     7
  5
AF
 10
13.5
 20
2.2
 30
0.0
 40
0.02
  0
LINE
  8
PINS
 62
     7
  5
B0
 10
11.4
 20
1.5
 30
0.0
 11
11.3
 21
1.6
 31
0.0
  0
LINE
  8
PINS
 62
     7
  5
B1
 10
11.3
 20
1.6
 30
0.0
 11
11.4
 21
1.7
 31
0.0
  0
LINE
  8
PINS
 62
     7
  5
B2
 10
11.4
 20
1.7
 30
0.0
 11
12.7
 21
1.7
 31
0.0
  0
LINE
  8
PINS
 62
     7
  5
B3
 10
12.7
 20
1.7
 30
0.0
 11
12.7
 21
1.5
 31
0.0
  0
LINE
  8
PINS
 62
     7
  5
B4
 10
12.7
 20
1.5
 30
0.0
 11
11.4
 21
1.5
 31
0.0
  0
LINE
  8
OUTLINE
 62
     7
  5
B5
 10
11.4
 20
1.5
 30
0.0
 11
11.4
 21
1.5
 31
0.0
  0
LINE
  8
PINS
 62
     7
  5
B6
 10
11.4
 20
1.7
 30
0.0
 11
11.3
 21
1.8
 31
0.0
  0
LINE
  8
PINS
 62
     7
  5
B7
 10
11.3
 20
1.8
 30
0.0
 11
11.4
 21
1.9
 31
0.0
  0
LINE
  8
PINS
 62
     7
  5
B8
 10
11.4
 20
1.9
 30
0.0
 11
12.7
 21
1.9
 31
0.0
  0
LINE
  8
PINS
 62
     7
  5
B9
 10
12.7
 20
1.9
 30
0.0
 11
12.7
 21
1.7
 31
0.0
  0
LINE
  8
PINS
 62
     7
  5
BA
 10
12.7
 20
1.7
 30
0.0
 11
11.4
 21
1.7
 31
0.0
  0
LINE
  8
OUTLINE
 62
     7
  5
BB
 10
11.4
 20
1.7
 30
0.0
 11
11.4
 21
1.7
 31
0.0
  0
TEXT
  8
PINS
 62
     7
  5
BC
 10
11.67
 20
1.55
 30
0.0
 40
0.1
  1
pin-4-in-not
  7
STYLE1
 72
     1
 11
12.0
 21
1.6
 31
0.0
 73
     2
  0
TEXT
  8
PINS
 62
     7
  5
BD
 10
11.78
 20
1.75
 30
0.0
 40
0.1
  1
pin-4-in
  7
STYLE1
 72
     1
 11
12.0
 21
1.8
 31
0.0
 73
     2
  0
CIRCLE
  8
INTERNALS
 62
     7
  5
BE
 10
13.025
 20
1.6
 30
0.0
 40
0.025
  0
POLYLINE
  8
INTERNALS
 62
     7
  5
BF
 66
     1
 10
0.0
 20
0.0
 30
0.0
 70
     1
  0
VERTEX
  8
INTERNALS
 62
     7
  5
C0
 10
13.05
 20
1.6
 30
0.0
  0
VERTEX
  8
INTERNALS
 62
     7
  5
C1
 10
13.3
 20
1.75
 30
0.0
  0
VERTEX
  8
INTERNALS
 62
     7
  5
C2
 10
13.3
 20
1.45
 30
0.0
  0
VERTEX
  8
INTERNALS
 62
     7
  5
C3
 10
13.05
 20
1.6
 30
0.0
  0
VERTEX
  8
INTERNALS
 62
     7
  5
C4
 10
13.05
 20
1.6
 30
0.0
  0
SEQEND
  8
0
  5
C5
  0
LINE
  8
INTERNALS
 62
     7
  5
C6
 10
12.7
 20
1.8
 30
0.0
 11
13.5
 21
1.8
 31
0.0
  0
LINE
  8
INTERNALS
 62
     7
  5
C7
 10
13.5
 20
1.8
 30
0.0
 11
13.5
 21
1.6
 31
0.0
  0
LINE
  8
INTERNALS
 62
     7
  5
C8
 10
13.5
 20
1.6
 30
0.0
 11
13.3
 21
1.6
 31
0.0
  0
LINE
  8
INTERNALS
 62
     7
  5
C9
 10
13.0
 20
1.6
 30
0.0
 11
12.7
 21
1.6
 31
0.0
  0
POLYLINE
  8
INTERNALS
 62
     7
  5
CA
 66
     1
 10
0.0
 20
0.0
 30
0.0
 70
     1
  0
VERTEX
  8
INTERNALS
 62
     7
  5
CB
 10
13.7
 20
1.7
 30
0.0
  0
VERTEX
  8
INTERNALS
 62
     7
  5
CC
 10
14.0
 20
1.85
 30
0.0
  0
VERTEX
  8
INTERNALS
 62
     7
  5
CD
 10
14.0
 20
1.55
 30
0.0
  0
VERTEX
  8
INTERNALS
 62
     7
  5
CE
 10
13.7
 20
1.7
 30
0.0
  0
VERTEX
  8
INTERNALS
 62
     7
  5
CF
 10
13.7
 20
1.7
 30
0.0
  0
SEQEND
  8
0
  5
D0
  0
LINE
  8
INTERNALS
 62
     7
  5
D1
 10
13.7
 20
1.7
 30
0.0
 11
13.5
 21
1.7
 31
0.0
  0
CIRCLE
  8
INTERNALS
 62
     7
  5
D2
 10
13.5
 20
1.7
 30
0.0
 40
0.02
  0
LINE
  8
PINS
 62
     7
  5
D3
 10
11.4
 20
1.0
 30
0.0
 11
11.3
 21
1.1
 31
0.0
  0
LINE
  8
PINS
 62
     7
  5
D4
 10
11.3
 20
1.1
 30
0.0
 11
11.4
 21
1.2
 31
0.0
  0
LINE
  8
PINS
 62
     7
  5
D5
 10
11.4
 20
1.2
 30
0.0
 11
12.7
 21
1.2
 31
0.0
  0
LINE
  8
PINS
 62
     7
  5
D6
 10
12.7
 20
1.2
 30
0.0
 11
12.7
 21
1.0
 31
0.0
  0
LINE
  8
PINS
 62
     7
  5
D7
 10
12.7
 20
1.0
 30
0.0
 11
11.4
 21
1.0
 31
0.0
  0
LINE
  8
OUTLINE
 62
     7
  5
D8
 10
11.4
 20
1.0
 30
0.0
 11
11.4
 21
1.0
 31
0.0
  0
LINE
  8
PINS
 62
     7
  5
D9
 10
11.4
 20
1.2
 30
0.0
 11
11.3
 21
1.3
 31
0.0
  0
LINE
  8
PINS
 62
     7
  5
DA
 10
11.3
 20
1.3
 30
0.0
 11
11.4
 21
1.4
 31
0.0
  0
LINE
  8
PINS
 62
     7
  5
DB
 10
11.4
 20
1.4
 30
0.0
 11
12.7
 21
1.4
 31
0.0
  0
LINE
  8
PINS
 62
     7
  5
DC
 10
12.7
 20
1.4
 30
0.0
 11
12.7
 21
1.2
 31
0.0
  0
LINE
  8
PINS
 62
     7
  5
DD
 10
12.7
 20
1.2
 30
0.0
 11
11.4
 21
1.2
 31
0.0
  0
LINE
  8
OUTLINE
 62
     7
  5
DE
 10
11.4
 20
1.2
 30
0.0
 11
11.4
 21
1.2
 31
0.0
  0
TEXT
  8
PINS
 62
     7
  5
DF
 10
11.67
 20
1.05
 30
0.0
 40
0.1
  1
pin-3-in-not
  7
STYLE1
 72
     1
 11
12.0
 21
1.1
 31
0.0
 73
     2
  0
TEXT
  8
PINS
 62
     7
  5
E0
 10
11.78
 20
1.25
 30
0.0
 40
0.1
  1
pin-3-in
  7
STYLE1
 72
     1
 11
12.0
 21
1.3
 31
0.0
 73
     2
  0
CIRCLE
  8
INTERNALS
 62
     7
  5
E1
 10
13.025
 20
1.1
 30
0.0
 40
0.025
  0
POLYLINE
  8
INTERNALS
 62
     7
  5
E2
 66
     1
 10
0.0
 20
0.0
 30
0.0
 70
     1
  0
VERTEX
  8
INTERNALS
 62
     7
  5
E3
 10
13.05
 20
1.1
 30
0.0
  0
VERTEX
  8
INTERNALS
 62
     7
  5
E4
 10
13.3
 20
1.25
 30
0.0
  0
VERTEX
  8
INTERNALS
 62
     7
  5
E5
 10
13.3
 20
0.95
 30
0.0
  0
VERTEX
  8
INTERNALS
 62
     7
  5
E6
 10
13.05
 20
1.1
 30
0.0
  0
VERTEX
  8
INTERNALS
 62
     7
  5
E7
 10
13.05
 20
1.1
 30
0.0
  0
SEQEND
  8
0
  5
E8
  0
LINE
  8
INTERNALS
 62
     7
  5
E9
 10
12.7
 20
1.3
 30
0.0
 11
13.5
 21
1.3
 31
0.0
  0
LINE
  8
INTERNALS
 62
     7
  5
EA
 10
13.5
 20
1.3
 30
0.0
 11
13.5
 21
1.1
 31
0.0
  0
LINE
  8
INTERNALS
 62
     7
  5
EB
 10
13.5
 20
1.1
 30
0.0
 11
13.3
 21
1.1
 31
0.0
  0
LINE
  8
INTERNALS
 62
     7
  5
EC
 10
13.0
 20
1.1
 30
0.0
 11
12.7
 21
1.1
 31
0.0
  0
POLYLINE
  8
INTERNALS
 62
     7
  5
ED
 66
     1
 10
0.0
 20
0.0
 30
0.0
 70
     1
  0
VERTEX
  8
INTERNALS
 62
     7
  5
EE
 10
13.7
 20
1.2
 30
0.0
  0
VERTEX
  8
INTERNALS
 62
     7
  5
EF
 10
14.0
 20
1.35
 30
0.0
  0
VERTEX
  8
INTERNALS
 62
     7
  5
F0
 10
14.0
 20
1.05
 30
0.0
  0
VERTEX
  8
INTERNALS
 62
     7
  5
F1
 10
13.7
 20
1.2
 30
0.0
  0
VERTEX
  8
INTERNALS
 62
     7
  5
F2
 10
13.7
 20
1.2
 30
0.0
  0
SEQEND
  8
0
  5
F3
  0
LINE
  8
INTERNALS
 62
     7
  5
F4
 10
13.7
 20
1.2
 30
0.0
 11
13.5
 21
1.2
 31
0.0
  0
CIRCLE
  8
INTERNALS
 62
     7
  5
F5
 10
13.5
 20
1.2
 30
0.0
 40
0.02
  0
LINE
  8
PINS
 62
     7
  5
F6
 10
11.4
 20
0.5
 30
0.0
 11
11.3
 21
0.6
 31
0.0
  0
LINE
  8
PINS
 62
     7
  5
F7
 10
11.3
 20
0.6
 30
0.0
 11
11.4
 21
0.7
 31
0.0
  0
LINE
  8
PINS
 62
     7
  5
F8
 10
11.4
 20
0.7
 30
0.0
 11
12.7
 21
0.7
 31
0.0
  0
LINE
  8
PINS
 62
     7
  5
F9
 10
12.7
 20
0.7
 30
0.0
 11
12.7
 21
0.5
 31
0.0
  0
LINE
  8
PINS
 62
     7
  5
FA
 10
12.7
 20
0.5
 30
0.0
 11
11.4
 21
0.5
 31
0.0
  0
LINE
  8
OUTLINE
 62
     7
  5
FB
 10
11.4
 20
0.5
 30
0.0
 11
11.4
 21
0.5
 31
0.0
  0
LINE
  8
PINS
 62
     7
  5
FC
 10
11.4
 20
0.7
 30
0.0
 11
11.3
 21
0.8
 31
0.0
  0
LINE
  8
PINS
 62
     7
  5
FD
 10
11.3
 20
0.8
 30
0.0
 11
11.4
 21
0.9
 31
0.0
  0
LINE
  8
PINS
 62
     7
  5
FE
 10
11.4
 20
0.9
 30
0.0
 11
12.7
 21
0.9
 31
0.0
  0
LINE
  8
PINS
 62
     7
  5
FF
 10
12.7
 20
0.9
 30
0.0
 11
12.7
 21
0.7
 31
0.0
  0
LINE
  8
PINS
 62
     7
  5
100
 10
12.7
 20
0.7
 30
0.0
 11
11.4
 21
0.7
 31
0.0
  0
LINE
  8
OUTLINE
 62
     7
  5
101
 10
11.4
 20
0.7
 30
0.0
 11
11.4
 21
0.7
 31
0.0
  0
TEXT
  8
PINS
 62
     7
  5
102
 10
11.67
 20
0.55
 30
0.0
 40
0.1
  1
pin-2-in-not
  7
STYLE1
 72
     1
 11
12.0
 21
0.6
 31
0.0
 73
     2
  0
TEXT
  8
PINS
 62
     7
  5
103
 10
11.78
 20
0.75
 30
0.0
 40
0.1
  1
pin-2-in
  7
STYLE1
 72
     1
 11
12.0
 21
0.8
 31
0.0
 73
     2
  0
CIRCLE
  8
INTERNALS
 62
     7
  5
104
 10
13.025
 20
0.6
 30
0.0
 40
0.025
  0
POLYLINE
  8
INTERNALS
 62
     7
  5
105
 66
     1
 10
0.0
 20
0.0
 30
0.0
 70
     1
  0
VERTEX
  8
INTERNALS
 62
     7
  5
106
 10
13.05
 20
0.6
 30
0.0
  0
VERTEX
  8
INTERNALS
 62
     7
  5
107
 10
13.3
 20
0.75
 30
0.0
  0
VERTEX
  8
INTERNALS
 62
     7
  5
108
 10
13.3
 20
0.45
 30
0.0
  0
VERTEX
  8
INTERNALS
 62
     7
  5
109
 10
13.05
 20
0.6
 30
0.0
  0
VERTEX
  8
INTERNALS
 62
     7
  5
10A
 10
13.05
 20
0.6
 30
0.0
  0
SEQEND
  8
0
  5
10B
  0
LINE
  8
INTERNALS
 62
     7
  5
10C
 10
12.7
 20
0.8
 30
0.0
 11
13.5
 21
0.8
 31
0.0
  0
LINE
  8
INTERNALS
 62
     7
  5
10D
 10
13.5
 20
0.8
 30
0.0
 11
13.5
 21
0.6
 31
0.0
  0
LINE
  8
INTERNALS
 62
     7
  5
10E
 10
13.5
 20
0.6
 30
0.0
 11
13.3
 21
0.6
 31
0.0
  0
LINE
  8
INTERNALS
 62
     7
  5
10F
 10
13.0
 20
0.6
 30
0.0
 11
12.7
 21
0.6
 31
0.0
  0
POLYLINE
  8
INTERNALS
 62
     7
  5
110
 66
     1
 10
0.0
 20
0.0
 30
0.0
 70
     1
  0
VERTEX
  8
INTERNALS
 62
     7
  5
111
 10
13.7
 20
0.7
 30
0.0
  0
VERTEX
  8
INTERNALS
 62
     7
  5
112
 10
14.0
 20
0.85
 30
0.0
  0
VERTEX
  8
INTERNALS
 62
     7
  5
113
 10
14.0
 20
0.55
 30
0.0
  0
VERTEX
  8
INTERNALS
 62
     7
  5
114
 10
13.7
 20
0.7
 30
0.0
  0
VERTEX
  8
INTERNALS
 62
     7
  5
115
 10
13.7
 20
0.7
 30
0.0
  0
SEQEND
  8
0
  5
116
  0
LINE
  8
INTERNALS
 62
     7
  5
117
 10
13.7
 20
0.7
 30
0.0
 11
13.5
 21
0.7
 31
0.0
  0
CIRCLE
  8
INTERNALS
 62
     7
  5
118
 10
13.5
 20
0.7
 30
0.0
 40
0.02
  0
LINE
  8
PINS
 62
     7
  5
119
 10
11.4
 20
4.0
 30
0.0
 11
11.3
 21
4.1
 31
0.0
  0
LINE
  8
PINS
 62
     7
  5
11A
 10
11.3
 20
4.1
 30
0.0
 11
11.4
 21
4.2
 31
0.0
  0
LINE
  8
PINS
 62
     7
  5
11B
 10
11.4
 20
4.2
 30
0.0
 11
12.7
 21
4.2
 31
0.0
  0
LINE
  8
PINS
 62
     7
  5
11C
 10
12.7
 20
4.2
 30
0.0
 11
12.7
 21
4.0
 31
0.0
  0
LINE
  8
PINS
 62
     7
  5
11D
 10
12.7
 20
4.0
 30
0.0
 11
11.4
 21
4.0
 31
0.0
  0
LINE
  8
OUTLINE
 62
     7
  5
11E
 10
11.4
 20
4.0
 30
0.0
 11
11.4
 21
4.0
 31
0.0
  0
LINE
  8
PINS
 62
     7
  5
11F
 10
11.4
 20
4.2
 30
0.0
 11
11.3
 21
4.3
 31
0.0
  0
LINE
  8
PINS
 62
     7
  5
120
 10
11.3
 20
4.3
 30
0.0
 11
11.4
 21
4.4
 31
0.0
  0
LINE
  8
PINS
 62
     7
  5
121
 10
11.4
 20
4.4
 30
0.0
 11
12.7
 21
4.4
 31
0.0
  0
LINE
  8
PINS
 62
     7
  5
122
 10
12.7
 20
4.4
 30
0.0
 11
12.7
 21
4.2
 31
0.0
  0
LINE
  8
PINS
 62
     7
  5
123
 10
12.7
 20
4.2
 30
0.0
 11
11.4
 21
4.2
 31
0.0
  0
LINE
  8
OUTLINE
 62
     7
  5
124
 10
11.4
 20
4.2
 30
0.0
 11
11.4
 21
4.2
 31
0.0
  0
TEXT
  8
PINS
 62
     7
  5
125
 10
11.67
 20
4.05
 30
0.0
 40
0.1
  1
pin-9-in-not
  7
STYLE1
 72
     1
 11
12.0
 21
4.1
 31
0.0
 73
     2
  0
TEXT
  8
PINS
 62
     7
  5
126
 10
11.78
 20
4.25
 30
0.0
 40
0.1
  1
pin-9-in
  7
STYLE1
 72
     1
 11
12.0
 21
4.3
 31
0.0
 73
     2
  0
CIRCLE
  8
INTERNALS
 62
     7
  5
127
 10
13.025
 20
4.1
 30
0.0
 40
0.025
  0
POLYLINE
  8
INTERNALS
 62
     7
  5
128
 66
     1
 10
0.0
 20
0.0
 30
0.0
 70
     1
  0
VERTEX
  8
INTERNALS
 62
     7
  5
129
 10
13.05
 20
4.1
 30
0.0
  0
VERTEX
  8
INTERNALS
 62
     7
  5
12A
 10
13.3
 20
4.25
 30
0.0
  0
VERTEX
  8
INTERNALS
 62
     7
  5
12B
 10
13.3
 20
3.95
 30
0.0
  0
VERTEX
  8
INTERNALS
 62
     7
  5
12C
 10
13.05
 20
4.1
 30
0.0
  0
VERTEX
  8
INTERNALS
 62
     7
  5
12D
 10
13.05
 20
4.1
 30
0.0
  0
SEQEND
  8
0
  5
12E
  0
LINE
  8
INTERNALS
 62
     7
  5
12F
 10
12.7
 20
4.3
 30
0.0
 11
13.5
 21
4.3
 31
0.0
  0
LINE
  8
INTERNALS
 62
     7
  5
130
 10
13.5
 20
4.3
 30
0.0
 11
13.5
 21
4.1
 31
0.0
  0
LINE
  8
INTERNALS
 62
     7
  5
131
 10
13.5
 20
4.1
 30
0.0
 11
13.3
 21
4.1
 31
0.0
  0
LINE
  8
INTERNALS
 62
     7
  5
132
 10
13.0
 20
4.1
 30
0.0
 11
12.7
 21
4.1
 31
0.0
  0
POLYLINE
  8
INTERNALS
 62
     7
  5
133
 66
     1
 10
0.0
 20
0.0
 30
0.0
 70
     1
  0
VERTEX
  8
INTERNALS
 62
     7
  5
134
 10
13.7
 20
4.2
 30
0.0
  0
VERTEX
  8
INTERNALS
 62
     7
  5
135
 10
14.0
 20
4.35
 30
0.0
  0
VERTEX
  8
INTERNALS
 62
     7
  5
136
 10
14.0
 20
4.05
 30
0.0
  0
VERTEX
  8
INTERNALS
 62
     7
  5
137
 10
13.7
 20
4.2
 30
0.0
  0
VERTEX
  8
INTERNALS
 62
     7
  5
138
 10
13.7
 20
4.2
 30
0.0
  0
SEQEND
  8
0
  5
139
  0
LINE
  8
INTERNALS
 62
     7
  5
13A
 10
13.7
 20
4.2
 30
0.0
 11
13.5
 21
4.2
 31
0.0
  0
CIRCLE
  8
INTERNALS
 62
     7
  5
13B
 10
13.5
 20
4.2
 30
0.0
 40
0.02
  0
POLYLINE
  8
PINS
 62
     7
  5
13C
 66
     1
 10
0.0
 20
0.0
 30
0.0
 70
     1
  0
VERTEX
  8
PINS
 62
     7
  5
13D
 10
11.4
 20
6.5
 30
0.0
  0
VERTEX
  8
PINS
 62
     7
  5
13E
 10
11.3
 20
6.6
 30
0.0
  0
VERTEX
  8
PINS
 62
     7
  5
13F
 10
11.4
 20
6.7
 30
0.0
  0
VERTEX
  8
PINS
 62
     7
  5
140
 10
12.7
 20
6.7
 30
0.0
  0
VERTEX
  8
PINS
 62
     7
  5
141
 10
12.7
 20
6.5
 30
0.0
  0
VERTEX
  8
PINS
 62
     7
  5
142
 10
11.4
 20
6.5
 30
0.0
  0
VERTEX
  8
PINS
 62
     7
  5
143
 10
11.4
 20
6.5
 30
0.0
  0
SEQEND
  8
0
  5
144
  0
POLYLINE
  8
PINS
 62
     7
  5
145
 66
     1
 10
0.0
 20
0.0
 30
0.0
 70
     1
  0
VERTEX
  8
PINS
 62
     7
  5
146
 10
11.4
 20
6.7
 30
0.0
  0
VERTEX
  8
PINS
 62
     7
  5
147
 10
11.3
 20
6.8
 30
0.0
  0
VERTEX
  8
PINS
 62
     7
  5
148
 10
11.4
 20
6.9
 30
0.0
  0
VERTEX
  8
PINS
 62
     7
  5
149
 10
12.7
 20
6.9
 30
0.0
  0
VERTEX
  8
PINS
 62
     7
  5
14A
 10
12.7
 20
6.7
 30
0.0
  0
VERTEX
  8
PINS
 62
     7
  5
14B
 10
11.4
 20
6.7
 30
0.0
  0
VERTEX
  8
PINS
 62
     7
  5
14C
 10
11.4
 20
6.7
 30
0.0
  0
SEQEND
  8
0
  5
14D
  0
TEXT
  8
PINS
 62
     7
  5
14E
 10
11.6425
 20
6.55
 30
0.0
 40
0.1
  1
pin-15-in-not
  7
STYLE1
 72
     1
 11
12.0
 21
6.6
 31
0.0
 73
     2
  0
TEXT
  8
PINS
 62
     7
  5
14F
 10
11.7525
 20
6.75
 30
0.0
 40
0.1
  1
pin-15-in
  7
STYLE1
 72
     1
 11
12.0
 21
6.8
 31
0.0
 73
     2
  0
CIRCLE
  8
INTERNALS
 62
     7
  5
150
 10
13.025
 20
6.6
 30
0.0
 40
0.025
  0
POLYLINE
  8
INTERNALS
 62
     7
  5
151
 66
     1
 10
0.0
 20
0.0
 30
0.0
 70
     1
  0
VERTEX
  8
INTERNALS
 62
     7
  5
152
 10
13.05
 20
6.6
 30
0.0
  0
VERTEX
  8
INTERNALS
 62
     7
  5
153
 10
13.3
 20
6.75
 30
0.0
  0
VERTEX
  8
INTERNALS
 62
     7
  5
154
 10
13.3
 20
6.45
 30
0.0
  0
VERTEX
  8
INTERNALS
 62
     7
  5
155
 10
13.05
 20
6.6
 30
0.0
  0
VERTEX
  8
INTERNALS
 62
     7
  5
156
 10
13.05
 20
6.6
 30
0.0
  0
SEQEND
  8
0
  5
157
  0
LINE
  8
INTERNALS
 62
     7
  5
158
 10
12.7
 20
6.8
 30
0.0
 11
13.5
 21
6.8
 31
0.0
  0
LINE
  8
INTERNALS
 62
     7
  5
159
 10
13.5
 20
6.8
 30
0.0
 11
13.5
 21
6.6
 31
0.0
  0
LINE
  8
INTERNALS
 62
     7
  5
15A
 10
13.5
 20
6.6
 30
0.0
 11
13.3
 21
6.6
 31
0.0
  0
LINE
  8
INTERNALS
 62
     7
  5
15B
 10
13.0
 20
6.6
 30
0.0
 11
12.7
 21
6.6
 31
0.0
  0
POLYLINE
  8
INTERNALS
 62
     7
  5
15C
 66
     1
 10
0.0
 20
0.0
 30
0.0
 70
     1
  0
VERTEX
  8
INTERNALS
 62
     7
  5
15D
 10
13.7
 20
6.7
 30
0.0
  0
VERTEX
  8
INTERNALS
 62
     7
  5
15E
 10
14.0
 20
6.85
 30
0.0
  0
VERTEX
  8
INTERNALS
 62
     7
  5
15F
 10
14.0
 20
6.55
 30
0.0
  0
VERTEX
  8
INTERNALS
 62
     7
  5
160
 10
13.7
 20
6.7
 30
0.0
  0
VERTEX
  8
INTERNALS
 62
     7
  5
161
 10
13.7
 20
6.7
 30
0.0
  0
SEQEND
  8
0
  5
162
  0
LINE
  8
INTERNALS
 62
     7
  5
163
 10
13.7
 20
6.7
 30
0.0
 11
13.5
 21
6.7
 31
0.0
  0
CIRCLE
  8
INTERNALS
 62
     7
  5
164
 10
13.5
 20
6.7
 30
0.0
 40
0.02
  0
POLYLINE
  8
PINS
 62
     7
  5
165
 66
     1
 10
0.0
 20
0.0
 30
0.0
 70
     1
  0
VERTEX
  8
PINS
 62
     7
  5
166
 10
11.4
 20
6.0
 30
0.0
  0
VERTEX
  8
PINS
 62
     7
  5
167
 10
11.3
 20
6.1
 30
0.0
  0
VERTEX
  8
PINS
 62
     7
  5
168
 10
11.4
 20
6.2
 30
0.0
  0
VERTEX
  8
PINS
 62
     7
  5
169
 10
12.7
 20
6.2
 30
0.0
  0
VERTEX
  8
PINS
 62
     7
  5
16A
 10
12.7
 20
6.0
 30
0.0
  0
VERTEX
  8
PINS
 62
     7
  5
16B
 10
11.4
 20
6.0
 30
0.0
  0
VERTEX
  8
PINS
 62
     7
  5
16C
 10
11.4
 20
6.0
 30
0.0
  0
SEQEND
  8
0
  5
16D
  0
POLYLINE
  8
PINS
 62
     7
  5
16E
 66
     1
 10
0.0
 20
0.0
 30
0.0
 70
     1
  0
VERTEX
  8
PINS
 62
     7
  5
16F
 10
11.4
 20
6.2
 30
0.0
  0
VERTEX
  8
PINS
 62
     7
  5
170
 10
11.3
 20
6.3
 30
0.0
  0
VERTEX
  8
PINS
 62
     7
  5
171
 10
11.4
 20
6.4
 30
0.0
  0
VERTEX
  8
PINS
 62
     7
  5
172
 10
12.7
 20
6.4
 30
0.0
  0
VERTEX
  8
PINS
 62
     7
  5
173
 10
12.7
 20
6.2
 30
0.0
  0
VERTEX
  8
PINS
 62
     7
  5
174
 10
11.4
 20
6.2
 30
0.0
  0
VERTEX
  8
PINS
 62
     7
  5
175
 10
11.4
 20
6.2
 30
0.0
  0
SEQEND
  8
0
  5
176
  0
TEXT
  8
PINS
 62
     7
  5
177
 10
11.6425
 20
6.05
 30
0.0
 40
0.1
  1
pin-13-in-not
  7
STYLE1
 72
     1
 11
12.0
 21
6.1
 31
0.0
 73
     2
  0
TEXT
  8
PINS
 62
     7
  5
178
 10
11.7525
 20
6.25
 30
0.0
 40
0.1
  1
pin-13-in
  7
STYLE1
 72
     1
 11
12.0
 21
6.3
 31
0.0
 73
     2
  0
CIRCLE
  8
INTERNALS
 62
     7
  5
179
 10
13.025
 20
6.1
 30
0.0
 40
0.025
  0
POLYLINE
  8
INTERNALS
 62
     7
  5
17A
 66
     1
 10
0.0
 20
0.0
 30
0.0
 70
     1
  0
VERTEX
  8
INTERNALS
 62
     7
  5
17B
 10
13.05
 20
6.1
 30
0.0
  0
VERTEX
  8
INTERNALS
 62
     7
  5
17C
 10
13.3
 20
6.25
 30
0.0
  0
VERTEX
  8
INTERNALS
 62
     7
  5
17D
 10
13.3
 20
5.95
 30
0.0
  0
VERTEX
  8
INTERNALS
 62
     7
  5
17E
 10
13.05
 20
6.1
 30
0.0
  0
VERTEX
  8
INTERNALS
 62
     7
  5
17F
 10
13.05
 20
6.1
 30
0.0
  0
SEQEND
  8
0
  5
180
  0
LINE
  8
INTERNALS
 62
     7
  5
181
 10
12.7
 20
6.3
 30
0.0
 11
13.5
 21
6.3
 31
0.0
  0
LINE
  8
INTERNALS
 62
     7
  5
182
 10
13.5
 20
6.3
 30
0.0
 11
13.5
 21
6.1
 31
0.0
  0
LINE
  8
INTERNALS
 62
     7
  5
183
 10
13.5
 20
6.1
 30
0.0
 11
13.3
 21
6.1
 31
0.0
  0
LINE
  8
INTERNALS
 62
     7
  5
184
 10
13.0
 20
6.1
 30
0.0
 11
12.7
 21
6.1
 31
0.0
  0
POLYLINE
  8
INTERNALS
 62
     7
  5
185
 66
     1
 10
0.0
 20
0.0
 30
0.0
 70
     1
  0
VERTEX
  8
INTERNALS
 62
     7
  5
186
 10
13.7
 20
6.2
 30
0.0
  0
VERTEX
  8
INTERNALS
 62
     7
  5
187
 10
14.0
 20
6.35
 30
0.0
  0
VERTEX
  8
INTERNALS
 62
     7
  5
188
 10
14.0
 20
6.05
 30
0.0
  0
VERTEX
  8
INTERNALS
 62
     7
  5
189
 10
13.7
 20
6.2
 30
0.0
  0
VERTEX
  8
INTERNALS
 62
     7
  5
18A
 10
13.7
 20
6.2
 30
0.0
  0
SEQEND
  8
0
  5
18B
  0
LINE
  8
INTERNALS
 62
     7
  5
18C
 10
13.7
 20
6.2
 30
0.0
 11
13.5
 21
6.2
 31
0.0
  0
CIRCLE
  8
INTERNALS
 62
     7
  5
18D
 10
13.5
 20
6.2
 30
0.0
 40
0.02
  0
POLYLINE
  8
PINS
 62
     7
  5
18E
 66
     1
 10
0.0
 20
0.0
 30
0.0
 70
     1
  0
VERTEX
  8
PINS
 62
     7
  5
18F
 10
11.4
 20
5.5
 30
0.0
  0
VERTEX
  8
PINS
 62
     7
  5
190
 10
11.3
 20
5.6
 30
0.0
  0
VERTEX
  8
PINS
 62
     7
  5
191
 10
11.4
 20
5.7
 30
0.0
  0
VERTEX
  8
PINS
 62
     7
  5
192
 10
12.7
 20
5.7
 30
0.0
  0
VERTEX
  8
PINS
 62
     7
  5
193
 10
12.7
 20
5.5
 30
0.0
  0
VERTEX
  8
PINS
 62
     7
  5
194
 10
11.4
 20
5.5
 30
0.0
  0
VERTEX
  8
PINS
 62
     7
  5
195
 10
11.4
 20
5.5
 30
0.0
  0
SEQEND
  8
0
  5
196
  0
POLYLINE
  8
PINS
 62
     7
  5
197
 66
     1
 10
0.0
 20
0.0
 30
0.0
 70
     1
  0
VERTEX
  8
PINS
 62
     7
  5
198
 10
11.4
 20
5.7
 30
0.0
  0
VERTEX
  8
PINS
 62
     7
  5
199
 10
11.3
 20
5.8
 30
0.0
  0
VERTEX
  8
PINS
 62
     7
  5
19A
 10
11.4
 20
5.9
 30
0.0
  0
VERTEX
  8
PINS
 62
     7
  5
19B
 10
12.7
 20
5.9
 30
0.0
  0
VERTEX
  8
PINS
 62
     7
  5
19C
 10
12.7
 20
5.7
 30
0.0
  0
VERTEX
  8
PINS
 62
     7
  5
19D
 10
11.4
 20
5.7
 30
0.0
  0
VERTEX
  8
PINS
 62
     7
  5
19E
 10
11.4
 20
5.7
 30
0.0
  0
SEQEND
  8
0
  5
19F
  0
TEXT
  8
PINS
 62
     7
  5
1A0
 10
11.6425
 20
5.55
 30
0.0
 40
0.1
  1
pin-12-in-not
  7
STYLE1
 72
     1
 11
12.0
 21
5.6
 31
0.0
 73
     2
  0
TEXT
  8
PINS
 62
     7
  5
1A1
 10
11.7525
 20
5.75
 30
0.0
 40
0.1
  1
pin-12-in
  7
STYLE1
 72
     1
 11
12.0
 21
5.8
 31
0.0
 73
     2
  0
CIRCLE
  8
INTERNALS
 62
     7
  5
1A2
 10
13.025
 20
5.6
 30
0.0
 40
0.025
  0
POLYLINE
  8
INTERNALS
 62
     7
  5
1A3
 66
     1
 10
0.0
 20
0.0
 30
0.0
 70
     1
  0
VERTEX
  8
INTERNALS
 62
     7
  5
1A4
 10
13.05
 20
5.6
 30
0.0
  0
VERTEX
  8
INTERNALS
 62
     7
  5
1A5
 10
13.3
 20
5.75
 30
0.0
  0
VERTEX
  8
INTERNALS
 62
     7
  5
1A6
 10
13.3
 20
5.45
 30
0.0
  0
VERTEX
  8
INTERNALS
 62
     7
  5
1A7
 10
13.05
 20
5.6
 30
0.0
  0
VERTEX
  8
INTERNALS
 62
     7
  5
1A8
 10
13.05
 20
5.6
 30
0.0
  0
SEQEND
  8
0
  5
1A9
  0
LINE
  8
INTERNALS
 62
     7
  5
1AA
 10
12.7
 20
5.8
 30
0.0
 11
13.5
 21
5.8
 31
0.0
  0
LINE
  8
INTERNALS
 62
     7
  5
1AB
 10
13.5
 20
5.8
 30
0.0
 11
13.5
 21
5.6
 31
0.0
  0
LINE
  8
INTERNALS
 62
     7
  5
1AC
 10
13.5
 20
5.6
 30
0.0
 11
13.3
 21
5.6
 31
0.0
  0
LINE
  8
INTERNALS
 62
     7
  5
1AD
 10
13.0
 20
5.6
 30
0.0
 11
12.7
 21
5.6
 31
0.0
  0
POLYLINE
  8
INTERNALS
 62
     7
  5
1AE
 66
     1
 10
0.0
 20
0.0
 30
0.0
 70
     1
  0
VERTEX
  8
INTERNALS
 62
     7
  5
1AF
 10
13.7
 20
5.7
 30
0.0
  0
VERTEX
  8
INTERNALS
 62
     7
  5
1B0
 10
14.0
 20
5.85
 30
0.0
  0
VERTEX
  8
INTERNALS
 62
     7
  5
1B1
 10
14.0
 20
5.55
 30
0.0
  0
VERTEX
  8
INTERNALS
 62
     7
  5
1B2
 10
13.7
 20
5.7
 30
0.0
  0
VERTEX
  8
INTERNALS
 62
     7
  5
1B3
 10
13.7
 20
5.7
 30
0.0
  0
SEQEND
  8
0
  5
1B4
  0
LINE
  8
INTERNALS
 62
     7
  5
1B5
 10
13.7
 20
5.7
 30
0.0
 11
13.5
 21
5.7
 31
0.0
  0
CIRCLE
  8
INTERNALS
 62
     7
  5
1B6
 10
13.5
 20
5.7
 30
0.0
 40
0.02
  0
POLYLINE
  8
PINS
 62
     7
  5
1B7
 66
     1
 10
0.0
 20
0.0
 30
0.0
 70
     1
  0
VERTEX
  8
PINS
 62
     7
  5
1B8
 10
11.4
 20
5.0
 30
0.0
  0
VERTEX
  8
PINS
 62
     7
  5
1B9
 10
11.3
 20
5.1
 30
0.0
  0
VERTEX
  8
PINS
 62
     7
  5
1BA
 10
11.4
 20
5.2
 30
0.0
  0
VERTEX
  8
PINS
 62
     7
  5
1BB
 10
12.7
 20
5.2
 30
0.0
  0
VERTEX
  8
PINS
 62
     7
  5
1BC
 10
12.7
 20
5.0
 30
0.0
  0
VERTEX
  8
PINS
 62
     7
  5
1BD
 10
11.4
 20
5.0
 30
0.0
  0
VERTEX
  8
PINS
 62
     7
  5
1BE
 10
11.4
 20
5.0
 30
0.0
  0
SEQEND
  8
0
  5
1BF
  0
POLYLINE
  8
PINS
 62
     7
  5
1C0
 66
     1
 10
0.0
 20
0.0
 30
0.0
 70
     1
  0
VERTEX
  8
PINS
 62
     7
  5
1C1
 10
11.4
 20
5.2
 30
0.0
  0
VERTEX
  8
PINS
 62
     7
  5
1C2
 10
11.3
 20
5.3
 30
0.0
  0
VERTEX
  8
PINS
 62
     7
  5
1C3
 10
11.4
 20
5.4
 30
0.0
  0
VERTEX
  8
PINS
 62
     7
  5
1C4
 10
12.7
 20
5.4
 30
0.0
  0
VERTEX
  8
PINS
 62
     7
  5
1C5
 10
12.7
 20
5.2
 30
0.0
  0
VERTEX
  8
PINS
 62
     7
  5
1C6
 10
11.4
 20
5.2
 30
0.0
  0
VERTEX
  8
PINS
 62
     7
  5
1C7
 10
11.4
 20
5.2
 30
0.0
  0
SEQEND
  8
0
  5
1C8
  0
TEXT
  8
PINS
 62
     7
  5
1C9
 10
11.6425
 20
5.05
 30
0.0
 40
0.1
  1
pin-11-in-not
  7
STYLE1
 72
     1
 11
12.0
 21
5.1
 31
0.0
 73
     2
  0
TEXT
  8
PINS
 62
     7
  5
1CA
 10
11.7525
 20
5.25
 30
0.0
 40
0.1
  1
pin-11-in
  7
STYLE1
 72
     1
 11
12.0
 21
5.3
 31
0.0
 73
     2
  0
CIRCLE
  8
INTERNALS
 62
     7
  5
1CB
 10
13.025
 20
5.1
 30
0.0
 40
0.025
  0
POLYLINE
  8
INTERNALS
 62
     7
  5
1CC
 66
     1
 10
0.0
 20
0.0
 30
0.0
 70
     1
  0
VERTEX
  8
INTERNALS
 62
     7
  5
1CD
 10
13.05
 20
5.1
 30
0.0
  0
VERTEX
  8
INTERNALS
 62
     7
  5
1CE
 10
13.3
 20
5.25
 30
0.0
  0
VERTEX
  8
INTERNALS
 62
     7
  5
1CF
 10
13.3
 20
4.95
 30
0.0
  0
VERTEX
  8
INTERNALS
 62
     7
  5
1D0
 10
13.05
 20
5.1
 30
0.0
  0
VERTEX
  8
INTERNALS
 62
     7
  5
1D1
 10
13.05
 20
5.1
 30
0.0
  0
SEQEND
  8
0
  5
1D2
  0
LINE
  8
INTERNALS
 62
     7
  5
1D3
 10
12.7
 20
5.3
 30
0.0
 11
13.5
 21
5.3
 31
0.0
  0
LINE
  8
INTERNALS
 62
     7
  5
1D4
 10
13.5
 20
5.3
 30
0.0
 11
13.5
 21
5.1
 31
0.0
  0
LINE
  8
INTERNALS
 62
     7
  5
1D5
 10
13.5
 20
5.1
 30
0.0
 11
13.3
 21
5.1
 31
0.0
  0
LINE
  8
INTERNALS
 62
     7
  5
1D6
 10
13.0
 20
5.1
 30
0.0
 11
12.7
 21
5.1
 31
0.0
  0
POLYLINE
  8
INTERNALS
 62
     7
  5
1D7
 66
     1
 10
0.0
 20
0.0
 30
0.0
 70
     1
  0
VERTEX
  8
INTERNALS
 62
     7
  5
1D8
 10
13.7
 20
5.2
 30
0.0
  0
VERTEX
  8
INTERNALS
 62
     7
  5
1D9
 10
14.0
 20
5.35
 30
0.0
  0
VERTEX
  8
INTERNALS
 62
     7
  5
1DA
 10
14.0
 20
5.05
 30
0.0
  0
VERTEX
  8
INTERNALS
 62
     7
  5
1DB
 10
13.7
 20
5.2
 30
0.0
  0
VERTEX
  8
INTERNALS
 62
     7
  5
1DC
 10
13.7
 20
5.2
 30
0.0
  0
SEQEND
  8
0
  5
1DD
  0
LINE
  8
INTERNALS
 62
     7
  5
1DE
 10
13.7
 20
5.2
 30
0.0
 11
13.5
 21
5.2
 31
0.0
  0
CIRCLE
  8
INTERNALS
 62
     7
  5
1DF
 10
13.5
 20
5.2
 30
0.0
 40
0.02
  0
POLYLINE
  8
PINS
 62
     7
  5
1E0
 66
     1
 10
0.0
 20
0.0
 30
0.0
 70
     1
  0
VERTEX
  8
PINS
 62
     7
  5
1E1
 10
11.4
 20
4.5
 30
0.0
  0
VERTEX
  8
PINS
 62
     7
  5
1E2
 10
11.3
 20
4.6
 30
0.0
  0
VERTEX
  8
PINS
 62
     7
  5
1E3
 10
11.4
 20
4.7
 30
0.0
  0
VERTEX
  8
PINS
 62
     7
  5
1E4
 10
12.7
 20
4.7
 30
0.0
  0
VERTEX
  8
PINS
 62
     7
  5
1E5
 10
12.7
 20
4.5
 30
0.0
  0
VERTEX
  8
PINS
 62
     7
  5
1E6
 10
11.4
 20
4.5
 30
0.0
  0
VERTEX
  8
PINS
 62
     7
  5
1E7
 10
11.4
 20
4.5
 30
0.0
  0
SEQEND
  8
0
  5
1E8
  0
POLYLINE
  8
PINS
 62
     7
  5
1E9
 66
     1
 10
0.0
 20
0.0
 30
0.0
 70
     1
  0
VERTEX
  8
PINS
 62
     7
  5
1EA
 10
11.4
 20
4.7
 30
0.0
  0
VERTEX
  8
PINS
 62
     7
  5
1EB
 10
11.3
 20
4.8
 30
0.0
  0
VERTEX
  8
PINS
 62
     7
  5
1EC
 10
11.4
 20
4.9
 30
0.0
  0
VERTEX
  8
PINS
 62
     7
  5
1ED
 10
12.7
 20
4.9
 30
0.0
  0
VERTEX
  8
PINS
 62
     7
  5
1EE
 10
12.7
 20
4.7
 30
0.0
  0
VERTEX
  8
PINS
 62
     7
  5
1EF
 10
11.4
 20
4.7
 30
0.0
  0
VERTEX
  8
PINS
 62
     7
  5
1F0
 10
11.4
 20
4.7
 30
0.0
  0
SEQEND
  8
0
  5
1F1
  0
TEXT
  8
PINS
 62
     7
  5
1F2
 10
11.6425
 20
4.55
 30
0.0
 40
0.1
  1
pin-10-in-not
  7
STYLE1
 72
     1
 11
12.0
 21
4.6
 31
0.0
 73
     2
  0
TEXT
  8
PINS
 62
     7
  5
1F3
 10
11.7525
 20
4.75
 30
0.0
 40
0.1
  1
pin-10-in
  7
STYLE1
 72
     1
 11
12.0
 21
4.8
 31
0.0
 73
     2
  0
CIRCLE
  8
INTERNALS
 62
     7
  5
1F4
 10
13.025
 20
4.6
 30
0.0
 40
0.025
  0
POLYLINE
  8
INTERNALS
 62
     7
  5
1F5
 66
     1
 10
0.0
 20
0.0
 30
0.0
 70
     1
  0
VERTEX
  8
INTERNALS
 62
     7
  5
1F6
 10
13.05
 20
4.6
 30
0.0
  0
VERTEX
  8
INTERNALS
 62
     7
  5
1F7
 10
13.3
 20
4.75
 30
0.0
  0
VERTEX
  8
INTERNALS
 62
     7
  5
1F8
 10
13.3
 20
4.45
 30
0.0
  0
VERTEX
  8
INTERNALS
 62
     7
  5
1F9
 10
13.05
 20
4.6
 30
0.0
  0
VERTEX
  8
INTERNALS
 62
     7
  5
1FA
 10
13.05
 20
4.6
 30
0.0
  0
SEQEND
  8
0
  5
1FB
  0
LINE
  8
INTERNALS
 62
     7
  5
1FC
 10
12.7
 20
4.8
 30
0.0
 11
13.5
 21
4.8
 31
0.0
  0
LINE
  8
INTERNALS
 62
     7
  5
1FD
 10
13.5
 20
4.8
 30
0.0
 11
13.5
 21
4.6
 31
0.0
  0
LINE
  8
INTERNALS
 62
     7
  5
1FE
 10
13.5
 20
4.6
 30
0.0
 11
13.3
 21
4.6
 31
0.0
  0
LINE
  8
INTERNALS
 62
     7
  5
1FF
 10
13.0
 20
4.6
 30
0.0
 11
12.7
 21
4.6
 31
0.0
  0
POLYLINE
  8
INTERNALS
 62
     7
  5
200
 66
     1
 10
0.0
 20
0.0
 30
0.0
 70
     1
  0
VERTEX
  8
INTERNALS
 62
     7
  5
201
 10
13.7
 20
4.7
 30
0.0
  0
VERTEX
  8
INTERNALS
 62
     7
  5
202
 10
14.0
 20
4.85
 30
0.0
  0
VERTEX
  8
INTERNALS
 62
     7
  5
203
 10
14.0
 20
4.55
 30
0.0
  0
VERTEX
  8
INTERNALS
 62
     7
  5
204
 10
13.7
 20
4.7
 30
0.0
  0
VERTEX
  8
INTERNALS
 62
     7
  5
205
 10
13.7
 20
4.7
 30
0.0
  0
SEQEND
  8
0
  5
206
  0
LINE
  8
INTERNALS
 62
     7
  5
207
 10
13.7
 20
4.7
 30
0.0
 11
13.5
 21
4.7
 31
0.0
  0
CIRCLE
  8
INTERNALS
 62
     7
  5
208
 10
13.5
 20
4.7
 30
0.0
 40
0.02
  0
LINE
  8
PINS
 62
     7
  5
209
 10
12.8
 20
0.1
 30
0.0
 11
12.8
 21
0.1
 31
0.0
  0
POLYLINE
  8
PINS
 62
     7
  5
20A
 66
     1
 10
0.0
 20
0.0
 30
0.0
 70
     1
  0
VERTEX
  8
PINS
 62
     7
  5
20B
 10
11.3
 20
-0.1
 30
0.0
  0
VERTEX
  8
PINS
 62
     7
  5
20C
 10
11.3
 20
0.1
 30
0.0
  0
VERTEX
  8
PINS
 62
     7
  5
20D
 10
12.6
 20
0.1
 30
0.0
  0
VERTEX
  8
PINS
 62
     7
  5
20E
 10
12.7
 20
0.0
 30
0.0
  0
VERTEX
  8
PINS
 62
     7
  5
20F
 10
12.6
 20
-0.1
 30
0.0
  0
VERTEX
  8
PINS
 62
     7
  5
210
 10
11.3
 20
-0.1
 30
0.0
  0
VERTEX
  8
PINS
 62
     7
  5
211
 10
11.3
 20
-0.1
 30
0.0
  0
SEQEND
  8
0
  5
212
  0
TEXT
  8
PARAMS
 62
     7
  5
213
 10
12.9325
 20
0.15
 30
0.0
 40
0.1
  1
pin-17-out-invert
  7
STYLE1
 72
     1
 11
13.4
 21
0.2
 31
0.0
 73
     2
  0
TEXT
  8
PINS
 62
     7
  5
214
 10
11.625
 20
-0.05
 30
0.0
 40
0.1
  1
pin-17-out
  7
STYLE1
 72
     1
 11
11.9
 21
0.0
 31
0.0
 73
     2
  0
ARC
  8
INTERNALS
 62
     7
  5
215
 10
14.070871
 20
0.1
 30
0.0
 40
0.25
 50
323.130102
 51
396.869898
  0
ARC
  8
INTERNALS
 62
     7
  5
216
 10
14.15
 20
0.1
 30
0.0
 40
0.25
 50
323.130102
 51
396.869898
  0
ARC
  8
INTERNALS
 62
     7
  5
217
 10
14.382139
 20
0.358342
 30
0.0
 40
0.409605
 50
265.499752
 51
320.897429
  0
ARC
  8
INTERNALS
 62
     7
  5
218
 10
14.382139
 20
-0.158342
 30
0.0
 40
0.409605
 50
39.102571
 51
94.500248
  0
LINE
  8
INTERNALS
 62
     7
  5
219
 10
14.3
 20
0.0
 30
0.0
 11
12.7
 21
0.0
 31
0.0
  0
LINE
  8
INTERNALS
 62
     7
  5
21A
 10
14.0
 20
0.2
 30
0.0
 11
14.3
 21
0.2
 31
0.0
  0
POLYLINE
  8
PARAMS
 62
     7
  5
21B
 66
     1
 10
0.0
 20
0.0
 30
0.0
 70
     1
  0
VERTEX
  8
PARAMS
 62
     7
  5
21C
 10
12.8
 20
0.1
 30
0.0
  0
VERTEX
  8
PARAMS
 62
     7
  5
21D
 10
12.8
 20
0.3
 30
0.0
  0
VERTEX
  8
PARAMS
 62
     7
  5
21E
 10
14.0
 20
0.3
 30
0.0
  0
VERTEX
  8
PARAMS
 62
     7
  5
21F
 10
14.0
 20
0.1
 30
0.0
  0
VERTEX
  8
PARAMS
 62
     7
  5
220
 10
12.8
 20
0.1
 30
0.0
  0
SEQEND
  8
0
  5
221
  0
LINE
  8
PINS
 62
     7
  5
222
 10
12.8
 20
-0.4
 30
0.0
 11
12.8
 21
-0.4
 31
0.0
  0
POLYLINE
  8
PINS
 62
     7
  5
223
 66
     1
 10
0.0
 20
0.0
 30
0.0
 70
     1
  0
VERTEX
  8
PINS
 62
     7
  5
224
 10
11.3
 20
-0.6
 30
0.0
  0
VERTEX
  8
PINS
 62
     7
  5
225
 10
11.3
 20
-0.4
 30
0.0
  0
VERTEX
  8
PINS
 62
     7
  5
226
 10
12.6
 20
-0.4
 30
0.0
  0
VERTEX
  8
PINS
 62
     7
  5
227
 10
12.7
 20
-0.5
 30
0.0
  0
VERTEX
  8
PINS
 62
     7
  5
228
 10
12.6
 20
-0.6
 30
0.0
  0
VERTEX
  8
PINS
 62
     7
  5
229
 10
11.3
 20
-0.6
 30
0.0
  0
VERTEX
  8
PINS
 62
     7
  5
22A
 10
11.3
 20
-0.6
 30
0.0
  0
SEQEND
  8
0
  5
22B
  0
TEXT
  8
PARAMS
 62
     7
  5
22C
 10
12.9325
 20
-0.35
 30
0.0
 40
0.1
  1
pin-16-out-invert
  7
STYLE1
 72
     1
 11
13.4
 21
-0.3
 31
0.0
 73
     2
  0
TEXT
  8
PINS
 62
     7
  5
22D
 10
11.625
 20
-0.55
 30
0.0
 40
0.1
  1
pin-16-out
  7
STYLE1
 72
     1
 11
11.9
 21
-0.5
 31
0.0
 73
     2
  0
ARC
  8
INTERNALS
 62
     7
  5
22E
 10
14.070871
 20
-0.4
 30
0.0
 40
0.25
 50
323.130102
 51
396.869898
  0
ARC
  8
INTERNALS
 62
     7
  5
22F
 10
14.15
 20
-0.4
 30
0.0
 40
0.25
 50
323.130102
 51
396.869898
  0
ARC
  8
INTERNALS
 62
     7
  5
230
 10
14.382139
 20
-0.141658
 30
0.0
 40
0.409605
 50
265.499752
 51
320.897429
  0
ARC
  8
INTERNALS
 62
     7
  5
231
 10
14.382139
 20
-0.658342
 30
0.0
 40
0.409605
 50
39.102571
 51
94.500248
  0
LINE
  8
INTERNALS
 62
     7
  5
232
 10
14.3
 20
-0.5
 30
0.0
 11
12.7
 21
-0.5
 31
0.0
  0
LINE
  8
INTERNALS
 62
     7
  5
233
 10
14.0
 20
-0.3
 30
0.0
 11
14.3
 21
-0.3
 31
0.0
  0
POLYLINE
  8
PARAMS
 62
     7
  5
234
 66
     1
 10
0.0
 20
0.0
 30
0.0
 70
     1
  0
VERTEX
  8
PARAMS
 62
     7
  5
235
 10
12.8
 20
-0.4
 30
0.0
  0
VERTEX
  8
PARAMS
 62
     7
  5
236
 10
12.8
 20
-0.2
 30
0.0
  0
VERTEX
  8
PARAMS
 62
     7
  5
237
 10
14.0
 20
-0.2
 30
0.0
  0
VERTEX
  8
PARAMS
 62
     7
  5
238
 10
14.0
 20
-0.4
 30
0.0
  0
VERTEX
  8
PARAMS
 62
     7
  5
239
 10
12.8
 20
-0.4
 30
0.0
  0
SEQEND
  8
0
  5
23A
  0
LINE
  8
PINS
 62
     7
  5
23B
 10
12.8
 20
-0.9
 30
0.0
 11
12.8
 21
-0.9
 31
0.0
  0
POLYLINE
  8
PINS
 62
     7
  5
23C
 66
     1
 10
0.0
 20
0.0
 30
0.0
 70
     1
  0
VERTEX
  8
PINS
 62
     7
  5
23D
 10
11.3
 20
-1.1
 30
0.0
  0
VERTEX
  8
PINS
 62
     7
  5
23E
 10
11.3
 20
-0.9
 30
0.0
  0
VERTEX
  8
PINS
 62
     7
  5
23F
 10
12.6
 20
-0.9
 30
0.0
  0
VERTEX
  8
PINS
 62
     7
  5
240
 10
12.7
 20
-1.0
 30
0.0
  0
VERTEX
  8
PINS
 62
     7
  5
241
 10
12.6
 20
-1.1
 30
0.0
  0
VERTEX
  8
PINS
 62
     7
  5
242
 10
11.3
 20
-1.1
 30
0.0
  0
VERTEX
  8
PINS
 62
     7
  5
243
 10
11.3
 20
-1.1
 30
0.0
  0
SEQEND
  8
0
  5
244
  0
TEXT
  8
PARAMS
 62
     7
  5
245
 10
12.9325
 20
-0.85
 30
0.0
 40
0.1
  1
pin-14-out-invert
  7
STYLE1
 72
     1
 11
13.4
 21
-0.8
 31
0.0
 73
     2
  0
TEXT
  8
PINS
 62
     7
  5
246
 10
11.625
 20
-1.05
 30
0.0
 40
0.1
  1
pin-14-out
  7
STYLE1
 72
     1
 11
11.9
 21
-1.0
 31
0.0
 73
     2
  0
ARC
  8
INTERNALS
 62
     7
  5
247
 10
14.070871
 20
-0.9
 30
0.0
 40
0.25
 50
323.130102
 51
396.869898
  0
ARC
  8
INTERNALS
 62
     7
  5
248
 10
14.15
 20
-0.9
 30
0.0
 40
0.25
 50
323.130102
 51
396.869898
  0
ARC
  8
INTERNALS
 62
     7
  5
249
 10
14.382139
 20
-0.641658
 30
0.0
 40
0.409605
 50
265.499752
 51
320.897429
  0
ARC
  8
INTERNALS
 62
     7
  5
24A
 10
14.382139
 20
-1.158342
 30
0.0
 40
0.409605
 50
39.102571
 51
94.500248
  0
LINE
  8
INTERNALS
 62
     7
  5
24B
 10
14.3
 20
-1.0
 30
0.0
 11
12.7
 21
-1.0
 31
0.0
  0
LINE
  8
INTERNALS
 62
     7
  5
24C
 10
14.0
 20
-0.8
 30
0.0
 11
14.3
 21
-0.8
 31
0.0
  0
POLYLINE
  8
PARAMS
 62
     7
  5
24D
 66
     1
 10
0.0
 20
0.0
 30
0.0
 70
     1
  0
VERTEX
  8
PARAMS
 62
     7
  5
24E
 10
12.8
 20
-0.9
 30
0.0
  0
VERTEX
  8
PARAMS
 62
     7
  5
24F
 10
12.8
 20
-0.7
 30
0.0
  0
VERTEX
  8
PARAMS
 62
     7
  5
250
 10
14.0
 20
-0.7
 30
0.0
  0
VERTEX
  8
PARAMS
 62
     7
  5
251
 10
14.0
 20
-0.9
 30
0.0
  0
VERTEX
  8
PARAMS
 62
     7
  5
252
 10
12.8
 20
-0.9
 30
0.0
  0
SEQEND
  8
0
  5
253
  0
LINE
  8
PINS
 62
     7
  5
254
 10
12.8
 20
-1.4
 30
0.0
 11
12.8
 21
-1.4
 31
0.0
  0
POLYLINE
  8
PINS
 62
     7
  5
255
 66
     1
 10
0.0
 20
0.0
 30
0.0
 70
     1
  0
VERTEX
  8
PINS
 62
     7
  5
256
 10
11.3
 20
-1.6
 30
0.0
  0
VERTEX
  8
PINS
 62
     7
  5
257
 10
11.3
 20
-1.4
 30
0.0
  0
VERTEX
  8
PINS
 62
     7
  5
258
 10
12.6
 20
-1.4
 30
0.0
  0
VERTEX
  8
PINS
 62
     7
  5
259
 10
12.7
 20
-1.5
 30
0.0
  0
VERTEX
  8
PINS
 62
     7
  5
25A
 10
12.6
 20
-1.6
 30
0.0
  0
VERTEX
  8
PINS
 62
     7
  5
25B
 10
11.3
 20
-1.6
 30
0.0
  0
VERTEX
  8
PINS
 62
     7
  5
25C
 10
11.3
 20
-1.6
 30
0.0
  0
SEQEND
  8
0
  5
25D
  0
TEXT
  8
PARAMS
 62
     7
  5
25E
 10
12.96
 20
-1.35
 30
0.0
 40
0.1
  1
pin-1-out-invert
  7
STYLE1
 72
     1
 11
13.4
 21
-1.3
 31
0.0
 73
     2
  0
TEXT
  8
PINS
 62
     7
  5
25F
 10
11.6525
 20
-1.55
 30
0.0
 40
0.1
  1
pin-1-out
  7
STYLE1
 72
     1
 11
11.9
 21
-1.5
 31
0.0
 73
     2
  0
ARC
  8
INTERNALS
 62
     7
  5
260
 10
14.070871
 20
-1.4
 30
0.0
 40
0.25
 50
323.130102
 51
396.869898
  0
ARC
  8
INTERNALS
 62
     7
  5
261
 10
14.15
 20
-1.4
 30
0.0
 40
0.25
 50
323.130102
 51
396.869898
  0
ARC
  8
INTERNALS
 62
     7
  5
262
 10
14.382139
 20
-1.141658
 30
0.0
 40
0.409605
 50
265.499752
 51
320.897429
  0
ARC
  8
INTERNALS
 62
     7
  5
263
 10
14.382139
 20
-1.658342
 30
0.0
 40
0.409605
 50
39.102571
 51
94.500248
  0
LINE
  8
INTERNALS
 62
     7
  5
264
 10
14.3
 20
-1.5
 30
0.0
 11
12.7
 21
-1.5
 31
0.0
  0
LINE
  8
INTERNALS
 62
     7
  5
265
 10
14.0
 20
-1.3
 30
0.0
 11
14.3
 21
-1.3
 31
0.0
  0
POLYLINE
  8
PARAMS
 62
     7
  5
266
 66
     1
 10
0.0
 20
0.0
 30
0.0
 70
     1
  0
VERTEX
  8
PARAMS
 62
     7
  5
267
 10
12.8
 20
-1.4
 30
0.0
  0
VERTEX
  8
PARAMS
 62
     7
  5
268
 10
12.8
 20
-1.2
 30
0.0
  0
VERTEX
  8
PARAMS
 62
     7
  5
269
 10
14.0
 20
-1.2
 30
0.0
  0
VERTEX
  8
PARAMS
 62
     7
  5
26A
 10
14.0
 20
-1.4
 30
0.0
  0
VERTEX
  8
PARAMS
 62
     7
  5
26B
 10
12.8
 20
-1.4
 30
0.0
  0
SEQEND
  8
0
  5
26C
  0
LINE
  8
OUTLINE
 62
     7
  5
26D
 10
11.5
 20
3.5
 30
0.0
 11
11.5
 21
3.4
 31
0.0
  0
LINE
  8
OUTLINE
 62
     7
  5
26E
 10
11.5
 20
3.0
 30
0.0
 11
11.5
 21
2.9
 31
0.0
  0
LINE
  8
OUTLINE
 62
     7
  5
26F
 10
11.5
 20
2.5
 30
0.0
 11
11.5
 21
2.4
 31
0.0
  0
LINE
  8
OUTLINE
 62
     7
  5
270
 10
11.5
 20
2.0
 30
0.0
 11
11.5
 21
1.9
 31
0.0
  0
LINE
  8
OUTLINE
 62
     7
  5
271
 10
11.5
 20
1.5
 30
0.0
 11
11.5
 21
1.4
 31
0.0
  0
LINE
  8
OUTLINE
 62
     7
  5
272
 10
11.5
 20
0.5
 30
0.0
 11
11.5
 21
0.1
 31
0.0
  0
LINE
  8
OUTLINE
 62
     7
  5
273
 10
11.5
 20
-0.6
 30
0.0
 11
11.5
 21
-0.9
 31
0.0
  0
LINE
  8
OUTLINE
 62
     7
  5
274
 10
11.5
 20
-1.1
 30
0.0
 11
11.5
 21
-1.4
 31
0.0
  0
LINE
  8
OUTLINE
 62
     7
  5
275
 10
11.5
 20
-0.1
 30
0.0
 11
11.5
 21
-0.4
 31
0.0
  0
LINE
  8
OUTLINE
 62
     7
  5
276
 10
11.5
 20
1.0
 30
0.0
 11
11.5
 21
0.9
 31
0.0
  0
LINE
  8
OUTLINE
 62
     7
  5
277
 10
11.5
 20
4.5
 30
0.0
 11
11.5
 21
4.4
 31
0.0
  0
LINE
  8
OUTLINE
 62
     7
  5
278
 10
11.5
 20
5.0
 30
0.0
 11
11.5
 21
4.9
 31
0.0
  0
LINE
  8
OUTLINE
 62
     7
  5
279
 10
11.5
 20
5.5
 30
0.0
 11
11.5
 21
5.4
 31
0.0
  0
LINE
  8
OUTLINE
 62
     7
  5
27A
 10
11.5
 20
6.0
 30
0.0
 11
11.5
 21
5.9
 31
0.0
  0
LINE
  8
OUTLINE
 62
     7
  5
27B
 10
11.5
 20
6.5
 30
0.0
 11
11.5
 21
6.4
 31
0.0
  0
LINE
  8
OUTLINE
 62
     7
  5
27C
 10
11.5
 20
4.0
 30
0.0
 11
11.5
 21
3.9
 31
0.0
  0
POLYLINE
  8
PINS
 62
     7
  5
27D
 66
     1
 10
0.0
 20
0.0
 30
0.0
 70
     1
  0
VERTEX
  8
PINS
 62
     7
  5
27E
 10
4.5
 20
4.5
 30
0.0
  0
VERTEX
  8
PINS
 62
     7
  5
27F
 10
4.4
 20
4.6
 30
0.0
  0
VERTEX
  8
PINS
 62
     7
  5
280
 10
4.5
 20
4.7
 30
0.0
  0
VERTEX
  8
PINS
 62
     7
  5
281
 10
5.8
 20
4.7
 30
0.0
  0
VERTEX
  8
PINS
 62
     7
  5
282
 10
5.8
 20
4.5
 30
0.0
  0
VERTEX
  8
PINS
 62
     7
  5
283
 10
4.5
 20
4.5
 30
0.0
  0
VERTEX
  8
PINS
 62
     7
  5
284
 10
4.5
 20
4.5
 30
0.0
  0
SEQEND
  8
0
  5
285
  0
POLYLINE
  8
PINS
 62
     7
  5
286
 66
     1
 10
0.0
 20
0.0
 30
0.0
 70
     1
  0
VERTEX
  8
PINS
 62
     7
  5
287
 10
4.5
 20
4.7
 30
0.0
  0
VERTEX
  8
PINS
 62
     7
  5
288
 10
4.4
 20
4.8
 30
0.0
  0
VERTEX
  8
PINS
 62
     7
  5
289
 10
4.5
 20
4.9
 30
0.0
  0
VERTEX
  8
PINS
 62
     7
  5
28A
 10
5.8
 20
4.9
 30
0.0
  0
VERTEX
  8
PINS
 62
     7
  5
28B
 10
5.8
 20
4.7
 30
0.0
  0
VERTEX
  8
PINS
 62
     7
  5
28C
 10
4.5
 20
4.7
 30
0.0
  0
VERTEX
  8
PINS
 62
     7
  5
28D
 10
4.5
 20
4.7
 30
0.0
  0
SEQEND
  8
0
  5
28E
  0
TEXT
  8
PINS
 62
     7
  5
28F
 10
4.7425
 20
4.55
 30
0.0
 40
0.1
  1
pin-10-in-not
  7
STYLE1
 72
     1
 11
5.1
 21
4.6
 31
0.0
 73
     2
  0
TEXT
  8
PINS
 62
     7
  5
290
 10
4.8525
 20
4.75
 30
0.0
 40
0.1
  1
pin-10-in
  7
STYLE1
 72
     1
 11
5.1
 21
4.8
 31
0.0
 73
     2
  0
CIRCLE
  8
INTERNALS
 62
     7
  5
291
 10
6.125
 20
4.6
 30
0.0
 40
0.025
  0
POLYLINE
  8
INTERNALS
 62
     7
  5
292
 66
     1
 10
0.0
 20
0.0
 30
0.0
 70
     1
  0
VERTEX
  8
INTERNALS
 62
     7
  5
293
 10
6.15
 20
4.6
 30
0.0
  0
VERTEX
  8
INTERNALS
 62
     7
  5
294
 10
6.4
 20
4.75
 30
0.0
  0
VERTEX
  8
INTERNALS
 62
     7
  5
295
 10
6.4
 20
4.45
 30
0.0
  0
VERTEX
  8
INTERNALS
 62
     7
  5
296
 10
6.15
 20
4.6
 30
0.0
  0
VERTEX
  8
INTERNALS
 62
     7
  5
297
 10
6.15
 20
4.6
 30
0.0
  0
SEQEND
  8
0
  5
298
  0
LINE
  8
INTERNALS
 62
     7
  5
299
 10
5.8
 20
4.8
 30
0.0
 11
6.6
 21
4.8
 31
0.0
  0
LINE
  8
INTERNALS
 62
     7
  5
29A
 10
6.6
 20
4.8
 30
0.0
 11
6.6
 21
4.6
 31
0.0
  0
LINE
  8
INTERNALS
 62
     7
  5
29B
 10
6.6
 20
4.6
 30
0.0
 11
6.4
 21
4.6
 31
0.0
  0
LINE
  8
INTERNALS
 62
     7
  5
29C
 10
6.1
 20
4.6
 30
0.0
 11
5.8
 21
4.6
 31
0.0
  0
POLYLINE
  8
INTERNALS
 62
     7
  5
29D
 66
     1
 10
0.0
 20
0.0
 30
0.0
 70
     1
  0
VERTEX
  8
INTERNALS
 62
     7
  5
29E
 10
6.8
 20
4.7
 30
0.0
  0
VERTEX
  8
INTERNALS
 62
     7
  5
29F
 10
7.1
 20
4.85
 30
0.0
  0
VERTEX
  8
INTERNALS
 62
     7
  5
2A0
 10
7.1
 20
4.55
 30
0.0
  0
VERTEX
  8
INTERNALS
 62
     7
  5
2A1
 10
6.8
 20
4.7
 30
0.0
  0
VERTEX
  8
INTERNALS
 62
     7
  5
2A2
 10
6.8
 20
4.7
 30
0.0
  0
SEQEND
  8
0
  5
2A3
  0
LINE
  8
INTERNALS
 62
     7
  5
2A4
 10
6.8
 20
4.7
 30
0.0
 11
6.6
 21
4.7
 31
0.0
  0
CIRCLE
  8
INTERNALS
 62
     7
  5
2A5
 10
6.6
 20
4.7
 30
0.0
 40
0.02
  0
POLYLINE
  8
PINS
 62
     7
  5
2A6
 66
     1
 10
0.0
 20
0.0
 30
0.0
 70
     1
  0
VERTEX
  8
PINS
 62
     7
  5
2A7
 10
4.5
 20
5.0
 30
0.0
  0
VERTEX
  8
PINS
 62
     7
  5
2A8
 10
4.4
 20
5.1
 30
0.0
  0
VERTEX
  8
PINS
 62
     7
  5
2A9
 10
4.5
 20
5.2
 30
0.0
  0
VERTEX
  8
PINS
 62
     7
  5
2AA
 10
5.8
 20
5.2
 30
0.0
  0
VERTEX
  8
PINS
 62
     7
  5
2AB
 10
5.8
 20
5.0
 30
0.0
  0
VERTEX
  8
PINS
 62
     7
  5
2AC
 10
4.5
 20
5.0
 30
0.0
  0
VERTEX
  8
PINS
 62
     7
  5
2AD
 10
4.5
 20
5.0
 30
0.0
  0
SEQEND
  8
0
  5
2AE
  0
POLYLINE
  8
PINS
 62
     7
  5
2AF
 66
     1
 10
0.0
 20
0.0
 30
0.0
 70
     1
  0
VERTEX
  8
PINS
 62
     7
  5
2B0
 10
4.5
 20
5.2
 30
0.0
  0
VERTEX
  8
PINS
 62
     7
  5
2B1
 10
4.4
 20
5.3
 30
0.0
  0
VERTEX
  8
PINS
 62
     7
  5
2B2
 10
4.5
 20
5.4
 30
0.0
  0
VERTEX
  8
PINS
 62
     7
  5
2B3
 10
5.8
 20
5.4
 30
0.0
  0
VERTEX
  8
PINS
 62
     7
  5
2B4
 10
5.8
 20
5.2
 30
0.0
  0
VERTEX
  8
PINS
 62
     7
  5
2B5
 10
4.5
 20
5.2
 30
0.0
  0
VERTEX
  8
PINS
 62
     7
  5
2B6
 10
4.5
 20
5.2
 30
0.0
  0
SEQEND
  8
0
  5
2B7
  0
TEXT
  8
PINS
 62
     7
  5
2B8
 10
4.7425
 20
5.05
 30
0.0
 40
0.1
  1
pin-11-in-not
  7
STYLE1
 72
     1
 11
5.1
 21
5.1
 31
0.0
 73
     2
  0
TEXT
  8
PINS
 62
     7
  5
2B9
 10
4.8525
 20
5.25
 30
0.0
 40
0.1
  1
pin-11-in
  7
STYLE1
 72
     1
 11
5.1
 21
5.3
 31
0.0
 73
     2
  0
CIRCLE
  8
INTERNALS
 62
     7
  5
2BA
 10
6.125
 20
5.1
 30
0.0
 40
0.025
  0
POLYLINE
  8
INTERNALS
 62
     7
  5
2BB
 66
     1
 10
0.0
 20
0.0
 30
0.0
 70
     1
  0
VERTEX
  8
INTERNALS
 62
     7
  5
2BC
 10
6.15
 20
5.1
 30
0.0
  0
VERTEX
  8
INTERNALS
 62
     7
  5
2BD
 10
6.4
 20
5.25
 30
0.0
  0
VERTEX
  8
INTERNALS
 62
     7
  5
2BE
 10
6.4
 20
4.95
 30
0.0
  0
VERTEX
  8
INTERNALS
 62
     7
  5
2BF
 10
6.15
 20
5.1
 30
0.0
  0
VERTEX
  8
INTERNALS
 62
     7
  5
2C0
 10
6.15
 20
5.1
 30
0.0
  0
SEQEND
  8
0
  5
2C1
  0
LINE
  8
INTERNALS
 62
     7
  5
2C2
 10
5.8
 20
5.3
 30
0.0
 11
6.6
 21
5.3
 31
0.0
  0
LINE
  8
INTERNALS
 62
     7
  5
2C3
 10
6.6
 20
5.3
 30
0.0
 11
6.6
 21
5.1
 31
0.0
  0
LINE
  8
INTERNALS
 62
     7
  5
2C4
 10
6.6
 20
5.1
 30
0.0
 11
6.4
 21
5.1
 31
0.0
  0
LINE
  8
INTERNALS
 62
     7
  5
2C5
 10
6.1
 20
5.1
 30
0.0
 11
5.8
 21
5.1
 31
0.0
  0
POLYLINE
  8
INTERNALS
 62
     7
  5
2C6
 66
     1
 10
0.0
 20
0.0
 30
0.0
 70
     1
  0
VERTEX
  8
INTERNALS
 62
     7
  5
2C7
 10
6.8
 20
5.2
 30
0.0
  0
VERTEX
  8
INTERNALS
 62
     7
  5
2C8
 10
7.1
 20
5.35
 30
0.0
  0
VERTEX
  8
INTERNALS
 62
     7
  5
2C9
 10
7.1
 20
5.05
 30
0.0
  0
VERTEX
  8
INTERNALS
 62
     7
  5
2CA
 10
6.8
 20
5.2
 30
0.0
  0
VERTEX
  8
INTERNALS
 62
     7
  5
2CB
 10
6.8
 20
5.2
 30
0.0
  0
SEQEND
  8
0
  5
2CC
  0
LINE
  8
INTERNALS
 62
     7
  5
2CD
 10
6.8
 20
5.2
 30
0.0
 11
6.6
 21
5.2
 31
0.0
  0
CIRCLE
  8
INTERNALS
 62
     7
  5
2CE
 10
6.6
 20
5.2
 30
0.0
 40
0.02
  0
POLYLINE
  8
PINS
 62
     7
  5
2CF
 66
     1
 10
0.0
 20
0.0
 30
0.0
 70
     1
  0
VERTEX
  8
PINS
 62
     7
  5
2D0
 10
4.5
 20
5.5
 30
0.0
  0
VERTEX
  8
PINS
 62
     7
  5
2D1
 10
4.4
 20
5.6
 30
0.0
  0
VERTEX
  8
PINS
 62
     7
  5
2D2
 10
4.5
 20
5.7
 30
0.0
  0
VERTEX
  8
PINS
 62
     7
  5
2D3
 10
5.8
 20
5.7
 30
0.0
  0
VERTEX
  8
PINS
 62
     7
  5
2D4
 10
5.8
 20
5.5
 30
0.0
  0
VERTEX
  8
PINS
 62
     7
  5
2D5
 10
4.5
 20
5.5
 30
0.0
  0
VERTEX
  8
PINS
 62
     7
  5
2D6
 10
4.5
 20
5.5
 30
0.0
  0
SEQEND
  8
0
  5
2D7
  0
POLYLINE
  8
PINS
 62
     7
  5
2D8
 66
     1
 10
0.0
 20
0.0
 30
0.0
 70
     1
  0
VERTEX
  8
PINS
 62
     7
  5
2D9
 10
4.5
 20
5.7
 30
0.0
  0
VERTEX
  8
PINS
 62
     7
  5
2DA
 10
4.4
 20
5.8
 30
0.0
  0
VERTEX
  8
PINS
 62
     7
  5
2DB
 10
4.5
 20
5.9
 30
0.0
  0
VERTEX
  8
PINS
 62
     7
  5
2DC
 10
5.8
 20
5.9
 30
0.0
  0
VERTEX
  8
PINS
 62
     7
  5
2DD
 10
5.8
 20
5.7
 30
0.0
  0
VERTEX
  8
PINS
 62
     7
  5
2DE
 10
4.5
 20
5.7
 30
0.0
  0
VERTEX
  8
PINS
 62
     7
  5
2DF
 10
4.5
 20
5.7
 30
0.0
  0
SEQEND
  8
0
  5
2E0
  0
TEXT
  8
PINS
 62
     7
  5
2E1
 10
4.7425
 20
5.55
 30
0.0
 40
0.1
  1
pin-12-in-not
  7
STYLE1
 72
     1
 11
5.1
 21
5.6
 31
0.0
 73
     2
  0
TEXT
  8
PINS
 62
     7
  5
2E2
 10
4.8525
 20
5.75
 30
0.0
 40
0.1
  1
pin-12-in
  7
STYLE1
 72
     1
 11
5.1
 21
5.8
 31
0.0
 73
     2
  0
CIRCLE
  8
INTERNALS
 62
     7
  5
2E3
 10
6.125
 20
5.6
 30
0.0
 40
0.025
  0
POLYLINE
  8
INTERNALS
 62
     7
  5
2E4
 66
     1
 10
0.0
 20
0.0
 30
0.0
 70
     1
  0
VERTEX
  8
INTERNALS
 62
     7
  5
2E5
 10
6.15
 20
5.6
 30
0.0
  0
VERTEX
  8
INTERNALS
 62
     7
  5
2E6
 10
6.4
 20
5.75
 30
0.0
  0
VERTEX
  8
INTERNALS
 62
     7
  5
2E7
 10
6.4
 20
5.45
 30
0.0
  0
VERTEX
  8
INTERNALS
 62
     7
  5
2E8
 10
6.15
 20
5.6
 30
0.0
  0
VERTEX
  8
INTERNALS
 62
     7
  5
2E9
 10
6.15
 20
5.6
 30
0.0
  0
SEQEND
  8
0
  5
2EA
  0
LINE
  8
INTERNALS
 62
     7
  5
2EB
 10
5.8
 20
5.8
 30
0.0
 11
6.6
 21
5.8
 31
0.0
  0
LINE
  8
INTERNALS
 62
     7
  5
2EC
 10
6.6
 20
5.8
 30
0.0
 11
6.6
 21
5.6
 31
0.0
  0
LINE
  8
INTERNALS
 62
     7
  5
2ED
 10
6.6
 20
5.6
 30
0.0
 11
6.4
 21
5.6
 31
0.0
  0
LINE
  8
INTERNALS
 62
     7
  5
2EE
 10
6.1
 20
5.6
 30
0.0
 11
5.8
 21
5.6
 31
0.0
  0
POLYLINE
  8
INTERNALS
 62
     7
  5
2EF
 66
     1
 10
0.0
 20
0.0
 30
0.0
 70
     1
  0
VERTEX
  8
INTERNALS
 62
     7
  5
2F0
 10
6.8
 20
5.7
 30
0.0
  0
VERTEX
  8
INTERNALS
 62
     7
  5
2F1
 10
7.1
 20
5.85
 30
0.0
  0
VERTEX
  8
INTERNALS
 62
     7
  5
2F2
 10
7.1
 20
5.55
 30
0.0
  0
VERTEX
  8
INTERNALS
 62
     7
  5
2F3
 10
6.8
 20
5.7
 30
0.0
  0
VERTEX
  8
INTERNALS
 62
     7
  5
2F4
 10
6.8
 20
5.7
 30
0.0
  0
SEQEND
  8
0
  5
2F5
  0
LINE
  8
INTERNALS
 62
     7
  5
2F6
 10
6.8
 20
5.7
 30
0.0
 11
6.6
 21
5.7
 31
0.0
  0
CIRCLE
  8
INTERNALS
 62
     7
  5
2F7
 10
6.6
 20
5.7
 30
0.0
 40
0.02
  0
POLYLINE
  8
PINS
 62
     7
  5
2F8
 66
     1
 10
0.0
 20
0.0
 30
0.0
 70
     1
  0
VERTEX
  8
PINS
 62
     7
  5
2F9
 10
4.5
 20
6.0
 30
0.0
  0
VERTEX
  8
PINS
 62
     7
  5
2FA
 10
4.4
 20
6.1
 30
0.0
  0
VERTEX
  8
PINS
 62
     7
  5
2FB
 10
4.5
 20
6.2
 30
0.0
  0
VERTEX
  8
PINS
 62
     7
  5
2FC
 10
5.8
 20
6.2
 30
0.0
  0
VERTEX
  8
PINS
 62
     7
  5
2FD
 10
5.8
 20
6.0
 30
0.0
  0
VERTEX
  8
PINS
 62
     7
  5
2FE
 10
4.5
 20
6.0
 30
0.0
  0
VERTEX
  8
PINS
 62
     7
  5
2FF
 10
4.5
 20
6.0
 30
0.0
  0
SEQEND
  8
0
  5
300
  0
POLYLINE
  8
PINS
 62
     7
  5
301
 66
     1
 10
0.0
 20
0.0
 30
0.0
 70
     1
  0
VERTEX
  8
PINS
 62
     7
  5
302
 10
4.5
 20
6.2
 30
0.0
  0
VERTEX
  8
PINS
 62
     7
  5
303
 10
4.4
 20
6.3
 30
0.0
  0
VERTEX
  8
PINS
 62
     7
  5
304
 10
4.5
 20
6.4
 30
0.0
  0
VERTEX
  8
PINS
 62
     7
  5
305
 10
5.8
 20
6.4
 30
0.0
  0
VERTEX
  8
PINS
 62
     7
  5
306
 10
5.8
 20
6.2
 30
0.0
  0
VERTEX
  8
PINS
 62
     7
  5
307
 10
4.5
 20
6.2
 30
0.0
  0
VERTEX
  8
PINS
 62
     7
  5
308
 10
4.5
 20
6.2
 30
0.0
  0
SEQEND
  8
0
  5
309
  0
TEXT
  8
PINS
 62
     7
  5
30A
 10
4.7425
 20
6.05
 30
0.0
 40
0.1
  1
pin-13-in-not
  7
STYLE1
 72
     1
 11
5.1
 21
6.1
 31
0.0
 73
     2
  0
TEXT
  8
PINS
 62
     7
  5
30B
 10
4.8525
 20
6.25
 30
0.0
 40
0.1
  1
pin-13-in
  7
STYLE1
 72
     1
 11
5.1
 21
6.3
 31
0.0
 73
     2
  0
CIRCLE
  8
INTERNALS
 62
     7
  5
30C
 10
6.125
 20
6.1
 30
0.0
 40
0.025
  0
POLYLINE
  8
INTERNALS
 62
     7
  5
30D
 66
     1
 10
0.0
 20
0.0
 30
0.0
 70
     1
  0
VERTEX
  8
INTERNALS
 62
     7
  5
30E
 10
6.15
 20
6.1
 30
0.0
  0
VERTEX
  8
INTERNALS
 62
     7
  5
30F
 10
6.4
 20
6.25
 30
0.0
  0
VERTEX
  8
INTERNALS
 62
     7
  5
310
 10
6.4
 20
5.95
 30
0.0
  0
VERTEX
  8
INTERNALS
 62
     7
  5
311
 10
6.15
 20
6.1
 30
0.0
  0
VERTEX
  8
INTERNALS
 62
     7
  5
312
 10
6.15
 20
6.1
 30
0.0
  0
SEQEND
  8
0
  5
313
  0
LINE
  8
INTERNALS
 62
     7
  5
314
 10
5.8
 20
6.3
 30
0.0
 11
6.6
 21
6.3
 31
0.0
  0
LINE
  8
INTERNALS
 62
     7
  5
315
 10
6.6
 20
6.3
 30
0.0
 11
6.6
 21
6.1
 31
0.0
  0
LINE
  8
INTERNALS
 62
     7
  5
316
 10
6.6
 20
6.1
 30
0.0
 11
6.4
 21
6.1
 31
0.0
  0
LINE
  8
INTERNALS
 62
     7
  5
317
 10
6.1
 20
6.1
 30
0.0
 11
5.8
 21
6.1
 31
0.0
  0
POLYLINE
  8
INTERNALS
 62
     7
  5
318
 66
     1
 10
0.0
 20
0.0
 30
0.0
 70
     1
  0
VERTEX
  8
INTERNALS
 62
     7
  5
319
 10
6.8
 20
6.2
 30
0.0
  0
VERTEX
  8
INTERNALS
 62
     7
  5
31A
 10
7.1
 20
6.35
 30
0.0
  0
VERTEX
  8
INTERNALS
 62
     7
  5
31B
 10
7.1
 20
6.05
 30
0.0
  0
VERTEX
  8
INTERNALS
 62
     7
  5
31C
 10
6.8
 20
6.2
 30
0.0
  0
VERTEX
  8
INTERNALS
 62
     7
  5
31D
 10
6.8
 20
6.2
 30
0.0
  0
SEQEND
  8
0
  5
31E
  0
LINE
  8
INTERNALS
 62
     7
  5
31F
 10
6.8
 20
6.2
 30
0.0
 11
6.6
 21
6.2
 31
0.0
  0
CIRCLE
  8
INTERNALS
 62
     7
  5
320
 10
6.6
 20
6.2
 30
0.0
 40
0.02
  0
POLYLINE
  8
PINS
 62
     7
  5
321
 66
     1
 10
0.0
 20
0.0
 30
0.0
 70
     1
  0
VERTEX
  8
PINS
 62
     7
  5
322
 10
4.5
 20
6.5
 30
0.0
  0
VERTEX
  8
PINS
 62
     7
  5
323
 10
4.4
 20
6.6
 30
0.0
  0
VERTEX
  8
PINS
 62
     7
  5
324
 10
4.5
 20
6.7
 30
0.0
  0
VERTEX
  8
PINS
 62
     7
  5
325
 10
5.8
 20
6.7
 30
0.0
  0
VERTEX
  8
PINS
 62
     7
  5
326
 10
5.8
 20
6.5
 30
0.0
  0
VERTEX
  8
PINS
 62
     7
  5
327
 10
4.5
 20
6.5
 30
0.0
  0
VERTEX
  8
PINS
 62
     7
  5
328
 10
4.5
 20
6.5
 30
0.0
  0
SEQEND
  8
0
  5
329
  0
POLYLINE
  8
PINS
 62
     7
  5
32A
 66
     1
 10
0.0
 20
0.0
 30
0.0
 70
     1
  0
VERTEX
  8
PINS
 62
     7
  5
32B
 10
4.5
 20
6.7
 30
0.0
  0
VERTEX
  8
PINS
 62
     7
  5
32C
 10
4.4
 20
6.8
 30
0.0
  0
VERTEX
  8
PINS
 62
     7
  5
32D
 10
4.5
 20
6.9
 30
0.0
  0
VERTEX
  8
PINS
 62
     7
  5
32E
 10
5.8
 20
6.9
 30
0.0
  0
VERTEX
  8
PINS
 62
     7
  5
32F
 10
5.8
 20
6.7
 30
0.0
  0
VERTEX
  8
PINS
 62
     7
  5
330
 10
4.5
 20
6.7
 30
0.0
  0
VERTEX
  8
PINS
 62
     7
  5
331
 10
4.5
 20
6.7
 30
0.0
  0
SEQEND
  8
0
  5
332
  0
TEXT
  8
PINS
 62
     7
  5
333
 10
4.7425
 20
6.55
 30
0.0
 40
0.1
  1
pin-15-in-not
  7
STYLE1
 72
     1
 11
5.1
 21
6.6
 31
0.0
 73
     2
  0
TEXT
  8
PINS
 62
     7
  5
334
 10
4.8525
 20
6.75
 30
0.0
 40
0.1
  1
pin-15-in
  7
STYLE1
 72
     1
 11
5.1
 21
6.8
 31
0.0
 73
     2
  0
CIRCLE
  8
INTERNALS
 62
     7
  5
335
 10
6.125
 20
6.6
 30
0.0
 40
0.025
  0
POLYLINE
  8
INTERNALS
 62
     7
  5
336
 66
     1
 10
0.0
 20
0.0
 30
0.0
 70
     1
  0
VERTEX
  8
INTERNALS
 62
     7
  5
337
 10
6.15
 20
6.6
 30
0.0
  0
VERTEX
  8
INTERNALS
 62
     7
  5
338
 10
6.4
 20
6.75
 30
0.0
  0
VERTEX
  8
INTERNALS
 62
     7
  5
339
 10
6.4
 20
6.45
 30
0.0
  0
VERTEX
  8
INTERNALS
 62
     7
  5
33A
 10
6.15
 20
6.6
 30
0.0
  0
VERTEX
  8
INTERNALS
 62
     7
  5
33B
 10
6.15
 20
6.6
 30
0.0
  0
SEQEND
  8
0
  5
33C
  0
LINE
  8
INTERNALS
 62
     7
  5
33D
 10
5.8
 20
6.8
 30
0.0
 11
6.6
 21
6.8
 31
0.0
  0
LINE
  8
INTERNALS
 62
     7
  5
33E
 10
6.6
 20
6.8
 30
0.0
 11
6.6
 21
6.6
 31
0.0
  0
LINE
  8
INTERNALS
 62
     7
  5
33F
 10
6.6
 20
6.6
 30
0.0
 11
6.4
 21
6.6
 31
0.0
  0
LINE
  8
INTERNALS
 62
     7
  5
340
 10
6.1
 20
6.6
 30
0.0
 11
5.8
 21
6.6
 31
0.0
  0
POLYLINE
  8
INTERNALS
 62
     7
  5
341
 66
     1
 10
0.0
 20
0.0
 30
0.0
 70
     1
  0
VERTEX
  8
INTERNALS
 62
     7
  5
342
 10
6.8
 20
6.7
 30
0.0
  0
VERTEX
  8
INTERNALS
 62
     7
  5
343
 10
7.1
 20
6.85
 30
0.0
  0
VERTEX
  8
INTERNALS
 62
     7
  5
344
 10
7.1
 20
6.55
 30
0.0
  0
VERTEX
  8
INTERNALS
 62
     7
  5
345
 10
6.8
 20
6.7
 30
0.0
  0
VERTEX
  8
INTERNALS
 62
     7
  5
346
 10
6.8
 20
6.7
 30
0.0
  0
SEQEND
  8
0
  5
347
  0
LINE
  8
INTERNALS
 62
     7
  5
348
 10
6.8
 20
6.7
 30
0.0
 11
6.6
 21
6.7
 31
0.0
  0
CIRCLE
  8
INTERNALS
 62
     7
  5
349
 10
6.6
 20
6.7
 30
0.0
 40
0.02
  0
LINE
  8
PARAMS
 62
     7
  5
34A
 10
5.9
 20
3.6
 30
0.0
 11
5.9
 21
3.6
 31
0.0
  0
LINE
  8
PINS
 62
     7
  5
34B
 10
4.4
 20
3.4
 30
0.0
 11
4.4
 21
3.6
 31
0.0
  0
LINE
  8
PINS
 62
     7
  5
34C
 10
4.4
 20
3.6
 30
0.0
 11
5.7
 21
3.6
 31
0.0
  0
LINE
  8
PINS
 62
     7
  5
34D
 10
5.7
 20
3.6
 30
0.0
 11
5.8
 21
3.5
 31
0.0
  0
LINE
  8
PINS
 62
     7
  5
34E
 10
5.8
 20
3.5
 30
0.0
 11
5.7
 21
3.4
 31
0.0
  0
LINE
  8
PINS
 62
     7
  5
34F
 10
5.7
 20
3.4
 30
0.0
 11
4.4
 21
3.4
 31
0.0
  0
LINE
  8
PINS
 62
     7
  5
350
 10
4.4
 20
3.4
 30
0.0
 11
4.4
 21
3.4
 31
0.0
  0
TEXT
  8
PARAMS
 62
     7
  5
351
 10
6.06
 20
3.65
 30
0.0
 40
0.1
  1
pin-8-out-invert
  7
STYLE1
 72
     1
 11
6.5
 21
3.7
 31
0.0
 73
     2
  0
TEXT
  8
PINS
 62
     7
  5
352
 10
4.7525
 20
3.45
 30
0.0
 40
0.1
  1
pin-8-out
  7
STYLE1
 72
     1
 11
5.0
 21
3.5
 31
0.0
 73
     2
  0
ARC
  8
INTERNALS
 62
     7
  5
353
 10
7.170871
 20
3.6
 30
0.0
 40
0.25
 50
323.130102
 51
396.869898
  0
ARC
  8
INTERNALS
 62
     7
  5
354
 10
7.25
 20
3.6
 30
0.0
 40
0.25
 50
323.130102
 51
396.869898
  0
ARC
  8
INTERNALS
 62
     7
  5
355
 10
7.482139
 20
3.858342
 30
0.0
 40
0.409605
 50
265.499752
 51
320.897429
  0
ARC
  8
INTERNALS
 62
     7
  5
356
 10
7.482139
 20
3.341658
 30
0.0
 40
0.409605
 50
39.102571
 51
94.500248
  0
LINE
  8
INTERNALS
 62
     7
  5
357
 10
7.4
 20
3.5
 30
0.0
 11
5.8
 21
3.5
 31
0.0
  0
LINE
  8
INTERNALS
 62
     7
  5
358
 10
7.1
 20
3.7
 30
0.0
 11
7.4
 21
3.7
 31
0.0
  0
LINE
  8
PARAMS
 62
     7
  5
359
 10
5.9
 20
3.6
 30
0.0
 11
5.9
 21
3.8
 31
0.0
  0
LINE
  8
PARAMS
 62
     7
  5
35A
 10
5.9
 20
3.8
 30
0.0
 11
7.1
 21
3.8
 31
0.0
  0
LINE
  8
PARAMS
 62
     7
  5
35B
 10
7.1
 20
3.8
 30
0.0
 11
7.1
 21
3.6
 31
0.0
  0
LINE
  8
PARAMS
 62
     7
  5
35C
 10
7.1
 20
3.6
 30
0.0
 11
5.9
 21
3.6
 31
0.0
  0
LINE
  8
PARAMS
 62
     7
  5
35D
 10
5.9
 20
3.1
 30
0.0
 11
5.9
 21
3.1
 31
0.0
  0
LINE
  8
PINS
 62
     7
  5
35E
 10
4.4
 20
2.9
 30
0.0
 11
4.4
 21
3.1
 31
0.0
  0
LINE
  8
PINS
 62
     7
  5
35F
 10
4.4
 20
3.1
 30
0.0
 11
5.7
 21
3.1
 31
0.0
  0
LINE
  8
PINS
 62
     7
  5
360
 10
5.7
 20
3.1
 30
0.0
 11
5.8
 21
3.0
 31
0.0
  0
LINE
  8
PINS
 62
     7
  5
361
 10
5.8
 20
3.0
 30
0.0
 11
5.7
 21
2.9
 31
0.0
  0
LINE
  8
PINS
 62
     7
  5
362
 10
5.7
 20
2.9
 30
0.0
 11
4.4
 21
2.9
 31
0.0
  0
LINE
  8
PINS
 62
     7
  5
363
 10
4.4
 20
2.9
 30
0.0
 11
4.4
 21
2.9
 31
0.0
  0
TEXT
  8
PARAMS
 62
     7
  5
364
 10
6.06
 20
3.15
 30
0.0
 40
0.1
  1
pin-7-out-invert
  7
STYLE1
 72
     1
 11
6.5
 21
3.2
 31
0.0
 73
     2
  0
TEXT
  8
PINS
 62
     7
  5
365
 10
4.7525
 20
2.95
 30
0.0
 40
0.1
  1
pin-7-out
  7
STYLE1
 72
     1
 11
5.0
 21
3.0
 31
0.0
 73
     2
  0
ARC
  8
INTERNALS
 62
     7
  5
366
 10
7.170871
 20
3.1
 30
0.0
 40
0.25
 50
323.130102
 51
396.869898
  0
ARC
  8
INTERNALS
 62
     7
  5
367
 10
7.25
 20
3.1
 30
0.0
 40
0.25
 50
323.130102
 51
396.869898
  0
ARC
  8
INTERNALS
 62
     7
  5
368
 10
7.482139
 20
3.358342
 30
0.0
 40
0.409605
 50
265.499752
 51
320.897429
  0
ARC
  8
INTERNALS
 62
     7
  5
369
 10
7.482139
 20
2.841658
 30
0.0
 40
0.409605
 50
39.102571
 51
94.500248
  0
LINE
  8
INTERNALS
 62
     7
  5
36A
 10
7.4
 20
3.0
 30
0.0
 11
5.8
 21
3.0
 31
0.0
  0
LINE
  8
INTERNALS
 62
     7
  5
36B
 10
7.1
 20
3.2
 30
0.0
 11
7.4
 21
3.2
 31
0.0
  0
LINE
  8
PARAMS
 62
     7
  5
36C
 10
5.9
 20
3.1
 30
0.0
 11
5.9
 21
3.3
 31
0.0
  0
LINE
  8
PARAMS
 62
     7
  5
36D
 10
5.9
 20
3.3
 30
0.0
 11
7.1
 21
3.3
 31
0.0
  0
LINE
  8
PARAMS
 62
     7
  5
36E
 10
7.1
 20
3.3
 30
0.0
 11
7.1
 21
3.1
 31
0.0
  0
LINE
  8
PARAMS
 62
     7
  5
36F
 10
7.1
 20
3.1
 30
0.0
 11
5.9
 21
3.1
 31
0.0
  0
LINE
  8
PARAMS
 62
     7
  5
370
 10
5.9
 20
2.6
 30
0.0
 11
5.9
 21
2.6
 31
0.0
  0
LINE
  8
PINS
 62
     7
  5
371
 10
4.4
 20
2.4
 30
0.0
 11
4.4
 21
2.6
 31
0.0
  0
LINE
  8
PINS
 62
     7
  5
372
 10
4.4
 20
2.6
 30
0.0
 11
5.7
 21
2.6
 31
0.0
  0
LINE
  8
PINS
 62
     7
  5
373
 10
5.7
 20
2.6
 30
0.0
 11
5.8
 21
2.5
 31
0.0
  0
LINE
  8
PINS
 62
     7
  5
374
 10
5.8
 20
2.5
 30
0.0
 11
5.7
 21
2.4
 31
0.0
  0
LINE
  8
PINS
 62
     7
  5
375
 10
5.7
 20
2.4
 30
0.0
 11
4.4
 21
2.4
 31
0.0
  0
LINE
  8
PINS
 62
     7
  5
376
 10
4.4
 20
2.4
 30
0.0
 11
4.4
 21
2.4
 31
0.0
  0
TEXT
  8
PARAMS
 62
     7
  5
377
 10
6.06
 20
2.65
 30
0.0
 40
0.1
  1
pin-6-out-invert
  7
STYLE1
 72
     1
 11
6.5
 21
2.7
 31
0.0
 73
     2
  0
TEXT
  8
PINS
 62
     7
  5
378
 10
4.7525
 20
2.45
 30
0.0
 40
0.1
  1
pin-6-out
  7
STYLE1
 72
     1
 11
5.0
 21
2.5
 31
0.0
 73
     2
  0
ARC
  8
INTERNALS
 62
     7
  5
379
 10
7.170871
 20
2.6
 30
0.0
 40
0.25
 50
323.130102
 51
396.869898
  0
ARC
  8
INTERNALS
 62
     7
  5
37A
 10
7.25
 20
2.6
 30
0.0
 40
0.25
 50
323.130102
 51
396.869898
  0
ARC
  8
INTERNALS
 62
     7
  5
37B
 10
7.482139
 20
2.858342
 30
0.0
 40
0.409605
 50
265.499752
 51
320.897429
  0
ARC
  8
INTERNALS
 62
     7
  5
37C
 10
7.482139
 20
2.341658
 30
0.0
 40
0.409605
 50
39.102571
 51
94.500248
  0
LINE
  8
INTERNALS
 62
     7
  5
37D
 10
7.4
 20
2.5
 30
0.0
 11
5.8
 21
2.5
 31
0.0
  0
LINE
  8
INTERNALS
 62
     7
  5
37E
 10
7.1
 20
2.7
 30
0.0
 11
7.4
 21
2.7
 31
0.0
  0
LINE
  8
PARAMS
 62
     7
  5
37F
 10
5.9
 20
2.6
 30
0.0
 11
5.9
 21
2.8
 31
0.0
  0
LINE
  8
PARAMS
 62
     7
  5
380
 10
5.9
 20
2.8
 30
0.0
 11
7.1
 21
2.8
 31
0.0
  0
LINE
  8
PARAMS
 62
     7
  5
381
 10
7.1
 20
2.8
 30
0.0
 11
7.1
 21
2.6
 31
0.0
  0
LINE
  8
PARAMS
 62
     7
  5
382
 10
7.1
 20
2.6
 30
0.0
 11
5.9
 21
2.6
 31
0.0
  0
LINE
  8
PARAMS
 62
     7
  5
383
 10
5.9
 20
2.1
 30
0.0
 11
5.9
 21
2.1
 31
0.0
  0
LINE
  8
PINS
 62
     7
  5
384
 10
4.4
 20
1.9
 30
0.0
 11
4.4
 21
2.1
 31
0.0
  0
LINE
  8
PINS
 62
     7
  5
385
 10
4.4
 20
2.1
 30
0.0
 11
5.7
 21
2.1
 31
0.0
  0
LINE
  8
PINS
 62
     7
  5
386
 10
5.7
 20
2.1
 30
0.0
 11
5.8
 21
2.0
 31
0.0
  0
LINE
  8
PINS
 62
     7
  5
387
 10
5.8
 20
2.0
 30
0.0
 11
5.7
 21
1.9
 31
0.0
  0
LINE
  8
PINS
 62
     7
  5
388
 10
5.7
 20
1.9
 30
0.0
 11
4.4
 21
1.9
 31
0.0
  0
LINE
  8
PINS
 62
     7
  5
389
 10
4.4
 20
1.9
 30
0.0
 11
4.4
 21
1.9
 31
0.0
  0
TEXT
  8
PARAMS
 62
     7
  5
38A
 10
6.06
 20
2.15
 30
0.0
 40
0.1
  1
pin-5-out-invert
  7
STYLE1
 72
     1
 11
6.5
 21
2.2
 31
0.0
 73
     2
  0
TEXT
  8
PINS
 62
     7
  5
38B
 10
4.7525
 20
1.95
 30
0.0
 40
0.1
  1
pin-5-out
  7
STYLE1
 72
     1
 11
5.0
 21
2.0
 31
0.0
 73
     2
  0
ARC
  8
INTERNALS
 62
     7
  5
38C
 10
7.170871
 20
2.1
 30
0.0
 40
0.25
 50
323.130102
 51
396.869898
  0
ARC
  8
INTERNALS
 62
     7
  5
38D
 10
7.25
 20
2.1
 30
0.0
 40
0.25
 50
323.130102
 51
396.869898
  0
ARC
  8
INTERNALS
 62
     7
  5
38E
 10
7.482139
 20
2.358342
 30
0.0
 40
0.409605
 50
265.499752
 51
320.897429
  0
ARC
  8
INTERNALS
 62
     7
  5
38F
 10
7.482139
 20
1.841658
 30
0.0
 40
0.409605
 50
39.102571
 51
94.500248
  0
LINE
  8
INTERNALS
 62
     7
  5
390
 10
7.4
 20
2.0
 30
0.0
 11
5.8
 21
2.0
 31
0.0
  0
LINE
  8
INTERNALS
 62
     7
  5
391
 10
7.1
 20
2.2
 30
0.0
 11
7.4
 21
2.2
 31
0.0
  0
LINE
  8
PARAMS
 62
     7
  5
392
 10
5.9
 20
2.1
 30
0.0
 11
5.9
 21
2.3
 31
0.0
  0
LINE
  8
PARAMS
 62
     7
  5
393
 10
5.9
 20
2.3
 30
0.0
 11
7.1
 21
2.3
 31
0.0
  0
LINE
  8
PARAMS
 62
     7
  5
394
 10
7.1
 20
2.3
 30
0.0
 11
7.1
 21
2.1
 31
0.0
  0
LINE
  8
PARAMS
 62
     7
  5
395
 10
7.1
 20
2.1
 30
0.0
 11
5.9
 21
2.1
 31
0.0
  0
LINE
  8
PARAMS
 62
     7
  5
396
 10
5.9
 20
1.6
 30
0.0
 11
5.9
 21
1.6
 31
0.0
  0
LINE
  8
PINS
 62
     7
  5
397
 10
4.4
 20
1.4
 30
0.0
 11
4.4
 21
1.6
 31
0.0
  0
LINE
  8
PINS
 62
     7
  5
398
 10
4.4
 20
1.6
 30
0.0
 11
5.7
 21
1.6
 31
0.0
  0
LINE
  8
PINS
 62
     7
  5
399
 10
5.7
 20
1.6
 30
0.0
 11
5.8
 21
1.5
 31
0.0
  0
LINE
  8
PINS
 62
     7
  5
39A
 10
5.8
 20
1.5
 30
0.0
 11
5.7
 21
1.4
 31
0.0
  0
LINE
  8
PINS
 62
     7
  5
39B
 10
5.7
 20
1.4
 30
0.0
 11
4.4
 21
1.4
 31
0.0
  0
LINE
  8
PINS
 62
     7
  5
39C
 10
4.4
 20
1.4
 30
0.0
 11
4.4
 21
1.4
 31
0.0
  0
TEXT
  8
PARAMS
 62
     7
  5
39D
 10
6.06
 20
1.65
 30
0.0
 40
0.1
  1
pin-4-out-invert
  7
STYLE1
 72
     1
 11
6.5
 21
1.7
 31
0.0
 73
     2
  0
TEXT
  8
PINS
 62
     7
  5
39E
 10
4.7525
 20
1.45
 30
0.0
 40
0.1
  1
pin-4-out
  7
STYLE1
 72
     1
 11
5.0
 21
1.5
 31
0.0
 73
     2
  0
ARC
  8
INTERNALS
 62
     7
  5
39F
 10
7.170871
 20
1.6
 30
0.0
 40
0.25
 50
323.130102
 51
396.869898
  0
ARC
  8
INTERNALS
 62
     7
  5
3A0
 10
7.25
 20
1.6
 30
0.0
 40
0.25
 50
323.130102
 51
396.869898
  0
ARC
  8
INTERNALS
 62
     7
  5
3A1
 10
7.482139
 20
1.858342
 30
0.0
 40
0.409605
 50
265.499752
 51
320.897429
  0
ARC
  8
INTERNALS
 62
     7
  5
3A2
 10
7.482139
 20
1.341658
 30
0.0
 40
0.409605
 50
39.102571
 51
94.500248
  0
LINE
  8
INTERNALS
 62
     7
  5
3A3
 10
7.4
 20
1.5
 30
0.0
 11
5.8
 21
1.5
 31
0.0
  0
LINE
  8
INTERNALS
 62
     7
  5
3A4
 10
7.1
 20
1.7
 30
0.0
 11
7.4
 21
1.7
 31
0.0
  0
LINE
  8
PARAMS
 62
     7
  5
3A5
 10
5.9
 20
1.6
 30
0.0
 11
5.9
 21
1.8
 31
0.0
  0
LINE
  8
PARAMS
 62
     7
  5
3A6
 10
5.9
 20
1.8
 30
0.0
 11
7.1
 21
1.8
 31
0.0
  0
LINE
  8
PARAMS
 62
     7
  5
3A7
 10
7.1
 20
1.8
 30
0.0
 11
7.1
 21
1.6
 31
0.0
  0
LINE
  8
PARAMS
 62
     7
  5
3A8
 10
7.1
 20
1.6
 30
0.0
 11
5.9
 21
1.6
 31
0.0
  0
LINE
  8
PARAMS
 62
     7
  5
3A9
 10
5.9
 20
1.1
 30
0.0
 11
5.9
 21
1.1
 31
0.0
  0
LINE
  8
PINS
 62
     7
  5
3AA
 10
4.4
 20
0.9
 30
0.0
 11
4.4
 21
1.1
 31
0.0
  0
LINE
  8
PINS
 62
     7
  5
3AB
 10
4.4
 20
1.1
 30
0.0
 11
5.7
 21
1.1
 31
0.0
  0
LINE
  8
PINS
 62
     7
  5
3AC
 10
5.7
 20
1.1
 30
0.0
 11
5.8
 21
1.0
 31
0.0
  0
LINE
  8
PINS
 62
     7
  5
3AD
 10
5.8
 20
1.0
 30
0.0
 11
5.7
 21
0.9
 31
0.0
  0
LINE
  8
PINS
 62
     7
  5
3AE
 10
5.7
 20
0.9
 30
0.0
 11
4.4
 21
0.9
 31
0.0
  0
LINE
  8
PINS
 62
     7
  5
3AF
 10
4.4
 20
0.9
 30
0.0
 11
4.4
 21
0.9
 31
0.0
  0
TEXT
  8
PARAMS
 62
     7
  5
3B0
 10
6.06
 20
1.15
 30
0.0
 40
0.1
  1
pin-3-out-invert
  7
STYLE1
 72
     1
 11
6.5
 21
1.2
 31
0.0
 73
     2
  0
TEXT
  8
PINS
 62
     7
  5
3B1
 10
4.7525
 20
0.95
 30
0.0
 40
0.1
  1
pin-3-out
  7
STYLE1
 72
     1
 11
5.0
 21
1.0
 31
0.0
 73
     2
  0
ARC
  8
INTERNALS
 62
     7
  5
3B2
 10
7.170871
 20
1.1
 30
0.0
 40
0.25
 50
323.130102
 51
396.869898
  0
ARC
  8
INTERNALS
 62
     7
  5
3B3
 10
7.25
 20
1.1
 30
0.0
 40
0.25
 50
323.130102
 51
396.869898
  0
ARC
  8
INTERNALS
 62
     7
  5
3B4
 10
7.482139
 20
1.358342
 30
0.0
 40
0.409605
 50
265.499752
 51
320.897429
  0
ARC
  8
INTERNALS
 62
     7
  5
3B5
 10
7.482139
 20
0.841658
 30
0.0
 40
0.409605
 50
39.102571
 51
94.500248
  0
LINE
  8
INTERNALS
 62
     7
  5
3B6
 10
7.4
 20
1.0
 30
0.0
 11
5.8
 21
1.0
 31
0.0
  0
LINE
  8
INTERNALS
 62
     7
  5
3B7
 10
7.1
 20
1.2
 30
0.0
 11
7.4
 21
1.2
 31
0.0
  0
LINE
  8
PARAMS
 62
     7
  5
3B8
 10
5.9
 20
1.1
 30
0.0
 11
5.9
 21
1.3
 31
0.0
  0
LINE
  8
PARAMS
 62
     7
  5
3B9
 10
5.9
 20
1.3
 30
0.0
 11
7.1
 21
1.3
 31
0.0
  0
LINE
  8
PARAMS
 62
     7
  5
3BA
 10
7.1
 20
1.3
 30
0.0
 11
7.1
 21
1.1
 31
0.0
  0
LINE
  8
PARAMS
 62
     7
  5
3BB
 10
7.1
 20
1.1
 30
0.0
 11
5.9
 21
1.1
 31
0.0
  0
LINE
  8
PARAMS
 62
     7
  5
3BC
 10
5.9
 20
0.6
 30
0.0
 11
5.9
 21
0.6
 31
0.0
  0
LINE
  8
PINS
 62
     7
  5
3BD
 10
4.4
 20
0.4
 30
0.0
 11
4.4
 21
0.6
 31
0.0
  0
LINE
  8
PINS
 62
     7
  5
3BE
 10
4.4
 20
0.6
 30
0.0
 11
5.7
 21
0.6
 31
0.0
  0
LINE
  8
PINS
 62
     7
  5
3BF
 10
5.7
 20
0.6
 30
0.0
 11
5.8
 21
0.5
 31
0.0
  0
LINE
  8
PINS
 62
     7
  5
3C0
 10
5.8
 20
0.5
 30
0.0
 11
5.7
 21
0.4
 31
0.0
  0
LINE
  8
PINS
 62
     7
  5
3C1
 10
5.7
 20
0.4
 30
0.0
 11
4.4
 21
0.4
 31
0.0
  0
LINE
  8
PINS
 62
     7
  5
3C2
 10
4.4
 20
0.4
 30
0.0
 11
4.4
 21
0.4
 31
0.0
  0
TEXT
  8
PARAMS
 62
     7
  5
3C3
 10
6.06
 20
0.65
 30
0.0
 40
0.1
  1
pin-2-out-invert
  7
STYLE1
 72
     1
 11
6.5
 21
0.7
 31
0.0
 73
     2
  0
TEXT
  8
PINS
 62
     7
  5
3C4
 10
4.7525
 20
0.45
 30
0.0
 40
0.1
  1
pin-2-out
  7
STYLE1
 72
     1
 11
5.0
 21
0.5
 31
0.0
 73
     2
  0
ARC
  8
INTERNALS
 62
     7
  5
3C5
 10
7.170871
 20
0.6
 30
0.0
 40
0.25
 50
323.130102
 51
396.869898
  0
ARC
  8
INTERNALS
 62
     7
  5
3C6
 10
7.25
 20
0.6
 30
0.0
 40
0.25
 50
323.130102
 51
396.869898
  0
ARC
  8
INTERNALS
 62
     7
  5
3C7
 10
7.482139
 20
0.858342
 30
0.0
 40
0.409605
 50
265.499752
 51
320.897429
  0
ARC
  8
INTERNALS
 62
     7
  5
3C8
 10
7.482139
 20
0.341658
 30
0.0
 40
0.409605
 50
39.102571
 51
94.500248
  0
LINE
  8
INTERNALS
 62
     7
  5
3C9
 10
7.4
 20
0.5
 30
0.0
 11
5.8
 21
0.5
 31
0.0
  0
LINE
  8
INTERNALS
 62
     7
  5
3CA
 10
7.1
 20
0.7
 30
0.0
 11
7.4
 21
0.7
 31
0.0
  0
LINE
  8
PARAMS
 62
     7
  5
3CB
 10
5.9
 20
0.6
 30
0.0
 11
5.9
 21
0.8
 31
0.0
  0
LINE
  8
PARAMS
 62
     7
  5
3CC
 10
5.9
 20
0.8
 30
0.0
 11
7.1
 21
0.8
 31
0.0
  0
LINE
  8
PARAMS
 62
     7
  5
3CD
 10
7.1
 20
0.8
 30
0.0
 11
7.1
 21
0.6
 31
0.0
  0
LINE
  8
PARAMS
 62
     7
  5
3CE
 10
7.1
 20
0.6
 30
0.0
 11
5.9
 21
0.6
 31
0.0
  0
LINE
  8
PARAMS
 62
     7
  5
3CF
 10
5.9
 20
4.1
 30
0.0
 11
5.9
 21
4.1
 31
0.0
  0
LINE
  8
PINS
 62
     7
  5
3D0
 10
4.4
 20
3.9
 30
0.0
 11
4.4
 21
4.1
 31
0.0
  0
LINE
  8
PINS
 62
     7
  5
3D1
 10
4.4
 20
4.1
 30
0.0
 11
5.7
 21
4.1
 31
0.0
  0
LINE
  8
PINS
 62
     7
  5
3D2
 10
5.7
 20
4.1
 30
0.0
 11
5.8
 21
4.0
 31
0.0
  0
LINE
  8
PINS
 62
     7
  5
3D3
 10
5.8
 20
4.0
 30
0.0
 11
5.7
 21
3.9
 31
0.0
  0
LINE
  8
PINS
 62
     7
  5
3D4
 10
5.7
 20
3.9
 30
0.0
 11
4.4
 21
3.9
 31
0.0
  0
LINE
  8
PINS
 62
     7
  5
3D5
 10
4.4
 20
3.9
 30
0.0
 11
4.4
 21
3.9
 31
0.0
  0
TEXT
  8
PARAMS
 62
     7
  5
3D6
 10
6.06
 20
4.15
 30
0.0
 40
0.1
  1
pin-9-out-invert
  7
STYLE1
 72
     1
 11
6.5
 21
4.2
 31
0.0
 73
     2
  0
TEXT
  8
PINS
 62
     7
  5
3D7
 10
4.7525
 20
3.95
 30
0.0
 40
0.1
  1
pin-9-out
  7
STYLE1
 72
     1
 11
5.0
 21
4.0
 31
0.0
 73
     2
  0
ARC
  8
INTERNALS
 62
     7
  5
3D8
 10
7.170871
 20
4.1
 30
0.0
 40
0.25
 50
323.130102
 51
396.869898
  0
ARC
  8
INTERNALS
 62
     7
  5
3D9
 10
7.25
 20
4.1
 30
0.0
 40
0.25
 50
323.130102
 51
396.869898
  0
ARC
  8
INTERNALS
 62
     7
  5
3DA
 10
7.482139
 20
4.358342
 30
0.0
 40
0.409605
 50
265.499752
 51
320.897429
  0
ARC
  8
INTERNALS
 62
     7
  5
3DB
 10
7.482139
 20
3.841658
 30
0.0
 40
0.409605
 50
39.102571
 51
94.500248
  0
LINE
  8
INTERNALS
 62
     7
  5
3DC
 10
7.4
 20
4.0
 30
0.0
 11
5.8
 21
4.0
 31
0.0
  0
LINE
  8
INTERNALS
 62
     7
  5
3DD
 10
7.1
 20
4.2
 30
0.0
 11
7.4
 21
4.2
 31
0.0
  0
LINE
  8
PARAMS
 62
     7
  5
3DE
 10
5.9
 20
4.1
 30
0.0
 11
5.9
 21
4.3
 31
0.0
  0
LINE
  8
PARAMS
 62
     7
  5
3DF
 10
5.9
 20
4.3
 30
0.0
 11
7.1
 21
4.3
 31
0.0
  0
LINE
  8
PARAMS
 62
     7
  5
3E0
 10
7.1
 20
4.3
 30
0.0
 11
7.1
 21
4.1
 31
0.0
  0
LINE
  8
PARAMS
 62
     7
  5
3E1
 10
7.1
 20
4.1
 30
0.0
 11
5.9
 21
4.1
 31
0.0
  0
LINE
  8
PINS
 62
     7
  5
3E2
 10
5.9
 20
0.1
 30
0.0
 11
5.9
 21
0.1
 31
0.0
  0
POLYLINE
  8
PINS
 62
     7
  5
3E3
 66
     1
 10
0.0
 20
0.0
 30
0.0
 70
     1
  0
VERTEX
  8
PINS
 62
     7
  5
3E4
 10
4.4
 20
-0.1
 30
0.0
  0
VERTEX
  8
PINS
 62
     7
  5
3E5
 10
4.4
 20
0.1
 30
0.0
  0
VERTEX
  8
PINS
 62
     7
  5
3E6
 10
5.7
 20
0.1
 30
0.0
  0
VERTEX
  8
PINS
 62
     7
  5
3E7
 10
5.8
 20
0.0
 30
0.0
  0
VERTEX
  8
PINS
 62
     7
  5
3E8
 10
5.7
 20
-0.1
 30
0.0
  0
VERTEX
  8
PINS
 62
     7
  5
3E9
 10
4.4
 20
-0.1
 30
0.0
  0
VERTEX
  8
PINS
 62
     7
  5
3EA
 10
4.4
 20
-0.1
 30
0.0
  0
SEQEND
  8
0
  5
3EB
  0
TEXT
  8
PARAMS
 62
     7
  5
3EC
 10
6.0325
 20
0.15
 30
0.0
 40
0.1
  1
pin-17-out-invert
  7
STYLE1
 72
     1
 11
6.5
 21
0.2
 31
0.0
 73
     2
  0
TEXT
  8
PINS
 62
     7
  5
3ED
 10
4.725
 20
-0.05
 30
0.0
 40
0.1
  1
pin-17-out
  7
STYLE1
 72
     1
 11
5.0
 21
0.0
 31
0.0
 73
     2
  0
ARC
  8
INTERNALS
 62
     7
  5
3EE
 10
7.170871
 20
0.1
 30
0.0
 40
0.25
 50
323.130102
 51
396.869898
  0
ARC
  8
INTERNALS
 62
     7
  5
3EF
 10
7.25
 20
0.1
 30
0.0
 40
0.25
 50
323.130102
 51
396.869898
  0
ARC
  8
INTERNALS
 62
     7
  5
3F0
 10
7.482139
 20
0.358342
 30
0.0
 40
0.409605
 50
265.499752
 51
320.897429
  0
ARC
  8
INTERNALS
 62
     7
  5
3F1
 10
7.482139
 20
-0.158342
 30
0.0
 40
0.409605
 50
39.102571
 51
94.500248
  0
LINE
  8
INTERNALS
 62
     7
  5
3F2
 10
7.4
 20
0.0
 30
0.0
 11
5.8
 21
0.0
 31
0.0
  0
LINE
  8
INTERNALS
 62
     7
  5
3F3
 10
7.1
 20
0.2
 30
0.0
 11
7.4
 21
0.2
 31
0.0
  0
POLYLINE
  8
PARAMS
 62
     7
  5
3F4
 66
     1
 10
0.0
 20
0.0
 30
0.0
 70
     1
  0
VERTEX
  8
PARAMS
 62
     7
  5
3F5
 10
5.9
 20
0.1
 30
0.0
  0
VERTEX
  8
PARAMS
 62
     7
  5
3F6
 10
5.9
 20
0.3
 30
0.0
  0
VERTEX
  8
PARAMS
 62
     7
  5
3F7
 10
7.1
 20
0.3
 30
0.0
  0
VERTEX
  8
PARAMS
 62
     7
  5
3F8
 10
7.1
 20
0.1
 30
0.0
  0
VERTEX
  8
PARAMS
 62
     7
  5
3F9
 10
5.9
 20
0.1
 30
0.0
  0
SEQEND
  8
0
  5
3FA
  0
LINE
  8
PINS
 62
     7
  5
3FB
 10
5.9
 20
-0.4
 30
0.0
 11
5.9
 21
-0.4
 31
0.0
  0
POLYLINE
  8
PINS
 62
     7
  5
3FC
 66
     1
 10
0.0
 20
0.0
 30
0.0
 70
     1
  0
VERTEX
  8
PINS
 62
     7
  5
3FD
 10
4.4
 20
-0.6
 30
0.0
  0
VERTEX
  8
PINS
 62
     7
  5
3FE
 10
4.4
 20
-0.4
 30
0.0
  0
VERTEX
  8
PINS
 62
     7
  5
3FF
 10
5.7
 20
-0.4
 30
0.0
  0
VERTEX
  8
PINS
 62
     7
  5
400
 10
5.8
 20
-0.5
 30
0.0
  0
VERTEX
  8
PINS
 62
     7
  5
401
 10
5.7
 20
-0.6
 30
0.0
  0
VERTEX
  8
PINS
 62
     7
  5
402
 10
4.4
 20
-0.6
 30
0.0
  0
VERTEX
  8
PINS
 62
     7
  5
403
 10
4.4
 20
-0.6
 30
0.0
  0
SEQEND
  8
0
  5
404
  0
TEXT
  8
PARAMS
 62
     7
  5
405
 10
6.0325
 20
-0.35
 30
0.0
 40
0.1
  1
pin-16-out-invert
  7
STYLE1
 72
     1
 11
6.5
 21
-0.3
 31
0.0
 73
     2
  0
TEXT
  8
PINS
 62
     7
  5
406
 10
4.725
 20
-0.55
 30
0.0
 40
0.1
  1
pin-16-out
  7
STYLE1
 72
     1
 11
5.0
 21
-0.5
 31
0.0
 73
     2
  0
ARC
  8
INTERNALS
 62
     7
  5
407
 10
7.170871
 20
-0.4
 30
0.0
 40
0.25
 50
323.130102
 51
396.869898
  0
ARC
  8
INTERNALS
 62
     7
  5
408
 10
7.25
 20
-0.4
 30
0.0
 40
0.25
 50
323.130102
 51
396.869898
  0
ARC
  8
INTERNALS
 62
     7
  5
409
 10
7.482139
 20
-0.141658
 30
0.0
 40
0.409605
 50
265.499752
 51
320.897429
  0
ARC
  8
INTERNALS
 62
     7
  5
40A
 10
7.482139
 20
-0.658342
 30
0.0
 40
0.409605
 50
39.102571
 51
94.500248
  0
LINE
  8
INTERNALS
 62
     7
  5
40B
 10
7.4
 20
-0.5
 30
0.0
 11
5.8
 21
-0.5
 31
0.0
  0
LINE
  8
INTERNALS
 62
     7
  5
40C
 10
7.1
 20
-0.3
 30
0.0
 11
7.4
 21
-0.3
 31
0.0
  0
POLYLINE
  8
PARAMS
 62
     7
  5
40D
 66
     1
 10
0.0
 20
0.0
 30
0.0
 70
     1
  0
VERTEX
  8
PARAMS
 62
     7
  5
40E
 10
5.9
 20
-0.4
 30
0.0
  0
VERTEX
  8
PARAMS
 62
     7
  5
40F
 10
5.9
 20
-0.2
 30
0.0
  0
VERTEX
  8
PARAMS
 62
     7
  5
410
 10
7.1
 20
-0.2
 30
0.0
  0
VERTEX
  8
PARAMS
 62
     7
  5
411
 10
7.1
 20
-0.4
 30
0.0
  0
VERTEX
  8
PARAMS
 62
     7
  5
412
 10
5.9
 20
-0.4
 30
0.0
  0
SEQEND
  8
0
  5
413
  0
LINE
  8
PINS
 62
     7
  5
414
 10
5.9
 20
-0.9
 30
0.0
 11
5.9
 21
-0.9
 31
0.0
  0
POLYLINE
  8
PINS
 62
     7
  5
415
 66
     1
 10
0.0
 20
0.0
 30
0.0
 70
     1
  0
VERTEX
  8
PINS
 62
     7
  5
416
 10
4.4
 20
-1.1
 30
0.0
  0
VERTEX
  8
PINS
 62
     7
  5
417
 10
4.4
 20
-0.9
 30
0.0
  0
VERTEX
  8
PINS
 62
     7
  5
418
 10
5.7
 20
-0.9
 30
0.0
  0
VERTEX
  8
PINS
 62
     7
  5
419
 10
5.8
 20
-1.0
 30
0.0
  0
VERTEX
  8
PINS
 62
     7
  5
41A
 10
5.7
 20
-1.1
 30
0.0
  0
VERTEX
  8
PINS
 62
     7
  5
41B
 10
4.4
 20
-1.1
 30
0.0
  0
VERTEX
  8
PINS
 62
     7
  5
41C
 10
4.4
 20
-1.1
 30
0.0
  0
SEQEND
  8
0
  5
41D
  0
TEXT
  8
PARAMS
 62
     7
  5
41E
 10
6.0325
 20
-0.85
 30
0.0
 40
0.1
  1
pin-14-out-invert
  7
STYLE1
 72
     1
 11
6.5
 21
-0.8
 31
0.0
 73
     2
  0
TEXT
  8
PINS
 62
     7
  5
41F
 10
4.725
 20
-1.05
 30
0.0
 40
0.1
  1
pin-14-out
  7
STYLE1
 72
     1
 11
5.0
 21
-1.0
 31
0.0
 73
     2
  0
ARC
  8
INTERNALS
 62
     7
  5
420
 10
7.170871
 20
-0.9
 30
0.0
 40
0.25
 50
323.130102
 51
396.869898
  0
ARC
  8
INTERNALS
 62
     7
  5
421
 10
7.25
 20
-0.9
 30
0.0
 40
0.25
 50
323.130102
 51
396.869898
  0
ARC
  8
INTERNALS
 62
     7
  5
422
 10
7.482139
 20
-0.641658
 30
0.0
 40
0.409605
 50
265.499752
 51
320.897429
  0
ARC
  8
INTERNALS
 62
     7
  5
423
 10
7.482139
 20
-1.158342
 30
0.0
 40
0.409605
 50
39.102571
 51
94.500248
  0
LINE
  8
INTERNALS
 62
     7
  5
424
 10
7.4
 20
-1.0
 30
0.0
 11
5.8
 21
-1.0
 31
0.0
  0
LINE
  8
INTERNALS
 62
     7
  5
425
 10
7.1
 20
-0.8
 30
0.0
 11
7.4
 21
-0.8
 31
0.0
  0
POLYLINE
  8
PARAMS
 62
     7
  5
426
 66
     1
 10
0.0
 20
0.0
 30
0.0
 70
     1
  0
VERTEX
  8
PARAMS
 62
     7
  5
427
 10
5.9
 20
-0.9
 30
0.0
  0
VERTEX
  8
PARAMS
 62
     7
  5
428
 10
5.9
 20
-0.7
 30
0.0
  0
VERTEX
  8
PARAMS
 62
     7
  5
429
 10
7.1
 20
-0.7
 30
0.0
  0
VERTEX
  8
PARAMS
 62
     7
  5
42A
 10
7.1
 20
-0.9
 30
0.0
  0
VERTEX
  8
PARAMS
 62
     7
  5
42B
 10
5.9
 20
-0.9
 30
0.0
  0
SEQEND
  8
0
  5
42C
  0
LINE
  8
PINS
 62
     7
  5
42D
 10
5.9
 20
-1.4
 30
0.0
 11
5.9
 21
-1.4
 31
0.0
  0
POLYLINE
  8
PINS
 62
     7
  5
42E
 66
     1
 10
0.0
 20
0.0
 30
0.0
 70
     1
  0
VERTEX
  8
PINS
 62
     7
  5
42F
 10
4.4
 20
-1.6
 30
0.0
  0
VERTEX
  8
PINS
 62
     7
  5
430
 10
4.4
 20
-1.4
 30
0.0
  0
VERTEX
  8
PINS
 62
     7
  5
431
 10
5.7
 20
-1.4
 30
0.0
  0
VERTEX
  8
PINS
 62
     7
  5
432
 10
5.8
 20
-1.5
 30
0.0
  0
VERTEX
  8
PINS
 62
     7
  5
433
 10
5.7
 20
-1.6
 30
0.0
  0
VERTEX
  8
PINS
 62
     7
  5
434
 10
4.4
 20
-1.6
 30
0.0
  0
VERTEX
  8
PINS
 62
     7
  5
435
 10
4.4
 20
-1.6
 30
0.0
  0
SEQEND
  8
0
  5
436
  0
TEXT
  8
PARAMS
 62
     7
  5
437
 10
6.06
 20
-1.35
 30
0.0
 40
0.1
  1
pin-1-out-invert
  7
STYLE1
 72
     1
 11
6.5
 21
-1.3
 31
0.0
 73
     2
  0
TEXT
  8
PINS
 62
     7
  5
438
 10
4.7525
 20
-1.55
 30
0.0
 40
0.1
  1
pin-1-out
  7
STYLE1
 72
     1
 11
5.0
 21
-1.5
 31
0.0
 73
     2
  0
ARC
  8
INTERNALS
 62
     7
  5
439
 10
7.170871
 20
-1.4
 30
0.0
 40
0.25
 50
323.130102
 51
396.869898
  0
ARC
  8
INTERNALS
 62
     7
  5
43A
 10
7.25
 20
-1.4
 30
0.0
 40
0.25
 50
323.130102
 51
396.869898
  0
ARC
  8
INTERNALS
 62
     7
  5
43B
 10
7.482139
 20
-1.141658
 30
0.0
 40
0.409605
 50
265.499752
 51
320.897429
  0
ARC
  8
INTERNALS
 62
     7
  5
43C
 10
7.482139
 20
-1.658342
 30
0.0
 40
0.409605
 50
39.102571
 51
94.500248
  0
LINE
  8
INTERNALS
 62
     7
  5
43D
 10
7.4
 20
-1.5
 30
0.0
 11
5.8
 21
-1.5
 31
0.0
  0
LINE
  8
INTERNALS
 62
     7
  5
43E
 10
7.1
 20
-1.3
 30
0.0
 11
7.4
 21
-1.3
 31
0.0
  0
POLYLINE
  8
PARAMS
 62
     7
  5
43F
 66
     1
 10
0.0
 20
0.0
 30
0.0
 70
     1
  0
VERTEX
  8
PARAMS
 62
     7
  5
440
 10
5.9
 20
-1.4
 30
0.0
  0
VERTEX
  8
PARAMS
 62
     7
  5
441
 10
5.9
 20
-1.2
 30
0.0
  0
VERTEX
  8
PARAMS
 62
     7
  5
442
 10
7.1
 20
-1.2
 30
0.0
  0
VERTEX
  8
PARAMS
 62
     7
  5
443
 10
7.1
 20
-1.4
 30
0.0
  0
VERTEX
  8
PARAMS
 62
     7
  5
444
 10
5.9
 20
-1.4
 30
0.0
  0
SEQEND
  8
0
  5
445
  0
LINE
  8
OUTLINE
 62
     7
  5
446
 10
4.6
 20
3.4
 30
0.0
 11
4.6
 21
3.1
 31
0.0
  0
LINE
  8
OUTLINE
 62
     7
  5
447
 10
4.6
 20
2.9
 30
0.0
 11
4.6
 21
2.6
 31
0.0
  0
LINE
  8
OUTLINE
 62
     7
  5
448
 10
4.6
 20
2.4
 30
0.0
 11
4.6
 21
2.1
 31
0.0
  0
LINE
  8
OUTLINE
 62
     7
  5
449
 10
4.6
 20
1.9
 30
0.0
 11
4.6
 21
1.6
 31
0.0
  0
LINE
  8
OUTLINE
 62
     7
  5
44A
 10
4.6
 20
1.4
 30
0.0
 11
4.6
 21
1.1
 31
0.0
  0
LINE
  8
OUTLINE
 62
     7
  5
44B
 10
4.6
 20
0.4
 30
0.0
 11
4.6
 21
0.1
 31
0.0
  0
LINE
  8
OUTLINE
 62
     7
  5
44C
 10
4.6
 20
-0.1
 30
0.0
 11
4.6
 21
-0.4
 31
0.0
  0
LINE
  8
OUTLINE
 62
     7
  5
44D
 10
4.6
 20
-0.6
 30
0.0
 11
4.6
 21
-0.9
 31
0.0
  0
LINE
  8
OUTLINE
 62
     7
  5
44E
 10
4.6
 20
-1.1
 30
0.0
 11
4.6
 21
-1.4
 31
0.0
  0
LINE
  8
OUTLINE
 62
     7
  5
44F
 10
4.6
 20
0.9
 30
0.0
 11
4.6
 21
0.6
 31
0.0
  0
LINE
  8
OUTLINE
 62
     7
  5
450
 10
4.6
 20
3.9
 30
0.0
 11
4.6
 21
3.6
 31
0.0
  0
LINE
  8
OUTLINE
 62
     7
  5
451
 10
4.6
 20
6.5
 30
0.0
 11
4.6
 21
6.4
 31
0.0
  0
LINE
  8
OUTLINE
 62
     7
  5
452
 10
4.6
 20
6.0
 30
0.0
 11
4.6
 21
5.9
 31
0.0
  0
LINE
  8
OUTLINE
 62
     7
  5
453
 10
4.6
 20
5.5
 30
0.0
 11
4.6
 21
5.4
 31
0.0
  0
LINE
  8
OUTLINE
 62
     7
  5
454
 10
4.6
 20
5.0
 30
0.0
 11
4.6
 21
4.9
 31
0.0
  0
LINE
  8
OUTLINE
 62
     7
  5
455
 10
4.6
 20
4.5
 30
0.0
 11
4.6
 21
4.1
 31
0.0
  0
TEXT
  8
INTERNALS
 62
     7
  5
456
 10
16.7175
 20
4.925
 30
0.0
 40
0.15
  1
25
  7
STYLE1
 72
     1
 11
16.8
 21
5.0
 31
0.0
 73
     2
  0
TEXT
  8
INTERNALS
 62
     7
  5
457
 10
9.8175
 20
4.925
 30
0.0
 40
0.15
  1
25
  7
STYLE1
 72
     1
 11
9.9
 21
5.0
 31
0.0
 73
     2
  0
TEXT
  8
INTERNALS
 62
     7
  5
458
 10
16.3175
 20
5.125
 30
0.0
 40
0.15
  1
13
  7
STYLE1
 72
     1
 11
16.4
 21
5.2
 31
0.0
 73
     2
  0
TEXT
  8
INTERNALS
 62
     7
  5
459
 10
9.4175
 20
5.125
 30
0.0
 40
0.15
  1
13
  7
STYLE1
 72
     1
 11
9.5
 21
5.2
 31
0.0
 73
     2
  0
TEXT
  8
INTERNALS
 62
     7
  5
45A
 10
16.7175
 20
4.525
 30
0.0
 40
0.15
  1
24
  7
STYLE1
 72
     1
 11
16.8
 21
4.6
 31
0.0
 73
     2
  0
TEXT
  8
INTERNALS
 62
     7
  5
45B
 10
9.8175
 20
4.525
 30
0.0
 40
0.15
  1
24
  7
STYLE1
 72
     1
 11
9.9
 21
4.6
 31
0.0
 73
     2
  0
TEXT
  8
INTERNALS
 62
     7
  5
45C
 10
16.3175
 20
4.725
 30
0.0
 40
0.15
  1
12
  7
STYLE1
 72
     1
 11
16.4
 21
4.8
 31
0.0
 73
     2
  0
TEXT
  8
INTERNALS
 62
     7
  5
45D
 10
9.4175
 20
4.725
 30
0.0
 40
0.15
  1
12
  7
STYLE1
 72
     1
 11
9.5
 21
4.8
 31
0.0
 73
     2
  0
TEXT
  8
INTERNALS
 62
     7
  5
45E
 10
16.3175
 20
4.325
 30
0.0
 40
0.15
  1
11
  7
STYLE1
 72
     1
 11
16.4
 21
4.4
 31
0.0
 73
     2
  0
TEXT
  8
INTERNALS
 62
     7
  5
45F
 10
9.4175
 20
4.325
 30
0.0
 40
0.15
  1
11
  7
STYLE1
 72
     1
 11
9.5
 21
4.4
 31
0.0
 73
     2
  0
TEXT
  8
INTERNALS
 62
     7
  5
460
 10
16.3175
 20
3.925
 30
0.0
 40
0.15
  1
10
  7
STYLE1
 72
     1
 11
16.4
 21
4.0
 31
0.0
 73
     2
  0
TEXT
  8
INTERNALS
 62
     7
  5
461
 10
9.4175
 20
3.925
 30
0.0
 40
0.15
  1
10
  7
STYLE1
 72
     1
 11
9.5
 21
4.0
 31
0.0
 73
     2
  0
TEXT
  8
INTERNALS
 62
     7
  5
462
 10
16.35875
 20
3.525
 30
0.0
 40
0.15
  1
9
  7
STYLE1
 72
     1
 11
16.4
 21
3.6
 31
0.0
 73
     2
  0
TEXT
  8
INTERNALS
 62
     7
  5
463
 10
9.45875
 20
3.525
 30
0.0
 40
0.15
  1
9
  7
STYLE1
 72
     1
 11
9.5
 21
3.6
 31
0.0
 73
     2
  0
TEXT
  8
INTERNALS
 62
     7
  5
464
 10
16.35875
 20
3.125
 30
0.0
 40
0.15
  1
8
  7
STYLE1
 72
     1
 11
16.4
 21
3.2
 31
0.0
 73
     2
  0
TEXT
  8
INTERNALS
 62
     7
  5
465
 10
9.45875
 20
3.125
 30
0.0
 40
0.15
  1
8
  7
STYLE1
 72
     1
 11
9.5
 21
3.2
 31
0.0
 73
     2
  0
TEXT
  8
INTERNALS
 62
     7
  5
466
 10
16.35875
 20
2.725
 30
0.0
 40
0.15
  1
7
  7
STYLE1
 72
     1
 11
16.4
 21
2.8
 31
0.0
 73
     2
  0
TEXT
  8
INTERNALS
 62
     7
  5
467
 10
9.45875
 20
2.725
 30
0.0
 40
0.15
  1
7
  7
STYLE1
 72
     1
 11
9.5
 21
2.8
 31
0.0
 73
     2
  0
TEXT
  8
INTERNALS
 62
     7
  5
468
 10
16.35875
 20
2.325
 30
0.0
 40
0.15
  1
6
  7
STYLE1
 72
     1
 11
16.4
 21
2.4
 31
0.0
 73
     2
  0
TEXT
  8
INTERNALS
 62
     7
  5
469
 10
9.45875
 20
2.325
 30
0.0
 40
0.15
  1
6
  7
STYLE1
 72
     1
 11
9.5
 21
2.4
 31
0.0
 73
     2
  0
TEXT
  8
INTERNALS
 62
     7
  5
46A
 10
16.35875
 20
1.925
 30
0.0
 40
0.15
  1
5
  7
STYLE1
 72
     1
 11
16.4
 21
2.0
 31
0.0
 73
     2
  0
TEXT
  8
INTERNALS
 62
     7
  5
46B
 10
9.45875
 20
1.925
 30
0.0
 40
0.15
  1
5
  7
STYLE1
 72
     1
 11
9.5
 21
2.0
 31
0.0
 73
     2
  0
TEXT
  8
INTERNALS
 62
     7
  5
46C
 10
16.35875
 20
1.525
 30
0.0
 40
0.15
  1
4
  7
STYLE1
 72
     1
 11
16.4
 21
1.6
 31
0.0
 73
     2
  0
TEXT
  8
INTERNALS
 62
     7
  5
46D
 10
9.45875
 20
1.525
 30
0.0
 40
0.15
  1
4
  7
STYLE1
 72
     1
 11
9.5
 21
1.6
 31
0.0
 73
     2
  0
TEXT
  8
INTERNALS
 62
     7
  5
46E
 10
16.35875
 20
1.125
 30
0.0
 40
0.15
  1
3
  7
STYLE1
 72
     1
 11
16.4
 21
1.2
 31
0.0
 73
     2
  0
TEXT
  8
INTERNALS
 62
     7
  5
46F
 10
9.45875
 20
1.125
 30
0.0
 40
0.15
  1
3
  7
STYLE1
 72
     1
 11
9.5
 21
1.2
 31
0.0
 73
     2
  0
TEXT
  8
INTERNALS
 62
     7
  5
470
 10
16.35875
 20
0.725
 30
0.0
 40
0.15
  1
2
  7
STYLE1
 72
     1
 11
16.4
 21
0.8
 31
0.0
 73
     2
  0
TEXT
  8
INTERNALS
 62
     7
  5
471
 10
9.45875
 20
0.725
 30
0.0
 40
0.15
  1
2
  7
STYLE1
 72
     1
 11
9.5
 21
0.8
 31
0.0
 73
     2
  0
TEXT
  8
INTERNALS
 62
     7
  5
472
 10
16.35875
 20
0.325
 30
0.0
 40
0.15
  1
1
  7
STYLE1
 72
     1
 11
16.4
 21
0.4
 31
0.0
 73
     2
  0
TEXT
  8
INTERNALS
 62
     7
  5
473
 10
9.45875
 20
0.325
 30
0.0
 40
0.15
  1
1
  7
STYLE1
 72
     1
 11
9.5
 21
0.4
 31
0.0
 73
     2
  0
TEXT
  8
INTERNALS
 62
     7
  5
474
 10
16.7175
 20
4.125
 30
0.0
 40
0.15
  1
23
  7
STYLE1
 72
     1
 11
16.8
 21
4.2
 31
0.0
 73
     2
  0
TEXT
  8
INTERNALS
 62
     7
  5
475
 10
9.8175
 20
4.125
 30
0.0
 40
0.15
  1
23
  7
STYLE1
 72
     1
 11
9.9
 21
4.2
 31
0.0
 73
     2
  0
TEXT
  8
INTERNALS
 62
     7
  5
476
 10
16.7175
 20
3.725
 30
0.0
 40
0.15
  1
22
  7
STYLE1
 72
     1
 11
16.8
 21
3.8
 31
0.0
 73
     2
  0
TEXT
  8
INTERNALS
 62
     7
  5
477
 10
9.8175
 20
3.725
 30
0.0
 40
0.15
  1
22
  7
STYLE1
 72
     1
 11
9.9
 21
3.8
 31
0.0
 73
     2
  0
TEXT
  8
INTERNALS
 62
     7
  5
478
 10
16.7175
 20
3.325
 30
0.0
 40
0.15
  1
21
  7
STYLE1
 72
     1
 11
16.8
 21
3.4
 31
0.0
 73
     2
  0
TEXT
  8
INTERNALS
 62
     7
  5
479
 10
9.8175
 20
3.325
 30
0.0
 40
0.15
  1
21
  7
STYLE1
 72
     1
 11
9.9
 21
3.4
 31
0.0
 73
     2
  0
TEXT
  8
INTERNALS
 62
     7
  5
47A
 10
16.7175
 20
2.925
 30
0.0
 40
0.15
  1
20
  7
STYLE1
 72
     1
 11
16.8
 21
3.0
 31
0.0
 73
     2
  0
TEXT
  8
INTERNALS
 62
     7
  5
47B
 10
9.8175
 20
2.925
 30
0.0
 40
0.15
  1
20
  7
STYLE1
 72
     1
 11
9.9
 21
3.0
 31
0.0
 73
     2
  0
TEXT
  8
INTERNALS
 62
     7
  5
47C
 10
16.7175
 20
2.525
 30
0.0
 40
0.15
  1
19
  7
STYLE1
 72
     1
 11
16.8
 21
2.6
 31
0.0
 73
     2
  0
TEXT
  8
INTERNALS
 62
     7
  5
47D
 10
9.8175
 20
2.525
 30
0.0
 40
0.15
  1
19
  7
STYLE1
 72
     1
 11
9.9
 21
2.6
 31
0.0
 73
     2
  0
TEXT
  8
INTERNALS
 62
     7
  5
47E
 10
16.7175
 20
2.125
 30
0.0
 40
0.15
  1
18
  7
STYLE1
 72
     1
 11
16.8
 21
2.2
 31
0.0
 73
     2
  0
TEXT
  8
INTERNALS
 62
     7
  5
47F
 10
9.8175
 20
2.125
 30
0.0
 40
0.15
  1
18
  7
STYLE1
 72
     1
 11
9.9
 21
2.2
 31
0.0
 73
     2
  0
TEXT
  8
INTERNALS
 62
     7
  5
480
 10
16.7175
 20
1.725
 30
0.0
 40
0.15
  1
17
  7
STYLE1
 72
     1
 11
16.8
 21
1.8
 31
0.0
 73
     2
  0
TEXT
  8
INTERNALS
 62
     7
  5
481
 10
9.8175
 20
1.725
 30
0.0
 40
0.15
  1
17
  7
STYLE1
 72
     1
 11
9.9
 21
1.8
 31
0.0
 73
     2
  0
TEXT
  8
INTERNALS
 62
     7
  5
482
 10
16.7175
 20
1.325
 30
0.0
 40
0.15
  1
16
  7
STYLE1
 72
     1
 11
16.8
 21
1.4
 31
0.0
 73
     2
  0
TEXT
  8
INTERNALS
 62
     7
  5
483
 10
9.8175
 20
1.325
 30
0.0
 40
0.15
  1
16
  7
STYLE1
 72
     1
 11
9.9
 21
1.4
 31
0.0
 73
     2
  0
TEXT
  8
INTERNALS
 62
     7
  5
484
 10
16.7175
 20
0.925
 30
0.0
 40
0.15
  1
15
  7
STYLE1
 72
     1
 11
16.8
 21
1.0
 31
0.0
 73
     2
  0
TEXT
  8
INTERNALS
 62
     7
  5
485
 10
9.8175
 20
0.925
 30
0.0
 40
0.15
  1
15
  7
STYLE1
 72
     1
 11
9.9
 21
1.0
 31
0.0
 73
     2
  0
TEXT
  8
INTERNALS
 62
     7
  5
486
 10
16.7175
 20
0.525
 30
0.0
 40
0.15
  1
14
  7
STYLE1
 72
     1
 11
16.8
 21
0.6
 31
0.0
 73
     2
  0
TEXT
  8
INTERNALS
 62
     7
  5
487
 10
9.8175
 20
0.525
 30
0.0
 40
0.15
  1
14
  7
STYLE1
 72
     1
 11
9.9
 21
0.6
 31
0.0
 73
     2
  0
CIRCLE
  8
INTERNALS
 62
     7
  5
488
 10
16.4
 20
4.8
 30
0.0
 40
0.161443
  0
CIRCLE
  8
INTERNALS
 62
     7
  5
489
 10
9.5
 20
4.8
 30
0.0
 40
0.161443
  0
CIRCLE
  8
INTERNALS
 62
     7
  5
48A
 10
16.4
 20
4.4
 30
0.0
 40
0.161443
  0
CIRCLE
  8
INTERNALS
 62
     7
  5
48B
 10
9.5
 20
4.4
 30
0.0
 40
0.161443
  0
CIRCLE
  8
INTERNALS
 62
     7
  5
48C
 10
16.4
 20
4.0
 30
0.0
 40
0.161443
  0
CIRCLE
  8
INTERNALS
 62
     7
  5
48D
 10
9.5
 20
4.0
 30
0.0
 40
0.161443
  0
CIRCLE
  8
INTERNALS
 62
     7
  5
48E
 10
16.4
 20
3.6
 30
0.0
 40
0.161443
  0
CIRCLE
  8
INTERNALS
 62
     7
  5
48F
 10
9.5
 20
3.6
 30
0.0
 40
0.161443
  0
CIRCLE
  8
INTERNALS
 62
     7
  5
490
 10
16.4
 20
3.2
 30
0.0
 40
0.161443
  0
CIRCLE
  8
INTERNALS
 62
     7
  5
491
 10
9.5
 20
3.2
 30
0.0
 40
0.161443
  0
CIRCLE
  8
INTERNALS
 62
     7
  5
492
 10
16.4
 20
2.4
 30
0.0
 40
0.161443
  0
CIRCLE
  8
INTERNALS
 62
     7
  5
493
 10
9.5
 20
2.4
 30
0.0
 40
0.161443
  0
CIRCLE
  8
INTERNALS
 62
     7
  5
494
 10
16.4
 20
2.0
 30
0.0
 40
0.161443
  0
CIRCLE
  8
INTERNALS
 62
     7
  5
495
 10
9.5
 20
2.0
 30
0.0
 40
0.161443
  0
CIRCLE
  8
INTERNALS
 62
     7
  5
496
 10
16.4
 20
1.6
 30
0.0
 40
0.161443
  0
CIRCLE
  8
INTERNALS
 62
     7
  5
497
 10
9.5
 20
1.6
 30
0.0
 40
0.161443
  0
CIRCLE
  8
INTERNALS
 62
     7
  5
498
 10
16.4
 20
1.2
 30
0.0
 40
0.161443
  0
CIRCLE
  8
INTERNALS
 62
     7
  5
499
 10
9.5
 20
1.2
 30
0.0
 40
0.161443
  0
CIRCLE
  8
INTERNALS
 62
     7
  5
49A
 10
16.4
 20
0.8
 30
0.0
 40
0.161443
  0
CIRCLE
  8
INTERNALS
 62
     7
  5
49B
 10
9.5
 20
0.8
 30
0.0
 40
0.161443
  0
CIRCLE
  8
INTERNALS
 62
     7
  5
49C
 10
16.4
 20
0.4
 30
0.0
 40
0.161443
  0
CIRCLE
  8
INTERNALS
 62
     7
  5
49D
 10
9.5
 20
0.4
 30
0.0
 40
0.161443
  0
CIRCLE
  8
INTERNALS
 62
     7
  5
49E
 10
16.4
 20
2.8
 30
0.0
 40
0.161443
  0
CIRCLE
  8
INTERNALS
 62
     7
  5
49F
 10
9.5
 20
2.8
 30
0.0
 40
0.161443
  0
CIRCLE
  8
INTERNALS
 62
     7
  5
4A0
 10
16.4
 20
5.2
 30
0.0
 40
0.161443
  0
CIRCLE
  8
INTERNALS
 62
     7
  5
4A1
 10
9.5
 20
5.2
 30
0.0
 40
0.161443
  0
CIRCLE
  8
INTERNALS
 62
     7
  5
4A2
 10
16.8
 20
4.6
 30
0.0
 40
0.161443
  0
CIRCLE
  8
INTERNALS
 62
     7
  5
4A3
 10
9.9
 20
4.6
 30
0.0
 40
0.161443
  0
CIRCLE
  8
INTERNALS
 62
     7
  5
4A4
 10
16.8
 20
4.2
 30
0.0
 40
0.161443
  0
CIRCLE
  8
INTERNALS
 62
     7
  5
4A5
 10
9.9
 20
4.2
 30
0.0
 40
0.161443
  0
CIRCLE
  8
INTERNALS
 62
     7
  5
4A6
 10
16.8
 20
3.8
 30
0.0
 40
0.161443
  0
CIRCLE
  8
INTERNALS
 62
     7
  5
4A7
 10
9.9
 20
3.8
 30
0.0
 40
0.161443
  0
CIRCLE
  8
INTERNALS
 62
     7
  5
4A8
 10
16.8
 20
3.4
 30
0.0
 40
0.161443
  0
CIRCLE
  8
INTERNALS
 62
     7
  5
4A9
 10
9.9
 20
3.4
 30
0.0
 40
0.161443
  0
CIRCLE
  8
INTERNALS
 62
     7
  5
4AA
 10
16.8
 20
3.0
 30
0.0
 40
0.161443
  0
CIRCLE
  8
INTERNALS
 62
     7
  5
4AB
 10
9.9
 20
3.0
 30
0.0
 40
0.161443
  0
CIRCLE
  8
INTERNALS
 62
     7
  5
4AC
 10
16.8
 20
2.6
 30
0.0
 40
0.161443
  0
CIRCLE
  8
INTERNALS
 62
     7
  5
4AD
 10
9.9
 20
2.6
 30
0.0
 40
0.161443
  0
CIRCLE
  8
INTERNALS
 62
     7
  5
4AE
 10
16.8
 20
2.2
 30
0.0
 40
0.161443
  0
CIRCLE
  8
INTERNALS
 62
     7
  5
4AF
 10
9.9
 20
2.2
 30
0.0
 40
0.161443
  0
CIRCLE
  8
INTERNALS
 62
     7
  5
4B0
 10
16.8
 20
1.8
 30
0.0
 40
0.161443
  0
CIRCLE
  8
INTERNALS
 62
     7
  5
4B1
 10
9.9
 20
1.8
 30
0.0
 40
0.161443
  0
CIRCLE
  8
INTERNALS
 62
     7
  5
4B2
 10
16.8
 20
1.4
 30
0.0
 40
0.161443
  0
CIRCLE
  8
INTERNALS
 62
     7
  5
4B3
 10
9.9
 20
1.4
 30
0.0
 40
0.161443
  0
CIRCLE
  8
INTERNALS
 62
     7
  5
4B4
 10
16.8
 20
1.0
 30
0.0
 40
0.161443
  0
CIRCLE
  8
INTERNALS
 62
     7
  5
4B5
 10
9.9
 20
1.0
 30
0.0
 40
0.161443
  0
CIRCLE
  8
INTERNALS
 62
     7
  5
4B6
 10
16.8
 20
0.6
 30
0.0
 40
0.161443
  0
CIRCLE
  8
INTERNALS
 62
     7
  5
4B7
 10
9.9
 20
0.6
 30
0.0
 40
0.161443
  0
CIRCLE
  8
INTERNALS
 62
     7
  5
4B8
 10
16.8
 20
5.0
 30
0.0
 40
0.161443
  0
CIRCLE
  8
INTERNALS
 62
     7
  5
4B9
 10
9.9
 20
5.0
 30
0.0
 40
0.161443
  0
LINE
  8
INTERNALS
 62
     7
  5
4BA
 10
7.8
 20
1.6
 30
0.0
 11
9.338557
 21
1.6
 31
0.0
  0
LINE
  8
INTERNALS
 62
     7
  5
4BB
 10
7.8
 20
2.1
 30
0.0
 11
8.0
 21
2.1
 31
0.0
  0
LINE
  8
INTERNALS
 62
     7
  5
4BC
 10
8.0
 20
2.1
 30
0.0
 11
8.0
 21
2.0
 31
0.0
  0
LINE
  8
INTERNALS
 62
     7
  5
4BD
 10
8.0
 20
2.0
 30
0.0
 11
9.338557
 21
2.0
 31
0.0
  0
LINE
  8
INTERNALS
 62
     7
  5
4BE
 10
7.8
 20
2.6
 30
0.0
 11
8.1
 21
2.6
 31
0.0
  0
LINE
  8
INTERNALS
 62
     7
  5
4BF
 10
8.1
 20
2.6
 30
0.0
 11
8.1
 21
2.4
 31
0.0
  0
LINE
  8
INTERNALS
 62
     7
  5
4C0
 10
8.1
 20
2.4
 30
0.0
 11
9.338557
 21
2.4
 31
0.0
  0
LINE
  8
INTERNALS
 62
     7
  5
4C1
 10
7.8
 20
3.1
 30
0.0
 11
8.2
 21
3.1
 31
0.0
  0
LINE
  8
INTERNALS
 62
     7
  5
4C2
 10
8.2
 20
3.1
 30
0.0
 11
8.2
 21
2.8
 31
0.0
  0
LINE
  8
INTERNALS
 62
     7
  5
4C3
 10
8.2
 20
2.8
 30
0.0
 11
9.338557
 21
2.8
 31
0.0
  0
LINE
  8
INTERNALS
 62
     7
  5
4C4
 10
7.8
 20
3.6
 30
0.0
 11
8.3
 21
3.6
 31
0.0
  0
LINE
  8
INTERNALS
 62
     7
  5
4C5
 10
15.2
 20
3.7
 30
0.0
 11
15.2
 21
3.2
 31
0.0
  0
LINE
  8
INTERNALS
 62
     7
  5
4C6
 10
8.3
 20
3.6
 30
0.0
 11
8.3
 21
3.2
 31
0.0
  0
LINE
  8
INTERNALS
 62
     7
  5
4C7
 10
15.2
 20
3.2
 30
0.0
 11
16.238557
 21
3.2
 31
0.0
  0
LINE
  8
INTERNALS
 62
     7
  5
4C8
 10
8.3
 20
3.2
 30
0.0
 11
9.338557
 21
3.2
 31
0.0
  0
LINE
  8
INTERNALS
 62
     7
  5
4C9
 10
7.8
 20
4.1
 30
0.0
 11
8.4
 21
4.1
 31
0.0
  0
LINE
  8
INTERNALS
 62
     7
  5
4CA
 10
15.3
 20
4.2
 30
0.0
 11
15.3
 21
3.6
 31
0.0
  0
LINE
  8
INTERNALS
 62
     7
  5
4CB
 10
8.4
 20
4.1
 30
0.0
 11
8.4
 21
3.6
 31
0.0
  0
LINE
  8
INTERNALS
 62
     7
  5
4CC
 10
15.3
 20
3.6
 30
0.0
 11
16.238557
 21
3.6
 31
0.0
  0
LINE
  8
INTERNALS
 62
     7
  5
4CD
 10
8.4
 20
3.6
 30
0.0
 11
9.338557
 21
3.6
 31
0.0
  0
LINE
  8
INTERNALS
 62
     7
  5
4CE
 10
14.0
 20
4.7
 30
0.0
 11
15.4
 21
4.7
 31
0.0
  0
LINE
  8
INTERNALS
 62
     7
  5
4CF
 10
7.1
 20
4.7
 30
0.0
 11
8.5
 21
4.7
 31
0.0
  0
LINE
  8
INTERNALS
 62
     7
  5
4D0
 10
15.4
 20
4.7
 30
0.0
 11
15.4
 21
4.0
 31
0.0
  0
LINE
  8
INTERNALS
 62
     7
  5
4D1
 10
8.5
 20
4.7
 30
0.0
 11
8.5
 21
4.0
 31
0.0
  0
LINE
  8
INTERNALS
 62
     7
  5
4D2
 10
15.4
 20
4.0
 30
0.0
 11
16.238557
 21
4.0
 31
0.0
  0
LINE
  8
INTERNALS
 62
     7
  5
4D3
 10
8.5
 20
4.0
 30
0.0
 11
9.338557
 21
4.0
 31
0.0
  0
LINE
  8
INTERNALS
 62
     7
  5
4D4
 10
14.0
 20
5.2
 30
0.0
 11
15.5
 21
5.2
 31
0.0
  0
LINE
  8
INTERNALS
 62
     7
  5
4D5
 10
7.1
 20
5.2
 30
0.0
 11
8.6
 21
5.2
 31
0.0
  0
LINE
  8
INTERNALS
 62
     7
  5
4D6
 10
15.5
 20
5.2
 30
0.0
 11
15.5
 21
4.4
 31
0.0
  0
LINE
  8
INTERNALS
 62
     7
  5
4D7
 10
8.6
 20
5.2
 30
0.0
 11
8.6
 21
4.4
 31
0.0
  0
LINE
  8
INTERNALS
 62
     7
  5
4D8
 10
15.5
 20
4.4
 30
0.0
 11
16.238557
 21
4.4
 31
0.0
  0
LINE
  8
INTERNALS
 62
     7
  5
4D9
 10
8.6
 20
4.4
 30
0.0
 11
9.338557
 21
4.4
 31
0.0
  0
LINE
  8
INTERNALS
 62
     7
  5
4DA
 10
14.0
 20
5.7
 30
0.0
 11
15.6
 21
5.7
 31
0.0
  0
LINE
  8
INTERNALS
 62
     7
  5
4DB
 10
7.1
 20
5.7
 30
0.0
 11
8.7
 21
5.7
 31
0.0
  0
LINE
  8
INTERNALS
 62
     7
  5
4DC
 10
15.6
 20
5.7
 30
0.0
 11
15.6
 21
4.8
 31
0.0
  0
LINE
  8
INTERNALS
 62
     7
  5
4DD
 10
8.7
 20
5.7
 30
0.0
 11
8.7
 21
4.8
 31
0.0
  0
LINE
  8
INTERNALS
 62
     7
  5
4DE
 10
15.6
 20
4.8
 30
0.0
 11
16.238557
 21
4.8
 31
0.0
  0
LINE
  8
INTERNALS
 62
     7
  5
4DF
 10
8.7
 20
4.8
 30
0.0
 11
9.338557
 21
4.8
 31
0.0
  0
LINE
  8
INTERNALS
 62
     7
  5
4E0
 10
14.0
 20
6.2
 30
0.0
 11
15.7
 21
6.2
 31
0.0
  0
LINE
  8
INTERNALS
 62
     7
  5
4E1
 10
7.1
 20
6.2
 30
0.0
 11
8.8
 21
6.2
 31
0.0
  0
LINE
  8
INTERNALS
 62
     7
  5
4E2
 10
15.7
 20
6.2
 30
0.0
 11
15.7
 21
5.2
 31
0.0
  0
LINE
  8
INTERNALS
 62
     7
  5
4E3
 10
8.8
 20
6.2
 30
0.0
 11
8.8
 21
5.2
 31
0.0
  0
LINE
  8
INTERNALS
 62
     7
  5
4E4
 10
15.7
 20
5.2
 30
0.0
 11
16.238557
 21
5.2
 31
0.0
  0
LINE
  8
INTERNALS
 62
     7
  5
4E5
 10
8.8
 20
5.2
 30
0.0
 11
9.338557
 21
5.2
 31
0.0
  0
LINE
  8
INTERNALS
 62
     7
  5
4E6
 10
7.8
 20
1.1
 30
0.0
 11
8.0
 21
1.1
 31
0.0
  0
LINE
  8
INTERNALS
 62
     7
  5
4E7
 10
8.0
 20
1.1
 30
0.0
 11
8.0
 21
1.2
 31
0.0
  0
LINE
  8
INTERNALS
 62
     7
  5
4E8
 10
8.0
 20
1.2
 30
0.0
 11
9.338557
 21
1.2
 31
0.0
  0
LINE
  8
INTERNALS
 62
     7
  5
4E9
 10
7.8
 20
0.6
 30
0.0
 11
8.1
 21
0.6
 31
0.0
  0
LINE
  8
INTERNALS
 62
     7
  5
4EA
 10
8.1
 20
0.6
 30
0.0
 11
8.1
 21
0.8
 31
0.0
  0
LINE
  8
INTERNALS
 62
     7
  5
4EB
 10
8.1
 20
0.8
 30
0.0
 11
9.338557
 21
0.8
 31
0.0
  0
LINE
  8
INTERNALS
 62
     7
  5
4EC
 10
14.7
 20
0.1
 30
0.0
 11
15.3
 21
0.1
 31
0.0
  0
LINE
  8
INTERNALS
 62
     7
  5
4ED
 10
7.8
 20
0.1
 30
0.0
 11
8.4
 21
0.1
 31
0.0
  0
LINE
  8
INTERNALS
 62
     7
  5
4EE
 10
15.3
 20
0.1
 30
0.0
 11
15.3
 21
1.8
 31
0.0
  0
LINE
  8
INTERNALS
 62
     7
  5
4EF
 10
8.4
 20
0.1
 30
0.0
 11
8.4
 21
1.8
 31
0.0
  0
LINE
  8
INTERNALS
 62
     7
  5
4F0
 10
15.3
 20
1.8
 30
0.0
 11
16.638557
 21
1.8
 31
0.0
  0
LINE
  8
INTERNALS
 62
     7
  5
4F1
 10
8.4
 20
1.8
 30
0.0
 11
9.738557
 21
1.8
 31
0.0
  0
LINE
  8
INTERNALS
 62
     7
  5
4F2
 10
14.7
 20
-0.4
 30
0.0
 11
15.4
 21
-0.4
 31
0.0
  0
LINE
  8
INTERNALS
 62
     7
  5
4F3
 10
7.8
 20
-0.4
 30
0.0
 11
8.5
 21
-0.4
 31
0.0
  0
LINE
  8
INTERNALS
 62
     7
  5
4F4
 10
15.4
 20
-0.4
 30
0.0
 11
15.4
 21
1.4
 31
0.0
  0
LINE
  8
INTERNALS
 62
     7
  5
4F5
 10
8.5
 20
-0.4
 30
0.0
 11
8.5
 21
1.4
 31
0.0
  0
LINE
  8
INTERNALS
 62
     7
  5
4F6
 10
15.4
 20
1.4
 30
0.0
 11
16.638557
 21
1.4
 31
0.0
  0
LINE
  8
INTERNALS
 62
     7
  5
4F7
 10
8.5
 20
1.4
 30
0.0
 11
9.738557
 21
1.4
 31
0.0
  0
LINE
  8
INTERNALS
 62
     7
  5
4F8
 10
14.7
 20
-0.9
 30
0.0
 11
15.5
 21
-0.9
 31
0.0
  0
LINE
  8
INTERNALS
 62
     7
  5
4F9
 10
7.8
 20
-0.9
 30
0.0
 11
8.6
 21
-0.9
 31
0.0
  0
LINE
  8
INTERNALS
 62
     7
  5
4FA
 10
15.5
 20
-0.9
 30
0.0
 11
15.5
 21
0.6
 31
0.0
  0
LINE
  8
INTERNALS
 62
     7
  5
4FB
 10
8.6
 20
-0.9
 30
0.0
 11
8.6
 21
0.6
 31
0.0
  0
LINE
  8
INTERNALS
 62
     7
  5
4FC
 10
15.5
 20
0.6
 30
0.0
 11
16.638557
 21
0.6
 31
0.0
  0
LINE
  8
INTERNALS
 62
     7
  5
4FD
 10
8.6
 20
0.6
 30
0.0
 11
9.738557
 21
0.6
 31
0.0
  0
LINE
  8
INTERNALS
 62
     7
  5
4FE
 10
14.7
 20
-1.4
 30
0.0
 11
15.6
 21
-1.4
 31
0.0
  0
LINE
  8
INTERNALS
 62
     7
  5
4FF
 10
7.8
 20
-1.4
 30
0.0
 11
8.7
 21
-1.4
 31
0.0
  0
LINE
  8
INTERNALS
 62
     7
  5
500
 10
15.6
 20
-1.4
 30
0.0
 11
15.6
 21
0.4
 31
0.0
  0
LINE
  8
INTERNALS
 62
     7
  5
501
 10
8.7
 20
-1.4
 30
0.0
 11
8.7
 21
0.4
 31
0.0
  0
LINE
  8
INTERNALS
 62
     7
  5
502
 10
15.6
 20
0.4
 30
0.0
 11
16.238557
 21
0.4
 31
0.0
  0
LINE
  8
INTERNALS
 62
     7
  5
503
 10
8.7
 20
0.4
 30
0.0
 11
9.338557
 21
0.4
 31
0.0
  0
LINE
  8
INTERNALS
 62
     7
  5
504
 10
14.0
 20
6.7
 30
0.0
 11
15.8
 21
6.7
 31
0.0
  0
LINE
  8
INTERNALS
 62
     7
  5
505
 10
7.1
 20
6.7
 30
0.0
 11
8.9
 21
6.7
 31
0.0
  0
LINE
  8
INTERNALS
 62
     7
  5
506
 10
15.8
 20
6.7
 30
0.0
 11
15.8
 21
1.0
 31
0.0
  0
LINE
  8
INTERNALS
 62
     7
  5
507
 10
8.9
 20
6.7
 30
0.0
 11
8.9
 21
1.0
 31
0.0
  0
LINE
  8
INTERNALS
 62
     7
  5
508
 10
15.8
 20
1.0
 30
0.0
 11
16.638557
 21
1.0
 31
0.0
  0
LINE
  8
INTERNALS
 62
     7
  5
509
 10
8.9
 20
1.0
 30
0.0
 11
9.738557
 21
1.0
 31
0.0
  0
LINE
  8
OUTLINE
 62
     7
  5
50A
 10
16.1
 20
5.2
 30
0.0
 11
16.1
 21
0.4
 31
0.0
  0
LINE
  8
OUTLINE
 62
     7
  5
50B
 10
9.2
 20
5.2
 30
0.0
 11
9.2
 21
0.4
 31
0.0
  0
LINE
  8
OUTLINE
 62
     7
  5
50C
 10
17.1
 20
5.0
 30
0.0
 11
17.1
 21
0.6
 31
0.0
  0
LINE
  8
OUTLINE
 62
     7
  5
50D
 10
10.2
 20
5.0
 30
0.0
 11
10.2
 21
0.6
 31
0.0
  0
ARC
  8
OUTLINE
 62
     7
  5
50E
 10
16.4
 20
5.2
 30
0.0
 40
0.3
 50
63.43495
 51
180.0
  0
ARC
  8
OUTLINE
 62
     7
  5
50F
 10
9.5
 20
5.2
 30
0.0
 40
0.3
 50
63.43495
 51
180.0
  0
ARC
  8
OUTLINE
 62
     7
  5
510
 10
16.8
 20
5.0
 30
0.0
 40
0.3
 50
0.0
 51
63.434948
  0
ARC
  8
OUTLINE
 62
     7
  5
511
 10
9.9
 20
5.0
 30
0.0
 40
0.3
 50
0.0
 51
63.434948
  0
ARC
  8
OUTLINE
 62
     7
  5
512
 10
16.4
 20
0.4
 30
0.0
 40
0.3
 50
180.0
 51
296.565047
  0
ARC
  8
OUTLINE
 62
     7
  5
513
 10
9.5
 20
0.4
 30
0.0
 40
0.3
 50
180.0
 51
296.565047
  0
ARC
  8
OUTLINE
 62
     7
  5
514
 10
16.8
 20
0.6
 30
0.0
 40
0.3
 50
296.565055
 51
360.0
  0
ARC
  8
OUTLINE
 62
     7
  5
515
 10
9.9
 20
0.6
 30
0.0
 40
0.3
 50
296.565055
 51
360.0
  0
LINE
  8
OUTLINE
 62
     7
  5
516
 10
16.534164
 20
5.468328
 30
0.0
 11
16.934164
 21
5.268328
 31
0.0
  0
LINE
  8
OUTLINE
 62
     7
  5
517
 10
9.634164
 20
5.468328
 30
0.0
 11
10.034164
 21
5.268328
 31
0.0
  0
LINE
  8
OUTLINE
 62
     7
  5
518
 10
16.534164
 20
0.131672
 30
0.0
 11
16.934164
 21
0.331672
 31
0.0
  0
LINE
  8
OUTLINE
 62
     7
  5
519
 10
9.634164
 20
0.131672
 30
0.0
 11
10.034164
 21
0.331672
 31
0.0
  0
LINE
  8
OUTLINE
 62
     7
  5
51A
 10
11.5
 20
6.9
 30
0.0
 11
11.5
 21
7.9
 31
0.0
  0
LINE
  8
OUTLINE
 62
     7
  5
51B
 10
4.6
 20
6.9
 30
0.0
 11
4.6
 21
7.9
 31
0.0
  0
LINE
  8
OUTLINE
 62
     7
  5
51C
 10
11.5
 20
7.9
 30
0.0
 11
16.6
 21
7.9
 31
0.0
  0
LINE
  8
OUTLINE
 62
     7
  5
51D
 10
4.6
 20
7.9
 30
0.0
 11
9.7
 21
7.9
 31
0.0
  0
LINE
  8
OUTLINE
 62
     7
  5
51E
 10
16.6
 20
7.9
 30
0.0
 11
16.6
 21
5.43541
 31
0.0
  0
LINE
  8
OUTLINE
 62
     7
  5
51F
 10
9.7
 20
7.9
 30
0.0
 11
9.7
 21
5.43541
 31
0.0
  0
LINE
  8
OUTLINE
 62
     7
  5
520
 10
11.5
 20
-1.6
 30
0.0
 11
11.5
 21
-1.9
 31
0.0
  0
LINE
  8
OUTLINE
 62
     7
  5
521
 10
4.6
 20
-1.6
 30
0.0
 11
4.6
 21
-1.9
 31
0.0
  0
LINE
  8
OUTLINE
 62
     7
  5
522
 10
11.5
 20
-1.9
 30
0.0
 11
16.6
 21
-1.9
 31
0.0
  0
LINE
  8
OUTLINE
 62
     7
  5
523
 10
4.6
 20
-1.9
 30
0.0
 11
9.7
 21
-1.9
 31
0.0
  0
LINE
  8
OUTLINE
 62
     7
  5
524
 10
16.6
 20
-1.9
 30
0.0
 11
16.6
 21
0.16459
 31
0.0
  0
LINE
  8
OUTLINE
 62
     7
  5
525
 10
9.7
 20
-1.9
 30
0.0
 11
9.7
 21
0.16459
 31
0.0
  0
LINE
  8
INTERNALS
 62
     7
  5
526
 10
14.0
 20
4.2
 30
0.0
 11
15.3
 21
4.2
 31
0.0
  0
LINE
  8
INTERNALS
 62
     7
  5
527
 10
14.0
 20
3.7
 30
0.0
 11
15.2
 21
3.7
 31
0.0
  0
LINE
  8
INTERNALS
 62
     7
  5
528
 10
14.0
 20
3.2
 30
0.0
 11
15.1
 21
3.2
 31
0.0
  0
LINE
  8
INTERNALS
 62
     7
  5
529
 10
15.1
 20
3.2
 30
0.0
 11
15.1
 21
2.8
 31
0.0
  0
LINE
  8
INTERNALS
 62
     7
  5
52A
 10
15.1
 20
2.8
 30
0.0
 11
16.238557
 21
2.8
 31
0.0
  0
LINE
  8
INTERNALS
 62
     7
  5
52B
 10
14.0
 20
2.7
 30
0.0
 11
15.0
 21
2.7
 31
0.0
  0
LINE
  8
INTERNALS
 62
     7
  5
52C
 10
15.0
 20
2.7
 30
0.0
 11
15.0
 21
2.4
 31
0.0
  0
LINE
  8
INTERNALS
 62
     7
  5
52D
 10
15.0
 20
2.4
 30
0.0
 11
16.238557
 21
2.4
 31
0.0
  0
LINE
  8
INTERNALS
 62
     7
  5
52E
 10
14.0
 20
2.2
 30
0.0
 11
14.9
 21
2.2
 31
0.0
  0
LINE
  8
INTERNALS
 62
     7
  5
52F
 10
14.9
 20
2.2
 30
0.0
 11
14.9
 21
2.0
 31
0.0
  0
LINE
  8
INTERNALS
 62
     7
  5
530
 10
14.9
 20
2.0
 30
0.0
 11
16.238557
 21
2.0
 31
0.0
  0
LINE
  8
INTERNALS
 62
     7
  5
531
 10
14.0
 20
1.7
 30
0.0
 11
14.8
 21
1.7
 31
0.0
  0
LINE
  8
INTERNALS
 62
     7
  5
532
 10
14.8
 20
1.7
 30
0.0
 11
14.8
 21
1.6
 31
0.0
  0
LINE
  8
INTERNALS
 62
     7
  5
533
 10
14.8
 20
1.6
 30
0.0
 11
16.238557
 21
1.6
 31
0.0
  0
LINE
  8
INTERNALS
 62
     7
  5
534
 10
14.0
 20
1.2
 30
0.0
 11
16.238557
 21
1.2
 31
0.0
  0
LINE
  8
INTERNALS
 62
     7
  5
535
 10
14.0
 20
0.7
 30
0.0
 11
14.8
 21
0.7
 31
0.0
  0
LINE
  8
INTERNALS
 62
     7
  5
536
 10
14.8
 20
0.7
 30
0.0
 11
14.8
 21
0.8
 31
0.0
  0
LINE
  8
INTERNALS
 62
     7
  5
537
 10
14.8
 20
0.8
 30
0.0
 11
16.238557
 21
0.8
 31
0.0
  0
TEXT
  8
STANDARD
 62
     7
  5
538
 10
13.505
 20
7.5
 30
0.0
 40
0.2
  1
parport.0
  7
STYLE1
 72
     1
 11
14.0
 21
7.6
 31
0.0
 73
     2
  0
TEXT
  8
STANDARD
 62
     7
  5
539
 10
6.605
 20
7.5
 30
0.0
 40
0.2
  1
parport.0
  7
STYLE1
 72
     1
 11
7.1
 21
7.6
 31
0.0
 73
     2
  0
TEXT
  8
STANDARD
 62
     7
  5
53A
 10
13.21625
 20
7.125
 30
0.0
 40
0.15
  1
configured as input
  7
STYLE1
 72
     1
 11
14.0
 21
7.2
 31
0.0
 73
     2
  0
TEXT
  8
STANDARD
 62
     7
  5
53B
 10
6.275
 20
7.125
 30
0.0
 40
0.15
  1
configured as output
  7
STYLE1
 72
     1
 11
7.1
 21
7.2
 31
0.0
 73
     2
  0
ENDSEC
  0
EOF
