999
dxflib 2.0.4.8
  0
SECTION
  2
HEADER
  9
$ACADVER
  1
AC1015
  9
$HANDSEED
  5
FFFF
  9
$DIMTAD
 70
0
  9
$AXISUNIT
 10
0.0
 20
0.0
 30
0.0
  9
$USERR4
 40
0.0
  9
$CLAYER
  8
0
  9
$MENU
  1
acad
  9
$CHAMFERA
 40
0.0
  9
$ATTREQ
 70
1
  9
$UCSYDIR
 10
0.0
 20
1.0
 30
0.0
  9
$USERR5
 40
0.0
  9
$SHADEDIF
 70
70
  9
$TILEMODE
 70
1
  9
$VISRETAIN
 70
0
  9
$DIMASZ
 40
0.18
  9
$GRIDUNIT
 10
0.0
 20
0.0
  9
$DIMADEC
 70
0
  9
$EXTMIN
 10
4.3365
 20
-1.9490000000000001
 30
0.0
  9
$ORTHOMODE
 70
0
  9
$REGENMODE
 70
1
  9
$TRACEWID
 40
0.05
  9
$CHAMFERB
 40
0.0
  9
$UCSXDIR
 10
1.0
 20
0.0
 30
0.0
  9
$DIMGAP
 40
0.09
  9
$DIMSHO
 70
1
  9
$DIMALT
 70
0
  9
$DIMSAH
 70
0
  9
$DIMTFAC
 40
1.0
  9
$SKETCHINC
 40
0.1
  9
$USRTIMER
 70
1
  9
$ANGBASE
 50
0.0
  9
$PUCSYDIR
 10
0.0
 20
1.0
 30
0.0
  9
$LIMMIN
 10
0.0
 20
0.0
  9
$DIMTSZ
 40
0.0
  9
$AXISMODE
 70
0
  9
$SPLFRAME
 70
0
  9
$SURFTYPE
 70
6
  9
$PUCSXDIR
 10
1.0
 20
0.0
 30
0.0
  9
$SPLINESEGS
 70
8
  9
$AUPREC
 70
0
  9
$LUNITS
 70
2
  9
$BLIPMODE
 70
1
  9
$SURFTAB1
 70
6
  9
$DWGCODEPAGE
  3
dos850
  9
$INSBASE
 10
0.0
 20
0.0
 30
0.0
  9
$DIMRND
 40
0.0
  9
$DIMCEN
 40
0.09
  9
$ELEVATION
 40
0.0
  9
$SKPOLY
 70
0
  9
$SURFTAB2
 70
6
  9
$USERI1
 70
0
  9
$UNITMODE
 70
0
  9
$DIMEXO
 40
0.0625
  9
$INSUNITS
 70
4
  9
$EXTMAX
 10
17.1634999999999991
 20
7.9489999999999998
 30
0.0
  9
$FILLMODE
 70
1
  9
$DRAGMODE
 70
2
  9
$TEXTSIZE
 40
0.2
  9
$PELEVATION
 40
0.0
  9
$UCSORG
 10
0.0
 20
0.0
 30
0.0
  9
$USERI2
 70
0
  9
$DIMSCALE
 40
1.0
  9
$DIMDLE
 40
0.0
  9
$DIMZIN
 70
0
  9
$TDUSRTIMER
 40
0.0
  9
$ANGDIR
 70
0
  9
$SURFU
 70
6
  9
$USERI3
 70
0
  9
$DIMLUNIT
 70
2
  9
$LIMMAX
 10
0.0
 20
0.0
  9
$QTEXTMODE
 70
0
  9
$OSMODE
 70
0
  9
$SURFV
 70
6
  9
$USERI4
 70
0
  9
$WORLDVIEW
 70
1
  9
$DIMTXT
 40
0.18
  9
$GRIDMODE
 70
1
  9
$ATTMODE
 70
1
  9
$DIMLIM
 70
0
  9
$DIMSE1
 70
0
  9
$THICKNESS
 40
0.0
  9
$LIMCHECK
 70
0
  9
$PDMODE
 70
0
  9
$HANDLING
 70
1
  9
$USERI5
 70
0
  9
$LUPREC
 70
4
  9
$CELTYPE
  6
CONTINUOUS
  9
$DIMTOH
 70
1
  9
$DIMSE2
 70
0
  9
$DIMLFAC
 40
1.0
  9
$DIMSOXD
 70
0
  9
$TDINDWG
 40
0.0
  9
$SPLINETYPE
 70
6
  9
$PUCSORG
 10
0.0
 20
0.0
 30
0.0
  9
$PEXTMIN
 10
100000000000000000000.0
 20
100000000000000000000.0
 30
100000000000000000000.0
  9
$PEXTMAX
 10
-100000000000000000000.0
 20
-100000000000000000000.0
 30
-100000000000000000000.0
  9
$CECOLOR
 62
256
  9
$DIMDLI
 40
0.38
  9
$DIMTM
 40
0.0
  9
$DIMASO
 70
1
  9
$DIMTVP
 40
0.0
  9
$DIMSTYLE
  2
STANDARD
  9
$PLINEWID
 40
0.0
  9
$PLIMCHECK
 70
0
  9
$PLIMMAX
 10
210.0
 20
160.0
  9
$PLIMMIN
 10
0.0
 20
0.0
  9
$LTSCALE
 40
1.0
  9
$DIMTIH
 70
1
  9
$DIMALTD
 70
2
  9
$DIMCLRT
 70
0
  9
$FILLETRAD
 40
0.0
  9
$TDUPDATE
 40
0.0
  9
$MAXACTVP
 70
16
  9
$TREEDEPTH
 70
3020
  9
$DIMEXE
 40
0.18
  9
$PINSBASE
 10
91.1638951197480623
 20
146.9242481748095202
 30
0.0
  9
$DIMCLRD
 70
0
  9
$PDSIZE
 40
0.0
  9
$ATTDIA
 70
0
  9
$USERR1
 40
0.0
  9
$DIMAUNIT
 70
0
  9
$TEXTSTYLE
  7
STANDARD
  9
$DIMTP
 40
0.0
  9
$DIMTOL
 70
0
  9
$DIMALTF
 40
25.3999999999999986
  9
$DIMTOFL
 70
0
  9
$DIMCLRE
 70
0
  9
$TDCREATE
 40
0.0
  9
$COORDS
 70
0
  9
$USERR2
 40
0.0
  9
$SHADEDGE
 70
3
  9
$PLINEGEN
 70
1
  9
$PSLTSCALE
 70
0
  9
$AUNITS
 70
0
  9
$MIRRTEXT
 70
1
  9
$DIMTIX
 70
0
  9
$USERR3
 40
0.0
  0
ENDSEC
  0
SECTION
  2
TABLES
  0
TABLE
  2
VPORT
  5
8
100
AcDbSymbolTable
 70
1
  0
VPORT
  5
30
100
AcDbSymbolTableRecord
100
AcDbViewportTableRecord
  2
*Active
 70
0
 10
0.0
 20
0.0
 11
1.0
 21
1.0
 12
286.3055555555554861
 22
148.5
 13
0.0
 23
0.0
 14
10.0
 24
10.0
 15
10.0
 25
10.0
 16
0.0
 26
0.0
 36
1.0
 17
0.0
 27
0.0
 37
0.0
 40
297.0
 41
1.92798353909465
 42
50.0
 43
0.0
 44
0.0
 50
0.0
 51
0.0
 71
0
 72
100
 73
1
 74
3
 75
1
 76
1
 77
0
 78
0
281
0
 65
1
110
0.0
120
0.0
130
0.0
111
1.0
121
0.0
131
0.0
112
0.0
122
1.0
132
0.0
 79
0
146
0.0
  0
ENDTAB
  0
TABLE
  2
LTYPE
  5
5
100
AcDbSymbolTable
 70
21
  0
LTYPE
  5
14
100
AcDbSymbolTableRecord
100
AcDbLinetypeTableRecord
  2
ByBlock
 70
0
  3

 72
65
 73
0
 40
0.0
  0
LTYPE
  5
15
100
AcDbSymbolTableRecord
100
AcDbLinetypeTableRecord
  2
ByLayer
 70
0
  3

 72
65
 73
0
 40
0.0
  0
LTYPE
  5
16
100
AcDbSymbolTableRecord
100
AcDbLinetypeTableRecord
  2
CONTINUOUS
 70
0
  3
Solid line
 72
65
 73
0
 40
0.0
  0
LTYPE
  5
31
100
AcDbSymbolTableRecord
100
AcDbLinetypeTableRecord
  2
DOT
 70
0
  3
Dot . . . . . . . . . . . . . . . . . . . . . .
 72
65
 73
2
 40
6.3499999999999996
 49
0.0
 74
0
 49
-6.3499999999999996
 74
0
  0
LTYPE
  5
32
100
AcDbSymbolTableRecord
100
AcDbLinetypeTableRecord
  2
DOT2
 70
0
  3
Dot (.5x) .....................................
 72
65
 73
2
 40
3.1749999999999998
 49
0.0
 74
0
 49
-3.1749999999999998
 74
0
  0
LTYPE
  5
33
100
AcDbSymbolTableRecord
100
AcDbLinetypeTableRecord
  2
DOTX2
 70
0
  3
Dot (2x) .  .  .  .  .  .  .  .  .  .  .  .  .
 72
65
 73
2
 40
12.6999999999999993
 49
0.0
 74
0
 49
-12.6999999999999993
 74
0
  0
LTYPE
  5
34
100
AcDbSymbolTableRecord
100
AcDbLinetypeTableRecord
  2
DASHED
 70
0
  3
Dashed __ __ __ __ __ __ __ __ __ __ __ __ __ _
 72
65
 73
2
 40
19.0500000000000007
 49
12.6999999999999993
 74
0
 49
-6.3499999999999996
 74
0
  0
LTYPE
  5
35
100
AcDbSymbolTableRecord
100
AcDbLinetypeTableRecord
  2
DASHED2
 70
0
  3
Dashed (.5x) _ _ _ _ _ _ _ _ _ _ _ _ _ _ _ _ _
 72
65
 73
2
 40
9.5250000000000004
 49
6.3499999999999996
 74
0
 49
-3.1749999999999998
 74
0
  0
LTYPE
  5
36
100
AcDbSymbolTableRecord
100
AcDbLinetypeTableRecord
  2
DASHEDX2
 70
0
  3
Dashed (2x) ____  ____  ____  ____  ____  ___
 72
65
 73
2
 40
38.1000000000000014
 49
25.3999999999999986
 74
0
 49
-12.6999999999999993
 74
0
  0
LTYPE
  5
37
100
AcDbSymbolTableRecord
100
AcDbLinetypeTableRecord
  2
DASHDOT
 70
0
  3
Dash dot __ . __ . __ . __ . __ . __ . __ . __
 72
65
 73
4
 40
25.3999999999999986
 49
12.6999999999999993
 74
0
 49
-6.3499999999999996
 74
0
 49
0.0
 74
0
 49
-6.3499999999999996
 74
0
  0
LTYPE
  5
38
100
AcDbSymbolTableRecord
100
AcDbLinetypeTableRecord
  2
DASHDOT2
 70
0
  3
Dash dot (.5x) _._._._._._._._._._._._._._._.
 72
65
 73
4
 40
12.6999999999999993
 49
6.3499999999999996
 74
0
 49
-3.1749999999999998
 74
0
 49
0.0
 74
0
 49
-3.1749999999999998
 74
0
  0
LTYPE
  5
39
100
AcDbSymbolTableRecord
100
AcDbLinetypeTableRecord
  2
DASHDOTX2
 70
0
  3
Dash dot (2x) ____  .  ____  .  ____  .  ___
 72
65
 73
4
 40
50.7999999999999972
 49
25.3999999999999986
 74
0
 49
-12.6999999999999993
 74
0
 49
0.0
 74
0
 49
-12.6999999999999993
 74
0
  0
LTYPE
  5
3A
100
AcDbSymbolTableRecord
100
AcDbLinetypeTableRecord
  2
DIVIDE
 70
0
  3
Divide ____ . . ____ . . ____ . . ____ . . ____
 72
65
 73
6
 40
31.75
 49
12.6999999999999993
 74
0
 49
-6.3499999999999996
 74
0
 49
0.0
 74
0
 49
-6.3499999999999996
 74
0
 49
0.0
 74
0
 49
-6.3499999999999996
 74
0
  0
LTYPE
  5
3B
100
AcDbSymbolTableRecord
100
AcDbLinetypeTableRecord
  2
DIVIDE2
 70
0
  3
Divide (.5x) __..__..__..__..__..__..__..__.._
 72
65
 73
6
 40
15.875
 49
6.3499999999999996
 74
0
 49
-3.1749999999999998
 74
0
 49
0.0
 74
0
 49
-3.1749999999999998
 74
0
 49
0.0
 74
0
 49
-3.1749999999999998
 74
0
  0
LTYPE
  5
3C
100
AcDbSymbolTableRecord
100
AcDbLinetypeTableRecord
  2
DIVIDEX2
 70
0
  3
Divide (2x) ________  .  .  ________  .  .  _
 72
65
 73
6
 40
63.5
 49
25.3999999999999986
 74
0
 49
-12.6999999999999993
 74
0
 49
0.0
 74
0
 49
-12.6999999999999993
 74
0
 49
0.0
 74
0
 49
-12.6999999999999993
 74
0
  0
LTYPE
  5
3D
100
AcDbSymbolTableRecord
100
AcDbLinetypeTableRecord
  2
CENTER
 70
0
  3
Center ____ _ ____ _ ____ _ ____ _ ____ _ ____
 72
65
 73
4
 40
50.7999999999999972
 49
31.75
 74
0
 49
-6.3499999999999996
 74
0
 49
6.3499999999999996
 74
0
 49
-6.3499999999999996
 74
0
  0
LTYPE
  5
3E
100
AcDbSymbolTableRecord
100
AcDbLinetypeTableRecord
  2
CENTER2
 70
0
  3
Center (.5x) ___ _ ___ _ ___ _ ___ _ ___ _ ___
 72
65
 73
4
 40
28.5749999999999993
 49
19.0500000000000007
 74
0
 49
-3.1749999999999998
 74
0
 49
3.1749999999999998
 74
0
 49
-3.1749999999999998
 74
0
  0
LTYPE
  5
3F
100
AcDbSymbolTableRecord
100
AcDbLinetypeTableRecord
  2
CENTERX2
 70
0
  3
Center (2x) ________  __  ________  __  _____
 72
65
 73
4
 40
101.5999999999999943
 49
63.5
 74
0
 49
-12.6999999999999993
 74
0
 49
12.6999999999999993
 74
0
 49
-12.6999999999999993
 74
0
  0
LTYPE
  5
40
100
AcDbSymbolTableRecord
100
AcDbLinetypeTableRecord
  2
BORDER
 70
0
  3
Border __ __ . __ __ . __ __ . __ __ . __ __ .
 72
65
 73
6
 40
44.4500000000000028
 49
12.6999999999999993
 74
0
 49
-6.3499999999999996
 74
0
 49
12.6999999999999993
 74
0
 49
-6.3499999999999996
 74
0
 49
0.0
 74
0
 49
-6.3499999999999996
 74
0
  0
LTYPE
  5
41
100
AcDbSymbolTableRecord
100
AcDbLinetypeTableRecord
  2
BORDER2
 70
0
  3
Border (.5x) __.__.__.__.__.__.__.__.__.__.__.
 72
65
 73
6
 40
22.2250000000000014
 49
6.3499999999999996
 74
0
 49
-3.1749999999999998
 74
0
 49
6.3499999999999996
 74
0
 49
-3.1749999999999998
 74
0
 49
0.0
 74
0
 49
-3.1749999999999998
 74
0
  0
LTYPE
  5
42
100
AcDbSymbolTableRecord
100
AcDbLinetypeTableRecord
  2
BORDERX2
 70
0
  3
Border (2x) ____  ____  .  ____  ____  .  ___
 72
65
 73
6
 40
88.9000000000000057
 49
25.3999999999999986
 74
0
 49
-12.6999999999999993
 74
0
 49
25.3999999999999986
 74
0
 49
-12.6999999999999993
 74
0
 49
0.0
 74
0
 49
-12.6999999999999993
 74
0
  0
ENDTAB
  0
TABLE
  2
LAYER
  5
2
100
AcDbSymbolTable
 70
7
  0
LAYER
  5
10
100
AcDbSymbolTableRecord
100
AcDbLayerTableRecord
  2
0
 70
0
 62
7
  6
CONTINUOUS
390
F
  0
LAYER
  5
43
100
AcDbSymbolTableRecord
100
AcDbLayerTableRecord
  2
MERGE
 70
0
 62
7
  6
CONTINUOUS
390
F
  0
LAYER
  5
44
100
AcDbSymbolTableRecord
100
AcDbLayerTableRecord
  2
STANDARD
 70
0
 62
7
  6
CONTINUOUS
390
F
  0
LAYER
  5
45
100
AcDbSymbolTableRecord
100
AcDbLayerTableRecord
  2
PINS
 70
0
 62
7
  6
CONTINUOUS
390
F
  0
LAYER
  5
46
100
AcDbSymbolTableRecord
100
AcDbLayerTableRecord
  2
PARAMS
 70
0
 62
7
  6
CONTINUOUS
390
F
  0
LAYER
  5
47
100
AcDbSymbolTableRecord
100
AcDbLayerTableRecord
  2
OUTLINE
 70
0
 62
7
  6
CONTINUOUS
390
F
  0
LAYER
  5
48
100
AcDbSymbolTableRecord
100
AcDbLayerTableRecord
  2
INTERNALS
 70
0
 62
7
  6
CONTINUOUS
390
F
  0
ENDTAB
  0
TABLE
  2
STYLE
  5
3
100
AcDbSymbolTable
 70
1
  0
STYLE
  5
11
100
AcDbSymbolTableRecord
100
AcDbTextStyleTableRecord
  2
Standard
 70
0
 40
0.0
 41
0.75
 50
0.0
 71
0
 42
2.5
  3
txt
  4

  0
ENDTAB
  0
TABLE
  2
VIEW
  5
6
100
AcDbSymbolTable
 70
0
  0
ENDTAB
  0
TABLE
  2
UCS
  5
7
100
AcDbSymbolTable
 70
0
  0
ENDTAB
  0
TABLE
  2
APPID
  5
9
100
AcDbSymbolTable
 70
1
  0
APPID
  5
12
100
AcDbSymbolTableRecord
100
AcDbRegAppTableRecord
  2
ACAD
 70
0
  0
ENDTAB
  0
TABLE
  2
DIMSTYLE
  5
A
100
AcDbSymbolTable
 70
1
100
AcDbDimStyleTable
 71
0
  0
DIMSTYLE
105
27
100
AcDbSymbolTableRecord
100
AcDbDimStyleTableRecord
  2
Standard
 41
0.18
 42
0.0625
 43
3.75
 44
0.18
 70
0
 73
0
 74
0
 77
1
 78
8
140
0.18
141
2.5
143
0.03937007874016
147
0.09
171
3
172
1
271
2
272
2
274
3
278
44
283
0
284
8
340
11
  0
ENDTAB
  0
TABLE
  2
BLOCK_RECORD
  5
1
100
AcDbSymbolTable
 70
1
  0
BLOCK_RECORD
  5
1F
100
AcDbSymbolTableRecord
100
AcDbBlockTableRecord
  2
*Model_Space
340
22
  0
BLOCK_RECORD
  5
1B
100
AcDbSymbolTableRecord
100
AcDbBlockTableRecord
  2
*Paper_Space
340
1E
  0
BLOCK_RECORD
  5
23
100
AcDbSymbolTableRecord
100
AcDbBlockTableRecord
  2
*Paper_Space0
340
26
  0
ENDTAB
  0
ENDSEC
  0
SECTION
  2
BLOCKS
  0
BLOCK
  5
20
100
AcDbEntity
  8
0
100
AcDbBlockBegin
  2
*Model_Space
 70
0
 10
0.0
 20
0.0
 30
0.0
  3
*Model_Space
  1

  0
ENDBLK
  5
21
100
AcDbEntity
  8
0
100
AcDbBlockEnd
  0
BLOCK
  5
1C
100
AcDbEntity
 67
1
  8
0
100
AcDbBlockBegin
  2
*Paper_Space
 70
0
 10
0.0
 20
0.0
 30
0.0
  3
*Paper_Space
  1

  0
ENDBLK
  5
1D
100
AcDbEntity
 67
1
  8
0
100
AcDbBlockEnd
  0
BLOCK
  5
24
100
AcDbEntity
  8
0
100
AcDbBlockBegin
  2
*Paper_Space0
 70
0
 10
0.0
 20
0.0
 30
0.0
  3
*Paper_Space0
  1

  0
ENDBLK
  5
25
100
AcDbEntity
  8
0
100
AcDbBlockEnd
  0
ENDSEC
  0
SECTION
  2
ENTITIES
  0
LINE
  5
49
100
AcDbEntity
100
AcDbLine
  8
PINS
 62
7
370
25
  6
ByLayer
 10
24.5993417798152478
 20
-61.6481837643292394
 30
0.0
 11
23.0993417798152549
 21
-60.1481837643292394
 31
0.0
  0
LINE
  5
4A
100
AcDbEntity
100
AcDbLine
  8
PINS
 62
7
370
25
  6
ByLayer
 10
23.0993417798152549
 20
-60.1481837643292394
 30
0.0
 11
24.5993417798152478
 21
-58.6481837643292394
 31
0.0
  0
LINE
  5
4B
100
AcDbEntity
100
AcDbLine
  8
PINS
 62
7
370
25
  6
ByLayer
 10
24.5993417798152478
 20
-58.6481837643292394
 30
0.0
 11
44.0993417798152265
 21
-58.6481837643292394
 31
0.0
  0
LINE
  5
4C
100
AcDbEntity
100
AcDbLine
  8
PINS
 62
7
370
25
  6
ByLayer
 10
44.0993417798152265
 20
-58.6481837643292394
 30
0.0
 11
44.0993417798152265
 21
-61.6481837643292394
 31
0.0
  0
LINE
  5
4D
100
AcDbEntity
100
AcDbLine
  8
PINS
 62
7
370
25
  6
ByLayer
 10
44.0993417798152265
 20
-61.6481837643292394
 30
0.0
 11
24.5993417798152478
 21
-61.6481837643292394
 31
0.0
  0
LINE
  5
4E
100
AcDbEntity
100
AcDbLine
  8
OUTLINE
 62
7
370
25
  6
ByLayer
 10
24.5993417798152478
 20
-61.6481837643292394
 30
0.0
 11
24.5993417798152478
 21
-61.6481837643292394
 31
0.0
  0
LINE
  5
4F
100
AcDbEntity
100
AcDbLine
  8
PINS
 62
7
370
25
  6
ByLayer
 10
24.5993417798152478
 20
-58.6481837643292394
 30
0.0
 11
23.0993417798152549
 21
-57.1481837643292465
 31
0.0
  0
LINE
  5
50
100
AcDbEntity
100
AcDbLine
  8
PINS
 62
7
370
25
  6
ByLayer
 10
23.0993417798152549
 20
-57.1481837643292465
 30
0.0
 11
24.5993417798152478
 21
-55.6481837643292394
 31
0.0
  0
LINE
  5
51
100
AcDbEntity
100
AcDbLine
  8
PINS
 62
7
370
25
  6
ByLayer
 10
24.5993417798152478
 20
-55.6481837643292394
 30
0.0
 11
44.0993417798152265
 21
-55.6481837643292394
 31
0.0
  0
LINE
  5
52
100
AcDbEntity
100
AcDbLine
  8
PINS
 62
7
370
25
  6
ByLayer
 10
44.0993417798152265
 20
-55.6481837643292394
 30
0.0
 11
44.0993417798152265
 21
-58.6481837643292394
 31
0.0
  0
LINE
  5
53
100
AcDbEntity
100
AcDbLine
  8
PINS
 62
7
370
25
  6
ByLayer
 10
44.0993417798152265
 20
-58.6481837643292394
 30
0.0
 11
24.5993417798152478
 21
-58.6481837643292394
 31
0.0
  0
LINE
  5
54
100
AcDbEntity
100
AcDbLine
  8
OUTLINE
 62
7
370
25
  6
ByLayer
 10
24.5993417798152478
 20
-58.6481837643292394
 30
0.0
 11
24.5993417798152478
 21
-58.6481837643292394
 31
0.0
  0
MTEXT
  5
55
100
AcDbEntity
100
AcDbMText
  8
PINS
 62
7
370
25
  6
ByLayer
 10
33.5993417798152407
 20
-60.1481837643292394
 30
0.0
 40
1.8
 41
1500.0
 71
5
 72
2
  1
pin-8-in-not
  7
romand
 50
0.0
 73
1
 44
1.0
  0
MTEXT
  5
56
100
AcDbEntity
100
AcDbMText
  8
PINS
 62
7
370
25
  6
ByLayer
 10
33.5993417798152407
 20
-57.1481837643292465
 30
0.0
 40
1.8
 41
1500.0
 71
5
 72
2
  1
pin-8-in
  7
romand
 50
0.0
 73
1
 44
1.0
  0
CIRCLE
  5
57
100
AcDbEntity
100
AcDbCircle
  8
INTERNALS
 62
7
370
25
  6
ByLayer
 10
48.9743417798152478
 20
-60.1481837643292394
 30
0.0
 40
0.375
  0
LWPOLYLINE
  5
58
  8
INTERNALS
 62
7
370
25
  6
ByLayer
100
AcDbEntity
100
AcDbPolyline
 90
5
 70
1
 10
49.3493417798152549
 20
-60.1481837643292394
 10
53.0993417798152549
 20
-57.8981837643292394
 10
53.0993417798152549
 20
-62.3981837643292394
 10
49.3493417798152549
 20
-60.1481837643292394
 10
49.3493417798152549
 20
-60.1481837643292394
  0
LINE
  5
59
100
AcDbEntity
100
AcDbLine
  8
INTERNALS
 62
7
370
25
  6
ByLayer
 10
44.0993417798152265
 20
-57.1481837643292465
 30
0.0
 11
56.0993417798152407
 21
-57.1481837643292465
 31
0.0
  0
LINE
  5
5A
100
AcDbEntity
100
AcDbLine
  8
INTERNALS
 62
7
370
25
  6
ByLayer
 10
56.0993417798152407
 20
-57.1481837643292465
 30
0.0
 11
56.0993417798152407
 21
-60.1481837643292394
 31
0.0
  0
LINE
  5
5B
100
AcDbEntity
100
AcDbLine
  8
INTERNALS
 62
7
370
25
  6
ByLayer
 10
56.0993417798152407
 20
-60.1481837643292394
 30
0.0
 11
53.0993417798152549
 21
-60.1481837643292394
 31
0.0
  0
LINE
  5
5C
100
AcDbEntity
100
AcDbLine
  8
INTERNALS
 62
7
370
25
  6
ByLayer
 10
48.5993417798152407
 20
-60.1481837643292394
 30
0.0
 11
44.0993417798152265
 21
-60.1481837643292394
 31
0.0
  0
LWPOLYLINE
  5
5D
  8
INTERNALS
 62
7
370
25
  6
ByLayer
100
AcDbEntity
100
AcDbPolyline
 90
5
 70
1
 10
59.0993417798152265
 20
-58.6481837643292394
 10
63.5993417798152407
 20
-56.3981837643292394
 10
63.5993417798152407
 20
-60.8981837643292465
 10
59.0993417798152265
 20
-58.6481837643292394
 10
59.0993417798152265
 20
-58.6481837643292394
  0
LINE
  5
5E
100
AcDbEntity
100
AcDbLine
  8
INTERNALS
 62
7
370
25
  6
ByLayer
 10
59.0993417798152265
 20
-58.6481837643292394
 30
0.0
 11
56.0993417798152407
 21
-58.6481837643292394
 31
0.0
  0
CIRCLE
  5
5F
100
AcDbEntity
100
AcDbCircle
  8
INTERNALS
 62
7
370
25
  6
ByLayer
 10
56.0993417798152407
 20
-58.6481837643292394
 30
0.0
 40
0.3
  0
LINE
  5
60
100
AcDbEntity
100
AcDbLine
  8
PINS
 62
7
370
25
  6
ByLayer
 10
24.5993417798152478
 20
-69.1481837643292465
 30
0.0
 11
23.0993417798152549
 21
-67.6481837643292465
 31
0.0
  0
LINE
  5
61
100
AcDbEntity
100
AcDbLine
  8
PINS
 62
7
370
25
  6
ByLayer
 10
23.0993417798152549
 20
-67.6481837643292465
 30
0.0
 11
24.5993417798152478
 21
-66.1481837643292465
 31
0.0
  0
LINE
  5
62
100
AcDbEntity
100
AcDbLine
  8
PINS
 62
7
370
25
  6
ByLayer
 10
24.5993417798152478
 20
-66.1481837643292465
 30
0.0
 11
44.0993417798152265
 21
-66.1481837643292465
 31
0.0
  0
LINE
  5
63
100
AcDbEntity
100
AcDbLine
  8
PINS
 62
7
370
25
  6
ByLayer
 10
44.0993417798152265
 20
-66.1481837643292465
 30
0.0
 11
44.0993417798152265
 21
-69.1481837643292465
 31
0.0
  0
LINE
  5
64
100
AcDbEntity
100
AcDbLine
  8
PINS
 62
7
370
25
  6
ByLayer
 10
44.0993417798152265
 20
-69.1481837643292465
 30
0.0
 11
24.5993417798152478
 21
-69.1481837643292465
 31
0.0
  0
LINE
  5
65
100
AcDbEntity
100
AcDbLine
  8
OUTLINE
 62
7
370
25
  6
ByLayer
 10
24.5993417798152478
 20
-69.1481837643292465
 30
0.0
 11
24.5993417798152478
 21
-69.1481837643292465
 31
0.0
  0
LINE
  5
66
100
AcDbEntity
100
AcDbLine
  8
PINS
 62
7
370
25
  6
ByLayer
 10
24.5993417798152478
 20
-66.1481837643292465
 30
0.0
 11
23.0993417798152549
 21
-64.6481837643292465
 31
0.0
  0
LINE
  5
67
100
AcDbEntity
100
AcDbLine
  8
PINS
 62
7
370
25
  6
ByLayer
 10
23.0993417798152549
 20
-64.6481837643292465
 30
0.0
 11
24.5993417798152478
 21
-63.1481837643292394
 31
0.0
  0
LINE
  5
68
100
AcDbEntity
100
AcDbLine
  8
PINS
 62
7
370
25
  6
ByLayer
 10
24.5993417798152478
 20
-63.1481837643292394
 30
0.0
 11
44.0993417798152265
 21
-63.1481837643292394
 31
0.0
  0
LINE
  5
69
100
AcDbEntity
100
AcDbLine
  8
PINS
 62
7
370
25
  6
ByLayer
 10
44.0993417798152265
 20
-63.1481837643292394
 30
0.0
 11
44.0993417798152265
 21
-66.1481837643292465
 31
0.0
  0
LINE
  5
6A
100
AcDbEntity
100
AcDbLine
  8
PINS
 62
7
370
25
  6
ByLayer
 10
44.0993417798152265
 20
-66.1481837643292465
 30
0.0
 11
24.5993417798152478
 21
-66.1481837643292465
 31
0.0
  0
LINE
  5
6B
100
AcDbEntity
100
AcDbLine
  8
OUTLINE
 62
7
370
25
  6
ByLayer
 10
24.5993417798152478
 20
-66.1481837643292465
 30
0.0
 11
24.5993417798152478
 21
-66.1481837643292465
 31
0.0
  0
MTEXT
  5
6C
100
AcDbEntity
100
AcDbMText
  8
PINS
 62
7
370
25
  6
ByLayer
 10
33.5993417798152407
 20
-67.6481837643292465
 30
0.0
 40
1.8
 41
1500.0
 71
5
 72
2
  1
pin-7-in-not
  7
romand
 50
0.0
 73
1
 44
1.0
  0
MTEXT
  5
6D
100
AcDbEntity
100
AcDbMText
  8
PINS
 62
7
370
25
  6
ByLayer
 10
33.5993417798152407
 20
-64.6481837643292465
 30
0.0
 40
1.8
 41
1500.0
 71
5
 72
2
  1
pin-7-in
  7
romand
 50
0.0
 73
1
 44
1.0
  0
CIRCLE
  5
6E
100
AcDbEntity
100
AcDbCircle
  8
INTERNALS
 62
7
370
25
  6
ByLayer
 10
48.9743417798152478
 20
-67.6481837643292465
 30
0.0
 40
0.375
  0
LWPOLYLINE
  5
6F
  8
INTERNALS
 62
7
370
25
  6
ByLayer
100
AcDbEntity
100
AcDbPolyline
 90
5
 70
1
 10
49.3493417798152549
 20
-67.6481837643292465
 10
53.0993417798152549
 20
-65.3981837643292465
 10
53.0993417798152549
 20
-69.8981837643292323
 10
49.3493417798152549
 20
-67.6481837643292465
 10
49.3493417798152549
 20
-67.6481837643292465
  0
LINE
  5
70
100
AcDbEntity
100
AcDbLine
  8
INTERNALS
 62
7
370
25
  6
ByLayer
 10
44.0993417798152265
 20
-64.6481837643292465
 30
0.0
 11
56.0993417798152407
 21
-64.6481837643292465
 31
0.0
  0
LINE
  5
71
100
AcDbEntity
100
AcDbLine
  8
INTERNALS
 62
7
370
25
  6
ByLayer
 10
56.0993417798152407
 20
-64.6481837643292465
 30
0.0
 11
56.0993417798152407
 21
-67.6481837643292465
 31
0.0
  0
LINE
  5
72
100
AcDbEntity
100
AcDbLine
  8
INTERNALS
 62
7
370
25
  6
ByLayer
 10
56.0993417798152407
 20
-67.6481837643292465
 30
0.0
 11
53.0993417798152549
 21
-67.6481837643292465
 31
0.0
  0
LINE
  5
73
100
AcDbEntity
100
AcDbLine
  8
INTERNALS
 62
7
370
25
  6
ByLayer
 10
48.5993417798152407
 20
-67.6481837643292465
 30
0.0
 11
44.0993417798152265
 21
-67.6481837643292465
 31
0.0
  0
LWPOLYLINE
  5
74
  8
INTERNALS
 62
7
370
25
  6
ByLayer
100
AcDbEntity
100
AcDbPolyline
 90
5
 70
1
 10
59.0993417798152265
 20
-66.1481837643292465
 10
63.5993417798152407
 20
-63.8981837643292394
 10
63.5993417798152407
 20
-68.3981837643292465
 10
59.0993417798152265
 20
-66.1481837643292465
 10
59.0993417798152265
 20
-66.1481837643292465
  0
LINE
  5
75
100
AcDbEntity
100
AcDbLine
  8
INTERNALS
 62
7
370
25
  6
ByLayer
 10
59.0993417798152265
 20
-66.1481837643292465
 30
0.0
 11
56.0993417798152407
 21
-66.1481837643292465
 31
0.0
  0
CIRCLE
  5
76
100
AcDbEntity
100
AcDbCircle
  8
INTERNALS
 62
7
370
25
  6
ByLayer
 10
56.0993417798152407
 20
-66.1481837643292465
 30
0.0
 40
0.3
  0
LINE
  5
77
100
AcDbEntity
100
AcDbLine
  8
PINS
 62
7
370
25
  6
ByLayer
 10
24.5993417798152478
 20
-76.6481837643292465
 30
0.0
 11
23.0993417798152549
 21
-75.1481837643292465
 31
0.0
  0
LINE
  5
78
100
AcDbEntity
100
AcDbLine
  8
PINS
 62
7
370
25
  6
ByLayer
 10
23.0993417798152549
 20
-75.1481837643292465
 30
0.0
 11
24.5993417798152478
 21
-73.6481837643292323
 31
0.0
  0
LINE
  5
79
100
AcDbEntity
100
AcDbLine
  8
PINS
 62
7
370
25
  6
ByLayer
 10
24.5993417798152478
 20
-73.6481837643292323
 30
0.0
 11
44.0993417798152265
 21
-73.6481837643292323
 31
0.0
  0
LINE
  5
7A
100
AcDbEntity
100
AcDbLine
  8
PINS
 62
7
370
25
  6
ByLayer
 10
44.0993417798152265
 20
-73.6481837643292323
 30
0.0
 11
44.0993417798152265
 21
-76.6481837643292465
 31
0.0
  0
LINE
  5
7B
100
AcDbEntity
100
AcDbLine
  8
PINS
 62
7
370
25
  6
ByLayer
 10
44.0993417798152265
 20
-76.6481837643292465
 30
0.0
 11
24.5993417798152478
 21
-76.6481837643292465
 31
0.0
  0
LINE
  5
7C
100
AcDbEntity
100
AcDbLine
  8
OUTLINE
 62
7
370
25
  6
ByLayer
 10
24.5993417798152478
 20
-76.6481837643292465
 30
0.0
 11
24.5993417798152478
 21
-76.6481837643292465
 31
0.0
  0
LINE
  5
7D
100
AcDbEntity
100
AcDbLine
  8
PINS
 62
7
370
25
  6
ByLayer
 10
24.5993417798152478
 20
-73.6481837643292323
 30
0.0
 11
23.0993417798152549
 21
-72.1481837643292465
 31
0.0
  0
LINE
  5
7E
100
AcDbEntity
100
AcDbLine
  8
PINS
 62
7
370
25
  6
ByLayer
 10
23.0993417798152549
 20
-72.1481837643292465
 30
0.0
 11
24.5993417798152478
 21
-70.6481837643292465
 31
0.0
  0
LINE
  5
7F
100
AcDbEntity
100
AcDbLine
  8
PINS
 62
7
370
25
  6
ByLayer
 10
24.5993417798152478
 20
-70.6481837643292465
 30
0.0
 11
44.0993417798152265
 21
-70.6481837643292465
 31
0.0
  0
LINE
  5
80
100
AcDbEntity
100
AcDbLine
  8
PINS
 62
7
370
25
  6
ByLayer
 10
44.0993417798152265
 20
-70.6481837643292465
 30
0.0
 11
44.0993417798152265
 21
-73.6481837643292323
 31
0.0
  0
LINE
  5
81
100
AcDbEntity
100
AcDbLine
  8
PINS
 62
7
370
25
  6
ByLayer
 10
44.0993417798152265
 20
-73.6481837643292323
 30
0.0
 11
24.5993417798152478
 21
-73.6481837643292323
 31
0.0
  0
LINE
  5
82
100
AcDbEntity
100
AcDbLine
  8
OUTLINE
 62
7
370
25
  6
ByLayer
 10
24.5993417798152478
 20
-73.6481837643292323
 30
0.0
 11
24.5993417798152478
 21
-73.6481837643292323
 31
0.0
  0
MTEXT
  5
83
100
AcDbEntity
100
AcDbMText
  8
PINS
 62
7
370
25
  6
ByLayer
 10
33.5993417798152407
 20
-75.1481837643292465
 30
0.0
 40
1.8
 41
1500.0
 71
5
 72
2
  1
pin-6-in-not
  7
romand
 50
0.0
 73
1
 44
1.0
  0
MTEXT
  5
84
100
AcDbEntity
100
AcDbMText
  8
PINS
 62
7
370
25
  6
ByLayer
 10
33.5993417798152407
 20
-72.1481837643292465
 30
0.0
 40
1.8
 41
1500.0
 71
5
 72
2
  1
pin-6-in
  7
romand
 50
0.0
 73
1
 44
1.0
  0
CIRCLE
  5
85
100
AcDbEntity
100
AcDbCircle
  8
INTERNALS
 62
7
370
25
  6
ByLayer
 10
48.9743417798152478
 20
-75.1481837643292465
 30
0.0
 40
0.375
  0
LWPOLYLINE
  5
86
  8
INTERNALS
 62
7
370
25
  6
ByLayer
100
AcDbEntity
100
AcDbPolyline
 90
5
 70
1
 10
49.3493417798152549
 20
-75.1481837643292465
 10
53.0993417798152549
 20
-72.8981837643292465
 10
53.0993417798152549
 20
-77.3981837643292323
 10
49.3493417798152549
 20
-75.1481837643292465
 10
49.3493417798152549
 20
-75.1481837643292465
  0
LINE
  5
87
100
AcDbEntity
100
AcDbLine
  8
INTERNALS
 62
7
370
25
  6
ByLayer
 10
44.0993417798152265
 20
-72.1481837643292465
 30
0.0
 11
56.0993417798152407
 21
-72.1481837643292465
 31
0.0
  0
LINE
  5
88
100
AcDbEntity
100
AcDbLine
  8
INTERNALS
 62
7
370
25
  6
ByLayer
 10
56.0993417798152407
 20
-72.1481837643292465
 30
0.0
 11
56.0993417798152407
 21
-75.1481837643292465
 31
0.0
  0
LINE
  5
89
100
AcDbEntity
100
AcDbLine
  8
INTERNALS
 62
7
370
25
  6
ByLayer
 10
56.0993417798152407
 20
-75.1481837643292465
 30
0.0
 11
53.0993417798152549
 21
-75.1481837643292465
 31
0.0
  0
LINE
  5
8A
100
AcDbEntity
100
AcDbLine
  8
INTERNALS
 62
7
370
25
  6
ByLayer
 10
48.5993417798152407
 20
-75.1481837643292465
 30
0.0
 11
44.0993417798152265
 21
-75.1481837643292465
 31
0.0
  0
LWPOLYLINE
  5
8B
  8
INTERNALS
 62
7
370
25
  6
ByLayer
100
AcDbEntity
100
AcDbPolyline
 90
5
 70
1
 10
59.0993417798152265
 20
-73.6481837643292323
 10
63.5993417798152407
 20
-71.3981837643292323
 10
63.5993417798152407
 20
-75.8981837643292465
 10
59.0993417798152265
 20
-73.6481837643292323
 10
59.0993417798152265
 20
-73.6481837643292323
  0
LINE
  5
8C
100
AcDbEntity
100
AcDbLine
  8
INTERNALS
 62
7
370
25
  6
ByLayer
 10
59.0993417798152265
 20
-73.6481837643292323
 30
0.0
 11
56.0993417798152407
 21
-73.6481837643292323
 31
0.0
  0
CIRCLE
  5
8D
100
AcDbEntity
100
AcDbCircle
  8
INTERNALS
 62
7
370
25
  6
ByLayer
 10
56.0993417798152407
 20
-73.6481837643292323
 30
0.0
 40
0.3
  0
LINE
  5
8E
100
AcDbEntity
100
AcDbLine
  8
PINS
 62
7
370
25
  6
ByLayer
 10
24.5993417798152478
 20
-84.1481837643292465
 30
0.0
 11
23.0993417798152549
 21
-82.6481837643292465
 31
0.0
  0
LINE
  5
8F
100
AcDbEntity
100
AcDbLine
  8
PINS
 62
7
370
25
  6
ByLayer
 10
23.0993417798152549
 20
-82.6481837643292465
 30
0.0
 11
24.5993417798152478
 21
-81.1481837643292323
 31
0.0
  0
LINE
  5
90
100
AcDbEntity
100
AcDbLine
  8
PINS
 62
7
370
25
  6
ByLayer
 10
24.5993417798152478
 20
-81.1481837643292323
 30
0.0
 11
44.0993417798152265
 21
-81.1481837643292323
 31
0.0
  0
LINE
  5
91
100
AcDbEntity
100
AcDbLine
  8
PINS
 62
7
370
25
  6
ByLayer
 10
44.0993417798152265
 20
-81.1481837643292323
 30
0.0
 11
44.0993417798152265
 21
-84.1481837643292465
 31
0.0
  0
LINE
  5
92
100
AcDbEntity
100
AcDbLine
  8
PINS
 62
7
370
25
  6
ByLayer
 10
44.0993417798152265
 20
-84.1481837643292465
 30
0.0
 11
24.5993417798152478
 21
-84.1481837643292465
 31
0.0
  0
LINE
  5
93
100
AcDbEntity
100
AcDbLine
  8
OUTLINE
 62
7
370
25
  6
ByLayer
 10
24.5993417798152478
 20
-84.1481837643292465
 30
0.0
 11
24.5993417798152478
 21
-84.1481837643292465
 31
0.0
  0
LINE
  5
94
100
AcDbEntity
100
AcDbLine
  8
PINS
 62
7
370
25
  6
ByLayer
 10
24.5993417798152478
 20
-81.1481837643292323
 30
0.0
 11
23.0993417798152549
 21
-79.6481837643292465
 31
0.0
  0
LINE
  5
95
100
AcDbEntity
100
AcDbLine
  8
PINS
 62
7
370
25
  6
ByLayer
 10
23.0993417798152549
 20
-79.6481837643292465
 30
0.0
 11
24.5993417798152478
 21
-78.1481837643292465
 31
0.0
  0
LINE
  5
96
100
AcDbEntity
100
AcDbLine
  8
PINS
 62
7
370
25
  6
ByLayer
 10
24.5993417798152478
 20
-78.1481837643292465
 30
0.0
 11
44.0993417798152265
 21
-78.1481837643292465
 31
0.0
  0
LINE
  5
97
100
AcDbEntity
100
AcDbLine
  8
PINS
 62
7
370
25
  6
ByLayer
 10
44.0993417798152265
 20
-78.1481837643292465
 30
0.0
 11
44.0993417798152265
 21
-81.1481837643292323
 31
0.0
  0
LINE
  5
98
100
AcDbEntity
100
AcDbLine
  8
PINS
 62
7
370
25
  6
ByLayer
 10
44.0993417798152265
 20
-81.1481837643292323
 30
0.0
 11
24.5993417798152478
 21
-81.1481837643292323
 31
0.0
  0
LINE
  5
99
100
AcDbEntity
100
AcDbLine
  8
OUTLINE
 62
7
370
25
  6
ByLayer
 10
24.5993417798152478
 20
-81.1481837643292323
 30
0.0
 11
24.5993417798152478
 21
-81.1481837643292323
 31
0.0
  0
MTEXT
  5
9A
100
AcDbEntity
100
AcDbMText
  8
PINS
 62
7
370
25
  6
ByLayer
 10
33.5993417798152407
 20
-82.6481837643292465
 30
0.0
 40
1.8
 41
1500.0
 71
5
 72
2
  1
pin-5-in-not
  7
romand
 50
0.0
 73
1
 44
1.0
  0
MTEXT
  5
9B
100
AcDbEntity
100
AcDbMText
  8
PINS
 62
7
370
25
  6
ByLayer
 10
33.5993417798152407
 20
-79.6481837643292465
 30
0.0
 40
1.8
 41
1500.0
 71
5
 72
2
  1
pin-5-in
  7
romand
 50
0.0
 73
1
 44
1.0
  0
CIRCLE
  5
9C
100
AcDbEntity
100
AcDbCircle
  8
INTERNALS
 62
7
370
25
  6
ByLayer
 10
48.9743417798152478
 20
-82.6481837643292465
 30
0.0
 40
0.375
  0
LWPOLYLINE
  5
9D
  8
INTERNALS
 62
7
370
25
  6
ByLayer
100
AcDbEntity
100
AcDbPolyline
 90
5
 70
1
 10
49.3493417798152549
 20
-82.6481837643292465
 10
53.0993417798152549
 20
-80.3981837643292465
 10
53.0993417798152549
 20
-84.8981837643292465
 10
49.3493417798152549
 20
-82.6481837643292465
 10
49.3493417798152549
 20
-82.6481837643292465
  0
LINE
  5
9E
100
AcDbEntity
100
AcDbLine
  8
INTERNALS
 62
7
370
25
  6
ByLayer
 10
44.0993417798152265
 20
-79.6481837643292465
 30
0.0
 11
56.0993417798152407
 21
-79.6481837643292465
 31
0.0
  0
LINE
  5
9F
100
AcDbEntity
100
AcDbLine
  8
INTERNALS
 62
7
370
25
  6
ByLayer
 10
56.0993417798152407
 20
-79.6481837643292465
 30
0.0
 11
56.0993417798152407
 21
-82.6481837643292465
 31
0.0
  0
LINE
  5
A0
100
AcDbEntity
100
AcDbLine
  8
INTERNALS
 62
7
370
25
  6
ByLayer
 10
56.0993417798152407
 20
-82.6481837643292465
 30
0.0
 11
53.0993417798152549
 21
-82.6481837643292465
 31
0.0
  0
LINE
  5
A1
100
AcDbEntity
100
AcDbLine
  8
INTERNALS
 62
7
370
25
  6
ByLayer
 10
48.5993417798152407
 20
-82.6481837643292465
 30
0.0
 11
44.0993417798152265
 21
-82.6481837643292465
 31
0.0
  0
LWPOLYLINE
  5
A2
  8
INTERNALS
 62
7
370
25
  6
ByLayer
100
AcDbEntity
100
AcDbPolyline
 90
5
 70
1
 10
59.0993417798152265
 20
-81.1481837643292323
 10
63.5993417798152407
 20
-78.8981837643292465
 10
63.5993417798152407
 20
-83.3981837643292465
 10
59.0993417798152265
 20
-81.1481837643292323
 10
59.0993417798152265
 20
-81.1481837643292323
  0
LINE
  5
A3
100
AcDbEntity
100
AcDbLine
  8
INTERNALS
 62
7
370
25
  6
ByLayer
 10
59.0993417798152265
 20
-81.1481837643292323
 30
0.0
 11
56.0993417798152407
 21
-81.1481837643292323
 31
0.0
  0
CIRCLE
  5
A4
100
AcDbEntity
100
AcDbCircle
  8
INTERNALS
 62
7
370
25
  6
ByLayer
 10
56.0993417798152407
 20
-81.1481837643292323
 30
0.0
 40
0.3
  0
LINE
  5
A5
100
AcDbEntity
100
AcDbLine
  8
PINS
 62
7
370
25
  6
ByLayer
 10
24.5993417798152478
 20
-91.6481837643292465
 30
0.0
 11
23.0993417798152549
 21
-90.1481837643292465
 31
0.0
  0
LINE
  5
A6
100
AcDbEntity
100
AcDbLine
  8
PINS
 62
7
370
25
  6
ByLayer
 10
23.0993417798152549
 20
-90.1481837643292465
 30
0.0
 11
24.5993417798152478
 21
-88.6481837643292465
 31
0.0
  0
LINE
  5
A7
100
AcDbEntity
100
AcDbLine
  8
PINS
 62
7
370
25
  6
ByLayer
 10
24.5993417798152478
 20
-88.6481837643292465
 30
0.0
 11
44.0993417798152265
 21
-88.6481837643292465
 31
0.0
  0
LINE
  5
A8
100
AcDbEntity
100
AcDbLine
  8
PINS
 62
7
370
25
  6
ByLayer
 10
44.0993417798152265
 20
-88.6481837643292465
 30
0.0
 11
44.0993417798152265
 21
-91.6481837643292465
 31
0.0
  0
LINE
  5
A9
100
AcDbEntity
100
AcDbLine
  8
PINS
 62
7
370
25
  6
ByLayer
 10
44.0993417798152265
 20
-91.6481837643292465
 30
0.0
 11
24.5993417798152478
 21
-91.6481837643292465
 31
0.0
  0
LINE
  5
AA
100
AcDbEntity
100
AcDbLine
  8
OUTLINE
 62
7
370
25
  6
ByLayer
 10
24.5993417798152478
 20
-91.6481837643292465
 30
0.0
 11
24.5993417798152478
 21
-91.6481837643292465
 31
0.0
  0
LINE
  5
AB
100
AcDbEntity
100
AcDbLine
  8
PINS
 62
7
370
25
  6
ByLayer
 10
24.5993417798152478
 20
-88.6481837643292465
 30
0.0
 11
23.0993417798152549
 21
-87.1481837643292465
 31
0.0
  0
LINE
  5
AC
100
AcDbEntity
100
AcDbLine
  8
PINS
 62
7
370
25
  6
ByLayer
 10
23.0993417798152549
 20
-87.1481837643292465
 30
0.0
 11
24.5993417798152478
 21
-85.6481837643292465
 31
0.0
  0
LINE
  5
AD
100
AcDbEntity
100
AcDbLine
  8
PINS
 62
7
370
25
  6
ByLayer
 10
24.5993417798152478
 20
-85.6481837643292465
 30
0.0
 11
44.0993417798152265
 21
-85.6481837643292465
 31
0.0
  0
LINE
  5
AE
100
AcDbEntity
100
AcDbLine
  8
PINS
 62
7
370
25
  6
ByLayer
 10
44.0993417798152265
 20
-85.6481837643292465
 30
0.0
 11
44.0993417798152265
 21
-88.6481837643292465
 31
0.0
  0
LINE
  5
AF
100
AcDbEntity
100
AcDbLine
  8
PINS
 62
7
370
25
  6
ByLayer
 10
44.0993417798152265
 20
-88.6481837643292465
 30
0.0
 11
24.5993417798152478
 21
-88.6481837643292465
 31
0.0
  0
LINE
  5
B0
100
AcDbEntity
100
AcDbLine
  8
OUTLINE
 62
7
370
25
  6
ByLayer
 10
24.5993417798152478
 20
-88.6481837643292465
 30
0.0
 11
24.5993417798152478
 21
-88.6481837643292465
 31
0.0
  0
MTEXT
  5
B1
100
AcDbEntity
100
AcDbMText
  8
PINS
 62
7
370
25
  6
ByLayer
 10
33.5993417798152407
 20
-90.1481837643292465
 30
0.0
 40
1.8
 41
1500.0
 71
5
 72
2
  1
pin-4-in-not
  7
romand
 50
0.0
 73
1
 44
1.0
  0
MTEXT
  5
B2
100
AcDbEntity
100
AcDbMText
  8
PINS
 62
7
370
25
  6
ByLayer
 10
33.5993417798152407
 20
-87.1481837643292465
 30
0.0
 40
1.8
 41
1500.0
 71
5
 72
2
  1
pin-4-in
  7
romand
 50
0.0
 73
1
 44
1.0
  0
CIRCLE
  5
B3
100
AcDbEntity
100
AcDbCircle
  8
INTERNALS
 62
7
370
25
  6
ByLayer
 10
48.9743417798152478
 20
-90.1481837643292465
 30
0.0
 40
0.375
  0
LWPOLYLINE
  5
B4
  8
INTERNALS
 62
7
370
25
  6
ByLayer
100
AcDbEntity
100
AcDbPolyline
 90
5
 70
1
 10
49.3493417798152549
 20
-90.1481837643292465
 10
53.0993417798152549
 20
-87.8981837643292465
 10
53.0993417798152549
 20
-92.3981837643292465
 10
49.3493417798152549
 20
-90.1481837643292465
 10
49.3493417798152549
 20
-90.1481837643292465
  0
LINE
  5
B5
100
AcDbEntity
100
AcDbLine
  8
INTERNALS
 62
7
370
25
  6
ByLayer
 10
44.0993417798152265
 20
-87.1481837643292465
 30
0.0
 11
56.0993417798152407
 21
-87.1481837643292465
 31
0.0
  0
LINE
  5
B6
100
AcDbEntity
100
AcDbLine
  8
INTERNALS
 62
7
370
25
  6
ByLayer
 10
56.0993417798152407
 20
-87.1481837643292465
 30
0.0
 11
56.0993417798152407
 21
-90.1481837643292465
 31
0.0
  0
LINE
  5
B7
100
AcDbEntity
100
AcDbLine
  8
INTERNALS
 62
7
370
25
  6
ByLayer
 10
56.0993417798152407
 20
-90.1481837643292465
 30
0.0
 11
53.0993417798152549
 21
-90.1481837643292465
 31
0.0
  0
LINE
  5
B8
100
AcDbEntity
100
AcDbLine
  8
INTERNALS
 62
7
370
25
  6
ByLayer
 10
48.5993417798152407
 20
-90.1481837643292465
 30
0.0
 11
44.0993417798152265
 21
-90.1481837643292465
 31
0.0
  0
LWPOLYLINE
  5
B9
  8
INTERNALS
 62
7
370
25
  6
ByLayer
100
AcDbEntity
100
AcDbPolyline
 90
5
 70
1
 10
59.0993417798152265
 20
-88.6481837643292465
 10
63.5993417798152407
 20
-86.3981837643292465
 10
63.5993417798152407
 20
-90.8981837643292465
 10
59.0993417798152265
 20
-88.6481837643292465
 10
59.0993417798152265
 20
-88.6481837643292465
  0
LINE
  5
BA
100
AcDbEntity
100
AcDbLine
  8
INTERNALS
 62
7
370
25
  6
ByLayer
 10
59.0993417798152265
 20
-88.6481837643292465
 30
0.0
 11
56.0993417798152407
 21
-88.6481837643292465
 31
0.0
  0
CIRCLE
  5
BB
100
AcDbEntity
100
AcDbCircle
  8
INTERNALS
 62
7
370
25
  6
ByLayer
 10
56.0993417798152407
 20
-88.6481837643292465
 30
0.0
 40
0.3
  0
LINE
  5
BC
100
AcDbEntity
100
AcDbLine
  8
PINS
 62
7
370
25
  6
ByLayer
 10
24.5993417798152478
 20
-99.1481837643292465
 30
0.0
 11
23.0993417798152549
 21
-97.6481837643292465
 31
0.0
  0
LINE
  5
BD
100
AcDbEntity
100
AcDbLine
  8
PINS
 62
7
370
25
  6
ByLayer
 10
23.0993417798152549
 20
-97.6481837643292465
 30
0.0
 11
24.5993417798152478
 21
-96.1481837643292465
 31
0.0
  0
LINE
  5
BE
100
AcDbEntity
100
AcDbLine
  8
PINS
 62
7
370
25
  6
ByLayer
 10
24.5993417798152478
 20
-96.1481837643292465
 30
0.0
 11
44.0993417798152265
 21
-96.1481837643292465
 31
0.0
  0
LINE
  5
BF
100
AcDbEntity
100
AcDbLine
  8
PINS
 62
7
370
25
  6
ByLayer
 10
44.0993417798152265
 20
-96.1481837643292465
 30
0.0
 11
44.0993417798152265
 21
-99.1481837643292465
 31
0.0
  0
LINE
  5
C0
100
AcDbEntity
100
AcDbLine
  8
PINS
 62
7
370
25
  6
ByLayer
 10
44.0993417798152265
 20
-99.1481837643292465
 30
0.0
 11
24.5993417798152478
 21
-99.1481837643292465
 31
0.0
  0
LINE
  5
C1
100
AcDbEntity
100
AcDbLine
  8
OUTLINE
 62
7
370
25
  6
ByLayer
 10
24.5993417798152478
 20
-99.1481837643292465
 30
0.0
 11
24.5993417798152478
 21
-99.1481837643292465
 31
0.0
  0
LINE
  5
C2
100
AcDbEntity
100
AcDbLine
  8
PINS
 62
7
370
25
  6
ByLayer
 10
24.5993417798152478
 20
-96.1481837643292465
 30
0.0
 11
23.0993417798152549
 21
-94.6481837643292465
 31
0.0
  0
LINE
  5
C3
100
AcDbEntity
100
AcDbLine
  8
PINS
 62
7
370
25
  6
ByLayer
 10
23.0993417798152549
 20
-94.6481837643292465
 30
0.0
 11
24.5993417798152478
 21
-93.1481837643292465
 31
0.0
  0
LINE
  5
C4
100
AcDbEntity
100
AcDbLine
  8
PINS
 62
7
370
25
  6
ByLayer
 10
24.5993417798152478
 20
-93.1481837643292465
 30
0.0
 11
44.0993417798152265
 21
-93.1481837643292465
 31
0.0
  0
LINE
  5
C5
100
AcDbEntity
100
AcDbLine
  8
PINS
 62
7
370
25
  6
ByLayer
 10
44.0993417798152265
 20
-93.1481837643292465
 30
0.0
 11
44.0993417798152265
 21
-96.1481837643292465
 31
0.0
  0
LINE
  5
C6
100
AcDbEntity
100
AcDbLine
  8
PINS
 62
7
370
25
  6
ByLayer
 10
44.0993417798152265
 20
-96.1481837643292465
 30
0.0
 11
24.5993417798152478
 21
-96.1481837643292465
 31
0.0
  0
LINE
  5
C7
100
AcDbEntity
100
AcDbLine
  8
OUTLINE
 62
7
370
25
  6
ByLayer
 10
24.5993417798152478
 20
-96.1481837643292465
 30
0.0
 11
24.5993417798152478
 21
-96.1481837643292465
 31
0.0
  0
MTEXT
  5
C8
100
AcDbEntity
100
AcDbMText
  8
PINS
 62
7
370
25
  6
ByLayer
 10
33.5993417798152407
 20
-97.6481837643292465
 30
0.0
 40
1.8
 41
1500.0
 71
5
 72
2
  1
pin-3-in-not
  7
romand
 50
0.0
 73
1
 44
1.0
  0
MTEXT
  5
C9
100
AcDbEntity
100
AcDbMText
  8
PINS
 62
7
370
25
  6
ByLayer
 10
33.5993417798152407
 20
-94.6481837643292465
 30
0.0
 40
1.8
 41
1500.0
 71
5
 72
2
  1
pin-3-in
  7
romand
 50
0.0
 73
1
 44
1.0
  0
CIRCLE
  5
CA
100
AcDbEntity
100
AcDbCircle
  8
INTERNALS
 62
7
370
25
  6
ByLayer
 10
48.9743417798152478
 20
-97.6481837643292465
 30
0.0
 40
0.375
  0
LWPOLYLINE
  5
CB
  8
INTERNALS
 62
7
370
25
  6
ByLayer
100
AcDbEntity
100
AcDbPolyline
 90
5
 70
1
 10
49.3493417798152549
 20
-97.6481837643292465
 10
53.0993417798152549
 20
-95.3981837643292465
 10
53.0993417798152549
 20
-99.8981837643292465
 10
49.3493417798152549
 20
-97.6481837643292465
 10
49.3493417798152549
 20
-97.6481837643292465
  0
LINE
  5
CC
100
AcDbEntity
100
AcDbLine
  8
INTERNALS
 62
7
370
25
  6
ByLayer
 10
44.0993417798152265
 20
-94.6481837643292465
 30
0.0
 11
56.0993417798152407
 21
-94.6481837643292465
 31
0.0
  0
LINE
  5
CD
100
AcDbEntity
100
AcDbLine
  8
INTERNALS
 62
7
370
25
  6
ByLayer
 10
56.0993417798152407
 20
-94.6481837643292465
 30
0.0
 11
56.0993417798152407
 21
-97.6481837643292465
 31
0.0
  0
LINE
  5
CE
100
AcDbEntity
100
AcDbLine
  8
INTERNALS
 62
7
370
25
  6
ByLayer
 10
56.0993417798152407
 20
-97.6481837643292465
 30
0.0
 11
53.0993417798152549
 21
-97.6481837643292465
 31
0.0
  0
LINE
  5
CF
100
AcDbEntity
100
AcDbLine
  8
INTERNALS
 62
7
370
25
  6
ByLayer
 10
48.5993417798152407
 20
-97.6481837643292465
 30
0.0
 11
44.0993417798152265
 21
-97.6481837643292465
 31
0.0
  0
LWPOLYLINE
  5
D0
  8
INTERNALS
 62
7
370
25
  6
ByLayer
100
AcDbEntity
100
AcDbPolyline
 90
5
 70
1
 10
59.0993417798152265
 20
-96.1481837643292465
 10
63.5993417798152407
 20
-93.8981837643292465
 10
63.5993417798152407
 20
-98.3981837643292323
 10
59.0993417798152265
 20
-96.1481837643292465
 10
59.0993417798152265
 20
-96.1481837643292465
  0
LINE
  5
D1
100
AcDbEntity
100
AcDbLine
  8
INTERNALS
 62
7
370
25
  6
ByLayer
 10
59.0993417798152265
 20
-96.1481837643292465
 30
0.0
 11
56.0993417798152407
 21
-96.1481837643292465
 31
0.0
  0
CIRCLE
  5
D2
100
AcDbEntity
100
AcDbCircle
  8
INTERNALS
 62
7
370
25
  6
ByLayer
 10
56.0993417798152407
 20
-96.1481837643292465
 30
0.0
 40
0.3
  0
LINE
  5
D3
100
AcDbEntity
100
AcDbLine
  8
PINS
 62
7
370
25
  6
ByLayer
 10
24.5993417798152478
 20
-106.6481837643292465
 30
0.0
 11
23.0993417798152549
 21
-105.1481837643292465
 31
0.0
  0
LINE
  5
D4
100
AcDbEntity
100
AcDbLine
  8
PINS
 62
7
370
25
  6
ByLayer
 10
23.0993417798152549
 20
-105.1481837643292465
 30
0.0
 11
24.5993417798152478
 21
-103.6481837643292465
 31
0.0
  0
LINE
  5
D5
100
AcDbEntity
100
AcDbLine
  8
PINS
 62
7
370
25
  6
ByLayer
 10
24.5993417798152478
 20
-103.6481837643292465
 30
0.0
 11
44.0993417798152265
 21
-103.6481837643292465
 31
0.0
  0
LINE
  5
D6
100
AcDbEntity
100
AcDbLine
  8
PINS
 62
7
370
25
  6
ByLayer
 10
44.0993417798152265
 20
-103.6481837643292465
 30
0.0
 11
44.0993417798152265
 21
-106.6481837643292465
 31
0.0
  0
LINE
  5
D7
100
AcDbEntity
100
AcDbLine
  8
PINS
 62
7
370
25
  6
ByLayer
 10
44.0993417798152265
 20
-106.6481837643292465
 30
0.0
 11
24.5993417798152478
 21
-106.6481837643292465
 31
0.0
  0
LINE
  5
D8
100
AcDbEntity
100
AcDbLine
  8
OUTLINE
 62
7
370
25
  6
ByLayer
 10
24.5993417798152478
 20
-106.6481837643292465
 30
0.0
 11
24.5993417798152478
 21
-106.6481837643292465
 31
0.0
  0
LINE
  5
D9
100
AcDbEntity
100
AcDbLine
  8
PINS
 62
7
370
25
  6
ByLayer
 10
24.5993417798152478
 20
-103.6481837643292465
 30
0.0
 11
23.0993417798152549
 21
-102.1481837643292323
 31
0.0
  0
LINE
  5
DA
100
AcDbEntity
100
AcDbLine
  8
PINS
 62
7
370
25
  6
ByLayer
 10
23.0993417798152549
 20
-102.1481837643292323
 30
0.0
 11
24.5993417798152478
 21
-100.6481837643292465
 31
0.0
  0
LINE
  5
DB
100
AcDbEntity
100
AcDbLine
  8
PINS
 62
7
370
25
  6
ByLayer
 10
24.5993417798152478
 20
-100.6481837643292465
 30
0.0
 11
44.0993417798152265
 21
-100.6481837643292465
 31
0.0
  0
LINE
  5
DC
100
AcDbEntity
100
AcDbLine
  8
PINS
 62
7
370
25
  6
ByLayer
 10
44.0993417798152265
 20
-100.6481837643292465
 30
0.0
 11
44.0993417798152265
 21
-103.6481837643292465
 31
0.0
  0
LINE
  5
DD
100
AcDbEntity
100
AcDbLine
  8
PINS
 62
7
370
25
  6
ByLayer
 10
44.0993417798152265
 20
-103.6481837643292465
 30
0.0
 11
24.5993417798152478
 21
-103.6481837643292465
 31
0.0
  0
LINE
  5
DE
100
AcDbEntity
100
AcDbLine
  8
OUTLINE
 62
7
370
25
  6
ByLayer
 10
24.5993417798152478
 20
-103.6481837643292465
 30
0.0
 11
24.5993417798152478
 21
-103.6481837643292465
 31
0.0
  0
MTEXT
  5
DF
100
AcDbEntity
100
AcDbMText
  8
PINS
 62
7
370
25
  6
ByLayer
 10
33.5993417798152407
 20
-105.1481837643292465
 30
0.0
 40
1.8
 41
1500.0
 71
5
 72
2
  1
pin-2-in-not
  7
romand
 50
0.0
 73
1
 44
1.0
  0
MTEXT
  5
E0
100
AcDbEntity
100
AcDbMText
  8
PINS
 62
7
370
25
  6
ByLayer
 10
33.5993417798152407
 20
-102.1481837643292323
 30
0.0
 40
1.8
 41
1500.0
 71
5
 72
2
  1
pin-2-in
  7
romand
 50
0.0
 73
1
 44
1.0
  0
CIRCLE
  5
E1
100
AcDbEntity
100
AcDbCircle
  8
INTERNALS
 62
7
370
25
  6
ByLayer
 10
48.9743417798152478
 20
-105.1481837643292465
 30
0.0
 40
0.375
  0
LWPOLYLINE
  5
E2
  8
INTERNALS
 62
7
370
25
  6
ByLayer
100
AcDbEntity
100
AcDbPolyline
 90
5
 70
1
 10
49.3493417798152549
 20
-105.1481837643292465
 10
53.0993417798152549
 20
-102.8981837643292465
 10
53.0993417798152549
 20
-107.3981837643292465
 10
49.3493417798152549
 20
-105.1481837643292465
 10
49.3493417798152549
 20
-105.1481837643292465
  0
LINE
  5
E3
100
AcDbEntity
100
AcDbLine
  8
INTERNALS
 62
7
370
25
  6
ByLayer
 10
44.0993417798152265
 20
-102.1481837643292323
 30
0.0
 11
56.0993417798152407
 21
-102.1481837643292323
 31
0.0
  0
LINE
  5
E4
100
AcDbEntity
100
AcDbLine
  8
INTERNALS
 62
7
370
25
  6
ByLayer
 10
56.0993417798152407
 20
-102.1481837643292323
 30
0.0
 11
56.0993417798152407
 21
-105.1481837643292465
 31
0.0
  0
LINE
  5
E5
100
AcDbEntity
100
AcDbLine
  8
INTERNALS
 62
7
370
25
  6
ByLayer
 10
56.0993417798152407
 20
-105.1481837643292465
 30
0.0
 11
53.0993417798152549
 21
-105.1481837643292465
 31
0.0
  0
LINE
  5
E6
100
AcDbEntity
100
AcDbLine
  8
INTERNALS
 62
7
370
25
  6
ByLayer
 10
48.5993417798152407
 20
-105.1481837643292465
 30
0.0
 11
44.0993417798152265
 21
-105.1481837643292465
 31
0.0
  0
LWPOLYLINE
  5
E7
  8
INTERNALS
 62
7
370
25
  6
ByLayer
100
AcDbEntity
100
AcDbPolyline
 90
5
 70
1
 10
59.0993417798152265
 20
-103.6481837643292465
 10
63.5993417798152407
 20
-101.3981837643292465
 10
63.5993417798152407
 20
-105.8981837643292323
 10
59.0993417798152265
 20
-103.6481837643292465
 10
59.0993417798152265
 20
-103.6481837643292465
  0
LINE
  5
E8
100
AcDbEntity
100
AcDbLine
  8
INTERNALS
 62
7
370
25
  6
ByLayer
 10
59.0993417798152265
 20
-103.6481837643292465
 30
0.0
 11
56.0993417798152407
 21
-103.6481837643292465
 31
0.0
  0
CIRCLE
  5
E9
100
AcDbEntity
100
AcDbCircle
  8
INTERNALS
 62
7
370
25
  6
ByLayer
 10
56.0993417798152407
 20
-103.6481837643292465
 30
0.0
 40
0.3
  0
LINE
  5
EA
100
AcDbEntity
100
AcDbLine
  8
PINS
 62
7
370
25
  6
ByLayer
 10
24.5993417798152478
 20
-54.1481837643292394
 30
0.0
 11
23.0993417798152549
 21
-52.6481837643292465
 31
0.0
  0
LINE
  5
EB
100
AcDbEntity
100
AcDbLine
  8
PINS
 62
7
370
25
  6
ByLayer
 10
23.0993417798152549
 20
-52.6481837643292465
 30
0.0
 11
24.5993417798152478
 21
-51.1481837643292323
 31
0.0
  0
LINE
  5
EC
100
AcDbEntity
100
AcDbLine
  8
PINS
 62
7
370
25
  6
ByLayer
 10
24.5993417798152478
 20
-51.1481837643292323
 30
0.0
 11
44.0993417798152265
 21
-51.1481837643292323
 31
0.0
  0
LINE
  5
ED
100
AcDbEntity
100
AcDbLine
  8
PINS
 62
7
370
25
  6
ByLayer
 10
44.0993417798152265
 20
-51.1481837643292323
 30
0.0
 11
44.0993417798152265
 21
-54.1481837643292394
 31
0.0
  0
LINE
  5
EE
100
AcDbEntity
100
AcDbLine
  8
PINS
 62
7
370
25
  6
ByLayer
 10
44.0993417798152265
 20
-54.1481837643292394
 30
0.0
 11
24.5993417798152478
 21
-54.1481837643292394
 31
0.0
  0
LINE
  5
EF
100
AcDbEntity
100
AcDbLine
  8
OUTLINE
 62
7
370
25
  6
ByLayer
 10
24.5993417798152478
 20
-54.1481837643292394
 30
0.0
 11
24.5993417798152478
 21
-54.1481837643292394
 31
0.0
  0
LINE
  5
F0
100
AcDbEntity
100
AcDbLine
  8
PINS
 62
7
370
25
  6
ByLayer
 10
24.5993417798152478
 20
-51.1481837643292323
 30
0.0
 11
23.0993417798152549
 21
-49.6481837643292465
 31
0.0
  0
LINE
  5
F1
100
AcDbEntity
100
AcDbLine
  8
PINS
 62
7
370
25
  6
ByLayer
 10
23.0993417798152549
 20
-49.6481837643292465
 30
0.0
 11
24.5993417798152478
 21
-48.1481837643292323
 31
0.0
  0
LINE
  5
F2
100
AcDbEntity
100
AcDbLine
  8
PINS
 62
7
370
25
  6
ByLayer
 10
24.5993417798152478
 20
-48.1481837643292323
 30
0.0
 11
44.0993417798152265
 21
-48.1481837643292323
 31
0.0
  0
LINE
  5
F3
100
AcDbEntity
100
AcDbLine
  8
PINS
 62
7
370
25
  6
ByLayer
 10
44.0993417798152265
 20
-48.1481837643292323
 30
0.0
 11
44.0993417798152265
 21
-51.1481837643292323
 31
0.0
  0
LINE
  5
F4
100
AcDbEntity
100
AcDbLine
  8
PINS
 62
7
370
25
  6
ByLayer
 10
44.0993417798152265
 20
-51.1481837643292323
 30
0.0
 11
24.5993417798152478
 21
-51.1481837643292323
 31
0.0
  0
LINE
  5
F5
100
AcDbEntity
100
AcDbLine
  8
OUTLINE
 62
7
370
25
  6
ByLayer
 10
24.5993417798152478
 20
-51.1481837643292323
 30
0.0
 11
24.5993417798152478
 21
-51.1481837643292323
 31
0.0
  0
MTEXT
  5
F6
100
AcDbEntity
100
AcDbMText
  8
PINS
 62
7
370
25
  6
ByLayer
 10
33.5993417798152407
 20
-52.6481837643292465
 30
0.0
 40
1.8
 41
1500.0
 71
5
 72
2
  1
pin-9-in-not
  7
romand
 50
0.0
 73
1
 44
1.0
  0
MTEXT
  5
F7
100
AcDbEntity
100
AcDbMText
  8
PINS
 62
7
370
25
  6
ByLayer
 10
33.5993417798152407
 20
-49.6481837643292465
 30
0.0
 40
1.8
 41
1500.0
 71
5
 72
2
  1
pin-9-in
  7
romand
 50
0.0
 73
1
 44
1.0
  0
CIRCLE
  5
F8
100
AcDbEntity
100
AcDbCircle
  8
INTERNALS
 62
7
370
25
  6
ByLayer
 10
48.9743417798152478
 20
-52.6481837643292465
 30
0.0
 40
0.375
  0
LWPOLYLINE
  5
F9
  8
INTERNALS
 62
7
370
25
  6
ByLayer
100
AcDbEntity
100
AcDbPolyline
 90
5
 70
1
 10
49.3493417798152549
 20
-52.6481837643292465
 10
53.0993417798152549
 20
-50.3981837643292394
 10
53.0993417798152549
 20
-54.8981837643292394
 10
49.3493417798152549
 20
-52.6481837643292465
 10
49.3493417798152549
 20
-52.6481837643292465
  0
LINE
  5
FA
100
AcDbEntity
100
AcDbLine
  8
INTERNALS
 62
7
370
25
  6
ByLayer
 10
44.0993417798152265
 20
-49.6481837643292465
 30
0.0
 11
56.0993417798152407
 21
-49.6481837643292465
 31
0.0
  0
LINE
  5
FB
100
AcDbEntity
100
AcDbLine
  8
INTERNALS
 62
7
370
25
  6
ByLayer
 10
56.0993417798152407
 20
-49.6481837643292465
 30
0.0
 11
56.0993417798152407
 21
-52.6481837643292465
 31
0.0
  0
LINE
  5
FC
100
AcDbEntity
100
AcDbLine
  8
INTERNALS
 62
7
370
25
  6
ByLayer
 10
56.0993417798152407
 20
-52.6481837643292465
 30
0.0
 11
53.0993417798152549
 21
-52.6481837643292465
 31
0.0
  0
LINE
  5
FD
100
AcDbEntity
100
AcDbLine
  8
INTERNALS
 62
7
370
25
  6
ByLayer
 10
48.5993417798152407
 20
-52.6481837643292465
 30
0.0
 11
44.0993417798152265
 21
-52.6481837643292465
 31
0.0
  0
LWPOLYLINE
  5
FE
  8
INTERNALS
 62
7
370
25
  6
ByLayer
100
AcDbEntity
100
AcDbPolyline
 90
5
 70
1
 10
59.0993417798152265
 20
-51.1481837643292323
 10
63.5993417798152407
 20
-48.8981837643292465
 10
63.5993417798152407
 20
-53.3981837643292465
 10
59.0993417798152265
 20
-51.1481837643292323
 10
59.0993417798152265
 20
-51.1481837643292323
  0
LINE
  5
FF
100
AcDbEntity
100
AcDbLine
  8
INTERNALS
 62
7
370
25
  6
ByLayer
 10
59.0993417798152265
 20
-51.1481837643292323
 30
0.0
 11
56.0993417798152407
 21
-51.1481837643292323
 31
0.0
  0
CIRCLE
  5
100
100
AcDbEntity
100
AcDbCircle
  8
INTERNALS
 62
7
370
25
  6
ByLayer
 10
56.0993417798152407
 20
-51.1481837643292323
 30
0.0
 40
0.3
  0
LWPOLYLINE
  5
101
  8
PINS
 62
7
370
25
  6
ByLayer
100
AcDbEntity
100
AcDbPolyline
 90
7
 70
1
 10
24.5993417798152478
 20
-16.6481837643292394
 10
23.0993417798152549
 20
-15.1481837643292465
 10
24.5993417798152478
 20
-13.6481837643292394
 10
44.0993417798152265
 20
-13.6481837643292394
 10
44.0993417798152265
 20
-16.6481837643292394
 10
24.5993417798152478
 20
-16.6481837643292394
 10
24.5993417798152478
 20
-16.6481837643292394
  0
LWPOLYLINE
  5
102
  8
PINS
 62
7
370
25
  6
ByLayer
100
AcDbEntity
100
AcDbPolyline
 90
7
 70
1
 10
24.5993417798152478
 20
-13.6481837643292394
 10
23.0993417798152549
 20
-12.1481837643292394
 10
24.5993417798152478
 20
-10.6481837643292323
 10
44.0993417798152265
 20
-10.6481837643292323
 10
44.0993417798152265
 20
-13.6481837643292394
 10
24.5993417798152478
 20
-13.6481837643292394
 10
24.5993417798152478
 20
-13.6481837643292394
  0
MTEXT
  5
103
100
AcDbEntity
100
AcDbMText
  8
PINS
 62
7
370
25
  6
ByLayer
 10
33.5993417798152407
 20
-15.1481837643292465
 30
0.0
 40
1.8
 41
1500.0
 71
5
 72
2
  1
pin-15-in-not
  7
romand
 50
0.0
 73
1
 44
1.0
  0
MTEXT
  5
104
100
AcDbEntity
100
AcDbMText
  8
PINS
 62
7
370
25
  6
ByLayer
 10
33.5993417798152407
 20
-12.1481837643292394
 30
0.0
 40
1.8
 41
1500.0
 71
5
 72
2
  1
pin-15-in
  7
romand
 50
0.0
 73
1
 44
1.0
  0
CIRCLE
  5
105
100
AcDbEntity
100
AcDbCircle
  8
INTERNALS
 62
7
370
25
  6
ByLayer
 10
48.9743417798152478
 20
-15.1481837643292465
 30
0.0
 40
0.375
  0
LWPOLYLINE
  5
106
  8
INTERNALS
 62
7
370
25
  6
ByLayer
100
AcDbEntity
100
AcDbPolyline
 90
5
 70
1
 10
49.3493417798152549
 20
-15.1481837643292465
 10
53.0993417798152549
 20
-12.8981837643292394
 10
53.0993417798152549
 20
-17.3981837643292394
 10
49.3493417798152549
 20
-15.1481837643292465
 10
49.3493417798152549
 20
-15.1481837643292465
  0
LINE
  5
107
100
AcDbEntity
100
AcDbLine
  8
INTERNALS
 62
7
370
25
  6
ByLayer
 10
44.0993417798152265
 20
-12.1481837643292394
 30
0.0
 11
56.0993417798152407
 21
-12.1481837643292394
 31
0.0
  0
LINE
  5
108
100
AcDbEntity
100
AcDbLine
  8
INTERNALS
 62
7
370
25
  6
ByLayer
 10
56.0993417798152407
 20
-12.1481837643292394
 30
0.0
 11
56.0993417798152407
 21
-15.1481837643292465
 31
0.0
  0
LINE
  5
109
100
AcDbEntity
100
AcDbLine
  8
INTERNALS
 62
7
370
25
  6
ByLayer
 10
56.0993417798152407
 20
-15.1481837643292465
 30
0.0
 11
53.0993417798152549
 21
-15.1481837643292465
 31
0.0
  0
LINE
  5
10A
100
AcDbEntity
100
AcDbLine
  8
INTERNALS
 62
7
370
25
  6
ByLayer
 10
48.5993417798152407
 20
-15.1481837643292465
 30
0.0
 11
44.0993417798152265
 21
-15.1481837643292465
 31
0.0
  0
LWPOLYLINE
  5
10B
  8
INTERNALS
 62
7
370
25
  6
ByLayer
100
AcDbEntity
100
AcDbPolyline
 90
5
 70
1
 10
59.0993417798152265
 20
-13.6481837643292394
 10
63.5993417798152407
 20
-11.3981837643292465
 10
63.5993417798152407
 20
-15.8981837643292394
 10
59.0993417798152265
 20
-13.6481837643292394
 10
59.0993417798152265
 20
-13.6481837643292394
  0
LINE
  5
10C
100
AcDbEntity
100
AcDbLine
  8
INTERNALS
 62
7
370
25
  6
ByLayer
 10
59.0993417798152265
 20
-13.6481837643292394
 30
0.0
 11
56.0993417798152407
 21
-13.6481837643292394
 31
0.0
  0
CIRCLE
  5
10D
100
AcDbEntity
100
AcDbCircle
  8
INTERNALS
 62
7
370
25
  6
ByLayer
 10
56.0993417798152407
 20
-13.6481837643292394
 30
0.0
 40
0.3
  0
LWPOLYLINE
  5
10E
  8
PINS
 62
7
370
25
  6
ByLayer
100
AcDbEntity
100
AcDbPolyline
 90
7
 70
1
 10
24.5993417798152478
 20
-24.1481837643292394
 10
23.0993417798152549
 20
-22.6481837643292465
 10
24.5993417798152478
 20
-21.1481837643292394
 10
44.0993417798152265
 20
-21.1481837643292394
 10
44.0993417798152265
 20
-24.1481837643292394
 10
24.5993417798152478
 20
-24.1481837643292394
 10
24.5993417798152478
 20
-24.1481837643292394
  0
LWPOLYLINE
  5
10F
  8
PINS
 62
7
370
25
  6
ByLayer
100
AcDbEntity
100
AcDbPolyline
 90
7
 70
1
 10
24.5993417798152478
 20
-21.1481837643292394
 10
23.0993417798152549
 20
-19.6481837643292394
 10
24.5993417798152478
 20
-18.1481837643292323
 10
44.0993417798152265
 20
-18.1481837643292323
 10
44.0993417798152265
 20
-21.1481837643292394
 10
24.5993417798152478
 20
-21.1481837643292394
 10
24.5993417798152478
 20
-21.1481837643292394
  0
MTEXT
  5
110
100
AcDbEntity
100
AcDbMText
  8
PINS
 62
7
370
25
  6
ByLayer
 10
33.5993417798152407
 20
-22.6481837643292465
 30
0.0
 40
1.8
 41
1500.0
 71
5
 72
2
  1
pin-13-in-not
  7
romand
 50
0.0
 73
1
 44
1.0
  0
MTEXT
  5
111
100
AcDbEntity
100
AcDbMText
  8
PINS
 62
7
370
25
  6
ByLayer
 10
33.5993417798152407
 20
-19.6481837643292394
 30
0.0
 40
1.8
 41
1500.0
 71
5
 72
2
  1
pin-13-in
  7
romand
 50
0.0
 73
1
 44
1.0
  0
CIRCLE
  5
112
100
AcDbEntity
100
AcDbCircle
  8
INTERNALS
 62
7
370
25
  6
ByLayer
 10
48.9743417798152478
 20
-22.6481837643292465
 30
0.0
 40
0.375
  0
LWPOLYLINE
  5
113
  8
INTERNALS
 62
7
370
25
  6
ByLayer
100
AcDbEntity
100
AcDbPolyline
 90
5
 70
1
 10
49.3493417798152549
 20
-22.6481837643292465
 10
53.0993417798152549
 20
-20.3981837643292394
 10
53.0993417798152549
 20
-24.8981837643292394
 10
49.3493417798152549
 20
-22.6481837643292465
 10
49.3493417798152549
 20
-22.6481837643292465
  0
LINE
  5
114
100
AcDbEntity
100
AcDbLine
  8
INTERNALS
 62
7
370
25
  6
ByLayer
 10
44.0993417798152265
 20
-19.6481837643292394
 30
0.0
 11
56.0993417798152407
 21
-19.6481837643292394
 31
0.0
  0
LINE
  5
115
100
AcDbEntity
100
AcDbLine
  8
INTERNALS
 62
7
370
25
  6
ByLayer
 10
56.0993417798152407
 20
-19.6481837643292394
 30
0.0
 11
56.0993417798152407
 21
-22.6481837643292465
 31
0.0
  0
LINE
  5
116
100
AcDbEntity
100
AcDbLine
  8
INTERNALS
 62
7
370
25
  6
ByLayer
 10
56.0993417798152407
 20
-22.6481837643292465
 30
0.0
 11
53.0993417798152549
 21
-22.6481837643292465
 31
0.0
  0
LINE
  5
117
100
AcDbEntity
100
AcDbLine
  8
INTERNALS
 62
7
370
25
  6
ByLayer
 10
48.5993417798152407
 20
-22.6481837643292465
 30
0.0
 11
44.0993417798152265
 21
-22.6481837643292465
 31
0.0
  0
LWPOLYLINE
  5
118
  8
INTERNALS
 62
7
370
25
  6
ByLayer
100
AcDbEntity
100
AcDbPolyline
 90
5
 70
1
 10
59.0993417798152265
 20
-21.1481837643292394
 10
63.5993417798152407
 20
-18.8981837643292465
 10
63.5993417798152407
 20
-23.3981837643292394
 10
59.0993417798152265
 20
-21.1481837643292394
 10
59.0993417798152265
 20
-21.1481837643292394
  0
LINE
  5
119
100
AcDbEntity
100
AcDbLine
  8
INTERNALS
 62
7
370
25
  6
ByLayer
 10
59.0993417798152265
 20
-21.1481837643292394
 30
0.0
 11
56.0993417798152407
 21
-21.1481837643292394
 31
0.0
  0
CIRCLE
  5
11A
100
AcDbEntity
100
AcDbCircle
  8
INTERNALS
 62
7
370
25
  6
ByLayer
 10
56.0993417798152407
 20
-21.1481837643292394
 30
0.0
 40
0.3
  0
LWPOLYLINE
  5
11B
  8
PINS
 62
7
370
25
  6
ByLayer
100
AcDbEntity
100
AcDbPolyline
 90
7
 70
1
 10
24.5993417798152478
 20
-31.6481837643292394
 10
23.0993417798152549
 20
-30.1481837643292465
 10
24.5993417798152478
 20
-28.6481837643292394
 10
44.0993417798152265
 20
-28.6481837643292394
 10
44.0993417798152265
 20
-31.6481837643292394
 10
24.5993417798152478
 20
-31.6481837643292394
 10
24.5993417798152478
 20
-31.6481837643292394
  0
LWPOLYLINE
  5
11C
  8
PINS
 62
7
370
25
  6
ByLayer
100
AcDbEntity
100
AcDbPolyline
 90
7
 70
1
 10
24.5993417798152478
 20
-28.6481837643292394
 10
23.0993417798152549
 20
-27.1481837643292394
 10
24.5993417798152478
 20
-25.6481837643292323
 10
44.0993417798152265
 20
-25.6481837643292323
 10
44.0993417798152265
 20
-28.6481837643292394
 10
24.5993417798152478
 20
-28.6481837643292394
 10
24.5993417798152478
 20
-28.6481837643292394
  0
MTEXT
  5
11D
100
AcDbEntity
100
AcDbMText
  8
PINS
 62
7
370
25
  6
ByLayer
 10
33.5993417798152407
 20
-30.1481837643292465
 30
0.0
 40
1.8
 41
1500.0
 71
5
 72
2
  1
pin-12-in-not
  7
romand
 50
0.0
 73
1
 44
1.0
  0
MTEXT
  5
11E
100
AcDbEntity
100
AcDbMText
  8
PINS
 62
7
370
25
  6
ByLayer
 10
33.5993417798152407
 20
-27.1481837643292394
 30
0.0
 40
1.8
 41
1500.0
 71
5
 72
2
  1
pin-12-in
  7
romand
 50
0.0
 73
1
 44
1.0
  0
CIRCLE
  5
11F
100
AcDbEntity
100
AcDbCircle
  8
INTERNALS
 62
7
370
25
  6
ByLayer
 10
48.9743417798152478
 20
-30.1481837643292465
 30
0.0
 40
0.375
  0
LWPOLYLINE
  5
120
  8
INTERNALS
 62
7
370
25
  6
ByLayer
100
AcDbEntity
100
AcDbPolyline
 90
5
 70
1
 10
49.3493417798152549
 20
-30.1481837643292465
 10
53.0993417798152549
 20
-27.8981837643292394
 10
53.0993417798152549
 20
-32.3981837643292394
 10
49.3493417798152549
 20
-30.1481837643292465
 10
49.3493417798152549
 20
-30.1481837643292465
  0
LINE
  5
121
100
AcDbEntity
100
AcDbLine
  8
INTERNALS
 62
7
370
25
  6
ByLayer
 10
44.0993417798152265
 20
-27.1481837643292394
 30
0.0
 11
56.0993417798152407
 21
-27.1481837643292394
 31
0.0
  0
LINE
  5
122
100
AcDbEntity
100
AcDbLine
  8
INTERNALS
 62
7
370
25
  6
ByLayer
 10
56.0993417798152407
 20
-27.1481837643292394
 30
0.0
 11
56.0993417798152407
 21
-30.1481837643292465
 31
0.0
  0
LINE
  5
123
100
AcDbEntity
100
AcDbLine
  8
INTERNALS
 62
7
370
25
  6
ByLayer
 10
56.0993417798152407
 20
-30.1481837643292465
 30
0.0
 11
53.0993417798152549
 21
-30.1481837643292465
 31
0.0
  0
LINE
  5
124
100
AcDbEntity
100
AcDbLine
  8
INTERNALS
 62
7
370
25
  6
ByLayer
 10
48.5993417798152407
 20
-30.1481837643292465
 30
0.0
 11
44.0993417798152265
 21
-30.1481837643292465
 31
0.0
  0
LWPOLYLINE
  5
125
  8
INTERNALS
 62
7
370
25
  6
ByLayer
100
AcDbEntity
100
AcDbPolyline
 90
5
 70
1
 10
59.0993417798152265
 20
-28.6481837643292394
 10
63.5993417798152407
 20
-26.3981837643292465
 10
63.5993417798152407
 20
-30.8981837643292394
 10
59.0993417798152265
 20
-28.6481837643292394
 10
59.0993417798152265
 20
-28.6481837643292394
  0
LINE
  5
126
100
AcDbEntity
100
AcDbLine
  8
INTERNALS
 62
7
370
25
  6
ByLayer
 10
59.0993417798152265
 20
-28.6481837643292394
 30
0.0
 11
56.0993417798152407
 21
-28.6481837643292394
 31
0.0
  0
CIRCLE
  5
127
100
AcDbEntity
100
AcDbCircle
  8
INTERNALS
 62
7
370
25
  6
ByLayer
 10
56.0993417798152407
 20
-28.6481837643292394
 30
0.0
 40
0.3
  0
LWPOLYLINE
  5
128
  8
PINS
 62
7
370
25
  6
ByLayer
100
AcDbEntity
100
AcDbPolyline
 90
7
 70
1
 10
24.5993417798152478
 20
-39.1481837643292394
 10
23.0993417798152549
 20
-37.6481837643292465
 10
24.5993417798152478
 20
-36.1481837643292394
 10
44.0993417798152265
 20
-36.1481837643292394
 10
44.0993417798152265
 20
-39.1481837643292394
 10
24.5993417798152478
 20
-39.1481837643292394
 10
24.5993417798152478
 20
-39.1481837643292394
  0
LWPOLYLINE
  5
129
  8
PINS
 62
7
370
25
  6
ByLayer
100
AcDbEntity
100
AcDbPolyline
 90
7
 70
1
 10
24.5993417798152478
 20
-36.1481837643292394
 10
23.0993417798152549
 20
-34.6481837643292394
 10
24.5993417798152478
 20
-33.1481837643292323
 10
44.0993417798152265
 20
-33.1481837643292323
 10
44.0993417798152265
 20
-36.1481837643292394
 10
24.5993417798152478
 20
-36.1481837643292394
 10
24.5993417798152478
 20
-36.1481837643292394
  0
MTEXT
  5
12A
100
AcDbEntity
100
AcDbMText
  8
PINS
 62
7
370
25
  6
ByLayer
 10
33.5993417798152407
 20
-37.6481837643292465
 30
0.0
 40
1.8
 41
1500.0
 71
5
 72
2
  1
pin-11-in-not
  7
romand
 50
0.0
 73
1
 44
1.0
  0
MTEXT
  5
12B
100
AcDbEntity
100
AcDbMText
  8
PINS
 62
7
370
25
  6
ByLayer
 10
33.5993417798152407
 20
-34.6481837643292394
 30
0.0
 40
1.8
 41
1500.0
 71
5
 72
2
  1
pin-11-in
  7
romand
 50
0.0
 73
1
 44
1.0
  0
CIRCLE
  5
12C
100
AcDbEntity
100
AcDbCircle
  8
INTERNALS
 62
7
370
25
  6
ByLayer
 10
48.9743417798152478
 20
-37.6481837643292465
 30
0.0
 40
0.375
  0
LWPOLYLINE
  5
12D
  8
INTERNALS
 62
7
370
25
  6
ByLayer
100
AcDbEntity
100
AcDbPolyline
 90
5
 70
1
 10
49.3493417798152549
 20
-37.6481837643292465
 10
53.0993417798152549
 20
-35.3981837643292394
 10
53.0993417798152549
 20
-39.8981837643292323
 10
49.3493417798152549
 20
-37.6481837643292465
 10
49.3493417798152549
 20
-37.6481837643292465
  0
LINE
  5
12E
100
AcDbEntity
100
AcDbLine
  8
INTERNALS
 62
7
370
25
  6
ByLayer
 10
44.0993417798152265
 20
-34.6481837643292394
 30
0.0
 11
56.0993417798152407
 21
-34.6481837643292394
 31
0.0
  0
LINE
  5
12F
100
AcDbEntity
100
AcDbLine
  8
INTERNALS
 62
7
370
25
  6
ByLayer
 10
56.0993417798152407
 20
-34.6481837643292394
 30
0.0
 11
56.0993417798152407
 21
-37.6481837643292465
 31
0.0
  0
LINE
  5
130
100
AcDbEntity
100
AcDbLine
  8
INTERNALS
 62
7
370
25
  6
ByLayer
 10
56.0993417798152407
 20
-37.6481837643292465
 30
0.0
 11
53.0993417798152549
 21
-37.6481837643292465
 31
0.0
  0
LINE
  5
131
100
AcDbEntity
100
AcDbLine
  8
INTERNALS
 62
7
370
25
  6
ByLayer
 10
48.5993417798152407
 20
-37.6481837643292465
 30
0.0
 11
44.0993417798152265
 21
-37.6481837643292465
 31
0.0
  0
LWPOLYLINE
  5
132
  8
INTERNALS
 62
7
370
25
  6
ByLayer
100
AcDbEntity
100
AcDbPolyline
 90
5
 70
1
 10
59.0993417798152265
 20
-36.1481837643292394
 10
63.5993417798152407
 20
-33.8981837643292465
 10
63.5993417798152407
 20
-38.3981837643292465
 10
59.0993417798152265
 20
-36.1481837643292394
 10
59.0993417798152265
 20
-36.1481837643292394
  0
LINE
  5
133
100
AcDbEntity
100
AcDbLine
  8
INTERNALS
 62
7
370
25
  6
ByLayer
 10
59.0993417798152265
 20
-36.1481837643292394
 30
0.0
 11
56.0993417798152407
 21
-36.1481837643292394
 31
0.0
  0
CIRCLE
  5
134
100
AcDbEntity
100
AcDbCircle
  8
INTERNALS
 62
7
370
25
  6
ByLayer
 10
56.0993417798152407
 20
-36.1481837643292394
 30
0.0
 40
0.3
  0
LWPOLYLINE
  5
135
  8
PINS
 62
7
370
25
  6
ByLayer
100
AcDbEntity
100
AcDbPolyline
 90
7
 70
1
 10
24.5993417798152478
 20
-46.6481837643292394
 10
23.0993417798152549
 20
-45.1481837643292465
 10
24.5993417798152478
 20
-43.6481837643292323
 10
44.0993417798152265
 20
-43.6481837643292323
 10
44.0993417798152265
 20
-46.6481837643292394
 10
24.5993417798152478
 20
-46.6481837643292394
 10
24.5993417798152478
 20
-46.6481837643292394
  0
LWPOLYLINE
  5
136
  8
PINS
 62
7
370
25
  6
ByLayer
100
AcDbEntity
100
AcDbPolyline
 90
7
 70
1
 10
24.5993417798152478
 20
-43.6481837643292323
 10
23.0993417798152549
 20
-42.1481837643292465
 10
24.5993417798152478
 20
-40.6481837643292323
 10
44.0993417798152265
 20
-40.6481837643292323
 10
44.0993417798152265
 20
-43.6481837643292323
 10
24.5993417798152478
 20
-43.6481837643292323
 10
24.5993417798152478
 20
-43.6481837643292323
  0
MTEXT
  5
137
100
AcDbEntity
100
AcDbMText
  8
PINS
 62
7
370
25
  6
ByLayer
 10
33.5993417798152407
 20
-45.1481837643292465
 30
0.0
 40
1.8
 41
1500.0
 71
5
 72
2
  1
pin-10-in-not
  7
romand
 50
0.0
 73
1
 44
1.0
  0
MTEXT
  5
138
100
AcDbEntity
100
AcDbMText
  8
PINS
 62
7
370
25
  6
ByLayer
 10
33.5993417798152407
 20
-42.1481837643292465
 30
0.0
 40
1.8
 41
1500.0
 71
5
 72
2
  1
pin-10-in
  7
romand
 50
0.0
 73
1
 44
1.0
  0
CIRCLE
  5
139
100
AcDbEntity
100
AcDbCircle
  8
INTERNALS
 62
7
370
25
  6
ByLayer
 10
48.9743417798152478
 20
-45.1481837643292465
 30
0.0
 40
0.375
  0
LWPOLYLINE
  5
13A
  8
INTERNALS
 62
7
370
25
  6
ByLayer
100
AcDbEntity
100
AcDbPolyline
 90
5
 70
1
 10
49.3493417798152549
 20
-45.1481837643292465
 10
53.0993417798152549
 20
-42.8981837643292394
 10
53.0993417798152549
 20
-47.3981837643292323
 10
49.3493417798152549
 20
-45.1481837643292465
 10
49.3493417798152549
 20
-45.1481837643292465
  0
LINE
  5
13B
100
AcDbEntity
100
AcDbLine
  8
INTERNALS
 62
7
370
25
  6
ByLayer
 10
44.0993417798152265
 20
-42.1481837643292465
 30
0.0
 11
56.0993417798152407
 21
-42.1481837643292465
 31
0.0
  0
LINE
  5
13C
100
AcDbEntity
100
AcDbLine
  8
INTERNALS
 62
7
370
25
  6
ByLayer
 10
56.0993417798152407
 20
-42.1481837643292465
 30
0.0
 11
56.0993417798152407
 21
-45.1481837643292465
 31
0.0
  0
LINE
  5
13D
100
AcDbEntity
100
AcDbLine
  8
INTERNALS
 62
7
370
25
  6
ByLayer
 10
56.0993417798152407
 20
-45.1481837643292465
 30
0.0
 11
53.0993417798152549
 21
-45.1481837643292465
 31
0.0
  0
LINE
  5
13E
100
AcDbEntity
100
AcDbLine
  8
INTERNALS
 62
7
370
25
  6
ByLayer
 10
48.5993417798152407
 20
-45.1481837643292465
 30
0.0
 11
44.0993417798152265
 21
-45.1481837643292465
 31
0.0
  0
LWPOLYLINE
  5
13F
  8
INTERNALS
 62
7
370
25
  6
ByLayer
100
AcDbEntity
100
AcDbPolyline
 90
5
 70
1
 10
59.0993417798152265
 20
-43.6481837643292323
 10
63.5993417798152407
 20
-41.3981837643292465
 10
63.5993417798152407
 20
-45.8981837643292465
 10
59.0993417798152265
 20
-43.6481837643292323
 10
59.0993417798152265
 20
-43.6481837643292323
  0
LINE
  5
140
100
AcDbEntity
100
AcDbLine
  8
INTERNALS
 62
7
370
25
  6
ByLayer
 10
59.0993417798152265
 20
-43.6481837643292323
 30
0.0
 11
56.0993417798152407
 21
-43.6481837643292323
 31
0.0
  0
CIRCLE
  5
141
100
AcDbEntity
100
AcDbCircle
  8
INTERNALS
 62
7
370
25
  6
ByLayer
 10
56.0993417798152407
 20
-43.6481837643292323
 30
0.0
 40
0.3
  0
LINE
  5
142
100
AcDbEntity
100
AcDbLine
  8
PINS
 62
7
370
25
  6
ByLayer
 10
45.5993417798152549
 20
-112.6481837643292465
 30
0.0
 11
45.5993417798152549
 21
-112.6481837643292465
 31
0.0
  0
LWPOLYLINE
  5
143
  8
PINS
 62
7
370
25
  6
ByLayer
100
AcDbEntity
100
AcDbPolyline
 90
7
 70
1
 10
23.0993417798152549
 20
-115.6481837643292465
 10
23.0993417798152549
 20
-112.6481837643292465
 10
42.5993417798152336
 20
-112.6481837643292465
 10
44.0993417798152265
 20
-114.1481837643292465
 10
42.5993417798152336
 20
-115.6481837643292465
 10
23.0993417798152549
 20
-115.6481837643292465
 10
23.0993417798152549
 20
-115.6481837643292465
  0
MTEXT
  5
144
100
AcDbEntity
100
AcDbMText
  8
PINS
 62
7
370
25
  6
ByLayer
 10
32.0993417798152478
 20
-114.1481837643292465
 30
0.0
 40
1.8
 41
1500.0
 71
5
 72
2
  1
pin-17-out
  7
romand
 50
0.0
 73
1
 44
1.0
  0
ARC
  5
145
100
AcDbEntity
  8
INTERNALS
 62
7
370
25
  6
ByLayer
100
AcDbCircle
 10
64.6624067798152566
 20
-112.6481837643292465
 30
0.0
 40
3.75
100
AcDbArc
 50
323.1301020000000221
 51
396.8698979999999779
  0
ARC
  5
146
100
AcDbEntity
  8
INTERNALS
 62
7
370
25
  6
ByLayer
100
AcDbCircle
 10
65.8493417798152478
 20
-112.6481837643292465
 30
0.0
 40
3.75
100
AcDbArc
 50
323.1301020000000221
 51
396.8698979999999779
  0
ARC
  5
147
100
AcDbEntity
  8
INTERNALS
 62
7
370
25
  6
ByLayer
100
AcDbCircle
 10
69.3314267798152599
 20
-108.7730537643292337
 30
0.0
 40
6.144075
100
AcDbArc
 50
265.4997520000000009
 51
320.8974289999999883
  0
ARC
  5
148
100
AcDbEntity
  8
INTERNALS
 62
7
370
25
  6
ByLayer
100
AcDbCircle
 10
69.3314267798152599
 20
-116.5233137643292451
 30
0.0
 40
6.144075
100
AcDbArc
 50
39.1025709999999975
 51
94.5002479999999991
  0
LINE
  5
149
100
AcDbEntity
100
AcDbLine
  8
INTERNALS
 62
7
370
25
  6
ByLayer
 10
68.099341779815262
 20
-114.1481837643292465
 30
0.0
 11
44.0993417798152265
 21
-114.1481837643292465
 31
0.0
  0
LINE
  5
14A
100
AcDbEntity
100
AcDbLine
  8
INTERNALS
 62
7
370
25
  6
ByLayer
 10
63.5993417798152407
 20
-111.1481837643292465
 30
0.0
 11
68.099341779815262
 21
-111.1481837643292465
 31
0.0
  0
LWPOLYLINE
  5
14B
  8
PARAMS
 62
7
370
25
  6
ByLayer
100
AcDbEntity
100
AcDbPolyline
 90
5
 70
1
 10
45.5993417798152549
 20
-112.6481837643292465
 10
45.5993417798152549
 20
-109.6481837643292465
 10
63.5993417798152407
 20
-109.6481837643292465
 10
63.5993417798152407
 20
-112.6481837643292465
 10
45.5993417798152549
 20
-112.6481837643292465
  0
LINE
  5
14C
100
AcDbEntity
100
AcDbLine
  8
PINS
 62
7
370
25
  6
ByLayer
 10
45.5993417798152549
 20
-120.1481837643292465
 30
0.0
 11
45.5993417798152549
 21
-120.1481837643292465
 31
0.0
  0
LWPOLYLINE
  5
14D
  8
PINS
 62
7
370
25
  6
ByLayer
100
AcDbEntity
100
AcDbPolyline
 90
7
 70
1
 10
23.0993417798152549
 20
-123.1481837643292465
 10
23.0993417798152549
 20
-120.1481837643292465
 10
42.5993417798152336
 20
-120.1481837643292465
 10
44.0993417798152265
 20
-121.6481837643292465
 10
42.5993417798152336
 20
-123.1481837643292465
 10
23.0993417798152549
 20
-123.1481837643292465
 10
23.0993417798152549
 20
-123.1481837643292465
  0
MTEXT
  5
14E
100
AcDbEntity
100
AcDbMText
  8
PINS
 62
7
370
25
  6
ByLayer
 10
32.0993417798152478
 20
-121.6481837643292465
 30
0.0
 40
1.8
 41
1500.0
 71
5
 72
2
  1
pin-16-out
  7
romand
 50
0.0
 73
1
 44
1.0
  0
ARC
  5
14F
100
AcDbEntity
  8
INTERNALS
 62
7
370
25
  6
ByLayer
100
AcDbCircle
 10
64.6624067798152566
 20
-120.1481837643292465
 30
0.0
 40
3.75
100
AcDbArc
 50
323.1301020000000221
 51
396.8698979999999779
  0
ARC
  5
150
100
AcDbEntity
  8
INTERNALS
 62
7
370
25
  6
ByLayer
100
AcDbCircle
 10
65.8493417798152478
 20
-120.1481837643292465
 30
0.0
 40
3.75
100
AcDbArc
 50
323.1301020000000221
 51
396.8698979999999779
  0
ARC
  5
151
100
AcDbEntity
  8
INTERNALS
 62
7
370
25
  6
ByLayer
100
AcDbCircle
 10
69.3314267798152599
 20
-116.2730537643292337
 30
0.0
 40
6.144075
100
AcDbArc
 50
265.4997520000000009
 51
320.8974289999999883
  0
ARC
  5
152
100
AcDbEntity
  8
INTERNALS
 62
7
370
25
  6
ByLayer
100
AcDbCircle
 10
69.3314267798152599
 20
-124.0233137643292309
 30
0.0
 40
6.144075
100
AcDbArc
 50
39.1025709999999975
 51
94.5002479999999991
  0
LINE
  5
153
100
AcDbEntity
100
AcDbLine
  8
INTERNALS
 62
7
370
25
  6
ByLayer
 10
68.099341779815262
 20
-121.6481837643292465
 30
0.0
 11
44.0993417798152265
 21
-121.6481837643292465
 31
0.0
  0
LINE
  5
154
100
AcDbEntity
100
AcDbLine
  8
INTERNALS
 62
7
370
25
  6
ByLayer
 10
63.5993417798152407
 20
-118.6481837643292465
 30
0.0
 11
68.099341779815262
 21
-118.6481837643292465
 31
0.0
  0
LWPOLYLINE
  5
155
  8
PARAMS
 62
7
370
25
  6
ByLayer
100
AcDbEntity
100
AcDbPolyline
 90
5
 70
1
 10
45.5993417798152549
 20
-120.1481837643292465
 10
45.5993417798152549
 20
-117.1481837643292465
 10
63.5993417798152407
 20
-117.1481837643292465
 10
63.5993417798152407
 20
-120.1481837643292465
 10
45.5993417798152549
 20
-120.1481837643292465
  0
LINE
  5
156
100
AcDbEntity
100
AcDbLine
  8
PINS
 62
7
370
25
  6
ByLayer
 10
45.5993417798152549
 20
-127.6481837643292465
 30
0.0
 11
45.5993417798152549
 21
-127.6481837643292465
 31
0.0
  0
LWPOLYLINE
  5
157
  8
PINS
 62
7
370
25
  6
ByLayer
100
AcDbEntity
100
AcDbPolyline
 90
7
 70
1
 10
23.0993417798152549
 20
-130.6481837643292465
 10
23.0993417798152549
 20
-127.6481837643292465
 10
42.5993417798152336
 20
-127.6481837643292465
 10
44.0993417798152265
 20
-129.1481837643292465
 10
42.5993417798152336
 20
-130.6481837643292465
 10
23.0993417798152549
 20
-130.6481837643292465
 10
23.0993417798152549
 20
-130.6481837643292465
  0
MTEXT
  5
158
100
AcDbEntity
100
AcDbMText
  8
PINS
 62
7
370
25
  6
ByLayer
 10
32.0993417798152478
 20
-129.1481837643292465
 30
0.0
 40
1.8
 41
1500.0
 71
5
 72
2
  1
pin-14-out
  7
romand
 50
0.0
 73
1
 44
1.0
  0
ARC
  5
159
100
AcDbEntity
  8
INTERNALS
 62
7
370
25
  6
ByLayer
100
AcDbCircle
 10
64.6624067798152566
 20
-127.6481837643292465
 30
0.0
 40
3.75
100
AcDbArc
 50
323.1301020000000221
 51
396.8698979999999779
  0
ARC
  5
15A
100
AcDbEntity
  8
INTERNALS
 62
7
370
25
  6
ByLayer
100
AcDbCircle
 10
65.8493417798152478
 20
-127.6481837643292465
 30
0.0
 40
3.75
100
AcDbArc
 50
323.1301020000000221
 51
396.8698979999999779
  0
ARC
  5
15B
100
AcDbEntity
  8
INTERNALS
 62
7
370
25
  6
ByLayer
100
AcDbCircle
 10
69.3314267798152599
 20
-123.7730537643292337
 30
0.0
 40
6.144075
100
AcDbArc
 50
265.4997520000000009
 51
320.8974289999999883
  0
ARC
  5
15C
100
AcDbEntity
  8
INTERNALS
 62
7
370
25
  6
ByLayer
100
AcDbCircle
 10
69.3314267798152599
 20
-131.5233137643292309
 30
0.0
 40
6.144075
100
AcDbArc
 50
39.1025709999999975
 51
94.5002479999999991
  0
LINE
  5
15D
100
AcDbEntity
100
AcDbLine
  8
INTERNALS
 62
7
370
25
  6
ByLayer
 10
68.099341779815262
 20
-129.1481837643292465
 30
0.0
 11
44.0993417798152265
 21
-129.1481837643292465
 31
0.0
  0
LINE
  5
15E
100
AcDbEntity
100
AcDbLine
  8
INTERNALS
 62
7
370
25
  6
ByLayer
 10
63.5993417798152407
 20
-126.1481837643292465
 30
0.0
 11
68.099341779815262
 21
-126.1481837643292465
 31
0.0
  0
LWPOLYLINE
  5
15F
  8
PARAMS
 62
7
370
25
  6
ByLayer
100
AcDbEntity
100
AcDbPolyline
 90
5
 70
1
 10
45.5993417798152549
 20
-127.6481837643292465
 10
45.5993417798152549
 20
-124.6481837643292323
 10
63.5993417798152407
 20
-124.6481837643292323
 10
63.5993417798152407
 20
-127.6481837643292465
 10
45.5993417798152549
 20
-127.6481837643292465
  0
LINE
  5
160
100
AcDbEntity
100
AcDbLine
  8
PINS
 62
7
370
25
  6
ByLayer
 10
45.5993417798152549
 20
-135.1481837643292465
 30
0.0
 11
45.5993417798152549
 21
-135.1481837643292465
 31
0.0
  0
LWPOLYLINE
  5
161
  8
PINS
 62
7
370
25
  6
ByLayer
100
AcDbEntity
100
AcDbPolyline
 90
7
 70
1
 10
23.0993417798152549
 20
-138.1481837643292465
 10
23.0993417798152549
 20
-135.1481837643292465
 10
42.5993417798152336
 20
-135.1481837643292465
 10
44.0993417798152265
 20
-136.6481837643292465
 10
42.5993417798152336
 20
-138.1481837643292465
 10
23.0993417798152549
 20
-138.1481837643292465
 10
23.0993417798152549
 20
-138.1481837643292465
  0
MTEXT
  5
162
100
AcDbEntity
100
AcDbMText
  8
PINS
 62
7
370
25
  6
ByLayer
 10
32.0993417798152478
 20
-136.6481837643292465
 30
0.0
 40
1.8
 41
1500.0
 71
5
 72
2
  1
pin-1-out
  7
romand
 50
0.0
 73
1
 44
1.0
  0
ARC
  5
163
100
AcDbEntity
  8
INTERNALS
 62
7
370
25
  6
ByLayer
100
AcDbCircle
 10
64.6624067798152566
 20
-135.1481837643292465
 30
0.0
 40
3.75
100
AcDbArc
 50
323.1301020000000221
 51
396.8698979999999779
  0
ARC
  5
164
100
AcDbEntity
  8
INTERNALS
 62
7
370
25
  6
ByLayer
100
AcDbCircle
 10
65.8493417798152478
 20
-135.1481837643292465
 30
0.0
 40
3.75
100
AcDbArc
 50
323.1301020000000221
 51
396.8698979999999779
  0
ARC
  5
165
100
AcDbEntity
  8
INTERNALS
 62
7
370
25
  6
ByLayer
100
AcDbCircle
 10
69.3314267798152599
 20
-131.2730537643292337
 30
0.0
 40
6.144075
100
AcDbArc
 50
265.4997520000000009
 51
320.8974289999999883
  0
ARC
  5
166
100
AcDbEntity
  8
INTERNALS
 62
7
370
25
  6
ByLayer
100
AcDbCircle
 10
69.3314267798152599
 20
-139.0233137643292309
 30
0.0
 40
6.144075
100
AcDbArc
 50
39.1025709999999975
 51
94.5002479999999991
  0
LINE
  5
167
100
AcDbEntity
100
AcDbLine
  8
INTERNALS
 62
7
370
25
  6
ByLayer
 10
68.099341779815262
 20
-136.6481837643292465
 30
0.0
 11
44.0993417798152265
 21
-136.6481837643292465
 31
0.0
  0
LINE
  5
168
100
AcDbEntity
100
AcDbLine
  8
INTERNALS
 62
7
370
25
  6
ByLayer
 10
63.5993417798152407
 20
-133.6481837643292465
 30
0.0
 11
68.099341779815262
 21
-133.6481837643292465
 31
0.0
  0
LWPOLYLINE
  5
169
  8
PARAMS
 62
7
370
25
  6
ByLayer
100
AcDbEntity
100
AcDbPolyline
 90
5
 70
1
 10
45.5993417798152549
 20
-135.1481837643292465
 10
45.5993417798152549
 20
-132.1481837643292465
 10
63.5993417798152407
 20
-132.1481837643292465
 10
63.5993417798152407
 20
-135.1481837643292465
 10
45.5993417798152549
 20
-135.1481837643292465
  0
LINE
  5
16A
100
AcDbEntity
100
AcDbLine
  8
OUTLINE
 62
7
370
25
  6
ByLayer
 10
26.0993417798152407
 20
-61.6481837643292394
 30
0.0
 11
26.0993417798152407
 21
-63.1481837643292394
 31
0.0
  0
LINE
  5
16B
100
AcDbEntity
100
AcDbLine
  8
OUTLINE
 62
7
370
25
  6
ByLayer
 10
26.0993417798152407
 20
-69.1481837643292465
 30
0.0
 11
26.0993417798152407
 21
-70.6481837643292465
 31
0.0
  0
LINE
  5
16C
100
AcDbEntity
100
AcDbLine
  8
OUTLINE
 62
7
370
25
  6
ByLayer
 10
26.0993417798152407
 20
-76.6481837643292465
 30
0.0
 11
26.0993417798152407
 21
-78.1481837643292465
 31
0.0
  0
LINE
  5
16D
100
AcDbEntity
100
AcDbLine
  8
OUTLINE
 62
7
370
25
  6
ByLayer
 10
26.0993417798152407
 20
-84.1481837643292465
 30
0.0
 11
26.0993417798152407
 21
-85.6481837643292465
 31
0.0
  0
LINE
  5
16E
100
AcDbEntity
100
AcDbLine
  8
OUTLINE
 62
7
370
25
  6
ByLayer
 10
26.0993417798152407
 20
-91.6481837643292465
 30
0.0
 11
26.0993417798152407
 21
-93.1481837643292465
 31
0.0
  0
LINE
  5
16F
100
AcDbEntity
100
AcDbLine
  8
OUTLINE
 62
7
370
25
  6
ByLayer
 10
26.0993417798152407
 20
-106.6481837643292465
 30
0.0
 11
26.0993417798152407
 21
-112.6481837643292465
 31
0.0
  0
LINE
  5
170
100
AcDbEntity
100
AcDbLine
  8
OUTLINE
 62
7
370
25
  6
ByLayer
 10
26.0993417798152407
 20
-123.1481837643292465
 30
0.0
 11
26.0993417798152407
 21
-127.6481837643292465
 31
0.0
  0
LINE
  5
171
100
AcDbEntity
100
AcDbLine
  8
OUTLINE
 62
7
370
25
  6
ByLayer
 10
26.0993417798152407
 20
-130.6481837643292465
 30
0.0
 11
26.0993417798152407
 21
-135.1481837643292465
 31
0.0
  0
LINE
  5
172
100
AcDbEntity
100
AcDbLine
  8
OUTLINE
 62
7
370
25
  6
ByLayer
 10
26.0993417798152407
 20
-115.6481837643292465
 30
0.0
 11
26.0993417798152407
 21
-120.1481837643292465
 31
0.0
  0
LINE
  5
173
100
AcDbEntity
100
AcDbLine
  8
OUTLINE
 62
7
370
25
  6
ByLayer
 10
26.0993417798152407
 20
-99.1481837643292465
 30
0.0
 11
26.0993417798152407
 21
-100.6481837643292465
 31
0.0
  0
LINE
  5
174
100
AcDbEntity
100
AcDbLine
  8
OUTLINE
 62
7
370
25
  6
ByLayer
 10
26.0993417798152407
 20
-46.6481837643292394
 30
0.0
 11
26.0993417798152407
 21
-48.1481837643292323
 31
0.0
  0
LINE
  5
175
100
AcDbEntity
100
AcDbLine
  8
OUTLINE
 62
7
370
25
  6
ByLayer
 10
26.0993417798152407
 20
-39.1481837643292394
 30
0.0
 11
26.0993417798152407
 21
-40.6481837643292323
 31
0.0
  0
LINE
  5
176
100
AcDbEntity
100
AcDbLine
  8
OUTLINE
 62
7
370
25
  6
ByLayer
 10
26.0993417798152407
 20
-31.6481837643292394
 30
0.0
 11
26.0993417798152407
 21
-33.1481837643292323
 31
0.0
  0
LINE
  5
177
100
AcDbEntity
100
AcDbLine
  8
OUTLINE
 62
7
370
25
  6
ByLayer
 10
26.0993417798152407
 20
-24.1481837643292394
 30
0.0
 11
26.0993417798152407
 21
-25.6481837643292323
 31
0.0
  0
LINE
  5
178
100
AcDbEntity
100
AcDbLine
  8
OUTLINE
 62
7
370
25
  6
ByLayer
 10
26.0993417798152407
 20
-16.6481837643292394
 30
0.0
 11
26.0993417798152407
 21
-18.1481837643292323
 31
0.0
  0
LINE
  5
179
100
AcDbEntity
100
AcDbLine
  8
OUTLINE
 62
7
370
25
  6
ByLayer
 10
26.0993417798152407
 20
-54.1481837643292394
 30
0.0
 11
26.0993417798152407
 21
-55.6481837643292394
 31
0.0
  0
LWPOLYLINE
  5
17A
  8
PINS
 62
7
370
25
  6
ByLayer
100
AcDbEntity
100
AcDbPolyline
 90
7
 70
1
 10
-78.9006582201847522
 20
-46.6481837643292394
 10
-80.4006582201847522
 20
-45.1481837643292465
 10
-78.9006582201847522
 20
-43.6481837643292323
 10
-59.4006582201847593
 20
-43.6481837643292323
 10
-59.4006582201847593
 20
-46.6481837643292394
 10
-78.9006582201847522
 20
-46.6481837643292394
 10
-78.9006582201847522
 20
-46.6481837643292394
  0
LWPOLYLINE
  5
17B
  8
PINS
 62
7
370
25
  6
ByLayer
100
AcDbEntity
100
AcDbPolyline
 90
7
 70
1
 10
-78.9006582201847522
 20
-43.6481837643292323
 10
-80.4006582201847522
 20
-42.1481837643292465
 10
-78.9006582201847522
 20
-40.6481837643292323
 10
-59.4006582201847593
 20
-40.6481837643292323
 10
-59.4006582201847593
 20
-43.6481837643292323
 10
-78.9006582201847522
 20
-43.6481837643292323
 10
-78.9006582201847522
 20
-43.6481837643292323
  0
MTEXT
  5
17C
100
AcDbEntity
100
AcDbMText
  8
PINS
 62
7
370
25
  6
ByLayer
 10
-69.9006582201847522
 20
-45.1481837643292465
 30
0.0
 40
1.8
 41
1500.0
 71
5
 72
2
  1
pin-10-in-not
  7
romand
 50
0.0
 73
1
 44
1.0
  0
MTEXT
  5
17D
100
AcDbEntity
100
AcDbMText
  8
PINS
 62
7
370
25
  6
ByLayer
 10
-69.9006582201847522
 20
-42.1481837643292465
 30
0.0
 40
1.8
 41
1500.0
 71
5
 72
2
  1
pin-10-in
  7
romand
 50
0.0
 73
1
 44
1.0
  0
CIRCLE
  5
17E
100
AcDbEntity
100
AcDbCircle
  8
INTERNALS
 62
7
370
25
  6
ByLayer
 10
-54.5256582201847593
 20
-45.1481837643292465
 30
0.0
 40
0.375
  0
LWPOLYLINE
  5
17F
  8
INTERNALS
 62
7
370
25
  6
ByLayer
100
AcDbEntity
100
AcDbPolyline
 90
5
 70
1
 10
-54.1506582201847593
 20
-45.1481837643292465
 10
-50.4006582201847522
 20
-42.8981837643292394
 10
-50.4006582201847522
 20
-47.3981837643292323
 10
-54.1506582201847593
 20
-45.1481837643292465
 10
-54.1506582201847593
 20
-45.1481837643292465
  0
LINE
  5
180
100
AcDbEntity
100
AcDbLine
  8
INTERNALS
 62
7
370
25
  6
ByLayer
 10
-59.4006582201847593
 20
-42.1481837643292465
 30
0.0
 11
-47.4006582201847664
 21
-42.1481837643292465
 31
0.0
  0
LINE
  5
181
100
AcDbEntity
100
AcDbLine
  8
INTERNALS
 62
7
370
25
  6
ByLayer
 10
-47.4006582201847664
 20
-42.1481837643292465
 30
0.0
 11
-47.4006582201847664
 21
-45.1481837643292465
 31
0.0
  0
LINE
  5
182
100
AcDbEntity
100
AcDbLine
  8
INTERNALS
 62
7
370
25
  6
ByLayer
 10
-47.4006582201847664
 20
-45.1481837643292465
 30
0.0
 11
-50.4006582201847522
 21
-45.1481837643292465
 31
0.0
  0
LINE
  5
183
100
AcDbEntity
100
AcDbLine
  8
INTERNALS
 62
7
370
25
  6
ByLayer
 10
-54.9006582201847593
 20
-45.1481837643292465
 30
0.0
 11
-59.4006582201847593
 21
-45.1481837643292465
 31
0.0
  0
LWPOLYLINE
  5
184
  8
INTERNALS
 62
7
370
25
  6
ByLayer
100
AcDbEntity
100
AcDbPolyline
 90
5
 70
1
 10
-44.4006582201847593
 20
-43.6481837643292323
 10
-39.9006582201847664
 20
-41.3981837643292465
 10
-39.9006582201847664
 20
-45.8981837643292465
 10
-44.4006582201847593
 20
-43.6481837643292323
 10
-44.4006582201847593
 20
-43.6481837643292323
  0
LINE
  5
185
100
AcDbEntity
100
AcDbLine
  8
INTERNALS
 62
7
370
25
  6
ByLayer
 10
-44.4006582201847593
 20
-43.6481837643292323
 30
0.0
 11
-47.4006582201847664
 21
-43.6481837643292323
 31
0.0
  0
CIRCLE
  5
186
100
AcDbEntity
100
AcDbCircle
  8
INTERNALS
 62
7
370
25
  6
ByLayer
 10
-47.4006582201847664
 20
-43.6481837643292323
 30
0.0
 40
0.3
  0
LWPOLYLINE
  5
187
  8
PINS
 62
7
370
25
  6
ByLayer
100
AcDbEntity
100
AcDbPolyline
 90
7
 70
1
 10
-78.9006582201847522
 20
-39.1481837643292394
 10
-80.4006582201847522
 20
-37.6481837643292465
 10
-78.9006582201847522
 20
-36.1481837643292394
 10
-59.4006582201847593
 20
-36.1481837643292394
 10
-59.4006582201847593
 20
-39.1481837643292394
 10
-78.9006582201847522
 20
-39.1481837643292394
 10
-78.9006582201847522
 20
-39.1481837643292394
  0
LWPOLYLINE
  5
188
  8
PINS
 62
7
370
25
  6
ByLayer
100
AcDbEntity
100
AcDbPolyline
 90
7
 70
1
 10
-78.9006582201847522
 20
-36.1481837643292394
 10
-80.4006582201847522
 20
-34.6481837643292394
 10
-78.9006582201847522
 20
-33.1481837643292323
 10
-59.4006582201847593
 20
-33.1481837643292323
 10
-59.4006582201847593
 20
-36.1481837643292394
 10
-78.9006582201847522
 20
-36.1481837643292394
 10
-78.9006582201847522
 20
-36.1481837643292394
  0
MTEXT
  5
189
100
AcDbEntity
100
AcDbMText
  8
PINS
 62
7
370
25
  6
ByLayer
 10
-69.9006582201847522
 20
-37.6481837643292465
 30
0.0
 40
1.8
 41
1500.0
 71
5
 72
2
  1
pin-11-in-not
  7
romand
 50
0.0
 73
1
 44
1.0
  0
MTEXT
  5
18A
100
AcDbEntity
100
AcDbMText
  8
PINS
 62
7
370
25
  6
ByLayer
 10
-69.9006582201847522
 20
-34.6481837643292394
 30
0.0
 40
1.8
 41
1500.0
 71
5
 72
2
  1
pin-11-in
  7
romand
 50
0.0
 73
1
 44
1.0
  0
CIRCLE
  5
18B
100
AcDbEntity
100
AcDbCircle
  8
INTERNALS
 62
7
370
25
  6
ByLayer
 10
-54.5256582201847593
 20
-37.6481837643292465
 30
0.0
 40
0.375
  0
LWPOLYLINE
  5
18C
  8
INTERNALS
 62
7
370
25
  6
ByLayer
100
AcDbEntity
100
AcDbPolyline
 90
5
 70
1
 10
-54.1506582201847593
 20
-37.6481837643292465
 10
-50.4006582201847522
 20
-35.3981837643292394
 10
-50.4006582201847522
 20
-39.8981837643292323
 10
-54.1506582201847593
 20
-37.6481837643292465
 10
-54.1506582201847593
 20
-37.6481837643292465
  0
LINE
  5
18D
100
AcDbEntity
100
AcDbLine
  8
INTERNALS
 62
7
370
25
  6
ByLayer
 10
-59.4006582201847593
 20
-34.6481837643292394
 30
0.0
 11
-47.4006582201847664
 21
-34.6481837643292394
 31
0.0
  0
LINE
  5
18E
100
AcDbEntity
100
AcDbLine
  8
INTERNALS
 62
7
370
25
  6
ByLayer
 10
-47.4006582201847664
 20
-34.6481837643292394
 30
0.0
 11
-47.4006582201847664
 21
-37.6481837643292465
 31
0.0
  0
LINE
  5
18F
100
AcDbEntity
100
AcDbLine
  8
INTERNALS
 62
7
370
25
  6
ByLayer
 10
-47.4006582201847664
 20
-37.6481837643292465
 30
0.0
 11
-50.4006582201847522
 21
-37.6481837643292465
 31
0.0
  0
LINE
  5
190
100
AcDbEntity
100
AcDbLine
  8
INTERNALS
 62
7
370
25
  6
ByLayer
 10
-54.9006582201847593
 20
-37.6481837643292465
 30
0.0
 11
-59.4006582201847593
 21
-37.6481837643292465
 31
0.0
  0
LWPOLYLINE
  5
191
  8
INTERNALS
 62
7
370
25
  6
ByLayer
100
AcDbEntity
100
AcDbPolyline
 90
5
 70
1
 10
-44.4006582201847593
 20
-36.1481837643292394
 10
-39.9006582201847664
 20
-33.8981837643292465
 10
-39.9006582201847664
 20
-38.3981837643292465
 10
-44.4006582201847593
 20
-36.1481837643292394
 10
-44.4006582201847593
 20
-36.1481837643292394
  0
LINE
  5
192
100
AcDbEntity
100
AcDbLine
  8
INTERNALS
 62
7
370
25
  6
ByLayer
 10
-44.4006582201847593
 20
-36.1481837643292394
 30
0.0
 11
-47.4006582201847664
 21
-36.1481837643292394
 31
0.0
  0
CIRCLE
  5
193
100
AcDbEntity
100
AcDbCircle
  8
INTERNALS
 62
7
370
25
  6
ByLayer
 10
-47.4006582201847664
 20
-36.1481837643292394
 30
0.0
 40
0.3
  0
LWPOLYLINE
  5
194
  8
PINS
 62
7
370
25
  6
ByLayer
100
AcDbEntity
100
AcDbPolyline
 90
7
 70
1
 10
-78.9006582201847522
 20
-31.6481837643292394
 10
-80.4006582201847522
 20
-30.1481837643292465
 10
-78.9006582201847522
 20
-28.6481837643292394
 10
-59.4006582201847593
 20
-28.6481837643292394
 10
-59.4006582201847593
 20
-31.6481837643292394
 10
-78.9006582201847522
 20
-31.6481837643292394
 10
-78.9006582201847522
 20
-31.6481837643292394
  0
LWPOLYLINE
  5
195
  8
PINS
 62
7
370
25
  6
ByLayer
100
AcDbEntity
100
AcDbPolyline
 90
7
 70
1
 10
-78.9006582201847522
 20
-28.6481837643292394
 10
-80.4006582201847522
 20
-27.1481837643292394
 10
-78.9006582201847522
 20
-25.6481837643292323
 10
-59.4006582201847593
 20
-25.6481837643292323
 10
-59.4006582201847593
 20
-28.6481837643292394
 10
-78.9006582201847522
 20
-28.6481837643292394
 10
-78.9006582201847522
 20
-28.6481837643292394
  0
MTEXT
  5
196
100
AcDbEntity
100
AcDbMText
  8
PINS
 62
7
370
25
  6
ByLayer
 10
-69.9006582201847522
 20
-30.1481837643292465
 30
0.0
 40
1.8
 41
1500.0
 71
5
 72
2
  1
pin-12-in-not
  7
romand
 50
0.0
 73
1
 44
1.0
  0
MTEXT
  5
197
100
AcDbEntity
100
AcDbMText
  8
PINS
 62
7
370
25
  6
ByLayer
 10
-69.9006582201847522
 20
-27.1481837643292394
 30
0.0
 40
1.8
 41
1500.0
 71
5
 72
2
  1
pin-12-in
  7
romand
 50
0.0
 73
1
 44
1.0
  0
CIRCLE
  5
198
100
AcDbEntity
100
AcDbCircle
  8
INTERNALS
 62
7
370
25
  6
ByLayer
 10
-54.5256582201847593
 20
-30.1481837643292465
 30
0.0
 40
0.375
  0
LWPOLYLINE
  5
199
  8
INTERNALS
 62
7
370
25
  6
ByLayer
100
AcDbEntity
100
AcDbPolyline
 90
5
 70
1
 10
-54.1506582201847593
 20
-30.1481837643292465
 10
-50.4006582201847522
 20
-27.8981837643292394
 10
-50.4006582201847522
 20
-32.3981837643292394
 10
-54.1506582201847593
 20
-30.1481837643292465
 10
-54.1506582201847593
 20
-30.1481837643292465
  0
LINE
  5
19A
100
AcDbEntity
100
AcDbLine
  8
INTERNALS
 62
7
370
25
  6
ByLayer
 10
-59.4006582201847593
 20
-27.1481837643292394
 30
0.0
 11
-47.4006582201847664
 21
-27.1481837643292394
 31
0.0
  0
LINE
  5
19B
100
AcDbEntity
100
AcDbLine
  8
INTERNALS
 62
7
370
25
  6
ByLayer
 10
-47.4006582201847664
 20
-27.1481837643292394
 30
0.0
 11
-47.4006582201847664
 21
-30.1481837643292465
 31
0.0
  0
LINE
  5
19C
100
AcDbEntity
100
AcDbLine
  8
INTERNALS
 62
7
370
25
  6
ByLayer
 10
-47.4006582201847664
 20
-30.1481837643292465
 30
0.0
 11
-50.4006582201847522
 21
-30.1481837643292465
 31
0.0
  0
LINE
  5
19D
100
AcDbEntity
100
AcDbLine
  8
INTERNALS
 62
7
370
25
  6
ByLayer
 10
-54.9006582201847593
 20
-30.1481837643292465
 30
0.0
 11
-59.4006582201847593
 21
-30.1481837643292465
 31
0.0
  0
LWPOLYLINE
  5
19E
  8
INTERNALS
 62
7
370
25
  6
ByLayer
100
AcDbEntity
100
AcDbPolyline
 90
5
 70
1
 10
-44.4006582201847593
 20
-28.6481837643292394
 10
-39.9006582201847664
 20
-26.3981837643292465
 10
-39.9006582201847664
 20
-30.8981837643292394
 10
-44.4006582201847593
 20
-28.6481837643292394
 10
-44.4006582201847593
 20
-28.6481837643292394
  0
LINE
  5
19F
100
AcDbEntity
100
AcDbLine
  8
INTERNALS
 62
7
370
25
  6
ByLayer
 10
-44.4006582201847593
 20
-28.6481837643292394
 30
0.0
 11
-47.4006582201847664
 21
-28.6481837643292394
 31
0.0
  0
CIRCLE
  5
1A0
100
AcDbEntity
100
AcDbCircle
  8
INTERNALS
 62
7
370
25
  6
ByLayer
 10
-47.4006582201847664
 20
-28.6481837643292394
 30
0.0
 40
0.3
  0
LWPOLYLINE
  5
1A1
  8
PINS
 62
7
370
25
  6
ByLayer
100
AcDbEntity
100
AcDbPolyline
 90
7
 70
1
 10
-78.9006582201847522
 20
-24.1481837643292394
 10
-80.4006582201847522
 20
-22.6481837643292465
 10
-78.9006582201847522
 20
-21.1481837643292394
 10
-59.4006582201847593
 20
-21.1481837643292394
 10
-59.4006582201847593
 20
-24.1481837643292394
 10
-78.9006582201847522
 20
-24.1481837643292394
 10
-78.9006582201847522
 20
-24.1481837643292394
  0
LWPOLYLINE
  5
1A2
  8
PINS
 62
7
370
25
  6
ByLayer
100
AcDbEntity
100
AcDbPolyline
 90
7
 70
1
 10
-78.9006582201847522
 20
-21.1481837643292394
 10
-80.4006582201847522
 20
-19.6481837643292394
 10
-78.9006582201847522
 20
-18.1481837643292323
 10
-59.4006582201847593
 20
-18.1481837643292323
 10
-59.4006582201847593
 20
-21.1481837643292394
 10
-78.9006582201847522
 20
-21.1481837643292394
 10
-78.9006582201847522
 20
-21.1481837643292394
  0
MTEXT
  5
1A3
100
AcDbEntity
100
AcDbMText
  8
PINS
 62
7
370
25
  6
ByLayer
 10
-69.9006582201847522
 20
-22.6481837643292465
 30
0.0
 40
1.8
 41
1500.0
 71
5
 72
2
  1
pin-13-in-not
  7
romand
 50
0.0
 73
1
 44
1.0
  0
MTEXT
  5
1A4
100
AcDbEntity
100
AcDbMText
  8
PINS
 62
7
370
25
  6
ByLayer
 10
-69.9006582201847522
 20
-19.6481837643292394
 30
0.0
 40
1.8
 41
1500.0
 71
5
 72
2
  1
pin-13-in
  7
romand
 50
0.0
 73
1
 44
1.0
  0
CIRCLE
  5
1A5
100
AcDbEntity
100
AcDbCircle
  8
INTERNALS
 62
7
370
25
  6
ByLayer
 10
-54.5256582201847593
 20
-22.6481837643292465
 30
0.0
 40
0.375
  0
LWPOLYLINE
  5
1A6
  8
INTERNALS
 62
7
370
25
  6
ByLayer
100
AcDbEntity
100
AcDbPolyline
 90
5
 70
1
 10
-54.1506582201847593
 20
-22.6481837643292465
 10
-50.4006582201847522
 20
-20.3981837643292394
 10
-50.4006582201847522
 20
-24.8981837643292394
 10
-54.1506582201847593
 20
-22.6481837643292465
 10
-54.1506582201847593
 20
-22.6481837643292465
  0
LINE
  5
1A7
100
AcDbEntity
100
AcDbLine
  8
INTERNALS
 62
7
370
25
  6
ByLayer
 10
-59.4006582201847593
 20
-19.6481837643292394
 30
0.0
 11
-47.4006582201847664
 21
-19.6481837643292394
 31
0.0
  0
LINE
  5
1A8
100
AcDbEntity
100
AcDbLine
  8
INTERNALS
 62
7
370
25
  6
ByLayer
 10
-47.4006582201847664
 20
-19.6481837643292394
 30
0.0
 11
-47.4006582201847664
 21
-22.6481837643292465
 31
0.0
  0
LINE
  5
1A9
100
AcDbEntity
100
AcDbLine
  8
INTERNALS
 62
7
370
25
  6
ByLayer
 10
-47.4006582201847664
 20
-22.6481837643292465
 30
0.0
 11
-50.4006582201847522
 21
-22.6481837643292465
 31
0.0
  0
LINE
  5
1AA
100
AcDbEntity
100
AcDbLine
  8
INTERNALS
 62
7
370
25
  6
ByLayer
 10
-54.9006582201847593
 20
-22.6481837643292465
 30
0.0
 11
-59.4006582201847593
 21
-22.6481837643292465
 31
0.0
  0
LWPOLYLINE
  5
1AB
  8
INTERNALS
 62
7
370
25
  6
ByLayer
100
AcDbEntity
100
AcDbPolyline
 90
5
 70
1
 10
-44.4006582201847593
 20
-21.1481837643292394
 10
-39.9006582201847664
 20
-18.8981837643292465
 10
-39.9006582201847664
 20
-23.3981837643292394
 10
-44.4006582201847593
 20
-21.1481837643292394
 10
-44.4006582201847593
 20
-21.1481837643292394
  0
LINE
  5
1AC
100
AcDbEntity
100
AcDbLine
  8
INTERNALS
 62
7
370
25
  6
ByLayer
 10
-44.4006582201847593
 20
-21.1481837643292394
 30
0.0
 11
-47.4006582201847664
 21
-21.1481837643292394
 31
0.0
  0
CIRCLE
  5
1AD
100
AcDbEntity
100
AcDbCircle
  8
INTERNALS
 62
7
370
25
  6
ByLayer
 10
-47.4006582201847664
 20
-21.1481837643292394
 30
0.0
 40
0.3
  0
LWPOLYLINE
  5
1AE
  8
PINS
 62
7
370
25
  6
ByLayer
100
AcDbEntity
100
AcDbPolyline
 90
7
 70
1
 10
-78.9006582201847522
 20
-16.6481837643292394
 10
-80.4006582201847522
 20
-15.1481837643292465
 10
-78.9006582201847522
 20
-13.6481837643292394
 10
-59.4006582201847593
 20
-13.6481837643292394
 10
-59.4006582201847593
 20
-16.6481837643292394
 10
-78.9006582201847522
 20
-16.6481837643292394
 10
-78.9006582201847522
 20
-16.6481837643292394
  0
LWPOLYLINE
  5
1AF
  8
PINS
 62
7
370
25
  6
ByLayer
100
AcDbEntity
100
AcDbPolyline
 90
7
 70
1
 10
-78.9006582201847522
 20
-13.6481837643292394
 10
-80.4006582201847522
 20
-12.1481837643292394
 10
-78.9006582201847522
 20
-10.6481837643292323
 10
-59.4006582201847593
 20
-10.6481837643292323
 10
-59.4006582201847593
 20
-13.6481837643292394
 10
-78.9006582201847522
 20
-13.6481837643292394
 10
-78.9006582201847522
 20
-13.6481837643292394
  0
CIRCLE
  5
1B0
100
AcDbEntity
100
AcDbCircle
  8
INTERNALS
 62
7
370
25
  6
ByLayer
 10
-54.5256582201847593
 20
-15.1481837643292465
 30
0.0
 40
0.375
  0
LWPOLYLINE
  5
1B1
  8
INTERNALS
 62
7
370
25
  6
ByLayer
100
AcDbEntity
100
AcDbPolyline
 90
5
 70
1
 10
-54.1506582201847593
 20
-15.1481837643292465
 10
-50.4006582201847522
 20
-12.8981837643292394
 10
-50.4006582201847522
 20
-17.3981837643292394
 10
-54.1506582201847593
 20
-15.1481837643292465
 10
-54.1506582201847593
 20
-15.1481837643292465
  0
LINE
  5
1B2
100
AcDbEntity
100
AcDbLine
  8
INTERNALS
 62
7
370
25
  6
ByLayer
 10
-59.4006582201847593
 20
-12.1481837643292394
 30
0.0
 11
-47.4006582201847664
 21
-12.1481837643292394
 31
0.0
  0
LINE
  5
1B3
100
AcDbEntity
100
AcDbLine
  8
INTERNALS
 62
7
370
25
  6
ByLayer
 10
-47.4006582201847664
 20
-12.1481837643292394
 30
0.0
 11
-47.4006582201847664
 21
-15.1481837643292465
 31
0.0
  0
LINE
  5
1B4
100
AcDbEntity
100
AcDbLine
  8
INTERNALS
 62
7
370
25
  6
ByLayer
 10
-47.4006582201847664
 20
-15.1481837643292465
 30
0.0
 11
-50.4006582201847522
 21
-15.1481837643292465
 31
0.0
  0
LINE
  5
1B5
100
AcDbEntity
100
AcDbLine
  8
INTERNALS
 62
7
370
25
  6
ByLayer
 10
-54.9006582201847593
 20
-15.1481837643292465
 30
0.0
 11
-59.4006582201847593
 21
-15.1481837643292465
 31
0.0
  0
LWPOLYLINE
  5
1B6
  8
INTERNALS
 62
7
370
25
  6
ByLayer
100
AcDbEntity
100
AcDbPolyline
 90
5
 70
1
 10
-44.4006582201847593
 20
-13.6481837643292394
 10
-39.9006582201847664
 20
-11.3981837643292465
 10
-39.9006582201847664
 20
-15.8981837643292394
 10
-44.4006582201847593
 20
-13.6481837643292394
 10
-44.4006582201847593
 20
-13.6481837643292394
  0
LINE
  5
1B7
100
AcDbEntity
100
AcDbLine
  8
INTERNALS
 62
7
370
25
  6
ByLayer
 10
-44.4006582201847593
 20
-13.6481837643292394
 30
0.0
 11
-47.4006582201847664
 21
-13.6481837643292394
 31
0.0
  0
CIRCLE
  5
1B8
100
AcDbEntity
100
AcDbCircle
  8
INTERNALS
 62
7
370
25
  6
ByLayer
 10
-47.4006582201847664
 20
-13.6481837643292394
 30
0.0
 40
0.3
  0
LINE
  5
1B9
100
AcDbEntity
100
AcDbLine
  8
PARAMS
 62
7
370
25
  6
ByLayer
 10
-57.9006582201847593
 20
-60.1481837643292394
 30
0.0
 11
-57.9006582201847593
 21
-60.1481837643292394
 31
0.0
  0
LINE
  5
1BA
100
AcDbEntity
100
AcDbLine
  8
PINS
 62
7
370
25
  6
ByLayer
 10
-80.4006582201847522
 20
-63.1481837643292394
 30
0.0
 11
-80.4006582201847522
 21
-60.1481837643292394
 31
0.0
  0
LINE
  5
1BB
100
AcDbEntity
100
AcDbLine
  8
PINS
 62
7
370
25
  6
ByLayer
 10
-80.4006582201847522
 20
-60.1481837643292394
 30
0.0
 11
-60.9006582201847593
 21
-60.1481837643292394
 31
0.0
  0
LINE
  5
1BC
100
AcDbEntity
100
AcDbLine
  8
PINS
 62
7
370
25
  6
ByLayer
 10
-60.9006582201847593
 20
-60.1481837643292394
 30
0.0
 11
-59.4006582201847593
 21
-61.6481837643292394
 31
0.0
  0
LINE
  5
1BD
100
AcDbEntity
100
AcDbLine
  8
PINS
 62
7
370
25
  6
ByLayer
 10
-59.4006582201847593
 20
-61.6481837643292394
 30
0.0
 11
-60.9006582201847593
 21
-63.1481837643292394
 31
0.0
  0
LINE
  5
1BE
100
AcDbEntity
100
AcDbLine
  8
PINS
 62
7
370
25
  6
ByLayer
 10
-60.9006582201847593
 20
-63.1481837643292394
 30
0.0
 11
-80.4006582201847522
 21
-63.1481837643292394
 31
0.0
  0
LINE
  5
1BF
100
AcDbEntity
100
AcDbLine
  8
PINS
 62
7
370
25
  6
ByLayer
 10
-80.4006582201847522
 20
-63.1481837643292394
 30
0.0
 11
-80.4006582201847522
 21
-63.1481837643292394
 31
0.0
  0
MTEXT
  5
1C0
100
AcDbEntity
100
AcDbMText
  8
PINS
 62
7
370
25
  6
ByLayer
 10
-71.4006582201847522
 20
-61.6481837643292394
 30
0.0
 40
1.8
 41
1500.0
 71
5
 72
2
  1
pin-8-out
  7
romand
 50
0.0
 73
1
 44
1.0
  0
ARC
  5
1C1
100
AcDbEntity
  8
INTERNALS
 62
7
370
25
  6
ByLayer
100
AcDbCircle
 10
-38.8375932201847576
 20
-60.1481837643292394
 30
0.0
 40
3.75
100
AcDbArc
 50
323.1301020000000221
 51
396.8698979999999779
  0
ARC
  5
1C2
100
AcDbEntity
  8
INTERNALS
 62
7
370
25
  6
ByLayer
100
AcDbCircle
 10
-37.6506582201847593
 20
-60.1481837643292394
 30
0.0
 40
3.75
100
AcDbArc
 50
323.1301020000000221
 51
396.8698979999999779
  0
ARC
  5
1C3
100
AcDbEntity
  8
INTERNALS
 62
7
370
25
  6
ByLayer
100
AcDbCircle
 10
-34.1685732201847614
 20
-56.2730537643292408
 30
0.0
 40
6.144075
100
AcDbArc
 50
265.4997520000000009
 51
320.8974289999999883
  0
ARC
  5
1C4
100
AcDbEntity
  8
INTERNALS
 62
7
370
25
  6
ByLayer
100
AcDbCircle
 10
-34.1685732201847614
 20
-64.0233137643292451
 30
0.0
 40
6.144075
100
AcDbArc
 50
39.1025709999999975
 51
94.5002479999999991
  0
LINE
  5
1C5
100
AcDbEntity
100
AcDbLine
  8
INTERNALS
 62
7
370
25
  6
ByLayer
 10
-35.4006582201847522
 20
-61.6481837643292394
 30
0.0
 11
-59.4006582201847593
 21
-61.6481837643292394
 31
0.0
  0
LINE
  5
1C6
100
AcDbEntity
100
AcDbLine
  8
INTERNALS
 62
7
370
25
  6
ByLayer
 10
-39.9006582201847664
 20
-58.6481837643292394
 30
0.0
 11
-35.4006582201847522
 21
-58.6481837643292394
 31
0.0
  0
LINE
  5
1C7
100
AcDbEntity
100
AcDbLine
  8
PARAMS
 62
7
370
25
  6
ByLayer
 10
-57.9006582201847593
 20
-60.1481837643292394
 30
0.0
 11
-57.9006582201847593
 21
-57.1481837643292465
 31
0.0
  0
LINE
  5
1C8
100
AcDbEntity
100
AcDbLine
  8
PARAMS
 62
7
370
25
  6
ByLayer
 10
-57.9006582201847593
 20
-57.1481837643292465
 30
0.0
 11
-39.9006582201847664
 21
-57.1481837643292465
 31
0.0
  0
LINE
  5
1C9
100
AcDbEntity
100
AcDbLine
  8
PARAMS
 62
7
370
25
  6
ByLayer
 10
-39.9006582201847664
 20
-57.1481837643292465
 30
0.0
 11
-39.9006582201847664
 21
-60.1481837643292394
 31
0.0
  0
LINE
  5
1CA
100
AcDbEntity
100
AcDbLine
  8
PARAMS
 62
7
370
25
  6
ByLayer
 10
-39.9006582201847664
 20
-60.1481837643292394
 30
0.0
 11
-57.9006582201847593
 21
-60.1481837643292394
 31
0.0
  0
LINE
  5
1CB
100
AcDbEntity
100
AcDbLine
  8
PARAMS
 62
7
370
25
  6
ByLayer
 10
-57.9006582201847593
 20
-67.6481837643292465
 30
0.0
 11
-57.9006582201847593
 21
-67.6481837643292465
 31
0.0
  0
LINE
  5
1CC
100
AcDbEntity
100
AcDbLine
  8
PINS
 62
7
370
25
  6
ByLayer
 10
-80.4006582201847522
 20
-70.6481837643292465
 30
0.0
 11
-80.4006582201847522
 21
-67.6481837643292465
 31
0.0
  0
LINE
  5
1CD
100
AcDbEntity
100
AcDbLine
  8
PINS
 62
7
370
25
  6
ByLayer
 10
-80.4006582201847522
 20
-67.6481837643292465
 30
0.0
 11
-60.9006582201847593
 21
-67.6481837643292465
 31
0.0
  0
LINE
  5
1CE
100
AcDbEntity
100
AcDbLine
  8
PINS
 62
7
370
25
  6
ByLayer
 10
-60.9006582201847593
 20
-67.6481837643292465
 30
0.0
 11
-59.4006582201847593
 21
-69.1481837643292465
 31
0.0
  0
LINE
  5
1CF
100
AcDbEntity
100
AcDbLine
  8
PINS
 62
7
370
25
  6
ByLayer
 10
-59.4006582201847593
 20
-69.1481837643292465
 30
0.0
 11
-60.9006582201847593
 21
-70.6481837643292465
 31
0.0
  0
LINE
  5
1D0
100
AcDbEntity
100
AcDbLine
  8
PINS
 62
7
370
25
  6
ByLayer
 10
-60.9006582201847593
 20
-70.6481837643292465
 30
0.0
 11
-80.4006582201847522
 21
-70.6481837643292465
 31
0.0
  0
LINE
  5
1D1
100
AcDbEntity
100
AcDbLine
  8
PINS
 62
7
370
25
  6
ByLayer
 10
-80.4006582201847522
 20
-70.6481837643292465
 30
0.0
 11
-80.4006582201847522
 21
-70.6481837643292465
 31
0.0
  0
MTEXT
  5
1D2
100
AcDbEntity
100
AcDbMText
  8
PINS
 62
7
370
25
  6
ByLayer
 10
-71.4006582201847522
 20
-69.1481837643292465
 30
0.0
 40
1.8
 41
1500.0
 71
5
 72
2
  1
pin-7-out
  7
romand
 50
0.0
 73
1
 44
1.0
  0
ARC
  5
1D3
100
AcDbEntity
  8
INTERNALS
 62
7
370
25
  6
ByLayer
100
AcDbCircle
 10
-38.8375932201847576
 20
-67.6481837643292465
 30
0.0
 40
3.75
100
AcDbArc
 50
323.1301020000000221
 51
396.8698979999999779
  0
ARC
  5
1D4
100
AcDbEntity
  8
INTERNALS
 62
7
370
25
  6
ByLayer
100
AcDbCircle
 10
-37.6506582201847593
 20
-67.6481837643292465
 30
0.0
 40
3.75
100
AcDbArc
 50
323.1301020000000221
 51
396.8698979999999779
  0
ARC
  5
1D5
100
AcDbEntity
  8
INTERNALS
 62
7
370
25
  6
ByLayer
100
AcDbCircle
 10
-34.1685732201847614
 20
-63.7730537643292408
 30
0.0
 40
6.144075
100
AcDbArc
 50
265.4997520000000009
 51
320.8974289999999883
  0
ARC
  5
1D6
100
AcDbEntity
  8
INTERNALS
 62
7
370
25
  6
ByLayer
100
AcDbCircle
 10
-34.1685732201847614
 20
-71.5233137643292451
 30
0.0
 40
6.144075
100
AcDbArc
 50
39.1025709999999975
 51
94.5002479999999991
  0
LINE
  5
1D7
100
AcDbEntity
100
AcDbLine
  8
INTERNALS
 62
7
370
25
  6
ByLayer
 10
-35.4006582201847522
 20
-69.1481837643292465
 30
0.0
 11
-59.4006582201847593
 21
-69.1481837643292465
 31
0.0
  0
LINE
  5
1D8
100
AcDbEntity
100
AcDbLine
  8
INTERNALS
 62
7
370
25
  6
ByLayer
 10
-39.9006582201847664
 20
-66.1481837643292465
 30
0.0
 11
-35.4006582201847522
 21
-66.1481837643292465
 31
0.0
  0
LINE
  5
1D9
100
AcDbEntity
100
AcDbLine
  8
PARAMS
 62
7
370
25
  6
ByLayer
 10
-57.9006582201847593
 20
-67.6481837643292465
 30
0.0
 11
-57.9006582201847593
 21
-64.6481837643292465
 31
0.0
  0
LINE
  5
1DA
100
AcDbEntity
100
AcDbLine
  8
PARAMS
 62
7
370
25
  6
ByLayer
 10
-57.9006582201847593
 20
-64.6481837643292465
 30
0.0
 11
-39.9006582201847664
 21
-64.6481837643292465
 31
0.0
  0
LINE
  5
1DB
100
AcDbEntity
100
AcDbLine
  8
PARAMS
 62
7
370
25
  6
ByLayer
 10
-39.9006582201847664
 20
-64.6481837643292465
 30
0.0
 11
-39.9006582201847664
 21
-67.6481837643292465
 31
0.0
  0
LINE
  5
1DC
100
AcDbEntity
100
AcDbLine
  8
PARAMS
 62
7
370
25
  6
ByLayer
 10
-39.9006582201847664
 20
-67.6481837643292465
 30
0.0
 11
-57.9006582201847593
 21
-67.6481837643292465
 31
0.0
  0
LINE
  5
1DD
100
AcDbEntity
100
AcDbLine
  8
PARAMS
 62
7
370
25
  6
ByLayer
 10
-57.9006582201847593
 20
-75.1481837643292465
 30
0.0
 11
-57.9006582201847593
 21
-75.1481837643292465
 31
0.0
  0
LINE
  5
1DE
100
AcDbEntity
100
AcDbLine
  8
PINS
 62
7
370
25
  6
ByLayer
 10
-80.4006582201847522
 20
-78.1481837643292465
 30
0.0
 11
-80.4006582201847522
 21
-75.1481837643292465
 31
0.0
  0
LINE
  5
1DF
100
AcDbEntity
100
AcDbLine
  8
PINS
 62
7
370
25
  6
ByLayer
 10
-80.4006582201847522
 20
-75.1481837643292465
 30
0.0
 11
-60.9006582201847593
 21
-75.1481837643292465
 31
0.0
  0
LINE
  5
1E0
100
AcDbEntity
100
AcDbLine
  8
PINS
 62
7
370
25
  6
ByLayer
 10
-60.9006582201847593
 20
-75.1481837643292465
 30
0.0
 11
-59.4006582201847593
 21
-76.6481837643292465
 31
0.0
  0
LINE
  5
1E1
100
AcDbEntity
100
AcDbLine
  8
PINS
 62
7
370
25
  6
ByLayer
 10
-59.4006582201847593
 20
-76.6481837643292465
 30
0.0
 11
-60.9006582201847593
 21
-78.1481837643292465
 31
0.0
  0
LINE
  5
1E2
100
AcDbEntity
100
AcDbLine
  8
PINS
 62
7
370
25
  6
ByLayer
 10
-60.9006582201847593
 20
-78.1481837643292465
 30
0.0
 11
-80.4006582201847522
 21
-78.1481837643292465
 31
0.0
  0
LINE
  5
1E3
100
AcDbEntity
100
AcDbLine
  8
PINS
 62
7
370
25
  6
ByLayer
 10
-80.4006582201847522
 20
-78.1481837643292465
 30
0.0
 11
-80.4006582201847522
 21
-78.1481837643292465
 31
0.0
  0
MTEXT
  5
1E4
100
AcDbEntity
100
AcDbMText
  8
PINS
 62
7
370
25
  6
ByLayer
 10
-71.4006582201847522
 20
-76.6481837643292465
 30
0.0
 40
1.8
 41
1500.0
 71
5
 72
2
  1
pin-6-out
  7
romand
 50
0.0
 73
1
 44
1.0
  0
ARC
  5
1E5
100
AcDbEntity
  8
INTERNALS
 62
7
370
25
  6
ByLayer
100
AcDbCircle
 10
-38.8375932201847576
 20
-75.1481837643292465
 30
0.0
 40
3.75
100
AcDbArc
 50
323.1301020000000221
 51
396.8698979999999779
  0
ARC
  5
1E6
100
AcDbEntity
  8
INTERNALS
 62
7
370
25
  6
ByLayer
100
AcDbCircle
 10
-37.6506582201847593
 20
-75.1481837643292465
 30
0.0
 40
3.75
100
AcDbArc
 50
323.1301020000000221
 51
396.8698979999999779
  0
ARC
  5
1E7
100
AcDbEntity
  8
INTERNALS
 62
7
370
25
  6
ByLayer
100
AcDbCircle
 10
-34.1685732201847614
 20
-71.2730537643292479
 30
0.0
 40
6.144075
100
AcDbArc
 50
265.4997520000000009
 51
320.8974289999999883
  0
ARC
  5
1E8
100
AcDbEntity
  8
INTERNALS
 62
7
370
25
  6
ByLayer
100
AcDbCircle
 10
-34.1685732201847614
 20
-79.0233137643292451
 30
0.0
 40
6.144075
100
AcDbArc
 50
39.1025709999999975
 51
94.5002479999999991
  0
LINE
  5
1E9
100
AcDbEntity
100
AcDbLine
  8
INTERNALS
 62
7
370
25
  6
ByLayer
 10
-35.4006582201847522
 20
-76.6481837643292465
 30
0.0
 11
-59.4006582201847593
 21
-76.6481837643292465
 31
0.0
  0
LINE
  5
1EA
100
AcDbEntity
100
AcDbLine
  8
INTERNALS
 62
7
370
25
  6
ByLayer
 10
-39.9006582201847664
 20
-73.6481837643292323
 30
0.0
 11
-35.4006582201847522
 21
-73.6481837643292323
 31
0.0
  0
LINE
  5
1EB
100
AcDbEntity
100
AcDbLine
  8
PARAMS
 62
7
370
25
  6
ByLayer
 10
-57.9006582201847593
 20
-75.1481837643292465
 30
0.0
 11
-57.9006582201847593
 21
-72.1481837643292465
 31
0.0
  0
LINE
  5
1EC
100
AcDbEntity
100
AcDbLine
  8
PARAMS
 62
7
370
25
  6
ByLayer
 10
-57.9006582201847593
 20
-72.1481837643292465
 30
0.0
 11
-39.9006582201847664
 21
-72.1481837643292465
 31
0.0
  0
LINE
  5
1ED
100
AcDbEntity
100
AcDbLine
  8
PARAMS
 62
7
370
25
  6
ByLayer
 10
-39.9006582201847664
 20
-72.1481837643292465
 30
0.0
 11
-39.9006582201847664
 21
-75.1481837643292465
 31
0.0
  0
LINE
  5
1EE
100
AcDbEntity
100
AcDbLine
  8
PARAMS
 62
7
370
25
  6
ByLayer
 10
-39.9006582201847664
 20
-75.1481837643292465
 30
0.0
 11
-57.9006582201847593
 21
-75.1481837643292465
 31
0.0
  0
LINE
  5
1EF
100
AcDbEntity
100
AcDbLine
  8
PARAMS
 62
7
370
25
  6
ByLayer
 10
-57.9006582201847593
 20
-82.6481837643292465
 30
0.0
 11
-57.9006582201847593
 21
-82.6481837643292465
 31
0.0
  0
LINE
  5
1F0
100
AcDbEntity
100
AcDbLine
  8
PINS
 62
7
370
25
  6
ByLayer
 10
-80.4006582201847522
 20
-85.6481837643292465
 30
0.0
 11
-80.4006582201847522
 21
-82.6481837643292465
 31
0.0
  0
LINE
  5
1F1
100
AcDbEntity
100
AcDbLine
  8
PINS
 62
7
370
25
  6
ByLayer
 10
-80.4006582201847522
 20
-82.6481837643292465
 30
0.0
 11
-60.9006582201847593
 21
-82.6481837643292465
 31
0.0
  0
LINE
  5
1F2
100
AcDbEntity
100
AcDbLine
  8
PINS
 62
7
370
25
  6
ByLayer
 10
-60.9006582201847593
 20
-82.6481837643292465
 30
0.0
 11
-59.4006582201847593
 21
-84.1481837643292465
 31
0.0
  0
LINE
  5
1F3
100
AcDbEntity
100
AcDbLine
  8
PINS
 62
7
370
25
  6
ByLayer
 10
-59.4006582201847593
 20
-84.1481837643292465
 30
0.0
 11
-60.9006582201847593
 21
-85.6481837643292465
 31
0.0
  0
LINE
  5
1F4
100
AcDbEntity
100
AcDbLine
  8
PINS
 62
7
370
25
  6
ByLayer
 10
-60.9006582201847593
 20
-85.6481837643292465
 30
0.0
 11
-80.4006582201847522
 21
-85.6481837643292465
 31
0.0
  0
LINE
  5
1F5
100
AcDbEntity
100
AcDbLine
  8
PINS
 62
7
370
25
  6
ByLayer
 10
-80.4006582201847522
 20
-85.6481837643292465
 30
0.0
 11
-80.4006582201847522
 21
-85.6481837643292465
 31
0.0
  0
MTEXT
  5
1F6
100
AcDbEntity
100
AcDbMText
  8
PINS
 62
7
370
25
  6
ByLayer
 10
-71.4006582201847522
 20
-84.1481837643292465
 30
0.0
 40
1.8
 41
1500.0
 71
5
 72
2
  1
pin-5-out
  7
romand
 50
0.0
 73
1
 44
1.0
  0
ARC
  5
1F7
100
AcDbEntity
  8
INTERNALS
 62
7
370
25
  6
ByLayer
100
AcDbCircle
 10
-38.8375932201847576
 20
-82.6481837643292465
 30
0.0
 40
3.75
100
AcDbArc
 50
323.1301020000000221
 51
396.8698979999999779
  0
ARC
  5
1F8
100
AcDbEntity
  8
INTERNALS
 62
7
370
25
  6
ByLayer
100
AcDbCircle
 10
-37.6506582201847593
 20
-82.6481837643292465
 30
0.0
 40
3.75
100
AcDbArc
 50
323.1301020000000221
 51
396.8698979999999779
  0
ARC
  5
1F9
100
AcDbEntity
  8
INTERNALS
 62
7
370
25
  6
ByLayer
100
AcDbCircle
 10
-34.1685732201847614
 20
-78.7730537643292337
 30
0.0
 40
6.144075
100
AcDbArc
 50
265.4997520000000009
 51
320.8974289999999883
  0
ARC
  5
1FA
100
AcDbEntity
  8
INTERNALS
 62
7
370
25
  6
ByLayer
100
AcDbCircle
 10
-34.1685732201847614
 20
-86.5233137643292309
 30
0.0
 40
6.144075
100
AcDbArc
 50
39.1025709999999975
 51
94.5002479999999991
  0
LINE
  5
1FB
100
AcDbEntity
100
AcDbLine
  8
INTERNALS
 62
7
370
25
  6
ByLayer
 10
-35.4006582201847522
 20
-84.1481837643292465
 30
0.0
 11
-59.4006582201847593
 21
-84.1481837643292465
 31
0.0
  0
LINE
  5
1FC
100
AcDbEntity
100
AcDbLine
  8
INTERNALS
 62
7
370
25
  6
ByLayer
 10
-39.9006582201847664
 20
-81.1481837643292323
 30
0.0
 11
-35.4006582201847522
 21
-81.1481837643292323
 31
0.0
  0
LINE
  5
1FD
100
AcDbEntity
100
AcDbLine
  8
PARAMS
 62
7
370
25
  6
ByLayer
 10
-57.9006582201847593
 20
-82.6481837643292465
 30
0.0
 11
-57.9006582201847593
 21
-79.6481837643292465
 31
0.0
  0
LINE
  5
1FE
100
AcDbEntity
100
AcDbLine
  8
PARAMS
 62
7
370
25
  6
ByLayer
 10
-57.9006582201847593
 20
-79.6481837643292465
 30
0.0
 11
-39.9006582201847664
 21
-79.6481837643292465
 31
0.0
  0
LINE
  5
1FF
100
AcDbEntity
100
AcDbLine
  8
PARAMS
 62
7
370
25
  6
ByLayer
 10
-39.9006582201847664
 20
-79.6481837643292465
 30
0.0
 11
-39.9006582201847664
 21
-82.6481837643292465
 31
0.0
  0
LINE
  5
200
100
AcDbEntity
100
AcDbLine
  8
PARAMS
 62
7
370
25
  6
ByLayer
 10
-39.9006582201847664
 20
-82.6481837643292465
 30
0.0
 11
-57.9006582201847593
 21
-82.6481837643292465
 31
0.0
  0
LINE
  5
201
100
AcDbEntity
100
AcDbLine
  8
PARAMS
 62
7
370
25
  6
ByLayer
 10
-57.9006582201847593
 20
-90.1481837643292465
 30
0.0
 11
-57.9006582201847593
 21
-90.1481837643292465
 31
0.0
  0
LINE
  5
202
100
AcDbEntity
100
AcDbLine
  8
PINS
 62
7
370
25
  6
ByLayer
 10
-80.4006582201847522
 20
-93.1481837643292465
 30
0.0
 11
-80.4006582201847522
 21
-90.1481837643292465
 31
0.0
  0
LINE
  5
203
100
AcDbEntity
100
AcDbLine
  8
PINS
 62
7
370
25
  6
ByLayer
 10
-80.4006582201847522
 20
-90.1481837643292465
 30
0.0
 11
-60.9006582201847593
 21
-90.1481837643292465
 31
0.0
  0
LINE
  5
204
100
AcDbEntity
100
AcDbLine
  8
PINS
 62
7
370
25
  6
ByLayer
 10
-60.9006582201847593
 20
-90.1481837643292465
 30
0.0
 11
-59.4006582201847593
 21
-91.6481837643292465
 31
0.0
  0
LINE
  5
205
100
AcDbEntity
100
AcDbLine
  8
PINS
 62
7
370
25
  6
ByLayer
 10
-59.4006582201847593
 20
-91.6481837643292465
 30
0.0
 11
-60.9006582201847593
 21
-93.1481837643292465
 31
0.0
  0
LINE
  5
206
100
AcDbEntity
100
AcDbLine
  8
PINS
 62
7
370
25
  6
ByLayer
 10
-60.9006582201847593
 20
-93.1481837643292465
 30
0.0
 11
-80.4006582201847522
 21
-93.1481837643292465
 31
0.0
  0
LINE
  5
207
100
AcDbEntity
100
AcDbLine
  8
PINS
 62
7
370
25
  6
ByLayer
 10
-80.4006582201847522
 20
-93.1481837643292465
 30
0.0
 11
-80.4006582201847522
 21
-93.1481837643292465
 31
0.0
  0
MTEXT
  5
208
100
AcDbEntity
100
AcDbMText
  8
PINS
 62
7
370
25
  6
ByLayer
 10
-71.4006582201847522
 20
-91.6481837643292465
 30
0.0
 40
1.8
 41
1500.0
 71
5
 72
2
  1
pin-4-out
  7
romand
 50
0.0
 73
1
 44
1.0
  0
ARC
  5
209
100
AcDbEntity
  8
INTERNALS
 62
7
370
25
  6
ByLayer
100
AcDbCircle
 10
-38.8375932201847576
 20
-90.1481837643292465
 30
0.0
 40
3.75
100
AcDbArc
 50
323.1301020000000221
 51
396.8698979999999779
  0
ARC
  5
20A
100
AcDbEntity
  8
INTERNALS
 62
7
370
25
  6
ByLayer
100
AcDbCircle
 10
-37.6506582201847593
 20
-90.1481837643292465
 30
0.0
 40
3.75
100
AcDbArc
 50
323.1301020000000221
 51
396.8698979999999779
  0
ARC
  5
20B
100
AcDbEntity
  8
INTERNALS
 62
7
370
25
  6
ByLayer
100
AcDbCircle
 10
-34.1685732201847614
 20
-86.2730537643292337
 30
0.0
 40
6.144075
100
AcDbArc
 50
265.4997520000000009
 51
320.8974289999999883
  0
ARC
  5
20C
100
AcDbEntity
  8
INTERNALS
 62
7
370
25
  6
ByLayer
100
AcDbCircle
 10
-34.1685732201847614
 20
-94.0233137643292309
 30
0.0
 40
6.144075
100
AcDbArc
 50
39.1025709999999975
 51
94.5002479999999991
  0
LINE
  5
20D
100
AcDbEntity
100
AcDbLine
  8
INTERNALS
 62
7
370
25
  6
ByLayer
 10
-35.4006582201847522
 20
-91.6481837643292465
 30
0.0
 11
-59.4006582201847593
 21
-91.6481837643292465
 31
0.0
  0
LINE
  5
20E
100
AcDbEntity
100
AcDbLine
  8
INTERNALS
 62
7
370
25
  6
ByLayer
 10
-39.9006582201847664
 20
-88.6481837643292465
 30
0.0
 11
-35.4006582201847522
 21
-88.6481837643292465
 31
0.0
  0
LINE
  5
20F
100
AcDbEntity
100
AcDbLine
  8
PARAMS
 62
7
370
25
  6
ByLayer
 10
-57.9006582201847593
 20
-90.1481837643292465
 30
0.0
 11
-57.9006582201847593
 21
-87.1481837643292465
 31
0.0
  0
LINE
  5
210
100
AcDbEntity
100
AcDbLine
  8
PARAMS
 62
7
370
25
  6
ByLayer
 10
-57.9006582201847593
 20
-87.1481837643292465
 30
0.0
 11
-39.9006582201847664
 21
-87.1481837643292465
 31
0.0
  0
LINE
  5
211
100
AcDbEntity
100
AcDbLine
  8
PARAMS
 62
7
370
25
  6
ByLayer
 10
-39.9006582201847664
 20
-87.1481837643292465
 30
0.0
 11
-39.9006582201847664
 21
-90.1481837643292465
 31
0.0
  0
LINE
  5
212
100
AcDbEntity
100
AcDbLine
  8
PARAMS
 62
7
370
25
  6
ByLayer
 10
-39.9006582201847664
 20
-90.1481837643292465
 30
0.0
 11
-57.9006582201847593
 21
-90.1481837643292465
 31
0.0
  0
LINE
  5
213
100
AcDbEntity
100
AcDbLine
  8
PARAMS
 62
7
370
25
  6
ByLayer
 10
-57.9006582201847593
 20
-97.6481837643292465
 30
0.0
 11
-57.9006582201847593
 21
-97.6481837643292465
 31
0.0
  0
LINE
  5
214
100
AcDbEntity
100
AcDbLine
  8
PINS
 62
7
370
25
  6
ByLayer
 10
-80.4006582201847522
 20
-100.6481837643292465
 30
0.0
 11
-80.4006582201847522
 21
-97.6481837643292465
 31
0.0
  0
LINE
  5
215
100
AcDbEntity
100
AcDbLine
  8
PINS
 62
7
370
25
  6
ByLayer
 10
-80.4006582201847522
 20
-97.6481837643292465
 30
0.0
 11
-60.9006582201847593
 21
-97.6481837643292465
 31
0.0
  0
LINE
  5
216
100
AcDbEntity
100
AcDbLine
  8
PINS
 62
7
370
25
  6
ByLayer
 10
-60.9006582201847593
 20
-97.6481837643292465
 30
0.0
 11
-59.4006582201847593
 21
-99.1481837643292465
 31
0.0
  0
LINE
  5
217
100
AcDbEntity
100
AcDbLine
  8
PINS
 62
7
370
25
  6
ByLayer
 10
-59.4006582201847593
 20
-99.1481837643292465
 30
0.0
 11
-60.9006582201847593
 21
-100.6481837643292465
 31
0.0
  0
LINE
  5
218
100
AcDbEntity
100
AcDbLine
  8
PINS
 62
7
370
25
  6
ByLayer
 10
-60.9006582201847593
 20
-100.6481837643292465
 30
0.0
 11
-80.4006582201847522
 21
-100.6481837643292465
 31
0.0
  0
LINE
  5
219
100
AcDbEntity
100
AcDbLine
  8
PINS
 62
7
370
25
  6
ByLayer
 10
-80.4006582201847522
 20
-100.6481837643292465
 30
0.0
 11
-80.4006582201847522
 21
-100.6481837643292465
 31
0.0
  0
MTEXT
  5
21A
100
AcDbEntity
100
AcDbMText
  8
PINS
 62
7
370
25
  6
ByLayer
 10
-71.4006582201847522
 20
-99.1481837643292465
 30
0.0
 40
1.8
 41
1500.0
 71
5
 72
2
  1
pin-3-out
  7
romand
 50
0.0
 73
1
 44
1.0
  0
ARC
  5
21B
100
AcDbEntity
  8
INTERNALS
 62
7
370
25
  6
ByLayer
100
AcDbCircle
 10
-38.8375932201847576
 20
-97.6481837643292465
 30
0.0
 40
3.75
100
AcDbArc
 50
323.1301020000000221
 51
396.8698979999999779
  0
ARC
  5
21C
100
AcDbEntity
  8
INTERNALS
 62
7
370
25
  6
ByLayer
100
AcDbCircle
 10
-37.6506582201847593
 20
-97.6481837643292465
 30
0.0
 40
3.75
100
AcDbArc
 50
323.1301020000000221
 51
396.8698979999999779
  0
ARC
  5
21D
100
AcDbEntity
  8
INTERNALS
 62
7
370
25
  6
ByLayer
100
AcDbCircle
 10
-34.1685732201847614
 20
-93.7730537643292337
 30
0.0
 40
6.144075
100
AcDbArc
 50
265.4997520000000009
 51
320.8974289999999883
  0
ARC
  5
21E
100
AcDbEntity
  8
INTERNALS
 62
7
370
25
  6
ByLayer
100
AcDbCircle
 10
-34.1685732201847614
 20
-101.5233137643292309
 30
0.0
 40
6.144075
100
AcDbArc
 50
39.1025709999999975
 51
94.5002479999999991
  0
LINE
  5
21F
100
AcDbEntity
100
AcDbLine
  8
INTERNALS
 62
7
370
25
  6
ByLayer
 10
-35.4006582201847522
 20
-99.1481837643292465
 30
0.0
 11
-59.4006582201847593
 21
-99.1481837643292465
 31
0.0
  0
LINE
  5
220
100
AcDbEntity
100
AcDbLine
  8
INTERNALS
 62
7
370
25
  6
ByLayer
 10
-39.9006582201847664
 20
-96.1481837643292465
 30
0.0
 11
-35.4006582201847522
 21
-96.1481837643292465
 31
0.0
  0
LINE
  5
221
100
AcDbEntity
100
AcDbLine
  8
PARAMS
 62
7
370
25
  6
ByLayer
 10
-57.9006582201847593
 20
-97.6481837643292465
 30
0.0
 11
-57.9006582201847593
 21
-94.6481837643292465
 31
0.0
  0
LINE
  5
222
100
AcDbEntity
100
AcDbLine
  8
PARAMS
 62
7
370
25
  6
ByLayer
 10
-57.9006582201847593
 20
-94.6481837643292465
 30
0.0
 11
-39.9006582201847664
 21
-94.6481837643292465
 31
0.0
  0
LINE
  5
223
100
AcDbEntity
100
AcDbLine
  8
PARAMS
 62
7
370
25
  6
ByLayer
 10
-39.9006582201847664
 20
-94.6481837643292465
 30
0.0
 11
-39.9006582201847664
 21
-97.6481837643292465
 31
0.0
  0
LINE
  5
224
100
AcDbEntity
100
AcDbLine
  8
PARAMS
 62
7
370
25
  6
ByLayer
 10
-39.9006582201847664
 20
-97.6481837643292465
 30
0.0
 11
-57.9006582201847593
 21
-97.6481837643292465
 31
0.0
  0
LINE
  5
225
100
AcDbEntity
100
AcDbLine
  8
PARAMS
 62
7
370
25
  6
ByLayer
 10
-57.9006582201847593
 20
-105.1481837643292465
 30
0.0
 11
-57.9006582201847593
 21
-105.1481837643292465
 31
0.0
  0
LINE
  5
226
100
AcDbEntity
100
AcDbLine
  8
PINS
 62
7
370
25
  6
ByLayer
 10
-80.4006582201847522
 20
-108.1481837643292465
 30
0.0
 11
-80.4006582201847522
 21
-105.1481837643292465
 31
0.0
  0
LINE
  5
227
100
AcDbEntity
100
AcDbLine
  8
PINS
 62
7
370
25
  6
ByLayer
 10
-80.4006582201847522
 20
-105.1481837643292465
 30
0.0
 11
-60.9006582201847593
 21
-105.1481837643292465
 31
0.0
  0
LINE
  5
228
100
AcDbEntity
100
AcDbLine
  8
PINS
 62
7
370
25
  6
ByLayer
 10
-60.9006582201847593
 20
-105.1481837643292465
 30
0.0
 11
-59.4006582201847593
 21
-106.6481837643292465
 31
0.0
  0
LINE
  5
229
100
AcDbEntity
100
AcDbLine
  8
PINS
 62
7
370
25
  6
ByLayer
 10
-59.4006582201847593
 20
-106.6481837643292465
 30
0.0
 11
-60.9006582201847593
 21
-108.1481837643292465
 31
0.0
  0
LINE
  5
22A
100
AcDbEntity
100
AcDbLine
  8
PINS
 62
7
370
25
  6
ByLayer
 10
-60.9006582201847593
 20
-108.1481837643292465
 30
0.0
 11
-80.4006582201847522
 21
-108.1481837643292465
 31
0.0
  0
LINE
  5
22B
100
AcDbEntity
100
AcDbLine
  8
PINS
 62
7
370
25
  6
ByLayer
 10
-80.4006582201847522
 20
-108.1481837643292465
 30
0.0
 11
-80.4006582201847522
 21
-108.1481837643292465
 31
0.0
  0
MTEXT
  5
22C
100
AcDbEntity
100
AcDbMText
  8
PINS
 62
7
370
25
  6
ByLayer
 10
-71.4006582201847522
 20
-106.6481837643292465
 30
0.0
 40
1.8
 41
1500.0
 71
5
 72
2
  1
pin-2-out
  7
romand
 50
0.0
 73
1
 44
1.0
  0
ARC
  5
22D
100
AcDbEntity
  8
INTERNALS
 62
7
370
25
  6
ByLayer
100
AcDbCircle
 10
-38.8375932201847576
 20
-105.1481837643292465
 30
0.0
 40
3.75
100
AcDbArc
 50
323.1301020000000221
 51
396.8698979999999779
  0
ARC
  5
22E
100
AcDbEntity
  8
INTERNALS
 62
7
370
25
  6
ByLayer
100
AcDbCircle
 10
-37.6506582201847593
 20
-105.1481837643292465
 30
0.0
 40
3.75
100
AcDbArc
 50
323.1301020000000221
 51
396.8698979999999779
  0
ARC
  5
22F
100
AcDbEntity
  8
INTERNALS
 62
7
370
25
  6
ByLayer
100
AcDbCircle
 10
-34.1685732201847614
 20
-101.2730537643292337
 30
0.0
 40
6.144075
100
AcDbArc
 50
265.4997520000000009
 51
320.8974289999999883
  0
ARC
  5
230
100
AcDbEntity
  8
INTERNALS
 62
7
370
25
  6
ByLayer
100
AcDbCircle
 10
-34.1685732201847614
 20
-109.0233137643292309
 30
0.0
 40
6.144075
100
AcDbArc
 50
39.1025709999999975
 51
94.5002479999999991
  0
LINE
  5
231
100
AcDbEntity
100
AcDbLine
  8
INTERNALS
 62
7
370
25
  6
ByLayer
 10
-35.4006582201847522
 20
-106.6481837643292465
 30
0.0
 11
-59.4006582201847593
 21
-106.6481837643292465
 31
0.0
  0
LINE
  5
232
100
AcDbEntity
100
AcDbLine
  8
INTERNALS
 62
7
370
25
  6
ByLayer
 10
-39.9006582201847664
 20
-103.6481837643292465
 30
0.0
 11
-35.4006582201847522
 21
-103.6481837643292465
 31
0.0
  0
LINE
  5
233
100
AcDbEntity
100
AcDbLine
  8
PARAMS
 62
7
370
25
  6
ByLayer
 10
-57.9006582201847593
 20
-105.1481837643292465
 30
0.0
 11
-57.9006582201847593
 21
-102.1481837643292323
 31
0.0
  0
LINE
  5
234
100
AcDbEntity
100
AcDbLine
  8
PARAMS
 62
7
370
25
  6
ByLayer
 10
-57.9006582201847593
 20
-102.1481837643292323
 30
0.0
 11
-39.9006582201847664
 21
-102.1481837643292323
 31
0.0
  0
LINE
  5
235
100
AcDbEntity
100
AcDbLine
  8
PARAMS
 62
7
370
25
  6
ByLayer
 10
-39.9006582201847664
 20
-102.1481837643292323
 30
0.0
 11
-39.9006582201847664
 21
-105.1481837643292465
 31
0.0
  0
LINE
  5
236
100
AcDbEntity
100
AcDbLine
  8
PARAMS
 62
7
370
25
  6
ByLayer
 10
-39.9006582201847664
 20
-105.1481837643292465
 30
0.0
 11
-57.9006582201847593
 21
-105.1481837643292465
 31
0.0
  0
LINE
  5
237
100
AcDbEntity
100
AcDbLine
  8
PARAMS
 62
7
370
25
  6
ByLayer
 10
-57.9006582201847593
 20
-52.6481837643292465
 30
0.0
 11
-57.9006582201847593
 21
-52.6481837643292465
 31
0.0
  0
LINE
  5
238
100
AcDbEntity
100
AcDbLine
  8
PINS
 62
7
370
25
  6
ByLayer
 10
-80.4006582201847522
 20
-55.6481837643292394
 30
0.0
 11
-80.4006582201847522
 21
-52.6481837643292465
 31
0.0
  0
LINE
  5
239
100
AcDbEntity
100
AcDbLine
  8
PINS
 62
7
370
25
  6
ByLayer
 10
-80.4006582201847522
 20
-52.6481837643292465
 30
0.0
 11
-60.9006582201847593
 21
-52.6481837643292465
 31
0.0
  0
LINE
  5
23A
100
AcDbEntity
100
AcDbLine
  8
PINS
 62
7
370
25
  6
ByLayer
 10
-60.9006582201847593
 20
-52.6481837643292465
 30
0.0
 11
-59.4006582201847593
 21
-54.1481837643292394
 31
0.0
  0
LINE
  5
23B
100
AcDbEntity
100
AcDbLine
  8
PINS
 62
7
370
25
  6
ByLayer
 10
-59.4006582201847593
 20
-54.1481837643292394
 30
0.0
 11
-60.9006582201847593
 21
-55.6481837643292394
 31
0.0
  0
LINE
  5
23C
100
AcDbEntity
100
AcDbLine
  8
PINS
 62
7
370
25
  6
ByLayer
 10
-60.9006582201847593
 20
-55.6481837643292394
 30
0.0
 11
-80.4006582201847522
 21
-55.6481837643292394
 31
0.0
  0
LINE
  5
23D
100
AcDbEntity
100
AcDbLine
  8
PINS
 62
7
370
25
  6
ByLayer
 10
-80.4006582201847522
 20
-55.6481837643292394
 30
0.0
 11
-80.4006582201847522
 21
-55.6481837643292394
 31
0.0
  0
MTEXT
  5
23E
100
AcDbEntity
100
AcDbMText
  8
PINS
 62
7
370
25
  6
ByLayer
 10
-71.4006582201847522
 20
-54.1481837643292394
 30
0.0
 40
1.8
 41
1500.0
 71
5
 72
2
  1
pin-9-out
  7
romand
 50
0.0
 73
1
 44
1.0
  0
ARC
  5
23F
100
AcDbEntity
  8
INTERNALS
 62
7
370
25
  6
ByLayer
100
AcDbCircle
 10
-38.8375932201847576
 20
-52.6481837643292465
 30
0.0
 40
3.75
100
AcDbArc
 50
323.1301020000000221
 51
396.8698979999999779
  0
ARC
  5
240
100
AcDbEntity
  8
INTERNALS
 62
7
370
25
  6
ByLayer
100
AcDbCircle
 10
-37.6506582201847593
 20
-52.6481837643292465
 30
0.0
 40
3.75
100
AcDbArc
 50
323.1301020000000221
 51
396.8698979999999779
  0
ARC
  5
241
100
AcDbEntity
  8
INTERNALS
 62
7
370
25
  6
ByLayer
100
AcDbCircle
 10
-34.1685732201847614
 20
-48.7730537643292337
 30
0.0
 40
6.144075
100
AcDbArc
 50
265.4997520000000009
 51
320.8974289999999883
  0
ARC
  5
242
100
AcDbEntity
  8
INTERNALS
 62
7
370
25
  6
ByLayer
100
AcDbCircle
 10
-34.1685732201847614
 20
-56.5233137643292451
 30
0.0
 40
6.144075
100
AcDbArc
 50
39.1025709999999975
 51
94.5002479999999991
  0
LINE
  5
243
100
AcDbEntity
100
AcDbLine
  8
INTERNALS
 62
7
370
25
  6
ByLayer
 10
-35.4006582201847522
 20
-54.1481837643292394
 30
0.0
 11
-59.4006582201847593
 21
-54.1481837643292394
 31
0.0
  0
LINE
  5
244
100
AcDbEntity
100
AcDbLine
  8
INTERNALS
 62
7
370
25
  6
ByLayer
 10
-39.9006582201847664
 20
-51.1481837643292323
 30
0.0
 11
-35.4006582201847522
 21
-51.1481837643292323
 31
0.0
  0
LINE
  5
245
100
AcDbEntity
100
AcDbLine
  8
PARAMS
 62
7
370
25
  6
ByLayer
 10
-57.9006582201847593
 20
-52.6481837643292465
 30
0.0
 11
-57.9006582201847593
 21
-49.6481837643292465
 31
0.0
  0
LINE
  5
246
100
AcDbEntity
100
AcDbLine
  8
PARAMS
 62
7
370
25
  6
ByLayer
 10
-57.9006582201847593
 20
-49.6481837643292465
 30
0.0
 11
-39.9006582201847664
 21
-49.6481837643292465
 31
0.0
  0
LINE
  5
247
100
AcDbEntity
100
AcDbLine
  8
PARAMS
 62
7
370
25
  6
ByLayer
 10
-39.9006582201847664
 20
-49.6481837643292465
 30
0.0
 11
-39.9006582201847664
 21
-52.6481837643292465
 31
0.0
  0
LINE
  5
248
100
AcDbEntity
100
AcDbLine
  8
PARAMS
 62
7
370
25
  6
ByLayer
 10
-39.9006582201847664
 20
-52.6481837643292465
 30
0.0
 11
-57.9006582201847593
 21
-52.6481837643292465
 31
0.0
  0
LINE
  5
249
100
AcDbEntity
100
AcDbLine
  8
PINS
 62
7
370
25
  6
ByLayer
 10
-57.9006582201847593
 20
-112.6481837643292465
 30
0.0
 11
-57.9006582201847593
 21
-112.6481837643292465
 31
0.0
  0
LWPOLYLINE
  5
24A
  8
PINS
 62
7
370
25
  6
ByLayer
100
AcDbEntity
100
AcDbPolyline
 90
7
 70
1
 10
-80.4006582201847522
 20
-115.6481837643292465
 10
-80.4006582201847522
 20
-112.6481837643292465
 10
-60.9006582201847593
 20
-112.6481837643292465
 10
-59.4006582201847593
 20
-114.1481837643292465
 10
-60.9006582201847593
 20
-115.6481837643292465
 10
-80.4006582201847522
 20
-115.6481837643292465
 10
-80.4006582201847522
 20
-115.6481837643292465
  0
MTEXT
  5
24B
100
AcDbEntity
100
AcDbMText
  8
PINS
 62
7
370
25
  6
ByLayer
 10
-71.4006582201847522
 20
-114.1481837643292465
 30
0.0
 40
1.8
 41
1500.0
 71
5
 72
2
  1
pin-17-out
  7
romand
 50
0.0
 73
1
 44
1.0
  0
ARC
  5
24C
100
AcDbEntity
  8
INTERNALS
 62
7
370
25
  6
ByLayer
100
AcDbCircle
 10
-38.8375932201847576
 20
-112.6481837643292465
 30
0.0
 40
3.75
100
AcDbArc
 50
323.1301020000000221
 51
396.8698979999999779
  0
ARC
  5
24D
100
AcDbEntity
  8
INTERNALS
 62
7
370
25
  6
ByLayer
100
AcDbCircle
 10
-37.6506582201847593
 20
-112.6481837643292465
 30
0.0
 40
3.75
100
AcDbArc
 50
323.1301020000000221
 51
396.8698979999999779
  0
ARC
  5
24E
100
AcDbEntity
  8
INTERNALS
 62
7
370
25
  6
ByLayer
100
AcDbCircle
 10
-34.1685732201847614
 20
-108.7730537643292337
 30
0.0
 40
6.144075
100
AcDbArc
 50
265.4997520000000009
 51
320.8974289999999883
  0
ARC
  5
24F
100
AcDbEntity
  8
INTERNALS
 62
7
370
25
  6
ByLayer
100
AcDbCircle
 10
-34.1685732201847614
 20
-116.5233137643292451
 30
0.0
 40
6.144075
100
AcDbArc
 50
39.1025709999999975
 51
94.5002479999999991
  0
LINE
  5
250
100
AcDbEntity
100
AcDbLine
  8
INTERNALS
 62
7
370
25
  6
ByLayer
 10
-35.4006582201847522
 20
-114.1481837643292465
 30
0.0
 11
-59.4006582201847593
 21
-114.1481837643292465
 31
0.0
  0
LINE
  5
251
100
AcDbEntity
100
AcDbLine
  8
INTERNALS
 62
7
370
25
  6
ByLayer
 10
-39.9006582201847664
 20
-111.1481837643292465
 30
0.0
 11
-35.4006582201847522
 21
-111.1481837643292465
 31
0.0
  0
LWPOLYLINE
  5
252
  8
PARAMS
 62
7
370
25
  6
ByLayer
100
AcDbEntity
100
AcDbPolyline
 90
5
 70
1
 10
-57.9006582201847593
 20
-112.6481837643292465
 10
-57.9006582201847593
 20
-109.6481837643292465
 10
-39.9006582201847664
 20
-109.6481837643292465
 10
-39.9006582201847664
 20
-112.6481837643292465
 10
-57.9006582201847593
 20
-112.6481837643292465
  0
LINE
  5
253
100
AcDbEntity
100
AcDbLine
  8
PINS
 62
7
370
25
  6
ByLayer
 10
-57.9006582201847593
 20
-120.1481837643292465
 30
0.0
 11
-57.9006582201847593
 21
-120.1481837643292465
 31
0.0
  0
LWPOLYLINE
  5
254
  8
PINS
 62
7
370
25
  6
ByLayer
100
AcDbEntity
100
AcDbPolyline
 90
7
 70
1
 10
-80.4006582201847522
 20
-123.1481837643292465
 10
-80.4006582201847522
 20
-120.1481837643292465
 10
-60.9006582201847593
 20
-120.1481837643292465
 10
-59.4006582201847593
 20
-121.6481837643292465
 10
-60.9006582201847593
 20
-123.1481837643292465
 10
-80.4006582201847522
 20
-123.1481837643292465
 10
-80.4006582201847522
 20
-123.1481837643292465
  0
MTEXT
  5
255
100
AcDbEntity
100
AcDbMText
  8
PINS
 62
7
370
25
  6
ByLayer
 10
-71.4006582201847522
 20
-121.6481837643292465
 30
0.0
 40
1.8
 41
1500.0
 71
5
 72
2
  1
pin-16-out
  7
romand
 50
0.0
 73
1
 44
1.0
  0
ARC
  5
256
100
AcDbEntity
  8
INTERNALS
 62
7
370
25
  6
ByLayer
100
AcDbCircle
 10
-38.8375932201847576
 20
-120.1481837643292465
 30
0.0
 40
3.75
100
AcDbArc
 50
323.1301020000000221
 51
396.8698979999999779
  0
ARC
  5
257
100
AcDbEntity
  8
INTERNALS
 62
7
370
25
  6
ByLayer
100
AcDbCircle
 10
-37.6506582201847593
 20
-120.1481837643292465
 30
0.0
 40
3.75
100
AcDbArc
 50
323.1301020000000221
 51
396.8698979999999779
  0
ARC
  5
258
100
AcDbEntity
  8
INTERNALS
 62
7
370
25
  6
ByLayer
100
AcDbCircle
 10
-34.1685732201847614
 20
-116.2730537643292337
 30
0.0
 40
6.144075
100
AcDbArc
 50
265.4997520000000009
 51
320.8974289999999883
  0
ARC
  5
259
100
AcDbEntity
  8
INTERNALS
 62
7
370
25
  6
ByLayer
100
AcDbCircle
 10
-34.1685732201847614
 20
-124.0233137643292309
 30
0.0
 40
6.144075
100
AcDbArc
 50
39.1025709999999975
 51
94.5002479999999991
  0
LINE
  5
25A
100
AcDbEntity
100
AcDbLine
  8
INTERNALS
 62
7
370
25
  6
ByLayer
 10
-35.4006582201847522
 20
-121.6481837643292465
 30
0.0
 11
-59.4006582201847593
 21
-121.6481837643292465
 31
0.0
  0
LINE
  5
25B
100
AcDbEntity
100
AcDbLine
  8
INTERNALS
 62
7
370
25
  6
ByLayer
 10
-39.9006582201847664
 20
-118.6481837643292465
 30
0.0
 11
-35.4006582201847522
 21
-118.6481837643292465
 31
0.0
  0
LWPOLYLINE
  5
25C
  8
PARAMS
 62
7
370
25
  6
ByLayer
100
AcDbEntity
100
AcDbPolyline
 90
5
 70
1
 10
-57.9006582201847593
 20
-120.1481837643292465
 10
-57.9006582201847593
 20
-117.1481837643292465
 10
-39.9006582201847664
 20
-117.1481837643292465
 10
-39.9006582201847664
 20
-120.1481837643292465
 10
-57.9006582201847593
 20
-120.1481837643292465
  0
LINE
  5
25D
100
AcDbEntity
100
AcDbLine
  8
PINS
 62
7
370
25
  6
ByLayer
 10
-57.9006582201847593
 20
-127.6481837643292465
 30
0.0
 11
-57.9006582201847593
 21
-127.6481837643292465
 31
0.0
  0
LWPOLYLINE
  5
25E
  8
PINS
 62
7
370
25
  6
ByLayer
100
AcDbEntity
100
AcDbPolyline
 90
7
 70
1
 10
-80.4006582201847522
 20
-130.6481837643292465
 10
-80.4006582201847522
 20
-127.6481837643292465
 10
-60.9006582201847593
 20
-127.6481837643292465
 10
-59.4006582201847593
 20
-129.1481837643292465
 10
-60.9006582201847593
 20
-130.6481837643292465
 10
-80.4006582201847522
 20
-130.6481837643292465
 10
-80.4006582201847522
 20
-130.6481837643292465
  0
MTEXT
  5
25F
100
AcDbEntity
100
AcDbMText
  8
PINS
 62
7
370
25
  6
ByLayer
 10
-71.4006582201847522
 20
-129.1481837643292465
 30
0.0
 40
1.8
 41
1500.0
 71
5
 72
2
  1
pin-14-out
  7
romand
 50
0.0
 73
1
 44
1.0
  0
ARC
  5
260
100
AcDbEntity
  8
INTERNALS
 62
7
370
25
  6
ByLayer
100
AcDbCircle
 10
-38.8375932201847576
 20
-127.6481837643292465
 30
0.0
 40
3.75
100
AcDbArc
 50
323.1301020000000221
 51
396.8698979999999779
  0
ARC
  5
261
100
AcDbEntity
  8
INTERNALS
 62
7
370
25
  6
ByLayer
100
AcDbCircle
 10
-37.6506582201847593
 20
-127.6481837643292465
 30
0.0
 40
3.75
100
AcDbArc
 50
323.1301020000000221
 51
396.8698979999999779
  0
ARC
  5
262
100
AcDbEntity
  8
INTERNALS
 62
7
370
25
  6
ByLayer
100
AcDbCircle
 10
-34.1685732201847614
 20
-123.7730537643292337
 30
0.0
 40
6.144075
100
AcDbArc
 50
265.4997520000000009
 51
320.8974289999999883
  0
ARC
  5
263
100
AcDbEntity
  8
INTERNALS
 62
7
370
25
  6
ByLayer
100
AcDbCircle
 10
-34.1685732201847614
 20
-131.5233137643292309
 30
0.0
 40
6.144075
100
AcDbArc
 50
39.1025709999999975
 51
94.5002479999999991
  0
LINE
  5
264
100
AcDbEntity
100
AcDbLine
  8
INTERNALS
 62
7
370
25
  6
ByLayer
 10
-35.4006582201847522
 20
-129.1481837643292465
 30
0.0
 11
-59.4006582201847593
 21
-129.1481837643292465
 31
0.0
  0
LINE
  5
265
100
AcDbEntity
100
AcDbLine
  8
INTERNALS
 62
7
370
25
  6
ByLayer
 10
-39.9006582201847664
 20
-126.1481837643292465
 30
0.0
 11
-35.4006582201847522
 21
-126.1481837643292465
 31
0.0
  0
LWPOLYLINE
  5
266
  8
PARAMS
 62
7
370
25
  6
ByLayer
100
AcDbEntity
100
AcDbPolyline
 90
5
 70
1
 10
-57.9006582201847593
 20
-127.6481837643292465
 10
-57.9006582201847593
 20
-124.6481837643292323
 10
-39.9006582201847664
 20
-124.6481837643292323
 10
-39.9006582201847664
 20
-127.6481837643292465
 10
-57.9006582201847593
 20
-127.6481837643292465
  0
LINE
  5
267
100
AcDbEntity
100
AcDbLine
  8
PINS
 62
7
370
25
  6
ByLayer
 10
-57.9006582201847593
 20
-135.1481837643292465
 30
0.0
 11
-57.9006582201847593
 21
-135.1481837643292465
 31
0.0
  0
LWPOLYLINE
  5
268
  8
PINS
 62
7
370
25
  6
ByLayer
100
AcDbEntity
100
AcDbPolyline
 90
7
 70
1
 10
-80.4006582201847522
 20
-138.1481837643292465
 10
-80.4006582201847522
 20
-135.1481837643292465
 10
-60.9006582201847593
 20
-135.1481837643292465
 10
-59.4006582201847593
 20
-136.6481837643292465
 10
-60.9006582201847593
 20
-138.1481837643292465
 10
-80.4006582201847522
 20
-138.1481837643292465
 10
-80.4006582201847522
 20
-138.1481837643292465
  0
MTEXT
  5
269
100
AcDbEntity
100
AcDbMText
  8
PINS
 62
7
370
25
  6
ByLayer
 10
-71.4006582201847522
 20
-136.6481837643292465
 30
0.0
 40
1.8
 41
1500.0
 71
5
 72
2
  1
pin-1-out
  7
romand
 50
0.0
 73
1
 44
1.0
  0
ARC
  5
26A
100
AcDbEntity
  8
INTERNALS
 62
7
370
25
  6
ByLayer
100
AcDbCircle
 10
-38.8375932201847576
 20
-135.1481837643292465
 30
0.0
 40
3.75
100
AcDbArc
 50
323.1301020000000221
 51
396.8698979999999779
  0
ARC
  5
26B
100
AcDbEntity
  8
INTERNALS
 62
7
370
25
  6
ByLayer
100
AcDbCircle
 10
-37.6506582201847593
 20
-135.1481837643292465
 30
0.0
 40
3.75
100
AcDbArc
 50
323.1301020000000221
 51
396.8698979999999779
  0
ARC
  5
26C
100
AcDbEntity
  8
INTERNALS
 62
7
370
25
  6
ByLayer
100
AcDbCircle
 10
-34.1685732201847614
 20
-131.2730537643292337
 30
0.0
 40
6.144075
100
AcDbArc
 50
265.4997520000000009
 51
320.8974289999999883
  0
ARC
  5
26D
100
AcDbEntity
  8
INTERNALS
 62
7
370
25
  6
ByLayer
100
AcDbCircle
 10
-34.1685732201847614
 20
-139.0233137643292309
 30
0.0
 40
6.144075
100
AcDbArc
 50
39.1025709999999975
 51
94.5002479999999991
  0
LINE
  5
26E
100
AcDbEntity
100
AcDbLine
  8
INTERNALS
 62
7
370
25
  6
ByLayer
 10
-35.4006582201847522
 20
-136.6481837643292465
 30
0.0
 11
-59.4006582201847593
 21
-136.6481837643292465
 31
0.0
  0
LINE
  5
26F
100
AcDbEntity
100
AcDbLine
  8
INTERNALS
 62
7
370
25
  6
ByLayer
 10
-39.9006582201847664
 20
-133.6481837643292465
 30
0.0
 11
-35.4006582201847522
 21
-133.6481837643292465
 31
0.0
  0
LWPOLYLINE
  5
270
  8
PARAMS
 62
7
370
25
  6
ByLayer
100
AcDbEntity
100
AcDbPolyline
 90
5
 70
1
 10
-57.9006582201847593
 20
-135.1481837643292465
 10
-57.9006582201847593
 20
-132.1481837643292465
 10
-39.9006582201847664
 20
-132.1481837643292465
 10
-39.9006582201847664
 20
-135.1481837643292465
 10
-57.9006582201847593
 20
-135.1481837643292465
  0
LINE
  5
271
100
AcDbEntity
100
AcDbLine
  8
OUTLINE
 62
7
370
25
  6
ByLayer
 10
-77.4006582201847522
 20
-63.1481837643292394
 30
0.0
 11
-77.4006582201847522
 21
-67.6481837643292465
 31
0.0
  0
LINE
  5
272
100
AcDbEntity
100
AcDbLine
  8
OUTLINE
 62
7
370
25
  6
ByLayer
 10
-77.4006582201847522
 20
-70.6481837643292465
 30
0.0
 11
-77.4006582201847522
 21
-75.1481837643292465
 31
0.0
  0
LINE
  5
273
100
AcDbEntity
100
AcDbLine
  8
OUTLINE
 62
7
370
25
  6
ByLayer
 10
-77.4006582201847522
 20
-78.1481837643292465
 30
0.0
 11
-77.4006582201847522
 21
-82.6481837643292465
 31
0.0
  0
LINE
  5
274
100
AcDbEntity
100
AcDbLine
  8
OUTLINE
 62
7
370
25
  6
ByLayer
 10
-77.4006582201847522
 20
-85.6481837643292465
 30
0.0
 11
-77.4006582201847522
 21
-90.1481837643292465
 31
0.0
  0
LINE
  5
275
100
AcDbEntity
100
AcDbLine
  8
OUTLINE
 62
7
370
25
  6
ByLayer
 10
-77.4006582201847522
 20
-93.1481837643292465
 30
0.0
 11
-77.4006582201847522
 21
-97.6481837643292465
 31
0.0
  0
LINE
  5
276
100
AcDbEntity
100
AcDbLine
  8
OUTLINE
 62
7
370
25
  6
ByLayer
 10
-77.4006582201847522
 20
-108.1481837643292465
 30
0.0
 11
-77.4006582201847522
 21
-112.6481837643292465
 31
0.0
  0
LINE
  5
277
100
AcDbEntity
100
AcDbLine
  8
OUTLINE
 62
7
370
25
  6
ByLayer
 10
-77.4006582201847522
 20
-115.6481837643292465
 30
0.0
 11
-77.4006582201847522
 21
-120.1481837643292465
 31
0.0
  0
LINE
  5
278
100
AcDbEntity
100
AcDbLine
  8
OUTLINE
 62
7
370
25
  6
ByLayer
 10
-77.4006582201847522
 20
-123.1481837643292465
 30
0.0
 11
-77.4006582201847522
 21
-127.6481837643292465
 31
0.0
  0
LINE
  5
279
100
AcDbEntity
100
AcDbLine
  8
OUTLINE
 62
7
370
25
  6
ByLayer
 10
-77.4006582201847522
 20
-130.6481837643292465
 30
0.0
 11
-77.4006582201847522
 21
-135.1481837643292465
 31
0.0
  0
LINE
  5
27A
100
AcDbEntity
100
AcDbLine
  8
OUTLINE
 62
7
370
25
  6
ByLayer
 10
-77.4006582201847522
 20
-100.6481837643292465
 30
0.0
 11
-77.4006582201847522
 21
-105.1481837643292465
 31
0.0
  0
LINE
  5
27B
100
AcDbEntity
100
AcDbLine
  8
OUTLINE
 62
7
370
25
  6
ByLayer
 10
-77.4006582201847522
 20
-55.6481837643292394
 30
0.0
 11
-77.4006582201847522
 21
-60.1481837643292394
 31
0.0
  0
LINE
  5
27C
100
AcDbEntity
100
AcDbLine
  8
OUTLINE
 62
7
370
25
  6
ByLayer
 10
-77.4006582201847522
 20
-16.6481837643292394
 30
0.0
 11
-77.4006582201847522
 21
-18.1481837643292323
 31
0.0
  0
LINE
  5
27D
100
AcDbEntity
100
AcDbLine
  8
OUTLINE
 62
7
370
25
  6
ByLayer
 10
-77.4006582201847522
 20
-24.1481837643292394
 30
0.0
 11
-77.4006582201847522
 21
-25.6481837643292323
 31
0.0
  0
LINE
  5
27E
100
AcDbEntity
100
AcDbLine
  8
OUTLINE
 62
7
370
25
  6
ByLayer
 10
-77.4006582201847522
 20
-31.6481837643292394
 30
0.0
 11
-77.4006582201847522
 21
-33.1481837643292323
 31
0.0
  0
LINE
  5
27F
100
AcDbEntity
100
AcDbLine
  8
OUTLINE
 62
7
370
25
  6
ByLayer
 10
-77.4006582201847522
 20
-39.1481837643292394
 30
0.0
 11
-77.4006582201847522
 21
-40.6481837643292323
 31
0.0
  0
LINE
  5
280
100
AcDbEntity
100
AcDbLine
  8
OUTLINE
 62
7
370
25
  6
ByLayer
 10
-77.4006582201847522
 20
-46.6481837643292394
 30
0.0
 11
-77.4006582201847522
 21
-52.6481837643292465
 31
0.0
  0
MTEXT
  5
281
100
AcDbEntity
100
AcDbMText
  8
INTERNALS
 62
7
370
25
  6
ByLayer
 10
105.599341779815262
 20
-39.1481837643292394
 30
0.0
 40
2.25
 41
1500.0
 71
5
 72
2
  1
25
  7
romand
 50
0.0
 73
1
 44
1.0
  0
MTEXT
  5
282
100
AcDbEntity
100
AcDbMText
  8
INTERNALS
 62
7
370
25
  6
ByLayer
 10
2.0993417798152478
 20
-39.1481837643292394
 30
0.0
 40
2.25
 41
1500.0
 71
5
 72
2
  1
25
  7
romand
 50
0.0
 73
1
 44
1.0
  0
MTEXT
  5
283
100
AcDbEntity
100
AcDbMText
  8
INTERNALS
 62
7
370
25
  6
ByLayer
 10
99.5993417798152194
 20
-36.1481837643292394
 30
0.0
 40
2.25
 41
1500.0
 71
5
 72
2
  1
13
  7
romand
 50
0.0
 73
1
 44
1.0
  0
MTEXT
  5
284
100
AcDbEntity
100
AcDbMText
  8
INTERNALS
 62
7
370
25
  6
ByLayer
 10
105.599341779815262
 20
-45.1481837643292465
 30
0.0
 40
2.25
 41
1500.0
 71
5
 72
2
  1
24
  7
romand
 50
0.0
 73
1
 44
1.0
  0
MTEXT
  5
285
100
AcDbEntity
100
AcDbMText
  8
INTERNALS
 62
7
370
25
  6
ByLayer
 10
2.0993417798152478
 20
-45.1481837643292465
 30
0.0
 40
2.25
 41
1500.0
 71
5
 72
2
  1
24
  7
romand
 50
0.0
 73
1
 44
1.0
  0
MTEXT
  5
286
100
AcDbEntity
100
AcDbMText
  8
INTERNALS
 62
7
370
25
  6
ByLayer
 10
99.5993417798152194
 20
-42.1481837643292465
 30
0.0
 40
2.25
 41
1500.0
 71
5
 72
2
  1
12
  7
romand
 50
0.0
 73
1
 44
1.0
  0
MTEXT
  5
287
100
AcDbEntity
100
AcDbMText
  8
INTERNALS
 62
7
370
25
  6
ByLayer
 10
-3.9006582201847575
 20
-42.1481837643292465
 30
0.0
 40
2.25
 41
1500.0
 71
5
 72
2
  1
12
  7
romand
 50
0.0
 73
1
 44
1.0
  0
MTEXT
  5
288
100
AcDbEntity
100
AcDbMText
  8
INTERNALS
 62
7
370
25
  6
ByLayer
 10
99.5993417798152194
 20
-48.1481837643292323
 30
0.0
 40
2.25
 41
1500.0
 71
5
 72
2
  1
11
  7
romand
 50
0.0
 73
1
 44
1.0
  0
MTEXT
  5
289
100
AcDbEntity
100
AcDbMText
  8
INTERNALS
 62
7
370
25
  6
ByLayer
 10
-3.9006582201847575
 20
-48.1481837643292323
 30
0.0
 40
2.25
 41
1500.0
 71
5
 72
2
  1
11
  7
romand
 50
0.0
 73
1
 44
1.0
  0
MTEXT
  5
28A
100
AcDbEntity
100
AcDbMText
  8
INTERNALS
 62
7
370
25
  6
ByLayer
 10
99.5993417798152194
 20
-54.1481837643292394
 30
0.0
 40
2.25
 41
1500.0
 71
5
 72
2
  1
10
  7
romand
 50
0.0
 73
1
 44
1.0
  0
MTEXT
  5
28B
100
AcDbEntity
100
AcDbMText
  8
INTERNALS
 62
7
370
25
  6
ByLayer
 10
-3.9006582201847575
 20
-54.1481837643292394
 30
0.0
 40
2.25
 41
1500.0
 71
5
 72
2
  1
10
  7
romand
 50
0.0
 73
1
 44
1.0
  0
MTEXT
  5
28C
100
AcDbEntity
100
AcDbMText
  8
INTERNALS
 62
7
370
25
  6
ByLayer
 10
99.5993417798152194
 20
-60.1481837643292394
 30
0.0
 40
2.25
 41
1500.0
 71
5
 72
2
  1
9
  7
romand
 50
0.0
 73
1
 44
1.0
  0
MTEXT
  5
28D
100
AcDbEntity
100
AcDbMText
  8
INTERNALS
 62
7
370
25
  6
ByLayer
 10
-3.9006582201847575
 20
-60.1481837643292394
 30
0.0
 40
2.25
 41
1500.0
 71
5
 72
2
  1
9
  7
romand
 50
0.0
 73
1
 44
1.0
  0
MTEXT
  5
28E
100
AcDbEntity
100
AcDbMText
  8
INTERNALS
 62
7
370
25
  6
ByLayer
 10
99.5993417798152194
 20
-66.1481837643292465
 30
0.0
 40
2.25
 41
1500.0
 71
5
 72
2
  1
8
  7
romand
 50
0.0
 73
1
 44
1.0
  0
MTEXT
  5
28F
100
AcDbEntity
100
AcDbMText
  8
INTERNALS
 62
7
370
25
  6
ByLayer
 10
-3.9006582201847575
 20
-66.1481837643292465
 30
0.0
 40
2.25
 41
1500.0
 71
5
 72
2
  1
8
  7
romand
 50
0.0
 73
1
 44
1.0
  0
MTEXT
  5
290
100
AcDbEntity
100
AcDbMText
  8
INTERNALS
 62
7
370
25
  6
ByLayer
 10
99.5993417798152194
 20
-72.1481837643292465
 30
0.0
 40
2.25
 41
1500.0
 71
5
 72
2
  1
7
  7
romand
 50
0.0
 73
1
 44
1.0
  0
MTEXT
  5
291
100
AcDbEntity
100
AcDbMText
  8
INTERNALS
 62
7
370
25
  6
ByLayer
 10
-3.9006582201847575
 20
-72.1481837643292465
 30
0.0
 40
2.25
 41
1500.0
 71
5
 72
2
  1
7
  7
romand
 50
0.0
 73
1
 44
1.0
  0
MTEXT
  5
292
100
AcDbEntity
100
AcDbMText
  8
INTERNALS
 62
7
370
25
  6
ByLayer
 10
99.5993417798152194
 20
-78.1481837643292465
 30
0.0
 40
2.25
 41
1500.0
 71
5
 72
2
  1
6
  7
romand
 50
0.0
 73
1
 44
1.0
  0
MTEXT
  5
293
100
AcDbEntity
100
AcDbMText
  8
INTERNALS
 62
7
370
25
  6
ByLayer
 10
-3.9006582201847575
 20
-78.1481837643292465
 30
0.0
 40
2.25
 41
1500.0
 71
5
 72
2
  1
6
  7
romand
 50
0.0
 73
1
 44
1.0
  0
MTEXT
  5
294
100
AcDbEntity
100
AcDbMText
  8
INTERNALS
 62
7
370
25
  6
ByLayer
 10
99.5993417798152194
 20
-84.1481837643292465
 30
0.0
 40
2.25
 41
1500.0
 71
5
 72
2
  1
5
  7
romand
 50
0.0
 73
1
 44
1.0
  0
MTEXT
  5
295
100
AcDbEntity
100
AcDbMText
  8
INTERNALS
 62
7
370
25
  6
ByLayer
 10
-3.9006582201847575
 20
-84.1481837643292465
 30
0.0
 40
2.25
 41
1500.0
 71
5
 72
2
  1
5
  7
romand
 50
0.0
 73
1
 44
1.0
  0
MTEXT
  5
296
100
AcDbEntity
100
AcDbMText
  8
INTERNALS
 62
7
370
25
  6
ByLayer
 10
99.5993417798152194
 20
-90.1481837643292465
 30
0.0
 40
2.25
 41
1500.0
 71
5
 72
2
  1
4
  7
romand
 50
0.0
 73
1
 44
1.0
  0
MTEXT
  5
297
100
AcDbEntity
100
AcDbMText
  8
INTERNALS
 62
7
370
25
  6
ByLayer
 10
-3.9006582201847575
 20
-90.1481837643292465
 30
0.0
 40
2.25
 41
1500.0
 71
5
 72
2
  1
4
  7
romand
 50
0.0
 73
1
 44
1.0
  0
MTEXT
  5
298
100
AcDbEntity
100
AcDbMText
  8
INTERNALS
 62
7
370
25
  6
ByLayer
 10
99.5993417798152194
 20
-96.1481837643292465
 30
0.0
 40
2.25
 41
1500.0
 71
5
 72
2
  1
3
  7
romand
 50
0.0
 73
1
 44
1.0
  0
MTEXT
  5
299
100
AcDbEntity
100
AcDbMText
  8
INTERNALS
 62
7
370
25
  6
ByLayer
 10
-3.9006582201847575
 20
-96.1481837643292465
 30
0.0
 40
2.25
 41
1500.0
 71
5
 72
2
  1
3
  7
romand
 50
0.0
 73
1
 44
1.0
  0
MTEXT
  5
29A
100
AcDbEntity
100
AcDbMText
  8
INTERNALS
 62
7
370
25
  6
ByLayer
 10
99.5993417798152194
 20
-102.1481837643292323
 30
0.0
 40
2.25
 41
1500.0
 71
5
 72
2
  1
2
  7
romand
 50
0.0
 73
1
 44
1.0
  0
MTEXT
  5
29B
100
AcDbEntity
100
AcDbMText
  8
INTERNALS
 62
7
370
25
  6
ByLayer
 10
-3.9006582201847575
 20
-102.1481837643292323
 30
0.0
 40
2.25
 41
1500.0
 71
5
 72
2
  1
2
  7
romand
 50
0.0
 73
1
 44
1.0
  0
MTEXT
  5
29C
100
AcDbEntity
100
AcDbMText
  8
INTERNALS
 62
7
370
25
  6
ByLayer
 10
99.5993417798152194
 20
-108.1481837643292465
 30
0.0
 40
2.25
 41
1500.0
 71
5
 72
2
  1
1
  7
romand
 50
0.0
 73
1
 44
1.0
  0
MTEXT
  5
29D
100
AcDbEntity
100
AcDbMText
  8
INTERNALS
 62
7
370
25
  6
ByLayer
 10
-3.9006582201847575
 20
-108.1481837643292465
 30
0.0
 40
2.25
 41
1500.0
 71
5
 72
2
  1
1
  7
romand
 50
0.0
 73
1
 44
1.0
  0
MTEXT
  5
29E
100
AcDbEntity
100
AcDbMText
  8
INTERNALS
 62
7
370
25
  6
ByLayer
 10
105.599341779815262
 20
-51.1481837643292323
 30
0.0
 40
2.25
 41
1500.0
 71
5
 72
2
  1
23
  7
romand
 50
0.0
 73
1
 44
1.0
  0
MTEXT
  5
29F
100
AcDbEntity
100
AcDbMText
  8
INTERNALS
 62
7
370
25
  6
ByLayer
 10
2.0993417798152478
 20
-51.1481837643292323
 30
0.0
 40
2.25
 41
1500.0
 71
5
 72
2
  1
23
  7
romand
 50
0.0
 73
1
 44
1.0
  0
MTEXT
  5
2A0
100
AcDbEntity
100
AcDbMText
  8
INTERNALS
 62
7
370
25
  6
ByLayer
 10
105.599341779815262
 20
-57.1481837643292465
 30
0.0
 40
2.25
 41
1500.0
 71
5
 72
2
  1
22
  7
romand
 50
0.0
 73
1
 44
1.0
  0
MTEXT
  5
2A1
100
AcDbEntity
100
AcDbMText
  8
INTERNALS
 62
7
370
25
  6
ByLayer
 10
2.0993417798152478
 20
-57.1481837643292465
 30
0.0
 40
2.25
 41
1500.0
 71
5
 72
2
  1
22
  7
romand
 50
0.0
 73
1
 44
1.0
  0
MTEXT
  5
2A2
100
AcDbEntity
100
AcDbMText
  8
INTERNALS
 62
7
370
25
  6
ByLayer
 10
105.599341779815262
 20
-63.1481837643292394
 30
0.0
 40
2.25
 41
1500.0
 71
5
 72
2
  1
21
  7
romand
 50
0.0
 73
1
 44
1.0
  0
MTEXT
  5
2A3
100
AcDbEntity
100
AcDbMText
  8
INTERNALS
 62
7
370
25
  6
ByLayer
 10
2.0993417798152478
 20
-63.1481837643292394
 30
0.0
 40
2.25
 41
1500.0
 71
5
 72
2
  1
21
  7
romand
 50
0.0
 73
1
 44
1.0
  0
MTEXT
  5
2A4
100
AcDbEntity
100
AcDbMText
  8
INTERNALS
 62
7
370
25
  6
ByLayer
 10
105.599341779815262
 20
-69.1481837643292465
 30
0.0
 40
2.25
 41
1500.0
 71
5
 72
2
  1
20
  7
romand
 50
0.0
 73
1
 44
1.0
  0
MTEXT
  5
2A5
100
AcDbEntity
100
AcDbMText
  8
INTERNALS
 62
7
370
25
  6
ByLayer
 10
2.0993417798152478
 20
-69.1481837643292465
 30
0.0
 40
2.25
 41
1500.0
 71
5
 72
2
  1
20
  7
romand
 50
0.0
 73
1
 44
1.0
  0
MTEXT
  5
2A6
100
AcDbEntity
100
AcDbMText
  8
INTERNALS
 62
7
370
25
  6
ByLayer
 10
105.599341779815262
 20
-75.1481837643292465
 30
0.0
 40
2.25
 41
1500.0
 71
5
 72
2
  1
19
  7
romand
 50
0.0
 73
1
 44
1.0
  0
MTEXT
  5
2A7
100
AcDbEntity
100
AcDbMText
  8
INTERNALS
 62
7
370
25
  6
ByLayer
 10
2.0993417798152478
 20
-75.1481837643292465
 30
0.0
 40
2.25
 41
1500.0
 71
5
 72
2
  1
19
  7
romand
 50
0.0
 73
1
 44
1.0
  0
MTEXT
  5
2A8
100
AcDbEntity
100
AcDbMText
  8
INTERNALS
 62
7
370
25
  6
ByLayer
 10
105.599341779815262
 20
-81.1481837643292323
 30
0.0
 40
2.25
 41
1500.0
 71
5
 72
2
  1
18
  7
romand
 50
0.0
 73
1
 44
1.0
  0
MTEXT
  5
2A9
100
AcDbEntity
100
AcDbMText
  8
INTERNALS
 62
7
370
25
  6
ByLayer
 10
2.0993417798152478
 20
-81.1481837643292323
 30
0.0
 40
2.25
 41
1500.0
 71
5
 72
2
  1
18
  7
romand
 50
0.0
 73
1
 44
1.0
  0
MTEXT
  5
2AA
100
AcDbEntity
100
AcDbMText
  8
INTERNALS
 62
7
370
25
  6
ByLayer
 10
105.599341779815262
 20
-87.1481837643292465
 30
0.0
 40
2.25
 41
1500.0
 71
5
 72
2
  1
17
  7
romand
 50
0.0
 73
1
 44
1.0
  0
MTEXT
  5
2AB
100
AcDbEntity
100
AcDbMText
  8
INTERNALS
 62
7
370
25
  6
ByLayer
 10
2.0993417798152478
 20
-87.1481837643292465
 30
0.0
 40
2.25
 41
1500.0
 71
5
 72
2
  1
17
  7
romand
 50
0.0
 73
1
 44
1.0
  0
MTEXT
  5
2AC
100
AcDbEntity
100
AcDbMText
  8
INTERNALS
 62
7
370
25
  6
ByLayer
 10
105.599341779815262
 20
-93.1481837643292465
 30
0.0
 40
2.25
 41
1500.0
 71
5
 72
2
  1
16
  7
romand
 50
0.0
 73
1
 44
1.0
  0
MTEXT
  5
2AD
100
AcDbEntity
100
AcDbMText
  8
INTERNALS
 62
7
370
25
  6
ByLayer
 10
2.0993417798152478
 20
-93.1481837643292465
 30
0.0
 40
2.25
 41
1500.0
 71
5
 72
2
  1
16
  7
romand
 50
0.0
 73
1
 44
1.0
  0
MTEXT
  5
2AE
100
AcDbEntity
100
AcDbMText
  8
INTERNALS
 62
7
370
25
  6
ByLayer
 10
105.599341779815262
 20
-99.1481837643292465
 30
0.0
 40
2.25
 41
1500.0
 71
5
 72
2
  1
15
  7
romand
 50
0.0
 73
1
 44
1.0
  0
MTEXT
  5
2AF
100
AcDbEntity
100
AcDbMText
  8
INTERNALS
 62
7
370
25
  6
ByLayer
 10
2.0993417798152478
 20
-99.1481837643292465
 30
0.0
 40
2.25
 41
1500.0
 71
5
 72
2
  1
15
  7
romand
 50
0.0
 73
1
 44
1.0
  0
MTEXT
  5
2B0
100
AcDbEntity
100
AcDbMText
  8
INTERNALS
 62
7
370
25
  6
ByLayer
 10
105.599341779815262
 20
-105.1481837643292465
 30
0.0
 40
2.25
 41
1500.0
 71
5
 72
2
  1
14
  7
romand
 50
0.0
 73
1
 44
1.0
  0
MTEXT
  5
2B1
100
AcDbEntity
100
AcDbMText
  8
INTERNALS
 62
7
370
25
  6
ByLayer
 10
2.0993417798152478
 20
-105.1481837643292465
 30
0.0
 40
2.25
 41
1500.0
 71
5
 72
2
  1
14
  7
romand
 50
0.0
 73
1
 44
1.0
  0
CIRCLE
  5
2B2
100
AcDbEntity
100
AcDbCircle
  8
INTERNALS
 62
7
370
25
  6
ByLayer
 10
99.5993417798152194
 20
-42.1481837643292465
 30
0.0
 40
2.4216449999999998
  0
CIRCLE
  5
2B3
100
AcDbEntity
100
AcDbCircle
  8
INTERNALS
 62
7
370
25
  6
ByLayer
 10
-3.9006582201847575
 20
-42.1481837643292465
 30
0.0
 40
2.4216449999999998
  0
CIRCLE
  5
2B4
100
AcDbEntity
100
AcDbCircle
  8
INTERNALS
 62
7
370
25
  6
ByLayer
 10
99.5993417798152194
 20
-48.1481837643292323
 30
0.0
 40
2.4216449999999998
  0
CIRCLE
  5
2B5
100
AcDbEntity
100
AcDbCircle
  8
INTERNALS
 62
7
370
25
  6
ByLayer
 10
-3.9006582201847575
 20
-48.1481837643292323
 30
0.0
 40
2.4216449999999998
  0
CIRCLE
  5
2B6
100
AcDbEntity
100
AcDbCircle
  8
INTERNALS
 62
7
370
25
  6
ByLayer
 10
99.5993417798152194
 20
-54.1481837643292394
 30
0.0
 40
2.4216449999999998
  0
CIRCLE
  5
2B7
100
AcDbEntity
100
AcDbCircle
  8
INTERNALS
 62
7
370
25
  6
ByLayer
 10
-3.9006582201847575
 20
-54.1481837643292394
 30
0.0
 40
2.4216449999999998
  0
CIRCLE
  5
2B8
100
AcDbEntity
100
AcDbCircle
  8
INTERNALS
 62
7
370
25
  6
ByLayer
 10
99.5993417798152194
 20
-60.1481837643292394
 30
0.0
 40
2.4216449999999998
  0
CIRCLE
  5
2B9
100
AcDbEntity
100
AcDbCircle
  8
INTERNALS
 62
7
370
25
  6
ByLayer
 10
-3.9006582201847575
 20
-60.1481837643292394
 30
0.0
 40
2.4216449999999998
  0
CIRCLE
  5
2BA
100
AcDbEntity
100
AcDbCircle
  8
INTERNALS
 62
7
370
25
  6
ByLayer
 10
99.5993417798152194
 20
-66.1481837643292465
 30
0.0
 40
2.4216449999999998
  0
CIRCLE
  5
2BB
100
AcDbEntity
100
AcDbCircle
  8
INTERNALS
 62
7
370
25
  6
ByLayer
 10
-3.9006582201847575
 20
-66.1481837643292465
 30
0.0
 40
2.4216449999999998
  0
CIRCLE
  5
2BC
100
AcDbEntity
100
AcDbCircle
  8
INTERNALS
 62
7
370
25
  6
ByLayer
 10
99.5993417798152194
 20
-78.1481837643292465
 30
0.0
 40
2.4216449999999998
  0
CIRCLE
  5
2BD
100
AcDbEntity
100
AcDbCircle
  8
INTERNALS
 62
7
370
25
  6
ByLayer
 10
-3.9006582201847575
 20
-78.1481837643292465
 30
0.0
 40
2.4216449999999998
  0
CIRCLE
  5
2BE
100
AcDbEntity
100
AcDbCircle
  8
INTERNALS
 62
7
370
25
  6
ByLayer
 10
99.5993417798152194
 20
-84.1481837643292465
 30
0.0
 40
2.4216449999999998
  0
CIRCLE
  5
2BF
100
AcDbEntity
100
AcDbCircle
  8
INTERNALS
 62
7
370
25
  6
ByLayer
 10
-3.9006582201847575
 20
-84.1481837643292465
 30
0.0
 40
2.4216449999999998
  0
CIRCLE
  5
2C0
100
AcDbEntity
100
AcDbCircle
  8
INTERNALS
 62
7
370
25
  6
ByLayer
 10
99.5993417798152194
 20
-90.1481837643292465
 30
0.0
 40
2.4216449999999998
  0
CIRCLE
  5
2C1
100
AcDbEntity
100
AcDbCircle
  8
INTERNALS
 62
7
370
25
  6
ByLayer
 10
-3.9006582201847575
 20
-90.1481837643292465
 30
0.0
 40
2.4216449999999998
  0
CIRCLE
  5
2C2
100
AcDbEntity
100
AcDbCircle
  8
INTERNALS
 62
7
370
25
  6
ByLayer
 10
99.5993417798152194
 20
-96.1481837643292465
 30
0.0
 40
2.4216449999999998
  0
CIRCLE
  5
2C3
100
AcDbEntity
100
AcDbCircle
  8
INTERNALS
 62
7
370
25
  6
ByLayer
 10
-3.9006582201847575
 20
-96.1481837643292465
 30
0.0
 40
2.4216449999999998
  0
CIRCLE
  5
2C4
100
AcDbEntity
100
AcDbCircle
  8
INTERNALS
 62
7
370
25
  6
ByLayer
 10
99.5993417798152194
 20
-102.1481837643292323
 30
0.0
 40
2.4216449999999998
  0
CIRCLE
  5
2C5
100
AcDbEntity
100
AcDbCircle
  8
INTERNALS
 62
7
370
25
  6
ByLayer
 10
-3.9006582201847575
 20
-102.1481837643292323
 30
0.0
 40
2.4216449999999998
  0
CIRCLE
  5
2C6
100
AcDbEntity
100
AcDbCircle
  8
INTERNALS
 62
7
370
25
  6
ByLayer
 10
99.5993417798152194
 20
-108.1481837643292465
 30
0.0
 40
2.4216449999999998
  0
CIRCLE
  5
2C7
100
AcDbEntity
100
AcDbCircle
  8
INTERNALS
 62
7
370
25
  6
ByLayer
 10
-3.9006582201847575
 20
-108.1481837643292465
 30
0.0
 40
2.4216449999999998
  0
CIRCLE
  5
2C8
100
AcDbEntity
100
AcDbCircle
  8
INTERNALS
 62
7
370
25
  6
ByLayer
 10
99.5993417798152194
 20
-72.1481837643292465
 30
0.0
 40
2.4216449999999998
  0
CIRCLE
  5
2C9
100
AcDbEntity
100
AcDbCircle
  8
INTERNALS
 62
7
370
25
  6
ByLayer
 10
-3.9006582201847575
 20
-72.1481837643292465
 30
0.0
 40
2.4216449999999998
  0
CIRCLE
  5
2CA
100
AcDbEntity
100
AcDbCircle
  8
INTERNALS
 62
7
370
25
  6
ByLayer
 10
99.5993417798152194
 20
-36.1481837643292394
 30
0.0
 40
2.4216449999999998
  0
CIRCLE
  5
2CB
100
AcDbEntity
100
AcDbCircle
  8
INTERNALS
 62
7
370
25
  6
ByLayer
 10
-3.9006582201847575
 20
-36.1481837643292394
 30
0.0
 40
2.4216449999999998
  0
CIRCLE
  5
2CC
100
AcDbEntity
100
AcDbCircle
  8
INTERNALS
 62
7
370
25
  6
ByLayer
 10
105.599341779815262
 20
-45.1481837643292465
 30
0.0
 40
2.4216449999999998
  0
CIRCLE
  5
2CD
100
AcDbEntity
100
AcDbCircle
  8
INTERNALS
 62
7
370
25
  6
ByLayer
 10
2.0993417798152478
 20
-45.1481837643292465
 30
0.0
 40
2.4216449999999998
  0
CIRCLE
  5
2CE
100
AcDbEntity
100
AcDbCircle
  8
INTERNALS
 62
7
370
25
  6
ByLayer
 10
105.599341779815262
 20
-51.1481837643292323
 30
0.0
 40
2.4216449999999998
  0
CIRCLE
  5
2CF
100
AcDbEntity
100
AcDbCircle
  8
INTERNALS
 62
7
370
25
  6
ByLayer
 10
2.0993417798152478
 20
-51.1481837643292323
 30
0.0
 40
2.4216449999999998
  0
CIRCLE
  5
2D0
100
AcDbEntity
100
AcDbCircle
  8
INTERNALS
 62
7
370
25
  6
ByLayer
 10
105.599341779815262
 20
-57.1481837643292465
 30
0.0
 40
2.4216449999999998
  0
CIRCLE
  5
2D1
100
AcDbEntity
100
AcDbCircle
  8
INTERNALS
 62
7
370
25
  6
ByLayer
 10
2.0993417798152478
 20
-57.1481837643292465
 30
0.0
 40
2.4216449999999998
  0
CIRCLE
  5
2D2
100
AcDbEntity
100
AcDbCircle
  8
INTERNALS
 62
7
370
25
  6
ByLayer
 10
105.599341779815262
 20
-63.1481837643292394
 30
0.0
 40
2.4216449999999998
  0
CIRCLE
  5
2D3
100
AcDbEntity
100
AcDbCircle
  8
INTERNALS
 62
7
370
25
  6
ByLayer
 10
2.0993417798152478
 20
-63.1481837643292394
 30
0.0
 40
2.4216449999999998
  0
CIRCLE
  5
2D4
100
AcDbEntity
100
AcDbCircle
  8
INTERNALS
 62
7
370
25
  6
ByLayer
 10
105.599341779815262
 20
-69.1481837643292465
 30
0.0
 40
2.4216449999999998
  0
CIRCLE
  5
2D5
100
AcDbEntity
100
AcDbCircle
  8
INTERNALS
 62
7
370
25
  6
ByLayer
 10
2.0993417798152478
 20
-69.1481837643292465
 30
0.0
 40
2.4216449999999998
  0
CIRCLE
  5
2D6
100
AcDbEntity
100
AcDbCircle
  8
INTERNALS
 62
7
370
25
  6
ByLayer
 10
105.599341779815262
 20
-75.1481837643292465
 30
0.0
 40
2.4216449999999998
  0
CIRCLE
  5
2D7
100
AcDbEntity
100
AcDbCircle
  8
INTERNALS
 62
7
370
25
  6
ByLayer
 10
2.0993417798152478
 20
-75.1481837643292465
 30
0.0
 40
2.4216449999999998
  0
CIRCLE
  5
2D8
100
AcDbEntity
100
AcDbCircle
  8
INTERNALS
 62
7
370
25
  6
ByLayer
 10
105.599341779815262
 20
-81.1481837643292323
 30
0.0
 40
2.4216449999999998
  0
CIRCLE
  5
2D9
100
AcDbEntity
100
AcDbCircle
  8
INTERNALS
 62
7
370
25
  6
ByLayer
 10
2.0993417798152478
 20
-81.1481837643292323
 30
0.0
 40
2.4216449999999998
  0
CIRCLE
  5
2DA
100
AcDbEntity
100
AcDbCircle
  8
INTERNALS
 62
7
370
25
  6
ByLayer
 10
105.599341779815262
 20
-87.1481837643292465
 30
0.0
 40
2.4216449999999998
  0
CIRCLE
  5
2DB
100
AcDbEntity
100
AcDbCircle
  8
INTERNALS
 62
7
370
25
  6
ByLayer
 10
2.0993417798152478
 20
-87.1481837643292465
 30
0.0
 40
2.4216449999999998
  0
CIRCLE
  5
2DC
100
AcDbEntity
100
AcDbCircle
  8
INTERNALS
 62
7
370
25
  6
ByLayer
 10
105.599341779815262
 20
-93.1481837643292465
 30
0.0
 40
2.4216449999999998
  0
CIRCLE
  5
2DD
100
AcDbEntity
100
AcDbCircle
  8
INTERNALS
 62
7
370
25
  6
ByLayer
 10
2.0993417798152478
 20
-93.1481837643292465
 30
0.0
 40
2.4216449999999998
  0
CIRCLE
  5
2DE
100
AcDbEntity
100
AcDbCircle
  8
INTERNALS
 62
7
370
25
  6
ByLayer
 10
105.599341779815262
 20
-99.1481837643292465
 30
0.0
 40
2.4216449999999998
  0
CIRCLE
  5
2DF
100
AcDbEntity
100
AcDbCircle
  8
INTERNALS
 62
7
370
25
  6
ByLayer
 10
2.0993417798152478
 20
-99.1481837643292465
 30
0.0
 40
2.4216449999999998
  0
CIRCLE
  5
2E0
100
AcDbEntity
100
AcDbCircle
  8
INTERNALS
 62
7
370
25
  6
ByLayer
 10
105.599341779815262
 20
-105.1481837643292465
 30
0.0
 40
2.4216449999999998
  0
CIRCLE
  5
2E1
100
AcDbEntity
100
AcDbCircle
  8
INTERNALS
 62
7
370
25
  6
ByLayer
 10
2.0993417798152478
 20
-105.1481837643292465
 30
0.0
 40
2.4216449999999998
  0
CIRCLE
  5
2E2
100
AcDbEntity
100
AcDbCircle
  8
INTERNALS
 62
7
370
25
  6
ByLayer
 10
105.599341779815262
 20
-39.1481837643292394
 30
0.0
 40
2.4216449999999998
  0
CIRCLE
  5
2E3
100
AcDbEntity
100
AcDbCircle
  8
INTERNALS
 62
7
370
25
  6
ByLayer
 10
2.0993417798152478
 20
-39.1481837643292394
 30
0.0
 40
2.4216449999999998
  0
LINE
  5
2E4
100
AcDbEntity
100
AcDbLine
  8
INTERNALS
 62
7
370
25
  6
ByLayer
 10
-29.4006582201847593
 20
-90.1481837643292465
 30
0.0
 11
-6.3223032201847627
 21
-90.1481837643292465
 31
0.0
  0
LINE
  5
2E5
100
AcDbEntity
100
AcDbLine
  8
INTERNALS
 62
7
370
25
  6
ByLayer
 10
-29.4006582201847593
 20
-82.6481837643292465
 30
0.0
 11
-26.4006582201847593
 21
-82.6481837643292465
 31
0.0
  0
LINE
  5
2E6
100
AcDbEntity
100
AcDbLine
  8
INTERNALS
 62
7
370
25
  6
ByLayer
 10
-26.4006582201847593
 20
-82.6481837643292465
 30
0.0
 11
-26.4006582201847593
 21
-84.1481837643292465
 31
0.0
  0
LINE
  5
2E7
100
AcDbEntity
100
AcDbLine
  8
INTERNALS
 62
7
370
25
  6
ByLayer
 10
-26.4006582201847593
 20
-84.1481837643292465
 30
0.0
 11
-6.3223032201847627
 21
-84.1481837643292465
 31
0.0
  0
LINE
  5
2E8
100
AcDbEntity
100
AcDbLine
  8
INTERNALS
 62
7
370
25
  6
ByLayer
 10
-29.4006582201847593
 20
-75.1481837643292465
 30
0.0
 11
-24.9006582201847664
 21
-75.1481837643292465
 31
0.0
  0
LINE
  5
2E9
100
AcDbEntity
100
AcDbLine
  8
INTERNALS
 62
7
370
25
  6
ByLayer
 10
-24.9006582201847664
 20
-75.1481837643292465
 30
0.0
 11
-24.9006582201847664
 21
-78.1481837643292465
 31
0.0
  0
LINE
  5
2EA
100
AcDbEntity
100
AcDbLine
  8
INTERNALS
 62
7
370
25
  6
ByLayer
 10
-24.9006582201847664
 20
-78.1481837643292465
 30
0.0
 11
-6.3223032201847627
 21
-78.1481837643292465
 31
0.0
  0
LINE
  5
2EB
100
AcDbEntity
100
AcDbLine
  8
INTERNALS
 62
7
370
25
  6
ByLayer
 10
-29.4006582201847593
 20
-67.6481837643292465
 30
0.0
 11
-23.4006582201847735
 21
-67.6481837643292465
 31
0.0
  0
LINE
  5
2EC
100
AcDbEntity
100
AcDbLine
  8
INTERNALS
 62
7
370
25
  6
ByLayer
 10
-23.4006582201847735
 20
-67.6481837643292465
 30
0.0
 11
-23.4006582201847735
 21
-72.1481837643292465
 31
0.0
  0
LINE
  5
2ED
100
AcDbEntity
100
AcDbLine
  8
INTERNALS
 62
7
370
25
  6
ByLayer
 10
-23.4006582201847735
 20
-72.1481837643292465
 30
0.0
 11
-6.3223032201847627
 21
-72.1481837643292465
 31
0.0
  0
LINE
  5
2EE
100
AcDbEntity
100
AcDbLine
  8
INTERNALS
 62
7
370
25
  6
ByLayer
 10
-29.4006582201847593
 20
-60.1481837643292394
 30
0.0
 11
-21.9006582201847451
 21
-60.1481837643292394
 31
0.0
  0
LINE
  5
2EF
100
AcDbEntity
100
AcDbLine
  8
INTERNALS
 62
7
370
25
  6
ByLayer
 10
81.5993417798152336
 20
-58.6481837643292394
 30
0.0
 11
81.5993417798152336
 21
-66.1481837643292465
 31
0.0
  0
LINE
  5
2F0
100
AcDbEntity
100
AcDbLine
  8
INTERNALS
 62
7
370
25
  6
ByLayer
 10
-21.9006582201847451
 20
-60.1481837643292394
 30
0.0
 11
-21.9006582201847451
 21
-66.1481837643292465
 31
0.0
  0
LINE
  5
2F1
100
AcDbEntity
100
AcDbLine
  8
INTERNALS
 62
7
370
25
  6
ByLayer
 10
81.5993417798152336
 20
-66.1481837643292465
 30
0.0
 11
97.1776967798152498
 21
-66.1481837643292465
 31
0.0
  0
LINE
  5
2F2
100
AcDbEntity
100
AcDbLine
  8
INTERNALS
 62
7
370
25
  6
ByLayer
 10
-21.9006582201847451
 20
-66.1481837643292465
 30
0.0
 11
-6.3223032201847627
 21
-66.1481837643292465
 31
0.0
  0
LINE
  5
2F3
100
AcDbEntity
100
AcDbLine
  8
INTERNALS
 62
7
370
25
  6
ByLayer
 10
-29.4006582201847593
 20
-52.6481837643292465
 30
0.0
 11
-20.4006582201847522
 21
-52.6481837643292465
 31
0.0
  0
LINE
  5
2F4
100
AcDbEntity
100
AcDbLine
  8
INTERNALS
 62
7
370
25
  6
ByLayer
 10
83.099341779815262
 20
-51.1481837643292323
 30
0.0
 11
83.099341779815262
 21
-60.1481837643292394
 31
0.0
  0
LINE
  5
2F5
100
AcDbEntity
100
AcDbLine
  8
INTERNALS
 62
7
370
25
  6
ByLayer
 10
-20.4006582201847522
 20
-52.6481837643292465
 30
0.0
 11
-20.4006582201847522
 21
-60.1481837643292394
 31
0.0
  0
LINE
  5
2F6
100
AcDbEntity
100
AcDbLine
  8
INTERNALS
 62
7
370
25
  6
ByLayer
 10
83.099341779815262
 20
-60.1481837643292394
 30
0.0
 11
97.1776967798152498
 21
-60.1481837643292394
 31
0.0
  0
LINE
  5
2F7
100
AcDbEntity
100
AcDbLine
  8
INTERNALS
 62
7
370
25
  6
ByLayer
 10
-20.4006582201847522
 20
-60.1481837643292394
 30
0.0
 11
-6.3223032201847627
 21
-60.1481837643292394
 31
0.0
  0
LINE
  5
2F8
100
AcDbEntity
100
AcDbLine
  8
INTERNALS
 62
7
370
25
  6
ByLayer
 10
63.5993417798152407
 20
-43.6481837643292323
 30
0.0
 11
84.5993417798152478
 21
-43.6481837643292323
 31
0.0
  0
LINE
  5
2F9
100
AcDbEntity
100
AcDbLine
  8
INTERNALS
 62
7
370
25
  6
ByLayer
 10
-39.9006582201847664
 20
-43.6481837643292323
 30
0.0
 11
-18.9006582201847593
 21
-43.6481837643292323
 31
0.0
  0
LINE
  5
2FA
100
AcDbEntity
100
AcDbLine
  8
INTERNALS
 62
7
370
25
  6
ByLayer
 10
84.5993417798152478
 20
-43.6481837643292323
 30
0.0
 11
84.5993417798152478
 21
-54.1481837643292394
 31
0.0
  0
LINE
  5
2FB
100
AcDbEntity
100
AcDbLine
  8
INTERNALS
 62
7
370
25
  6
ByLayer
 10
-18.9006582201847593
 20
-43.6481837643292323
 30
0.0
 11
-18.9006582201847593
 21
-54.1481837643292394
 31
0.0
  0
LINE
  5
2FC
100
AcDbEntity
100
AcDbLine
  8
INTERNALS
 62
7
370
25
  6
ByLayer
 10
84.5993417798152478
 20
-54.1481837643292394
 30
0.0
 11
97.1776967798152498
 21
-54.1481837643292394
 31
0.0
  0
LINE
  5
2FD
100
AcDbEntity
100
AcDbLine
  8
INTERNALS
 62
7
370
25
  6
ByLayer
 10
-18.9006582201847593
 20
-54.1481837643292394
 30
0.0
 11
-6.3223032201847627
 21
-54.1481837643292394
 31
0.0
  0
LINE
  5
2FE
100
AcDbEntity
100
AcDbLine
  8
INTERNALS
 62
7
370
25
  6
ByLayer
 10
63.5993417798152407
 20
-36.1481837643292394
 30
0.0
 11
86.0993417798152478
 21
-36.1481837643292394
 31
0.0
  0
LINE
  5
2FF
100
AcDbEntity
100
AcDbLine
  8
INTERNALS
 62
7
370
25
  6
ByLayer
 10
-39.9006582201847664
 20
-36.1481837643292394
 30
0.0
 11
-17.4006582201847664
 21
-36.1481837643292394
 31
0.0
  0
LINE
  5
300
100
AcDbEntity
100
AcDbLine
  8
INTERNALS
 62
7
370
25
  6
ByLayer
 10
86.0993417798152478
 20
-36.1481837643292394
 30
0.0
 11
86.0993417798152478
 21
-48.1481837643292323
 31
0.0
  0
LINE
  5
301
100
AcDbEntity
100
AcDbLine
  8
INTERNALS
 62
7
370
25
  6
ByLayer
 10
-17.4006582201847664
 20
-36.1481837643292394
 30
0.0
 11
-17.4006582201847664
 21
-48.1481837643292323
 31
0.0
  0
LINE
  5
302
100
AcDbEntity
100
AcDbLine
  8
INTERNALS
 62
7
370
25
  6
ByLayer
 10
86.0993417798152478
 20
-48.1481837643292323
 30
0.0
 11
97.1776967798152498
 21
-48.1481837643292323
 31
0.0
  0
LINE
  5
303
100
AcDbEntity
100
AcDbLine
  8
INTERNALS
 62
7
370
25
  6
ByLayer
 10
-17.4006582201847664
 20
-48.1481837643292323
 30
0.0
 11
-6.3223032201847627
 21
-48.1481837643292323
 31
0.0
  0
LINE
  5
304
100
AcDbEntity
100
AcDbLine
  8
INTERNALS
 62
7
370
25
  6
ByLayer
 10
63.5993417798152407
 20
-28.6481837643292394
 30
0.0
 11
87.5993417798152478
 21
-28.6481837643292394
 31
0.0
  0
LINE
  5
305
100
AcDbEntity
100
AcDbLine
  8
INTERNALS
 62
7
370
25
  6
ByLayer
 10
-39.9006582201847664
 20
-28.6481837643292394
 30
0.0
 11
-15.9006582201847682
 21
-28.6481837643292394
 31
0.0
  0
LINE
  5
306
100
AcDbEntity
100
AcDbLine
  8
INTERNALS
 62
7
370
25
  6
ByLayer
 10
87.5993417798152478
 20
-28.6481837643292394
 30
0.0
 11
87.5993417798152478
 21
-42.1481837643292465
 31
0.0
  0
LINE
  5
307
100
AcDbEntity
100
AcDbLine
  8
INTERNALS
 62
7
370
25
  6
ByLayer
 10
-15.9006582201847682
 20
-28.6481837643292394
 30
0.0
 11
-15.9006582201847682
 21
-42.1481837643292465
 31
0.0
  0
LINE
  5
308
100
AcDbEntity
100
AcDbLine
  8
INTERNALS
 62
7
370
25
  6
ByLayer
 10
87.5993417798152478
 20
-42.1481837643292465
 30
0.0
 11
97.1776967798152498
 21
-42.1481837643292465
 31
0.0
  0
LINE
  5
309
100
AcDbEntity
100
AcDbLine
  8
INTERNALS
 62
7
370
25
  6
ByLayer
 10
-15.9006582201847682
 20
-42.1481837643292465
 30
0.0
 11
-6.3223032201847627
 21
-42.1481837643292465
 31
0.0
  0
LINE
  5
30A
100
AcDbEntity
100
AcDbLine
  8
INTERNALS
 62
7
370
25
  6
ByLayer
 10
63.5993417798152407
 20
-21.1481837643292394
 30
0.0
 11
89.0993417798152336
 21
-21.1481837643292394
 31
0.0
  0
LINE
  5
30B
100
AcDbEntity
100
AcDbLine
  8
INTERNALS
 62
7
370
25
  6
ByLayer
 10
-39.9006582201847664
 20
-21.1481837643292394
 30
0.0
 11
-14.4006582201847468
 21
-21.1481837643292394
 31
0.0
  0
LINE
  5
30C
100
AcDbEntity
100
AcDbLine
  8
INTERNALS
 62
7
370
25
  6
ByLayer
 10
89.0993417798152336
 20
-21.1481837643292394
 30
0.0
 11
89.0993417798152336
 21
-36.1481837643292394
 31
0.0
  0
LINE
  5
30D
100
AcDbEntity
100
AcDbLine
  8
INTERNALS
 62
7
370
25
  6
ByLayer
 10
-14.4006582201847468
 20
-21.1481837643292394
 30
0.0
 11
-14.4006582201847468
 21
-36.1481837643292394
 31
0.0
  0
LINE
  5
30E
100
AcDbEntity
100
AcDbLine
  8
INTERNALS
 62
7
370
25
  6
ByLayer
 10
89.0993417798152336
 20
-36.1481837643292394
 30
0.0
 11
97.1776967798152498
 21
-36.1481837643292394
 31
0.0
  0
LINE
  5
30F
100
AcDbEntity
100
AcDbLine
  8
INTERNALS
 62
7
370
25
  6
ByLayer
 10
-14.4006582201847468
 20
-36.1481837643292394
 30
0.0
 11
-6.3223032201847627
 21
-36.1481837643292394
 31
0.0
  0
LINE
  5
310
100
AcDbEntity
100
AcDbLine
  8
INTERNALS
 62
7
370
25
  6
ByLayer
 10
-29.4006582201847593
 20
-97.6481837643292465
 30
0.0
 11
-26.4006582201847593
 21
-97.6481837643292465
 31
0.0
  0
LINE
  5
311
100
AcDbEntity
100
AcDbLine
  8
INTERNALS
 62
7
370
25
  6
ByLayer
 10
-26.4006582201847593
 20
-97.6481837643292465
 30
0.0
 11
-26.4006582201847593
 21
-96.1481837643292465
 31
0.0
  0
LINE
  5
312
100
AcDbEntity
100
AcDbLine
  8
INTERNALS
 62
7
370
25
  6
ByLayer
 10
-26.4006582201847593
 20
-96.1481837643292465
 30
0.0
 11
-6.3223032201847627
 21
-96.1481837643292465
 31
0.0
  0
LINE
  5
313
100
AcDbEntity
100
AcDbLine
  8
INTERNALS
 62
7
370
25
  6
ByLayer
 10
-29.4006582201847593
 20
-105.1481837643292465
 30
0.0
 11
-24.9006582201847664
 21
-105.1481837643292465
 31
0.0
  0
LINE
  5
314
100
AcDbEntity
100
AcDbLine
  8
INTERNALS
 62
7
370
25
  6
ByLayer
 10
-24.9006582201847664
 20
-105.1481837643292465
 30
0.0
 11
-24.9006582201847664
 21
-102.1481837643292323
 31
0.0
  0
LINE
  5
315
100
AcDbEntity
100
AcDbLine
  8
INTERNALS
 62
7
370
25
  6
ByLayer
 10
-24.9006582201847664
 20
-102.1481837643292323
 30
0.0
 11
-6.3223032201847627
 21
-102.1481837643292323
 31
0.0
  0
LINE
  5
316
100
AcDbEntity
100
AcDbLine
  8
INTERNALS
 62
7
370
25
  6
ByLayer
 10
74.0993417798152336
 20
-112.6481837643292465
 30
0.0
 11
83.099341779815262
 21
-112.6481837643292465
 31
0.0
  0
LINE
  5
317
100
AcDbEntity
100
AcDbLine
  8
INTERNALS
 62
7
370
25
  6
ByLayer
 10
-29.4006582201847593
 20
-112.6481837643292465
 30
0.0
 11
-20.4006582201847522
 21
-112.6481837643292465
 31
0.0
  0
LINE
  5
318
100
AcDbEntity
100
AcDbLine
  8
INTERNALS
 62
7
370
25
  6
ByLayer
 10
83.099341779815262
 20
-112.6481837643292465
 30
0.0
 11
83.099341779815262
 21
-87.1481837643292465
 31
0.0
  0
LINE
  5
319
100
AcDbEntity
100
AcDbLine
  8
INTERNALS
 62
7
370
25
  6
ByLayer
 10
-20.4006582201847522
 20
-112.6481837643292465
 30
0.0
 11
-20.4006582201847522
 21
-87.1481837643292465
 31
0.0
  0
LINE
  5
31A
100
AcDbEntity
100
AcDbLine
  8
INTERNALS
 62
7
370
25
  6
ByLayer
 10
83.099341779815262
 20
-87.1481837643292465
 30
0.0
 11
103.1776967798152356
 21
-87.1481837643292465
 31
0.0
  0
LINE
  5
31B
100
AcDbEntity
100
AcDbLine
  8
INTERNALS
 62
7
370
25
  6
ByLayer
 10
-20.4006582201847522
 20
-87.1481837643292465
 30
0.0
 11
-0.3223032201847555
 21
-87.1481837643292465
 31
0.0
  0
LINE
  5
31C
100
AcDbEntity
100
AcDbLine
  8
INTERNALS
 62
7
370
25
  6
ByLayer
 10
74.0993417798152336
 20
-120.1481837643292465
 30
0.0
 11
84.5993417798152478
 21
-120.1481837643292465
 31
0.0
  0
LINE
  5
31D
100
AcDbEntity
100
AcDbLine
  8
INTERNALS
 62
7
370
25
  6
ByLayer
 10
-29.4006582201847593
 20
-120.1481837643292465
 30
0.0
 11
-18.9006582201847593
 21
-120.1481837643292465
 31
0.0
  0
LINE
  5
31E
100
AcDbEntity
100
AcDbLine
  8
INTERNALS
 62
7
370
25
  6
ByLayer
 10
84.5993417798152478
 20
-120.1481837643292465
 30
0.0
 11
84.5993417798152478
 21
-93.1481837643292465
 31
0.0
  0
LINE
  5
31F
100
AcDbEntity
100
AcDbLine
  8
INTERNALS
 62
7
370
25
  6
ByLayer
 10
-18.9006582201847593
 20
-120.1481837643292465
 30
0.0
 11
-18.9006582201847593
 21
-93.1481837643292465
 31
0.0
  0
LINE
  5
320
100
AcDbEntity
100
AcDbLine
  8
INTERNALS
 62
7
370
25
  6
ByLayer
 10
84.5993417798152478
 20
-93.1481837643292465
 30
0.0
 11
103.1776967798152356
 21
-93.1481837643292465
 31
0.0
  0
LINE
  5
321
100
AcDbEntity
100
AcDbLine
  8
INTERNALS
 62
7
370
25
  6
ByLayer
 10
-18.9006582201847593
 20
-93.1481837643292465
 30
0.0
 11
-0.3223032201847555
 21
-93.1481837643292465
 31
0.0
  0
LINE
  5
322
100
AcDbEntity
100
AcDbLine
  8
INTERNALS
 62
7
370
25
  6
ByLayer
 10
74.0993417798152336
 20
-127.6481837643292465
 30
0.0
 11
86.0993417798152478
 21
-127.6481837643292465
 31
0.0
  0
LINE
  5
323
100
AcDbEntity
100
AcDbLine
  8
INTERNALS
 62
7
370
25
  6
ByLayer
 10
-29.4006582201847593
 20
-127.6481837643292465
 30
0.0
 11
-17.4006582201847664
 21
-127.6481837643292465
 31
0.0
  0
LINE
  5
324
100
AcDbEntity
100
AcDbLine
  8
INTERNALS
 62
7
370
25
  6
ByLayer
 10
86.0993417798152478
 20
-127.6481837643292465
 30
0.0
 11
86.0993417798152478
 21
-105.1481837643292465
 31
0.0
  0
LINE
  5
325
100
AcDbEntity
100
AcDbLine
  8
INTERNALS
 62
7
370
25
  6
ByLayer
 10
-17.4006582201847664
 20
-127.6481837643292465
 30
0.0
 11
-17.4006582201847664
 21
-105.1481837643292465
 31
0.0
  0
LINE
  5
326
100
AcDbEntity
100
AcDbLine
  8
INTERNALS
 62
7
370
25
  6
ByLayer
 10
86.0993417798152478
 20
-105.1481837643292465
 30
0.0
 11
103.1776967798152356
 21
-105.1481837643292465
 31
0.0
  0
LINE
  5
327
100
AcDbEntity
100
AcDbLine
  8
INTERNALS
 62
7
370
25
  6
ByLayer
 10
-17.4006582201847664
 20
-105.1481837643292465
 30
0.0
 11
-0.3223032201847555
 21
-105.1481837643292465
 31
0.0
  0
LINE
  5
328
100
AcDbEntity
100
AcDbLine
  8
INTERNALS
 62
7
370
25
  6
ByLayer
 10
74.0993417798152336
 20
-135.1481837643292465
 30
0.0
 11
87.5993417798152478
 21
-135.1481837643292465
 31
0.0
  0
LINE
  5
329
100
AcDbEntity
100
AcDbLine
  8
INTERNALS
 62
7
370
25
  6
ByLayer
 10
-29.4006582201847593
 20
-135.1481837643292465
 30
0.0
 11
-15.9006582201847682
 21
-135.1481837643292465
 31
0.0
  0
LINE
  5
32A
100
AcDbEntity
100
AcDbLine
  8
INTERNALS
 62
7
370
25
  6
ByLayer
 10
87.5993417798152478
 20
-135.1481837643292465
 30
0.0
 11
87.5993417798152478
 21
-108.1481837643292465
 31
0.0
  0
LINE
  5
32B
100
AcDbEntity
100
AcDbLine
  8
INTERNALS
 62
7
370
25
  6
ByLayer
 10
-15.9006582201847682
 20
-135.1481837643292465
 30
0.0
 11
-15.9006582201847682
 21
-108.1481837643292465
 31
0.0
  0
LINE
  5
32C
100
AcDbEntity
100
AcDbLine
  8
INTERNALS
 62
7
370
25
  6
ByLayer
 10
87.5993417798152478
 20
-108.1481837643292465
 30
0.0
 11
97.1776967798152498
 21
-108.1481837643292465
 31
0.0
  0
LINE
  5
32D
100
AcDbEntity
100
AcDbLine
  8
INTERNALS
 62
7
370
25
  6
ByLayer
 10
-15.9006582201847682
 20
-108.1481837643292465
 30
0.0
 11
-6.3223032201847627
 21
-108.1481837643292465
 31
0.0
  0
LINE
  5
32E
100
AcDbEntity
100
AcDbLine
  8
INTERNALS
 62
7
370
25
  6
ByLayer
 10
63.5993417798152407
 20
-13.6481837643292394
 30
0.0
 11
90.599341779815262
 21
-13.6481837643292394
 31
0.0
  0
LINE
  5
32F
100
AcDbEntity
100
AcDbLine
  8
INTERNALS
 62
7
370
25
  6
ByLayer
 10
-39.9006582201847664
 20
-13.6481837643292394
 30
0.0
 11
-12.9006582201847504
 21
-13.6481837643292394
 31
0.0
  0
LINE
  5
330
100
AcDbEntity
100
AcDbLine
  8
INTERNALS
 62
7
370
25
  6
ByLayer
 10
90.599341779815262
 20
-13.6481837643292394
 30
0.0
 11
90.599341779815262
 21
-99.1481837643292465
 31
0.0
  0
LINE
  5
331
100
AcDbEntity
100
AcDbLine
  8
INTERNALS
 62
7
370
25
  6
ByLayer
 10
-12.9006582201847504
 20
-13.6481837643292394
 30
0.0
 11
-12.9006582201847504
 21
-99.1481837643292465
 31
0.0
  0
LINE
  5
332
100
AcDbEntity
100
AcDbLine
  8
INTERNALS
 62
7
370
25
  6
ByLayer
 10
90.599341779815262
 20
-99.1481837643292465
 30
0.0
 11
103.1776967798152356
 21
-99.1481837643292465
 31
0.0
  0
LINE
  5
333
100
AcDbEntity
100
AcDbLine
  8
INTERNALS
 62
7
370
25
  6
ByLayer
 10
-12.9006582201847504
 20
-99.1481837643292465
 30
0.0
 11
-0.3223032201847555
 21
-99.1481837643292465
 31
0.0
  0
LINE
  5
334
100
AcDbEntity
100
AcDbLine
  8
OUTLINE
 62
7
370
25
  6
ByLayer
 10
95.0993417798152763
 20
-36.1481837643292394
 30
0.0
 11
95.0993417798152763
 21
-108.1481837643292465
 31
0.0
  0
LINE
  5
335
100
AcDbEntity
100
AcDbLine
  8
OUTLINE
 62
7
370
25
  6
ByLayer
 10
-8.4006582201847682
 20
-36.1481837643292394
 30
0.0
 11
-8.4006582201847682
 21
-108.1481837643292465
 31
0.0
  0
LINE
  5
336
100
AcDbEntity
100
AcDbLine
  8
OUTLINE
 62
7
370
25
  6
ByLayer
 10
110.0993417798152763
 20
-39.1481837643292394
 30
0.0
 11
110.0993417798152763
 21
-105.1481837643292465
 31
0.0
  0
LINE
  5
337
100
AcDbEntity
100
AcDbLine
  8
OUTLINE
 62
7
370
25
  6
ByLayer
 10
6.5993417798152318
 20
-39.1481837643292394
 30
0.0
 11
6.5993417798152318
 21
-105.1481837643292465
 31
0.0
  0
ARC
  5
338
100
AcDbEntity
  8
OUTLINE
 62
7
370
25
  6
ByLayer
100
AcDbCircle
 10
99.5993417798152194
 20
-36.1481837643292394
 30
0.0
 40
4.5
100
AcDbArc
 50
63.4349500000000006
 51
180.0
  0
ARC
  5
339
100
AcDbEntity
  8
OUTLINE
 62
7
370
25
  6
ByLayer
100
AcDbCircle
 10
-3.9006582201847575
 20
-36.1481837643292394
 30
0.0
 40
4.5
100
AcDbArc
 50
63.4349500000000006
 51
180.0
  0
ARC
  5
33A
100
AcDbEntity
  8
OUTLINE
 62
7
370
25
  6
ByLayer
100
AcDbCircle
 10
105.599341779815262
 20
-39.1481837643292394
 30
0.0
 40
4.5
100
AcDbArc
 50
0.0
 51
63.4349479999999986
  0
ARC
  5
33B
100
AcDbEntity
  8
OUTLINE
 62
7
370
25
  6
ByLayer
100
AcDbCircle
 10
2.0993417798152478
 20
-39.1481837643292394
 30
0.0
 40
4.5
100
AcDbArc
 50
0.0
 51
63.4349479999999986
  0
ARC
  5
33C
100
AcDbEntity
  8
OUTLINE
 62
7
370
25
  6
ByLayer
100
AcDbCircle
 10
99.5993417798152194
 20
-108.1481837643292465
 30
0.0
 40
4.5
100
AcDbArc
 50
180.0
 51
296.5650469999999927
  0
ARC
  5
33D
100
AcDbEntity
  8
OUTLINE
 62
7
370
25
  6
ByLayer
100
AcDbCircle
 10
-3.9006582201847575
 20
-108.1481837643292465
 30
0.0
 40
4.5
100
AcDbArc
 50
180.0
 51
296.5650469999999927
  0
ARC
  5
33E
100
AcDbEntity
  8
OUTLINE
 62
7
370
25
  6
ByLayer
100
AcDbCircle
 10
105.599341779815262
 20
-105.1481837643292465
 30
0.0
 40
4.5
100
AcDbArc
 50
296.5650549999999726
 51
360.0
  0
ARC
  5
33F
100
AcDbEntity
  8
OUTLINE
 62
7
370
25
  6
ByLayer
100
AcDbCircle
 10
2.0993417798152478
 20
-105.1481837643292465
 30
0.0
 40
4.5
100
AcDbArc
 50
296.5650549999999726
 51
360.0
  0
LINE
  5
340
100
AcDbEntity
100
AcDbLine
  8
OUTLINE
 62
7
370
25
  6
ByLayer
 10
101.6118017798152522
 20
-32.1232637643292449
 30
0.0
 11
107.611801779815238
 21
-35.1232637643292378
 31
0.0
  0
LINE
  5
341
100
AcDbEntity
100
AcDbLine
  8
OUTLINE
 62
7
370
25
  6
ByLayer
 10
-1.8881982201847549
 20
-32.1232637643292449
 30
0.0
 11
4.1118017798152504
 21
-35.1232637643292378
 31
0.0
  0
LINE
  5
342
100
AcDbEntity
100
AcDbLine
  8
OUTLINE
 62
7
370
25
  6
ByLayer
 10
101.6118017798152522
 20
-112.173103764329241
 30
0.0
 11
107.611801779815238
 21
-109.1731037643292268
 31
0.0
  0
LINE
  5
343
100
AcDbEntity
100
AcDbLine
  8
OUTLINE
 62
7
370
25
  6
ByLayer
 10
-1.8881982201847549
 20
-112.173103764329241
 30
0.0
 11
4.1118017798152504
 21
-109.1731037643292268
 31
0.0
  0
LINE
  5
344
100
AcDbEntity
100
AcDbLine
  8
OUTLINE
 62
7
370
25
  6
ByLayer
 10
26.0993417798152407
 20
-10.6481837643292323
 30
0.0
 11
26.0993417798152407
 21
4.3518162356707535
 31
0.0
  0
LINE
  5
345
100
AcDbEntity
100
AcDbLine
  8
OUTLINE
 62
7
370
25
  6
ByLayer
 10
-77.4006582201847522
 20
-10.6481837643292323
 30
0.0
 11
-77.4006582201847522
 21
4.3518162356707535
 31
0.0
  0
LINE
  5
346
100
AcDbEntity
100
AcDbLine
  8
OUTLINE
 62
7
370
25
  6
ByLayer
 10
26.0993417798152407
 20
4.3518162356707535
 30
0.0
 11
102.5993417798152763
 21
4.3518162356707535
 31
0.0
  0
LINE
  5
347
100
AcDbEntity
100
AcDbLine
  8
OUTLINE
 62
7
370
25
  6
ByLayer
 10
-77.4006582201847522
 20
4.3518162356707535
 30
0.0
 11
-0.9006582201847682
 21
4.3518162356707535
 31
0.0
  0
LINE
  5
348
100
AcDbEntity
100
AcDbLine
  8
OUTLINE
 62
7
370
25
  6
ByLayer
 10
102.5993417798152763
 20
4.3518162356707535
 30
0.0
 11
102.5993417798152763
 21
-32.6170337643292356
 31
0.0
  0
LINE
  5
349
100
AcDbEntity
100
AcDbLine
  8
OUTLINE
 62
7
370
25
  6
ByLayer
 10
-0.9006582201847682
 20
4.3518162356707535
 30
0.0
 11
-0.9006582201847682
 21
-32.6170337643292356
 31
0.0
  0
LINE
  5
34A
100
AcDbEntity
100
AcDbLine
  8
OUTLINE
 62
7
370
25
  6
ByLayer
 10
26.0993417798152407
 20
-138.1481837643292465
 30
0.0
 11
26.0993417798152407
 21
-142.6481837643292465
 31
0.0
  0
LINE
  5
34B
100
AcDbEntity
100
AcDbLine
  8
OUTLINE
 62
7
370
25
  6
ByLayer
 10
-77.4006582201847522
 20
-138.1481837643292465
 30
0.0
 11
-77.4006582201847522
 21
-142.6481837643292465
 31
0.0
  0
LINE
  5
34C
100
AcDbEntity
100
AcDbLine
  8
OUTLINE
 62
7
370
25
  6
ByLayer
 10
26.0993417798152407
 20
-142.6481837643292465
 30
0.0
 11
102.5993417798152763
 21
-142.6481837643292465
 31
0.0
  0
LINE
  5
34D
100
AcDbEntity
100
AcDbLine
  8
OUTLINE
 62
7
370
25
  6
ByLayer
 10
-77.4006582201847522
 20
-142.6481837643292465
 30
0.0
 11
-0.9006582201847682
 21
-142.6481837643292465
 31
0.0
  0
LINE
  5
34E
100
AcDbEntity
100
AcDbLine
  8
OUTLINE
 62
7
370
25
  6
ByLayer
 10
102.5993417798152763
 20
-142.6481837643292465
 30
0.0
 11
102.5993417798152763
 21
-111.6793337643292432
 31
0.0
  0
LINE
  5
34F
100
AcDbEntity
100
AcDbLine
  8
OUTLINE
 62
7
370
25
  6
ByLayer
 10
-0.9006582201847682
 20
-142.6481837643292465
 30
0.0
 11
-0.9006582201847682
 21
-111.6793337643292432
 31
0.0
  0
LINE
  5
350
100
AcDbEntity
100
AcDbLine
  8
INTERNALS
 62
7
370
25
  6
ByLayer
 10
63.5993417798152407
 20
-51.1481837643292323
 30
0.0
 11
83.099341779815262
 21
-51.1481837643292323
 31
0.0
  0
LINE
  5
351
100
AcDbEntity
100
AcDbLine
  8
INTERNALS
 62
7
370
25
  6
ByLayer
 10
63.5993417798152407
 20
-58.6481837643292394
 30
0.0
 11
81.5993417798152336
 21
-58.6481837643292394
 31
0.0
  0
LINE
  5
352
100
AcDbEntity
100
AcDbLine
  8
INTERNALS
 62
7
370
25
  6
ByLayer
 10
63.5993417798152407
 20
-66.1481837643292465
 30
0.0
 11
80.0993417798152478
 21
-66.1481837643292465
 31
0.0
  0
LINE
  5
353
100
AcDbEntity
100
AcDbLine
  8
INTERNALS
 62
7
370
25
  6
ByLayer
 10
80.0993417798152478
 20
-66.1481837643292465
 30
0.0
 11
80.0993417798152478
 21
-72.1481837643292465
 31
0.0
  0
LINE
  5
354
100
AcDbEntity
100
AcDbLine
  8
INTERNALS
 62
7
370
25
  6
ByLayer
 10
80.0993417798152478
 20
-72.1481837643292465
 30
0.0
 11
97.1776967798152498
 21
-72.1481837643292465
 31
0.0
  0
LINE
  5
355
100
AcDbEntity
100
AcDbLine
  8
INTERNALS
 62
7
370
25
  6
ByLayer
 10
63.5993417798152407
 20
-73.6481837643292323
 30
0.0
 11
78.5993417798152478
 21
-73.6481837643292323
 31
0.0
  0
LINE
  5
356
100
AcDbEntity
100
AcDbLine
  8
INTERNALS
 62
7
370
25
  6
ByLayer
 10
78.5993417798152478
 20
-73.6481837643292323
 30
0.0
 11
78.5993417798152478
 21
-78.1481837643292465
 31
0.0
  0
LINE
  5
357
100
AcDbEntity
100
AcDbLine
  8
INTERNALS
 62
7
370
25
  6
ByLayer
 10
78.5993417798152478
 20
-78.1481837643292465
 30
0.0
 11
97.1776967798152498
 21
-78.1481837643292465
 31
0.0
  0
LINE
  5
358
100
AcDbEntity
100
AcDbLine
  8
INTERNALS
 62
7
370
25
  6
ByLayer
 10
63.5993417798152407
 20
-81.1481837643292323
 30
0.0
 11
77.0993417798152478
 21
-81.1481837643292323
 31
0.0
  0
LINE
  5
359
100
AcDbEntity
100
AcDbLine
  8
INTERNALS
 62
7
370
25
  6
ByLayer
 10
77.0993417798152478
 20
-81.1481837643292323
 30
0.0
 11
77.0993417798152478
 21
-84.1481837643292465
 31
0.0
  0
LINE
  5
35A
100
AcDbEntity
100
AcDbLine
  8
INTERNALS
 62
7
370
25
  6
ByLayer
 10
77.0993417798152478
 20
-84.1481837643292465
 30
0.0
 11
97.1776967798152498
 21
-84.1481837643292465
 31
0.0
  0
LINE
  5
35B
100
AcDbEntity
100
AcDbLine
  8
INTERNALS
 62
7
370
25
  6
ByLayer
 10
63.5993417798152407
 20
-88.6481837643292465
 30
0.0
 11
75.599341779815262
 21
-88.6481837643292465
 31
0.0
  0
LINE
  5
35C
100
AcDbEntity
100
AcDbLine
  8
INTERNALS
 62
7
370
25
  6
ByLayer
 10
75.599341779815262
 20
-88.6481837643292465
 30
0.0
 11
75.599341779815262
 21
-90.1481837643292465
 31
0.0
  0
LINE
  5
35D
100
AcDbEntity
100
AcDbLine
  8
INTERNALS
 62
7
370
25
  6
ByLayer
 10
75.599341779815262
 20
-90.1481837643292465
 30
0.0
 11
97.1776967798152498
 21
-90.1481837643292465
 31
0.0
  0
LINE
  5
35E
100
AcDbEntity
100
AcDbLine
  8
INTERNALS
 62
7
370
25
  6
ByLayer
 10
63.5993417798152407
 20
-96.1481837643292465
 30
0.0
 11
97.1776967798152498
 21
-96.1481837643292465
 31
0.0
  0
LINE
  5
35F
100
AcDbEntity
100
AcDbLine
  8
INTERNALS
 62
7
370
25
  6
ByLayer
 10
63.5993417798152407
 20
-103.6481837643292465
 30
0.0
 11
75.599341779815262
 21
-103.6481837643292465
 31
0.0
  0
LINE
  5
360
100
AcDbEntity
100
AcDbLine
  8
INTERNALS
 62
7
370
25
  6
ByLayer
 10
75.599341779815262
 20
-103.6481837643292465
 30
0.0
 11
75.599341779815262
 21
-102.1481837643292323
 31
0.0
  0
LINE
  5
361
100
AcDbEntity
100
AcDbLine
  8
INTERNALS
 62
7
370
25
  6
ByLayer
 10
75.599341779815262
 20
-102.1481837643292323
 30
0.0
 11
97.1776967798152498
 21
-102.1481837643292323
 31
0.0
  0
MTEXT
  5
362
100
AcDbEntity
100
AcDbMText
  8
STANDARD
 62
7
370
25
  6
ByLayer
 10
63.5993417798152407
 20
-0.1481837643292465
 30
0.0
 40
3.0
 41
1500.0
 71
5
 72
2
  1
parport.0
  7
romand
 50
0.0
 73
1
 44
1.0
  0
MTEXT
  5
363
100
AcDbEntity
100
AcDbMText
  8
STANDARD
 62
7
370
25
  6
ByLayer
 10
-39.9006582201847664
 20
-0.1481837643292465
 30
0.0
 40
3.0
 41
1500.0
 71
5
 72
2
  1
parport.0
  7
romand
 50
0.0
 73
1
 44
1.0
  0
MTEXT
  5
364
100
AcDbEntity
100
AcDbMText
  8
STANDARD
 62
7
370
25
  6
ByLayer
 10
63.5993417798152407
 20
-6.1481837643292323
 30
0.0
 40
2.25
 41
1500.0
 71
5
 72
2
  1
configured\~as\~input
  7
romand
 50
0.0
 73
1
 44
1.0
  0
MTEXT
  5
365
100
AcDbEntity
100
AcDbMText
  8
STANDARD
 62
7
370
25
  6
ByLayer
 10
-39.9006582201847664
 20
-6.1481837643292323
 30
0.0
 40
2.25
 41
1500.0
 71
5
 72
2
  1
configured\~as\~output
  7
romand
 50
0.0
 73
1
 44
1.0
  0
MTEXT
  5
366
100
AcDbEntity
100
AcDbMText
  8
PINS
 62
7
370
25
  6
ByLayer
 10
-69.9006582201847522
 20
-12.1481837643292394
 30
0.0
 40
1.7999999999999998
 41
1500.0
 71
5
 72
2
  1
pin-15-in
  7
romand
 50
0.0
 73
1
 44
1.0
  0
MTEXT
  5
367
100
AcDbEntity
100
AcDbMText
  8
PINS
 62
7
370
25
  6
ByLayer
 10
-69.9006582201847522
 20
-15.1481837643292465
 30
0.0
 40
1.7999999999999998
 41
1500.0
 71
5
 72
2
  1
pin-15-in-not
  7
romand
 50
0.0
 73
1
 44
1.0
  0
MTEXT
  5
368
100
AcDbEntity
100
AcDbMText
  8
INTERNALS
 62
7
370
25
  6
ByLayer
 10
-3.9006582201847575
 20
-36.1481837643292394
 30
0.0
 40
2.25
 41
1500.0
 71
5
 72
2
  1
13
  7
romand
 50
0.0
 73
1
 44
1.0
  0
MTEXT
  5
369
100
AcDbEntity
100
AcDbMText
  8
PARAMS
 62
7
370
20
  6
ByLayer
 10
-48.9006582201847593
 20
-51.1481837643292323
 30
0.0
 40
1.3500000000000001
 41
1500.0
 71
5
 72
2
  1
pin-9-out-invert
  7
romand
 50
0.0
 73
1
 44
1.0
  0
MTEXT
  5
36A
100
AcDbEntity
100
AcDbMText
  8
PARAMS
 62
7
370
20
  6
ByLayer
 10
-48.9006582201847593
 20
-58.6481837643292394
 30
0.0
 40
1.3500000000000001
 41
1500.0
 71
5
 72
2
  1
pin-8-out-invert
  7
romand
 50
0.0
 73
1
 44
1.0
  0
MTEXT
  5
36B
100
AcDbEntity
100
AcDbMText
  8
PARAMS
 62
7
370
20
  6
ByLayer
 10
-48.9006582201847593
 20
-66.1481837643292465
 30
0.0
 40
1.3500000000000001
 41
1500.0
 71
5
 72
2
  1
pin-7-out-invert
  7
romand
 50
0.0
 73
1
 44
1.0
  0
MTEXT
  5
36C
100
AcDbEntity
100
AcDbMText
  8
PARAMS
 62
7
370
20
  6
ByLayer
 10
-48.9006582201847593
 20
-73.6481837643292323
 30
0.0
 40
1.3500000000000001
 41
1500.0
 71
5
 72
2
  1
pin-6-out-invert
  7
romand
 50
0.0
 73
1
 44
1.0
  0
MTEXT
  5
36D
100
AcDbEntity
100
AcDbMText
  8
PARAMS
 62
7
370
20
  6
ByLayer
 10
-48.9006582201847593
 20
-81.1481837643292323
 30
0.0
 40
1.3500000000000001
 41
1500.0
 71
5
 72
2
  1
pin-5-out-invert
  7
romand
 50
0.0
 73
1
 44
1.0
  0
MTEXT
  5
36E
100
AcDbEntity
100
AcDbMText
  8
PARAMS
 62
7
370
20
  6
ByLayer
 10
-48.9006582201847593
 20
-88.6481837643292465
 30
0.0
 40
1.3500000000000001
 41
1500.0
 71
5
 72
2
  1
pin-4-out-invert
  7
romand
 50
0.0
 73
1
 44
1.0
  0
MTEXT
  5
36F
100
AcDbEntity
100
AcDbMText
  8
PARAMS
 62
7
370
20
  6
ByLayer
 10
-48.9006582201847593
 20
-96.1481837643292465
 30
0.0
 40
1.3500000000000001
 41
1500.0
 71
5
 72
2
  1
pin-3-out-invert
  7
romand
 50
0.0
 73
1
 44
1.0
  0
MTEXT
  5
370
100
AcDbEntity
100
AcDbMText
  8
PARAMS
 62
7
370
20
  6
ByLayer
 10
-48.9006582201847593
 20
-103.6481837643292465
 30
0.0
 40
1.3500000000000001
 41
1500.0
 71
5
 72
2
  1
pin-2-out-invert
  7
romand
 50
0.0
 73
1
 44
1.0
  0
MTEXT
  5
371
100
AcDbEntity
100
AcDbMText
  8
PARAMS
 62
7
370
20
  6
ByLayer
 10
-48.9006582201847593
 20
-111.1481837643292465
 30
0.0
 40
1.3500000000000001
 41
1500.0
 71
5
 72
2
  1
pin-17-out-invert
  7
romand
 50
0.0
 73
1
 44
1.0
  0
MTEXT
  5
372
100
AcDbEntity
100
AcDbMText
  8
PARAMS
 62
7
370
20
  6
ByLayer
 10
-48.9006582201847593
 20
-118.6481837643292465
 30
0.0
 40
1.3500000000000001
 41
1500.0
 71
5
 72
2
  1
pin-16-out-invert
  7
romand
 50
0.0
 73
1
 44
1.0
  0
MTEXT
  5
373
100
AcDbEntity
100
AcDbMText
  8
PARAMS
 62
7
370
20
  6
ByLayer
 10
-48.9006582201847593
 20
-126.1481837643292465
 30
0.0
 40
1.3500000000000001
 41
1500.0
 71
5
 72
2
  1
pin-14-out-invert
  7
romand
 50
0.0
 73
1
 44
1.0
  0
MTEXT
  5
374
100
AcDbEntity
100
AcDbMText
  8
PARAMS
 62
7
370
20
  6
ByLayer
 10
-48.9006582201847593
 20
-133.6481837643292465
 30
0.0
 40
1.3500000000000001
 41
1500.0
 71
5
 72
2
  1
pin-1-out-invert
  7
romand
 50
0.0
 73
1
 44
1.0
  0
MTEXT
  5
375
100
AcDbEntity
100
AcDbMText
  8
PARAMS
 62
7
370
20
  6
ByLayer
 10
54.5993417798152478
 20
-111.1481837643292465
 30
0.0
 40
1.3500000000000001
 41
1500.0
 71
5
 72
2
  1
pin-17-out-invert
  7
romand
 50
0.0
 73
1
 44
1.0
  0
MTEXT
  5
376
100
AcDbEntity
100
AcDbMText
  8
PARAMS
 62
7
370
20
  6
ByLayer
 10
54.5993417798152478
 20
-118.6481837643292465
 30
0.0
 40
1.3500000000000001
 41
1500.0
 71
5
 72
2
  1
pin-16-out-invert
  7
romand
 50
0.0
 73
1
 44
1.0
  0
MTEXT
  5
377
100
AcDbEntity
100
AcDbMText
  8
PARAMS
 62
7
370
20
  6
ByLayer
 10
54.5993417798152478
 20
-126.1481837643292465
 30
0.0
 40
1.3500000000000001
 41
1500.0
 71
5
 72
2
  1
pin-14-out-invert
  7
romand
 50
0.0
 73
1
 44
1.0
  0
MTEXT
  5
378
100
AcDbEntity
100
AcDbMText
  8
PARAMS
 62
7
370
20
  6
ByLayer
 10
54.5993417798152478
 20
-133.6481837643292465
 30
0.0
 40
1.3500000000000001
 41
1500.0
 71
5
 72
2
  1
pin-1-out-invert
  7
romand
 50
0.0
 73
1
 44
1.0
  0
ENDSEC
  0
SECTION
  2
OBJECTS
  0
DICTIONARY
  5
C
100
AcDbDictionary
280
0
281
1
  3
ACAD_GROUP
350
D
  3
ACAD_LAYOUT
350
1A
  3
ACAD_MLINESTYLE
350
17
  3
ACAD_PLOTSETTINGS
350
19
  3
ACAD_PLOTSTYLENAME
350
E
  3
AcDbVariableDictionary
350
379
  0
DICTIONARY
  5
D
100
AcDbDictionary
280
0
281
1
  0
ACDBDICTIONARYWDFLT
  5
E
100
AcDbDictionary
281
1
  3
Normal
350
F
100
AcDbDictionaryWithDefault
340
F
  0
ACDBPLACEHOLDER
  5
F
  0
DICTIONARY
  5
17
100
AcDbDictionary
280
0
281
1
  3
Standard
350
18
  0
MLINESTYLE
  5
18
100
AcDbMlineStyle
  2
STANDARD
 70
0
  3

 62
256
 51
90.0
 52
90.0
 71
2
 49
0.5
 62
256
  6
BYLAYER
 49
-0.5
 62
256
  6
BYLAYER
  0
DICTIONARY
  5
19
100
AcDbDictionary
280
0
281
1
  0
DICTIONARY
  5
1A
100
AcDbDictionary
281
1
  3
Layout1
350
1E
  3
Layout2
350
26
  3
Model
350
22
  0
LAYOUT
  5
1E
100
AcDbPlotSettings
  1

  2
C:\Program Files\AutoCAD 2002\plotters\DWF ePlot (optimized for plotting).pc3
  4

  6

 40
0.0
 41
0.0
 42
0.0
 43
0.0
 44
0.0
 45
0.0
 46
0.0
 47
0.0
 48
0.0
 49
0.0
140
0.0
141
0.0
142
1.0
143
1.0
 70
688
 72
0
 73
0
 74
5
  7

 75
16
147
1.0
148
0.0
149
0.0
100
AcDbLayout
  1
Layout1
 70
1
 71
1
 10
0.0
 20
0.0
 11
420.0
 21
297.0
 12
0.0
 22
0.0
 32
0.0
 14
100000000000000000000.0
 24
100000000000000000000.0
 34
100000000000000000000.0
 15
-100000000000000000000.0
 25
-100000000000000000000.0
 35
-100000000000000000000.0
146
0.0
 13
0.0
 23
0.0
 33
0.0
 16
1.0
 26
0.0
 36
0.0
 17
0.0
 27
1.0
 37
0.0
 76
0
330
1B
  0
LAYOUT
  5
22
100
AcDbPlotSettings
  1

  2
C:\Program Files\AutoCAD 2002\plotters\DWF ePlot (optimized for plotting).pc3
  4

  6

 40
0.0
 41
0.0
 42
0.0
 43
0.0
 44
0.0
 45
0.0
 46
0.0
 47
0.0
 48
0.0
 49
0.0
140
0.0
141
0.0
142
1.0
143
1.0
 70
1712
 72
0
 73
0
 74
0
  7

 75
0
147
1.0
148
0.0
149
0.0
100
AcDbLayout
  1
Model
 70
1
 71
0
 10
0.0
 20
0.0
 11
12.0
 21
9.0
 12
0.0
 22
0.0
 32
0.0
 14
0.0
 24
0.0
 34
0.0
 15
0.0
 25
0.0
 35
0.0
146
0.0
 13
0.0
 23
0.0
 33
0.0
 16
1.0
 26
0.0
 36
0.0
 17
0.0
 27
1.0
 37
0.0
 76
0
330
1F
  0
LAYOUT
  5
26
100
AcDbPlotSettings
  1

  2
C:\Program Files\AutoCAD 2002\plotters\DWF ePlot (optimized for plotting).pc3
  4

  6

 40
0.0
 41
0.0
 42
0.0
 43
0.0
 44
0.0
 45
0.0
 46
0.0
 47
0.0
 48
0.0
 49
0.0
140
0.0
141
0.0
142
1.0
143
1.0
 70
688
 72
0
 73
0
 74
5
  7

 75
16
147
1.0
148
0.0
149
0.0
100
AcDbLayout
  1
Layout2
 70
1
 71
2
 10
0.0
 20
0.0
 11
12.0
 21
9.0
 12
0.0
 22
0.0
 32
0.0
 14
0.0
 24
0.0
 34
0.0
 15
0.0
 25
0.0
 35
0.0
146
0.0
 13
0.0
 23
0.0
 33
0.0
 16
1.0
 26
0.0
 36
0.0
 17
0.0
 27
1.0
 37
0.0
 76
0
330
23
  0
DICTIONARY
  5
379
100
AcDbDictionary
281
1
  3
DIMASSOC
350
37B
  3
HIDETEXT
350
37A
  0
DICTIONARYVAR
  5
37A
100
DictionaryVariables
280
0
  1
2
  0
DICTIONARYVAR
  5
37B
100
DictionaryVariables
280
0
  1
1
  0
ENDSEC
  0
EOF
