999
dxflib 2.0.4.8
  0
SECTION
  2
HEADER
  9
$ACADVER
  1
AC1015
  9
$HANDSEED
  5
FFFF
  9
$USERR4
 40
0.0
  9
$AXISUNIT
 10
0.0
 20
0.0
 30
0.0
  9
$DIMTAD
 70
0
  9
$VISRETAIN
 70
0
  9
$TILEMODE
 70
1
  9
$SHADEDIF
 70
70
  9
$USERR5
 40
0.0
  9
$UCSYDIR
 10
0.0
 20
1.0
 30
0.0
  9
$ATTREQ
 70
1
  9
$CHAMFERA
 40
0.0
  9
$MENU
  1
acad
  9
$CLAYER
  8
0
  9
$DIMASZ
 40
0.18
  9
$GRIDUNIT
 10
0.0
 20
0.0
  9
$DIMADEC
 70
0
  9
$UCSXDIR
 10
1.0
 20
0.0
 30
0.0
  9
$CHAMFERB
 40
0.0
  9
$TRACEWID
 40
0.05
  9
$REGENMODE
 70
1
  9
$ORTHOMODE
 70
0
  9
$EXTMIN
 10
4.4405000000000001
 20
9.4580000000000002
 30
0.0
  9
$DIMGAP
 40
0.09
  9
$PUCSYDIR
 10
0.0
 20
1.0
 30
0.0
  9
$ANGBASE
 50
0.0
  9
$USRTIMER
 70
1
  9
$SKETCHINC
 40
0.1
  9
$DIMTFAC
 40
1.0
  9
$DIMSAH
 70
0
  9
$DIMALT
 70
0
  9
$DIMSHO
 70
1
  9
$PUCSXDIR
 10
1.0
 20
0.0
 30
0.0
  9
$SURFTYPE
 70
6
  9
$SPLFRAME
 70
0
  9
$AXISMODE
 70
0
  9
$DIMTSZ
 40
0.0
  9
$LIMMIN
 10
0.0
 20
0.0
  9
$SPLINESEGS
 70
8
  9
$AUPREC
 70
0
  9
$LUNITS
 70
2
  9
$DWGCODEPAGE
  3
dos850
  9
$SURFTAB1
 70
6
  9
$BLIPMODE
 70
1
  9
$UNITMODE
 70
0
  9
$USERI1
 70
0
  9
$SURFTAB2
 70
6
  9
$SKPOLY
 70
0
  9
$ELEVATION
 40
0.0
  9
$DIMCEN
 40
0.09
  9
$DIMRND
 40
0.0
  9
$INSBASE
 10
0.0
 20
0.0
 30
0.0
  9
$DIMEXO
 40
0.0625
  9
$INSUNITS
 70
4
  9
$USERI2
 70
0
  9
$UCSORG
 10
0.0
 20
0.0
 30
0.0
  9
$PELEVATION
 40
0.0
  9
$TEXTSIZE
 40
0.2
  9
$DRAGMODE
 70
2
  9
$FILLMODE
 70
1
  9
$EXTMAX
 10
16.4594999999999985
 20
17.9420000000000002
 30
0.0
  9
$USERI3
 70
0
  9
$SURFU
 70
6
  9
$ANGDIR
 70
0
  9
$TDUSRTIMER
 40
0.0
  9
$DIMZIN
 70
0
  9
$DIMDLE
 40
0.0
  9
$DIMSCALE
 40
1.0
  9
$DIMLUNIT
 70
2
  9
$WORLDVIEW
 70
1
  9
$USERI4
 70
0
  9
$SURFV
 70
6
  9
$OSMODE
 70
0
  9
$QTEXTMODE
 70
0
  9
$LIMMAX
 10
0.0
 20
0.0
  9
$DIMTXT
 40
0.18
  9
$GRIDMODE
 70
1
  9
$USERI5
 70
0
  9
$HANDLING
 70
1
  9
$PDMODE
 70
0
  9
$LIMCHECK
 70
0
  9
$THICKNESS
 40
0.0
  9
$DIMSE1
 70
0
  9
$DIMLIM
 70
0
  9
$ATTMODE
 70
1
  9
$LUPREC
 70
4
  9
$PEXTMAX
 10
-100000000000000000000.0
 20
-100000000000000000000.0
 30
-100000000000000000000.0
  9
$PEXTMIN
 10
100000000000000000000.0
 20
100000000000000000000.0
 30
100000000000000000000.0
  9
$PUCSORG
 10
0.0
 20
0.0
 30
0.0
  9
$SPLINETYPE
 70
6
  9
$TDINDWG
 40
0.0
  9
$DIMSOXD
 70
0
  9
$DIMLFAC
 40
1.0
  9
$DIMSE2
 70
0
  9
$DIMTOH
 70
1
  9
$CELTYPE
  6
CONTINUOUS
  9
$PLIMCHECK
 70
0
  9
$PLINEWID
 40
0.0
  9
$DIMSTYLE
  2
STANDARD
  9
$DIMTVP
 40
0.0
  9
$DIMASO
 70
1
  9
$DIMTM
 40
0.0
  9
$DIMDLI
 40
0.38
  9
$CECOLOR
 62
256
  9
$PLIMMAX
 10
297.0
 20
210.0
  9
$PLIMMIN
 10
0.0
 20
0.0
  9
$TREEDEPTH
 70
3020
  9
$MAXACTVP
 70
16
  9
$TDUPDATE
 40
0.0
  9
$FILLETRAD
 40
0.0
  9
$DIMCLRT
 70
0
  9
$DIMALTD
 70
2
  9
$DIMTIH
 70
1
  9
$LTSCALE
 40
1.0
  9
$DIMEXE
 40
0.18
  9
$PINSBASE
 10
-4.4499999999999993
 20
-9.1999999999999993
 30
0.0
  9
$USERR1
 40
0.0
  9
$ATTDIA
 70
0
  9
$PDSIZE
 40
0.0
  9
$DIMCLRD
 70
0
  9
$DIMAUNIT
 70
0
  9
$PSLTSCALE
 70
0
  9
$PLINEGEN
 70
1
  9
$SHADEDGE
 70
3
  9
$USERR2
 40
0.0
  9
$COORDS
 70
0
  9
$TDCREATE
 40
0.0
  9
$DIMCLRE
 70
0
  9
$DIMTOFL
 70
0
  9
$DIMALTF
 40
25.3999999999999986
  9
$DIMTOL
 70
0
  9
$DIMTP
 40
0.0
  9
$TEXTSTYLE
  7
STANDARD
  9
$AUNITS
 70
0
  9
$USERR3
 40
0.0
  9
$DIMTIX
 70
0
  9
$MIRRTEXT
 70
1
  0
ENDSEC
  0
SECTION
  2
TABLES
  0
TABLE
  2
VPORT
  5
8
100
AcDbSymbolTable
 70
1
  0
VPORT
  5
30
100
AcDbSymbolTableRecord
100
AcDbViewportTableRecord
  2
*Active
 70
0
 10
0.0
 20
0.0
 11
1.0
 21
1.0
 12
286.3055555555554861
 22
148.5
 13
0.0
 23
0.0
 14
10.0
 24
10.0
 15
10.0
 25
10.0
 16
0.0
 26
0.0
 36
1.0
 17
0.0
 27
0.0
 37
0.0
 40
297.0
 41
1.92798353909465
 42
50.0
 43
0.0
 44
0.0
 50
0.0
 51
0.0
 71
0
 72
100
 73
1
 74
3
 75
1
 76
1
 77
0
 78
0
281
0
 65
1
110
0.0
120
0.0
130
0.0
111
1.0
121
0.0
131
0.0
112
0.0
122
1.0
132
0.0
 79
0
146
0.0
  0
ENDTAB
  0
TABLE
  2
LTYPE
  5
5
100
AcDbSymbolTable
 70
21
  0
LTYPE
  5
14
100
AcDbSymbolTableRecord
100
AcDbLinetypeTableRecord
  2
ByBlock
 70
0
  3

 72
65
 73
0
 40
0.0
  0
LTYPE
  5
15
100
AcDbSymbolTableRecord
100
AcDbLinetypeTableRecord
  2
ByLayer
 70
0
  3

 72
65
 73
0
 40
0.0
  0
LTYPE
  5
16
100
AcDbSymbolTableRecord
100
AcDbLinetypeTableRecord
  2
CONTINUOUS
 70
0
  3
Solid line
 72
65
 73
0
 40
0.0
  0
LTYPE
  5
31
100
AcDbSymbolTableRecord
100
AcDbLinetypeTableRecord
  2
DOT
 70
0
  3
Dot . . . . . . . . . . . . . . . . . . . . . .
 72
65
 73
2
 40
6.3499999999999996
 49
0.0
 74
0
 49
-6.3499999999999996
 74
0
  0
LTYPE
  5
32
100
AcDbSymbolTableRecord
100
AcDbLinetypeTableRecord
  2
DOT2
 70
0
  3
Dot (.5x) .....................................
 72
65
 73
2
 40
3.1749999999999998
 49
0.0
 74
0
 49
-3.1749999999999998
 74
0
  0
LTYPE
  5
33
100
AcDbSymbolTableRecord
100
AcDbLinetypeTableRecord
  2
DOTX2
 70
0
  3
Dot (2x) .  .  .  .  .  .  .  .  .  .  .  .  .
 72
65
 73
2
 40
12.6999999999999993
 49
0.0
 74
0
 49
-12.6999999999999993
 74
0
  0
LTYPE
  5
34
100
AcDbSymbolTableRecord
100
AcDbLinetypeTableRecord
  2
DASHED
 70
0
  3
Dashed __ __ __ __ __ __ __ __ __ __ __ __ __ _
 72
65
 73
2
 40
19.0500000000000007
 49
12.6999999999999993
 74
0
 49
-6.3499999999999996
 74
0
  0
LTYPE
  5
35
100
AcDbSymbolTableRecord
100
AcDbLinetypeTableRecord
  2
DASHED2
 70
0
  3
Dashed (.5x) _ _ _ _ _ _ _ _ _ _ _ _ _ _ _ _ _
 72
65
 73
2
 40
9.5250000000000004
 49
6.3499999999999996
 74
0
 49
-3.1749999999999998
 74
0
  0
LTYPE
  5
36
100
AcDbSymbolTableRecord
100
AcDbLinetypeTableRecord
  2
DASHEDX2
 70
0
  3
Dashed (2x) ____  ____  ____  ____  ____  ___
 72
65
 73
2
 40
38.1000000000000014
 49
25.3999999999999986
 74
0
 49
-12.6999999999999993
 74
0
  0
LTYPE
  5
37
100
AcDbSymbolTableRecord
100
AcDbLinetypeTableRecord
  2
DASHDOT
 70
0
  3
Dash dot __ . __ . __ . __ . __ . __ . __ . __
 72
65
 73
4
 40
25.3999999999999986
 49
12.6999999999999993
 74
0
 49
-6.3499999999999996
 74
0
 49
0.0
 74
0
 49
-6.3499999999999996
 74
0
  0
LTYPE
  5
38
100
AcDbSymbolTableRecord
100
AcDbLinetypeTableRecord
  2
DASHDOT2
 70
0
  3
Dash dot (.5x) _._._._._._._._._._._._._._._.
 72
65
 73
4
 40
12.6999999999999993
 49
6.3499999999999996
 74
0
 49
-3.1749999999999998
 74
0
 49
0.0
 74
0
 49
-3.1749999999999998
 74
0
  0
LTYPE
  5
39
100
AcDbSymbolTableRecord
100
AcDbLinetypeTableRecord
  2
DASHDOTX2
 70
0
  3
Dash dot (2x) ____  .  ____  .  ____  .  ___
 72
65
 73
4
 40
50.7999999999999972
 49
25.3999999999999986
 74
0
 49
-12.6999999999999993
 74
0
 49
0.0
 74
0
 49
-12.6999999999999993
 74
0
  0
LTYPE
  5
3A
100
AcDbSymbolTableRecord
100
AcDbLinetypeTableRecord
  2
DIVIDE
 70
0
  3
Divide ____ . . ____ . . ____ . . ____ . . ____
 72
65
 73
6
 40
31.75
 49
12.6999999999999993
 74
0
 49
-6.3499999999999996
 74
0
 49
0.0
 74
0
 49
-6.3499999999999996
 74
0
 49
0.0
 74
0
 49
-6.3499999999999996
 74
0
  0
LTYPE
  5
3B
100
AcDbSymbolTableRecord
100
AcDbLinetypeTableRecord
  2
DIVIDE2
 70
0
  3
Divide (.5x) __..__..__..__..__..__..__..__.._
 72
65
 73
6
 40
15.875
 49
6.3499999999999996
 74
0
 49
-3.1749999999999998
 74
0
 49
0.0
 74
0
 49
-3.1749999999999998
 74
0
 49
0.0
 74
0
 49
-3.1749999999999998
 74
0
  0
LTYPE
  5
3C
100
AcDbSymbolTableRecord
100
AcDbLinetypeTableRecord
  2
DIVIDEX2
 70
0
  3
Divide (2x) ________  .  .  ________  .  .  _
 72
65
 73
6
 40
63.5
 49
25.3999999999999986
 74
0
 49
-12.6999999999999993
 74
0
 49
0.0
 74
0
 49
-12.6999999999999993
 74
0
 49
0.0
 74
0
 49
-12.6999999999999993
 74
0
  0
LTYPE
  5
3D
100
AcDbSymbolTableRecord
100
AcDbLinetypeTableRecord
  2
CENTER
 70
0
  3
Center ____ _ ____ _ ____ _ ____ _ ____ _ ____
 72
65
 73
4
 40
50.7999999999999972
 49
31.75
 74
0
 49
-6.3499999999999996
 74
0
 49
6.3499999999999996
 74
0
 49
-6.3499999999999996
 74
0
  0
LTYPE
  5
3E
100
AcDbSymbolTableRecord
100
AcDbLinetypeTableRecord
  2
CENTER2
 70
0
  3
Center (.5x) ___ _ ___ _ ___ _ ___ _ ___ _ ___
 72
65
 73
4
 40
28.5749999999999993
 49
19.0500000000000007
 74
0
 49
-3.1749999999999998
 74
0
 49
3.1749999999999998
 74
0
 49
-3.1749999999999998
 74
0
  0
LTYPE
  5
3F
100
AcDbSymbolTableRecord
100
AcDbLinetypeTableRecord
  2
CENTERX2
 70
0
  3
Center (2x) ________  __  ________  __  _____
 72
65
 73
4
 40
101.5999999999999943
 49
63.5
 74
0
 49
-12.6999999999999993
 74
0
 49
12.6999999999999993
 74
0
 49
-12.6999999999999993
 74
0
  0
LTYPE
  5
40
100
AcDbSymbolTableRecord
100
AcDbLinetypeTableRecord
  2
BORDER
 70
0
  3
Border __ __ . __ __ . __ __ . __ __ . __ __ .
 72
65
 73
6
 40
44.4500000000000028
 49
12.6999999999999993
 74
0
 49
-6.3499999999999996
 74
0
 49
12.6999999999999993
 74
0
 49
-6.3499999999999996
 74
0
 49
0.0
 74
0
 49
-6.3499999999999996
 74
0
  0
LTYPE
  5
41
100
AcDbSymbolTableRecord
100
AcDbLinetypeTableRecord
  2
BORDER2
 70
0
  3
Border (.5x) __.__.__.__.__.__.__.__.__.__.__.
 72
65
 73
6
 40
22.2250000000000014
 49
6.3499999999999996
 74
0
 49
-3.1749999999999998
 74
0
 49
6.3499999999999996
 74
0
 49
-3.1749999999999998
 74
0
 49
0.0
 74
0
 49
-3.1749999999999998
 74
0
  0
LTYPE
  5
42
100
AcDbSymbolTableRecord
100
AcDbLinetypeTableRecord
  2
BORDERX2
 70
0
  3
Border (2x) ____  ____  .  ____  ____  .  ___
 72
65
 73
6
 40
88.9000000000000057
 49
25.3999999999999986
 74
0
 49
-12.6999999999999993
 74
0
 49
25.3999999999999986
 74
0
 49
-12.6999999999999993
 74
0
 49
0.0
 74
0
 49
-12.6999999999999993
 74
0
  0
ENDTAB
  0
TABLE
  2
LAYER
  5
2
100
AcDbSymbolTable
 70
7
  0
LAYER
  5
10
100
AcDbSymbolTableRecord
100
AcDbLayerTableRecord
  2
0
 70
0
 62
7
  6
CONTINUOUS
390
F
  0
LAYER
  5
43
100
AcDbSymbolTableRecord
100
AcDbLayerTableRecord
  2
MERGE
 70
0
 62
7
  6
CONTINUOUS
390
F
  0
LAYER
  5
44
100
AcDbSymbolTableRecord
100
AcDbLayerTableRecord
  2
STANDARD
 70
0
 62
7
  6
CONTINUOUS
390
F
  0
LAYER
  5
45
100
AcDbSymbolTableRecord
100
AcDbLayerTableRecord
  2
PINS
 70
0
 62
7
  6
CONTINUOUS
390
F
  0
LAYER
  5
46
100
AcDbSymbolTableRecord
100
AcDbLayerTableRecord
  2
PARAMS
 70
0
 62
7
  6
CONTINUOUS
390
F
  0
LAYER
  5
47
100
AcDbSymbolTableRecord
100
AcDbLayerTableRecord
  2
OUTLINE
 70
0
 62
7
  6
CONTINUOUS
390
F
  0
LAYER
  5
48
100
AcDbSymbolTableRecord
100
AcDbLayerTableRecord
  2
INTERNALS
 70
0
 62
7
  6
CONTINUOUS
390
F
  0
ENDTAB
  0
TABLE
  2
STYLE
  5
3
100
AcDbSymbolTable
 70
1
  0
STYLE
  5
11
100
AcDbSymbolTableRecord
100
AcDbTextStyleTableRecord
  2
Standard
 70
0
 40
0.0
 41
0.75
 50
0.0
 71
0
 42
2.5
  3
txt
  4

  0
ENDTAB
  0
TABLE
  2
VIEW
  5
6
100
AcDbSymbolTable
 70
0
  0
ENDTAB
  0
TABLE
  2
UCS
  5
7
100
AcDbSymbolTable
 70
0
  0
ENDTAB
  0
TABLE
  2
APPID
  5
9
100
AcDbSymbolTable
 70
1
  0
APPID
  5
12
100
AcDbSymbolTableRecord
100
AcDbRegAppTableRecord
  2
ACAD
 70
0
  0
ENDTAB
  0
TABLE
  2
DIMSTYLE
  5
A
100
AcDbSymbolTable
 70
1
100
AcDbDimStyleTable
 71
0
  0
DIMSTYLE
105
27
100
AcDbSymbolTableRecord
100
AcDbDimStyleTableRecord
  2
Standard
 41
0.18
 42
0.0625
 43
3.75
 44
0.18
 70
0
 73
0
 74
0
 77
1
 78
8
140
0.18
141
2.5
143
0.03937007874016
147
0.09
171
3
172
1
271
2
272
2
274
3
278
44
283
0
284
8
340
11
  0
ENDTAB
  0
TABLE
  2
BLOCK_RECORD
  5
1
100
AcDbSymbolTable
 70
1
  0
BLOCK_RECORD
  5
1F
100
AcDbSymbolTableRecord
100
AcDbBlockTableRecord
  2
*Model_Space
340
22
  0
BLOCK_RECORD
  5
1B
100
AcDbSymbolTableRecord
100
AcDbBlockTableRecord
  2
*Paper_Space
340
1E
  0
BLOCK_RECORD
  5
23
100
AcDbSymbolTableRecord
100
AcDbBlockTableRecord
  2
*Paper_Space0
340
26
  0
ENDTAB
  0
ENDSEC
  0
SECTION
  2
BLOCKS
  0
BLOCK
  5
20
100
AcDbEntity
  8
0
100
AcDbBlockBegin
  2
*Model_Space
 70
0
 10
0.0
 20
0.0
 30
0.0
  3
*Model_Space
  1

  0
ENDBLK
  5
21
100
AcDbEntity
  8
0
100
AcDbBlockEnd
  0
BLOCK
  5
1C
100
AcDbEntity
 67
1
  8
0
100
AcDbBlockBegin
  2
*Paper_Space
 70
0
 10
0.0
 20
0.0
 30
0.0
  3
*Paper_Space
  1

  0
ENDBLK
  5
1D
100
AcDbEntity
 67
1
  8
0
100
AcDbBlockEnd
  0
BLOCK
  5
24
100
AcDbEntity
  8
0
100
AcDbBlockBegin
  2
*Paper_Space0
 70
0
 10
0.0
 20
0.0
 30
0.0
  3
*Paper_Space0
  1

  0
ENDBLK
  5
25
100
AcDbEntity
  8
0
100
AcDbBlockEnd
  0
ENDSEC
  0
SECTION
  2
ENTITIES
  0
LWPOLYLINE
  5
49
  8
STANDARD
 62
7
370
-1
  6
ByLayer
100
AcDbEntity
100
AcDbPolyline
 90
7
 70
1
 10
244.9514843308081993
 20
106.2112634581947788
 10
244.9514843308081993
 20
110.2112634581947503
 10
270.9514843308082277
 20
110.2112634581947503
 10
272.9514843308081709
 20
108.2112634581947646
 10
270.9514843308082277
 20
106.2112634581947788
 10
244.9514843308081993
 20
106.2112634581947788
 10
244.9514843308081993
 20
106.2112634581947788
  0
LWPOLYLINE
  5
4A
  8
STANDARD
 62
7
370
-1
  6
ByLayer
100
AcDbEntity
100
AcDbPolyline
 90
7
 70
1
 10
34.9514843308082135
 20
54.2112634581947503
 10
34.9514843308082135
 20
58.2112634581947646
 10
60.9514843308082064
 20
58.2112634581947646
 10
62.9514843308082206
 20
56.2112634581947788
 10
60.9514843308082064
 20
54.2112634581947503
 10
34.9514843308082135
 20
54.2112634581947503
 10
34.9514843308082135
 20
54.2112634581947503
  0
LWPOLYLINE
  5
4B
  8
STANDARD
 62
7
370
-1
  6
ByLayer
100
AcDbEntity
100
AcDbPolyline
 90
7
 70
1
 10
34.9514843308082135
 20
114.2112634581947503
 10
34.9514843308082135
 20
118.2112634581947646
 10
60.9514843308082064
 20
118.2112634581947646
 10
62.9514843308082206
 20
116.2112634581947788
 10
60.9514843308082064
 20
114.2112634581947503
 10
34.9514843308082135
 20
114.2112634581947503
 10
34.9514843308082135
 20
114.2112634581947503
  0
MTEXT
  5
4C
100
AcDbEntity
100
AcDbMText
  8
STANDARD
 62
7
370
-1
  6
ByLayer
 10
256.9514843308081709
 20
108.2112634581947646
 30
0.0
 40
2.5
 41
2000.0
 71
5
 72
2
  1
output
  7
romand
 50
0.0
 73
0
 44
1.0
  0
MTEXT
  5
4D
100
AcDbEntity
100
AcDbMText
  8
STANDARD
 62
7
370
-1
  6
ByLayer
 10
46.9514843308082064
 20
56.2112634581947788
 30
0.0
 40
2.5
 41
2000.0
 71
5
 72
2
  1
enable
  7
romand
 50
0.0
 73
0
 44
1.0
  0
MTEXT
  5
4E
100
AcDbEntity
100
AcDbMText
  8
STANDARD
 62
7
370
-1
  6
ByLayer
 10
46.9514843308082064
 20
116.2112634581947788
 30
0.0
 40
2.5
 41
2000.0
 71
5
 72
2
  1
command
  7
romand
 50
0.0
 73
0
 44
1.0
  0
LWPOLYLINE
  5
4F
  8
STANDARD
 62
7
370
-1
  6
ByLayer
100
AcDbEntity
100
AcDbPolyline
 90
7
 70
1
 10
246.9514843308081993
 20
188.2112634581947361
 10
244.9514843308081993
 20
190.2112634581947646
 10
246.9514843308081993
 20
192.211263458194793
 10
272.9514843308081709
 20
192.211263458194793
 10
272.9514843308081709
 20
188.2112634581947361
 10
246.9514843308081993
 20
188.2112634581947361
 10
246.9514843308081993
 20
188.2112634581947361
  0
LWPOLYLINE
  5
50
  8
STANDARD
 62
7
370
-1
  6
ByLayer
100
AcDbEntity
100
AcDbPolyline
 90
7
 70
1
 10
36.9514843308082064
 20
170.2112634581947646
 10
34.9514843308082135
 20
172.211263458194793
 10
36.9514843308082064
 20
174.2112634581947646
 10
62.9514843308082206
 20
174.2112634581947646
 10
62.9514843308082206
 20
170.2112634581947646
 10
36.9514843308082064
 20
170.2112634581947646
 10
36.9514843308082064
 20
170.2112634581947646
  0
MTEXT
  5
51
100
AcDbEntity
100
AcDbMText
  8
STANDARD
 62
7
370
-1
  6
ByLayer
 10
258.9514843308081709
 20
190.2112634581947646
 30
0.0
 40
2.5
 41
2000.0
 71
5
 72
2
  1
feedback
  7
romand
 50
0.0
 73
0
 44
1.0
  0
MTEXT
  5
52
100
AcDbEntity
100
AcDbMText
  8
STANDARD
 62
7
370
-1
  6
ByLayer
 10
48.9514843308082135
 20
172.211263458194793
 30
0.0
 40
2.5
 41
2000.0
 71
5
 72
2
  1
error
  7
romand
 50
0.0
 73
0
 44
1.0
  0
MTEXT
  5
53
100
AcDbEntity
100
AcDbMText
  8
PARAMS
 62
7
370
-1
  6
ByLayer
 10
154.9514843308081993
 20
38.2112634581947717
 30
0.0
 40
2.5
 41
2000.0
 71
5
 72
2
  1
max-cmdDD
  7
romand
 50
359.9999829999999861
 73
0
 44
1.0
  0
MTEXT
  5
54
100
AcDbEntity
100
AcDbMText
  8
PARAMS
 62
7
370
-1
  6
ByLayer
 10
112.9514843308082135
 20
82.2112634581947646
 30
0.0
 40
2.5
 41
2000.0
 71
5
 72
2
  1
max-cmdD
  7
romand
 50
0.0
 73
0
 44
1.0
  0
MTEXT
  5
55
100
AcDbEntity
100
AcDbMText
  8
PARAMS
 62
7
370
-1
  6
ByLayer
 10
150.9514843308082277
 20
108.2112634581947646
 30
0.0
 40
2.5
 41
2000.0
 71
5
 72
2
  1
max-errorD
  7
romand
 50
359.9999829999999861
 73
0
 44
1.0
  0
MTEXT
  5
56
100
AcDbEntity
100
AcDbMText
  8
PARAMS
 62
7
370
-1
  6
ByLayer
 10
168.9514843308081993
 20
152.2112634581947646
 30
0.0
 40
2.5
 41
2000.0
 71
5
 72
2
  1
Pgain
  7
romand
 50
0.0
 73
0
 44
1.0
  0
MTEXT
  5
57
100
AcDbEntity
100
AcDbMText
  8
PARAMS
 62
7
370
-1
  6
ByLayer
 10
168.9514843308081993
 20
62.2112634581947646
 30
0.0
 40
2.5
 41
2000.0
 71
5
 72
2
  1
FF2
  7
romand
 50
0.0
 73
0
 44
1.0
  0
MTEXT
  5
58
100
AcDbEntity
100
AcDbMText
  8
PARAMS
 62
7
370
-1
  6
ByLayer
 10
186.9514843308081993
 20
108.2112634581947646
 30
0.0
 40
2.5
 41
2000.0
 71
5
 72
2
  1
bias
  7
romand
 50
0.0
 73
0
 44
1.0
  0
MTEXT
  5
59
100
AcDbEntity
100
AcDbMText
  8
PARAMS
 62
7
370
-1
  6
ByLayer
 10
168.9514843308081993
 20
96.2112634581947788
 30
0.0
 40
2.5
 41
2000.0
 71
5
 72
2
  1
FF0
  7
romand
 50
0.0
 73
0
 44
1.0
  0
MTEXT
  5
5A
100
AcDbEntity
100
AcDbMText
  8
PARAMS
 62
7
370
-1
  6
ByLayer
 10
168.9514843308081993
 20
78.2112634581947646
 30
0.0
 40
2.5
 41
2000.0
 71
5
 72
2
  1
FF1
  7
romand
 50
0.0
 73
0
 44
1.0
  0
MTEXT
  5
5B
100
AcDbEntity
100
AcDbMText
  8
PARAMS
 62
7
370
-1
  6
ByLayer
 10
168.9514843308081993
 20
132.2112634581947646
 30
0.0
 40
2.5
 41
2000.0
 71
5
 72
2
  1
Dgain
  7
romand
 50
0.0
 73
0
 44
1.0
  0
MTEXT
  5
5C
100
AcDbEntity
100
AcDbMText
  8
PARAMS
 62
7
370
-1
  6
ByLayer
 10
168.9514843308081993
 20
184.2112634581947646
 30
0.0
 40
2.5
 41
2000.0
 71
5
 72
2
  1
Igain
  7
romand
 50
0.0
 73
0
 44
1.0
  0
MTEXT
  5
5D
100
AcDbEntity
100
AcDbMText
  8
PARAMS
 62
7
370
-1
  6
ByLayer
 10
150.9514843308082277
 20
160.2112634581947646
 30
0.0
 40
2.5
 41
2000.0
 71
5
 72
2
  1
max-errorI
  7
romand
 50
359.9999829999999861
 73
0
 44
1.0
  0
MTEXT
  5
5E
100
AcDbEntity
100
AcDbMText
  8
PARAMS
 62
7
370
-1
  6
ByLayer
 10
214.9514843308081993
 20
62.2112634581947646
 30
0.0
 40
2.5
 41
2000.0
 71
5
 72
2
  1
max-output
  7
romand
 50
359.9999829999999861
 73
0
 44
1.0
  0
MTEXT
  5
5F
100
AcDbEntity
100
AcDbMText
  8
PARAMS
 62
7
370
-1
  6
ByLayer
 10
106.9514843308081993
 20
156.211263458194793
 30
0.0
 40
2.5
 41
2000.0
 71
5
 72
2
  1
max-error
  7
romand
 50
0.0
 73
0
 44
1.0
  0
MTEXT
  5
60
100
AcDbEntity
100
AcDbMText
  8
PARAMS
 62
7
370
-1
  6
ByLayer
 10
88.9514843308082277
 20
132.2112634581947646
 30
0.0
 40
2.5
 41
2000.0
 71
5
 72
2
  1
deadband
  7
romand
 50
0.0
 73
0
 44
1.0
  0
LINE
  5
61
100
AcDbEntity
100
AcDbLine
  8
PARAMS
 62
7
370
-1
  6
ByLayer
 10
142.9514843308082277
 20
40.2112634581947646
 30
0.0
 11
142.9514843308082277
 21
36.2112634581947788
 31
0.0
  0
LINE
  5
62
100
AcDbEntity
100
AcDbLine
  8
PARAMS
 62
7
370
-1
  6
ByLayer
 10
100.9514843308081993
 20
80.2112634581947646
 30
0.0
 11
100.9514843308081993
 21
84.2112634581947503
 31
0.0
  0
LINE
  5
63
100
AcDbEntity
100
AcDbLine
  8
PARAMS
 62
7
370
-1
  6
ByLayer
 10
138.9514843308081993
 20
110.2112634581947503
 30
0.0
 11
138.9514843308081993
 21
106.2112634581947788
 31
0.0
  0
LINE
  5
64
100
AcDbEntity
100
AcDbLine
  8
PARAMS
 62
7
370
-1
  6
ByLayer
 10
156.9514843308081993
 20
150.2112634581947646
 30
0.0
 11
156.9514843308081993
 21
154.2112634581947646
 31
0.0
  0
LINE
  5
65
100
AcDbEntity
100
AcDbLine
  8
PARAMS
 62
7
370
-1
  6
ByLayer
 10
156.9514843308081993
 20
60.2112634581947646
 30
0.0
 11
156.9514843308081993
 21
64.2112634581947503
 31
0.0
  0
LINE
  5
66
100
AcDbEntity
100
AcDbLine
  8
PARAMS
 62
7
370
-1
  6
ByLayer
 10
174.9514843308081993
 20
106.2112634581947788
 30
0.0
 11
174.9514843308081993
 21
110.2112634581947503
 31
0.0
  0
LINE
  5
67
100
AcDbEntity
100
AcDbLine
  8
PARAMS
 62
7
370
-1
  6
ByLayer
 10
156.9514843308081993
 20
94.2112634581947503
 30
0.0
 11
156.9514843308081993
 21
98.2112634581947646
 31
0.0
  0
LINE
  5
68
100
AcDbEntity
100
AcDbLine
  8
PARAMS
 62
7
370
-1
  6
ByLayer
 10
156.9514843308081993
 20
76.2112634581947788
 30
0.0
 11
156.9514843308081993
 21
80.2112634581947646
 31
0.0
  0
LINE
  5
69
100
AcDbEntity
100
AcDbLine
  8
PARAMS
 62
7
370
-1
  6
ByLayer
 10
156.9514843308081993
 20
130.2112634581947646
 30
0.0
 11
156.9514843308081993
 21
134.2112634581947646
 31
0.0
  0
LINE
  5
6A
100
AcDbEntity
100
AcDbLine
  8
PARAMS
 62
7
370
-1
  6
ByLayer
 10
156.9514843308081993
 20
182.211263458194793
 30
0.0
 11
156.9514843308081993
 21
186.211263458194793
 31
0.0
  0
LINE
  5
6B
100
AcDbEntity
100
AcDbLine
  8
PARAMS
 62
7
370
-1
  6
ByLayer
 10
138.9514843308081993
 20
162.211263458194793
 30
0.0
 11
138.9514843308081993
 21
158.2112634581947646
 31
0.0
  0
LINE
  5
6C
100
AcDbEntity
100
AcDbLine
  8
PARAMS
 62
7
370
-1
  6
ByLayer
 10
202.9514843308081993
 20
64.2112634581947503
 30
0.0
 11
202.9514843308081993
 21
60.2112634581947646
 31
0.0
  0
LINE
  5
6D
100
AcDbEntity
100
AcDbLine
  8
PARAMS
 62
7
370
-1
  6
ByLayer
 10
94.9514843308082135
 20
154.2112634581947646
 30
0.0
 11
94.9514843308082135
 21
158.2112634581947646
 31
0.0
  0
LINE
  5
6E
100
AcDbEntity
100
AcDbLine
  8
PARAMS
 62
7
370
-1
  6
ByLayer
 10
76.9514843308081993
 20
130.2112634581947646
 30
0.0
 11
76.9514843308081993
 21
134.2112634581947646
 31
0.0
  0
LINE
  5
6F
100
AcDbEntity
100
AcDbLine
  8
PARAMS
 62
7
370
-1
  6
ByLayer
 10
142.9514843308082277
 20
36.2112634581947788
 30
0.0
 11
166.9514843308081993
 21
36.2112634581947788
 31
0.0
  0
LINE
  5
70
100
AcDbEntity
100
AcDbLine
  8
PARAMS
 62
7
370
-1
  6
ByLayer
 10
100.9514843308081993
 20
84.2112634581947503
 30
0.0
 11
124.9514843308081993
 21
84.2112634581947503
 31
0.0
  0
LINE
  5
71
100
AcDbEntity
100
AcDbLine
  8
PARAMS
 62
7
370
-1
  6
ByLayer
 10
138.9514843308081993
 20
106.2112634581947788
 30
0.0
 11
162.9514843308082277
 21
106.2112634581947788
 31
0.0
  0
LINE
  5
72
100
AcDbEntity
100
AcDbLine
  8
PARAMS
 62
7
370
-1
  6
ByLayer
 10
156.9514843308081993
 20
154.2112634581947646
 30
0.0
 11
180.9514843308082277
 21
154.2112634581947646
 31
0.0
  0
LINE
  5
73
100
AcDbEntity
100
AcDbLine
  8
PARAMS
 62
7
370
-1
  6
ByLayer
 10
156.9514843308081993
 20
64.2112634581947503
 30
0.0
 11
180.9514843308082277
 21
64.2112634581947503
 31
0.0
  0
LINE
  5
74
100
AcDbEntity
100
AcDbLine
  8
PARAMS
 62
7
370
-1
  6
ByLayer
 10
174.9514843308081993
 20
110.2112634581947503
 30
0.0
 11
198.9514843308081993
 21
110.2112634581947503
 31
0.0
  0
LINE
  5
75
100
AcDbEntity
100
AcDbLine
  8
PARAMS
 62
7
370
-1
  6
ByLayer
 10
156.9514843308081993
 20
98.2112634581947646
 30
0.0
 11
180.9514843308082277
 21
98.2112634581947646
 31
0.0
  0
LINE
  5
76
100
AcDbEntity
100
AcDbLine
  8
PARAMS
 62
7
370
-1
  6
ByLayer
 10
156.9514843308081993
 20
80.2112634581947646
 30
0.0
 11
180.9514843308082277
 21
80.2112634581947646
 31
0.0
  0
LINE
  5
77
100
AcDbEntity
100
AcDbLine
  8
PARAMS
 62
7
370
-1
  6
ByLayer
 10
156.9514843308081993
 20
134.2112634581947646
 30
0.0
 11
180.9514843308082277
 21
134.2112634581947646
 31
0.0
  0
LINE
  5
78
100
AcDbEntity
100
AcDbLine
  8
PARAMS
 62
7
370
-1
  6
ByLayer
 10
156.9514843308081993
 20
186.211263458194793
 30
0.0
 11
180.9514843308082277
 21
186.211263458194793
 31
0.0
  0
LINE
  5
79
100
AcDbEntity
100
AcDbLine
  8
PARAMS
 62
7
370
-1
  6
ByLayer
 10
138.9514843308081993
 20
158.2112634581947646
 30
0.0
 11
162.9514843308082277
 21
158.2112634581947646
 31
0.0
  0
LINE
  5
7A
100
AcDbEntity
100
AcDbLine
  8
PARAMS
 62
7
370
-1
  6
ByLayer
 10
202.9514843308081993
 20
60.2112634581947646
 30
0.0
 11
226.9514843308081993
 21
60.2112634581947646
 31
0.0
  0
LINE
  5
7B
100
AcDbEntity
100
AcDbLine
  8
PARAMS
 62
7
370
-1
  6
ByLayer
 10
94.9514843308082135
 20
158.2112634581947646
 30
0.0
 11
118.9514843308081993
 21
158.2112634581947646
 31
0.0
  0
LINE
  5
7C
100
AcDbEntity
100
AcDbLine
  8
PARAMS
 62
7
370
-1
  6
ByLayer
 10
76.9514843308081993
 20
134.2112634581947646
 30
0.0
 11
100.9514843308081993
 21
134.2112634581947646
 31
0.0
  0
LINE
  5
7D
100
AcDbEntity
100
AcDbLine
  8
PARAMS
 62
7
370
-1
  6
ByLayer
 10
166.9514843308081993
 20
36.2112634581947788
 30
0.0
 11
166.9514843308081993
 21
40.2112634581947646
 31
0.0
  0
LINE
  5
7E
100
AcDbEntity
100
AcDbLine
  8
PARAMS
 62
7
370
-1
  6
ByLayer
 10
124.9514843308081993
 20
84.2112634581947503
 30
0.0
 11
124.9514843308081993
 21
80.2112634581947646
 31
0.0
  0
LINE
  5
7F
100
AcDbEntity
100
AcDbLine
  8
PARAMS
 62
7
370
-1
  6
ByLayer
 10
162.9514843308082277
 20
106.2112634581947788
 30
0.0
 11
162.9514843308082277
 21
110.2112634581947503
 31
0.0
  0
LINE
  5
80
100
AcDbEntity
100
AcDbLine
  8
PARAMS
 62
7
370
-1
  6
ByLayer
 10
180.9514843308082277
 20
154.2112634581947646
 30
0.0
 11
180.9514843308082277
 21
150.2112634581947646
 31
0.0
  0
LINE
  5
81
100
AcDbEntity
100
AcDbLine
  8
PARAMS
 62
7
370
-1
  6
ByLayer
 10
180.9514843308082277
 20
64.2112634581947503
 30
0.0
 11
180.9514843308082277
 21
60.2112634581947646
 31
0.0
  0
LINE
  5
82
100
AcDbEntity
100
AcDbLine
  8
PARAMS
 62
7
370
-1
  6
ByLayer
 10
198.9514843308081993
 20
110.2112634581947503
 30
0.0
 11
198.9514843308081993
 21
106.2112634581947788
 31
0.0
  0
LINE
  5
83
100
AcDbEntity
100
AcDbLine
  8
PARAMS
 62
7
370
-1
  6
ByLayer
 10
180.9514843308082277
 20
98.2112634581947646
 30
0.0
 11
180.9514843308082277
 21
94.2112634581947503
 31
0.0
  0
LINE
  5
84
100
AcDbEntity
100
AcDbLine
  8
PARAMS
 62
7
370
-1
  6
ByLayer
 10
180.9514843308082277
 20
80.2112634581947646
 30
0.0
 11
180.9514843308082277
 21
76.2112634581947788
 31
0.0
  0
LINE
  5
85
100
AcDbEntity
100
AcDbLine
  8
PARAMS
 62
7
370
-1
  6
ByLayer
 10
180.9514843308082277
 20
134.2112634581947646
 30
0.0
 11
180.9514843308082277
 21
130.2112634581947646
 31
0.0
  0
LINE
  5
86
100
AcDbEntity
100
AcDbLine
  8
PARAMS
 62
7
370
-1
  6
ByLayer
 10
180.9514843308082277
 20
186.211263458194793
 30
0.0
 11
180.9514843308082277
 21
182.211263458194793
 31
0.0
  0
LINE
  5
87
100
AcDbEntity
100
AcDbLine
  8
PARAMS
 62
7
370
-1
  6
ByLayer
 10
162.9514843308082277
 20
158.2112634581947646
 30
0.0
 11
162.9514843308082277
 21
162.211263458194793
 31
0.0
  0
LINE
  5
88
100
AcDbEntity
100
AcDbLine
  8
PARAMS
 62
7
370
-1
  6
ByLayer
 10
226.9514843308081993
 20
60.2112634581947646
 30
0.0
 11
226.9514843308081993
 21
64.2112634581947503
 31
0.0
  0
LINE
  5
89
100
AcDbEntity
100
AcDbLine
  8
PARAMS
 62
7
370
-1
  6
ByLayer
 10
118.9514843308081993
 20
158.2112634581947646
 30
0.0
 11
118.9514843308081993
 21
154.2112634581947646
 31
0.0
  0
LINE
  5
8A
100
AcDbEntity
100
AcDbLine
  8
PARAMS
 62
7
370
-1
  6
ByLayer
 10
100.9514843308081993
 20
134.2112634581947646
 30
0.0
 11
100.9514843308081993
 21
130.2112634581947646
 31
0.0
  0
LINE
  5
8B
100
AcDbEntity
100
AcDbLine
  8
PARAMS
 62
7
370
-1
  6
ByLayer
 10
166.9514843308081993
 20
40.2112634581947646
 30
0.0
 11
142.9514843308082277
 21
40.2112634581947646
 31
0.0
  0
LINE
  5
8C
100
AcDbEntity
100
AcDbLine
  8
PARAMS
 62
7
370
-1
  6
ByLayer
 10
124.9514843308081993
 20
80.2112634581947646
 30
0.0
 11
100.9514843308081993
 21
80.2112634581947646
 31
0.0
  0
LINE
  5
8D
100
AcDbEntity
100
AcDbLine
  8
PARAMS
 62
7
370
-1
  6
ByLayer
 10
162.9514843308082277
 20
110.2112634581947503
 30
0.0
 11
138.9514843308081993
 21
110.2112634581947503
 31
0.0
  0
LINE
  5
8E
100
AcDbEntity
100
AcDbLine
  8
PARAMS
 62
7
370
-1
  6
ByLayer
 10
180.9514843308082277
 20
150.2112634581947646
 30
0.0
 11
156.9514843308081993
 21
150.2112634581947646
 31
0.0
  0
LINE
  5
8F
100
AcDbEntity
100
AcDbLine
  8
PARAMS
 62
7
370
-1
  6
ByLayer
 10
180.9514843308082277
 20
60.2112634581947646
 30
0.0
 11
156.9514843308081993
 21
60.2112634581947646
 31
0.0
  0
LINE
  5
90
100
AcDbEntity
100
AcDbLine
  8
PARAMS
 62
7
370
-1
  6
ByLayer
 10
198.9514843308081993
 20
106.2112634581947788
 30
0.0
 11
174.9514843308081993
 21
106.2112634581947788
 31
0.0
  0
LINE
  5
91
100
AcDbEntity
100
AcDbLine
  8
PARAMS
 62
7
370
-1
  6
ByLayer
 10
180.9514843308082277
 20
94.2112634581947503
 30
0.0
 11
156.9514843308081993
 21
94.2112634581947503
 31
0.0
  0
LINE
  5
92
100
AcDbEntity
100
AcDbLine
  8
PARAMS
 62
7
370
-1
  6
ByLayer
 10
180.9514843308082277
 20
76.2112634581947788
 30
0.0
 11
156.9514843308081993
 21
76.2112634581947788
 31
0.0
  0
LINE
  5
93
100
AcDbEntity
100
AcDbLine
  8
PARAMS
 62
7
370
-1
  6
ByLayer
 10
180.9514843308082277
 20
130.2112634581947646
 30
0.0
 11
156.9514843308081993
 21
130.2112634581947646
 31
0.0
  0
LINE
  5
94
100
AcDbEntity
100
AcDbLine
  8
PARAMS
 62
7
370
-1
  6
ByLayer
 10
180.9514843308082277
 20
182.211263458194793
 30
0.0
 11
156.9514843308081993
 21
182.211263458194793
 31
0.0
  0
LINE
  5
95
100
AcDbEntity
100
AcDbLine
  8
PARAMS
 62
7
370
-1
  6
ByLayer
 10
162.9514843308082277
 20
162.211263458194793
 30
0.0
 11
138.9514843308081993
 21
162.211263458194793
 31
0.0
  0
LINE
  5
96
100
AcDbEntity
100
AcDbLine
  8
PARAMS
 62
7
370
-1
  6
ByLayer
 10
226.9514843308081993
 20
64.2112634581947503
 30
0.0
 11
202.9514843308081993
 21
64.2112634581947503
 31
0.0
  0
LINE
  5
97
100
AcDbEntity
100
AcDbLine
  8
PARAMS
 62
7
370
-1
  6
ByLayer
 10
118.9514843308081993
 20
154.2112634581947646
 30
0.0
 11
94.9514843308082135
 21
154.2112634581947646
 31
0.0
  0
LINE
  5
98
100
AcDbEntity
100
AcDbLine
  8
PARAMS
 62
7
370
-1
  6
ByLayer
 10
100.9514843308081993
 20
130.2112634581947646
 30
0.0
 11
76.9514843308081993
 21
130.2112634581947646
 31
0.0
  0
MTEXT
  5
99
100
AcDbEntity
100
AcDbMText
  8
STANDARD
 62
7
370
-1
  6
ByLayer
 10
78.9514843308082277
 20
44.2112634581947503
 30
0.0
 40
4.0
 41
2000.0
 71
5
 72
2
  1
pid.0
  7
romand
 50
0.0
 73
0
 44
1.0
  0
LWPOLYLINE
  5
9A
  8
STANDARD
 62
7
370
-1
  6
ByLayer
100
AcDbEntity
100
AcDbPolyline
 90
5
 70
1
 10
164.9514843308081993
 20
44.2112634581947503
 10
164.9514843308081993
 20
56.2112634581947788
 10
176.9514843308081993
 20
56.2112634581947788
 10
176.9514843308081993
 20
44.2112634581947503
 10
164.9514843308081993
 20
44.2112634581947503
  0
LWPOLYLINE
  5
9B
  8
STANDARD
 62
7
370
-1
  6
ByLayer
100
AcDbEntity
100
AcDbPolyline
 90
5
 70
1
 10
122.9514843308082135
 20
64.2112634581947503
 10
122.9514843308082135
 20
76.2112634581947788
 10
134.9514843308081993
 20
76.2112634581947788
 10
134.9514843308081993
 20
64.2112634581947503
 10
122.9514843308082135
 20
64.2112634581947503
  0
LWPOLYLINE
  5
9C
  8
STANDARD
 62
7
370
-1
  6
ByLayer
100
AcDbEntity
100
AcDbPolyline
 90
5
 70
1
 10
160.9514843308082277
 20
114.2112634581947503
 10
160.9514843308082277
 20
126.2112634581947646
 10
172.9514843308081993
 20
126.2112634581947646
 10
172.9514843308081993
 20
114.2112634581947503
 10
160.9514843308082277
 20
114.2112634581947503
  0
LWPOLYLINE
  5
9D
  8
STANDARD
 62
7
370
-1
  6
ByLayer
100
AcDbEntity
100
AcDbPolyline
 90
5
 70
1
 10
160.9514843308082277
 20
166.211263458194793
 10
160.9514843308082277
 20
178.2112634581947361
 10
172.9514843308081993
 20
178.2112634581947361
 10
172.9514843308081993
 20
166.211263458194793
 10
160.9514843308082277
 20
166.211263458194793
  0
LWPOLYLINE
  5
9E
  8
STANDARD
 62
7
370
-1
  6
ByLayer
100
AcDbEntity
100
AcDbPolyline
 90
5
 70
1
 10
224.9514843308081993
 20
102.2112634581947503
 10
224.9514843308081993
 20
114.2112634581947503
 10
236.9514843308081993
 20
114.2112634581947503
 10
236.9514843308081993
 20
102.2112634581947503
 10
224.9514843308081993
 20
102.2112634581947503
  0
LWPOLYLINE
  5
9F
  8
STANDARD
 62
7
370
-1
  6
ByLayer
100
AcDbEntity
100
AcDbPolyline
 90
5
 70
1
 10
116.9514843308081993
 20
138.2112634581947646
 10
116.9514843308081993
 20
150.2112634581947646
 10
128.9514843308081993
 20
150.2112634581947646
 10
128.9514843308081993
 20
138.2112634581947646
 10
116.9514843308081993
 20
138.2112634581947646
  0
LWPOLYLINE
  5
A0
  8
STANDARD
 62
7
370
-1
  6
ByLayer
100
AcDbEntity
100
AcDbPolyline
 90
5
 70
1
 10
98.9514843308082135
 20
138.2112634581947646
 10
98.9514843308082135
 20
150.2112634581947646
 10
110.9514843308082277
 20
150.2112634581947646
 10
110.9514843308082277
 20
138.2112634581947646
 10
98.9514843308082135
 20
138.2112634581947646
  0
LINE
  5
A1
100
AcDbEntity
100
AcDbLine
  8
STANDARD
 62
7
370
-1
  6
CONTINUOUS
 10
164.9514843308081993
 20
50.2112634581947646
 30
0.0
 11
176.9514843308081993
 21
50.2112634581947646
 31
0.0
  0
LINE
  5
A2
100
AcDbEntity
100
AcDbLine
  8
STANDARD
 62
7
370
-1
  6
CONTINUOUS
 10
122.9514843308082135
 20
70.2112634581947646
 30
0.0
 11
134.9514843308081993
 21
70.2112634581947646
 31
0.0
  0
LINE
  5
A3
100
AcDbEntity
100
AcDbLine
  8
STANDARD
 62
7
370
-1
  6
CONTINUOUS
 10
160.9514843308082277
 20
120.2112634581947646
 30
0.0
 11
172.9514843308081993
 21
120.2112634581947646
 31
0.0
  0
LINE
  5
A4
100
AcDbEntity
100
AcDbLine
  8
STANDARD
 62
7
370
-1
  6
CONTINUOUS
 10
160.9514843308082277
 20
172.211263458194793
 30
0.0
 11
172.9514843308081993
 21
172.211263458194793
 31
0.0
  0
LINE
  5
A5
100
AcDbEntity
100
AcDbLine
  8
STANDARD
 62
7
370
-1
  6
CONTINUOUS
 10
224.9514843308081993
 20
108.2112634581947646
 30
0.0
 11
236.9514843308081993
 21
108.2112634581947646
 31
0.0
  0
LINE
  5
A6
100
AcDbEntity
100
AcDbLine
  8
STANDARD
 62
7
370
-1
  6
CONTINUOUS
 10
116.9514843308081993
 20
144.2112634581947646
 30
0.0
 11
128.9514843308081993
 21
144.2112634581947646
 31
0.0
  0
LINE
  5
A7
100
AcDbEntity
100
AcDbLine
  8
STANDARD
 62
7
370
-1
  6
CONTINUOUS
 10
98.9514843308082135
 20
144.2112634581947646
 30
0.0
 11
110.9514843308082277
 21
144.2112634581947646
 31
0.0
  0
LINE
  5
A8
100
AcDbEntity
100
AcDbLine
  8
STANDARD
 62
7
370
-1
  6
CONTINUOUS
 10
170.9514843308082277
 20
56.2112634581947788
 30
0.0
 11
170.9514843308082277
 21
44.2112634581947503
 31
0.0
  0
LINE
  5
A9
100
AcDbEntity
100
AcDbLine
  8
STANDARD
 62
7
370
-1
  6
CONTINUOUS
 10
128.9514843308081993
 20
76.2112634581947788
 30
0.0
 11
128.9514843308081993
 21
64.2112634581947503
 31
0.0
  0
LINE
  5
AA
100
AcDbEntity
100
AcDbLine
  8
STANDARD
 62
7
370
-1
  6
CONTINUOUS
 10
166.9514843308081993
 20
126.2112634581947646
 30
0.0
 11
166.9514843308081993
 21
114.2112634581947503
 31
0.0
  0
LINE
  5
AB
100
AcDbEntity
100
AcDbLine
  8
STANDARD
 62
7
370
-1
  6
CONTINUOUS
 10
166.9514843308081993
 20
178.2112634581947361
 30
0.0
 11
166.9514843308081993
 21
166.211263458194793
 31
0.0
  0
LINE
  5
AC
100
AcDbEntity
100
AcDbLine
  8
STANDARD
 62
7
370
-1
  6
CONTINUOUS
 10
230.9514843308082277
 20
114.2112634581947503
 30
0.0
 11
230.9514843308082277
 21
102.2112634581947503
 31
0.0
  0
LINE
  5
AD
100
AcDbEntity
100
AcDbLine
  8
STANDARD
 62
7
370
-1
  6
CONTINUOUS
 10
122.9514843308082135
 20
150.2112634581947646
 30
0.0
 11
122.9514843308082135
 21
138.2112634581947646
 31
0.0
  0
LINE
  5
AE
100
AcDbEntity
100
AcDbLine
  8
STANDARD
 62
7
370
-1
  6
CONTINUOUS
 10
104.9514843308081993
 20
150.2112634581947646
 30
0.0
 11
104.9514843308081993
 21
138.2112634581947646
 31
0.0
  0
LINE
  5
AF
100
AcDbEntity
100
AcDbLine
  8
STANDARD
 62
7
370
-1
  6
ByLayer
 10
98.9514843308082135
 20
138.2112634581947646
 30
0.0
 11
102.9514843308082135
 21
142.2112634581947646
 31
0.0
  0
LINE
  5
B0
100
AcDbEntity
100
AcDbLine
  8
STANDARD
 62
7
370
-1
  6
ByLayer
 10
102.9514843308082135
 20
142.2112634581947646
 30
0.0
 11
102.9514843308082135
 21
144.2112634581947646
 31
0.0
  0
LINE
  5
B1
100
AcDbEntity
100
AcDbLine
  8
STANDARD
 62
7
370
-1
  6
ByLayer
 10
102.9514843308082135
 20
144.2112634581947646
 30
0.0
 11
106.9514843308081993
 21
144.2112634581947646
 31
0.0
  0
LINE
  5
B2
100
AcDbEntity
100
AcDbLine
  8
STANDARD
 62
7
370
-1
  6
ByLayer
 10
106.9514843308081993
 20
144.2112634581947646
 30
0.0
 11
106.9514843308081993
 21
146.2112634581947646
 31
0.0
  0
LINE
  5
B3
100
AcDbEntity
100
AcDbLine
  8
STANDARD
 62
7
370
-1
  6
ByLayer
 10
106.9514843308081993
 20
146.2112634581947646
 30
0.0
 11
110.9514843308082277
 21
150.2112634581947646
 31
0.0
  0
LINE
  5
B4
100
AcDbEntity
100
AcDbLine
  8
STANDARD
 62
7
370
-1
  6
ByLayer
 10
164.9514843308081993
 20
46.2112634581947788
 30
0.0
 11
166.9514843308081993
 21
46.2112634581947788
 31
0.0
  0
LINE
  5
B5
100
AcDbEntity
100
AcDbLine
  8
STANDARD
 62
7
370
-1
  6
ByLayer
 10
122.9514843308082135
 20
66.2112634581947788
 30
0.0
 11
124.9514843308081993
 21
66.2112634581947788
 31
0.0
  0
LINE
  5
B6
100
AcDbEntity
100
AcDbLine
  8
STANDARD
 62
7
370
-1
  6
ByLayer
 10
160.9514843308082277
 20
116.2112634581947788
 30
0.0
 11
162.9514843308082277
 21
116.2112634581947788
 31
0.0
  0
LINE
  5
B7
100
AcDbEntity
100
AcDbLine
  8
STANDARD
 62
7
370
-1
  6
ByLayer
 10
160.9514843308082277
 20
168.2112634581947361
 30
0.0
 11
162.9514843308082277
 21
168.2112634581947361
 31
0.0
  0
LINE
  5
B8
100
AcDbEntity
100
AcDbLine
  8
STANDARD
 62
7
370
-1
  6
ByLayer
 10
224.9514843308081993
 20
104.2112634581947503
 30
0.0
 11
226.9514843308081993
 21
104.2112634581947503
 31
0.0
  0
LINE
  5
B9
100
AcDbEntity
100
AcDbLine
  8
STANDARD
 62
7
370
-1
  6
ByLayer
 10
116.9514843308081993
 20
140.2112634581947646
 30
0.0
 11
118.9514843308081993
 21
140.2112634581947646
 31
0.0
  0
LINE
  5
BA
100
AcDbEntity
100
AcDbLine
  8
STANDARD
 62
7
370
-1
  6
ByLayer
 10
166.9514843308081993
 20
46.2112634581947788
 30
0.0
 11
174.9514843308081993
 21
54.2112634581947503
 31
0.0
  0
LINE
  5
BB
100
AcDbEntity
100
AcDbLine
  8
STANDARD
 62
7
370
-1
  6
ByLayer
 10
124.9514843308081993
 20
66.2112634581947788
 30
0.0
 11
132.9514843308082277
 21
74.2112634581947503
 31
0.0
  0
LINE
  5
BC
100
AcDbEntity
100
AcDbLine
  8
STANDARD
 62
7
370
-1
  6
ByLayer
 10
162.9514843308082277
 20
116.2112634581947788
 30
0.0
 11
170.9514843308082277
 21
124.2112634581947646
 31
0.0
  0
LINE
  5
BD
100
AcDbEntity
100
AcDbLine
  8
STANDARD
 62
7
370
-1
  6
ByLayer
 10
162.9514843308082277
 20
168.2112634581947361
 30
0.0
 11
170.9514843308082277
 21
176.211263458194793
 31
0.0
  0
LINE
  5
BE
100
AcDbEntity
100
AcDbLine
  8
STANDARD
 62
7
370
-1
  6
ByLayer
 10
226.9514843308081993
 20
104.2112634581947503
 30
0.0
 11
234.9514843308081993
 21
112.2112634581947503
 31
0.0
  0
LINE
  5
BF
100
AcDbEntity
100
AcDbLine
  8
STANDARD
 62
7
370
-1
  6
ByLayer
 10
118.9514843308081993
 20
140.2112634581947646
 30
0.0
 11
126.9514843308081993
 21
148.2112634581947646
 31
0.0
  0
LINE
  5
C0
100
AcDbEntity
100
AcDbLine
  8
STANDARD
 62
7
370
-1
  6
ByLayer
 10
174.9514843308081993
 20
54.2112634581947503
 30
0.0
 11
176.9514843308081993
 21
54.2112634581947503
 31
0.0
  0
LINE
  5
C1
100
AcDbEntity
100
AcDbLine
  8
STANDARD
 62
7
370
-1
  6
ByLayer
 10
132.9514843308082277
 20
74.2112634581947503
 30
0.0
 11
134.9514843308081993
 21
74.2112634581947503
 31
0.0
  0
LINE
  5
C2
100
AcDbEntity
100
AcDbLine
  8
STANDARD
 62
7
370
-1
  6
ByLayer
 10
170.9514843308082277
 20
124.2112634581947646
 30
0.0
 11
172.9514843308081993
 21
124.2112634581947646
 31
0.0
  0
LINE
  5
C3
100
AcDbEntity
100
AcDbLine
  8
STANDARD
 62
7
370
-1
  6
ByLayer
 10
170.9514843308082277
 20
176.211263458194793
 30
0.0
 11
172.9514843308081993
 21
176.211263458194793
 31
0.0
  0
LINE
  5
C4
100
AcDbEntity
100
AcDbLine
  8
STANDARD
 62
7
370
-1
  6
ByLayer
 10
234.9514843308081993
 20
112.2112634581947503
 30
0.0
 11
236.9514843308081993
 21
112.2112634581947503
 31
0.0
  0
LINE
  5
C5
100
AcDbEntity
100
AcDbLine
  8
STANDARD
 62
7
370
-1
  6
ByLayer
 10
126.9514843308081993
 20
148.2112634581947646
 30
0.0
 11
128.9514843308081993
 21
148.2112634581947646
 31
0.0
  0
CIRCLE
  5
C6
100
AcDbEntity
100
AcDbCircle
  8
STANDARD
 62
7
370
-1
  6
ByLayer
 10
70.9514843308081993
 20
144.2112634581947646
 30
0.0
 40
4.0
  0
CIRCLE
  5
C7
100
AcDbEntity
100
AcDbCircle
  8
STANDARD
 62
7
370
-1
  6
ByLayer
 10
196.9514843308081993
 20
70.2112634581947646
 30
0.0
 40
4.0
  0
CIRCLE
  5
C8
100
AcDbEntity
100
AcDbCircle
  8
STANDARD
 62
7
370
-1
  6
ByLayer
 10
210.9514843308082277
 20
108.2112634581947646
 30
0.0
 40
4.0
  0
CIRCLE
  5
C9
100
AcDbEntity
100
AcDbCircle
  8
STANDARD
 62
7
370
-1
  6
ByLayer
 10
196.9514843308081993
 20
144.2112634581947646
 30
0.0
 40
4.0
  0
LINE
  5
CA
100
AcDbEntity
100
AcDbLine
  8
STANDARD
 62
7
370
-1
  6
ByLayer
 10
70.9514843308081993
 20
144.2112634581947646
 30
0.0
 11
73.7799043308082219
 21
147.0396834581947587
 31
0.0
  0
LINE
  5
CB
100
AcDbEntity
100
AcDbLine
  8
STANDARD
 62
7
370
-1
  6
ByLayer
 10
196.9514843308081993
 20
70.2112634581947646
 30
0.0
 11
199.7799043308082219
 21
73.0396834581947587
 31
0.0
  0
LINE
  5
CC
100
AcDbEntity
100
AcDbLine
  8
STANDARD
 62
7
370
-1
  6
ByLayer
 10
210.9514843308082277
 20
108.2112634581947646
 30
0.0
 11
213.7799043308081934
 21
111.0396834581947445
 31
0.0
  0
LINE
  5
CD
100
AcDbEntity
100
AcDbLine
  8
STANDARD
 62
7
370
-1
  6
ByLayer
 10
196.9514843308081993
 20
144.2112634581947646
 30
0.0
 11
199.7799043308082219
 21
147.0396834581947587
 31
0.0
  0
LINE
  5
CE
100
AcDbEntity
100
AcDbLine
  8
STANDARD
 62
7
370
-1
  6
ByLayer
 10
70.9514843308081993
 20
144.2112634581947646
 30
0.0
 11
68.1230643308082051
 21
147.0396834581947587
 31
0.0
  0
LINE
  5
CF
100
AcDbEntity
100
AcDbLine
  8
STANDARD
 62
7
370
-1
  6
ByLayer
 10
196.9514843308081993
 20
70.2112634581947646
 30
0.0
 11
194.1230643308082051
 21
73.0396834581947587
 31
0.0
  0
LINE
  5
D0
100
AcDbEntity
100
AcDbLine
  8
STANDARD
 62
7
370
-1
  6
ByLayer
 10
210.9514843308082277
 20
108.2112634581947646
 30
0.0
 11
208.1230643308082051
 21
111.0396834581947445
 31
0.0
  0
LINE
  5
D1
100
AcDbEntity
100
AcDbLine
  8
STANDARD
 62
7
370
-1
  6
ByLayer
 10
196.9514843308081993
 20
144.2112634581947646
 30
0.0
 11
194.1230643308082051
 21
147.0396834581947587
 31
0.0
  0
LINE
  5
D2
100
AcDbEntity
100
AcDbLine
  8
STANDARD
 62
7
370
-1
  6
ByLayer
 10
70.9514843308081993
 20
144.2112634581947646
 30
0.0
 11
68.1230643308082051
 21
141.3828434581947704
 31
0.0
  0
LINE
  5
D3
100
AcDbEntity
100
AcDbLine
  8
STANDARD
 62
7
370
-1
  6
ByLayer
 10
196.9514843308081993
 20
70.2112634581947646
 30
0.0
 11
194.1230643308082051
 21
67.3828434581947704
 31
0.0
  0
LINE
  5
D4
100
AcDbEntity
100
AcDbLine
  8
STANDARD
 62
7
370
-1
  6
ByLayer
 10
210.9514843308082277
 20
108.2112634581947646
 30
0.0
 11
208.1230643308082051
 21
105.382843458194742
 31
0.0
  0
LINE
  5
D5
100
AcDbEntity
100
AcDbLine
  8
STANDARD
 62
7
370
-1
  6
ByLayer
 10
196.9514843308081993
 20
144.2112634581947646
 30
0.0
 11
194.1230643308082051
 21
141.3828434581947704
 31
0.0
  0
LINE
  5
D6
100
AcDbEntity
100
AcDbLine
  8
STANDARD
 62
7
370
-1
  6
ByLayer
 10
70.9514843308081993
 20
144.2112634581947646
 30
0.0
 11
73.7799043308082219
 21
141.3828434581947704
 31
0.0
  0
LINE
  5
D7
100
AcDbEntity
100
AcDbLine
  8
STANDARD
 62
7
370
-1
  6
ByLayer
 10
196.9514843308081993
 20
70.2112634581947646
 30
0.0
 11
199.7799043308082219
 21
67.3828434581947704
 31
0.0
  0
LINE
  5
D8
100
AcDbEntity
100
AcDbLine
  8
STANDARD
 62
7
370
-1
  6
ByLayer
 10
210.9514843308082277
 20
108.2112634581947646
 30
0.0
 11
213.7799043308081934
 21
105.382843458194742
 31
0.0
  0
LINE
  5
D9
100
AcDbEntity
100
AcDbLine
  8
STANDARD
 62
7
370
-1
  6
ByLayer
 10
196.9514843308081993
 20
144.2112634581947646
 30
0.0
 11
199.7799043308082219
 21
141.3828434581947704
 31
0.0
  0
LINE
  5
DA
100
AcDbEntity
100
AcDbLine
  8
STANDARD
 62
7
370
-1
  6
ByLayer
 10
69.9514843308082135
 20
146.6112634581947418
 30
0.0
 11
71.9514843308081993
 21
146.6112634581947418
 31
0.0
  0
LINE
  5
DB
100
AcDbEntity
100
AcDbLine
  8
STANDARD
 62
7
370
-1
  6
ByLayer
 10
195.9514843308082277
 20
72.6112634581947418
 30
0.0
 11
197.9514843308081993
 21
72.6112634581947418
 31
0.0
  0
LINE
  5
DC
100
AcDbEntity
100
AcDbLine
  8
STANDARD
 62
7
370
-1
  6
ByLayer
 10
209.9514843308081993
 20
110.611263458194756
 30
0.0
 11
211.9514843308081993
 21
110.611263458194756
 31
0.0
  0
LINE
  5
DD
100
AcDbEntity
100
AcDbLine
  8
STANDARD
 62
7
370
-1
  6
ByLayer
 10
195.9514843308082277
 20
146.6112634581947418
 30
0.0
 11
197.9514843308081993
 21
146.6112634581947418
 31
0.0
  0
LINE
  5
DE
100
AcDbEntity
100
AcDbLine
  8
STANDARD
 62
7
370
-1
  6
ByLayer
 10
196.9514843308081993
 20
73.6112634581947702
 30
0.0
 11
196.9514843308081993
 21
71.6112634581947702
 31
0.0
  0
LINE
  5
DF
100
AcDbEntity
100
AcDbLine
  8
STANDARD
 62
7
370
-1
  6
ByLayer
 10
210.9514843308082277
 20
111.611263458194756
 30
0.0
 11
210.9514843308082277
 21
109.6112634581947702
 31
0.0
  0
LINE
  5
E0
100
AcDbEntity
100
AcDbLine
  8
STANDARD
 62
7
370
-1
  6
ByLayer
 10
196.9514843308081993
 20
147.6112634581947418
 30
0.0
 11
196.9514843308081993
 21
145.6112634581947418
 31
0.0
  0
LINE
  5
E1
100
AcDbEntity
100
AcDbLine
  8
STANDARD
 62
7
370
-1
  6
ByLayer
 10
193.5514843308081936
 20
70.2112634581947646
 30
0.0
 11
195.5514843308081936
 21
70.2112634581947646
 31
0.0
  0
LINE
  5
E2
100
AcDbEntity
100
AcDbLine
  8
STANDARD
 62
7
370
-1
  6
ByLayer
 10
207.551484330808222
 20
108.2112634581947646
 30
0.0
 11
209.551484330808222
 21
108.2112634581947646
 31
0.0
  0
LINE
  5
E3
100
AcDbEntity
100
AcDbLine
  8
STANDARD
 62
7
370
-1
  6
ByLayer
 10
193.5514843308081936
 20
144.2112634581947646
 30
0.0
 11
195.5514843308081936
 21
144.2112634581947646
 31
0.0
  0
LINE
  5
E4
100
AcDbEntity
100
AcDbLine
  8
STANDARD
 62
7
370
-1
  6
ByLayer
 10
194.551484330808222
 20
71.2112634581947788
 30
0.0
 11
194.551484330808222
 21
69.2112634581947503
 31
0.0
  0
LINE
  5
E5
100
AcDbEntity
100
AcDbLine
  8
STANDARD
 62
7
370
-1
  6
ByLayer
 10
208.5514843308081936
 20
109.2112634581947503
 30
0.0
 11
208.5514843308081936
 21
107.2112634581947503
 31
0.0
  0
LINE
  5
E6
100
AcDbEntity
100
AcDbLine
  8
STANDARD
 62
7
370
-1
  6
ByLayer
 10
194.551484330808222
 20
145.2112634581947646
 30
0.0
 11
194.551484330808222
 21
143.2112634581947646
 31
0.0
  0
LINE
  5
E7
100
AcDbEntity
100
AcDbLine
  8
STANDARD
 62
7
370
-1
  6
ByLayer
 10
70.9514843308081993
 20
142.8112634581947873
 30
0.0
 11
70.9514843308081993
 21
140.8112634581947304
 31
0.0
  0
LINE
  5
E8
100
AcDbEntity
100
AcDbLine
  8
STANDARD
 62
7
370
-1
  6
ByLayer
 10
196.9514843308081993
 20
68.8112634581947589
 30
0.0
 11
196.9514843308081993
 21
66.8112634581947589
 31
0.0
  0
LINE
  5
E9
100
AcDbEntity
100
AcDbLine
  8
STANDARD
 62
7
370
-1
  6
ByLayer
 10
210.9514843308082277
 20
106.8112634581947589
 30
0.0
 11
210.9514843308082277
 21
104.8112634581947731
 31
0.0
  0
LINE
  5
EA
100
AcDbEntity
100
AcDbLine
  8
STANDARD
 62
7
370
-1
  6
ByLayer
 10
196.9514843308081993
 20
142.8112634581947873
 30
0.0
 11
196.9514843308081993
 21
140.8112634581947304
 31
0.0
  0
LINE
  5
EB
100
AcDbEntity
100
AcDbLine
  8
STANDARD
 62
7
370
-1
  6
ByLayer
 10
69.9514843308082135
 20
141.8112634581947589
 30
0.0
 11
71.9514843308081993
 21
141.8112634581947589
 31
0.0
  0
LINE
  5
EC
100
AcDbEntity
100
AcDbLine
  8
STANDARD
 62
7
370
-1
  6
ByLayer
 10
195.9514843308082277
 20
67.8112634581947873
 30
0.0
 11
197.9514843308081993
 21
67.8112634581947873
 31
0.0
  0
LINE
  5
ED
100
AcDbEntity
100
AcDbLine
  8
STANDARD
 62
7
370
-1
  6
ByLayer
 10
209.9514843308081993
 20
105.8112634581947447
 30
0.0
 11
211.9514843308081993
 21
105.8112634581947447
 31
0.0
  0
LINE
  5
EE
100
AcDbEntity
100
AcDbLine
  8
STANDARD
 62
7
370
-1
  6
ByLayer
 10
195.9514843308082277
 20
141.8112634581947589
 30
0.0
 11
197.9514843308081993
 21
141.8112634581947589
 31
0.0
  0
LWPOLYLINE
  5
EF
  8
STANDARD
 62
7
370
-1
  6
ByLayer
100
AcDbEntity
100
AcDbPolyline
 90
7
 70
1
 10
144.9514843308081993
 20
44.2112634581947503
 10
144.9514843308081993
 20
56.2112634581947788
 10
156.9514843308081993
 20
56.2112634581947788
 10
158.9514843308081993
 20
50.2112634581947646
 10
156.9514843308081993
 20
44.2112634581947503
 10
144.9514843308081993
 20
44.2112634581947503
 10
144.9514843308081993
 20
44.2112634581947503
  0
LWPOLYLINE
  5
F0
  8
STANDARD
 62
7
370
-1
  6
ByLayer
100
AcDbEntity
100
AcDbPolyline
 90
7
 70
1
 10
102.9514843308082135
 20
64.2112634581947503
 10
102.9514843308082135
 20
76.2112634581947788
 10
114.9514843308081993
 20
76.2112634581947788
 10
116.9514843308081993
 20
70.2112634581947646
 10
114.9514843308081993
 20
64.2112634581947503
 10
102.9514843308082135
 20
64.2112634581947503
 10
102.9514843308082135
 20
64.2112634581947503
  0
LWPOLYLINE
  5
F1
  8
STANDARD
 62
7
370
-1
  6
ByLayer
100
AcDbEntity
100
AcDbPolyline
 90
7
 70
1
 10
140.9514843308082277
 20
114.2112634581947503
 10
140.9514843308082277
 20
126.2112634581947646
 10
152.9514843308082277
 20
126.2112634581947646
 10
154.9514843308081993
 20
120.2112634581947646
 10
152.9514843308082277
 20
114.2112634581947503
 10
140.9514843308082277
 20
114.2112634581947503
 10
140.9514843308082277
 20
114.2112634581947503
  0
LWPOLYLINE
  5
F2
  8
STANDARD
 62
7
370
-1
  6
ByLayer
100
AcDbEntity
100
AcDbPolyline
 90
7
 70
1
 10
140.9514843308082277
 20
166.211263458194793
 10
140.9514843308082277
 20
178.2112634581947361
 10
152.9514843308082277
 20
178.2112634581947361
 10
154.9514843308081993
 20
172.211263458194793
 10
152.9514843308082277
 20
166.211263458194793
 10
140.9514843308082277
 20
166.211263458194793
 10
140.9514843308082277
 20
166.211263458194793
  0
MTEXT
  5
F3
100
AcDbEntity
100
AcDbMText
  8
STANDARD
 62
7
370
-1
  6
ByLayer
 10
150.9514843308082277
 20
52.2112634581947574
 30
0.0
 40
2.5
 41
2000.0
 71
5
 72
2
  1
d
  7
romand
 50
0.0
 73
0
 44
1.0
  0
MTEXT
  5
F4
100
AcDbEntity
100
AcDbMText
  8
STANDARD
 62
7
370
-1
  6
ByLayer
 10
108.9514843308081993
 20
72.2112634581947646
 30
0.0
 40
2.5
 41
2000.0
 71
5
 72
2
  1
d
  7
romand
 50
0.0
 73
0
 44
1.0
  0
MTEXT
  5
F5
100
AcDbEntity
100
AcDbMText
  8
STANDARD
 62
7
370
-1
  6
ByLayer
 10
146.9514843308081993
 20
122.2112634581947646
 30
0.0
 40
2.5
 41
2000.0
 71
5
 72
2
  1
d
  7
romand
 50
0.0
 73
0
 44
1.0
  0
MTEXT
  5
F6
100
AcDbEntity
100
AcDbMText
  8
STANDARD
 62
7
370
-1
  6
ByLayer
 10
150.9514843308082277
 20
48.2112634581947717
 30
0.0
 40
2.5
 41
2000.0
 71
5
 72
2
  1
dT
  7
romand
 50
0.0
 73
0
 44
1.0
  0
MTEXT
  5
F7
100
AcDbEntity
100
AcDbMText
  8
STANDARD
 62
7
370
-1
  6
ByLayer
 10
108.9514843308081993
 20
68.2112634581947646
 30
0.0
 40
2.5
 41
2000.0
 71
5
 72
2
  1
dT
  7
romand
 50
0.0
 73
0
 44
1.0
  0
MTEXT
  5
F8
100
AcDbEntity
100
AcDbMText
  8
STANDARD
 62
7
370
-1
  6
ByLayer
 10
146.9514843308081993
 20
118.2112634581947646
 30
0.0
 40
2.5
 41
2000.0
 71
5
 72
2
  1
dT
  7
romand
 50
0.0
 73
0
 44
1.0
  0
LINE
  5
F9
100
AcDbEntity
100
AcDbLine
  8
STANDARD
 62
7
370
-1
  6
ByLayer
 10
148.9514843308081993
 20
50.2112634581947646
 30
0.0
 11
152.9514843308082277
 21
50.2112634581947646
 31
0.0
  0
LINE
  5
FA
100
AcDbEntity
100
AcDbLine
  8
STANDARD
 62
7
370
-1
  6
ByLayer
 10
106.9514843308081993
 20
70.2112634581947646
 30
0.0
 11
110.9514843308082277
 21
70.2112634581947646
 31
0.0
  0
LINE
  5
FB
100
AcDbEntity
100
AcDbLine
  8
STANDARD
 62
7
370
-1
  6
ByLayer
 10
144.9514843308081993
 20
120.2112634581947646
 30
0.0
 11
148.9514843308081993
 21
120.2112634581947646
 31
0.0
  0
LWPOLYLINE
  5
FC
  8
STANDARD
 62
7
370
-1
  6
ByLayer
100
AcDbEntity
100
AcDbPolyline
 90
25
 70
0
 10
148.9514843308081993
 20
176.211263458194793
 10
148.7021443308082098
 20
176.2086634581947351
 10
148.4566843308082014
 20
176.1904234581947435
 10
148.2190643308082372
 20
176.1409434581947551
 10
147.9931443308082066
 20
176.0446034581947856
 10
147.7828643308082235
 20
175.885743458194753
 10
147.5921043308081835
 20
175.648763458194793
 10
147.4247843308082224
 20
175.3180434581947509
 10
147.2848243308081919
 20
174.8779234581947435
 10
147.1741443308082182
 20
174.3206434581947804
 10
147.0869043308082098
 20
173.669603458194814
 10
147.0152843308081856
 20
172.956063458194734
 10
146.9514843308081993
 20
172.211263458194793
 10
146.887684330808213
 20
171.4664634581947951
 10
146.8160643308081887
 20
170.7529234581948003
 10
146.7288243308082087
 20
170.1018834581947488
 10
146.6181443308082066
 20
169.5446034581947856
 10
146.4781843308082045
 20
169.1044834581947782
 10
146.3108643308082151
 20
168.773763458194793
 10
146.1201043308082035
 20
168.5367834581947761
 10
145.9098243308081919
 20
168.3779234581947435
 10
145.6839043308082182
 20
168.281583458194774
 10
145.4462843308081972
 20
168.2321034581947856
 10
145.2008243308081887
 20
168.213863458194794
 10
144.9514843308081993
 20
168.2112634581947361
  0
LINE
  5
FD
100
AcDbEntity
100
AcDbLine
  8
STANDARD
 62
7
370
-1
  6
ByLayer
 10
84.9514843308082135
 20
144.2112634581947646
 30
0.0
 11
84.9514843308082135
 21
172.211263458194793
 31
0.0
  0
CIRCLE
  5
FE
100
AcDbEntity
100
AcDbCircle
  8
STANDARD
 62
7
370
-1
  6
ByLayer
 10
84.9514843308082135
 20
144.2112634581947646
 30
0.0
 40
0.4
  0
LINE
  5
FF
100
AcDbEntity
100
AcDbLine
  8
STANDARD
 62
7
370
-1
  6
ByLayer
 10
84.9514843308082135
 20
172.211263458194793
 30
0.0
 11
62.9514843308082206
 21
172.211263458194793
 31
0.0
  0
LWPOLYLINE
  5
100
  8
STANDARD
 62
7
370
-1
  6
ByLayer
100
AcDbEntity
100
AcDbPolyline
 90
4
 70
0
 10
62.9514843308082206
 20
172.211263458194793
 10
64.551484330808222
 20
171.8556634581947549
 10
64.551484330808222
 20
172.5668634581947742
 10
62.9514843308082206
 20
172.211263458194793
  0
LINE
  5
101
100
AcDbEntity
100
AcDbLine
  8
STANDARD
 62
7
370
-1
  6
ByLayer
 10
84.9514843308082135
 20
144.2112634581947646
 30
0.0
 11
98.9514843308082135
 21
144.2112634581947646
 31
0.0
  0
LWPOLYLINE
  5
102
  8
STANDARD
 62
7
370
-1
  6
ByLayer
100
AcDbEntity
100
AcDbPolyline
 90
4
 70
0
 10
98.9514843308082135
 20
144.2112634581947646
 10
97.351484330808205
 20
144.5668634581947458
 10
97.351484330808205
 20
143.8556634581947264
 10
98.9514843308082135
 20
144.2112634581947646
  0
LINE
  5
103
100
AcDbEntity
100
AcDbLine
  8
STANDARD
 62
7
370
-1
  6
ByLayer
 10
70.9514843308081993
 20
140.2112634581947646
 30
0.0
 11
70.9514843308081993
 21
116.2112634581947788
 31
0.0
  0
LWPOLYLINE
  5
104
  8
STANDARD
 62
7
370
-1
  6
ByLayer
100
AcDbEntity
100
AcDbPolyline
 90
4
 70
0
 10
70.9514843308081993
 20
140.2112634581947646
 10
70.5958843308082038
 20
138.6112634581947418
 10
71.307084330808209
 20
138.6112634581947418
 10
70.9514843308081993
 20
140.2112634581947646
  0
LINE
  5
105
100
AcDbEntity
100
AcDbLine
  8
STANDARD
 62
7
370
-1
  6
ByLayer
 10
100.9514843308081993
 20
132.2112634581947646
 30
0.0
 11
104.9514843308081993
 21
132.2112634581947646
 31
0.0
  0
LINE
  5
106
100
AcDbEntity
100
AcDbLine
  8
STANDARD
 62
7
370
-1
  6
ByLayer
 10
166.9514843308081993
 20
38.2112634581947717
 30
0.0
 11
170.9514843308082277
 21
38.2112634581947717
 31
0.0
  0
LINE
  5
107
100
AcDbEntity
100
AcDbLine
  8
STANDARD
 62
7
370
-1
  6
ByLayer
 10
124.9514843308081993
 20
82.2112634581947646
 30
0.0
 11
128.9514843308081993
 21
82.2112634581947646
 31
0.0
  0
LINE
  5
108
100
AcDbEntity
100
AcDbLine
  8
STANDARD
 62
7
370
-1
  6
ByLayer
 10
162.9514843308082277
 20
108.2112634581947646
 30
0.0
 11
166.9514843308081993
 21
108.2112634581947646
 31
0.0
  0
LINE
  5
109
100
AcDbEntity
100
AcDbLine
  8
STANDARD
 62
7
370
-1
  6
ByLayer
 10
180.9514843308082277
 20
152.2112634581947646
 30
0.0
 11
184.9514843308081993
 21
152.2112634581947646
 31
0.0
  0
LINE
  5
10A
100
AcDbEntity
100
AcDbLine
  8
STANDARD
 62
7
370
-1
  6
ByLayer
 10
180.9514843308082277
 20
62.2112634581947646
 30
0.0
 11
184.9514843308081993
 21
62.2112634581947646
 31
0.0
  0
LINE
  5
10B
100
AcDbEntity
100
AcDbLine
  8
STANDARD
 62
7
370
-1
  6
ByLayer
 10
180.9514843308082277
 20
96.2112634581947788
 30
0.0
 11
184.9514843308081993
 21
96.2112634581947788
 31
0.0
  0
LINE
  5
10C
100
AcDbEntity
100
AcDbLine
  8
STANDARD
 62
7
370
-1
  6
ByLayer
 10
180.9514843308082277
 20
78.2112634581947646
 30
0.0
 11
184.9514843308081993
 21
78.2112634581947646
 31
0.0
  0
LINE
  5
10D
100
AcDbEntity
100
AcDbLine
  8
STANDARD
 62
7
370
-1
  6
ByLayer
 10
180.9514843308082277
 20
132.2112634581947646
 30
0.0
 11
184.9514843308081993
 21
132.2112634581947646
 31
0.0
  0
LINE
  5
10E
100
AcDbEntity
100
AcDbLine
  8
STANDARD
 62
7
370
-1
  6
ByLayer
 10
180.9514843308082277
 20
184.2112634581947646
 30
0.0
 11
184.9514843308081993
 21
184.2112634581947646
 31
0.0
  0
LINE
  5
10F
100
AcDbEntity
100
AcDbLine
  8
STANDARD
 62
7
370
-1
  6
ByLayer
 10
162.9514843308082277
 20
160.2112634581947646
 30
0.0
 11
166.9514843308081993
 21
160.2112634581947646
 31
0.0
  0
LINE
  5
110
100
AcDbEntity
100
AcDbLine
  8
STANDARD
 62
7
370
-1
  6
ByLayer
 10
226.9514843308081993
 20
62.2112634581947646
 30
0.0
 11
230.9514843308082277
 21
62.2112634581947646
 31
0.0
  0
LINE
  5
111
100
AcDbEntity
100
AcDbLine
  8
STANDARD
 62
7
370
-1
  6
ByLayer
 10
118.9514843308081993
 20
156.211263458194793
 30
0.0
 11
122.9514843308082135
 21
156.211263458194793
 31
0.0
  0
LINE
  5
112
100
AcDbEntity
100
AcDbLine
  8
STANDARD
 62
7
370
-1
  6
ByLayer
 10
104.9514843308081993
 20
132.2112634581947646
 30
0.0
 11
104.9514843308081993
 21
138.2112634581947646
 31
0.0
  0
LWPOLYLINE
  5
113
  8
STANDARD
 62
7
370
-1
  6
ByLayer
100
AcDbEntity
100
AcDbPolyline
 90
4
 70
0
 10
104.9514843308081993
 20
138.2112634581947646
 10
104.5958843308082038
 20
136.6112634581947418
 10
105.307084330808209
 20
136.6112634581947418
 10
104.9514843308081993
 20
138.2112634581947646
  0
LINE
  5
114
100
AcDbEntity
100
AcDbLine
  8
STANDARD
 62
7
370
-1
  6
ByLayer
 10
170.9514843308082277
 20
38.2112634581947717
 30
0.0
 11
170.9514843308082277
 21
44.2112634581947503
 31
0.0
  0
LWPOLYLINE
  5
115
  8
STANDARD
 62
7
370
-1
  6
ByLayer
100
AcDbEntity
100
AcDbPolyline
 90
4
 70
0
 10
170.9514843308082277
 20
44.2112634581947503
 10
170.595884330808218
 20
42.6112634581947489
 10
171.3070843308082374
 20
42.6112634581947489
 10
170.9514843308082277
 20
44.2112634581947503
  0
LINE
  5
116
100
AcDbEntity
100
AcDbLine
  8
STANDARD
 62
7
370
-1
  6
ByLayer
 10
128.9514843308081993
 20
82.2112634581947646
 30
0.0
 11
128.9514843308081993
 21
76.2112634581947788
 31
0.0
  0
LWPOLYLINE
  5
117
  8
STANDARD
 62
7
370
-1
  6
ByLayer
100
AcDbEntity
100
AcDbPolyline
 90
4
 70
0
 10
128.9514843308081993
 20
76.2112634581947788
 10
129.307084330808209
 20
77.8112634581947873
 10
128.5958843308081896
 20
77.8112634581947873
 10
128.9514843308081993
 20
76.2112634581947788
  0
LINE
  5
118
100
AcDbEntity
100
AcDbLine
  8
STANDARD
 62
7
370
-1
  6
ByLayer
 10
166.9514843308081993
 20
108.2112634581947646
 30
0.0
 11
166.9514843308081993
 21
114.2112634581947503
 31
0.0
  0
LWPOLYLINE
  5
119
  8
STANDARD
 62
7
370
-1
  6
ByLayer
100
AcDbEntity
100
AcDbPolyline
 90
4
 70
0
 10
166.9514843308081993
 20
114.2112634581947503
 10
166.5958843308081896
 20
112.6112634581947418
 10
167.307084330808209
 20
112.6112634581947418
 10
166.9514843308081993
 20
114.2112634581947503
  0
LINE
  5
11A
100
AcDbEntity
100
AcDbLine
  8
STANDARD
 62
7
370
-1
  6
ByLayer
 10
184.9514843308081993
 20
152.2112634581947646
 30
0.0
 11
184.9514843308081993
 21
147.2112634581947646
 31
0.0
  0
LWPOLYLINE
  5
11B
  8
STANDARD
 62
7
370
-1
  6
ByLayer
100
AcDbEntity
100
AcDbPolyline
 90
4
 70
0
 10
184.9514843308081993
 20
147.2112634581947646
 10
185.307084330808209
 20
148.8112634581947304
 10
184.595884330808218
 20
148.8112634581947304
 10
184.9514843308081993
 20
147.2112634581947646
  0
LINE
  5
11C
100
AcDbEntity
100
AcDbLine
  8
STANDARD
 62
7
370
-1
  6
ByLayer
 10
184.9514843308081993
 20
62.2112634581947646
 30
0.0
 11
184.9514843308081993
 21
53.2112634581947717
 31
0.0
  0
LWPOLYLINE
  5
11D
  8
STANDARD
 62
7
370
-1
  6
ByLayer
100
AcDbEntity
100
AcDbPolyline
 90
4
 70
0
 10
184.9514843308081993
 20
53.2112634581947717
 10
185.307084330808209
 20
54.8112634581947731
 10
184.595884330808218
 20
54.8112634581947731
 10
184.9514843308081993
 20
53.2112634581947717
  0
LINE
  5
11E
100
AcDbEntity
100
AcDbLine
  8
STANDARD
 62
7
370
-1
  6
ByLayer
 10
184.9514843308081993
 20
96.2112634581947788
 30
0.0
 11
184.9514843308081993
 21
91.2112634581947788
 31
0.0
  0
LWPOLYLINE
  5
11F
  8
STANDARD
 62
7
370
-1
  6
ByLayer
100
AcDbEntity
100
AcDbPolyline
 90
4
 70
0
 10
184.9514843308081993
 20
91.2112634581947788
 10
185.307084330808209
 20
92.8112634581947731
 10
184.595884330808218
 20
92.8112634581947731
 10
184.9514843308081993
 20
91.2112634581947788
  0
LINE
  5
120
100
AcDbEntity
100
AcDbLine
  8
STANDARD
 62
7
370
-1
  6
ByLayer
 10
184.9514843308081993
 20
78.2112634581947646
 30
0.0
 11
184.9514843308081993
 21
73.2112634581947646
 31
0.0
  0
LWPOLYLINE
  5
121
  8
STANDARD
 62
7
370
-1
  6
ByLayer
100
AcDbEntity
100
AcDbPolyline
 90
4
 70
0
 10
184.9514843308081993
 20
73.2112634581947646
 10
185.307084330808209
 20
74.8112634581947731
 10
184.595884330808218
 20
74.8112634581947731
 10
184.9514843308081993
 20
73.2112634581947646
  0
LINE
  5
122
100
AcDbEntity
100
AcDbLine
  8
STANDARD
 62
7
370
-1
  6
ByLayer
 10
184.9514843308081993
 20
132.2112634581947646
 30
0.0
 11
184.9514843308081993
 21
123.2112634581947646
 31
0.0
  0
LWPOLYLINE
  5
123
  8
STANDARD
 62
7
370
-1
  6
ByLayer
100
AcDbEntity
100
AcDbPolyline
 90
4
 70
0
 10
184.9514843308081993
 20
123.2112634581947646
 10
185.307084330808209
 20
124.8112634581947873
 10
184.595884330808218
 20
124.8112634581947873
 10
184.9514843308081993
 20
123.2112634581947646
  0
LINE
  5
124
100
AcDbEntity
100
AcDbLine
  8
STANDARD
 62
7
370
-1
  6
ByLayer
 10
184.9514843308081993
 20
184.2112634581947646
 30
0.0
 11
184.9514843308081993
 21
175.2112634581947646
 31
0.0
  0
LWPOLYLINE
  5
125
  8
STANDARD
 62
7
370
-1
  6
ByLayer
100
AcDbEntity
100
AcDbPolyline
 90
4
 70
0
 10
184.9514843308081993
 20
175.2112634581947646
 10
185.307084330808209
 20
176.8112634581947304
 10
184.595884330808218
 20
176.8112634581947304
 10
184.9514843308081993
 20
175.2112634581947646
  0
LINE
  5
126
100
AcDbEntity
100
AcDbLine
  8
STANDARD
 62
7
370
-1
  6
ByLayer
 10
166.9514843308081993
 20
160.2112634581947646
 30
0.0
 11
166.9514843308081993
 21
166.211263458194793
 31
0.0
  0
LWPOLYLINE
  5
127
  8
STANDARD
 62
7
370
-1
  6
ByLayer
100
AcDbEntity
100
AcDbPolyline
 90
4
 70
0
 10
166.9514843308081993
 20
166.211263458194793
 10
166.5958843308081896
 20
164.6112634581947418
 10
167.307084330808209
 20
164.6112634581947418
 10
166.9514843308081993
 20
166.211263458194793
  0
LINE
  5
128
100
AcDbEntity
100
AcDbLine
  8
STANDARD
 62
7
370
-1
  6
ByLayer
 10
230.9514843308082277
 20
62.2112634581947646
 30
0.0
 11
230.9514843308082277
 21
102.2112634581947503
 31
0.0
  0
LWPOLYLINE
  5
129
  8
STANDARD
 62
7
370
-1
  6
ByLayer
100
AcDbEntity
100
AcDbPolyline
 90
4
 70
0
 10
230.9514843308082277
 20
102.2112634581947503
 10
230.595884330808218
 20
100.611263458194756
 10
231.3070843308082374
 20
100.611263458194756
 10
230.9514843308082277
 20
102.2112634581947503
  0
LINE
  5
12A
100
AcDbEntity
100
AcDbLine
  8
STANDARD
 62
7
370
-1
  6
ByLayer
 10
122.9514843308082135
 20
156.211263458194793
 30
0.0
 11
122.9514843308082135
 21
150.2112634581947646
 31
0.0
  0
LWPOLYLINE
  5
12B
  8
STANDARD
 62
7
370
-1
  6
ByLayer
100
AcDbEntity
100
AcDbPolyline
 90
4
 70
0
 10
122.9514843308082135
 20
150.2112634581947646
 10
123.307084330808209
 20
151.8112634581947589
 10
122.595884330808218
 20
151.8112634581947589
 10
122.9514843308082135
 20
150.2112634581947646
  0
LINE
  5
12C
100
AcDbEntity
100
AcDbLine
  8
STANDARD
 62
7
370
-1
  6
ByLayer
 10
158.9514843308081993
 20
50.2112634581947646
 30
0.0
 11
164.9514843308081993
 21
50.2112634581947646
 31
0.0
  0
LWPOLYLINE
  5
12D
  8
STANDARD
 62
7
370
-1
  6
ByLayer
100
AcDbEntity
100
AcDbPolyline
 90
4
 70
0
 10
164.9514843308081993
 20
50.2112634581947646
 10
163.351484330808205
 20
50.5668634581947671
 10
163.351484330808205
 20
49.855663458194762
 10
164.9514843308081993
 20
50.2112634581947646
  0
LINE
  5
12E
100
AcDbEntity
100
AcDbLine
  8
STANDARD
 62
7
370
-1
  6
ByLayer
 10
116.9514843308081993
 20
70.2112634581947646
 30
0.0
 11
122.9514843308082135
 21
70.2112634581947646
 31
0.0
  0
LWPOLYLINE
  5
12F
  8
STANDARD
 62
7
370
-1
  6
ByLayer
100
AcDbEntity
100
AcDbPolyline
 90
4
 70
0
 10
122.9514843308082135
 20
70.2112634581947646
 10
121.351484330808205
 20
70.5668634581947742
 10
121.351484330808205
 20
69.8556634581947549
 10
122.9514843308082135
 20
70.2112634581947646
  0
LINE
  5
130
100
AcDbEntity
100
AcDbLine
  8
STANDARD
 62
7
370
-1
  6
ByLayer
 10
154.9514843308081993
 20
120.2112634581947646
 30
0.0
 11
160.9514843308082277
 21
120.2112634581947646
 31
0.0
  0
LWPOLYLINE
  5
131
  8
STANDARD
 62
7
370
-1
  6
ByLayer
100
AcDbEntity
100
AcDbPolyline
 90
4
 70
0
 10
160.9514843308082277
 20
120.2112634581947646
 10
159.351484330808205
 20
120.5668634581947458
 10
159.351484330808205
 20
119.8556634581947549
 10
160.9514843308082277
 20
120.2112634581947646
  0
LINE
  5
132
100
AcDbEntity
100
AcDbLine
  8
STANDARD
 62
7
370
-1
  6
ByLayer
 10
154.9514843308081993
 20
172.211263458194793
 30
0.0
 11
160.9514843308082277
 21
172.211263458194793
 31
0.0
  0
LWPOLYLINE
  5
133
  8
STANDARD
 62
7
370
-1
  6
ByLayer
100
AcDbEntity
100
AcDbPolyline
 90
4
 70
0
 10
160.9514843308082277
 20
172.211263458194793
 10
159.351484330808205
 20
172.5668634581947742
 10
159.351484330808205
 20
171.8556634581947549
 10
160.9514843308082277
 20
172.211263458194793
  0
LINE
  5
134
100
AcDbEntity
100
AcDbLine
  8
STANDARD
 62
7
370
-1
  6
ByLayer
 10
214.9514843308081993
 20
108.2112634581947646
 30
0.0
 11
224.9514843308081993
 21
108.2112634581947646
 31
0.0
  0
LWPOLYLINE
  5
135
  8
STANDARD
 62
7
370
-1
  6
ByLayer
100
AcDbEntity
100
AcDbPolyline
 90
4
 70
0
 10
224.9514843308081993
 20
108.2112634581947646
 10
223.351484330808205
 20
108.56686345819476
 10
223.351484330808205
 20
107.8556634581947691
 10
224.9514843308081993
 20
108.2112634581947646
  0
LINE
  5
136
100
AcDbEntity
100
AcDbLine
  8
STANDARD
 62
7
370
-1
  6
ByLayer
 10
110.9514843308082277
 20
144.2112634581947646
 30
0.0
 11
116.9514843308081993
 21
144.2112634581947646
 31
0.0
  0
LWPOLYLINE
  5
137
  8
STANDARD
 62
7
370
-1
  6
ByLayer
100
AcDbEntity
100
AcDbPolyline
 90
4
 70
0
 10
116.9514843308081993
 20
144.2112634581947646
 10
115.351484330808205
 20
144.5668634581947458
 10
115.351484330808205
 20
143.8556634581947264
 10
116.9514843308081993
 20
144.2112634581947646
  0
LINE
  5
138
100
AcDbEntity
100
AcDbLine
  8
STANDARD
 62
7
370
-1
  6
ByLayer
 10
134.9514843308081993
 20
172.211263458194793
 30
0.0
 11
134.9514843308081993
 21
120.2112634581947646
 31
0.0
  0
LINE
  5
139
100
AcDbEntity
100
AcDbLine
  8
STANDARD
 62
7
370
-1
  6
ByLayer
 10
128.9514843308081993
 20
144.2112634581947646
 30
0.0
 11
134.9514843308081993
 21
144.2112634581947646
 31
0.0
  0
LWPOLYLINE
  5
13A
  8
STANDARD
 62
7
370
-1
  6
ByLayer
100
AcDbEntity
100
AcDbPolyline
 90
4
 70
0
 10
134.9514843308081993
 20
144.2112634581947646
 10
133.351484330808205
 20
144.5668634581947458
 10
133.351484330808205
 20
143.8556634581947264
 10
134.9514843308081993
 20
144.2112634581947646
  0
LINE
  5
13B
100
AcDbEntity
100
AcDbLine
  8
STANDARD
 62
7
370
-1
  6
ByLayer
 10
140.9514843308082277
 20
172.211263458194793
 30
0.0
 11
134.9514843308081993
 21
172.211263458194793
 31
0.0
  0
LWPOLYLINE
  5
13C
  8
STANDARD
 62
7
370
-1
  6
ByLayer
100
AcDbEntity
100
AcDbPolyline
 90
4
 70
0
 10
140.9514843308082277
 20
172.211263458194793
 10
139.351484330808205
 20
172.5668634581947742
 10
139.351484330808205
 20
171.8556634581947549
 10
140.9514843308082277
 20
172.211263458194793
  0
LINE
  5
13D
100
AcDbEntity
100
AcDbLine
  8
STANDARD
 62
7
370
-1
  6
ByLayer
 10
138.9514843308081993
 20
50.2112634581947646
 30
0.0
 11
144.9514843308081993
 21
50.2112634581947646
 31
0.0
  0
LWPOLYLINE
  5
13E
  8
STANDARD
 62
7
370
-1
  6
ByLayer
100
AcDbEntity
100
AcDbPolyline
 90
4
 70
0
 10
144.9514843308081993
 20
50.2112634581947646
 10
143.351484330808205
 20
50.5668634581947671
 10
143.351484330808205
 20
49.855663458194762
 10
144.9514843308081993
 20
50.2112634581947646
  0
LINE
  5
13F
100
AcDbEntity
100
AcDbLine
  8
STANDARD
 62
7
370
-1
  6
ByLayer
 10
70.9514843308081993
 20
70.2112634581947646
 30
0.0
 11
102.9514843308082135
 21
70.2112634581947646
 31
0.0
  0
LWPOLYLINE
  5
140
  8
STANDARD
 62
7
370
-1
  6
ByLayer
100
AcDbEntity
100
AcDbPolyline
 90
4
 70
0
 10
102.9514843308082135
 20
70.2112634581947646
 10
101.3514843308082192
 20
70.5668634581947742
 10
101.3514843308082192
 20
69.8556634581947549
 10
102.9514843308082135
 20
70.2112634581947646
  0
LINE
  5
141
100
AcDbEntity
100
AcDbLine
  8
STANDARD
 62
7
370
-1
  6
ByLayer
 10
134.9514843308081993
 20
120.2112634581947646
 30
0.0
 11
140.9514843308082277
 21
120.2112634581947646
 31
0.0
  0
LWPOLYLINE
  5
142
  8
STANDARD
 62
7
370
-1
  6
ByLayer
100
AcDbEntity
100
AcDbPolyline
 90
4
 70
0
 10
140.9514843308082277
 20
120.2112634581947646
 10
139.351484330808205
 20
120.5668634581947458
 10
139.351484330808205
 20
119.8556634581947549
 10
140.9514843308082277
 20
120.2112634581947646
  0
LINE
  5
143
100
AcDbEntity
100
AcDbLine
  8
STANDARD
 62
7
370
-1
  6
ByLayer
 10
184.9514843308081993
 20
144.2112634581947646
 30
0.0
 11
183.9514843308081993
 21
145.2112634581947646
 31
0.0
  0
LINE
  5
144
100
AcDbEntity
100
AcDbLine
  8
STANDARD
 62
7
370
-1
  6
ByLayer
 10
184.9514843308081993
 20
50.2112634581947646
 30
0.0
 11
183.9514843308081993
 21
51.2112634581947788
 31
0.0
  0
LINE
  5
145
100
AcDbEntity
100
AcDbLine
  8
STANDARD
 62
7
370
-1
  6
ByLayer
 10
184.9514843308081993
 20
88.2112634581947646
 30
0.0
 11
183.9514843308081993
 21
89.2112634581947503
 31
0.0
  0
LINE
  5
146
100
AcDbEntity
100
AcDbLine
  8
STANDARD
 62
7
370
-1
  6
ByLayer
 10
184.9514843308081993
 20
70.2112634581947646
 30
0.0
 11
183.9514843308081993
 21
71.2112634581947788
 31
0.0
  0
LINE
  5
147
100
AcDbEntity
100
AcDbLine
  8
STANDARD
 62
7
370
-1
  6
ByLayer
 10
184.9514843308081993
 20
120.2112634581947646
 30
0.0
 11
183.9514843308081993
 21
121.2112634581947646
 31
0.0
  0
LINE
  5
148
100
AcDbEntity
100
AcDbLine
  8
STANDARD
 62
7
370
-1
  6
ByLayer
 10
184.9514843308081993
 20
172.211263458194793
 30
0.0
 11
183.9514843308081993
 21
173.2112634581947361
 31
0.0
  0
LINE
  5
149
100
AcDbEntity
100
AcDbLine
  8
STANDARD
 62
7
370
-1
  6
ByLayer
 10
184.9514843308081993
 20
144.2112634581947646
 30
0.0
 11
183.9514843308081993
 21
143.2112634581947646
 31
0.0
  0
LINE
  5
14A
100
AcDbEntity
100
AcDbLine
  8
STANDARD
 62
7
370
-1
  6
ByLayer
 10
184.9514843308081993
 20
50.2112634581947646
 30
0.0
 11
183.9514843308081993
 21
49.2112634581947503
 31
0.0
  0
LINE
  5
14B
100
AcDbEntity
100
AcDbLine
  8
STANDARD
 62
7
370
-1
  6
ByLayer
 10
184.9514843308081993
 20
88.2112634581947646
 30
0.0
 11
183.9514843308081993
 21
87.2112634581947503
 31
0.0
  0
LINE
  5
14C
100
AcDbEntity
100
AcDbLine
  8
STANDARD
 62
7
370
-1
  6
ByLayer
 10
184.9514843308081993
 20
70.2112634581947646
 30
0.0
 11
183.9514843308081993
 21
69.2112634581947503
 31
0.0
  0
LINE
  5
14D
100
AcDbEntity
100
AcDbLine
  8
STANDARD
 62
7
370
-1
  6
ByLayer
 10
184.9514843308081993
 20
120.2112634581947646
 30
0.0
 11
183.9514843308081993
 21
119.2112634581947503
 31
0.0
  0
LINE
  5
14E
100
AcDbEntity
100
AcDbLine
  8
STANDARD
 62
7
370
-1
  6
ByLayer
 10
184.9514843308081993
 20
172.211263458194793
 30
0.0
 11
183.9514843308081993
 21
171.211263458194793
 31
0.0
  0
LINE
  5
14F
100
AcDbEntity
100
AcDbLine
  8
STANDARD
 62
7
370
-1
  6
ByLayer
 10
184.9514843308081993
 20
144.2112634581947646
 30
0.0
 11
185.9514843308082277
 21
143.2112634581947646
 31
0.0
  0
LINE
  5
150
100
AcDbEntity
100
AcDbLine
  8
STANDARD
 62
7
370
-1
  6
ByLayer
 10
184.9514843308081993
 20
50.2112634581947646
 30
0.0
 11
185.9514843308082277
 21
49.2112634581947503
 31
0.0
  0
LINE
  5
151
100
AcDbEntity
100
AcDbLine
  8
STANDARD
 62
7
370
-1
  6
ByLayer
 10
184.9514843308081993
 20
88.2112634581947646
 30
0.0
 11
185.9514843308082277
 21
87.2112634581947503
 31
0.0
  0
LINE
  5
152
100
AcDbEntity
100
AcDbLine
  8
STANDARD
 62
7
370
-1
  6
ByLayer
 10
184.9514843308081993
 20
70.2112634581947646
 30
0.0
 11
185.9514843308082277
 21
69.2112634581947503
 31
0.0
  0
LINE
  5
153
100
AcDbEntity
100
AcDbLine
  8
STANDARD
 62
7
370
-1
  6
ByLayer
 10
184.9514843308081993
 20
120.2112634581947646
 30
0.0
 11
185.9514843308082277
 21
119.2112634581947503
 31
0.0
  0
LINE
  5
154
100
AcDbEntity
100
AcDbLine
  8
STANDARD
 62
7
370
-1
  6
ByLayer
 10
184.9514843308081993
 20
172.211263458194793
 30
0.0
 11
185.9514843308082277
 21
171.211263458194793
 31
0.0
  0
LINE
  5
155
100
AcDbEntity
100
AcDbLine
  8
STANDARD
 62
7
370
-1
  6
ByLayer
 10
184.9514843308081993
 20
144.2112634581947646
 30
0.0
 11
185.9514843308082277
 21
145.2112634581947646
 31
0.0
  0
LINE
  5
156
100
AcDbEntity
100
AcDbLine
  8
STANDARD
 62
7
370
-1
  6
ByLayer
 10
184.9514843308081993
 20
50.2112634581947646
 30
0.0
 11
185.9514843308082277
 21
51.2112634581947788
 31
0.0
  0
LINE
  5
157
100
AcDbEntity
100
AcDbLine
  8
STANDARD
 62
7
370
-1
  6
ByLayer
 10
184.9514843308081993
 20
88.2112634581947646
 30
0.0
 11
185.9514843308082277
 21
89.2112634581947503
 31
0.0
  0
LINE
  5
158
100
AcDbEntity
100
AcDbLine
  8
STANDARD
 62
7
370
-1
  6
ByLayer
 10
184.9514843308081993
 20
70.2112634581947646
 30
0.0
 11
185.9514843308082277
 21
71.2112634581947788
 31
0.0
  0
LINE
  5
159
100
AcDbEntity
100
AcDbLine
  8
STANDARD
 62
7
370
-1
  6
ByLayer
 10
184.9514843308081993
 20
120.2112634581947646
 30
0.0
 11
185.9514843308082277
 21
121.2112634581947646
 31
0.0
  0
LINE
  5
15A
100
AcDbEntity
100
AcDbLine
  8
STANDARD
 62
7
370
-1
  6
ByLayer
 10
184.9514843308081993
 20
172.211263458194793
 30
0.0
 11
185.9514843308082277
 21
173.2112634581947361
 31
0.0
  0
CIRCLE
  5
15B
100
AcDbEntity
100
AcDbCircle
  8
STANDARD
 62
7
370
-1
  6
ByLayer
 10
184.9514843308081993
 20
144.2112634581947646
 30
0.0
 40
3.0
  0
CIRCLE
  5
15C
100
AcDbEntity
100
AcDbCircle
  8
STANDARD
 62
7
370
-1
  6
ByLayer
 10
184.9514843308081993
 20
50.2112634581947646
 30
0.0
 40
3.0
  0
CIRCLE
  5
15D
100
AcDbEntity
100
AcDbCircle
  8
STANDARD
 62
7
370
-1
  6
ByLayer
 10
184.9514843308081993
 20
88.2112634581947646
 30
0.0
 40
3.0
  0
CIRCLE
  5
15E
100
AcDbEntity
100
AcDbCircle
  8
STANDARD
 62
7
370
-1
  6
ByLayer
 10
184.9514843308081993
 20
70.2112634581947646
 30
0.0
 40
3.0
  0
CIRCLE
  5
15F
100
AcDbEntity
100
AcDbCircle
  8
STANDARD
 62
7
370
-1
  6
ByLayer
 10
184.9514843308081993
 20
120.2112634581947646
 30
0.0
 40
3.0
  0
CIRCLE
  5
160
100
AcDbEntity
100
AcDbCircle
  8
STANDARD
 62
7
370
-1
  6
ByLayer
 10
184.9514843308081993
 20
172.211263458194793
 30
0.0
 40
3.0
  0
LINE
  5
161
100
AcDbEntity
100
AcDbLine
  8
STANDARD
 62
7
370
-1
  6
ByLayer
 10
187.9514843308081993
 20
172.211263458194793
 30
0.0
 11
196.9514843308081993
 21
172.211263458194793
 31
0.0
  0
LINE
  5
162
100
AcDbEntity
100
AcDbLine
  8
STANDARD
 62
7
370
-1
  6
ByLayer
 10
196.9514843308081993
 20
88.2112634581947646
 30
0.0
 11
187.9514843308081993
 21
88.2112634581947646
 31
0.0
  0
LINE
  5
163
100
AcDbEntity
100
AcDbLine
  8
STANDARD
 62
7
370
-1
  6
ByLayer
 10
196.9514843308081993
 20
50.2112634581947646
 30
0.0
 11
187.9514843308081993
 21
50.2112634581947646
 31
0.0
  0
LINE
  5
164
100
AcDbEntity
100
AcDbLine
  8
STANDARD
 62
7
370
-1
  6
ByLayer
 10
196.9514843308081993
 20
120.2112634581947646
 30
0.0
 11
187.9514843308081993
 21
120.2112634581947646
 31
0.0
  0
LINE
  5
165
100
AcDbEntity
100
AcDbLine
  8
STANDARD
 62
7
370
-1
  6
ByLayer
 10
181.9514843308081993
 20
144.2112634581947646
 30
0.0
 11
134.9514843308081993
 21
144.2112634581947646
 31
0.0
  0
LWPOLYLINE
  5
166
  8
STANDARD
 62
7
370
-1
  6
ByLayer
100
AcDbEntity
100
AcDbPolyline
 90
4
 70
0
 10
181.9514843308081993
 20
144.2112634581947646
 10
180.351484330808205
 20
144.5668634581947458
 10
180.351484330808205
 20
143.8556634581947264
 10
181.9514843308081993
 20
144.2112634581947646
  0
LINE
  5
167
100
AcDbEntity
100
AcDbLine
  8
STANDARD
 62
7
370
-1
  6
ByLayer
 10
187.9514843308081993
 20
70.2112634581947646
 30
0.0
 11
192.9514843308081993
 21
70.2112634581947646
 31
0.0
  0
LWPOLYLINE
  5
168
  8
STANDARD
 62
7
370
-1
  6
ByLayer
100
AcDbEntity
100
AcDbPolyline
 90
4
 70
0
 10
192.9514843308081993
 20
70.2112634581947646
 10
191.351484330808205
 20
70.5668634581947742
 10
191.351484330808205
 20
69.8556634581947549
 10
192.9514843308081993
 20
70.2112634581947646
  0
LINE
  5
169
100
AcDbEntity
100
AcDbLine
  8
STANDARD
 62
7
370
-1
  6
ByLayer
 10
198.9514843308081993
 20
108.2112634581947646
 30
0.0
 11
206.9514843308081993
 21
108.2112634581947646
 31
0.0
  0
LWPOLYLINE
  5
16A
  8
STANDARD
 62
7
370
-1
  6
ByLayer
100
AcDbEntity
100
AcDbPolyline
 90
4
 70
0
 10
206.9514843308081993
 20
108.2112634581947646
 10
205.351484330808205
 20
108.56686345819476
 10
205.351484330808205
 20
107.8556634581947691
 10
206.9514843308081993
 20
108.2112634581947646
  0
LINE
  5
16B
100
AcDbEntity
100
AcDbLine
  8
STANDARD
 62
7
370
-1
  6
ByLayer
 10
187.9514843308081993
 20
144.2112634581947646
 30
0.0
 11
192.9514843308081993
 21
144.2112634581947646
 31
0.0
  0
LWPOLYLINE
  5
16C
  8
STANDARD
 62
7
370
-1
  6
ByLayer
100
AcDbEntity
100
AcDbPolyline
 90
4
 70
0
 10
192.9514843308081993
 20
144.2112634581947646
 10
191.351484330808205
 20
144.5668634581947458
 10
191.351484330808205
 20
143.8556634581947264
 10
192.9514843308081993
 20
144.2112634581947646
  0
LINE
  5
16D
100
AcDbEntity
100
AcDbLine
  8
STANDARD
 62
7
370
-1
  6
ByLayer
 10
196.9514843308081993
 20
88.2112634581947646
 30
0.0
 11
196.9514843308081993
 21
74.2112634581947503
 31
0.0
  0
LWPOLYLINE
  5
16E
  8
STANDARD
 62
7
370
-1
  6
ByLayer
100
AcDbEntity
100
AcDbPolyline
 90
4
 70
0
 10
196.9514843308081993
 20
74.2112634581947503
 10
197.307084330808209
 20
75.8112634581947589
 10
196.5958843308081896
 20
75.8112634581947589
 10
196.9514843308081993
 20
74.2112634581947503
  0
LINE
  5
16F
100
AcDbEntity
100
AcDbLine
  8
STANDARD
 62
7
370
-1
  6
ByLayer
 10
210.9514843308082277
 20
144.2112634581947646
 30
0.0
 11
210.9514843308082277
 21
112.2112634581947503
 31
0.0
  0
LWPOLYLINE
  5
170
  8
STANDARD
 62
7
370
-1
  6
ByLayer
100
AcDbEntity
100
AcDbPolyline
 90
4
 70
0
 10
210.9514843308082277
 20
112.2112634581947503
 10
211.3070843308082374
 20
113.8112634581947447
 10
210.595884330808218
 20
113.8112634581947447
 10
210.9514843308082277
 20
112.2112634581947503
  0
LINE
  5
171
100
AcDbEntity
100
AcDbLine
  8
STANDARD
 62
7
370
-1
  6
ByLayer
 10
196.9514843308081993
 20
172.211263458194793
 30
0.0
 11
196.9514843308081993
 21
148.2112634581947646
 31
0.0
  0
LWPOLYLINE
  5
172
  8
STANDARD
 62
7
370
-1
  6
ByLayer
100
AcDbEntity
100
AcDbPolyline
 90
4
 70
0
 10
196.9514843308081993
 20
148.2112634581947646
 10
197.307084330808209
 20
149.8112634581947873
 10
196.5958843308081896
 20
149.8112634581947873
 10
196.9514843308081993
 20
148.2112634581947646
  0
LINE
  5
173
100
AcDbEntity
100
AcDbLine
  8
STANDARD
 62
7
370
-1
  6
ByLayer
 10
181.9514843308081993
 20
172.211263458194793
 30
0.0
 11
172.9514843308081993
 21
172.211263458194793
 31
0.0
  0
LWPOLYLINE
  5
174
  8
STANDARD
 62
7
370
-1
  6
ByLayer
100
AcDbEntity
100
AcDbPolyline
 90
4
 70
0
 10
181.9514843308081993
 20
172.211263458194793
 10
180.351484330808205
 20
172.5668634581947742
 10
180.351484330808205
 20
171.8556634581947549
 10
181.9514843308081993
 20
172.211263458194793
  0
LINE
  5
175
100
AcDbEntity
100
AcDbLine
  8
STANDARD
 62
7
370
-1
  6
ByLayer
 10
181.9514843308081993
 20
50.2112634581947646
 30
0.0
 11
176.9514843308081993
 21
50.2112634581947646
 31
0.0
  0
LWPOLYLINE
  5
176
  8
STANDARD
 62
7
370
-1
  6
ByLayer
100
AcDbEntity
100
AcDbPolyline
 90
4
 70
0
 10
181.9514843308081993
 20
50.2112634581947646
 10
180.351484330808205
 20
50.5668634581947671
 10
180.351484330808205
 20
49.855663458194762
 10
181.9514843308081993
 20
50.2112634581947646
  0
LINE
  5
177
100
AcDbEntity
100
AcDbLine
  8
STANDARD
 62
7
370
-1
  6
ByLayer
 10
181.9514843308081993
 20
88.2112634581947646
 30
0.0
 11
70.9514843308081993
 21
88.2112634581947646
 31
0.0
  0
LWPOLYLINE
  5
178
  8
STANDARD
 62
7
370
-1
  6
ByLayer
100
AcDbEntity
100
AcDbPolyline
 90
4
 70
0
 10
181.9514843308081993
 20
88.2112634581947646
 10
180.351484330808205
 20
88.5668634581947742
 10
180.351484330808205
 20
87.8556634581947691
 10
181.9514843308081993
 20
88.2112634581947646
  0
LINE
  5
179
100
AcDbEntity
100
AcDbLine
  8
STANDARD
 62
7
370
-1
  6
ByLayer
 10
181.9514843308081993
 20
70.2112634581947646
 30
0.0
 11
138.9514843308081993
 21
70.2112634581947646
 31
0.0
  0
LWPOLYLINE
  5
17A
  8
STANDARD
 62
7
370
-1
  6
ByLayer
100
AcDbEntity
100
AcDbPolyline
 90
4
 70
0
 10
181.9514843308081993
 20
70.2112634581947646
 10
180.351484330808205
 20
70.5668634581947742
 10
180.351484330808205
 20
69.8556634581947549
 10
181.9514843308081993
 20
70.2112634581947646
  0
LINE
  5
17B
100
AcDbEntity
100
AcDbLine
  8
STANDARD
 62
7
370
-1
  6
ByLayer
 10
138.9514843308081993
 20
70.2112634581947646
 30
0.0
 11
134.9514843308081993
 21
70.2112634581947646
 31
0.0
  0
LWPOLYLINE
  5
17C
  8
STANDARD
 62
7
370
-1
  6
ByLayer
100
AcDbEntity
100
AcDbPolyline
 90
4
 70
0
 10
138.9514843308081993
 20
70.2112634581947646
 10
137.351484330808205
 20
70.5668634581947742
 10
137.351484330808205
 20
69.8556634581947549
 10
138.9514843308081993
 20
70.2112634581947646
  0
LINE
  5
17D
100
AcDbEntity
100
AcDbLine
  8
STANDARD
 62
7
370
-1
  6
ByLayer
 10
181.9514843308081993
 20
120.2112634581947646
 30
0.0
 11
172.9514843308081993
 21
120.2112634581947646
 31
0.0
  0
LWPOLYLINE
  5
17E
  8
STANDARD
 62
7
370
-1
  6
ByLayer
100
AcDbEntity
100
AcDbPolyline
 90
4
 70
0
 10
181.9514843308081993
 20
120.2112634581947646
 10
180.351484330808205
 20
120.5668634581947458
 10
180.351484330808205
 20
119.8556634581947549
 10
181.9514843308081993
 20
120.2112634581947646
  0
LINE
  5
17F
100
AcDbEntity
100
AcDbLine
  8
STANDARD
 62
7
370
-1
  6
ByLayer
 10
196.9514843308081993
 20
66.2112634581947788
 30
0.0
 11
196.9514843308081993
 21
50.2112634581947646
 31
0.0
  0
LWPOLYLINE
  5
180
  8
STANDARD
 62
7
370
-1
  6
ByLayer
100
AcDbEntity
100
AcDbPolyline
 90
4
 70
0
 10
196.9514843308081993
 20
66.2112634581947788
 10
196.5958843308081896
 20
64.6112634581947702
 10
197.307084330808209
 20
64.6112634581947702
 10
196.9514843308081993
 20
66.2112634581947788
  0
LINE
  5
181
100
AcDbEntity
100
AcDbLine
  8
STANDARD
 62
7
370
-1
  6
ByLayer
 10
210.9514843308082277
 20
104.2112634581947503
 30
0.0
 11
210.9514843308082277
 21
70.2112634581947646
 31
0.0
  0
LWPOLYLINE
  5
182
  8
STANDARD
 62
7
370
-1
  6
ByLayer
100
AcDbEntity
100
AcDbPolyline
 90
4
 70
0
 10
210.9514843308082277
 20
104.2112634581947503
 10
210.595884330808218
 20
102.6112634581947418
 10
211.3070843308082374
 20
102.6112634581947418
 10
210.9514843308082277
 20
104.2112634581947503
  0
LINE
  5
183
100
AcDbEntity
100
AcDbLine
  8
STANDARD
 62
7
370
-1
  6
ByLayer
 10
196.9514843308081993
 20
140.2112634581947646
 30
0.0
 11
196.9514843308081993
 21
120.2112634581947646
 31
0.0
  0
LWPOLYLINE
  5
184
  8
STANDARD
 62
7
370
-1
  6
ByLayer
100
AcDbEntity
100
AcDbPolyline
 90
4
 70
0
 10
196.9514843308081993
 20
140.2112634581947646
 10
196.5958843308081896
 20
138.6112634581947418
 10
197.307084330808209
 20
138.6112634581947418
 10
196.9514843308081993
 20
140.2112634581947646
  0
LINE
  5
185
100
AcDbEntity
100
AcDbLine
  8
STANDARD
 62
7
370
-1
  6
ByLayer
 10
138.9514843308081993
 20
70.2112634581947646
 30
0.0
 11
138.9514843308081993
 21
50.2112634581947646
 31
0.0
  0
LINE
  5
186
100
AcDbEntity
100
AcDbLine
  8
STANDARD
 62
7
370
-1
  6
ByLayer
 10
70.9514843308081993
 20
70.2112634581947646
 30
0.0
 11
70.9514843308081993
 21
88.2112634581947646
 31
0.0
  0
LINE
  5
187
100
AcDbEntity
100
AcDbLine
  8
STANDARD
 62
7
370
-1
  6
ByLayer
 10
200.9514843308082277
 20
144.2112634581947646
 30
0.0
 11
210.9514843308082277
 21
144.2112634581947646
 31
0.0
  0
LINE
  5
188
100
AcDbEntity
100
AcDbLine
  8
STANDARD
 62
7
370
-1
  6
ByLayer
 10
200.9514843308082277
 20
70.2112634581947646
 30
0.0
 11
210.9514843308082277
 21
70.2112634581947646
 31
0.0
  0
LINE
  5
189
100
AcDbEntity
100
AcDbLine
  8
STANDARD
 62
7
370
-1
  6
ByLayer
 10
70.9514843308081993
 20
116.2112634581947788
 30
0.0
 11
62.9514843308082206
 21
116.2112634581947788
 31
0.0
  0
LWPOLYLINE
  5
18A
  8
STANDARD
 62
7
370
-1
  6
ByLayer
100
AcDbEntity
100
AcDbPolyline
 90
4
 70
0
 10
70.9514843308081993
 20
116.2112634581947788
 10
69.351484330808205
 20
116.5668634581947742
 10
69.351484330808205
 20
115.8556634581947691
 10
70.9514843308081993
 20
116.2112634581947788
  0
LINE
  5
18B
100
AcDbEntity
100
AcDbLine
  8
STANDARD
 62
7
370
-1
  6
ByLayer
 10
70.9514843308081993
 20
116.2112634581947788
 30
0.0
 11
70.9514843308081993
 21
88.2112634581947646
 31
0.0
  0
LWPOLYLINE
  5
18C
  8
STANDARD
 62
7
370
-1
  6
ByLayer
100
AcDbEntity
100
AcDbPolyline
 90
4
 70
0
 10
70.9514843308081993
 20
88.2112634581947646
 10
71.307084330808209
 20
89.8112634581947731
 10
70.5958843308082038
 20
89.8112634581947731
 10
70.9514843308081993
 20
88.2112634581947646
  0
LINE
  5
18D
100
AcDbEntity
100
AcDbLine
  8
STANDARD
 62
7
370
-1
  6
ByLayer
 10
74.9514843308082135
 20
144.2112634581947646
 30
0.0
 11
84.9514843308082135
 21
144.2112634581947646
 31
0.0
  0
LWPOLYLINE
  5
18E
  8
STANDARD
 62
7
370
-1
  6
ByLayer
100
AcDbEntity
100
AcDbPolyline
 90
4
 70
0
 10
84.9514843308082135
 20
144.2112634581947646
 10
83.351484330808205
 20
144.5668634581947458
 10
83.351484330808205
 20
143.8556634581947264
 10
84.9514843308082135
 20
144.2112634581947646
  0
LINE
  5
18F
100
AcDbEntity
100
AcDbLine
  8
STANDARD
 62
7
370
-1
  6
ByLayer
 10
244.9514843308081993
 20
108.2112634581947646
 30
0.0
 11
236.9514843308081993
 21
108.2112634581947646
 31
0.0
  0
LWPOLYLINE
  5
190
  8
STANDARD
 62
7
370
-1
  6
ByLayer
100
AcDbEntity
100
AcDbPolyline
 90
4
 70
0
 10
244.9514843308081993
 20
108.2112634581947646
 10
243.351484330808205
 20
108.56686345819476
 10
243.351484330808205
 20
107.8556634581947691
 10
244.9514843308081993
 20
108.2112634581947646
  0
LINE
  5
191
100
AcDbEntity
100
AcDbLine
  8
STANDARD
 62
7
370
-1
  6
ByLayer
 10
244.9514843308081993
 20
190.2112634581947646
 30
0.0
 11
70.9514843308081993
 21
190.2112634581947646
 31
0.0
  0
LINE
  5
192
100
AcDbEntity
100
AcDbLine
  8
STANDARD
 62
7
370
-1
  6
ByLayer
 10
70.9514843308081993
 20
190.2112634581947646
 30
0.0
 11
70.9514843308081993
 21
148.2112634581947646
 31
0.0
  0
LWPOLYLINE
  5
193
  8
STANDARD
 62
7
370
-1
  6
ByLayer
100
AcDbEntity
100
AcDbPolyline
 90
4
 70
0
 10
70.9514843308081993
 20
148.2112634581947646
 10
71.307084330808209
 20
149.8112634581947873
 10
70.5958843308082038
 20
149.8112634581947873
 10
70.9514843308081993
 20
148.2112634581947646
  0
LINE
  5
194
100
AcDbEntity
100
AcDbLine
  8
STANDARD
 62
7
370
-1
  6
ByLayer
 10
38.9514843308082135
 20
170.2112634581947646
 30
0.0
 11
38.9514843308082135
 21
118.2112634581947646
 31
0.0
  0
LINE
  5
195
100
AcDbEntity
100
AcDbLine
  8
STANDARD
 62
7
370
-1
  6
ByLayer
 10
38.9514843308082135
 20
174.2112634581947646
 30
0.0
 11
38.9514843308082135
 21
198.2112634581947361
 31
0.0
  0
LINE
  5
196
100
AcDbEntity
100
AcDbLine
  8
STANDARD
 62
7
370
-1
  6
ByLayer
 10
38.9514843308082135
 20
198.2112634581947361
 30
0.0
 11
268.9514843308081709
 21
198.2112634581947361
 31
0.0
  0
LINE
  5
197
100
AcDbEntity
100
AcDbLine
  8
STANDARD
 62
7
370
-1
  6
ByLayer
 10
268.9514843308081709
 20
198.2112634581947361
 30
0.0
 11
268.9514843308081709
 21
192.211263458194793
 31
0.0
  0
LINE
  5
198
100
AcDbEntity
100
AcDbLine
  8
STANDARD
 62
7
370
-1
  6
ByLayer
 10
268.9514843308081709
 20
188.2112634581947361
 30
0.0
 11
268.9514843308081709
 21
110.2112634581947503
 31
0.0
  0
LINE
  5
199
100
AcDbEntity
100
AcDbLine
  8
STANDARD
 62
7
370
-1
  6
ByLayer
 10
268.9514843308081709
 20
106.2112634581947788
 30
0.0
 11
268.9514843308081709
 21
30.2112634581947646
 31
0.0
  0
LINE
  5
19A
100
AcDbEntity
100
AcDbLine
  8
STANDARD
 62
7
370
-1
  6
ByLayer
 10
268.9514843308081709
 20
30.2112634581947646
 30
0.0
 11
38.9514843308082135
 21
30.2112634581947646
 31
0.0
  0
LINE
  5
19B
100
AcDbEntity
100
AcDbLine
  8
STANDARD
 62
7
370
-1
  6
ByLayer
 10
38.9514843308082135
 20
58.2112634581947646
 30
0.0
 11
38.9514843308082135
 21
114.2112634581947503
 31
0.0
  0
LINE
  5
19C
100
AcDbEntity
100
AcDbLine
  8
STANDARD
 62
7
370
-1
  6
ByLayer
 10
38.9514843308082135
 20
30.2112634581947646
 30
0.0
 11
38.9514843308082135
 21
54.2112634581947503
 31
0.0
  0
ENDSEC
  0
SECTION
  2
OBJECTS
  0
DICTIONARY
  5
C
100
AcDbDictionary
280
0
281
1
  3
ACAD_GROUP
350
D
  3
ACAD_LAYOUT
350
1A
  3
ACAD_MLINESTYLE
350
17
  3
ACAD_PLOTSETTINGS
350
19
  3
ACAD_PLOTSTYLENAME
350
E
  3
AcDbVariableDictionary
350
19D
  0
DICTIONARY
  5
D
100
AcDbDictionary
280
0
281
1
  0
ACDBDICTIONARYWDFLT
  5
E
100
AcDbDictionary
281
1
  3
Normal
350
F
100
AcDbDictionaryWithDefault
340
F
  0
ACDBPLACEHOLDER
  5
F
  0
DICTIONARY
  5
17
100
AcDbDictionary
280
0
281
1
  3
Standard
350
18
  0
MLINESTYLE
  5
18
100
AcDbMlineStyle
  2
STANDARD
 70
0
  3

 62
256
 51
90.0
 52
90.0
 71
2
 49
0.5
 62
256
  6
BYLAYER
 49
-0.5
 62
256
  6
BYLAYER
  0
DICTIONARY
  5
19
100
AcDbDictionary
280
0
281
1
  0
DICTIONARY
  5
1A
100
AcDbDictionary
281
1
  3
Layout1
350
1E
  3
Layout2
350
26
  3
Model
350
22
  0
LAYOUT
  5
1E
100
AcDbPlotSettings
  1

  2
C:\Program Files\AutoCAD 2002\plotters\DWF ePlot (optimized for plotting).pc3
  4

  6

 40
0.0
 41
0.0
 42
0.0
 43
0.0
 44
0.0
 45
0.0
 46
0.0
 47
0.0
 48
0.0
 49
0.0
140
0.0
141
0.0
142
1.0
143
1.0
 70
688
 72
0
 73
0
 74
5
  7

 75
16
147
1.0
148
0.0
149
0.0
100
AcDbLayout
  1
Layout1
 70
1
 71
1
 10
0.0
 20
0.0
 11
420.0
 21
297.0
 12
0.0
 22
0.0
 32
0.0
 14
100000000000000000000.0
 24
100000000000000000000.0
 34
100000000000000000000.0
 15
-100000000000000000000.0
 25
-100000000000000000000.0
 35
-100000000000000000000.0
146
0.0
 13
0.0
 23
0.0
 33
0.0
 16
1.0
 26
0.0
 36
0.0
 17
0.0
 27
1.0
 37
0.0
 76
0
330
1B
  0
LAYOUT
  5
22
100
AcDbPlotSettings
  1

  2
C:\Program Files\AutoCAD 2002\plotters\DWF ePlot (optimized for plotting).pc3
  4

  6

 40
0.0
 41
0.0
 42
0.0
 43
0.0
 44
0.0
 45
0.0
 46
0.0
 47
0.0
 48
0.0
 49
0.0
140
0.0
141
0.0
142
1.0
143
1.0
 70
1712
 72
0
 73
0
 74
0
  7

 75
0
147
1.0
148
0.0
149
0.0
100
AcDbLayout
  1
Model
 70
1
 71
0
 10
0.0
 20
0.0
 11
12.0
 21
9.0
 12
0.0
 22
0.0
 32
0.0
 14
0.0
 24
0.0
 34
0.0
 15
0.0
 25
0.0
 35
0.0
146
0.0
 13
0.0
 23
0.0
 33
0.0
 16
1.0
 26
0.0
 36
0.0
 17
0.0
 27
1.0
 37
0.0
 76
0
330
1F
  0
LAYOUT
  5
26
100
AcDbPlotSettings
  1

  2
C:\Program Files\AutoCAD 2002\plotters\DWF ePlot (optimized for plotting).pc3
  4

  6

 40
0.0
 41
0.0
 42
0.0
 43
0.0
 44
0.0
 45
0.0
 46
0.0
 47
0.0
 48
0.0
 49
0.0
140
0.0
141
0.0
142
1.0
143
1.0
 70
688
 72
0
 73
0
 74
5
  7

 75
16
147
1.0
148
0.0
149
0.0
100
AcDbLayout
  1
Layout2
 70
1
 71
2
 10
0.0
 20
0.0
 11
12.0
 21
9.0
 12
0.0
 22
0.0
 32
0.0
 14
0.0
 24
0.0
 34
0.0
 15
0.0
 25
0.0
 35
0.0
146
0.0
 13
0.0
 23
0.0
 33
0.0
 16
1.0
 26
0.0
 36
0.0
 17
0.0
 27
1.0
 37
0.0
 76
0
330
23
  0
DICTIONARY
  5
19D
100
AcDbDictionary
281
1
  3
DIMASSOC
350
19F
  3
HIDETEXT
350
19E
  0
DICTIONARYVAR
  5
19E
100
DictionaryVariables
280
0
  1
2
  0
DICTIONARYVAR
  5
19F
100
DictionaryVariables
280
0
  1
1
  0
ENDSEC
  0
EOF
