  0
SECTION
  2
HEADER
  9
$ACADVER
  1
AC1009
  9
$INSBASE
 10
0.0
 20
0.0
 30
0.0
  9
$EXTMIN
 10
-25.2
 20
5.7
 30
0.0
  9
$EXTMAX
 10
-10.3
 20
23.4
 30
0.0
  9
$LIMMIN
 10
0.0
 20
0.0
  9
$LIMMAX
 10
0.0
 20
0.0
  9
$ORTHOMODE
 70
     0
  9
$REGENMODE
 70
     1
  9
$FILLMODE
 70
     1
  9
$QTEXTMODE
 70
     0
  9
$MIRRTEXT
 70
     1
  9
$DRAGMODE
 70
     2
  9
$LTSCALE
 40
1.0
  9
$OSMODE
 70
     0
  9
$ATTMODE
 70
     1
  9
$TEXTSIZE
 40
0.2
  9
$TRACEWID
 40
0.05
  9
$TEXTSTYLE
  7
STANDARD
  9
$CLAYER
  8
0
  9
$CELTYPE
  6
CONTINUOUS
  9
$CECOLOR
 62
   256
  9
$DIMSCALE
 40
1.0
  9
$DIMASZ
 40
0.18
  9
$DIMEXO
 40
0.0625
  9
$DIMDLI
 40
0.38
  9
$DIMRND
 40
0.0
  9
$DIMDLE
 40
0.0
  9
$DIMEXE
 40
0.18
  9
$DIMTP
 40
0.0
  9
$DIMTM
 40
0.0
  9
$DIMTXT
 40
0.18
  9
$DIMCEN
 40
0.09
  9
$DIMTSZ
 40
0.0
  9
$DIMTOL
 70
     0
  9
$DIMLIM
 70
     0
  9
$DIMTIH
 70
     1
  9
$DIMTOH
 70
     1
  9
$DIMSE1
 70
     0
  9
$DIMSE2
 70
     0
  9
$DIMTAD
 70
     0
  9
$DIMZIN
 70
     0
  9
$DIMBLK
  1

  9
$DIMASO
 70
     1
  9
$DIMSHO
 70
     1
  9
$DIMPOST
  1

  9
$DIMAPOST
  1

  9
$DIMALT
 70
     0
  9
$DIMALTD
 70
     2
  9
$DIMALTF
 40
25.4
  9
$DIMLFAC
 40
1.0
  9
$DIMTOFL
 70
     0
  9
$DIMTVP
 40
0.0
  9
$DIMTIX
 70
     0
  9
$DIMSOXD
 70
     0
  9
$DIMSAH
 70
     0
  9
$DIMBLK1
  1

  9
$DIMBLK2
  1

  9
$DIMSTYLE
  2
STANDARD
  9
$DIMCLRD
 70
     0
  9
$DIMCLRE
 70
     0
  9
$DIMCLRT
 70
     0
  9
$DIMTFAC
 40
1.0
  9
$DIMGAP
 40
0.09
  9
$LUNITS
 70
     2
  9
$LUPREC
 70
     4
  9
$AXISMODE
 70
     0
  9
$AXISUNIT
 10
0.0
 20
0.0
  9
$SKETCHINC
 40
0.1
  9
$FILLETRAD
 40
0.0
  9
$AUNITS
 70
     0
  9
$AUPREC
 70
     0
  9
$MENU
  1
acad
  9
$ELEVATION
 40
0.0
  9
$PELEVATION
 40
0.0
  9
$THICKNESS
 40
0.0
  9
$LIMCHECK
 70
     0
  9
$BLIPMODE
 70
     1
  9
$CHAMFERA
 40
0.0
  9
$CHAMFERB
 40
0.0
  9
$SKPOLY
 70
     0
  9
$TDCREATE
 40
0.000000000
  9
$TDUPDATE
 40
0.000000000
  9
$TDINDWG
 40
0.0000000000
  9
$TDUSRTIMER
 40
0.0000000000
  9
$USRTIMER
 70
     1
  9
$ANGBASE
 50
0.0
  9
$ANGDIR
 70
     0
  9
$PDMODE
 70
     0
  9
$PDSIZE
 40
0.0
  9
$PLINEWID
 40
0.0
  9
$COORDS
 70
     0
  9
$SPLFRAME
 70
     0
  9
$SPLINETYPE
 70
     6
  9
$SPLINESEGS
 70
     8
  9
$ATTDIA
 70
     0
  9
$ATTREQ
 70
     1
  9
$HANDLING
 70
     1
  9
$HANDSEED
  5
78C
  9
$SURFTAB1
 70
     6
  9
$SURFTAB2
 70
     6
  9
$SURFTYPE
 70
     6
  9
$SURFU
 70
     6
  9
$SURFV
 70
     6
  9
$UCSNAME
  2

  9
$UCSORG
 10
0.0
 20
0.0
 30
0.0
  9
$UCSXDIR
 10
1.0
 20
0.0
 30
0.0
  9
$UCSYDIR
 10
0.0
 20
1.0
 30
0.0
  9
$PUCSNAME
  2

  9
$PUCSORG
 10
0.0
 20
0.0
 30
0.0
  9
$PUCSXDIR
 10
1.0
 20
0.0
 30
0.0
  9
$PUCSYDIR
 10
0.0
 20
1.0
 30
0.0
  9
$USERI1
 70
     0
  9
$USERI2
 70
     0
  9
$USERI3
 70
     0
  9
$USERI4
 70
     0
  9
$USERI5
 70
     0
  9
$USERR1
 40
0.0
  9
$USERR2
 40
0.0
  9
$USERR3
 40
0.0
  9
$USERR4
 40
0.0
  9
$USERR5
 40
0.0
  9
$WORLDVIEW
 70
     1
  9
$SHADEDGE
 70
     3
  9
$SHADEDIF
 70
    70
  9
$TILEMODE
 70
     1
  9
$MAXACTVP
 70
    16
  9
$PINSBASE
 10
0.0
 20
0.0
 30
0.0
  9
$PLIMCHECK
 70
     0
  9
$PEXTMIN
 10
1.000000E+20
 20
1.000000E+20
 30
1.000000E+20
  9
$PEXTMAX
 10
-1.000000E+20
 20
-1.000000E+20
 30
-1.000000E+20
  9
$PLIMMIN
 10
0.0
 20
0.0
  9
$PLIMMAX
 10
12.0
 20
9.0
  9
$UNITMODE
 70
     0
  9
$VISRETAIN
 70
     0
  9
$PLINEGEN
 70
     1
  9
$PSLTSCALE
 70
     0
  9
$TREEDEPTH
 70
  3020
  9
$DWGCODEPAGE
  3
dos850
  0
ENDSEC
  0
SECTION
  2
TABLES
  0
TABLE
  2
VPORT
 70
     1
  0
VPORT
  2
*ACTIVE
 70
     0
 10
0.0
 20
0.0
 11
1.0
 21
1.0
 12
6.591288
 22
4.579184
 13
0.0
 23
0.0
 14
1.0
 24
1.0
 15
0.0
 25
0.0
 16
0.0
 26
0.0
 36
1.0
 17
0.0
 27
0.0
 37
0.0
 40
9.158369
 41
0.688564
 42
50.0
 43
0.0
 44
0.0
 50
0.0
 51
0.0
 71
     0
 72
   100
 73
     1
 74
     1
 75
     0
 76
     0
 77
     0
 78
     0
  0
ENDTAB
  0
TABLE
  2
LTYPE
 70
     3
  0
LTYPE
  2
CONTINUOUS
 70
    64
  3
Solid line
 72
    65
 73
     0
 40
0.0
  0
LTYPE
  2
ORTHO_50_50
 70
    64
  3
- -
 72
    65
 73
     4
 40
0.05
 49
0.0125
 49
-0.0125
 49
0.0125
 49
-0.0125
  0
LTYPE
  2
DASH
 70
    64
  3
- -
 72
    65
 73
     4
 40
0.1
 49
0.025
 49
-0.025
 49
0.025
 49
-0.025
  0
ENDTAB
  0
TABLE
  2
LAYER
 70
     7
  0
LAYER
  2
0
 70
     0
 62
     7
  6
CONTINUOUS
  0
LAYER
  2
MERGE
 70
     0
 62
     7
  6
CONTINUOUS
  0
LAYER
  2
STANDARD
 70
     0
 62
     7
  6
CONTINUOUS
  0
LAYER
  2
PINS
 70
     0
 62
     7
  6
CONTINUOUS
  0
LAYER
  2
PARAMS
 70
     0
 62
     7
  6
CONTINUOUS
  0
LAYER
  2
OUTLINE
 70
     0
 62
     7
  6
CONTINUOUS
  0
LAYER
  2
INTERNALS
 70
     0
 62
     7
  6
CONTINUOUS
  0
ENDTAB
  0
TABLE
  2
STYLE
 70
     4
  0
STYLE
  2
STANDARD
 70
     0
 40
0.0
 41
1.0
 50
0.0
 71
     0
 42
0.0
  3
txt
  4

  0
STYLE
  2
STYLE1
 70
     0
 40
0.0
 41
1.0
 50
0.0
 71
     0
 42
0.0
  3
Arial.ttf
  4

  0
STYLE
  2
STYLE2
 70
     0
 40
0.0
 41
1.0
 50
0.0
 71
     0
 42
0.0
  3
txt.SHX
  4

  0
STYLE
  2
STYLE3
 70
     0
 40
0.0
 41
1.0
 50
0.0
 71
     0
 42
0.0
  3
Arial.ttf
  4

  0
ENDTAB
  0
TABLE
  2
VIEW
 70
     0
  0
ENDTAB
  0
TABLE
  2
UCS
 70
     0
  0
ENDTAB
  0
TABLE
  2
APPID
 70
     1
  0
APPID
  2
ACAD
 70
     0
  0
ENDTAB
  0
TABLE
  2
DIMSTYLE
 70
     1
  0
DIMSTYLE
  2
STANDARD
 70
     0
  3

  4

  5

  6

  7

 40
1.0
 41
0.18
 42
0.0625
 43
0.38
 44
0.18
 45
0.0
 46
0.0
 47
0.0
 48
0.0
 71
     0
 72
     0
 73
     1
 74
     1
 75
     0
 76
     0
 77
     0
 78
     0
140
0.18
141
0.09
142
0.0
143
25.4
144
1.0
145
0.0
146
1.0
147
0.09
170
     0
171
     2
172
     0
173
     0
174
     0
175
     0
176
     0
177
     0
178
     0
  0
ENDTAB
  0
ENDSEC
  0
SECTION
  2
BLOCKS
  0
ENDSEC
  0
SECTION
  2
ENTITIES
  0
POLYLINE
  8
0
 62
     7
  5
26
 66
     1
 10
0.0
 20
0.0
 30
0.0
 70
     1
  0
VERTEX
  8
0
 62
     7
  5
27
 10
-25.2
 20
7.5
 30
0.0
  0
VERTEX
  8
0
 62
     7
  5
28
 10
-25.2
 20
7.7
 30
0.0
  0
VERTEX
  8
0
 62
     7
  5
29
 10
-23.9
 20
7.7
 30
0.0
  0
VERTEX
  8
0
 62
     7
  5
2A
 10
-23.8
 20
7.6
 30
0.0
  0
VERTEX
  8
0
 62
     7
  5
2B
 10
-23.9
 20
7.5
 30
0.0
  0
VERTEX
  8
0
 62
     7
  5
2C
 10
-25.2
 20
7.5
 30
0.0
  0
VERTEX
  8
0
 62
     7
  5
2D
 10
-25.2
 20
7.5
 30
0.0
  0
VERTEX
  8
0
 62
     7
  5
2E
 10
-25.2
 20
7.5
 30
0.0
  0
SEQEND
  8
0
  5
2F
  0
POLYLINE
  8
0
 62
     7
  5
30
 66
     1
 10
0.0
 20
0.0
 30
0.0
 70
     1
  0
VERTEX
  8
0
 62
     7
  5
31
 10
-25.2
 20
13.5
 30
0.0
  0
VERTEX
  8
0
 62
     7
  5
32
 10
-25.2
 20
13.7
 30
0.0
  0
VERTEX
  8
0
 62
     7
  5
33
 10
-23.9
 20
13.7
 30
0.0
  0
VERTEX
  8
0
 62
     7
  5
34
 10
-23.8
 20
13.6
 30
0.0
  0
VERTEX
  8
0
 62
     7
  5
35
 10
-23.9
 20
13.5
 30
0.0
  0
VERTEX
  8
0
 62
     7
  5
36
 10
-25.2
 20
13.5
 30
0.0
  0
VERTEX
  8
0
 62
     7
  5
37
 10
-25.2
 20
13.5
 30
0.0
  0
VERTEX
  8
0
 62
     7
  5
38
 10
-25.2
 20
13.5
 30
0.0
  0
SEQEND
  8
0
  5
39
  0
POLYLINE
  8
0
 62
     7
  5
3A
 66
     1
 10
0.0
 20
0.0
 30
0.0
 70
     1
  0
VERTEX
  8
0
 62
     7
  5
3B
 10
-25.2
 20
19.5
 30
0.0
  0
VERTEX
  8
0
 62
     7
  5
3C
 10
-25.2
 20
19.7
 30
0.0
  0
VERTEX
  8
0
 62
     7
  5
3D
 10
-23.9
 20
19.7
 30
0.0
  0
VERTEX
  8
0
 62
     7
  5
3E
 10
-23.8
 20
19.6
 30
0.0
  0
VERTEX
  8
0
 62
     7
  5
3F
 10
-23.9
 20
19.5
 30
0.0
  0
VERTEX
  8
0
 62
     7
  5
40
 10
-25.2
 20
19.5
 30
0.0
  0
VERTEX
  8
0
 62
     7
  5
41
 10
-25.2
 20
19.5
 30
0.0
  0
VERTEX
  8
0
 62
     7
  5
42
 10
-25.2
 20
19.5
 30
0.0
  0
SEQEND
  8
0
  5
43
  0
TEXT
  8
0
 62
     7
  5
44
 10
-24.83
 20
7.55
 30
0.0
 40
0.1
  1
velocity-cmd
  7
STYLE3
 72
     1
 11
-24.5
 21
7.6
 31
0.0
 73
     2
  0
TEXT
  8
0
 62
     7
  5
45
 10
-24.83
 20
13.55
 30
0.0
 40
0.1
  1
position-cmd
  7
STYLE3
 72
     1
 11
-24.5
 21
13.6
 31
0.0
 73
     2
  0
TEXT
  8
0
 62
     7
  5
46
 10
-24.83
 20
19.55
 30
0.0
 40
0.1
  1
position-cmd
  7
STYLE3
 72
     1
 11
-24.5
 21
19.6
 31
0.0
 73
     2
  0
POLYLINE
  8
0
 62
     7
  5
47
 66
     1
 10
0.0
 20
0.0
 30
0.0
 70
     1
  0
VERTEX
  8
0
 62
     7
  5
48
 10
-10.4
 20
10.5
 30
0.0
  0
VERTEX
  8
0
 62
     7
  5
49
 10
-10.3
 20
10.6
 30
0.0
  0
VERTEX
  8
0
 62
     7
  5
4A
 10
-10.4
 20
10.7
 30
0.0
  0
VERTEX
  8
0
 62
     7
  5
4B
 10
-11.7
 20
10.7
 30
0.0
  0
VERTEX
  8
0
 62
     7
  5
4C
 10
-11.7
 20
10.5
 30
0.0
  0
VERTEX
  8
0
 62
     7
  5
4D
 10
-10.4
 20
10.5
 30
0.0
  0
VERTEX
  8
0
 62
     7
  5
4E
 10
-10.4
 20
10.5
 30
0.0
  0
VERTEX
  8
0
 62
     7
  5
4F
 10
-10.4
 20
10.5
 30
0.0
  0
SEQEND
  8
0
  5
50
  0
POLYLINE
  8
0
 62
     7
  5
51
 66
     1
 10
0.0
 20
0.0
 30
0.0
 70
     1
  0
VERTEX
  8
0
 62
     7
  5
52
 10
-10.4
 20
9.6
 30
0.0
  0
VERTEX
  8
0
 62
     7
  5
53
 10
-10.3
 20
9.7
 30
0.0
  0
VERTEX
  8
0
 62
     7
  5
54
 10
-10.4
 20
9.8
 30
0.0
  0
VERTEX
  8
0
 62
     7
  5
55
 10
-11.7
 20
9.8
 30
0.0
  0
VERTEX
  8
0
 62
     7
  5
56
 10
-11.7
 20
9.6
 30
0.0
  0
VERTEX
  8
0
 62
     7
  5
57
 10
-10.4
 20
9.6
 30
0.0
  0
VERTEX
  8
0
 62
     7
  5
58
 10
-10.4
 20
9.6
 30
0.0
  0
VERTEX
  8
0
 62
     7
  5
59
 10
-10.4
 20
9.6
 30
0.0
  0
SEQEND
  8
0
  5
5A
  0
POLYLINE
  8
0
 62
     7
  5
5B
 66
     1
 10
0.0
 20
0.0
 30
0.0
 70
     1
  0
VERTEX
  8
0
 62
     7
  5
5C
 10
-10.4
 20
9.9
 30
0.0
  0
VERTEX
  8
0
 62
     7
  5
5D
 10
-10.3
 20
10.0
 30
0.0
  0
VERTEX
  8
0
 62
     7
  5
5E
 10
-10.4
 20
10.1
 30
0.0
  0
VERTEX
  8
0
 62
     7
  5
5F
 10
-11.7
 20
10.1
 30
0.0
  0
VERTEX
  8
0
 62
     7
  5
60
 10
-11.7
 20
9.9
 30
0.0
  0
VERTEX
  8
0
 62
     7
  5
61
 10
-10.4
 20
9.9
 30
0.0
  0
VERTEX
  8
0
 62
     7
  5
62
 10
-10.4
 20
9.9
 30
0.0
  0
VERTEX
  8
0
 62
     7
  5
63
 10
-10.4
 20
9.9
 30
0.0
  0
SEQEND
  8
0
  5
64
  0
POLYLINE
  8
0
 62
     7
  5
65
 66
     1
 10
0.0
 20
0.0
 30
0.0
 70
     1
  0
VERTEX
  8
0
 62
     7
  5
66
 10
-10.4
 20
15.9
 30
0.0
  0
VERTEX
  8
0
 62
     7
  5
67
 10
-10.3
 20
16.0
 30
0.0
  0
VERTEX
  8
0
 62
     7
  5
68
 10
-10.4
 20
16.1
 30
0.0
  0
VERTEX
  8
0
 62
     7
  5
69
 10
-11.7
 20
16.1
 30
0.0
  0
VERTEX
  8
0
 62
     7
  5
6A
 10
-11.7
 20
15.9
 30
0.0
  0
VERTEX
  8
0
 62
     7
  5
6B
 10
-10.4
 20
15.9
 30
0.0
  0
VERTEX
  8
0
 62
     7
  5
6C
 10
-10.4
 20
15.9
 30
0.0
  0
VERTEX
  8
0
 62
     7
  5
6D
 10
-10.4
 20
15.9
 30
0.0
  0
SEQEND
  8
0
  5
6E
  0
POLYLINE
  8
0
 62
     7
  5
6F
 66
     1
 10
0.0
 20
0.0
 30
0.0
 70
     1
  0
VERTEX
  8
0
 62
     7
  5
70
 10
-10.4
 20
21.9
 30
0.0
  0
VERTEX
  8
0
 62
     7
  5
71
 10
-10.3
 20
22.0
 30
0.0
  0
VERTEX
  8
0
 62
     7
  5
72
 10
-10.4
 20
22.1
 30
0.0
  0
VERTEX
  8
0
 62
     7
  5
73
 10
-11.7
 20
22.1
 30
0.0
  0
VERTEX
  8
0
 62
     7
  5
74
 10
-11.7
 20
21.9
 30
0.0
  0
VERTEX
  8
0
 62
     7
  5
75
 10
-10.4
 20
21.9
 30
0.0
  0
VERTEX
  8
0
 62
     7
  5
76
 10
-10.4
 20
21.9
 30
0.0
  0
VERTEX
  8
0
 62
     7
  5
77
 10
-10.4
 20
21.9
 30
0.0
  0
SEQEND
  8
0
  5
78
  0
POLYLINE
  8
0
 62
     7
  5
79
 66
     1
 10
0.0
 20
0.0
 30
0.0
 70
     1
  0
VERTEX
  8
0
 62
     7
  5
7A
 10
-10.4
 20
10.8
 30
0.0
  0
VERTEX
  8
0
 62
     7
  5
7B
 10
-10.3
 20
10.9
 30
0.0
  0
VERTEX
  8
0
 62
     7
  5
7C
 10
-10.4
 20
11.0
 30
0.0
  0
VERTEX
  8
0
 62
     7
  5
7D
 10
-11.7
 20
11.0
 30
0.0
  0
VERTEX
  8
0
 62
     7
  5
7E
 10
-11.7
 20
10.8
 30
0.0
  0
VERTEX
  8
0
 62
     7
  5
7F
 10
-10.4
 20
10.8
 30
0.0
  0
VERTEX
  8
0
 62
     7
  5
80
 10
-10.4
 20
10.8
 30
0.0
  0
VERTEX
  8
0
 62
     7
  5
81
 10
-10.4
 20
10.8
 30
0.0
  0
SEQEND
  8
0
  5
82
  0
POLYLINE
  8
0
 62
     7
  5
83
 66
     1
 10
0.0
 20
0.0
 30
0.0
 70
     1
  0
VERTEX
  8
0
 62
     7
  5
84
 10
-10.4
 20
10.2
 30
0.0
  0
VERTEX
  8
0
 62
     7
  5
85
 10
-10.3
 20
10.3
 30
0.0
  0
VERTEX
  8
0
 62
     7
  5
86
 10
-10.4
 20
10.4
 30
0.0
  0
VERTEX
  8
0
 62
     7
  5
87
 10
-11.7
 20
10.4
 30
0.0
  0
VERTEX
  8
0
 62
     7
  5
88
 10
-11.7
 20
10.2
 30
0.0
  0
VERTEX
  8
0
 62
     7
  5
89
 10
-10.4
 20
10.2
 30
0.0
  0
VERTEX
  8
0
 62
     7
  5
8A
 10
-10.4
 20
10.2
 30
0.0
  0
VERTEX
  8
0
 62
     7
  5
8B
 10
-10.4
 20
10.2
 30
0.0
  0
SEQEND
  8
0
  5
8C
  0
POLYLINE
  8
0
 62
     7
  5
8D
 66
     1
 10
0.0
 20
0.0
 30
0.0
 70
     1
  0
VERTEX
  8
0
 62
     7
  5
8E
 10
-10.4
 20
16.5
 30
0.0
  0
VERTEX
  8
0
 62
     7
  5
8F
 10
-10.3
 20
16.6
 30
0.0
  0
VERTEX
  8
0
 62
     7
  5
90
 10
-10.4
 20
16.7
 30
0.0
  0
VERTEX
  8
0
 62
     7
  5
91
 10
-11.7
 20
16.7
 30
0.0
  0
VERTEX
  8
0
 62
     7
  5
92
 10
-11.7
 20
16.5
 30
0.0
  0
VERTEX
  8
0
 62
     7
  5
93
 10
-10.4
 20
16.5
 30
0.0
  0
VERTEX
  8
0
 62
     7
  5
94
 10
-10.4
 20
16.5
 30
0.0
  0
VERTEX
  8
0
 62
     7
  5
95
 10
-10.4
 20
16.5
 30
0.0
  0
SEQEND
  8
0
  5
96
  0
POLYLINE
  8
0
 62
     7
  5
97
 66
     1
 10
0.0
 20
0.0
 30
0.0
 70
     1
  0
VERTEX
  8
0
 62
     7
  5
98
 10
-10.4
 20
22.5
 30
0.0
  0
VERTEX
  8
0
 62
     7
  5
99
 10
-10.3
 20
22.6
 30
0.0
  0
VERTEX
  8
0
 62
     7
  5
9A
 10
-10.4
 20
22.7
 30
0.0
  0
VERTEX
  8
0
 62
     7
  5
9B
 10
-11.7
 20
22.7
 30
0.0
  0
VERTEX
  8
0
 62
     7
  5
9C
 10
-11.7
 20
22.5
 30
0.0
  0
VERTEX
  8
0
 62
     7
  5
9D
 10
-10.4
 20
22.5
 30
0.0
  0
VERTEX
  8
0
 62
     7
  5
9E
 10
-10.4
 20
22.5
 30
0.0
  0
VERTEX
  8
0
 62
     7
  5
9F
 10
-10.4
 20
22.5
 30
0.0
  0
SEQEND
  8
0
  5
A0
  0
POLYLINE
  8
0
 62
     7
  5
A1
 66
     1
 10
0.0
 20
0.0
 30
0.0
 70
     1
  0
VERTEX
  8
0
 62
     7
  5
A2
 10
-25.1
 20
10.5
 30
0.0
  0
VERTEX
  8
0
 62
     7
  5
A3
 10
-25.2
 20
10.6
 30
0.0
  0
VERTEX
  8
0
 62
     7
  5
A4
 10
-25.1
 20
10.7
 30
0.0
  0
VERTEX
  8
0
 62
     7
  5
A5
 10
-23.8
 20
10.7
 30
0.0
  0
VERTEX
  8
0
 62
     7
  5
A6
 10
-23.8
 20
10.5
 30
0.0
  0
VERTEX
  8
0
 62
     7
  5
A7
 10
-25.1
 20
10.5
 30
0.0
  0
VERTEX
  8
0
 62
     7
  5
A8
 10
-25.1
 20
10.5
 30
0.0
  0
VERTEX
  8
0
 62
     7
  5
A9
 10
-25.1
 20
10.5
 30
0.0
  0
SEQEND
  8
0
  5
AA
  0
POLYLINE
  8
0
 62
     7
  5
AB
 66
     1
 10
0.0
 20
0.0
 30
0.0
 70
     1
  0
VERTEX
  8
0
 62
     7
  5
AC
 10
-25.1
 20
16.5
 30
0.0
  0
VERTEX
  8
0
 62
     7
  5
AD
 10
-25.2
 20
16.6
 30
0.0
  0
VERTEX
  8
0
 62
     7
  5
AE
 10
-25.1
 20
16.7
 30
0.0
  0
VERTEX
  8
0
 62
     7
  5
AF
 10
-23.8
 20
16.7
 30
0.0
  0
VERTEX
  8
0
 62
     7
  5
B0
 10
-23.8
 20
16.5
 30
0.0
  0
VERTEX
  8
0
 62
     7
  5
B1
 10
-25.1
 20
16.5
 30
0.0
  0
VERTEX
  8
0
 62
     7
  5
B2
 10
-25.1
 20
16.5
 30
0.0
  0
VERTEX
  8
0
 62
     7
  5
B3
 10
-25.1
 20
16.5
 30
0.0
  0
SEQEND
  8
0
  5
B4
  0
POLYLINE
  8
0
 62
     7
  5
B5
 66
     1
 10
0.0
 20
0.0
 30
0.0
 70
     1
  0
VERTEX
  8
0
 62
     7
  5
B6
 10
-25.1
 20
22.5
 30
0.0
  0
VERTEX
  8
0
 62
     7
  5
B7
 10
-25.2
 20
22.6
 30
0.0
  0
VERTEX
  8
0
 62
     7
  5
B8
 10
-25.1
 20
22.7
 30
0.0
  0
VERTEX
  8
0
 62
     7
  5
B9
 10
-23.8
 20
22.7
 30
0.0
  0
VERTEX
  8
0
 62
     7
  5
BA
 10
-23.8
 20
22.5
 30
0.0
  0
VERTEX
  8
0
 62
     7
  5
BB
 10
-25.1
 20
22.5
 30
0.0
  0
VERTEX
  8
0
 62
     7
  5
BC
 10
-25.1
 20
22.5
 30
0.0
  0
VERTEX
  8
0
 62
     7
  5
BD
 10
-25.1
 20
22.5
 30
0.0
  0
SEQEND
  8
0
  5
BE
  0
POLYLINE
  8
0
 62
     7
  5
BF
 66
     1
 10
0.0
 20
0.0
 30
0.0
 70
     1
  0
VERTEX
  8
0
 62
     7
  5
C0
 10
-25.1
 20
10.1
 30
0.0
  0
VERTEX
  8
0
 62
     7
  5
C1
 10
-25.2
 20
10.2
 30
0.0
  0
VERTEX
  8
0
 62
     7
  5
C2
 10
-25.1
 20
10.3
 30
0.0
  0
VERTEX
  8
0
 62
     7
  5
C3
 10
-23.8
 20
10.3
 30
0.0
  0
VERTEX
  8
0
 62
     7
  5
C4
 10
-23.8
 20
10.1
 30
0.0
  0
VERTEX
  8
0
 62
     7
  5
C5
 10
-25.1
 20
10.1
 30
0.0
  0
VERTEX
  8
0
 62
     7
  5
C6
 10
-25.1
 20
10.1
 30
0.0
  0
VERTEX
  8
0
 62
     7
  5
C7
 10
-25.1
 20
10.1
 30
0.0
  0
SEQEND
  8
0
  5
C8
  0
POLYLINE
  8
0
 62
     7
  5
C9
 66
     1
 10
0.0
 20
0.0
 30
0.0
 70
     1
  0
VERTEX
  8
0
 62
     7
  5
CA
 10
-25.1
 20
16.1
 30
0.0
  0
VERTEX
  8
0
 62
     7
  5
CB
 10
-25.2
 20
16.2
 30
0.0
  0
VERTEX
  8
0
 62
     7
  5
CC
 10
-25.1
 20
16.3
 30
0.0
  0
VERTEX
  8
0
 62
     7
  5
CD
 10
-23.8
 20
16.3
 30
0.0
  0
VERTEX
  8
0
 62
     7
  5
CE
 10
-23.8
 20
16.1
 30
0.0
  0
VERTEX
  8
0
 62
     7
  5
CF
 10
-25.1
 20
16.1
 30
0.0
  0
VERTEX
  8
0
 62
     7
  5
D0
 10
-25.1
 20
16.1
 30
0.0
  0
VERTEX
  8
0
 62
     7
  5
D1
 10
-25.1
 20
16.1
 30
0.0
  0
SEQEND
  8
0
  5
D2
  0
POLYLINE
  8
0
 62
     7
  5
D3
 66
     1
 10
0.0
 20
0.0
 30
0.0
 70
     1
  0
VERTEX
  8
0
 62
     7
  5
D4
 10
-25.1
 20
22.1
 30
0.0
  0
VERTEX
  8
0
 62
     7
  5
D5
 10
-25.2
 20
22.2
 30
0.0
  0
VERTEX
  8
0
 62
     7
  5
D6
 10
-25.1
 20
22.3
 30
0.0
  0
VERTEX
  8
0
 62
     7
  5
D7
 10
-23.8
 20
22.3
 30
0.0
  0
VERTEX
  8
0
 62
     7
  5
D8
 10
-23.8
 20
22.1
 30
0.0
  0
VERTEX
  8
0
 62
     7
  5
D9
 10
-25.1
 20
22.1
 30
0.0
  0
VERTEX
  8
0
 62
     7
  5
DA
 10
-25.1
 20
22.1
 30
0.0
  0
VERTEX
  8
0
 62
     7
  5
DB
 10
-25.1
 20
22.1
 30
0.0
  0
SEQEND
  8
0
  5
DC
  0
TEXT
  8
0
 62
     7
  5
DD
 10
-11.1925
 20
10.55
 30
0.0
 40
0.1
  1
phase-B
  7
STYLE3
 72
     1
 11
-11.0
 21
10.6
 31
0.0
 73
     2
  0
TEXT
  8
0
 62
     7
  5
DE
 10
-11.1925
 20
9.65
 30
0.0
 40
0.1
  1
phase-E
  7
STYLE3
 72
     1
 11
-11.0
 21
9.7
 31
0.0
 73
     2
  0
TEXT
  8
0
 62
     7
  5
DF
 10
-11.1925
 20
9.95
 30
0.0
 40
0.1
  1
phase-D
  7
STYLE3
 72
     1
 11
-11.0
 21
10.0
 31
0.0
 73
     2
  0
TEXT
  8
0
 62
     7
  5
E0
 10
-11.11
 20
15.95
 30
0.0
 40
0.1
  1
down
  7
STYLE3
 72
     1
 11
-11.0
 21
16.0
 31
0.0
 73
     2
  0
TEXT
  8
0
 62
     7
  5
E1
 10
-11.11
 20
21.95
 30
0.0
 40
0.1
  1
step
  7
STYLE3
 72
     1
 11
-11.0
 21
22.0
 31
0.0
 73
     2
  0
TEXT
  8
0
 62
     7
  5
E2
 10
-11.1925
 20
10.85
 30
0.0
 40
0.1
  1
phase-A
  7
STYLE3
 72
     1
 11
-11.0
 21
10.9
 31
0.0
 73
     2
  0
TEXT
  8
0
 62
     7
  5
E3
 10
-11.1925
 20
10.25
 30
0.0
 40
0.1
  1
phase-C
  7
STYLE3
 72
     1
 11
-11.0
 21
10.3
 31
0.0
 73
     2
  0
TEXT
  8
0
 62
     7
  5
E4
 10
-11.055
 20
16.55
 30
0.0
 40
0.1
  1
up
  7
STYLE3
 72
     1
 11
-11.0
 21
16.6
 31
0.0
 73
     2
  0
TEXT
  8
0
 62
     7
  5
E5
 10
-11.0825
 20
22.55
 30
0.0
 40
0.1
  1
dir
  7
STYLE3
 72
     1
 11
-11.0
 21
22.6
 31
0.0
 73
     2
  0
TEXT
  8
0
 62
     7
  5
E6
 10
-21.039706
 20
14.073413
 30
0.0
 40
0.1
  1
pos err
  7
STYLE3
 72
     1
 11
-20.847206
 21
14.123413
 31
0.0
 73
     2
  0
TEXT
  8
0
 62
     7
  5
E7
 10
-21.039706
 20
20.073413
 30
0.0
 40
0.1
  1
pos err
  7
STYLE3
 72
     1
 11
-20.847206
 21
20.123413
 31
0.0
 73
     2
  0
TEXT
  8
0
 62
     7
  5
E8
 10
-21.031705
 20
13.273243
 30
0.0
 40
0.1
  1
vel err
  7
STYLE3
 72
     1
 11
-20.839205
 21
13.323243
 31
0.0
 73
     2
  0
TEXT
  8
0
 62
     7
  5
E9
 10
-21.031705
 20
19.273243
 30
0.0
 40
0.1
  1
vel err
  7
STYLE3
 72
     1
 11
-20.839205
 21
19.323243
 31
0.0
 73
     2
  0
TEXT
  8
0
 62
     7
  5
EA
 10
-24.565
 20
10.55
 30
0.0
 40
0.1
  1
counts
  7
STYLE3
 72
     1
 11
-24.4
 21
10.6
 31
0.0
 73
     2
  0
TEXT
  8
0
 62
     7
  5
EB
 10
-24.565
 20
16.55
 30
0.0
 40
0.1
  1
counts
  7
STYLE3
 72
     1
 11
-24.4
 21
16.6
 31
0.0
 73
     2
  0
TEXT
  8
0
 62
     7
  5
EC
 10
-24.565
 20
22.55
 30
0.0
 40
0.1
  1
counts
  7
STYLE3
 72
     1
 11
-24.4
 21
22.6
 31
0.0
 73
     2
  0
TEXT
  8
0
 62
     7
  5
ED
 10
-24.7025
 20
10.15
 30
0.0
 40
0.1
  1
position-fb
  7
STYLE3
 72
     1
 11
-24.4
 21
10.2
 31
0.0
 73
     2
  0
TEXT
  8
0
 62
     7
  5
EE
 10
-24.7025
 20
16.15
 30
0.0
 40
0.1
  1
position-fb
  7
STYLE3
 72
     1
 11
-24.4
 21
16.2
 31
0.0
 73
     2
  0
TEXT
  8
0
 62
     7
  5
EF
 10
-24.7025
 20
22.15
 30
0.0
 40
0.1
  1
position-fb
  7
STYLE3
 72
     1
 11
-24.4
 21
22.2
 31
0.0
 73
     2
  0
TEXT
  8
PARAMS
 62
     7
  5
F0
 10
-20.22
 20
6.45
 30
0.0
 40
0.1
  1
maxaccel
  7
STYLE3
 72
     1
 11
-20.0
 21
6.5
 31
0.0
 73
     2
  0
TEXT
  8
PARAMS
 62
     7
  5
F1
 10
-20.82
 20
12.45
 30
0.0
 40
0.1
  1
maxaccel
  7
STYLE3
 72
     1
 11
-20.6
 21
12.5
 31
0.0
 73
     2
  0
TEXT
  8
PARAMS
 62
     7
  5
F2
 10
-20.82
 20
18.45
 30
0.0
 40
0.1
  1
maxaccel
  7
STYLE3
 72
     1
 11
-20.6
 21
18.5
 31
0.0
 73
     2
  0
TEXT
  8
PARAMS
 62
     7
  5
F3
 10
-20.1925
 20
6.75
 30
0.0
 40
0.1
  1
maxfreq
  7
STYLE3
 72
     1
 11
-20.0
 21
6.8
 31
0.0
 73
     2
  0
TEXT
  8
PARAMS
 62
     7
  5
F4
 10
-18.2925
 20
12.75
 30
0.0
 40
0.1
  1
maxfreq
  7
STYLE3
 72
     1
 11
-18.1
 21
12.8
 31
0.0
 73
     2
  0
TEXT
  8
PARAMS
 62
     7
  5
F5
 10
-18.2925
 20
18.75
 30
0.0
 40
0.1
  1
maxfreq
  7
STYLE3
 72
     1
 11
-18.1
 21
18.8
 31
0.0
 73
     2
  0
TEXT
  8
PARAMS
 62
     7
  5
F6
 10
-15.101822
 20
7.62522
 30
0.0
 40
0.1
  1
position
  7
STYLE3
 72
     1
 11
-14.881822
 21
7.67522
 31
0.0
 73
     2
  0
TEXT
  8
PARAMS
 62
     7
  5
F7
 10
-15.101822
 20
13.62522
 30
0.0
 40
0.1
  1
position
  7
STYLE3
 72
     1
 11
-14.881822
 21
13.67522
 31
0.0
 73
     2
  0
TEXT
  8
PARAMS
 62
     7
  5
F8
 10
-15.101822
 20
19.62522
 30
0.0
 40
0.1
  1
position
  7
STYLE3
 72
     1
 11
-14.881822
 21
19.67522
 31
0.0
 73
     2
  0
TEXT
  8
PARAMS
 62
     7
  5
F9
 10
-15.184322
 20
7.47522
 30
0.0
 40
0.1
  1
accumulator
  7
STYLE3
 72
     1
 11
-14.881822
 21
7.52522
 31
0.0
 73
     2
  0
TEXT
  8
PARAMS
 62
     7
  5
FA
 10
-15.184322
 20
13.47522
 30
0.0
 40
0.1
  1
accumulator
  7
STYLE3
 72
     1
 11
-14.881822
 21
13.52522
 31
0.0
 73
     2
  0
TEXT
  8
PARAMS
 62
     7
  5
FB
 10
-15.184322
 20
19.47522
 30
0.0
 40
0.1
  1
accumulator
  7
STYLE3
 72
     1
 11
-14.881822
 21
19.52522
 31
0.0
 73
     2
  0
TEXT
  8
PARAMS
 62
     7
  5
FC
 10
-13.283046
 20
10.325
 30
0.0
 40
0.1
  1
lookup
  7
STYLE3
 72
     1
 11
-13.118046
 21
10.375
 31
0.0
 73
     2
  0
TEXT
  8
PARAMS
 62
     7
  5
FD
 10
-13.255546
 20
10.175
 30
0.0
 40
0.1
  1
table
  7
STYLE3
 72
     1
 11
-13.118046
 21
10.225
 31
0.0
 73
     2
  0
TEXT
  8
PARAMS
 62
     7
  5
FE
 10
-17.91
 20
7.55
 30
0.0
 40
0.1
  1
ramp
  7
STYLE3
 72
     1
 11
-17.8
 21
7.6
 31
0.0
 73
     2
  0
TEXT
  8
PARAMS
 62
     7
  5
FF
 10
-16.01
 20
7.55
 30
0.0
 40
0.1
  1
ramp
  7
STYLE3
 72
     1
 11
-15.9
 21
7.6
 31
0.0
 73
     2
  0
TEXT
  8
PARAMS
 62
     7
  5
100
 10
-16.01
 20
13.55
 30
0.0
 40
0.1
  1
ramp
  7
STYLE3
 72
     1
 11
-15.9
 21
13.6
 31
0.0
 73
     2
  0
TEXT
  8
PARAMS
 62
     7
  5
101
 10
-16.01
 20
19.55
 30
0.0
 40
0.1
  1
ramp
  7
STYLE3
 72
     1
 11
-15.9
 21
19.6
 31
0.0
 73
     2
  0
TEXT
  8
PARAMS
 62
     7
  5
102
 10
-20.0375
 20
10.35
 30
0.0
 40
0.1
  1
latch
  7
STYLE3
 72
     1
 11
-19.9
 21
10.4
 31
0.0
 73
     2
  0
TEXT
  8
PARAMS
 62
     7
  5
103
 10
-20.0375
 20
16.35
 30
0.0
 40
0.1
  1
latch
  7
STYLE3
 72
     1
 11
-19.9
 21
16.4
 31
0.0
 73
     2
  0
TEXT
  8
PARAMS
 62
     7
  5
104
 10
-20.0375
 20
22.35
 30
0.0
 40
0.1
  1
latch
  7
STYLE3
 72
     1
 11
-19.9
 21
22.4
 31
0.0
 73
     2
  0
TEXT
  8
PARAMS
 62
     7
  5
105
 10
-13.255546
 20
8.875
 30
0.0
 40
0.1
  1
state
  7
STYLE3
 72
     1
 11
-13.118046
 21
8.925
 31
0.0
 73
     2
  0
TEXT
  8
PARAMS
 62
     7
  5
106
 10
-13.310546
 20
14.875
 30
0.0
 40
0.1
  1
up/down
  7
STYLE3
 72
     1
 11
-13.118046
 21
14.925
 31
0.0
 73
     2
  0
TEXT
  8
PARAMS
 62
     7
  5
107
 10
-13.338046
 20
20.875
 30
0.0
 40
0.1
  1
step/dir
  7
STYLE3
 72
     1
 11
-13.118046
 21
20.925
 31
0.0
 73
     2
  0
TEXT
  8
PARAMS
 62
     7
  5
108
 10
-13.310546
 20
8.725
 30
0.0
 40
0.1
  1
counter
  7
STYLE3
 72
     1
 11
-13.118046
 21
8.775
 31
0.0
 73
     2
  0
TEXT
  8
PARAMS
 62
     7
  5
109
 10
-13.255546
 20
14.725
 30
0.0
 40
0.1
  1
logic
  7
STYLE3
 72
     1
 11
-13.118046
 21
14.775
 31
0.0
 73
     2
  0
TEXT
  8
PARAMS
 62
     7
  5
10A
 10
-13.255546
 20
20.725
 30
0.0
 40
0.1
  1
logic
  7
STYLE3
 72
     1
 11
-13.118046
 21
20.775
 31
0.0
 73
     2
  0
TEXT
  8
PARAMS
 62
     7
  5
10B
 10
-13.200546
 20
8.575
 30
0.0
 40
0.1
  1
and
  7
STYLE3
 72
     1
 11
-13.118046
 21
8.625
 31
0.0
 73
     2
  0
TEXT
  8
PARAMS
 62
     7
  5
10C
 10
-13.200546
 20
14.575
 30
0.0
 40
0.1
  1
and
  7
STYLE3
 72
     1
 11
-13.118046
 21
14.625
 31
0.0
 73
     2
  0
TEXT
  8
PARAMS
 62
     7
  5
10D
 10
-13.200546
 20
20.575
 30
0.0
 40
0.1
  1
and
  7
STYLE3
 72
     1
 11
-13.118046
 21
20.625
 31
0.0
 73
     2
  0
TEXT
  8
PARAMS
 62
     7
  5
10E
 10
-13.283046
 20
8.425
 30
0.0
 40
0.1
  1
timing
  7
STYLE3
 72
     1
 11
-13.118046
 21
8.475
 31
0.0
 73
     2
  0
TEXT
  8
PARAMS
 62
     7
  5
10F
 10
-13.283046
 20
14.425
 30
0.0
 40
0.1
  1
timing
  7
STYLE3
 72
     1
 11
-13.118046
 21
14.475
 31
0.0
 73
     2
  0
TEXT
  8
PARAMS
 62
     7
  5
110
 10
-13.283046
 20
20.425
 30
0.0
 40
0.1
  1
timing
  7
STYLE3
 72
     1
 11
-13.118046
 21
20.475
 31
0.0
 73
     2
  0
TEXT
  8
PARAMS
 62
     7
  5
111
 10
-18.1475
 20
8.55
 30
0.0
 40
0.1
  1
frequency
  7
STYLE3
 72
     1
 11
-17.9
 21
8.6
 31
0.0
 73
     2
  0
TEXT
  8
PARAMS
 62
     7
  5
112
 10
-17.9475
 20
14.55
 30
0.0
 40
0.1
  1
frequency
  7
STYLE3
 72
     1
 11
-17.7
 21
14.6
 31
0.0
 73
     2
  0
TEXT
  8
PARAMS
 62
     7
  5
113
 10
-17.9475
 20
20.55
 30
0.0
 40
0.1
  1
frequency
  7
STYLE3
 72
     1
 11
-17.7
 21
20.6
 31
0.0
 73
     2
  0
TEXT
  8
PARAMS
 62
     7
  5
114
 10
-11.765546
 20
14.85
 30
0.0
 40
0.1
  1
stepspace
 50
0.000005
  7
STYLE3
 72
     1
 11
-11.518046
 21
14.9
 31
0.0
 73
     2
  0
TEXT
  8
PARAMS
 62
     7
  5
115
 10
-11.765546
 20
20.85
 30
0.0
 40
0.1
  1
stepspace
 50
0.000005
  7
STYLE3
 72
     1
 11
-11.518046
 21
20.9
 31
0.0
 73
     2
  0
TEXT
  8
PARAMS
 62
     7
  5
116
 10
-11.738046
 20
20.55
 30
0.0
 40
0.1
  1
dirsetup
 50
0.000005
  7
STYLE3
 72
     1
 11
-11.518046
 21
20.6
 31
0.0
 73
     2
  0
TEXT
  8
PARAMS
 62
     7
  5
117
 10
-11.738046
 20
8.55
 30
0.0
 40
0.1
  1
dirdelay
 50
0.000005
  7
STYLE3
 72
     1
 11
-11.518046
 21
8.6
 31
0.0
 73
     2
  0
TEXT
  8
PARAMS
 62
     7
  5
118
 10
-11.738046
 20
14.25
 30
0.0
 40
0.1
  1
dirdelay
 50
0.000005
  7
STYLE3
 72
     1
 11
-11.518046
 21
14.3
 31
0.0
 73
     2
  0
TEXT
  8
PARAMS
 62
     7
  5
119
 10
-11.710546
 20
20.25
 30
0.0
 40
0.1
  1
dirhold
 50
0.000005
  7
STYLE3
 72
     1
 11
-11.518046
 21
20.3
 31
0.0
 73
     2
  0
TEXT
  8
PARAMS
 62
     7
  5
11A
 10
-11.710546
 20
8.85
 30
0.0
 40
0.1
  1
steplen
 50
0.000005
  7
STYLE3
 72
     1
 11
-11.518046
 21
8.9
 31
0.0
 73
     2
  0
TEXT
  8
PARAMS
 62
     7
  5
11B
 10
-11.710546
 20
15.15
 30
0.0
 40
0.1
  1
steplen
 50
0.000005
  7
STYLE3
 72
     1
 11
-11.518046
 21
15.2
 31
0.0
 73
     2
  0
TEXT
  8
PARAMS
 62
     7
  5
11C
 10
-11.710546
 20
21.15
 30
0.0
 40
0.1
  1
steplen
 50
0.000005
  7
STYLE3
 72
     1
 11
-11.518046
 21
21.2
 31
0.0
 73
     2
  0
TEXT
  8
PARAMS
 62
     7
  5
11D
 10
-14.9475
 20
11.05
 30
0.0
 40
0.1
  1
rawcounts
  7
STYLE3
 72
     1
 11
-14.7
 21
11.1
 31
0.0
 73
     2
  0
TEXT
  8
PARAMS
 62
     7
  5
11E
 10
-14.9475
 20
17.05
 30
0.0
 40
0.1
  1
rawcounts
  7
STYLE3
 72
     1
 11
-14.7
 21
17.1
 31
0.0
 73
     2
  0
TEXT
  8
PARAMS
 62
     7
  5
11F
 10
-14.9475
 20
23.05
 30
0.0
 40
0.1
  1
rawcounts
  7
STYLE3
 72
     1
 11
-14.7
 21
23.1
 31
0.0
 73
     2
  0
TEXT
  8
PARAMS
 62
     7
  5
120
 10
-24.485
 20
8.25
 30
0.0
 40
0.1
  1
position-scale
  7
STYLE3
 72
     1
 11
-24.1
 21
8.3
 31
0.0
 73
     2
  0
TEXT
  8
PARAMS
 62
     7
  5
121
 10
-24.585
 20
14.25
 30
0.0
 40
0.1
  1
position-scale
  7
STYLE3
 72
     1
 11
-24.2
 21
14.3
 31
0.0
 73
     2
  0
TEXT
  8
PARAMS
 62
     7
  5
122
 10
-24.585
 20
20.25
 30
0.0
 40
0.1
  1
position-scale
  7
STYLE3
 72
     1
 11
-24.2
 21
20.3
 31
0.0
 73
     2
  0
LINE
  8
PARAMS
 62
     7
  5
123
 10
-20.6
 20
6.4
 30
0.0
 11
-20.6
 21
6.6
 31
0.0
  0
LINE
  8
PARAMS
 62
     7
  5
124
 10
-21.2
 20
12.4
 30
0.0
 11
-21.2
 21
12.6
 31
0.0
  0
LINE
  8
PARAMS
 62
     7
  5
125
 10
-21.2
 20
18.4
 30
0.0
 11
-21.2
 21
18.6
 31
0.0
  0
LINE
  8
PARAMS
 62
     7
  5
126
 10
-20.6
 20
6.7
 30
0.0
 11
-20.6
 21
6.9
 31
0.0
  0
LINE
  8
PARAMS
 62
     7
  5
127
 10
-18.7
 20
12.7
 30
0.0
 11
-18.7
 21
12.9
 31
0.0
  0
LINE
  8
PARAMS
 62
     7
  5
128
 10
-18.7
 20
18.7
 30
0.0
 11
-18.7
 21
18.9
 31
0.0
  0
LINE
  8
PARAMS
 62
     7
  5
129
 10
-18.5
 20
8.5
 30
0.0
 11
-18.5
 21
8.7
 31
0.0
  0
LINE
  8
PARAMS
 62
     7
  5
12A
 10
-18.3
 20
14.5
 30
0.0
 11
-18.3
 21
14.7
 31
0.0
  0
LINE
  8
PARAMS
 62
     7
  5
12B
 10
-18.3
 20
20.5
 30
0.0
 11
-18.3
 21
20.7
 31
0.0
  0
LINE
  8
PARAMS
 62
     7
  5
12C
 10
-10.918046
 20
14.8
 30
0.0
 11
-10.918046
 21
15.0
 31
0.0
  0
LINE
  8
PARAMS
 62
     7
  5
12D
 10
-10.918046
 20
20.8
 30
0.0
 11
-10.918046
 21
21.0
 31
0.0
  0
LINE
  8
PARAMS
 62
     7
  5
12E
 10
-10.918046
 20
20.5
 30
0.0
 11
-10.918046
 21
20.7
 31
0.0
  0
LINE
  8
PARAMS
 62
     7
  5
12F
 10
-10.918046
 20
8.5
 30
0.0
 11
-10.918046
 21
8.7
 31
0.0
  0
LINE
  8
PARAMS
 62
     7
  5
130
 10
-10.918046
 20
14.2
 30
0.0
 11
-10.918046
 21
14.4
 31
0.0
  0
LINE
  8
PARAMS
 62
     7
  5
131
 10
-10.918046
 20
20.2
 30
0.0
 11
-10.918046
 21
20.4
 31
0.0
  0
LINE
  8
PARAMS
 62
     7
  5
132
 10
-10.918046
 20
8.8
 30
0.0
 11
-10.918046
 21
9.0
 31
0.0
  0
LINE
  8
PARAMS
 62
     7
  5
133
 10
-10.918046
 20
15.1
 30
0.0
 11
-10.918046
 21
15.3
 31
0.0
  0
LINE
  8
PARAMS
 62
     7
  5
134
 10
-10.918046
 20
21.1
 30
0.0
 11
-10.918046
 21
21.3
 31
0.0
  0
LINE
  8
PARAMS
 62
     7
  5
135
 10
-15.3
 20
11.0
 30
0.0
 11
-15.3
 21
11.2
 31
0.0
  0
LINE
  8
PARAMS
 62
     7
  5
136
 10
-15.3
 20
17.0
 30
0.0
 11
-15.3
 21
17.2
 31
0.0
  0
LINE
  8
PARAMS
 62
     7
  5
137
 10
-15.3
 20
23.0
 30
0.0
 11
-15.3
 21
23.2
 31
0.0
  0
LINE
  8
PARAMS
 62
     7
  5
138
 10
-24.7
 20
8.2
 30
0.0
 11
-24.7
 21
8.4
 31
0.0
  0
LINE
  8
PARAMS
 62
     7
  5
139
 10
-24.8
 20
14.2
 30
0.0
 11
-24.8
 21
14.4
 31
0.0
  0
LINE
  8
PARAMS
 62
     7
  5
13A
 10
-24.8
 20
20.2
 30
0.0
 11
-24.8
 21
20.4
 31
0.0
  0
LINE
  8
PARAMS
 62
     7
  5
13B
 10
-20.6
 20
6.6
 30
0.0
 11
-19.4
 21
6.6
 31
0.0
  0
LINE
  8
PARAMS
 62
     7
  5
13C
 10
-21.2
 20
12.6
 30
0.0
 11
-20.0
 21
12.6
 31
0.0
  0
LINE
  8
PARAMS
 62
     7
  5
13D
 10
-21.2
 20
18.6
 30
0.0
 11
-20.0
 21
18.6
 31
0.0
  0
LINE
  8
PARAMS
 62
     7
  5
13E
 10
-20.6
 20
6.9
 30
0.0
 11
-19.4
 21
6.9
 31
0.0
  0
LINE
  8
PARAMS
 62
     7
  5
13F
 10
-18.7
 20
12.9
 30
0.0
 11
-17.5
 21
12.9
 31
0.0
  0
LINE
  8
PARAMS
 62
     7
  5
140
 10
-18.7
 20
18.9
 30
0.0
 11
-17.5
 21
18.9
 31
0.0
  0
LINE
  8
PARAMS
 62
     7
  5
141
 10
-18.5
 20
8.7
 30
0.0
 11
-17.3
 21
8.7
 31
0.0
  0
LINE
  8
PARAMS
 62
     7
  5
142
 10
-18.3
 20
14.7
 30
0.0
 11
-17.1
 21
14.7
 31
0.0
  0
LINE
  8
PARAMS
 62
     7
  5
143
 10
-18.3
 20
20.7
 30
0.0
 11
-17.1
 21
20.7
 31
0.0
  0
LINE
  8
PARAMS
 62
     7
  5
144
 10
-10.918046
 20
15.0
 30
0.0
 11
-12.118046
 21
15.0
 31
0.0
  0
LINE
  8
PARAMS
 62
     7
  5
145
 10
-10.918046
 20
21.0
 30
0.0
 11
-12.118046
 21
21.0
 31
0.0
  0
LINE
  8
PARAMS
 62
     7
  5
146
 10
-10.918046
 20
20.7
 30
0.0
 11
-12.118046
 21
20.7
 31
0.0
  0
LINE
  8
PARAMS
 62
     7
  5
147
 10
-10.918046
 20
8.7
 30
0.0
 11
-12.118046
 21
8.7
 31
0.0
  0
LINE
  8
PARAMS
 62
     7
  5
148
 10
-10.918046
 20
14.4
 30
0.0
 11
-12.118046
 21
14.4
 31
0.0
  0
LINE
  8
PARAMS
 62
     7
  5
149
 10
-10.918046
 20
20.4
 30
0.0
 11
-12.118046
 21
20.4
 31
0.0
  0
LINE
  8
PARAMS
 62
     7
  5
14A
 10
-10.918046
 20
9.0
 30
0.0
 11
-12.118046
 21
9.0
 31
0.0
  0
LINE
  8
PARAMS
 62
     7
  5
14B
 10
-10.918046
 20
15.3
 30
0.0
 11
-12.118046
 21
15.3
 31
0.0
  0
LINE
  8
PARAMS
 62
     7
  5
14C
 10
-10.918046
 20
21.3
 30
0.0
 11
-12.118046
 21
21.3
 31
0.0
  0
LINE
  8
PARAMS
 62
     7
  5
14D
 10
-15.3
 20
11.2
 30
0.0
 11
-14.1
 21
11.2
 31
0.0
  0
LINE
  8
PARAMS
 62
     7
  5
14E
 10
-15.3
 20
17.2
 30
0.0
 11
-14.1
 21
17.2
 31
0.0
  0
LINE
  8
PARAMS
 62
     7
  5
14F
 10
-15.3
 20
23.2
 30
0.0
 11
-14.1
 21
23.2
 31
0.0
  0
LINE
  8
PARAMS
 62
     7
  5
150
 10
-24.7
 20
8.4
 30
0.0
 11
-23.5
 21
8.4
 31
0.0
  0
LINE
  8
PARAMS
 62
     7
  5
151
 10
-24.8
 20
14.4
 30
0.0
 11
-23.6
 21
14.4
 31
0.0
  0
LINE
  8
PARAMS
 62
     7
  5
152
 10
-24.8
 20
20.4
 30
0.0
 11
-23.6
 21
20.4
 31
0.0
  0
LINE
  8
PARAMS
 62
     7
  5
153
 10
-19.4
 20
6.6
 30
0.0
 11
-19.4
 21
6.4
 31
0.0
  0
LINE
  8
PARAMS
 62
     7
  5
154
 10
-20.0
 20
12.6
 30
0.0
 11
-20.0
 21
12.4
 31
0.0
  0
LINE
  8
PARAMS
 62
     7
  5
155
 10
-20.0
 20
18.6
 30
0.0
 11
-20.0
 21
18.4
 31
0.0
  0
LINE
  8
PARAMS
 62
     7
  5
156
 10
-19.4
 20
6.9
 30
0.0
 11
-19.4
 21
6.7
 31
0.0
  0
LINE
  8
PARAMS
 62
     7
  5
157
 10
-17.5
 20
12.9
 30
0.0
 11
-17.5
 21
12.7
 31
0.0
  0
LINE
  8
PARAMS
 62
     7
  5
158
 10
-17.5
 20
18.9
 30
0.0
 11
-17.5
 21
18.7
 31
0.0
  0
LINE
  8
PARAMS
 62
     7
  5
159
 10
-17.3
 20
8.7
 30
0.0
 11
-17.3
 21
8.5
 31
0.0
  0
LINE
  8
PARAMS
 62
     7
  5
15A
 10
-17.1
 20
14.7
 30
0.0
 11
-17.1
 21
14.5
 31
0.0
  0
LINE
  8
PARAMS
 62
     7
  5
15B
 10
-17.1
 20
20.7
 30
0.0
 11
-17.1
 21
20.5
 31
0.0
  0
LINE
  8
PARAMS
 62
     7
  5
15C
 10
-12.118046
 20
15.0
 30
0.0
 11
-12.118046
 21
14.8
 31
0.0
  0
LINE
  8
PARAMS
 62
     7
  5
15D
 10
-12.118046
 20
21.0
 30
0.0
 11
-12.118046
 21
20.8
 31
0.0
  0
LINE
  8
PARAMS
 62
     7
  5
15E
 10
-12.118046
 20
20.7
 30
0.0
 11
-12.118046
 21
20.5
 31
0.0
  0
LINE
  8
PARAMS
 62
     7
  5
15F
 10
-12.118046
 20
8.7
 30
0.0
 11
-12.118046
 21
8.5
 31
0.0
  0
LINE
  8
PARAMS
 62
     7
  5
160
 10
-12.118046
 20
14.4
 30
0.0
 11
-12.118046
 21
14.2
 31
0.0
  0
LINE
  8
PARAMS
 62
     7
  5
161
 10
-12.118046
 20
20.4
 30
0.0
 11
-12.118046
 21
20.2
 31
0.0
  0
LINE
  8
PARAMS
 62
     7
  5
162
 10
-12.118046
 20
9.0
 30
0.0
 11
-12.118046
 21
8.8
 31
0.0
  0
LINE
  8
PARAMS
 62
     7
  5
163
 10
-12.118046
 20
15.3
 30
0.0
 11
-12.118046
 21
15.1
 31
0.0
  0
LINE
  8
PARAMS
 62
     7
  5
164
 10
-12.118046
 20
21.3
 30
0.0
 11
-12.118046
 21
21.1
 31
0.0
  0
LINE
  8
PARAMS
 62
     7
  5
165
 10
-14.1
 20
11.2
 30
0.0
 11
-14.1
 21
11.0
 31
0.0
  0
LINE
  8
PARAMS
 62
     7
  5
166
 10
-14.1
 20
17.2
 30
0.0
 11
-14.1
 21
17.0
 31
0.0
  0
LINE
  8
PARAMS
 62
     7
  5
167
 10
-14.1
 20
23.2
 30
0.0
 11
-14.1
 21
23.0
 31
0.0
  0
LINE
  8
PARAMS
 62
     7
  5
168
 10
-23.5
 20
8.4
 30
0.0
 11
-23.5
 21
8.2
 31
0.0
  0
LINE
  8
PARAMS
 62
     7
  5
169
 10
-23.6
 20
14.4
 30
0.0
 11
-23.6
 21
14.2
 31
0.0
  0
LINE
  8
PARAMS
 62
     7
  5
16A
 10
-23.6
 20
20.4
 30
0.0
 11
-23.6
 21
20.2
 31
0.0
  0
LINE
  8
PARAMS
 62
     7
  5
16B
 10
-19.4
 20
6.4
 30
0.0
 11
-20.6
 21
6.4
 31
0.0
  0
LINE
  8
PARAMS
 62
     7
  5
16C
 10
-20.0
 20
12.4
 30
0.0
 11
-21.2
 21
12.4
 31
0.0
  0
LINE
  8
PARAMS
 62
     7
  5
16D
 10
-20.0
 20
18.4
 30
0.0
 11
-21.2
 21
18.4
 31
0.0
  0
LINE
  8
PARAMS
 62
     7
  5
16E
 10
-19.4
 20
6.7
 30
0.0
 11
-20.6
 21
6.7
 31
0.0
  0
LINE
  8
PARAMS
 62
     7
  5
16F
 10
-17.5
 20
12.7
 30
0.0
 11
-18.7
 21
12.7
 31
0.0
  0
LINE
  8
PARAMS
 62
     7
  5
170
 10
-17.5
 20
18.7
 30
0.0
 11
-18.7
 21
18.7
 31
0.0
  0
LINE
  8
PARAMS
 62
     7
  5
171
 10
-17.3
 20
8.5
 30
0.0
 11
-18.5
 21
8.5
 31
0.0
  0
LINE
  8
PARAMS
 62
     7
  5
172
 10
-17.1
 20
14.5
 30
0.0
 11
-18.3
 21
14.5
 31
0.0
  0
LINE
  8
PARAMS
 62
     7
  5
173
 10
-17.1
 20
20.5
 30
0.0
 11
-18.3
 21
20.5
 31
0.0
  0
LINE
  8
PARAMS
 62
     7
  5
174
 10
-12.118046
 20
14.8
 30
0.0
 11
-10.918046
 21
14.8
 31
0.0
  0
LINE
  8
PARAMS
 62
     7
  5
175
 10
-12.118046
 20
20.8
 30
0.0
 11
-10.918046
 21
20.8
 31
0.0
  0
LINE
  8
PARAMS
 62
     7
  5
176
 10
-12.118046
 20
20.5
 30
0.0
 11
-10.918046
 21
20.5
 31
0.0
  0
LINE
  8
PARAMS
 62
     7
  5
177
 10
-12.118046
 20
8.5
 30
0.0
 11
-10.918046
 21
8.5
 31
0.0
  0
LINE
  8
PARAMS
 62
     7
  5
178
 10
-12.118046
 20
14.2
 30
0.0
 11
-10.918046
 21
14.2
 31
0.0
  0
LINE
  8
PARAMS
 62
     7
  5
179
 10
-12.118046
 20
20.2
 30
0.0
 11
-10.918046
 21
20.2
 31
0.0
  0
LINE
  8
PARAMS
 62
     7
  5
17A
 10
-12.118046
 20
8.8
 30
0.0
 11
-10.918046
 21
8.8
 31
0.0
  0
LINE
  8
PARAMS
 62
     7
  5
17B
 10
-12.118046
 20
15.1
 30
0.0
 11
-10.918046
 21
15.1
 31
0.0
  0
LINE
  8
PARAMS
 62
     7
  5
17C
 10
-12.118046
 20
21.1
 30
0.0
 11
-10.918046
 21
21.1
 31
0.0
  0
LINE
  8
PARAMS
 62
     7
  5
17D
 10
-14.1
 20
11.0
 30
0.0
 11
-15.3
 21
11.0
 31
0.0
  0
LINE
  8
PARAMS
 62
     7
  5
17E
 10
-14.1
 20
17.0
 30
0.0
 11
-15.3
 21
17.0
 31
0.0
  0
LINE
  8
PARAMS
 62
     7
  5
17F
 10
-14.1
 20
23.0
 30
0.0
 11
-15.3
 21
23.0
 31
0.0
  0
LINE
  8
PARAMS
 62
     7
  5
180
 10
-23.5
 20
8.2
 30
0.0
 11
-24.7
 21
8.2
 31
0.0
  0
LINE
  8
PARAMS
 62
     7
  5
181
 10
-23.6
 20
14.2
 30
0.0
 11
-24.8
 21
14.2
 31
0.0
  0
LINE
  8
PARAMS
 62
     7
  5
182
 10
-23.6
 20
20.2
 30
0.0
 11
-24.8
 21
20.2
 31
0.0
  0
POLYLINE
  8
0
 62
     7
  5
183
 66
     1
 10
0.0
 20
0.0
 30
0.0
 70
     1
  0
VERTEX
  8
0
 62
     7
  5
184
 10
-15.3
 20
7.3
 30
0.0
  0
VERTEX
  8
0
 62
     7
  5
185
 10
-15.3
 20
7.9
 30
0.0
  0
VERTEX
  8
0
 62
     7
  5
186
 10
-14.5
 20
7.9
 30
0.0
  0
VERTEX
  8
0
 62
     7
  5
187
 10
-14.5
 20
7.3
 30
0.0
  0
VERTEX
  8
0
 62
     7
  5
188
 10
-15.3
 20
7.3
 30
0.0
  0
VERTEX
  8
0
 62
     7
  5
189
 10
-15.3
 20
7.3
 30
0.0
  0
SEQEND
  8
0
  5
18A
  0
POLYLINE
  8
0
 62
     7
  5
18B
 66
     1
 10
0.0
 20
0.0
 30
0.0
 70
     1
  0
VERTEX
  8
0
 62
     7
  5
18C
 10
-15.3
 20
13.3
 30
0.0
  0
VERTEX
  8
0
 62
     7
  5
18D
 10
-15.3
 20
13.9
 30
0.0
  0
VERTEX
  8
0
 62
     7
  5
18E
 10
-14.5
 20
13.9
 30
0.0
  0
VERTEX
  8
0
 62
     7
  5
18F
 10
-14.5
 20
13.3
 30
0.0
  0
VERTEX
  8
0
 62
     7
  5
190
 10
-15.3
 20
13.3
 30
0.0
  0
VERTEX
  8
0
 62
     7
  5
191
 10
-15.3
 20
13.3
 30
0.0
  0
SEQEND
  8
0
  5
192
  0
POLYLINE
  8
0
 62
     7
  5
193
 66
     1
 10
0.0
 20
0.0
 30
0.0
 70
     1
  0
VERTEX
  8
0
 62
     7
  5
194
 10
-15.3
 20
19.3
 30
0.0
  0
VERTEX
  8
0
 62
     7
  5
195
 10
-15.3
 20
19.9
 30
0.0
  0
VERTEX
  8
0
 62
     7
  5
196
 10
-14.5
 20
19.9
 30
0.0
  0
VERTEX
  8
0
 62
     7
  5
197
 10
-14.5
 20
19.3
 30
0.0
  0
VERTEX
  8
0
 62
     7
  5
198
 10
-15.3
 20
19.3
 30
0.0
  0
VERTEX
  8
0
 62
     7
  5
199
 10
-15.3
 20
19.3
 30
0.0
  0
SEQEND
  8
0
  5
19A
  0
POLYLINE
  8
0
 62
     7
  5
19B
 66
     1
 10
0.0
 20
0.0
 30
0.0
 70
     1
  0
VERTEX
  8
0
 62
     7
  5
19C
 10
-18.1
 20
7.3
 30
0.0
  0
VERTEX
  8
0
 62
     7
  5
19D
 10
-18.1
 20
7.9
 30
0.0
  0
VERTEX
  8
0
 62
     7
  5
19E
 10
-17.5
 20
7.9
 30
0.0
  0
VERTEX
  8
0
 62
     7
  5
19F
 10
-17.5
 20
7.3
 30
0.0
  0
VERTEX
  8
0
 62
     7
  5
1A0
 10
-18.1
 20
7.3
 30
0.0
  0
VERTEX
  8
0
 62
     7
  5
1A1
 10
-18.1
 20
7.3
 30
0.0
  0
SEQEND
  8
0
  5
1A2
  0
POLYLINE
  8
0
 62
     7
  5
1A3
 66
     1
 10
0.0
 20
0.0
 30
0.0
 70
     1
  0
VERTEX
  8
0
 62
     7
  5
1A4
 10
-16.2
 20
7.3
 30
0.0
  0
VERTEX
  8
0
 62
     7
  5
1A5
 10
-16.2
 20
7.9
 30
0.0
  0
VERTEX
  8
0
 62
     7
  5
1A6
 10
-15.6
 20
7.9
 30
0.0
  0
VERTEX
  8
0
 62
     7
  5
1A7
 10
-15.6
 20
7.3
 30
0.0
  0
VERTEX
  8
0
 62
     7
  5
1A8
 10
-16.2
 20
7.3
 30
0.0
  0
VERTEX
  8
0
 62
     7
  5
1A9
 10
-16.2
 20
7.3
 30
0.0
  0
SEQEND
  8
0
  5
1AA
  0
POLYLINE
  8
0
 62
     7
  5
1AB
 66
     1
 10
0.0
 20
0.0
 30
0.0
 70
     1
  0
VERTEX
  8
0
 62
     7
  5
1AC
 10
-16.2
 20
13.3
 30
0.0
  0
VERTEX
  8
0
 62
     7
  5
1AD
 10
-16.2
 20
13.9
 30
0.0
  0
VERTEX
  8
0
 62
     7
  5
1AE
 10
-15.6
 20
13.9
 30
0.0
  0
VERTEX
  8
0
 62
     7
  5
1AF
 10
-15.6
 20
13.3
 30
0.0
  0
VERTEX
  8
0
 62
     7
  5
1B0
 10
-16.2
 20
13.3
 30
0.0
  0
VERTEX
  8
0
 62
     7
  5
1B1
 10
-16.2
 20
13.3
 30
0.0
  0
SEQEND
  8
0
  5
1B2
  0
POLYLINE
  8
0
 62
     7
  5
1B3
 66
     1
 10
0.0
 20
0.0
 30
0.0
 70
     1
  0
VERTEX
  8
0
 62
     7
  5
1B4
 10
-16.2
 20
19.3
 30
0.0
  0
VERTEX
  8
0
 62
     7
  5
1B5
 10
-16.2
 20
19.9
 30
0.0
  0
VERTEX
  8
0
 62
     7
  5
1B6
 10
-15.6
 20
19.9
 30
0.0
  0
VERTEX
  8
0
 62
     7
  5
1B7
 10
-15.6
 20
19.3
 30
0.0
  0
VERTEX
  8
0
 62
     7
  5
1B8
 10
-16.2
 20
19.3
 30
0.0
  0
VERTEX
  8
0
 62
     7
  5
1B9
 10
-16.2
 20
19.3
 30
0.0
  0
SEQEND
  8
0
  5
1BA
  0
POLYLINE
  8
0
 62
     7
  5
1BB
 66
     1
 10
0.0
 20
0.0
 30
0.0
 70
     1
  0
VERTEX
  8
0
 62
     7
  5
1BC
 10
-19.4
 20
13.3
 30
0.0
  0
VERTEX
  8
0
 62
     7
  5
1BD
 10
-19.4
 20
13.9
 30
0.0
  0
VERTEX
  8
0
 62
     7
  5
1BE
 10
-18.8
 20
13.9
 30
0.0
  0
VERTEX
  8
0
 62
     7
  5
1BF
 10
-18.8
 20
13.3
 30
0.0
  0
VERTEX
  8
0
 62
     7
  5
1C0
 10
-19.4
 20
13.3
 30
0.0
  0
VERTEX
  8
0
 62
     7
  5
1C1
 10
-19.4
 20
13.3
 30
0.0
  0
SEQEND
  8
0
  5
1C2
  0
POLYLINE
  8
0
 62
     7
  5
1C3
 66
     1
 10
0.0
 20
0.0
 30
0.0
 70
     1
  0
VERTEX
  8
0
 62
     7
  5
1C4
 10
-19.4
 20
19.3
 30
0.0
  0
VERTEX
  8
0
 62
     7
  5
1C5
 10
-19.4
 20
19.9
 30
0.0
  0
VERTEX
  8
0
 62
     7
  5
1C6
 10
-18.8
 20
19.9
 30
0.0
  0
VERTEX
  8
0
 62
     7
  5
1C7
 10
-18.8
 20
19.3
 30
0.0
  0
VERTEX
  8
0
 62
     7
  5
1C8
 10
-19.4
 20
19.3
 30
0.0
  0
VERTEX
  8
0
 62
     7
  5
1C9
 10
-19.4
 20
19.3
 30
0.0
  0
SEQEND
  8
0
  5
1CA
  0
POLYLINE
  8
0
 62
     7
  5
1CB
 66
     1
 10
0.0
 20
0.0
 30
0.0
 70
     1
  0
VERTEX
  8
0
 62
     7
  5
1CC
 10
-19.4
 20
7.3
 30
0.0
  0
VERTEX
  8
0
 62
     7
  5
1CD
 10
-19.4
 20
7.9
 30
0.0
  0
VERTEX
  8
0
 62
     7
  5
1CE
 10
-18.8
 20
7.9
 30
0.0
  0
VERTEX
  8
0
 62
     7
  5
1CF
 10
-18.8
 20
7.3
 30
0.0
  0
VERTEX
  8
0
 62
     7
  5
1D0
 10
-19.4
 20
7.3
 30
0.0
  0
VERTEX
  8
0
 62
     7
  5
1D1
 10
-19.4
 20
7.3
 30
0.0
  0
SEQEND
  8
0
  5
1D2
  0
POLYLINE
  8
0
 62
     7
  5
1D3
 66
     1
 10
0.0
 20
0.0
 30
0.0
 70
     1
  0
VERTEX
  8
0
 62
     7
  5
1D4
 10
-14.6
 20
8.4
 30
0.0
  0
VERTEX
  8
0
 62
     7
  5
1D5
 10
-14.6
 20
9.0
 30
0.0
  0
VERTEX
  8
0
 62
     7
  5
1D6
 10
-14.0
 20
9.0
 30
0.0
  0
VERTEX
  8
0
 62
     7
  5
1D7
 10
-14.0
 20
8.4
 30
0.0
  0
VERTEX
  8
0
 62
     7
  5
1D8
 10
-14.6
 20
8.4
 30
0.0
  0
VERTEX
  8
0
 62
     7
  5
1D9
 10
-14.6
 20
8.4
 30
0.0
  0
SEQEND
  8
0
  5
1DA
  0
POLYLINE
  8
0
 62
     7
  5
1DB
 66
     1
 10
0.0
 20
0.0
 30
0.0
 70
     1
  0
VERTEX
  8
0
 62
     7
  5
1DC
 10
-14.6
 20
14.4
 30
0.0
  0
VERTEX
  8
0
 62
     7
  5
1DD
 10
-14.6
 20
15.0
 30
0.0
  0
VERTEX
  8
0
 62
     7
  5
1DE
 10
-14.0
 20
15.0
 30
0.0
  0
VERTEX
  8
0
 62
     7
  5
1DF
 10
-14.0
 20
14.4
 30
0.0
  0
VERTEX
  8
0
 62
     7
  5
1E0
 10
-14.6
 20
14.4
 30
0.0
  0
VERTEX
  8
0
 62
     7
  5
1E1
 10
-14.6
 20
14.4
 30
0.0
  0
SEQEND
  8
0
  5
1E2
  0
POLYLINE
  8
0
 62
     7
  5
1E3
 66
     1
 10
0.0
 20
0.0
 30
0.0
 70
     1
  0
VERTEX
  8
0
 62
     7
  5
1E4
 10
-14.6
 20
20.4
 30
0.0
  0
VERTEX
  8
0
 62
     7
  5
1E5
 10
-14.6
 20
21.0
 30
0.0
  0
VERTEX
  8
0
 62
     7
  5
1E6
 10
-14.0
 20
21.0
 30
0.0
  0
VERTEX
  8
0
 62
     7
  5
1E7
 10
-14.0
 20
20.4
 30
0.0
  0
VERTEX
  8
0
 62
     7
  5
1E8
 10
-14.6
 20
20.4
 30
0.0
  0
VERTEX
  8
0
 62
     7
  5
1E9
 10
-14.6
 20
20.4
 30
0.0
  0
SEQEND
  8
0
  5
1EA
  0
POLYLINE
  8
0
 62
     7
  5
1EB
 66
     1
 10
0.0
 20
0.0
 30
0.0
 70
     1
  0
VERTEX
  8
0
 62
     7
  5
1EC
 10
-17.5
 20
13.3
 30
0.0
  0
VERTEX
  8
0
 62
     7
  5
1ED
 10
-17.5
 20
13.9
 30
0.0
  0
VERTEX
  8
0
 62
     7
  5
1EE
 10
-16.9
 20
13.9
 30
0.0
  0
VERTEX
  8
0
 62
     7
  5
1EF
 10
-16.9
 20
13.3
 30
0.0
  0
VERTEX
  8
0
 62
     7
  5
1F0
 10
-17.5
 20
13.3
 30
0.0
  0
VERTEX
  8
0
 62
     7
  5
1F1
 10
-17.5
 20
13.3
 30
0.0
  0
SEQEND
  8
0
  5
1F2
  0
POLYLINE
  8
0
 62
     7
  5
1F3
 66
     1
 10
0.0
 20
0.0
 30
0.0
 70
     1
  0
VERTEX
  8
0
 62
     7
  5
1F4
 10
-17.5
 20
19.3
 30
0.0
  0
VERTEX
  8
0
 62
     7
  5
1F5
 10
-17.5
 20
19.9
 30
0.0
  0
VERTEX
  8
0
 62
     7
  5
1F6
 10
-16.9
 20
19.9
 30
0.0
  0
VERTEX
  8
0
 62
     7
  5
1F7
 10
-16.9
 20
19.3
 30
0.0
  0
VERTEX
  8
0
 62
     7
  5
1F8
 10
-17.5
 20
19.3
 30
0.0
  0
VERTEX
  8
0
 62
     7
  5
1F9
 10
-17.5
 20
19.3
 30
0.0
  0
SEQEND
  8
0
  5
1FA
  0
POLYLINE
  8
0
 62
     7
  5
1FB
 66
     1
 10
0.0
 20
0.0
 30
0.0
 70
     1
  0
VERTEX
  8
0
 62
     7
  5
1FC
 10
-20.2
 20
10.0
 30
0.0
  0
VERTEX
  8
0
 62
     7
  5
1FD
 10
-20.2
 20
10.8
 30
0.0
  0
VERTEX
  8
0
 62
     7
  5
1FE
 10
-19.6
 20
10.8
 30
0.0
  0
VERTEX
  8
0
 62
     7
  5
1FF
 10
-19.6
 20
10.0
 30
0.0
  0
VERTEX
  8
0
 62
     7
  5
200
 10
-20.2
 20
10.0
 30
0.0
  0
VERTEX
  8
0
 62
     7
  5
201
 10
-20.2
 20
10.0
 30
0.0
  0
SEQEND
  8
0
  5
202
  0
POLYLINE
  8
0
 62
     7
  5
203
 66
     1
 10
0.0
 20
0.0
 30
0.0
 70
     1
  0
VERTEX
  8
0
 62
     7
  5
204
 10
-20.2
 20
16.0
 30
0.0
  0
VERTEX
  8
0
 62
     7
  5
205
 10
-20.2
 20
16.8
 30
0.0
  0
VERTEX
  8
0
 62
     7
  5
206
 10
-19.6
 20
16.8
 30
0.0
  0
VERTEX
  8
0
 62
     7
  5
207
 10
-19.6
 20
16.0
 30
0.0
  0
VERTEX
  8
0
 62
     7
  5
208
 10
-20.2
 20
16.0
 30
0.0
  0
VERTEX
  8
0
 62
     7
  5
209
 10
-20.2
 20
16.0
 30
0.0
  0
SEQEND
  8
0
  5
20A
  0
POLYLINE
  8
0
 62
     7
  5
20B
 66
     1
 10
0.0
 20
0.0
 30
0.0
 70
     1
  0
VERTEX
  8
0
 62
     7
  5
20C
 10
-20.2
 20
22.0
 30
0.0
  0
VERTEX
  8
0
 62
     7
  5
20D
 10
-20.2
 20
22.8
 30
0.0
  0
VERTEX
  8
0
 62
     7
  5
20E
 10
-19.6
 20
22.8
 30
0.0
  0
VERTEX
  8
0
 62
     7
  5
20F
 10
-19.6
 20
22.0
 30
0.0
  0
VERTEX
  8
0
 62
     7
  5
210
 10
-20.2
 20
22.0
 30
0.0
  0
VERTEX
  8
0
 62
     7
  5
211
 10
-20.2
 20
22.0
 30
0.0
  0
SEQEND
  8
0
  5
212
  0
POLYLINE
  8
0
 62
     7
  5
213
 66
     1
 10
0.0
 20
0.0
 30
0.0
 70
     1
  0
VERTEX
  8
0
 62
     7
  5
214
 10
-13.418046
 20
10.0
 30
0.0
  0
VERTEX
  8
0
 62
     7
  5
215
 10
-13.418046
 20
10.6
 30
0.0
  0
VERTEX
  8
0
 62
     7
  5
216
 10
-12.818046
 20
10.6
 30
0.0
  0
VERTEX
  8
0
 62
     7
  5
217
 10
-12.818046
 20
10.0
 30
0.0
  0
VERTEX
  8
0
 62
     7
  5
218
 10
-13.418046
 20
10.0
 30
0.0
  0
VERTEX
  8
0
 62
     7
  5
219
 10
-13.418046
 20
10.0
 30
0.0
  0
SEQEND
  8
0
  5
21A
  0
POLYLINE
  8
0
 62
     7
  5
21B
 66
     1
 10
0.0
 20
0.0
 30
0.0
 70
     1
  0
VERTEX
  8
0
 62
     7
  5
21C
 10
-13.418046
 20
8.3
 30
0.0
  0
VERTEX
  8
0
 62
     7
  5
21D
 10
-13.418046
 20
9.1
 30
0.0
  0
VERTEX
  8
0
 62
     7
  5
21E
 10
-12.818046
 20
9.1
 30
0.0
  0
VERTEX
  8
0
 62
     7
  5
21F
 10
-12.818046
 20
8.3
 30
0.0
  0
VERTEX
  8
0
 62
     7
  5
220
 10
-13.418046
 20
8.3
 30
0.0
  0
VERTEX
  8
0
 62
     7
  5
221
 10
-13.418046
 20
8.3
 30
0.0
  0
SEQEND
  8
0
  5
222
  0
POLYLINE
  8
0
 62
     7
  5
223
 66
     1
 10
0.0
 20
0.0
 30
0.0
 70
     1
  0
VERTEX
  8
0
 62
     7
  5
224
 10
-13.418046
 20
14.3
 30
0.0
  0
VERTEX
  8
0
 62
     7
  5
225
 10
-13.418046
 20
15.1
 30
0.0
  0
VERTEX
  8
0
 62
     7
  5
226
 10
-12.818046
 20
15.1
 30
0.0
  0
VERTEX
  8
0
 62
     7
  5
227
 10
-12.818046
 20
14.3
 30
0.0
  0
VERTEX
  8
0
 62
     7
  5
228
 10
-13.418046
 20
14.3
 30
0.0
  0
VERTEX
  8
0
 62
     7
  5
229
 10
-13.418046
 20
14.3
 30
0.0
  0
SEQEND
  8
0
  5
22A
  0
POLYLINE
  8
0
 62
     7
  5
22B
 66
     1
 10
0.0
 20
0.0
 30
0.0
 70
     1
  0
VERTEX
  8
0
 62
     7
  5
22C
 10
-13.418046
 20
20.3
 30
0.0
  0
VERTEX
  8
0
 62
     7
  5
22D
 10
-13.418046
 20
21.1
 30
0.0
  0
VERTEX
  8
0
 62
     7
  5
22E
 10
-12.818046
 20
21.1
 30
0.0
  0
VERTEX
  8
0
 62
     7
  5
22F
 10
-12.818046
 20
20.3
 30
0.0
  0
VERTEX
  8
0
 62
     7
  5
230
 10
-13.418046
 20
20.3
 30
0.0
  0
VERTEX
  8
0
 62
     7
  5
231
 10
-13.418046
 20
20.3
 30
0.0
  0
SEQEND
  8
0
  5
232
  0
LINE
  8
0
  6
ORTHO_50_50
 62
     7
  5
234
 10
-19.4
 20
13.6
 30
0.0
 11
-18.8
 21
13.6
 31
0.0
  0
LINE
  8
0
  6
ORTHO_50_50
 62
     7
  5
235
 10
-19.4
 20
19.6
 30
0.0
 11
-18.8
 21
19.6
 31
0.0
  0
LINE
  8
0
  6
ORTHO_50_50
 62
     7
  5
236
 10
-19.4
 20
7.6
 30
0.0
 11
-18.8
 21
7.6
 31
0.0
  0
LINE
  8
0
  6
ORTHO_50_50
 62
     7
  5
237
 10
-14.6
 20
8.7
 30
0.0
 11
-14.0
 21
8.7
 31
0.0
  0
LINE
  8
0
  6
ORTHO_50_50
 62
     7
  5
238
 10
-14.6
 20
14.7
 30
0.0
 11
-14.0
 21
14.7
 31
0.0
  0
LINE
  8
0
  6
ORTHO_50_50
 62
     7
  5
239
 10
-14.6
 20
20.7
 30
0.0
 11
-14.0
 21
20.7
 31
0.0
  0
LINE
  8
0
  6
ORTHO_50_50
 62
     7
  5
23A
 10
-17.5
 20
13.6
 30
0.0
 11
-16.9
 21
13.6
 31
0.0
  0
LINE
  8
0
  6
ORTHO_50_50
 62
     7
  5
23B
 10
-17.5
 20
19.6
 30
0.0
 11
-16.9
 21
19.6
 31
0.0
  0
LINE
  8
0
  6
ORTHO_50_50
 62
     7
  5
23C
 10
-19.1
 20
13.9
 30
0.0
 11
-19.1
 21
13.3
 31
0.0
  0
LINE
  8
0
  6
ORTHO_50_50
 62
     7
  5
23D
 10
-19.1
 20
19.9
 30
0.0
 11
-19.1
 21
19.3
 31
0.0
  0
LINE
  8
0
  6
ORTHO_50_50
 62
     7
  5
23E
 10
-19.1
 20
7.9
 30
0.0
 11
-19.1
 21
7.3
 31
0.0
  0
LINE
  8
0
  6
ORTHO_50_50
 62
     7
  5
23F
 10
-14.3
 20
9.0
 30
0.0
 11
-14.3
 21
8.4
 31
0.0
  0
LINE
  8
0
  6
ORTHO_50_50
 62
     7
  5
240
 10
-14.3
 20
15.0
 30
0.0
 11
-14.3
 21
14.4
 31
0.0
  0
LINE
  8
0
  6
ORTHO_50_50
 62
     7
  5
241
 10
-14.3
 20
21.0
 30
0.0
 11
-14.3
 21
20.4
 31
0.0
  0
LINE
  8
0
  6
ORTHO_50_50
 62
     7
  5
242
 10
-17.2
 20
13.9
 30
0.0
 11
-17.2
 21
13.3
 31
0.0
  0
LINE
  8
0
  6
ORTHO_50_50
 62
     7
  5
243
 10
-17.2
 20
19.9
 30
0.0
 11
-17.2
 21
19.3
 31
0.0
  0
LINE
  8
0
 62
     7
  5
244
 10
-19.4
 20
13.4
 30
0.0
 11
-19.3
 21
13.4
 31
0.0
  0
LINE
  8
0
 62
     7
  5
245
 10
-19.4
 20
19.4
 30
0.0
 11
-19.3
 21
19.4
 31
0.0
  0
LINE
  8
0
 62
     7
  5
246
 10
-19.4
 20
7.4
 30
0.0
 11
-19.3
 21
7.4
 31
0.0
  0
LINE
  8
0
 62
     7
  5
247
 10
-17.5
 20
13.4
 30
0.0
 11
-17.4
 21
13.4
 31
0.0
  0
LINE
  8
0
 62
     7
  5
248
 10
-17.5
 20
19.4
 30
0.0
 11
-17.4
 21
19.4
 31
0.0
  0
LINE
  8
0
 62
     7
  5
249
 10
-19.3
 20
13.4
 30
0.0
 11
-18.9
 21
13.8
 31
0.0
  0
LINE
  8
0
 62
     7
  5
24A
 10
-19.3
 20
19.4
 30
0.0
 11
-18.9
 21
19.8
 31
0.0
  0
LINE
  8
0
 62
     7
  5
24B
 10
-19.3
 20
7.4
 30
0.0
 11
-18.9
 21
7.8
 31
0.0
  0
LINE
  8
0
 62
     7
  5
24C
 10
-17.4
 20
13.4
 30
0.0
 11
-17.0
 21
13.8
 31
0.0
  0
LINE
  8
0
 62
     7
  5
24D
 10
-17.4
 20
19.4
 30
0.0
 11
-17.0
 21
19.8
 31
0.0
  0
LINE
  8
0
 62
     7
  5
24E
 10
-18.9
 20
13.8
 30
0.0
 11
-18.8
 21
13.8
 31
0.0
  0
LINE
  8
0
 62
     7
  5
24F
 10
-18.9
 20
19.8
 30
0.0
 11
-18.8
 21
19.8
 31
0.0
  0
LINE
  8
0
 62
     7
  5
250
 10
-18.9
 20
7.8
 30
0.0
 11
-18.8
 21
7.8
 31
0.0
  0
LINE
  8
0
 62
     7
  5
251
 10
-17.0
 20
13.8
 30
0.0
 11
-16.9
 21
13.8
 31
0.0
  0
LINE
  8
0
 62
     7
  5
252
 10
-17.0
 20
19.8
 30
0.0
 11
-16.9
 21
19.8
 31
0.0
  0
CIRCLE
  8
0
 62
     7
  5
253
 10
-21.4
 20
13.2
 30
0.0
 40
0.2
  0
CIRCLE
  8
0
 62
     7
  5
254
 10
-21.4
 20
19.2
 30
0.0
 40
0.2
  0
CIRCLE
  8
0
 62
     7
  5
255
 10
-21.4
 20
14.0
 30
0.0
 40
0.2
  0
CIRCLE
  8
0
 62
     7
  5
256
 10
-21.4
 20
20.0
 30
0.0
 40
0.2
  0
LINE
  8
0
 62
     7
  5
257
 10
-21.4
 20
13.2
 30
0.0
 11
-21.258579
 21
13.341421
 31
0.0
  0
LINE
  8
0
 62
     7
  5
258
 10
-21.4
 20
19.2
 30
0.0
 11
-21.258579
 21
19.341421
 31
0.0
  0
LINE
  8
0
 62
     7
  5
259
 10
-21.4
 20
14.0
 30
0.0
 11
-21.258579
 21
14.141421
 31
0.0
  0
LINE
  8
0
 62
     7
  5
25A
 10
-21.4
 20
20.0
 30
0.0
 11
-21.258579
 21
20.141421
 31
0.0
  0
LINE
  8
0
 62
     7
  5
25B
 10
-21.4
 20
13.2
 30
0.0
 11
-21.541421
 21
13.341421
 31
0.0
  0
LINE
  8
0
 62
     7
  5
25C
 10
-21.4
 20
19.2
 30
0.0
 11
-21.541421
 21
19.341421
 31
0.0
  0
LINE
  8
0
 62
     7
  5
25D
 10
-21.4
 20
14.0
 30
0.0
 11
-21.541421
 21
14.141421
 31
0.0
  0
LINE
  8
0
 62
     7
  5
25E
 10
-21.4
 20
20.0
 30
0.0
 11
-21.541421
 21
20.141421
 31
0.0
  0
LINE
  8
0
 62
     7
  5
25F
 10
-21.4
 20
13.2
 30
0.0
 11
-21.541421
 21
13.058579
 31
0.0
  0
LINE
  8
0
 62
     7
  5
260
 10
-21.4
 20
19.2
 30
0.0
 11
-21.541421
 21
19.058579
 31
0.0
  0
LINE
  8
0
 62
     7
  5
261
 10
-21.4
 20
14.0
 30
0.0
 11
-21.541421
 21
13.858579
 31
0.0
  0
LINE
  8
0
 62
     7
  5
262
 10
-21.4
 20
20.0
 30
0.0
 11
-21.541421
 21
19.858579
 31
0.0
  0
LINE
  8
0
 62
     7
  5
263
 10
-21.4
 20
13.2
 30
0.0
 11
-21.258579
 21
13.058579
 31
0.0
  0
LINE
  8
0
 62
     7
  5
264
 10
-21.4
 20
19.2
 30
0.0
 11
-21.258579
 21
19.058579
 31
0.0
  0
LINE
  8
0
 62
     7
  5
265
 10
-21.4
 20
14.0
 30
0.0
 11
-21.258579
 21
13.858579
 31
0.0
  0
LINE
  8
0
 62
     7
  5
266
 10
-21.4
 20
20.0
 30
0.0
 11
-21.258579
 21
19.858579
 31
0.0
  0
LINE
  8
0
 62
     7
  5
267
 10
-21.45
 20
13.08
 30
0.0
 11
-21.35
 21
13.08
 31
0.0
  0
LINE
  8
0
 62
     7
  5
268
 10
-21.45
 20
19.08
 30
0.0
 11
-21.35
 21
19.08
 31
0.0
  0
LINE
  8
0
 62
     7
  5
269
 10
-21.45
 20
14.12
 30
0.0
 11
-21.35
 21
14.12
 31
0.0
  0
LINE
  8
0
 62
     7
  5
26A
 10
-21.45
 20
20.12
 30
0.0
 11
-21.35
 21
20.12
 31
0.0
  0
LINE
  8
0
 62
     7
  5
26B
 10
-21.47
 20
13.2
 30
0.0
 11
-21.57
 21
13.2
 31
0.0
  0
LINE
  8
0
 62
     7
  5
26C
 10
-21.47
 20
19.2
 30
0.0
 11
-21.57
 21
19.2
 31
0.0
  0
LINE
  8
0
 62
     7
  5
26D
 10
-21.47
 20
14.0
 30
0.0
 11
-21.57
 21
14.0
 31
0.0
  0
LINE
  8
0
 62
     7
  5
26E
 10
-21.47
 20
20.0
 30
0.0
 11
-21.57
 21
20.0
 31
0.0
  0
LINE
  8
0
 62
     7
  5
26F
 10
-21.52
 20
13.25
 30
0.0
 11
-21.52
 21
13.15
 31
0.0
  0
LINE
  8
0
 62
     7
  5
270
 10
-21.52
 20
19.25
 30
0.0
 11
-21.52
 21
19.15
 31
0.0
  0
LINE
  8
0
 62
     7
  5
271
 10
-21.52
 20
14.05
 30
0.0
 11
-21.52
 21
13.95
 31
0.0
  0
LINE
  8
0
 62
     7
  5
272
 10
-21.52
 20
20.05
 30
0.0
 11
-21.52
 21
19.95
 31
0.0
  0
POLYLINE
  8
0
 62
     7
  5
273
 66
     1
 10
0.0
 20
0.0
 30
0.0
 70
     1
  0
VERTEX
  8
0
 62
     7
  5
274
 10
-22.6
 20
12.9
 30
0.0
  0
VERTEX
  8
0
 62
     7
  5
275
 10
-22.6
 20
13.5
 30
0.0
  0
VERTEX
  8
0
 62
     7
  5
276
 10
-22.0
 20
13.5
 30
0.0
  0
VERTEX
  8
0
 62
     7
  5
277
 10
-21.9
 20
13.2
 30
0.0
  0
VERTEX
  8
0
 62
     7
  5
278
 10
-22.0
 20
12.9
 30
0.0
  0
VERTEX
  8
0
 62
     7
  5
279
 10
-22.6
 20
12.9
 30
0.0
  0
VERTEX
  8
0
 62
     7
  5
27A
 10
-22.6
 20
12.9
 30
0.0
  0
VERTEX
  8
0
 62
     7
  5
27B
 10
-22.6
 20
12.9
 30
0.0
  0
SEQEND
  8
0
  5
27C
  0
POLYLINE
  8
0
 62
     7
  5
27D
 66
     1
 10
0.0
 20
0.0
 30
0.0
 70
     1
  0
VERTEX
  8
0
 62
     7
  5
27E
 10
-22.6
 20
18.9
 30
0.0
  0
VERTEX
  8
0
 62
     7
  5
27F
 10
-22.6
 20
19.5
 30
0.0
  0
VERTEX
  8
0
 62
     7
  5
280
 10
-22.0
 20
19.5
 30
0.0
  0
VERTEX
  8
0
 62
     7
  5
281
 10
-21.9
 20
19.2
 30
0.0
  0
VERTEX
  8
0
 62
     7
  5
282
 10
-22.0
 20
18.9
 30
0.0
  0
VERTEX
  8
0
 62
     7
  5
283
 10
-22.6
 20
18.9
 30
0.0
  0
VERTEX
  8
0
 62
     7
  5
284
 10
-22.6
 20
18.9
 30
0.0
  0
VERTEX
  8
0
 62
     7
  5
285
 10
-22.6
 20
18.9
 30
0.0
  0
SEQEND
  8
0
  5
286
  0
POLYLINE
  8
0
 62
     7
  5
287
 66
     1
 10
0.0
 20
0.0
 30
0.0
 70
     1
  0
VERTEX
  8
0
 62
     7
  5
288
 10
-18.5
 20
13.3
 30
0.0
  0
VERTEX
  8
0
 62
     7
  5
289
 10
-18.5
 20
13.9
 30
0.0
  0
VERTEX
  8
0
 62
     7
  5
28A
 10
-17.9
 20
13.9
 30
0.0
  0
VERTEX
  8
0
 62
     7
  5
28B
 10
-17.8
 20
13.6
 30
0.0
  0
VERTEX
  8
0
 62
     7
  5
28C
 10
-17.9
 20
13.3
 30
0.0
  0
VERTEX
  8
0
 62
     7
  5
28D
 10
-18.5
 20
13.3
 30
0.0
  0
VERTEX
  8
0
 62
     7
  5
28E
 10
-18.5
 20
13.3
 30
0.0
  0
VERTEX
  8
0
 62
     7
  5
28F
 10
-18.5
 20
13.3
 30
0.0
  0
SEQEND
  8
0
  5
290
  0
POLYLINE
  8
0
 62
     7
  5
291
 66
     1
 10
0.0
 20
0.0
 30
0.0
 70
     1
  0
VERTEX
  8
0
 62
     7
  5
292
 10
-18.5
 20
19.3
 30
0.0
  0
VERTEX
  8
0
 62
     7
  5
293
 10
-18.5
 20
19.9
 30
0.0
  0
VERTEX
  8
0
 62
     7
  5
294
 10
-17.9
 20
19.9
 30
0.0
  0
VERTEX
  8
0
 62
     7
  5
295
 10
-17.8
 20
19.6
 30
0.0
  0
VERTEX
  8
0
 62
     7
  5
296
 10
-17.9
 20
19.3
 30
0.0
  0
VERTEX
  8
0
 62
     7
  5
297
 10
-18.5
 20
19.3
 30
0.0
  0
VERTEX
  8
0
 62
     7
  5
298
 10
-18.5
 20
19.3
 30
0.0
  0
VERTEX
  8
0
 62
     7
  5
299
 10
-18.5
 20
19.3
 30
0.0
  0
SEQEND
  8
0
  5
29A
  0
TEXT
  8
0
 62
     7
  5
29B
 10
-22.3275
 20
13.25
 30
0.0
 40
0.1
  1
d
  7
STYLE3
 72
     1
 11
-22.3
 21
13.3
 31
0.0
 73
     2
  0
TEXT
  8
0
 62
     7
  5
29C
 10
-22.3275
 20
19.25
 30
0.0
 40
0.1
  1
d
  7
STYLE3
 72
     1
 11
-22.3
 21
19.3
 31
0.0
 73
     2
  0
TEXT
  8
0
 62
     7
  5
29D
 10
-22.355
 20
13.05
 30
0.0
 40
0.1
  1
dT
  7
STYLE3
 72
     1
 11
-22.3
 21
13.1
 31
0.0
 73
     2
  0
TEXT
  8
0
 62
     7
  5
29E
 10
-22.355
 20
19.05
 30
0.0
 40
0.1
  1
dT
  7
STYLE3
 72
     1
 11
-22.3
 21
19.1
 31
0.0
 73
     2
  0
LINE
  8
0
 62
     7
  5
29F
 10
-22.4
 20
13.2
 30
0.0
 11
-22.2
 21
13.2
 31
0.0
  0
LINE
  8
0
 62
     7
  5
2A0
 10
-22.4
 20
19.2
 30
0.0
 11
-22.2
 21
19.2
 31
0.0
  0
POLYLINE
  8
0
 62
     7
  5
2A1
 66
     1
 10
0.0
 20
0.0
 30
0.0
  0
VERTEX
  8
0
 62
     7
  5
2A2
 10
-18.1
 20
13.8
 30
0.0
  0
VERTEX
  8
0
 62
     7
  5
2A3
 10
-18.112467
 20
13.79987
 30
0.0
  0
VERTEX
  8
0
 62
     7
  5
2A4
 10
-18.12474
 20
13.798958
 30
0.0
  0
VERTEX
  8
0
 62
     7
  5
2A5
 10
-18.136621
 20
13.796484
 30
0.0
  0
VERTEX
  8
0
 62
     7
  5
2A6
 10
-18.147917
 20
13.791667
 30
0.0
  0
VERTEX
  8
0
 62
     7
  5
2A7
 10
-18.158431
 20
13.783724
 30
0.0
  0
VERTEX
  8
0
 62
     7
  5
2A8
 10
-18.167969
 20
13.771875
 30
0.0
  0
VERTEX
  8
0
 62
     7
  5
2A9
 10
-18.176335
 20
13.755339
 30
0.0
  0
VERTEX
  8
0
 62
     7
  5
2AA
 10
-18.183333
 20
13.733333
 30
0.0
  0
VERTEX
  8
0
 62
     7
  5
2AB
 10
-18.188867
 20
13.705469
 30
0.0
  0
VERTEX
  8
0
 62
     7
  5
2AC
 10
-18.193229
 20
13.672917
 30
0.0
  0
VERTEX
  8
0
 62
     7
  5
2AD
 10
-18.19681
 20
13.63724
 30
0.0
  0
VERTEX
  8
0
 62
     7
  5
2AE
 10
-18.2
 20
13.6
 30
0.0
  0
VERTEX
  8
0
 62
     7
  5
2AF
 10
-18.20319
 20
13.56276
 30
0.0
  0
VERTEX
  8
0
 62
     7
  5
2B0
 10
-18.206771
 20
13.527083
 30
0.0
  0
VERTEX
  8
0
 62
     7
  5
2B1
 10
-18.211133
 20
13.494531
 30
0.0
  0
VERTEX
  8
0
 62
     7
  5
2B2
 10
-18.216667
 20
13.466667
 30
0.0
  0
VERTEX
  8
0
 62
     7
  5
2B3
 10
-18.223665
 20
13.444661
 30
0.0
  0
VERTEX
  8
0
 62
     7
  5
2B4
 10
-18.232031
 20
13.428125
 30
0.0
  0
VERTEX
  8
0
 62
     7
  5
2B5
 10
-18.241569
 20
13.416276
 30
0.0
  0
VERTEX
  8
0
 62
     7
  5
2B6
 10
-18.252083
 20
13.408333
 30
0.0
  0
VERTEX
  8
0
 62
     7
  5
2B7
 10
-18.263379
 20
13.403516
 30
0.0
  0
VERTEX
  8
0
 62
     7
  5
2B8
 10
-18.27526
 20
13.401042
 30
0.0
  0
VERTEX
  8
0
 62
     7
  5
2B9
 10
-18.287533
 20
13.40013
 30
0.0
  0
VERTEX
  8
0
 62
     7
  5
2BA
 10
-18.3
 20
13.4
 30
0.0
  0
SEQEND
  8
0
  5
2BB
  0
POLYLINE
  8
0
 62
     7
  5
2BC
 66
     1
 10
0.0
 20
0.0
 30
0.0
  0
VERTEX
  8
0
 62
     7
  5
2BD
 10
-18.1
 20
19.8
 30
0.0
  0
VERTEX
  8
0
 62
     7
  5
2BE
 10
-18.112467
 20
19.79987
 30
0.0
  0
VERTEX
  8
0
 62
     7
  5
2BF
 10
-18.12474
 20
19.798958
 30
0.0
  0
VERTEX
  8
0
 62
     7
  5
2C0
 10
-18.136621
 20
19.796484
 30
0.0
  0
VERTEX
  8
0
 62
     7
  5
2C1
 10
-18.147917
 20
19.791667
 30
0.0
  0
VERTEX
  8
0
 62
     7
  5
2C2
 10
-18.158431
 20
19.783724
 30
0.0
  0
VERTEX
  8
0
 62
     7
  5
2C3
 10
-18.167969
 20
19.771875
 30
0.0
  0
VERTEX
  8
0
 62
     7
  5
2C4
 10
-18.176335
 20
19.755339
 30
0.0
  0
VERTEX
  8
0
 62
     7
  5
2C5
 10
-18.183333
 20
19.733333
 30
0.0
  0
VERTEX
  8
0
 62
     7
  5
2C6
 10
-18.188867
 20
19.705469
 30
0.0
  0
VERTEX
  8
0
 62
     7
  5
2C7
 10
-18.193229
 20
19.672917
 30
0.0
  0
VERTEX
  8
0
 62
     7
  5
2C8
 10
-18.19681
 20
19.63724
 30
0.0
  0
VERTEX
  8
0
 62
     7
  5
2C9
 10
-18.2
 20
19.6
 30
0.0
  0
VERTEX
  8
0
 62
     7
  5
2CA
 10
-18.20319
 20
19.56276
 30
0.0
  0
VERTEX
  8
0
 62
     7
  5
2CB
 10
-18.206771
 20
19.527083
 30
0.0
  0
VERTEX
  8
0
 62
     7
  5
2CC
 10
-18.211133
 20
19.494531
 30
0.0
  0
VERTEX
  8
0
 62
     7
  5
2CD
 10
-18.216667
 20
19.466667
 30
0.0
  0
VERTEX
  8
0
 62
     7
  5
2CE
 10
-18.223665
 20
19.444661
 30
0.0
  0
VERTEX
  8
0
 62
     7
  5
2CF
 10
-18.232031
 20
19.428125
 30
0.0
  0
VERTEX
  8
0
 62
     7
  5
2D0
 10
-18.241569
 20
19.416276
 30
0.0
  0
VERTEX
  8
0
 62
     7
  5
2D1
 10
-18.252083
 20
19.408333
 30
0.0
  0
VERTEX
  8
0
 62
     7
  5
2D2
 10
-18.263379
 20
19.403516
 30
0.0
  0
VERTEX
  8
0
 62
     7
  5
2D3
 10
-18.27526
 20
19.401042
 30
0.0
  0
VERTEX
  8
0
 62
     7
  5
2D4
 10
-18.287533
 20
19.40013
 30
0.0
  0
VERTEX
  8
0
 62
     7
  5
2D5
 10
-18.3
 20
19.4
 30
0.0
  0
SEQEND
  8
0
  5
2D6
  0
LINE
  8
0
 62
     7
  5
2D7
 10
-19.4
 20
6.8
 30
0.0
 11
-19.1
 21
6.8
 31
0.0
  0
LINE
  8
0
 62
     7
  5
2D8
 10
-17.5
 20
12.8
 30
0.0
 11
-17.2
 21
12.8
 31
0.0
  0
LINE
  8
0
 62
     7
  5
2D9
 10
-17.5
 20
18.8
 30
0.0
 11
-17.2
 21
18.8
 31
0.0
  0
LINE
  8
0
 62
     7
  5
2DA
 10
-19.1
 20
6.8
 30
0.0
 11
-19.1
 21
7.3
 31
0.0
  0
POLYLINE
  8
0
 62
     7
  5
2DB
 66
     1
 10
0.0
 20
0.0
 30
0.0
  0
VERTEX
  8
0
 62
     7
  5
2DC
 10
-19.1
 20
7.3
 30
0.0
  0
VERTEX
  8
0
 62
     7
  5
2DD
 10
-19.11778
 20
7.22
 30
0.0
  0
VERTEX
  8
0
 62
     7
  5
2DE
 10
-19.08222
 20
7.22
 30
0.0
  0
VERTEX
  8
0
 62
     7
  5
2DF
 10
-19.1
 20
7.3
 30
0.0
  0
SEQEND
  8
0
  5
2E0
  0
LINE
  8
0
 62
     7
  5
2E1
 10
-17.2
 20
12.8
 30
0.0
 11
-17.2
 21
13.3
 31
0.0
  0
LINE
  8
0
 62
     7
  5
2E2
 10
-17.2
 20
18.8
 30
0.0
 11
-17.2
 21
19.3
 31
0.0
  0
POLYLINE
  8
0
 62
     7
  5
2E3
 66
     1
 10
0.0
 20
0.0
 30
0.0
  0
VERTEX
  8
0
 62
     7
  5
2E4
 10
-17.2
 20
13.3
 30
0.0
  0
VERTEX
  8
0
 62
     7
  5
2E5
 10
-17.21778
 20
13.22
 30
0.0
  0
VERTEX
  8
0
 62
     7
  5
2E6
 10
-17.18222
 20
13.22
 30
0.0
  0
VERTEX
  8
0
 62
     7
  5
2E7
 10
-17.2
 20
13.3
 30
0.0
  0
SEQEND
  8
0
  5
2E8
  0
POLYLINE
  8
0
 62
     7
  5
2E9
 66
     1
 10
0.0
 20
0.0
 30
0.0
  0
VERTEX
  8
0
 62
     7
  5
2EA
 10
-17.2
 20
19.3
 30
0.0
  0
VERTEX
  8
0
 62
     7
  5
2EB
 10
-17.21778
 20
19.22
 30
0.0
  0
VERTEX
  8
0
 62
     7
  5
2EC
 10
-17.18222
 20
19.22
 30
0.0
  0
VERTEX
  8
0
 62
     7
  5
2ED
 10
-17.2
 20
19.3
 30
0.0
  0
SEQEND
  8
0
  5
2EE
  0
LINE
  8
0
 62
     7
  5
2EF
 10
-13.7
 20
11.1
 30
0.0
 11
-13.7
 21
8.7
 31
0.0
  0
LINE
  8
0
 62
     7
  5
2F0
 10
-13.7
 20
17.1
 30
0.0
 11
-13.7
 21
14.7
 31
0.0
  0
LINE
  8
0
 62
     7
  5
2F1
 10
-13.7
 20
23.1
 30
0.0
 11
-13.7
 21
20.7
 31
0.0
  0
LINE
  8
0
 62
     7
  5
2F2
 10
-23.2
 20
7.6
 30
0.0
 11
-23.25
 21
7.65
 31
0.0
  0
LINE
  8
0
 62
     7
  5
2F3
 10
-23.3
 20
13.6
 30
0.0
 11
-23.35
 21
13.65
 31
0.0
  0
LINE
  8
0
 62
     7
  5
2F4
 10
-23.3
 20
19.6
 30
0.0
 11
-23.35
 21
19.65
 31
0.0
  0
LINE
  8
0
 62
     7
  5
2F5
 10
-23.2
 20
10.2
 30
0.0
 11
-23.25
 21
10.25
 31
0.0
  0
LINE
  8
0
 62
     7
  5
2F6
 10
-23.3
 20
16.2
 30
0.0
 11
-23.35
 21
16.25
 31
0.0
  0
LINE
  8
0
 62
     7
  5
2F7
 10
-23.3
 20
22.2
 30
0.0
 11
-23.35
 21
22.25
 31
0.0
  0
LINE
  8
0
 62
     7
  5
2F8
 10
-23.2
 20
7.6
 30
0.0
 11
-23.25
 21
7.55
 31
0.0
  0
LINE
  8
0
 62
     7
  5
2F9
 10
-23.3
 20
13.6
 30
0.0
 11
-23.35
 21
13.55
 31
0.0
  0
LINE
  8
0
 62
     7
  5
2FA
 10
-23.3
 20
19.6
 30
0.0
 11
-23.35
 21
19.55
 31
0.0
  0
LINE
  8
0
 62
     7
  5
2FB
 10
-23.2
 20
10.2
 30
0.0
 11
-23.25
 21
10.15
 31
0.0
  0
LINE
  8
0
 62
     7
  5
2FC
 10
-23.3
 20
16.2
 30
0.0
 11
-23.35
 21
16.15
 31
0.0
  0
LINE
  8
0
 62
     7
  5
2FD
 10
-23.3
 20
22.2
 30
0.0
 11
-23.35
 21
22.15
 31
0.0
  0
LINE
  8
0
 62
     7
  5
2FE
 10
-23.2
 20
7.6
 30
0.0
 11
-23.15
 21
7.55
 31
0.0
  0
LINE
  8
0
 62
     7
  5
2FF
 10
-23.3
 20
13.6
 30
0.0
 11
-23.25
 21
13.55
 31
0.0
  0
LINE
  8
0
 62
     7
  5
300
 10
-23.3
 20
19.6
 30
0.0
 11
-23.25
 21
19.55
 31
0.0
  0
LINE
  8
0
 62
     7
  5
301
 10
-23.2
 20
10.2
 30
0.0
 11
-23.15
 21
10.15
 31
0.0
  0
LINE
  8
0
 62
     7
  5
302
 10
-23.3
 20
16.2
 30
0.0
 11
-23.25
 21
16.15
 31
0.0
  0
LINE
  8
0
 62
     7
  5
303
 10
-23.3
 20
22.2
 30
0.0
 11
-23.25
 21
22.15
 31
0.0
  0
LINE
  8
0
 62
     7
  5
304
 10
-23.2
 20
7.6
 30
0.0
 11
-23.15
 21
7.65
 31
0.0
  0
LINE
  8
0
 62
     7
  5
305
 10
-23.3
 20
13.6
 30
0.0
 11
-23.25
 21
13.65
 31
0.0
  0
LINE
  8
0
 62
     7
  5
306
 10
-23.3
 20
19.6
 30
0.0
 11
-23.25
 21
19.65
 31
0.0
  0
LINE
  8
0
 62
     7
  5
307
 10
-23.2
 20
10.2
 30
0.0
 11
-23.15
 21
10.25
 31
0.0
  0
LINE
  8
0
 62
     7
  5
308
 10
-23.3
 20
16.2
 30
0.0
 11
-23.25
 21
16.25
 31
0.0
  0
LINE
  8
0
 62
     7
  5
309
 10
-23.3
 20
22.2
 30
0.0
 11
-23.25
 21
22.25
 31
0.0
  0
CIRCLE
  8
0
 62
     7
  5
30A
 10
-23.2
 20
7.6
 30
0.0
 40
0.15
  0
CIRCLE
  8
0
 62
     7
  5
30B
 10
-23.3
 20
13.6
 30
0.0
 40
0.15
  0
CIRCLE
  8
0
 62
     7
  5
30C
 10
-23.3
 20
19.6
 30
0.0
 40
0.15
  0
CIRCLE
  8
0
 62
     7
  5
30D
 10
-23.2
 20
10.2
 30
0.0
 40
0.15
  0
CIRCLE
  8
0
 62
     7
  5
30E
 10
-23.3
 20
16.2
 30
0.0
 40
0.15
  0
CIRCLE
  8
0
 62
     7
  5
30F
 10
-23.3
 20
22.2
 30
0.0
 40
0.15
  0
LINE
  8
0
 62
     7
  5
310
 10
-25.0
 20
10.1
 30
0.0
 11
-25.0
 21
7.7
 31
0.0
  0
LINE
  8
0
 62
     7
  5
311
 10
-25.0
 20
16.1
 30
0.0
 11
-25.0
 21
13.7
 31
0.0
  0
LINE
  8
0
 62
     7
  5
312
 10
-25.0
 20
22.1
 30
0.0
 11
-25.0
 21
19.7
 31
0.0
  0
LINE
  8
0
 62
     7
  5
313
 10
-25.0
 20
10.5
 30
0.0
 11
-25.0
 21
10.3
 31
0.0
  0
LINE
  8
0
 62
     7
  5
314
 10
-25.0
 20
16.5
 30
0.0
 11
-25.0
 21
16.3
 31
0.0
  0
LINE
  8
0
 62
     7
  5
315
 10
-25.0
 20
22.5
 30
0.0
 11
-25.0
 21
22.3
 31
0.0
  0
LINE
  8
0
 62
     7
  5
316
 10
-25.0
 20
10.7
 30
0.0
 11
-25.0
 21
11.4
 31
0.0
  0
LINE
  8
0
 62
     7
  5
317
 10
-25.0
 20
16.7
 30
0.0
 11
-25.0
 21
17.4
 31
0.0
  0
LINE
  8
0
 62
     7
  5
318
 10
-25.0
 20
22.7
 30
0.0
 11
-25.0
 21
23.4
 31
0.0
  0
LINE
  8
0
 62
     7
  5
319
 10
-25.0
 20
11.4
 30
0.0
 11
-10.5
 21
11.4
 31
0.0
  0
LINE
  8
0
 62
     7
  5
31A
 10
-25.0
 20
17.4
 30
0.0
 11
-10.5
 21
17.4
 31
0.0
  0
LINE
  8
0
 62
     7
  5
31B
 10
-25.0
 20
23.4
 30
0.0
 11
-10.5
 21
23.4
 31
0.0
  0
LINE
  8
0
 62
     7
  5
31C
 10
-10.5
 20
10.5
 30
0.0
 11
-10.5
 21
10.4
 31
0.0
  0
LINE
  8
0
 62
     7
  5
31D
 10
-10.5
 20
10.8
 30
0.0
 11
-10.5
 21
10.7
 31
0.0
  0
LINE
  8
0
 62
     7
  5
31E
 10
-10.5
 20
11.4
 30
0.0
 11
-10.5
 21
11.0
 31
0.0
  0
LINE
  8
0
 62
     7
  5
31F
 10
-10.5
 20
17.4
 30
0.0
 11
-10.5
 21
16.7
 31
0.0
  0
LINE
  8
0
 62
     7
  5
320
 10
-10.5
 20
23.4
 30
0.0
 11
-10.5
 21
22.7
 31
0.0
  0
LINE
  8
0
 62
     7
  5
321
 10
-10.5
 20
10.2
 30
0.0
 11
-10.5
 21
10.1
 31
0.0
  0
LINE
  8
0
 62
     7
  5
322
 10
-10.5
 20
16.5
 30
0.0
 11
-10.5
 21
16.1
 31
0.0
  0
LINE
  8
0
 62
     7
  5
323
 10
-10.5
 20
22.5
 30
0.0
 11
-10.5
 21
22.1
 31
0.0
  0
LINE
  8
0
 62
     7
  5
324
 10
-10.5
 20
9.6
 30
0.0
 11
-10.5
 21
5.7
 31
0.0
  0
LINE
  8
0
 62
     7
  5
325
 10
-10.5
 20
9.9
 30
0.0
 11
-10.5
 21
9.8
 31
0.0
  0
LINE
  8
0
 62
     7
  5
326
 10
-10.5
 20
15.9
 30
0.0
 11
-10.5
 21
11.7
 31
0.0
  0
LINE
  8
0
 62
     7
  5
327
 10
-10.5
 20
21.9
 30
0.0
 11
-10.5
 21
17.7
 31
0.0
  0
LINE
  8
0
 62
     7
  5
328
 10
-10.5
 20
5.7
 30
0.0
 11
-25.0
 21
5.7
 31
0.0
  0
LINE
  8
0
 62
     7
  5
329
 10
-10.5
 20
11.7
 30
0.0
 11
-25.0
 21
11.7
 31
0.0
  0
LINE
  8
0
 62
     7
  5
32A
 10
-10.5
 20
17.7
 30
0.0
 11
-25.0
 21
17.7
 31
0.0
  0
LINE
  8
0
 62
     7
  5
32B
 10
-25.0
 20
5.7
 30
0.0
 11
-25.0
 21
7.5
 31
0.0
  0
LINE
  8
0
 62
     7
  5
32C
 10
-25.0
 20
11.7
 30
0.0
 11
-25.0
 21
13.5
 31
0.0
  0
LINE
  8
0
 62
     7
  5
32D
 10
-25.0
 20
17.7
 30
0.0
 11
-25.0
 21
19.5
 31
0.0
  0
LINE
  8
0
 62
     7
  5
32E
 10
-14.1
 20
11.1
 30
0.0
 11
-13.7
 21
11.1
 31
0.0
  0
LINE
  8
0
 62
     7
  5
32F
 10
-14.1
 20
17.1
 30
0.0
 11
-13.7
 21
17.1
 31
0.0
  0
LINE
  8
0
 62
     7
  5
330
 10
-14.1
 20
23.1
 30
0.0
 11
-13.7
 21
23.1
 31
0.0
  0
POLYLINE
  8
0
 62
     7
  5
331
 66
     1
 10
0.0
 20
0.0
 30
0.0
  0
VERTEX
  8
0
 62
     7
  5
332
 10
-14.1
 20
11.1
 30
0.0
  0
VERTEX
  8
0
 62
     7
  5
333
 10
-14.02
 20
11.08222
 30
0.0
  0
VERTEX
  8
0
 62
     7
  5
334
 10
-14.02
 20
11.11778
 30
0.0
  0
VERTEX
  8
0
 62
     7
  5
335
 10
-14.1
 20
11.1
 30
0.0
  0
SEQEND
  8
0
  5
336
  0
POLYLINE
  8
0
 62
     7
  5
337
 66
     1
 10
0.0
 20
0.0
 30
0.0
  0
VERTEX
  8
0
 62
     7
  5
338
 10
-14.1
 20
17.1
 30
0.0
  0
VERTEX
  8
0
 62
     7
  5
339
 10
-14.02
 20
17.08222
 30
0.0
  0
VERTEX
  8
0
 62
     7
  5
33A
 10
-14.02
 20
17.11778
 30
0.0
  0
VERTEX
  8
0
 62
     7
  5
33B
 10
-14.1
 20
17.1
 30
0.0
  0
SEQEND
  8
0
  5
33C
  0
POLYLINE
  8
0
 62
     7
  5
33D
 66
     1
 10
0.0
 20
0.0
 30
0.0
  0
VERTEX
  8
0
 62
     7
  5
33E
 10
-14.1
 20
23.1
 30
0.0
  0
VERTEX
  8
0
 62
     7
  5
33F
 10
-14.02
 20
23.08222
 30
0.0
  0
VERTEX
  8
0
 62
     7
  5
340
 10
-14.02
 20
23.11778
 30
0.0
  0
VERTEX
  8
0
 62
     7
  5
341
 10
-14.1
 20
23.1
 30
0.0
  0
SEQEND
  8
0
  5
342
  0
TEXT
  8
0
 62
     7
  5
343
 10
-12.975
 20
9.45
 30
0.0
 40
0.1
  1
state
  7
STYLE3
 72
     2
 11
-12.7
 21
9.5
 31
0.0
 73
     2
  0
TEXT
  8
0
 62
     7
  5
344
 10
-13.62
 20
7.65
 30
0.0
 40
0.1
  1
hold
  7
STYLE3
 72
     2
 11
-13.4
 21
7.7
 31
0.0
 73
     2
  0
TEXT
  8
0
 62
     7
  5
345
 10
-13.62
 20
13.65
 30
0.0
 40
0.1
  1
hold
  7
STYLE3
 72
     2
 11
-13.4
 21
13.7
 31
0.0
 73
     2
  0
TEXT
  8
0
 62
     7
  5
346
 10
-13.62
 20
19.65
 30
0.0
 40
0.1
  1
hold
  7
STYLE3
 72
     2
 11
-13.4
 21
19.7
 31
0.0
 73
     2
  0
POLYLINE
  8
0
 62
     7
  5
347
 66
     1
 10
0.0
 20
0.0
 30
0.0
  0
VERTEX
  8
0
 62
     7
  5
348
 10
-19.6
 20
10.6
 30
0.0
  0
VERTEX
  8
0
 62
     7
  5
349
 10
-19.52
 20
10.58222
 30
0.0
  0
VERTEX
  8
0
 62
     7
  5
34A
 10
-19.52
 20
10.61778
 30
0.0
  0
VERTEX
  8
0
 62
     7
  5
34B
 10
-19.6
 20
10.6
 30
0.0
  0
SEQEND
  8
0
  5
34C
  0
POLYLINE
  8
0
 62
     7
  5
34D
 66
     1
 10
0.0
 20
0.0
 30
0.0
  0
VERTEX
  8
0
 62
     7
  5
34E
 10
-19.6
 20
16.6
 30
0.0
  0
VERTEX
  8
0
 62
     7
  5
34F
 10
-19.52
 20
16.58222
 30
0.0
  0
VERTEX
  8
0
 62
     7
  5
350
 10
-19.52
 20
16.61778
 30
0.0
  0
VERTEX
  8
0
 62
     7
  5
351
 10
-19.6
 20
16.6
 30
0.0
  0
SEQEND
  8
0
  5
352
  0
POLYLINE
  8
0
 62
     7
  5
353
 66
     1
 10
0.0
 20
0.0
 30
0.0
  0
VERTEX
  8
0
 62
     7
  5
354
 10
-19.6
 20
22.6
 30
0.0
  0
VERTEX
  8
0
 62
     7
  5
355
 10
-19.52
 20
22.58222
 30
0.0
  0
VERTEX
  8
0
 62
     7
  5
356
 10
-19.52
 20
22.61778
 30
0.0
  0
VERTEX
  8
0
 62
     7
  5
357
 10
-19.6
 20
22.6
 30
0.0
  0
SEQEND
  8
0
  5
358
  0
POLYLINE
  8
0
 62
     7
  5
359
 66
     1
 10
0.0
 20
0.0
 30
0.0
  0
VERTEX
  8
0
 62
     7
  5
35A
 10
-19.6
 20
10.2
 30
0.0
  0
VERTEX
  8
0
 62
     7
  5
35B
 10
-19.52
 20
10.18222
 30
0.0
  0
VERTEX
  8
0
 62
     7
  5
35C
 10
-19.52
 20
10.21778
 30
0.0
  0
VERTEX
  8
0
 62
     7
  5
35D
 10
-19.6
 20
10.2
 30
0.0
  0
SEQEND
  8
0
  5
35E
  0
POLYLINE
  8
0
 62
     7
  5
35F
 66
     1
 10
0.0
 20
0.0
 30
0.0
  0
VERTEX
  8
0
 62
     7
  5
360
 10
-19.6
 20
16.2
 30
0.0
  0
VERTEX
  8
0
 62
     7
  5
361
 10
-19.52
 20
16.18222
 30
0.0
  0
VERTEX
  8
0
 62
     7
  5
362
 10
-19.52
 20
16.21778
 30
0.0
  0
VERTEX
  8
0
 62
     7
  5
363
 10
-19.6
 20
16.2
 30
0.0
  0
SEQEND
  8
0
  5
364
  0
POLYLINE
  8
0
 62
     7
  5
365
 66
     1
 10
0.0
 20
0.0
 30
0.0
  0
VERTEX
  8
0
 62
     7
  5
366
 10
-19.6
 20
22.2
 30
0.0
  0
VERTEX
  8
0
 62
     7
  5
367
 10
-19.52
 20
22.18222
 30
0.0
  0
VERTEX
  8
0
 62
     7
  5
368
 10
-19.52
 20
22.21778
 30
0.0
  0
VERTEX
  8
0
 62
     7
  5
369
 10
-19.6
 20
22.2
 30
0.0
  0
SEQEND
  8
0
  5
36A
  0
LINE
  8
0
 62
     7
  5
36B
 10
-23.05
 20
10.2
 30
0.0
 11
-20.2
 21
10.2
 31
0.0
  0
LINE
  8
0
 62
     7
  5
36C
 10
-23.15
 20
16.2
 30
0.0
 11
-21.4
 21
16.2
 31
0.0
  0
LINE
  8
0
 62
     7
  5
36D
 10
-23.15
 20
22.2
 30
0.0
 11
-21.4
 21
22.2
 31
0.0
  0
POLYLINE
  8
0
 62
     7
  5
36E
 66
     1
 10
0.0
 20
0.0
 30
0.0
  0
VERTEX
  8
0
 62
     7
  5
36F
 10
-23.05
 20
10.2
 30
0.0
  0
VERTEX
  8
0
 62
     7
  5
370
 10
-22.97
 20
10.18222
 30
0.0
  0
VERTEX
  8
0
 62
     7
  5
371
 10
-22.97
 20
10.21778
 30
0.0
  0
VERTEX
  8
0
 62
     7
  5
372
 10
-23.05
 20
10.2
 30
0.0
  0
SEQEND
  8
0
  5
373
  0
POLYLINE
  8
0
 62
     7
  5
374
 66
     1
 10
0.0
 20
0.0
 30
0.0
  0
VERTEX
  8
0
 62
     7
  5
375
 10
-23.15
 20
16.2
 30
0.0
  0
VERTEX
  8
0
 62
     7
  5
376
 10
-23.07
 20
16.18222
 30
0.0
  0
VERTEX
  8
0
 62
     7
  5
377
 10
-23.07
 20
16.21778
 30
0.0
  0
VERTEX
  8
0
 62
     7
  5
378
 10
-23.15
 20
16.2
 30
0.0
  0
SEQEND
  8
0
  5
379
  0
POLYLINE
  8
0
 62
     7
  5
37A
 66
     1
 10
0.0
 20
0.0
 30
0.0
  0
VERTEX
  8
0
 62
     7
  5
37B
 10
-23.15
 20
22.2
 30
0.0
  0
VERTEX
  8
0
 62
     7
  5
37C
 10
-23.07
 20
22.18222
 30
0.0
  0
VERTEX
  8
0
 62
     7
  5
37D
 10
-23.07
 20
22.21778
 30
0.0
  0
VERTEX
  8
0
 62
     7
  5
37E
 10
-23.15
 20
22.2
 30
0.0
  0
SEQEND
  8
0
  5
37F
  0
LINE
  8
0
 62
     7
  5
380
 10
-21.4
 20
16.2
 30
0.0
 11
-20.2
 21
16.2
 31
0.0
  0
LINE
  8
0
 62
     7
  5
381
 10
-21.4
 20
22.2
 30
0.0
 11
-20.2
 21
22.2
 31
0.0
  0
POLYLINE
  8
0
 62
     7
  5
382
 66
     1
 10
0.0
 20
0.0
 30
0.0
  0
VERTEX
  8
0
 62
     7
  5
383
 10
-21.4
 20
16.2
 30
0.0
  0
VERTEX
  8
0
 62
     7
  5
384
 10
-21.32
 20
16.18222
 30
0.0
  0
VERTEX
  8
0
 62
     7
  5
385
 10
-21.32
 20
16.21778
 30
0.0
  0
VERTEX
  8
0
 62
     7
  5
386
 10
-21.4
 20
16.2
 30
0.0
  0
SEQEND
  8
0
  5
387
  0
POLYLINE
  8
0
 62
     7
  5
388
 66
     1
 10
0.0
 20
0.0
 30
0.0
  0
VERTEX
  8
0
 62
     7
  5
389
 10
-21.4
 20
22.2
 30
0.0
  0
VERTEX
  8
0
 62
     7
  5
38A
 10
-21.32
 20
22.18222
 30
0.0
  0
VERTEX
  8
0
 62
     7
  5
38B
 10
-21.32
 20
22.21778
 30
0.0
  0
VERTEX
  8
0
 62
     7
  5
38C
 10
-21.4
 20
22.2
 30
0.0
  0
SEQEND
  8
0
  5
38D
  0
LINE
  8
0
 62
     7
  5
38E
 10
-23.2
 20
8.3
 30
0.0
 11
-23.2
 21
7.75
 31
0.0
  0
POLYLINE
  8
0
 62
     7
  5
38F
 66
     1
 10
0.0
 20
0.0
 30
0.0
  0
VERTEX
  8
0
 62
     7
  5
390
 10
-23.2
 20
7.75
 30
0.0
  0
VERTEX
  8
0
 62
     7
  5
391
 10
-23.18222
 20
7.83
 30
0.0
  0
VERTEX
  8
0
 62
     7
  5
392
 10
-23.21778
 20
7.83
 30
0.0
  0
VERTEX
  8
0
 62
     7
  5
393
 10
-23.2
 20
7.75
 30
0.0
  0
SEQEND
  8
0
  5
394
  0
LINE
  8
0
 62
     7
  5
395
 10
-23.3
 20
14.3
 30
0.0
 11
-23.3
 21
13.75
 31
0.0
  0
LINE
  8
0
 62
     7
  5
396
 10
-23.3
 20
20.3
 30
0.0
 11
-23.3
 21
19.75
 31
0.0
  0
POLYLINE
  8
0
 62
     7
  5
397
 66
     1
 10
0.0
 20
0.0
 30
0.0
  0
VERTEX
  8
0
 62
     7
  5
398
 10
-23.3
 20
13.75
 30
0.0
  0
VERTEX
  8
0
 62
     7
  5
399
 10
-23.28222
 20
13.83
 30
0.0
  0
VERTEX
  8
0
 62
     7
  5
39A
 10
-23.31778
 20
13.83
 30
0.0
  0
VERTEX
  8
0
 62
     7
  5
39B
 10
-23.3
 20
13.75
 30
0.0
  0
SEQEND
  8
0
  5
39C
  0
POLYLINE
  8
0
 62
     7
  5
39D
 66
     1
 10
0.0
 20
0.0
 30
0.0
  0
VERTEX
  8
0
 62
     7
  5
39E
 10
-23.3
 20
19.75
 30
0.0
  0
VERTEX
  8
0
 62
     7
  5
39F
 10
-23.28222
 20
19.83
 30
0.0
  0
VERTEX
  8
0
 62
     7
  5
3A0
 10
-23.31778
 20
19.83
 30
0.0
  0
VERTEX
  8
0
 62
     7
  5
3A1
 10
-23.3
 20
19.75
 30
0.0
  0
SEQEND
  8
0
  5
3A2
  0
LINE
  8
0
 62
     7
  5
3A3
 10
-20.2
 20
10.6
 30
0.0
 11
-23.8
 21
10.6
 31
0.0
  0
LINE
  8
0
 62
     7
  5
3A4
 10
-20.2
 20
16.6
 30
0.0
 11
-23.8
 21
16.6
 31
0.0
  0
LINE
  8
0
 62
     7
  5
3A5
 10
-20.2
 20
22.6
 30
0.0
 11
-23.8
 21
22.6
 31
0.0
  0
POLYLINE
  8
0
 62
     7
  5
3A6
 66
     1
 10
0.0
 20
0.0
 30
0.0
  0
VERTEX
  8
0
 62
     7
  5
3A7
 10
-23.8
 20
10.6
 30
0.0
  0
VERTEX
  8
0
 62
     7
  5
3A8
 10
-23.72
 20
10.58222
 30
0.0
  0
VERTEX
  8
0
 62
     7
  5
3A9
 10
-23.72
 20
10.61778
 30
0.0
  0
VERTEX
  8
0
 62
     7
  5
3AA
 10
-23.8
 20
10.6
 30
0.0
  0
SEQEND
  8
0
  5
3AB
  0
POLYLINE
  8
0
 62
     7
  5
3AC
 66
     1
 10
0.0
 20
0.0
 30
0.0
  0
VERTEX
  8
0
 62
     7
  5
3AD
 10
-23.8
 20
16.6
 30
0.0
  0
VERTEX
  8
0
 62
     7
  5
3AE
 10
-23.72
 20
16.58222
 30
0.0
  0
VERTEX
  8
0
 62
     7
  5
3AF
 10
-23.72
 20
16.61778
 30
0.0
  0
VERTEX
  8
0
 62
     7
  5
3B0
 10
-23.8
 20
16.6
 30
0.0
  0
SEQEND
  8
0
  5
3B1
  0
POLYLINE
  8
0
 62
     7
  5
3B2
 66
     1
 10
0.0
 20
0.0
 30
0.0
  0
VERTEX
  8
0
 62
     7
  5
3B3
 10
-23.8
 20
22.6
 30
0.0
  0
VERTEX
  8
0
 62
     7
  5
3B4
 10
-23.72
 20
22.58222
 30
0.0
  0
VERTEX
  8
0
 62
     7
  5
3B5
 10
-23.72
 20
22.61778
 30
0.0
  0
VERTEX
  8
0
 62
     7
  5
3B6
 10
-23.8
 20
22.6
 30
0.0
  0
SEQEND
  8
0
  5
3B7
  0
LINE
  8
0
 62
     7
  5
3B8
 10
-23.35
 20
10.2
 30
0.0
 11
-23.8
 21
10.2
 31
0.0
  0
LINE
  8
0
 62
     7
  5
3B9
 10
-23.45
 20
16.2
 30
0.0
 11
-23.8
 21
16.2
 31
0.0
  0
LINE
  8
0
 62
     7
  5
3BA
 10
-23.45
 20
22.2
 30
0.0
 11
-23.8
 21
22.2
 31
0.0
  0
POLYLINE
  8
0
 62
     7
  5
3BB
 66
     1
 10
0.0
 20
0.0
 30
0.0
  0
VERTEX
  8
0
 62
     7
  5
3BC
 10
-23.8
 20
10.2
 30
0.0
  0
VERTEX
  8
0
 62
     7
  5
3BD
 10
-23.72
 20
10.18222
 30
0.0
  0
VERTEX
  8
0
 62
     7
  5
3BE
 10
-23.72
 20
10.21778
 30
0.0
  0
VERTEX
  8
0
 62
     7
  5
3BF
 10
-23.8
 20
10.2
 30
0.0
  0
SEQEND
  8
0
  5
3C0
  0
POLYLINE
  8
0
 62
     7
  5
3C1
 66
     1
 10
0.0
 20
0.0
 30
0.0
  0
VERTEX
  8
0
 62
     7
  5
3C2
 10
-23.8
 20
16.2
 30
0.0
  0
VERTEX
  8
0
 62
     7
  5
3C3
 10
-23.72
 20
16.18222
 30
0.0
  0
VERTEX
  8
0
 62
     7
  5
3C4
 10
-23.72
 20
16.21778
 30
0.0
  0
VERTEX
  8
0
 62
     7
  5
3C5
 10
-23.8
 20
16.2
 30
0.0
  0
SEQEND
  8
0
  5
3C6
  0
POLYLINE
  8
0
 62
     7
  5
3C7
 66
     1
 10
0.0
 20
0.0
 30
0.0
  0
VERTEX
  8
0
 62
     7
  5
3C8
 10
-23.8
 20
22.2
 30
0.0
  0
VERTEX
  8
0
 62
     7
  5
3C9
 10
-23.72
 20
22.18222
 30
0.0
  0
VERTEX
  8
0
 62
     7
  5
3CA
 10
-23.72
 20
22.21778
 30
0.0
  0
VERTEX
  8
0
 62
     7
  5
3CB
 10
-23.8
 20
22.2
 30
0.0
  0
SEQEND
  8
0
  5
3CC
  0
LINE
  8
0
  6
DASH
 62
     7
  5
3CE
 10
-16.4
 20
9.4
 30
0.0
 11
-16.4
 21
5.7
 31
0.0
  0
LINE
  8
0
  6
DASH
 62
     7
  5
3CF
 10
-16.4
 20
15.4
 30
0.0
 11
-16.4
 21
11.7
 31
0.0
  0
LINE
  8
0
  6
DASH
 62
     7
  5
3D0
 10
-16.4
 20
21.4
 30
0.0
 11
-16.4
 21
17.7
 31
0.0
  0
LINE
  8
0
  6
DASH
 62
     7
  5
3D1
 10
-16.4
 20
11.4
 30
0.0
 11
-16.4
 21
9.4
 31
0.0
  0
LINE
  8
0
  6
DASH
 62
     7
  5
3D2
 10
-16.4
 20
17.4
 30
0.0
 11
-16.4
 21
15.4
 31
0.0
  0
LINE
  8
0
  6
DASH
 62
     7
  5
3D3
 10
-16.4
 20
23.4
 30
0.0
 11
-16.4
 21
21.4
 31
0.0
  0
TEXT
  8
0
 62
     7
  5
3D4
 10
-13.3575
 20
5.95
 30
0.0
 40
0.1
  1
make_pulses()
  7
STYLE3
 72
     1
 11
-13.0
 21
6.0
 31
0.0
 73
     2
  0
TEXT
  8
0
 62
     7
  5
3D5
 10
-13.3575
 20
11.95
 30
0.0
 40
0.1
  1
make_pulses()
  7
STYLE3
 72
     1
 11
-13.0
 21
12.0
 31
0.0
 73
     2
  0
TEXT
  8
0
 62
     7
  5
3D6
 10
-13.3575
 20
18.05
 30
0.0
 40
0.1
  1
make_pulses()
  7
STYLE3
 72
     1
 11
-13.0
 21
18.1
 31
0.0
 73
     2
  0
TEXT
  8
0
 62
     7
  5
3D7
 10
-12.7575
 20
13.35
 30
0.0
 40
0.1
  1
STEP TYPE = 1
  7
STYLE3
 72
     1
 11
-12.4
 21
13.4
 31
0.0
 73
     2
  0
TEXT
  8
0
 62
     7
  5
3D8
 10
-12.795
 20
7.35
 30
0.0
 40
0.1
  1
STEP TYPE = 2 - 14
  7
STYLE3
 72
     1
 11
-12.3
 21
7.4
 31
0.0
 73
     2
  0
TEXT
  8
0
 62
     7
  5
3D9
 10
-23.25
 20
5.95
 30
0.0
 40
0.1
  1
CTRL TYPE = VELOCITY
  7
STYLE3
 72
     1
 11
-22.7
 21
6.0
 31
0.0
 73
     2
  0
TEXT
  8
0
 62
     7
  5
3DA
 10
-23.25
 20
11.95
 30
0.0
 40
0.1
  1
CTRL TYPE = POSITION
  7
STYLE3
 72
     1
 11
-22.7
 21
12.0
 31
0.0
 73
     2
  0
TEXT
  8
0
 62
     7
  5
3DB
 10
-23.25
 20
17.95
 30
0.0
 40
0.1
  1
CTRL TYPE = POSITION
  7
STYLE3
 72
     1
 11
-22.7
 21
18.0
 31
0.0
 73
     2
  0
TEXT
  8
0
 62
     7
  5
3DC
 10
-13.2575
 20
19.05
 30
0.0
 40
0.1
  1
STEP TYPE = 0
  7
STYLE3
 72
     1
 11
-12.9
 21
19.1
 31
0.0
 73
     2
  0
TEXT
  8
0
 62
     7
  5
3DD
 10
-22.7575
 20
6.35
 30
0.0
 40
0.1
  1
update_freq()
  7
STYLE3
 72
     1
 11
-22.4
 21
6.4
 31
0.0
 73
     2
  0
TEXT
  8
0
 62
     7
  5
3DE
 10
-22.7575
 20
12.35
 30
0.0
 40
0.1
  1
update_freq()
  7
STYLE3
 72
     1
 11
-22.4
 21
12.4
 31
0.0
 73
     2
  0
TEXT
  8
0
 62
     7
  5
3DF
 10
-22.7575
 20
18.35
 30
0.0
 40
0.1
  1
update_freq()
  7
STYLE3
 72
     1
 11
-22.4
 21
18.4
 31
0.0
 73
     2
  0
TEXT
  8
0
 62
     7
  5
3E0
 10
-21.495
 20
11.05
 30
0.0
 40
0.1
  1
capture_position()
  7
STYLE3
 72
     1
 11
-21.0
 21
11.1
 31
0.0
 73
     2
  0
TEXT
  8
0
 62
     7
  5
3E1
 10
-21.495
 20
17.05
 30
0.0
 40
0.1
  1
capture_position()
  7
STYLE3
 72
     1
 11
-21.0
 21
17.1
 31
0.0
 73
     2
  0
TEXT
  8
0
 62
     7
  5
3E2
 10
-21.495
 20
23.05
 30
0.0
 40
0.1
  1
capture_position()
  7
STYLE3
 72
     1
 11
-21.0
 21
23.1
 31
0.0
 73
     2
  0
TEXT
  8
0
 62
     7
  5
3E3
 10
-24.695
 20
6.0
 30
0.0
 40
0.2
  1
stepgen.0
  7
STYLE3
 72
     1
 11
-24.2
 21
6.1
 31
0.0
 73
     2
  0
TEXT
  8
0
 62
     7
  5
3E4
 10
-24.695
 20
12.0
 30
0.0
 40
0.2
  1
stepgen.0
  7
STYLE3
 72
     1
 11
-24.2
 21
12.1
 31
0.0
 73
     2
  0
TEXT
  8
0
 62
     7
  5
3E5
 10
-24.695
 20
18.0
 30
0.0
 40
0.2
  1
stepgen.0
  7
STYLE3
 72
     1
 11
-24.2
 21
18.1
 31
0.0
 73
     2
  0
LINE
  8
0
 62
     7
  5
3E6
 10
-23.35
 20
7.6
 30
0.0
 11
-23.8
 21
7.6
 31
0.0
  0
POLYLINE
  8
0
 62
     7
  5
3E7
 66
     1
 10
0.0
 20
0.0
 30
0.0
  0
VERTEX
  8
0
 62
     7
  5
3E8
 10
-23.35
 20
7.6
 30
0.0
  0
VERTEX
  8
0
 62
     7
  5
3E9
 10
-23.43
 20
7.61778
 30
0.0
  0
VERTEX
  8
0
 62
     7
  5
3EA
 10
-23.43
 20
7.58222
 30
0.0
  0
VERTEX
  8
0
 62
     7
  5
3EB
 10
-23.35
 20
7.6
 30
0.0
  0
SEQEND
  8
0
  5
3EC
  0
LINE
  8
0
 62
     7
  5
3ED
 10
-23.45
 20
13.6
 30
0.0
 11
-23.8
 21
13.6
 31
0.0
  0
LINE
  8
0
 62
     7
  5
3EE
 10
-23.45
 20
19.6
 30
0.0
 11
-23.8
 21
19.6
 31
0.0
  0
POLYLINE
  8
0
 62
     7
  5
3EF
 66
     1
 10
0.0
 20
0.0
 30
0.0
  0
VERTEX
  8
0
 62
     7
  5
3F0
 10
-23.45
 20
13.6
 30
0.0
  0
VERTEX
  8
0
 62
     7
  5
3F1
 10
-23.53
 20
13.61778
 30
0.0
  0
VERTEX
  8
0
 62
     7
  5
3F2
 10
-23.53
 20
13.58222
 30
0.0
  0
VERTEX
  8
0
 62
     7
  5
3F3
 10
-23.45
 20
13.6
 30
0.0
  0
SEQEND
  8
0
  5
3F4
  0
POLYLINE
  8
0
 62
     7
  5
3F5
 66
     1
 10
0.0
 20
0.0
 30
0.0
  0
VERTEX
  8
0
 62
     7
  5
3F6
 10
-23.45
 20
19.6
 30
0.0
  0
VERTEX
  8
0
 62
     7
  5
3F7
 10
-23.53
 20
19.61778
 30
0.0
  0
VERTEX
  8
0
 62
     7
  5
3F8
 10
-23.53
 20
19.58222
 30
0.0
  0
VERTEX
  8
0
 62
     7
  5
3F9
 10
-23.45
 20
19.6
 30
0.0
  0
SEQEND
  8
0
  5
3FA
  0
LINE
  8
0
 62
     7
  5
3FB
 10
-18.8
 20
13.6
 30
0.0
 11
-18.5
 21
13.6
 31
0.0
  0
LINE
  8
0
 62
     7
  5
3FC
 10
-18.8
 20
19.6
 30
0.0
 11
-18.5
 21
19.6
 31
0.0
  0
POLYLINE
  8
0
 62
     7
  5
3FD
 66
     1
 10
0.0
 20
0.0
 30
0.0
  0
VERTEX
  8
0
 62
     7
  5
3FE
 10
-18.5
 20
13.6
 30
0.0
  0
VERTEX
  8
0
 62
     7
  5
3FF
 10
-18.58
 20
13.61778
 30
0.0
  0
VERTEX
  8
0
 62
     7
  5
400
 10
-18.58
 20
13.58222
 30
0.0
  0
VERTEX
  8
0
 62
     7
  5
401
 10
-18.5
 20
13.6
 30
0.0
  0
SEQEND
  8
0
  5
402
  0
POLYLINE
  8
0
 62
     7
  5
403
 66
     1
 10
0.0
 20
0.0
 30
0.0
  0
VERTEX
  8
0
 62
     7
  5
404
 10
-18.5
 20
19.6
 30
0.0
  0
VERTEX
  8
0
 62
     7
  5
405
 10
-18.58
 20
19.61778
 30
0.0
  0
VERTEX
  8
0
 62
     7
  5
406
 10
-18.58
 20
19.58222
 30
0.0
  0
VERTEX
  8
0
 62
     7
  5
407
 10
-18.5
 20
19.6
 30
0.0
  0
SEQEND
  8
0
  5
408
  0
POLYLINE
  8
0
 62
     7
  5
409
 66
     1
 10
0.0
 20
0.0
 30
0.0
  0
VERTEX
  8
0
 62
     7
  5
40A
 10
-19.4
 20
7.6
 30
0.0
  0
VERTEX
  8
0
 62
     7
  5
40B
 10
-19.48
 20
7.61778
 30
0.0
  0
VERTEX
  8
0
 62
     7
  5
40C
 10
-19.48
 20
7.58222
 30
0.0
  0
VERTEX
  8
0
 62
     7
  5
40D
 10
-19.4
 20
7.6
 30
0.0
  0
SEQEND
  8
0
  5
40E
  0
LINE
  8
0
 62
     7
  5
40F
 10
-17.8
 20
13.6
 30
0.0
 11
-17.5
 21
13.6
 31
0.0
  0
LINE
  8
0
 62
     7
  5
410
 10
-17.8
 20
19.6
 30
0.0
 11
-17.5
 21
19.6
 31
0.0
  0
POLYLINE
  8
0
 62
     7
  5
411
 66
     1
 10
0.0
 20
0.0
 30
0.0
  0
VERTEX
  8
0
 62
     7
  5
412
 10
-17.5
 20
13.6
 30
0.0
  0
VERTEX
  8
0
 62
     7
  5
413
 10
-17.58
 20
13.61778
 30
0.0
  0
VERTEX
  8
0
 62
     7
  5
414
 10
-17.58
 20
13.58222
 30
0.0
  0
VERTEX
  8
0
 62
     7
  5
415
 10
-17.5
 20
13.6
 30
0.0
  0
SEQEND
  8
0
  5
416
  0
POLYLINE
  8
0
 62
     7
  5
417
 66
     1
 10
0.0
 20
0.0
 30
0.0
  0
VERTEX
  8
0
 62
     7
  5
418
 10
-17.5
 20
19.6
 30
0.0
  0
VERTEX
  8
0
 62
     7
  5
419
 10
-17.58
 20
19.61778
 30
0.0
  0
VERTEX
  8
0
 62
     7
  5
41A
 10
-17.58
 20
19.58222
 30
0.0
  0
VERTEX
  8
0
 62
     7
  5
41B
 10
-17.5
 20
19.6
 30
0.0
  0
SEQEND
  8
0
  5
41C
  0
LINE
  8
0
 62
     7
  5
41D
 10
-17.5
 20
7.6
 30
0.0
 11
-16.9
 21
7.6
 31
0.0
  0
POLYLINE
  8
0
 62
     7
  5
41E
 66
     1
 10
0.0
 20
0.0
 30
0.0
  0
VERTEX
  8
0
 62
     7
  5
41F
 10
-16.9
 20
7.6
 30
0.0
  0
VERTEX
  8
0
 62
     7
  5
420
 10
-16.98
 20
7.61778
 30
0.0
  0
VERTEX
  8
0
 62
     7
  5
421
 10
-16.98
 20
7.58222
 30
0.0
  0
VERTEX
  8
0
 62
     7
  5
422
 10
-16.9
 20
7.6
 30
0.0
  0
SEQEND
  8
0
  5
423
  0
LINE
  8
0
 62
     7
  5
424
 10
-16.9
 20
13.6
 30
0.0
 11
-16.6
 21
13.6
 31
0.0
  0
LINE
  8
0
 62
     7
  5
425
 10
-16.9
 20
19.6
 30
0.0
 11
-16.6
 21
19.6
 31
0.0
  0
POLYLINE
  8
0
 62
     7
  5
426
 66
     1
 10
0.0
 20
0.0
 30
0.0
  0
VERTEX
  8
0
 62
     7
  5
427
 10
-16.6
 20
13.6
 30
0.0
  0
VERTEX
  8
0
 62
     7
  5
428
 10
-16.68
 20
13.61778
 30
0.0
  0
VERTEX
  8
0
 62
     7
  5
429
 10
-16.68
 20
13.58222
 30
0.0
  0
VERTEX
  8
0
 62
     7
  5
42A
 10
-16.6
 20
13.6
 30
0.0
  0
SEQEND
  8
0
  5
42B
  0
POLYLINE
  8
0
 62
     7
  5
42C
 66
     1
 10
0.0
 20
0.0
 30
0.0
  0
VERTEX
  8
0
 62
     7
  5
42D
 10
-16.6
 20
19.6
 30
0.0
  0
VERTEX
  8
0
 62
     7
  5
42E
 10
-16.68
 20
19.61778
 30
0.0
  0
VERTEX
  8
0
 62
     7
  5
42F
 10
-16.68
 20
19.58222
 30
0.0
  0
VERTEX
  8
0
 62
     7
  5
430
 10
-16.6
 20
19.6
 30
0.0
  0
SEQEND
  8
0
  5
431
  0
LINE
  8
0
 62
     7
  5
432
 10
-18.8
 20
7.6
 30
0.0
 11
-18.1
 21
7.6
 31
0.0
  0
POLYLINE
  8
0
 62
     7
  5
433
 66
     1
 10
0.0
 20
0.0
 30
0.0
  0
VERTEX
  8
0
 62
     7
  5
434
 10
-18.1
 20
7.6
 30
0.0
  0
VERTEX
  8
0
 62
     7
  5
435
 10
-18.18
 20
7.61778
 30
0.0
  0
VERTEX
  8
0
 62
     7
  5
436
 10
-18.18
 20
7.58222
 30
0.0
  0
VERTEX
  8
0
 62
     7
  5
437
 10
-18.1
 20
7.6
 30
0.0
  0
SEQEND
  8
0
  5
438
  0
LINE
  8
0
 62
     7
  5
439
 10
-16.9
 20
7.6
 30
0.0
 11
-16.2
 21
7.6
 31
0.0
  0
LINE
  8
0
 62
     7
  5
43A
 10
-16.6
 20
13.6
 30
0.0
 11
-16.2
 21
13.6
 31
0.0
  0
LINE
  8
0
 62
     7
  5
43B
 10
-16.6
 20
19.6
 30
0.0
 11
-16.2
 21
19.6
 31
0.0
  0
POLYLINE
  8
0
 62
     7
  5
43C
 66
     1
 10
0.0
 20
0.0
 30
0.0
  0
VERTEX
  8
0
 62
     7
  5
43D
 10
-16.2
 20
7.6
 30
0.0
  0
VERTEX
  8
0
 62
     7
  5
43E
 10
-16.28
 20
7.61778
 30
0.0
  0
VERTEX
  8
0
 62
     7
  5
43F
 10
-16.28
 20
7.58222
 30
0.0
  0
VERTEX
  8
0
 62
     7
  5
440
 10
-16.2
 20
7.6
 30
0.0
  0
SEQEND
  8
0
  5
441
  0
POLYLINE
  8
0
 62
     7
  5
442
 66
     1
 10
0.0
 20
0.0
 30
0.0
  0
VERTEX
  8
0
 62
     7
  5
443
 10
-16.2
 20
13.6
 30
0.0
  0
VERTEX
  8
0
 62
     7
  5
444
 10
-16.28
 20
13.61778
 30
0.0
  0
VERTEX
  8
0
 62
     7
  5
445
 10
-16.28
 20
13.58222
 30
0.0
  0
VERTEX
  8
0
 62
     7
  5
446
 10
-16.2
 20
13.6
 30
0.0
  0
SEQEND
  8
0
  5
447
  0
POLYLINE
  8
0
 62
     7
  5
448
 66
     1
 10
0.0
 20
0.0
 30
0.0
  0
VERTEX
  8
0
 62
     7
  5
449
 10
-16.2
 20
19.6
 30
0.0
  0
VERTEX
  8
0
 62
     7
  5
44A
 10
-16.28
 20
19.61778
 30
0.0
  0
VERTEX
  8
0
 62
     7
  5
44B
 10
-16.28
 20
19.58222
 30
0.0
  0
VERTEX
  8
0
 62
     7
  5
44C
 10
-16.2
 20
19.6
 30
0.0
  0
SEQEND
  8
0
  5
44D
  0
LINE
  8
0
 62
     7
  5
44E
 10
-17.8
 20
6.5
 30
0.0
 11
-17.8
 21
7.3
 31
0.0
  0
POLYLINE
  8
0
 62
     7
  5
44F
 66
     1
 10
0.0
 20
0.0
 30
0.0
  0
VERTEX
  8
0
 62
     7
  5
450
 10
-17.8
 20
7.3
 30
0.0
  0
VERTEX
  8
0
 62
     7
  5
451
 10
-17.81778
 20
7.22
 30
0.0
  0
VERTEX
  8
0
 62
     7
  5
452
 10
-17.78222
 20
7.22
 30
0.0
  0
VERTEX
  8
0
 62
     7
  5
453
 10
-17.8
 20
7.3
 30
0.0
  0
SEQEND
  8
0
  5
454
  0
LINE
  8
0
 62
     7
  5
455
 10
-15.9
 20
6.5
 30
0.0
 11
-15.9
 21
7.3
 31
0.0
  0
LINE
  8
0
 62
     7
  5
456
 10
-15.9
 20
12.5
 30
0.0
 11
-15.9
 21
13.3
 31
0.0
  0
LINE
  8
0
 62
     7
  5
457
 10
-15.9
 20
18.5
 30
0.0
 11
-15.9
 21
19.3
 31
0.0
  0
POLYLINE
  8
0
 62
     7
  5
458
 66
     1
 10
0.0
 20
0.0
 30
0.0
  0
VERTEX
  8
0
 62
     7
  5
459
 10
-15.9
 20
7.3
 30
0.0
  0
VERTEX
  8
0
 62
     7
  5
45A
 10
-15.91778
 20
7.22
 30
0.0
  0
VERTEX
  8
0
 62
     7
  5
45B
 10
-15.88222
 20
7.22
 30
0.0
  0
VERTEX
  8
0
 62
     7
  5
45C
 10
-15.9
 20
7.3
 30
0.0
  0
SEQEND
  8
0
  5
45D
  0
POLYLINE
  8
0
 62
     7
  5
45E
 66
     1
 10
0.0
 20
0.0
 30
0.0
  0
VERTEX
  8
0
 62
     7
  5
45F
 10
-15.9
 20
13.3
 30
0.0
  0
VERTEX
  8
0
 62
     7
  5
460
 10
-15.91778
 20
13.22
 30
0.0
  0
VERTEX
  8
0
 62
     7
  5
461
 10
-15.88222
 20
13.22
 30
0.0
  0
VERTEX
  8
0
 62
     7
  5
462
 10
-15.9
 20
13.3
 30
0.0
  0
SEQEND
  8
0
  5
463
  0
POLYLINE
  8
0
 62
     7
  5
464
 66
     1
 10
0.0
 20
0.0
 30
0.0
  0
VERTEX
  8
0
 62
     7
  5
465
 10
-15.9
 20
19.3
 30
0.0
  0
VERTEX
  8
0
 62
     7
  5
466
 10
-15.91778
 20
19.22
 30
0.0
  0
VERTEX
  8
0
 62
     7
  5
467
 10
-15.88222
 20
19.22
 30
0.0
  0
VERTEX
  8
0
 62
     7
  5
468
 10
-15.9
 20
19.3
 30
0.0
  0
SEQEND
  8
0
  5
469
  0
LINE
  8
0
  6
DASH
 62
     7
  5
46A
 10
-16.4
 20
9.4
 30
0.0
 11
-25.0
 21
9.4
 31
0.0
  0
LINE
  8
0
  6
DASH
 62
     7
  5
46B
 10
-16.4
 20
15.4
 30
0.0
 11
-25.0
 21
15.4
 31
0.0
  0
LINE
  8
0
  6
DASH
 62
     7
  5
46C
 10
-16.4
 20
21.4
 30
0.0
 11
-25.0
 21
21.4
 31
0.0
  0
LINE
  8
0
 62
     7
  5
46D
 10
-12.1
 20
16.4
 30
0.0
 11
-12.1
 21
16.6
 31
0.0
  0
LINE
  8
0
 62
     7
  5
46E
 10
-12.1
 20
22.4
 30
0.0
 11
-12.1
 21
22.6
 31
0.0
  0
LINE
  8
0
 62
     7
  5
46F
 10
-12.1
 20
16.2
 30
0.0
 11
-12.1
 21
16.0
 31
0.0
  0
LINE
  8
0
 62
     7
  5
470
 10
-12.1
 20
22.2
 30
0.0
 11
-12.1
 21
22.0
 31
0.0
  0
LINE
  8
0
 62
     7
  5
471
 10
-13.118046
 20
7.6
 30
0.0
 11
-14.5
 21
7.6
 31
0.0
  0
LINE
  8
0
 62
     7
  5
472
 10
-13.118046
 20
13.6
 30
0.0
 11
-14.5
 21
13.6
 31
0.0
  0
LINE
  8
0
 62
     7
  5
473
 10
-13.118046
 20
19.6
 30
0.0
 11
-14.5
 21
19.6
 31
0.0
  0
LINE
  8
0
 62
     7
  5
474
 10
-15.6
 20
7.6
 30
0.0
 11
-15.3
 21
7.6
 31
0.0
  0
LINE
  8
0
 62
     7
  5
475
 10
-15.6
 20
13.6
 30
0.0
 11
-15.3
 21
13.6
 31
0.0
  0
LINE
  8
0
 62
     7
  5
476
 10
-15.6
 20
19.6
 30
0.0
 11
-15.3
 21
19.6
 31
0.0
  0
POLYLINE
  8
0
 62
     7
  5
477
 66
     1
 10
0.0
 20
0.0
 30
0.0
  0
VERTEX
  8
0
 62
     7
  5
478
 10
-14.5
 20
7.6
 30
0.0
  0
VERTEX
  8
0
 62
     7
  5
479
 10
-14.42
 20
7.61778
 30
0.0
  0
VERTEX
  8
0
 62
     7
  5
47A
 10
-14.42
 20
7.58222
 30
0.0
  0
VERTEX
  8
0
 62
     7
  5
47B
 10
-14.5
 20
7.6
 30
0.0
  0
SEQEND
  8
0
  5
47C
  0
POLYLINE
  8
0
 62
     7
  5
47D
 66
     1
 10
0.0
 20
0.0
 30
0.0
  0
VERTEX
  8
0
 62
     7
  5
47E
 10
-14.5
 20
13.6
 30
0.0
  0
VERTEX
  8
0
 62
     7
  5
47F
 10
-14.42
 20
13.61778
 30
0.0
  0
VERTEX
  8
0
 62
     7
  5
480
 10
-14.42
 20
13.58222
 30
0.0
  0
VERTEX
  8
0
 62
     7
  5
481
 10
-14.5
 20
13.6
 30
0.0
  0
SEQEND
  8
0
  5
482
  0
POLYLINE
  8
0
 62
     7
  5
483
 66
     1
 10
0.0
 20
0.0
 30
0.0
  0
VERTEX
  8
0
 62
     7
  5
484
 10
-14.5
 20
19.6
 30
0.0
  0
VERTEX
  8
0
 62
     7
  5
485
 10
-14.42
 20
19.61778
 30
0.0
  0
VERTEX
  8
0
 62
     7
  5
486
 10
-14.42
 20
19.58222
 30
0.0
  0
VERTEX
  8
0
 62
     7
  5
487
 10
-14.5
 20
19.6
 30
0.0
  0
SEQEND
  8
0
  5
488
  0
POLYLINE
  8
0
 62
     7
  5
489
 66
     1
 10
0.0
 20
0.0
 30
0.0
  0
VERTEX
  8
0
 62
     7
  5
48A
 10
-15.3
 20
7.6
 30
0.0
  0
VERTEX
  8
0
 62
     7
  5
48B
 10
-15.38
 20
7.61778
 30
0.0
  0
VERTEX
  8
0
 62
     7
  5
48C
 10
-15.38
 20
7.58222
 30
0.0
  0
VERTEX
  8
0
 62
     7
  5
48D
 10
-15.3
 20
7.6
 30
0.0
  0
SEQEND
  8
0
  5
48E
  0
POLYLINE
  8
0
 62
     7
  5
48F
 66
     1
 10
0.0
 20
0.0
 30
0.0
  0
VERTEX
  8
0
 62
     7
  5
490
 10
-15.3
 20
13.6
 30
0.0
  0
VERTEX
  8
0
 62
     7
  5
491
 10
-15.38
 20
13.61778
 30
0.0
  0
VERTEX
  8
0
 62
     7
  5
492
 10
-15.38
 20
13.58222
 30
0.0
  0
VERTEX
  8
0
 62
     7
  5
493
 10
-15.3
 20
13.6
 30
0.0
  0
SEQEND
  8
0
  5
494
  0
POLYLINE
  8
0
 62
     7
  5
495
 66
     1
 10
0.0
 20
0.0
 30
0.0
  0
VERTEX
  8
0
 62
     7
  5
496
 10
-15.3
 20
19.6
 30
0.0
  0
VERTEX
  8
0
 62
     7
  5
497
 10
-15.38
 20
19.61778
 30
0.0
  0
VERTEX
  8
0
 62
     7
  5
498
 10
-15.38
 20
19.58222
 30
0.0
  0
VERTEX
  8
0
 62
     7
  5
499
 10
-15.3
 20
19.6
 30
0.0
  0
SEQEND
  8
0
  5
49A
  0
LINE
  8
0
 62
     7
  5
49B
 10
-13.018046
 20
15.1
 30
0.0
 11
-13.018046
 21
16.2
 31
0.0
  0
LINE
  8
0
 62
     7
  5
49C
 10
-13.018046
 20
21.1
 30
0.0
 11
-13.018046
 21
22.2
 31
0.0
  0
LINE
  8
0
 62
     7
  5
49D
 10
-13.218046
 20
15.1
 30
0.0
 11
-13.218046
 21
16.4
 31
0.0
  0
LINE
  8
0
 62
     7
  5
49E
 10
-13.218046
 20
21.1
 30
0.0
 11
-13.218046
 21
22.4
 31
0.0
  0
LINE
  8
0
 62
     7
  5
49F
 10
-12.1
 20
22.6
 30
0.0
 11
-11.7
 21
22.6
 31
0.0
  0
POLYLINE
  8
0
 62
     7
  5
4A0
 66
     1
 10
0.0
 20
0.0
 30
0.0
  0
VERTEX
  8
0
 62
     7
  5
4A1
 10
-11.7
 20
22.6
 30
0.0
  0
VERTEX
  8
0
 62
     7
  5
4A2
 10
-11.78
 20
22.61778
 30
0.0
  0
VERTEX
  8
0
 62
     7
  5
4A3
 10
-11.78
 20
22.58222
 30
0.0
  0
VERTEX
  8
0
 62
     7
  5
4A4
 10
-11.7
 20
22.6
 30
0.0
  0
SEQEND
  8
0
  5
4A5
  0
LINE
  8
0
 62
     7
  5
4A6
 10
-12.1
 20
22.0
 30
0.0
 11
-11.7
 21
22.0
 31
0.0
  0
POLYLINE
  8
0
 62
     7
  5
4A7
 66
     1
 10
0.0
 20
0.0
 30
0.0
  0
VERTEX
  8
0
 62
     7
  5
4A8
 10
-11.7
 20
22.0
 30
0.0
  0
VERTEX
  8
0
 62
     7
  5
4A9
 10
-11.78
 20
22.01778
 30
0.0
  0
VERTEX
  8
0
 62
     7
  5
4AA
 10
-11.78
 20
21.98222
 30
0.0
  0
VERTEX
  8
0
 62
     7
  5
4AB
 10
-11.7
 20
22.0
 30
0.0
  0
SEQEND
  8
0
  5
4AC
  0
LINE
  8
0
 62
     7
  5
4AD
 10
-13.218046
 20
16.4
 30
0.0
 11
-12.1
 21
16.4
 31
0.0
  0
LINE
  8
0
 62
     7
  5
4AE
 10
-13.218046
 20
22.4
 30
0.0
 11
-12.1
 21
22.4
 31
0.0
  0
LINE
  8
0
 62
     7
  5
4AF
 10
-13.018046
 20
16.2
 30
0.0
 11
-12.1
 21
16.2
 31
0.0
  0
LINE
  8
0
 62
     7
  5
4B0
 10
-13.018046
 20
22.2
 30
0.0
 11
-12.1
 21
22.2
 31
0.0
  0
LINE
  8
0
 62
     7
  5
4B1
 10
-12.418046
 20
14.6
 30
0.0
 11
-12.418046
 21
14.3
 31
0.0
  0
LINE
  8
0
 62
     7
  5
4B2
 10
-12.418046
 20
20.6
 30
0.0
 11
-12.418046
 21
20.3
 31
0.0
  0
LINE
  8
0
 62
     7
  5
4B3
 10
-12.418046
 20
14.3
 30
0.0
 11
-12.118046
 21
14.3
 31
0.0
  0
LINE
  8
0
 62
     7
  5
4B4
 10
-12.418046
 20
20.3
 30
0.0
 11
-12.118046
 21
20.3
 31
0.0
  0
LINE
  8
0
 62
     7
  5
4B5
 10
-12.318046
 20
20.7
 30
0.0
 11
-12.318046
 21
20.6
 31
0.0
  0
LINE
  8
0
 62
     7
  5
4B6
 10
-12.318046
 20
20.6
 30
0.0
 11
-12.118046
 21
20.6
 31
0.0
  0
LINE
  8
0
 62
     7
  5
4B7
 10
-12.318046
 20
14.8
 30
0.0
 11
-12.318046
 21
14.9
 31
0.0
  0
LINE
  8
0
 62
     7
  5
4B8
 10
-12.318046
 20
20.8
 30
0.0
 11
-12.318046
 21
20.9
 31
0.0
  0
LINE
  8
0
 62
     7
  5
4B9
 10
-12.318046
 20
14.9
 30
0.0
 11
-12.118046
 21
14.9
 31
0.0
  0
LINE
  8
0
 62
     7
  5
4BA
 10
-12.318046
 20
20.9
 30
0.0
 11
-12.118046
 21
20.9
 31
0.0
  0
LINE
  8
0
 62
     7
  5
4BB
 10
-12.418046
 20
14.9
 30
0.0
 11
-12.418046
 21
15.2
 31
0.0
  0
LINE
  8
0
 62
     7
  5
4BC
 10
-12.418046
 20
20.9
 30
0.0
 11
-12.418046
 21
21.2
 31
0.0
  0
LINE
  8
0
 62
     7
  5
4BD
 10
-12.418046
 20
15.2
 30
0.0
 11
-12.118046
 21
15.2
 31
0.0
  0
LINE
  8
0
 62
     7
  5
4BE
 10
-12.418046
 20
21.2
 30
0.0
 11
-12.118046
 21
21.2
 31
0.0
  0
LINE
  8
0
 62
     7
  5
4BF
 10
-12.818046
 20
8.9
 30
0.0
 11
-12.118046
 21
8.9
 31
0.0
  0
LINE
  8
0
 62
     7
  5
4C0
 10
-12.818046
 20
14.9
 30
0.0
 11
-12.418046
 21
14.9
 31
0.0
  0
LINE
  8
0
 62
     7
  5
4C1
 10
-12.818046
 20
20.9
 30
0.0
 11
-12.418046
 21
20.9
 31
0.0
  0
POLYLINE
  8
0
 62
     7
  5
4C2
 66
     1
 10
0.0
 20
0.0
 30
0.0
  0
VERTEX
  8
0
 62
     7
  5
4C3
 10
-12.818046
 20
8.9
 30
0.0
  0
VERTEX
  8
0
 62
     7
  5
4C4
 10
-12.738046
 20
8.91778
 30
0.0
  0
VERTEX
  8
0
 62
     7
  5
4C5
 10
-12.738046
 20
8.88222
 30
0.0
  0
VERTEX
  8
0
 62
     7
  5
4C6
 10
-12.818046
 20
8.9
 30
0.0
  0
SEQEND
  8
0
  5
4C7
  0
POLYLINE
  8
0
 62
     7
  5
4C8
 66
     1
 10
0.0
 20
0.0
 30
0.0
  0
VERTEX
  8
0
 62
     7
  5
4C9
 10
-12.818046
 20
14.9
 30
0.0
  0
VERTEX
  8
0
 62
     7
  5
4CA
 10
-12.738046
 20
14.91778
 30
0.0
  0
VERTEX
  8
0
 62
     7
  5
4CB
 10
-12.738046
 20
14.88222
 30
0.0
  0
VERTEX
  8
0
 62
     7
  5
4CC
 10
-12.818046
 20
14.9
 30
0.0
  0
SEQEND
  8
0
  5
4CD
  0
POLYLINE
  8
0
 62
     7
  5
4CE
 66
     1
 10
0.0
 20
0.0
 30
0.0
  0
VERTEX
  8
0
 62
     7
  5
4CF
 10
-12.818046
 20
20.9
 30
0.0
  0
VERTEX
  8
0
 62
     7
  5
4D0
 10
-12.738046
 20
20.91778
 30
0.0
  0
VERTEX
  8
0
 62
     7
  5
4D1
 10
-12.738046
 20
20.88222
 30
0.0
  0
VERTEX
  8
0
 62
     7
  5
4D2
 10
-12.818046
 20
20.9
 30
0.0
  0
SEQEND
  8
0
  5
4D3
  0
LINE
  8
0
 62
     7
  5
4D4
 10
-12.818046
 20
14.8
 30
0.0
 11
-12.318046
 21
14.8
 31
0.0
  0
LINE
  8
0
 62
     7
  5
4D5
 10
-12.818046
 20
20.8
 30
0.0
 11
-12.318046
 21
20.8
 31
0.0
  0
POLYLINE
  8
0
 62
     7
  5
4D6
 66
     1
 10
0.0
 20
0.0
 30
0.0
  0
VERTEX
  8
0
 62
     7
  5
4D7
 10
-12.818046
 20
14.8
 30
0.0
  0
VERTEX
  8
0
 62
     7
  5
4D8
 10
-12.738046
 20
14.81778
 30
0.0
  0
VERTEX
  8
0
 62
     7
  5
4D9
 10
-12.738046
 20
14.78222
 30
0.0
  0
VERTEX
  8
0
 62
     7
  5
4DA
 10
-12.818046
 20
14.8
 30
0.0
  0
SEQEND
  8
0
  5
4DB
  0
POLYLINE
  8
0
 62
     7
  5
4DC
 66
     1
 10
0.0
 20
0.0
 30
0.0
  0
VERTEX
  8
0
 62
     7
  5
4DD
 10
-12.818046
 20
20.8
 30
0.0
  0
VERTEX
  8
0
 62
     7
  5
4DE
 10
-12.738046
 20
20.81778
 30
0.0
  0
VERTEX
  8
0
 62
     7
  5
4DF
 10
-12.738046
 20
20.78222
 30
0.0
  0
VERTEX
  8
0
 62
     7
  5
4E0
 10
-12.818046
 20
20.8
 30
0.0
  0
SEQEND
  8
0
  5
4E1
  0
LINE
  8
0
 62
     7
  5
4E2
 10
-12.818046
 20
20.7
 30
0.0
 11
-12.318046
 21
20.7
 31
0.0
  0
POLYLINE
  8
0
 62
     7
  5
4E3
 66
     1
 10
0.0
 20
0.0
 30
0.0
  0
VERTEX
  8
0
 62
     7
  5
4E4
 10
-12.818046
 20
20.7
 30
0.0
  0
VERTEX
  8
0
 62
     7
  5
4E5
 10
-12.738046
 20
20.71778
 30
0.0
  0
VERTEX
  8
0
 62
     7
  5
4E6
 10
-12.738046
 20
20.68222
 30
0.0
  0
VERTEX
  8
0
 62
     7
  5
4E7
 10
-12.818046
 20
20.7
 30
0.0
  0
SEQEND
  8
0
  5
4E8
  0
LINE
  8
0
 62
     7
  5
4E9
 10
-12.818046
 20
8.6
 30
0.0
 11
-12.118046
 21
8.6
 31
0.0
  0
LINE
  8
0
 62
     7
  5
4EA
 10
-12.818046
 20
14.6
 30
0.0
 11
-12.418046
 21
14.6
 31
0.0
  0
LINE
  8
0
 62
     7
  5
4EB
 10
-12.818046
 20
20.6
 30
0.0
 11
-12.418046
 21
20.6
 31
0.0
  0
POLYLINE
  8
0
 62
     7
  5
4EC
 66
     1
 10
0.0
 20
0.0
 30
0.0
  0
VERTEX
  8
0
 62
     7
  5
4ED
 10
-12.818046
 20
8.6
 30
0.0
  0
VERTEX
  8
0
 62
     7
  5
4EE
 10
-12.738046
 20
8.61778
 30
0.0
  0
VERTEX
  8
0
 62
     7
  5
4EF
 10
-12.738046
 20
8.58222
 30
0.0
  0
VERTEX
  8
0
 62
     7
  5
4F0
 10
-12.818046
 20
8.6
 30
0.0
  0
SEQEND
  8
0
  5
4F1
  0
POLYLINE
  8
0
 62
     7
  5
4F2
 66
     1
 10
0.0
 20
0.0
 30
0.0
  0
VERTEX
  8
0
 62
     7
  5
4F3
 10
-12.818046
 20
14.6
 30
0.0
  0
VERTEX
  8
0
 62
     7
  5
4F4
 10
-12.738046
 20
14.61778
 30
0.0
  0
VERTEX
  8
0
 62
     7
  5
4F5
 10
-12.738046
 20
14.58222
 30
0.0
  0
VERTEX
  8
0
 62
     7
  5
4F6
 10
-12.818046
 20
14.6
 30
0.0
  0
SEQEND
  8
0
  5
4F7
  0
POLYLINE
  8
0
 62
     7
  5
4F8
 66
     1
 10
0.0
 20
0.0
 30
0.0
  0
VERTEX
  8
0
 62
     7
  5
4F9
 10
-12.818046
 20
20.6
 30
0.0
  0
VERTEX
  8
0
 62
     7
  5
4FA
 10
-12.738046
 20
20.61778
 30
0.0
  0
VERTEX
  8
0
 62
     7
  5
4FB
 10
-12.738046
 20
20.58222
 30
0.0
  0
VERTEX
  8
0
 62
     7
  5
4FC
 10
-12.818046
 20
20.6
 30
0.0
  0
SEQEND
  8
0
  5
4FD
  0
LINE
  8
0
 62
     7
  5
4FE
 10
-12.1
 20
16.6
 30
0.0
 11
-11.7
 21
16.6
 31
0.0
  0
POLYLINE
  8
0
 62
     7
  5
4FF
 66
     1
 10
0.0
 20
0.0
 30
0.0
  0
VERTEX
  8
0
 62
     7
  5
500
 10
-11.7
 20
16.6
 30
0.0
  0
VERTEX
  8
0
 62
     7
  5
501
 10
-11.78
 20
16.61778
 30
0.0
  0
VERTEX
  8
0
 62
     7
  5
502
 10
-11.78
 20
16.58222
 30
0.0
  0
VERTEX
  8
0
 62
     7
  5
503
 10
-11.7
 20
16.6
 30
0.0
  0
SEQEND
  8
0
  5
504
  0
LINE
  8
0
 62
     7
  5
505
 10
-12.1
 20
16.0
 30
0.0
 11
-11.7
 21
16.0
 31
0.0
  0
POLYLINE
  8
0
 62
     7
  5
506
 66
     1
 10
0.0
 20
0.0
 30
0.0
  0
VERTEX
  8
0
 62
     7
  5
507
 10
-11.7
 20
16.0
 30
0.0
  0
VERTEX
  8
0
 62
     7
  5
508
 10
-11.78
 20
16.01778
 30
0.0
  0
VERTEX
  8
0
 62
     7
  5
509
 10
-11.78
 20
15.98222
 30
0.0
  0
VERTEX
  8
0
 62
     7
  5
50A
 10
-11.7
 20
16.0
 30
0.0
  0
SEQEND
  8
0
  5
50B
  0
LINE
  8
0
 62
     7
  5
50C
 10
-12.1
 20
10.6
 30
0.0
 11
-12.1
 21
10.4
 31
0.0
  0
LINE
  8
0
 62
     7
  5
50D
 10
-12.1
 20
10.4
 30
0.0
 11
-12.818046
 21
10.4
 31
0.0
  0
LINE
  8
0
 62
     7
  5
50E
 10
-12.2
 20
10.9
 30
0.0
 11
-12.2
 21
10.5
 31
0.0
  0
LINE
  8
0
 62
     7
  5
50F
 10
-12.2
 20
10.5
 30
0.0
 11
-12.818046
 21
10.5
 31
0.0
  0
LINE
  8
0
 62
     7
  5
510
 10
-12.1
 20
10.0
 30
0.0
 11
-12.1
 21
10.2
 31
0.0
  0
LINE
  8
0
 62
     7
  5
511
 10
-12.1
 20
10.2
 30
0.0
 11
-12.818046
 21
10.2
 31
0.0
  0
LINE
  8
0
 62
     7
  5
512
 10
-12.2
 20
9.7
 30
0.0
 11
-12.2
 21
10.1
 31
0.0
  0
LINE
  8
0
 62
     7
  5
513
 10
-12.2
 20
10.1
 30
0.0
 11
-12.818046
 21
10.1
 31
0.0
  0
LINE
  8
0
 62
     7
  5
514
 10
-11.7
 20
9.7
 30
0.0
 11
-12.2
 21
9.7
 31
0.0
  0
POLYLINE
  8
0
 62
     7
  5
515
 66
     1
 10
0.0
 20
0.0
 30
0.0
  0
VERTEX
  8
0
 62
     7
  5
516
 10
-11.7
 20
9.7
 30
0.0
  0
VERTEX
  8
0
 62
     7
  5
517
 10
-11.78
 20
9.71778
 30
0.0
  0
VERTEX
  8
0
 62
     7
  5
518
 10
-11.78
 20
9.68222
 30
0.0
  0
VERTEX
  8
0
 62
     7
  5
519
 10
-11.7
 20
9.7
 30
0.0
  0
SEQEND
  8
0
  5
51A
  0
LINE
  8
0
 62
     7
  5
51B
 10
-11.7
 20
10.0
 30
0.0
 11
-12.1
 21
10.0
 31
0.0
  0
POLYLINE
  8
0
 62
     7
  5
51C
 66
     1
 10
0.0
 20
0.0
 30
0.0
  0
VERTEX
  8
0
 62
     7
  5
51D
 10
-11.7
 20
10.0
 30
0.0
  0
VERTEX
  8
0
 62
     7
  5
51E
 10
-11.78
 20
10.01778
 30
0.0
  0
VERTEX
  8
0
 62
     7
  5
51F
 10
-11.78
 20
9.98222
 30
0.0
  0
VERTEX
  8
0
 62
     7
  5
520
 10
-11.7
 20
10.0
 30
0.0
  0
SEQEND
  8
0
  5
521
  0
LINE
  8
0
 62
     7
  5
522
 10
-11.7
 20
10.3
 30
0.0
 11
-12.818046
 21
10.3
 31
0.0
  0
POLYLINE
  8
0
 62
     7
  5
523
 66
     1
 10
0.0
 20
0.0
 30
0.0
  0
VERTEX
  8
0
 62
     7
  5
524
 10
-11.7
 20
10.3
 30
0.0
  0
VERTEX
  8
0
 62
     7
  5
525
 10
-11.78
 20
10.31778
 30
0.0
  0
VERTEX
  8
0
 62
     7
  5
526
 10
-11.78
 20
10.28222
 30
0.0
  0
VERTEX
  8
0
 62
     7
  5
527
 10
-11.7
 20
10.3
 30
0.0
  0
SEQEND
  8
0
  5
528
  0
LINE
  8
0
 62
     7
  5
529
 10
-11.7
 20
10.6
 30
0.0
 11
-12.1
 21
10.6
 31
0.0
  0
POLYLINE
  8
0
 62
     7
  5
52A
 66
     1
 10
0.0
 20
0.0
 30
0.0
  0
VERTEX
  8
0
 62
     7
  5
52B
 10
-11.7
 20
10.6
 30
0.0
  0
VERTEX
  8
0
 62
     7
  5
52C
 10
-11.78
 20
10.61778
 30
0.0
  0
VERTEX
  8
0
 62
     7
  5
52D
 10
-11.78
 20
10.58222
 30
0.0
  0
VERTEX
  8
0
 62
     7
  5
52E
 10
-11.7
 20
10.6
 30
0.0
  0
SEQEND
  8
0
  5
52F
  0
LINE
  8
0
 62
     7
  5
530
 10
-11.7
 20
10.9
 30
0.0
 11
-12.2
 21
10.9
 31
0.0
  0
POLYLINE
  8
0
 62
     7
  5
531
 66
     1
 10
0.0
 20
0.0
 30
0.0
  0
VERTEX
  8
0
 62
     7
  5
532
 10
-11.7
 20
10.9
 30
0.0
  0
VERTEX
  8
0
 62
     7
  5
533
 10
-11.78
 20
10.91778
 30
0.0
  0
VERTEX
  8
0
 62
     7
  5
534
 10
-11.78
 20
10.88222
 30
0.0
  0
VERTEX
  8
0
 62
     7
  5
535
 10
-11.7
 20
10.9
 30
0.0
  0
SEQEND
  8
0
  5
536
  0
TEXT
  8
0
 62
     7
  5
537
 10
-23.2825
 20
8.95
 30
0.0
 40
0.1
  1
1/x
  7
STYLE3
 72
     1
 11
-23.2
 21
9.0
 31
0.0
 73
     2
  0
TEXT
  8
0
 62
     7
  5
538
 10
-23.3825
 20
14.95
 30
0.0
 40
0.1
  1
1/x
  7
STYLE3
 72
     1
 11
-23.3
 21
15.0
 31
0.0
 73
     2
  0
TEXT
  8
0
 62
     7
  5
539
 10
-23.3825
 20
20.95
 30
0.0
 40
0.1
  1
1/x
  7
STYLE3
 72
     1
 11
-23.3
 21
21.0
 31
0.0
 73
     2
  0
POLYLINE
  8
0
 62
     7
  5
53A
 66
     1
 10
0.0
 20
0.0
 30
0.0
 70
     1
  0
VERTEX
  8
0
 62
     7
  5
53B
 10
-23.4
 20
8.8
 30
0.0
  0
VERTEX
  8
0
 62
     7
  5
53C
 10
-23.4
 20
9.2
 30
0.0
  0
VERTEX
  8
0
 62
     7
  5
53D
 10
-23.0
 20
9.2
 30
0.0
  0
VERTEX
  8
0
 62
     7
  5
53E
 10
-23.0
 20
8.8
 30
0.0
  0
VERTEX
  8
0
 62
     7
  5
53F
 10
-23.4
 20
8.8
 30
0.0
  0
VERTEX
  8
0
 62
     7
  5
540
 10
-23.4
 20
8.8
 30
0.0
  0
SEQEND
  8
0
  5
541
  0
POLYLINE
  8
0
 62
     7
  5
542
 66
     1
 10
0.0
 20
0.0
 30
0.0
 70
     1
  0
VERTEX
  8
0
 62
     7
  5
543
 10
-23.5
 20
14.8
 30
0.0
  0
VERTEX
  8
0
 62
     7
  5
544
 10
-23.5
 20
15.2
 30
0.0
  0
VERTEX
  8
0
 62
     7
  5
545
 10
-23.1
 20
15.2
 30
0.0
  0
VERTEX
  8
0
 62
     7
  5
546
 10
-23.1
 20
14.8
 30
0.0
  0
VERTEX
  8
0
 62
     7
  5
547
 10
-23.5
 20
14.8
 30
0.0
  0
VERTEX
  8
0
 62
     7
  5
548
 10
-23.5
 20
14.8
 30
0.0
  0
SEQEND
  8
0
  5
549
  0
POLYLINE
  8
0
 62
     7
  5
54A
 66
     1
 10
0.0
 20
0.0
 30
0.0
 70
     1
  0
VERTEX
  8
0
 62
     7
  5
54B
 10
-23.5
 20
20.8
 30
0.0
  0
VERTEX
  8
0
 62
     7
  5
54C
 10
-23.5
 20
21.2
 30
0.0
  0
VERTEX
  8
0
 62
     7
  5
54D
 10
-23.1
 20
21.2
 30
0.0
  0
VERTEX
  8
0
 62
     7
  5
54E
 10
-23.1
 20
20.8
 30
0.0
  0
VERTEX
  8
0
 62
     7
  5
54F
 10
-23.5
 20
20.8
 30
0.0
  0
VERTEX
  8
0
 62
     7
  5
550
 10
-23.5
 20
20.8
 30
0.0
  0
SEQEND
  8
0
  5
551
  0
POLYLINE
  8
0
 62
     7
  5
552
 66
     1
 10
0.0
 20
0.0
 30
0.0
  0
VERTEX
  8
0
 62
     7
  5
553
 10
-23.2
 20
8.8
 30
0.0
  0
VERTEX
  8
0
 62
     7
  5
554
 10
-23.2
 20
8.3
 30
0.0
  0
SEQEND
  8
0
  5
555
  0
POLYLINE
  8
0
 62
     7
  5
556
 66
     1
 10
0.0
 20
0.0
 30
0.0
  0
VERTEX
  8
0
 62
     7
  5
557
 10
-23.2
 20
8.8
 30
0.0
  0
VERTEX
  8
0
 62
     7
  5
558
 10
-23.21778
 20
8.72
 30
0.0
  0
VERTEX
  8
0
 62
     7
  5
559
 10
-23.18222
 20
8.72
 30
0.0
  0
VERTEX
  8
0
 62
     7
  5
55A
 10
-23.2
 20
8.8
 30
0.0
  0
SEQEND
  8
0
  5
55B
  0
POLYLINE
  8
0
 62
     7
  5
55C
 66
     1
 10
0.0
 20
0.0
 30
0.0
  0
VERTEX
  8
0
 62
     7
  5
55D
 10
-23.3
 20
14.8
 30
0.0
  0
VERTEX
  8
0
 62
     7
  5
55E
 10
-23.3
 20
14.3
 30
0.0
  0
SEQEND
  8
0
  5
55F
  0
POLYLINE
  8
0
 62
     7
  5
560
 66
     1
 10
0.0
 20
0.0
 30
0.0
  0
VERTEX
  8
0
 62
     7
  5
561
 10
-23.3
 20
20.8
 30
0.0
  0
VERTEX
  8
0
 62
     7
  5
562
 10
-23.3
 20
20.3
 30
0.0
  0
SEQEND
  8
0
  5
563
  0
POLYLINE
  8
0
 62
     7
  5
564
 66
     1
 10
0.0
 20
0.0
 30
0.0
  0
VERTEX
  8
0
 62
     7
  5
565
 10
-23.3
 20
14.8
 30
0.0
  0
VERTEX
  8
0
 62
     7
  5
566
 10
-23.31778
 20
14.72
 30
0.0
  0
VERTEX
  8
0
 62
     7
  5
567
 10
-23.28222
 20
14.72
 30
0.0
  0
VERTEX
  8
0
 62
     7
  5
568
 10
-23.3
 20
14.8
 30
0.0
  0
SEQEND
  8
0
  5
569
  0
POLYLINE
  8
0
 62
     7
  5
56A
 66
     1
 10
0.0
 20
0.0
 30
0.0
  0
VERTEX
  8
0
 62
     7
  5
56B
 10
-23.3
 20
20.8
 30
0.0
  0
VERTEX
  8
0
 62
     7
  5
56C
 10
-23.31778
 20
20.72
 30
0.0
  0
VERTEX
  8
0
 62
     7
  5
56D
 10
-23.28222
 20
20.72
 30
0.0
  0
VERTEX
  8
0
 62
     7
  5
56E
 10
-23.3
 20
20.8
 30
0.0
  0
SEQEND
  8
0
  5
56F
  0
LINE
  8
0
 62
     7
  5
570
 10
-23.2
 20
10.05
 30
0.0
 11
-23.2
 21
9.2
 31
0.0
  0
LINE
  8
0
 62
     7
  5
571
 10
-23.3
 20
16.05
 30
0.0
 11
-23.3
 21
15.2
 31
0.0
  0
LINE
  8
0
 62
     7
  5
572
 10
-23.3
 20
22.05
 30
0.0
 11
-23.3
 21
21.2
 31
0.0
  0
POLYLINE
  8
0
 62
     7
  5
573
 66
     1
 10
0.0
 20
0.0
 30
0.0
  0
VERTEX
  8
0
 62
     7
  5
574
 10
-23.2
 20
10.05
 30
0.0
  0
VERTEX
  8
0
 62
     7
  5
575
 10
-23.21778
 20
9.97
 30
0.0
  0
VERTEX
  8
0
 62
     7
  5
576
 10
-23.18222
 20
9.97
 30
0.0
  0
VERTEX
  8
0
 62
     7
  5
577
 10
-23.2
 20
10.05
 30
0.0
  0
SEQEND
  8
0
  5
578
  0
POLYLINE
  8
0
 62
     7
  5
579
 66
     1
 10
0.0
 20
0.0
 30
0.0
  0
VERTEX
  8
0
 62
     7
  5
57A
 10
-23.3
 20
16.05
 30
0.0
  0
VERTEX
  8
0
 62
     7
  5
57B
 10
-23.31778
 20
15.97
 30
0.0
  0
VERTEX
  8
0
 62
     7
  5
57C
 10
-23.28222
 20
15.97
 30
0.0
  0
VERTEX
  8
0
 62
     7
  5
57D
 10
-23.3
 20
16.05
 30
0.0
  0
SEQEND
  8
0
  5
57E
  0
POLYLINE
  8
0
 62
     7
  5
57F
 66
     1
 10
0.0
 20
0.0
 30
0.0
  0
VERTEX
  8
0
 62
     7
  5
580
 10
-23.3
 20
22.05
 30
0.0
  0
VERTEX
  8
0
 62
     7
  5
581
 10
-23.31778
 20
21.97
 30
0.0
  0
VERTEX
  8
0
 62
     7
  5
582
 10
-23.28222
 20
21.97
 30
0.0
  0
VERTEX
  8
0
 62
     7
  5
583
 10
-23.3
 20
22.05
 30
0.0
  0
SEQEND
  8
0
  5
584
  0
LINE
  8
0
 62
     7
  5
585
 10
-23.5
 20
8.3
 30
0.0
 11
-23.2
 21
8.3
 31
0.0
  0
POLYLINE
  8
0
 62
     7
  5
586
 66
     1
 10
0.0
 20
0.0
 30
0.0
  0
VERTEX
  8
0
 62
     7
  5
587
 10
-23.2
 20
8.3
 30
0.0
  0
VERTEX
  8
0
 62
     7
  5
588
 10
-23.28
 20
8.31778
 30
0.0
  0
VERTEX
  8
0
 62
     7
  5
589
 10
-23.28
 20
8.28222
 30
0.0
  0
VERTEX
  8
0
 62
     7
  5
58A
 10
-23.2
 20
8.3
 30
0.0
  0
SEQEND
  8
0
  5
58B
  0
LINE
  8
0
 62
     7
  5
58C
 10
-23.6
 20
14.3
 30
0.0
 11
-23.3
 21
14.3
 31
0.0
  0
LINE
  8
0
 62
     7
  5
58D
 10
-23.6
 20
20.3
 30
0.0
 11
-23.3
 21
20.3
 31
0.0
  0
POLYLINE
  8
0
 62
     7
  5
58E
 66
     1
 10
0.0
 20
0.0
 30
0.0
  0
VERTEX
  8
0
 62
     7
  5
58F
 10
-23.3
 20
14.3
 30
0.0
  0
VERTEX
  8
0
 62
     7
  5
590
 10
-23.38
 20
14.31778
 30
0.0
  0
VERTEX
  8
0
 62
     7
  5
591
 10
-23.38
 20
14.28222
 30
0.0
  0
VERTEX
  8
0
 62
     7
  5
592
 10
-23.3
 20
14.3
 30
0.0
  0
SEQEND
  8
0
  5
593
  0
POLYLINE
  8
0
 62
     7
  5
594
 66
     1
 10
0.0
 20
0.0
 30
0.0
  0
VERTEX
  8
0
 62
     7
  5
595
 10
-23.3
 20
20.3
 30
0.0
  0
VERTEX
  8
0
 62
     7
  5
596
 10
-23.38
 20
20.31778
 30
0.0
  0
VERTEX
  8
0
 62
     7
  5
597
 10
-23.38
 20
20.28222
 30
0.0
  0
VERTEX
  8
0
 62
     7
  5
598
 10
-23.3
 20
20.3
 30
0.0
  0
SEQEND
  8
0
  5
599
  0
LINE
  8
0
 62
     7
  5
59A
 10
-22.9
 20
14.0
 30
0.0
 11
-22.9
 21
13.2
 31
0.0
  0
LINE
  8
0
 62
     7
  5
59B
 10
-22.9
 20
20.0
 30
0.0
 11
-22.9
 21
19.2
 31
0.0
  0
LINE
  8
0
 62
     7
  5
59C
 10
-21.6
 20
14.0
 30
0.0
 11
-22.9
 21
14.0
 31
0.0
  0
LINE
  8
0
 62
     7
  5
59D
 10
-21.6
 20
20.0
 30
0.0
 11
-22.9
 21
20.0
 31
0.0
  0
POLYLINE
  8
0
 62
     7
  5
59E
 66
     1
 10
0.0
 20
0.0
 30
0.0
  0
VERTEX
  8
0
 62
     7
  5
59F
 10
-21.6
 20
14.0
 30
0.0
  0
VERTEX
  8
0
 62
     7
  5
5A0
 10
-21.68
 20
14.01778
 30
0.0
  0
VERTEX
  8
0
 62
     7
  5
5A1
 10
-21.68
 20
13.98222
 30
0.0
  0
VERTEX
  8
0
 62
     7
  5
5A2
 10
-21.6
 20
14.0
 30
0.0
  0
SEQEND
  8
0
  5
5A3
  0
POLYLINE
  8
0
 62
     7
  5
5A4
 66
     1
 10
0.0
 20
0.0
 30
0.0
  0
VERTEX
  8
0
 62
     7
  5
5A5
 10
-21.6
 20
20.0
 30
0.0
  0
VERTEX
  8
0
 62
     7
  5
5A6
 10
-21.68
 20
20.01778
 30
0.0
  0
VERTEX
  8
0
 62
     7
  5
5A7
 10
-21.68
 20
19.98222
 30
0.0
  0
VERTEX
  8
0
 62
     7
  5
5A8
 10
-21.6
 20
20.0
 30
0.0
  0
SEQEND
  8
0
  5
5A9
  0
LINE
  8
0
 62
     7
  5
5AA
 10
-22.6
 20
13.2
 30
0.0
 11
-22.9
 21
13.2
 31
0.0
  0
LINE
  8
0
 62
     7
  5
5AB
 10
-22.6
 20
19.2
 30
0.0
 11
-22.9
 21
19.2
 31
0.0
  0
POLYLINE
  8
0
 62
     7
  5
5AC
 66
     1
 10
0.0
 20
0.0
 30
0.0
  0
VERTEX
  8
0
 62
     7
  5
5AD
 10
-22.6
 20
13.2
 30
0.0
  0
VERTEX
  8
0
 62
     7
  5
5AE
 10
-22.68
 20
13.21778
 30
0.0
  0
VERTEX
  8
0
 62
     7
  5
5AF
 10
-22.68
 20
13.18222
 30
0.0
  0
VERTEX
  8
0
 62
     7
  5
5B0
 10
-22.6
 20
13.2
 30
0.0
  0
SEQEND
  8
0
  5
5B1
  0
POLYLINE
  8
0
 62
     7
  5
5B2
 66
     1
 10
0.0
 20
0.0
 30
0.0
  0
VERTEX
  8
0
 62
     7
  5
5B3
 10
-22.6
 20
19.2
 30
0.0
  0
VERTEX
  8
0
 62
     7
  5
5B4
 10
-22.68
 20
19.21778
 30
0.0
  0
VERTEX
  8
0
 62
     7
  5
5B5
 10
-22.68
 20
19.18222
 30
0.0
  0
VERTEX
  8
0
 62
     7
  5
5B6
 10
-22.6
 20
19.2
 30
0.0
  0
SEQEND
  8
0
  5
5B7
  0
LINE
  8
0
 62
     7
  5
5B8
 10
-21.9
 20
13.2
 30
0.0
 11
-21.6
 21
13.2
 31
0.0
  0
LINE
  8
0
 62
     7
  5
5B9
 10
-21.9
 20
19.2
 30
0.0
 11
-21.6
 21
19.2
 31
0.0
  0
POLYLINE
  8
0
 62
     7
  5
5BA
 66
     1
 10
0.0
 20
0.0
 30
0.0
  0
VERTEX
  8
0
 62
     7
  5
5BB
 10
-21.6
 20
13.2
 30
0.0
  0
VERTEX
  8
0
 62
     7
  5
5BC
 10
-21.68
 20
13.21778
 30
0.0
  0
VERTEX
  8
0
 62
     7
  5
5BD
 10
-21.68
 20
13.18222
 30
0.0
  0
VERTEX
  8
0
 62
     7
  5
5BE
 10
-21.6
 20
13.2
 30
0.0
  0
SEQEND
  8
0
  5
5BF
  0
POLYLINE
  8
0
 62
     7
  5
5C0
 66
     1
 10
0.0
 20
0.0
 30
0.0
  0
VERTEX
  8
0
 62
     7
  5
5C1
 10
-21.6
 20
19.2
 30
0.0
  0
VERTEX
  8
0
 62
     7
  5
5C2
 10
-21.68
 20
19.21778
 30
0.0
  0
VERTEX
  8
0
 62
     7
  5
5C3
 10
-21.68
 20
19.18222
 30
0.0
  0
VERTEX
  8
0
 62
     7
  5
5C4
 10
-21.6
 20
19.2
 30
0.0
  0
SEQEND
  8
0
  5
5C5
  0
LINE
  8
0
 62
     7
  5
5C6
 10
-21.4
 20
14.2
 30
0.0
 11
-21.4
 21
16.2
 31
0.0
  0
LINE
  8
0
 62
     7
  5
5C7
 10
-21.4
 20
20.2
 30
0.0
 11
-21.4
 21
22.2
 31
0.0
  0
POLYLINE
  8
0
 62
     7
  5
5C8
 66
     1
 10
0.0
 20
0.0
 30
0.0
  0
VERTEX
  8
0
 62
     7
  5
5C9
 10
-21.4
 20
14.2
 30
0.0
  0
VERTEX
  8
0
 62
     7
  5
5CA
 10
-21.38222
 20
14.28
 30
0.0
  0
VERTEX
  8
0
 62
     7
  5
5CB
 10
-21.41778
 20
14.28
 30
0.0
  0
VERTEX
  8
0
 62
     7
  5
5CC
 10
-21.4
 20
14.2
 30
0.0
  0
SEQEND
  8
0
  5
5CD
  0
POLYLINE
  8
0
 62
     7
  5
5CE
 66
     1
 10
0.0
 20
0.0
 30
0.0
  0
VERTEX
  8
0
 62
     7
  5
5CF
 10
-21.4
 20
20.2
 30
0.0
  0
VERTEX
  8
0
 62
     7
  5
5D0
 10
-21.38222
 20
20.28
 30
0.0
  0
VERTEX
  8
0
 62
     7
  5
5D1
 10
-21.41778
 20
20.28
 30
0.0
  0
VERTEX
  8
0
 62
     7
  5
5D2
 10
-21.4
 20
20.2
 30
0.0
  0
SEQEND
  8
0
  5
5D3
  0
LINE
  8
0
 62
     7
  5
5D4
 10
-21.4
 20
13.0
 30
0.0
 11
-21.4
 21
12.1
 31
0.0
  0
LINE
  8
0
 62
     7
  5
5D5
 10
-21.4
 20
19.0
 30
0.0
 11
-21.4
 21
18.1
 31
0.0
  0
POLYLINE
  8
0
 62
     7
  5
5D6
 66
     1
 10
0.0
 20
0.0
 30
0.0
  0
VERTEX
  8
0
 62
     7
  5
5D7
 10
-21.4
 20
13.0
 30
0.0
  0
VERTEX
  8
0
 62
     7
  5
5D8
 10
-21.41778
 20
12.92
 30
0.0
  0
VERTEX
  8
0
 62
     7
  5
5D9
 10
-21.38222
 20
12.92
 30
0.0
  0
VERTEX
  8
0
 62
     7
  5
5DA
 10
-21.4
 20
13.0
 30
0.0
  0
SEQEND
  8
0
  5
5DB
  0
POLYLINE
  8
0
 62
     7
  5
5DC
 66
     1
 10
0.0
 20
0.0
 30
0.0
  0
VERTEX
  8
0
 62
     7
  5
5DD
 10
-21.4
 20
19.0
 30
0.0
  0
VERTEX
  8
0
 62
     7
  5
5DE
 10
-21.41778
 20
18.92
 30
0.0
  0
VERTEX
  8
0
 62
     7
  5
5DF
 10
-21.38222
 20
18.92
 30
0.0
  0
VERTEX
  8
0
 62
     7
  5
5E0
 10
-21.4
 20
19.0
 30
0.0
  0
SEQEND
  8
0
  5
5E1
  0
LINE
  8
0
 62
     7
  5
5E2
 10
-21.2
 20
14.0
 30
0.0
 11
-20.5
 21
14.0
 31
0.0
  0
LINE
  8
0
 62
     7
  5
5E3
 10
-21.2
 20
20.0
 30
0.0
 11
-20.5
 21
20.0
 31
0.0
  0
POLYLINE
  8
0
 62
     7
  5
5E4
 66
     1
 10
0.0
 20
0.0
 30
0.0
  0
VERTEX
  8
0
 62
     7
  5
5E5
 10
-20.5
 20
14.0
 30
0.0
  0
VERTEX
  8
0
 62
     7
  5
5E6
 10
-20.58
 20
14.01778
 30
0.0
  0
VERTEX
  8
0
 62
     7
  5
5E7
 10
-20.58
 20
13.98222
 30
0.0
  0
VERTEX
  8
0
 62
     7
  5
5E8
 10
-20.5
 20
14.0
 30
0.0
  0
SEQEND
  8
0
  5
5E9
  0
POLYLINE
  8
0
 62
     7
  5
5EA
 66
     1
 10
0.0
 20
0.0
 30
0.0
  0
VERTEX
  8
0
 62
     7
  5
5EB
 10
-20.5
 20
20.0
 30
0.0
  0
VERTEX
  8
0
 62
     7
  5
5EC
 10
-20.58
 20
20.01778
 30
0.0
  0
VERTEX
  8
0
 62
     7
  5
5ED
 10
-20.58
 20
19.98222
 30
0.0
  0
VERTEX
  8
0
 62
     7
  5
5EE
 10
-20.5
 20
20.0
 30
0.0
  0
SEQEND
  8
0
  5
5EF
  0
LINE
  8
0
 62
     7
  5
5F0
 10
-20.7
 20
13.2
 30
0.0
 11
-20.5
 21
13.2
 31
0.0
  0
LINE
  8
0
 62
     7
  5
5F1
 10
-20.7
 20
19.2
 30
0.0
 11
-20.5
 21
19.2
 31
0.0
  0
POLYLINE
  8
0
 62
     7
  5
5F2
 66
     1
 10
0.0
 20
0.0
 30
0.0
  0
VERTEX
  8
0
 62
     7
  5
5F3
 10
-20.5
 20
13.2
 30
0.0
  0
VERTEX
  8
0
 62
     7
  5
5F4
 10
-20.58
 20
13.21778
 30
0.0
  0
VERTEX
  8
0
 62
     7
  5
5F5
 10
-20.58
 20
13.18222
 30
0.0
  0
VERTEX
  8
0
 62
     7
  5
5F6
 10
-20.5
 20
13.2
 30
0.0
  0
SEQEND
  8
0
  5
5F7
  0
POLYLINE
  8
0
 62
     7
  5
5F8
 66
     1
 10
0.0
 20
0.0
 30
0.0
  0
VERTEX
  8
0
 62
     7
  5
5F9
 10
-20.5
 20
19.2
 30
0.0
  0
VERTEX
  8
0
 62
     7
  5
5FA
 10
-20.58
 20
19.21778
 30
0.0
  0
VERTEX
  8
0
 62
     7
  5
5FB
 10
-20.58
 20
19.18222
 30
0.0
  0
VERTEX
  8
0
 62
     7
  5
5FC
 10
-20.5
 20
19.2
 30
0.0
  0
SEQEND
  8
0
  5
5FD
  0
POLYLINE
  8
0
 62
     7
  5
5FE
 66
     1
 10
0.0
 20
0.0
 30
0.0
 70
     1
  0
VERTEX
  8
0
 62
     7
  5
5FF
 10
-20.5
 20
13.0
 30
0.0
  0
VERTEX
  8
0
 62
     7
  5
600
 10
-20.5
 20
14.2
 30
0.0
  0
VERTEX
  8
0
 62
     7
  5
601
 10
-19.7
 20
14.2
 30
0.0
  0
VERTEX
  8
0
 62
     7
  5
602
 10
-19.7
 20
13.0
 30
0.0
  0
VERTEX
  8
0
 62
     7
  5
603
 10
-20.5
 20
13.0
 30
0.0
  0
VERTEX
  8
0
 62
     7
  5
604
 10
-20.5
 20
13.0
 30
0.0
  0
SEQEND
  8
0
  5
605
  0
POLYLINE
  8
0
 62
     7
  5
606
 66
     1
 10
0.0
 20
0.0
 30
0.0
 70
     1
  0
VERTEX
  8
0
 62
     7
  5
607
 10
-20.5
 20
19.0
 30
0.0
  0
VERTEX
  8
0
 62
     7
  5
608
 10
-20.5
 20
20.2
 30
0.0
  0
VERTEX
  8
0
 62
     7
  5
609
 10
-19.7
 20
20.2
 30
0.0
  0
VERTEX
  8
0
 62
     7
  5
60A
 10
-19.7
 20
19.0
 30
0.0
  0
VERTEX
  8
0
 62
     7
  5
60B
 10
-20.5
 20
19.0
 30
0.0
  0
VERTEX
  8
0
 62
     7
  5
60C
 10
-20.5
 20
19.0
 30
0.0
  0
SEQEND
  8
0
  5
60D
  0
TEXT
  8
0
 62
     7
  5
60E
 10
-20.2925
 20
13.625
 30
0.0
 40
0.1
  1
control
  7
STYLE3
 72
     1
 11
-20.1
 21
13.675
 31
0.0
 73
     2
  0
TEXT
  8
0
 62
     7
  5
60F
 10
-20.2925
 20
19.625
 30
0.0
 40
0.1
  1
control
  7
STYLE3
 72
     1
 11
-20.1
 21
19.675
 31
0.0
 73
     2
  0
TEXT
  8
0
 62
     7
  5
610
 10
-20.32
 20
13.475
 30
0.0
 40
0.1
  1
equation
  7
STYLE3
 72
     1
 11
-20.1
 21
13.525
 31
0.0
 73
     2
  0
TEXT
  8
0
 62
     7
  5
611
 10
-20.32
 20
19.475
 30
0.0
 40
0.1
  1
equation
  7
STYLE3
 72
     1
 11
-20.1
 21
19.525
 31
0.0
 73
     2
  0
LINE
  8
0
 62
     7
  5
612
 10
-19.4
 20
13.6
 30
0.0
 11
-19.7
 21
13.6
 31
0.0
  0
LINE
  8
0
 62
     7
  5
613
 10
-19.4
 20
19.6
 30
0.0
 11
-19.7
 21
19.6
 31
0.0
  0
POLYLINE
  8
0
 62
     7
  5
614
 66
     1
 10
0.0
 20
0.0
 30
0.0
  0
VERTEX
  8
0
 62
     7
  5
615
 10
-19.4
 20
13.6
 30
0.0
  0
VERTEX
  8
0
 62
     7
  5
616
 10
-19.48
 20
13.61778
 30
0.0
  0
VERTEX
  8
0
 62
     7
  5
617
 10
-19.48
 20
13.58222
 30
0.0
  0
VERTEX
  8
0
 62
     7
  5
618
 10
-19.4
 20
13.6
 30
0.0
  0
SEQEND
  8
0
  5
619
  0
POLYLINE
  8
0
 62
     7
  5
61A
 66
     1
 10
0.0
 20
0.0
 30
0.0
  0
VERTEX
  8
0
 62
     7
  5
61B
 10
-19.4
 20
19.6
 30
0.0
  0
VERTEX
  8
0
 62
     7
  5
61C
 10
-19.48
 20
19.61778
 30
0.0
  0
VERTEX
  8
0
 62
     7
  5
61D
 10
-19.48
 20
19.58222
 30
0.0
  0
VERTEX
  8
0
 62
     7
  5
61E
 10
-19.4
 20
19.6
 30
0.0
  0
SEQEND
  8
0
  5
61F
  0
POLYLINE
  8
0
 62
     7
  5
620
 66
     1
 10
0.0
 20
0.0
 30
0.0
  0
VERTEX
  8
0
 62
     7
  5
621
 10
-20.1
 20
13.0
 30
0.0
  0
VERTEX
  8
0
 62
     7
  5
622
 10
-20.11778
 20
12.92
 30
0.0
  0
VERTEX
  8
0
 62
     7
  5
623
 10
-20.08222
 20
12.92
 30
0.0
  0
VERTEX
  8
0
 62
     7
  5
624
 10
-20.1
 20
13.0
 30
0.0
  0
SEQEND
  8
0
  5
625
  0
POLYLINE
  8
0
 62
     7
  5
626
 66
     1
 10
0.0
 20
0.0
 30
0.0
  0
VERTEX
  8
0
 62
     7
  5
627
 10
-20.1
 20
19.0
 30
0.0
  0
VERTEX
  8
0
 62
     7
  5
628
 10
-20.11778
 20
18.92
 30
0.0
  0
VERTEX
  8
0
 62
     7
  5
629
 10
-20.08222
 20
18.92
 30
0.0
  0
VERTEX
  8
0
 62
     7
  5
62A
 10
-20.1
 20
19.0
 30
0.0
  0
SEQEND
  8
0
  5
62B
  0
LINE
  8
0
 62
     7
  5
62C
 10
-19.1
 20
13.3
 30
0.0
 11
-19.1
 21
12.5
 31
0.0
  0
LINE
  8
0
 62
     7
  5
62D
 10
-19.1
 20
19.3
 30
0.0
 11
-19.1
 21
18.5
 31
0.0
  0
POLYLINE
  8
0
 62
     7
  5
62E
 66
     1
 10
0.0
 20
0.0
 30
0.0
  0
VERTEX
  8
0
 62
     7
  5
62F
 10
-19.1
 20
13.3
 30
0.0
  0
VERTEX
  8
0
 62
     7
  5
630
 10
-19.11778
 20
13.22
 30
0.0
  0
VERTEX
  8
0
 62
     7
  5
631
 10
-19.08222
 20
13.22
 30
0.0
  0
VERTEX
  8
0
 62
     7
  5
632
 10
-19.1
 20
13.3
 30
0.0
  0
SEQEND
  8
0
  5
633
  0
POLYLINE
  8
0
 62
     7
  5
634
 66
     1
 10
0.0
 20
0.0
 30
0.0
  0
VERTEX
  8
0
 62
     7
  5
635
 10
-19.1
 20
19.3
 30
0.0
  0
VERTEX
  8
0
 62
     7
  5
636
 10
-19.11778
 20
19.22
 30
0.0
  0
VERTEX
  8
0
 62
     7
  5
637
 10
-19.08222
 20
19.22
 30
0.0
  0
VERTEX
  8
0
 62
     7
  5
638
 10
-19.1
 20
19.3
 30
0.0
  0
SEQEND
  8
0
  5
639
  0
LINE
  8
0
 62
     7
  5
63A
 10
-20.0
 20
12.5
 30
0.0
 11
-19.6
 21
12.5
 31
0.0
  0
LINE
  8
0
 62
     7
  5
63B
 10
-20.0
 20
18.5
 30
0.0
 11
-19.6
 21
18.5
 31
0.0
  0
POLYLINE
  8
0
 62
     7
  5
63C
 66
     1
 10
0.0
 20
0.0
 30
0.0
  0
VERTEX
  8
0
 62
     7
  5
63D
 10
-19.6
 20
12.5
 30
0.0
  0
VERTEX
  8
0
 62
     7
  5
63E
 10
-19.68
 20
12.51778
 30
0.0
  0
VERTEX
  8
0
 62
     7
  5
63F
 10
-19.68
 20
12.48222
 30
0.0
  0
VERTEX
  8
0
 62
     7
  5
640
 10
-19.6
 20
12.5
 30
0.0
  0
SEQEND
  8
0
  5
641
  0
POLYLINE
  8
0
 62
     7
  5
642
 66
     1
 10
0.0
 20
0.0
 30
0.0
  0
VERTEX
  8
0
 62
     7
  5
643
 10
-19.6
 20
18.5
 30
0.0
  0
VERTEX
  8
0
 62
     7
  5
644
 10
-19.68
 20
18.51778
 30
0.0
  0
VERTEX
  8
0
 62
     7
  5
645
 10
-19.68
 20
18.48222
 30
0.0
  0
VERTEX
  8
0
 62
     7
  5
646
 10
-19.6
 20
18.5
 30
0.0
  0
SEQEND
  8
0
  5
647
  0
LINE
  8
0
 62
     7
  5
648
 10
-19.4
 20
6.5
 30
0.0
 11
-17.8
 21
6.5
 31
0.0
  0
LINE
  8
0
 62
     7
  5
649
 10
-19.6
 20
12.5
 30
0.0
 11
-19.1
 21
12.5
 31
0.0
  0
LINE
  8
0
 62
     7
  5
64A
 10
-19.6
 20
18.5
 30
0.0
 11
-19.1
 21
18.5
 31
0.0
  0
POLYLINE
  8
0
 62
     7
  5
64B
 66
     1
 10
0.0
 20
0.0
 30
0.0
  0
VERTEX
  8
0
 62
     7
  5
64C
 10
-17.8
 20
6.5
 30
0.0
  0
VERTEX
  8
0
 62
     7
  5
64D
 10
-17.88
 20
6.51778
 30
0.0
  0
VERTEX
  8
0
 62
     7
  5
64E
 10
-17.88
 20
6.48222
 30
0.0
  0
VERTEX
  8
0
 62
     7
  5
64F
 10
-17.8
 20
6.5
 30
0.0
  0
SEQEND
  8
0
  5
650
  0
POLYLINE
  8
0
 62
     7
  5
651
 66
     1
 10
0.0
 20
0.0
 30
0.0
  0
VERTEX
  8
0
 62
     7
  5
652
 10
-19.1
 20
12.5
 30
0.0
  0
VERTEX
  8
0
 62
     7
  5
653
 10
-19.18
 20
12.51778
 30
0.0
  0
VERTEX
  8
0
 62
     7
  5
654
 10
-19.18
 20
12.48222
 30
0.0
  0
VERTEX
  8
0
 62
     7
  5
655
 10
-19.1
 20
12.5
 30
0.0
  0
SEQEND
  8
0
  5
656
  0
POLYLINE
  8
0
 62
     7
  5
657
 66
     1
 10
0.0
 20
0.0
 30
0.0
  0
VERTEX
  8
0
 62
     7
  5
658
 10
-19.1
 20
18.5
 30
0.0
  0
VERTEX
  8
0
 62
     7
  5
659
 10
-19.18
 20
18.51778
 30
0.0
  0
VERTEX
  8
0
 62
     7
  5
65A
 10
-19.18
 20
18.48222
 30
0.0
  0
VERTEX
  8
0
 62
     7
  5
65B
 10
-19.1
 20
18.5
 30
0.0
  0
SEQEND
  8
0
  5
65C
  0
LINE
  8
0
 62
     7
  5
65D
 10
-16.6
 20
12.1
 30
0.0
 11
-21.4
 21
12.1
 31
0.0
  0
LINE
  8
0
 62
     7
  5
65E
 10
-16.6
 20
18.1
 30
0.0
 11
-21.4
 21
18.1
 31
0.0
  0
POLYLINE
  8
0
 62
     7
  5
65F
 66
     1
 10
0.0
 20
0.0
 30
0.0
  0
VERTEX
  8
0
 62
     7
  5
660
 10
-21.4
 20
12.1
 30
0.0
  0
VERTEX
  8
0
 62
     7
  5
661
 10
-21.32
 20
12.08222
 30
0.0
  0
VERTEX
  8
0
 62
     7
  5
662
 10
-21.32
 20
12.11778
 30
0.0
  0
VERTEX
  8
0
 62
     7
  5
663
 10
-21.4
 20
12.1
 30
0.0
  0
SEQEND
  8
0
  5
664
  0
POLYLINE
  8
0
 62
     7
  5
665
 66
     1
 10
0.0
 20
0.0
 30
0.0
  0
VERTEX
  8
0
 62
     7
  5
666
 10
-21.4
 20
18.1
 30
0.0
  0
VERTEX
  8
0
 62
     7
  5
667
 10
-21.32
 20
18.08222
 30
0.0
  0
VERTEX
  8
0
 62
     7
  5
668
 10
-21.32
 20
18.11778
 30
0.0
  0
VERTEX
  8
0
 62
     7
  5
669
 10
-21.4
 20
18.1
 30
0.0
  0
SEQEND
  8
0
  5
66A
  0
LINE
  8
0
 62
     7
  5
66B
 10
-16.6
 20
13.6
 30
0.0
 11
-16.6
 21
12.1
 31
0.0
  0
LINE
  8
0
 62
     7
  5
66C
 10
-16.6
 20
19.6
 30
0.0
 11
-16.6
 21
18.1
 31
0.0
  0
POLYLINE
  8
0
 62
     7
  5
66D
 66
     1
 10
0.0
 20
0.0
 30
0.0
  0
VERTEX
  8
0
 62
     7
  5
66E
 10
-16.6
 20
12.1
 30
0.0
  0
VERTEX
  8
0
 62
     7
  5
66F
 10
-16.58222
 20
12.18
 30
0.0
  0
VERTEX
  8
0
 62
     7
  5
670
 10
-16.61778
 20
12.18
 30
0.0
  0
VERTEX
  8
0
 62
     7
  5
671
 10
-16.6
 20
12.1
 30
0.0
  0
SEQEND
  8
0
  5
672
  0
POLYLINE
  8
0
 62
     7
  5
673
 66
     1
 10
0.0
 20
0.0
 30
0.0
  0
VERTEX
  8
0
 62
     7
  5
674
 10
-16.6
 20
18.1
 30
0.0
  0
VERTEX
  8
0
 62
     7
  5
675
 10
-16.58222
 20
18.18
 30
0.0
  0
VERTEX
  8
0
 62
     7
  5
676
 10
-16.61778
 20
18.18
 30
0.0
  0
VERTEX
  8
0
 62
     7
  5
677
 10
-16.6
 20
18.1
 30
0.0
  0
SEQEND
  8
0
  5
678
  0
LINE
  8
0
 62
     7
  5
679
 10
-21.2
 20
13.2
 30
0.0
 11
-20.7
 21
13.2
 31
0.0
  0
LINE
  8
0
 62
     7
  5
67A
 10
-21.2
 20
19.2
 30
0.0
 11
-20.7
 21
19.2
 31
0.0
  0
LINE
  8
0
 62
     7
  5
67B
 10
-17.8
 20
6.5
 30
0.0
 11
-15.9
 21
6.5
 31
0.0
  0
LINE
  8
0
 62
     7
  5
67C
 10
-19.1
 20
12.5
 30
0.0
 11
-15.9
 21
12.5
 31
0.0
  0
LINE
  8
0
 62
     7
  5
67D
 10
-19.1
 20
18.5
 30
0.0
 11
-15.9
 21
18.5
 31
0.0
  0
LINE
  8
0
 62
     7
  5
67E
 10
-16.9
 20
8.6
 30
0.0
 11
-16.9
 21
7.6
 31
0.0
  0
POLYLINE
  8
0
 62
     7
  5
67F
 66
     1
 10
0.0
 20
0.0
 30
0.0
  0
VERTEX
  8
0
 62
     7
  5
680
 10
-16.9
 20
8.6
 30
0.0
  0
VERTEX
  8
0
 62
     7
  5
681
 10
-16.91778
 20
8.52
 30
0.0
  0
VERTEX
  8
0
 62
     7
  5
682
 10
-16.88222
 20
8.52
 30
0.0
  0
VERTEX
  8
0
 62
     7
  5
683
 10
-16.9
 20
8.6
 30
0.0
  0
SEQEND
  8
0
  5
684
  0
LINE
  8
0
 62
     7
  5
685
 10
-14.9
 20
8.7
 30
0.0
 11
-14.9
 21
7.9
 31
0.0
  0
LINE
  8
0
 62
     7
  5
686
 10
-14.9
 20
14.7
 30
0.0
 11
-14.9
 21
13.9
 31
0.0
  0
LINE
  8
0
 62
     7
  5
687
 10
-14.9
 20
20.7
 30
0.0
 11
-14.9
 21
19.9
 31
0.0
  0
LINE
  8
0
 62
     7
  5
688
 10
-16.6
 20
14.6
 30
0.0
 11
-16.6
 21
13.6
 31
0.0
  0
LINE
  8
0
 62
     7
  5
689
 10
-16.6
 20
20.6
 30
0.0
 11
-16.6
 21
19.6
 31
0.0
  0
POLYLINE
  8
0
 62
     7
  5
68A
 66
     1
 10
0.0
 20
0.0
 30
0.0
  0
VERTEX
  8
0
 62
     7
  5
68B
 10
-14.9
 20
8.7
 30
0.0
  0
VERTEX
  8
0
 62
     7
  5
68C
 10
-14.91778
 20
8.62
 30
0.0
  0
VERTEX
  8
0
 62
     7
  5
68D
 10
-14.88222
 20
8.62
 30
0.0
  0
VERTEX
  8
0
 62
     7
  5
68E
 10
-14.9
 20
8.7
 30
0.0
  0
SEQEND
  8
0
  5
68F
  0
POLYLINE
  8
0
 62
     7
  5
690
 66
     1
 10
0.0
 20
0.0
 30
0.0
  0
VERTEX
  8
0
 62
     7
  5
691
 10
-14.9
 20
14.7
 30
0.0
  0
VERTEX
  8
0
 62
     7
  5
692
 10
-14.91778
 20
14.62
 30
0.0
  0
VERTEX
  8
0
 62
     7
  5
693
 10
-14.88222
 20
14.62
 30
0.0
  0
VERTEX
  8
0
 62
     7
  5
694
 10
-14.9
 20
14.7
 30
0.0
  0
SEQEND
  8
0
  5
695
  0
POLYLINE
  8
0
 62
     7
  5
696
 66
     1
 10
0.0
 20
0.0
 30
0.0
  0
VERTEX
  8
0
 62
     7
  5
697
 10
-14.9
 20
20.7
 30
0.0
  0
VERTEX
  8
0
 62
     7
  5
698
 10
-14.91778
 20
20.62
 30
0.0
  0
VERTEX
  8
0
 62
     7
  5
699
 10
-14.88222
 20
20.62
 30
0.0
  0
VERTEX
  8
0
 62
     7
  5
69A
 10
-14.9
 20
20.7
 30
0.0
  0
SEQEND
  8
0
  5
69B
  0
POLYLINE
  8
0
 62
     7
  5
69C
 66
     1
 10
0.0
 20
0.0
 30
0.0
  0
VERTEX
  8
0
 62
     7
  5
69D
 10
-13.118046
 20
10.0
 30
0.0
  0
VERTEX
  8
0
 62
     7
  5
69E
 10
-13.135826
 20
9.92
 30
0.0
  0
VERTEX
  8
0
 62
     7
  5
69F
 10
-13.100266
 20
9.92
 30
0.0
  0
VERTEX
  8
0
 62
     7
  5
6A0
 10
-13.118046
 20
10.0
 30
0.0
  0
SEQEND
  8
0
  5
6A1
  0
POLYLINE
  8
0
 62
     7
  5
6A2
 66
     1
 10
0.0
 20
0.0
 30
0.0
  0
VERTEX
  8
0
 62
     7
  5
6A3
 10
-13.7
 20
10.6
 30
0.0
  0
VERTEX
  8
0
 62
     7
  5
6A4
 10
-13.71778
 20
10.52
 30
0.0
  0
VERTEX
  8
0
 62
     7
  5
6A5
 10
-13.68222
 20
10.52
 30
0.0
  0
VERTEX
  8
0
 62
     7
  5
6A6
 10
-13.7
 20
10.6
 30
0.0
  0
SEQEND
  8
0
  5
6A7
  0
POLYLINE
  8
0
 62
     7
  5
6A8
 66
     1
 10
0.0
 20
0.0
 30
0.0
  0
VERTEX
  8
0
 62
     7
  5
6A9
 10
-13.7
 20
16.6
 30
0.0
  0
VERTEX
  8
0
 62
     7
  5
6AA
 10
-13.71778
 20
16.52
 30
0.0
  0
VERTEX
  8
0
 62
     7
  5
6AB
 10
-13.68222
 20
16.52
 30
0.0
  0
VERTEX
  8
0
 62
     7
  5
6AC
 10
-13.7
 20
16.6
 30
0.0
  0
SEQEND
  8
0
  5
6AD
  0
POLYLINE
  8
0
 62
     7
  5
6AE
 66
     1
 10
0.0
 20
0.0
 30
0.0
  0
VERTEX
  8
0
 62
     7
  5
6AF
 10
-13.7
 20
22.6
 30
0.0
  0
VERTEX
  8
0
 62
     7
  5
6B0
 10
-13.71778
 20
22.52
 30
0.0
  0
VERTEX
  8
0
 62
     7
  5
6B1
 10
-13.68222
 20
22.52
 30
0.0
  0
VERTEX
  8
0
 62
     7
  5
6B2
 10
-13.7
 20
22.6
 30
0.0
  0
SEQEND
  8
0
  5
6B3
  0
POLYLINE
  8
0
 62
     7
  5
6B4
 66
     1
 10
0.0
 20
0.0
 30
0.0
  0
VERTEX
  8
0
 62
     7
  5
6B5
 10
-14.9
 20
10.2
 30
0.0
  0
VERTEX
  8
0
 62
     7
  5
6B6
 10
-14.91778
 20
10.12
 30
0.0
  0
VERTEX
  8
0
 62
     7
  5
6B7
 10
-14.88222
 20
10.12
 30
0.0
  0
VERTEX
  8
0
 62
     7
  5
6B8
 10
-14.9
 20
10.2
 30
0.0
  0
SEQEND
  8
0
  5
6B9
  0
POLYLINE
  8
0
 62
     7
  5
6BA
 66
     1
 10
0.0
 20
0.0
 30
0.0
  0
VERTEX
  8
0
 62
     7
  5
6BB
 10
-14.9
 20
16.2
 30
0.0
  0
VERTEX
  8
0
 62
     7
  5
6BC
 10
-14.91778
 20
16.12
 30
0.0
  0
VERTEX
  8
0
 62
     7
  5
6BD
 10
-14.88222
 20
16.12
 30
0.0
  0
VERTEX
  8
0
 62
     7
  5
6BE
 10
-14.9
 20
16.2
 30
0.0
  0
SEQEND
  8
0
  5
6BF
  0
POLYLINE
  8
0
 62
     7
  5
6C0
 66
     1
 10
0.0
 20
0.0
 30
0.0
  0
VERTEX
  8
0
 62
     7
  5
6C1
 10
-14.9
 20
22.2
 30
0.0
  0
VERTEX
  8
0
 62
     7
  5
6C2
 10
-14.91778
 20
22.12
 30
0.0
  0
VERTEX
  8
0
 62
     7
  5
6C3
 10
-14.88222
 20
22.12
 30
0.0
  0
VERTEX
  8
0
 62
     7
  5
6C4
 10
-14.9
 20
22.2
 30
0.0
  0
SEQEND
  8
0
  5
6C5
  0
POLYLINE
  8
0
 62
     7
  5
6C6
 66
     1
 10
0.0
 20
0.0
 30
0.0
  0
VERTEX
  8
0
 62
     7
  5
6C7
 10
-16.6
 20
14.6
 30
0.0
  0
VERTEX
  8
0
 62
     7
  5
6C8
 10
-16.61778
 20
14.52
 30
0.0
  0
VERTEX
  8
0
 62
     7
  5
6C9
 10
-16.58222
 20
14.52
 30
0.0
  0
VERTEX
  8
0
 62
     7
  5
6CA
 10
-16.6
 20
14.6
 30
0.0
  0
SEQEND
  8
0
  5
6CB
  0
POLYLINE
  8
0
 62
     7
  5
6CC
 66
     1
 10
0.0
 20
0.0
 30
0.0
  0
VERTEX
  8
0
 62
     7
  5
6CD
 10
-16.6
 20
20.6
 30
0.0
  0
VERTEX
  8
0
 62
     7
  5
6CE
 10
-16.61778
 20
20.52
 30
0.0
  0
VERTEX
  8
0
 62
     7
  5
6CF
 10
-16.58222
 20
20.52
 30
0.0
  0
VERTEX
  8
0
 62
     7
  5
6D0
 10
-16.6
 20
20.6
 30
0.0
  0
SEQEND
  8
0
  5
6D1
  0
LINE
  8
0
 62
     7
  5
6D2
 10
-19.4
 20
7.6
 30
0.0
 11
-23.05
 21
7.6
 31
0.0
  0
LINE
  8
0
 62
     7
  5
6D3
 10
-22.9
 20
13.6
 30
0.0
 11
-23.15
 21
13.6
 31
0.0
  0
LINE
  8
0
 62
     7
  5
6D4
 10
-22.9
 20
19.6
 30
0.0
 11
-23.15
 21
19.6
 31
0.0
  0
POLYLINE
  8
0
 62
     7
  5
6D5
 66
     1
 10
0.0
 20
0.0
 30
0.0
  0
VERTEX
  8
0
 62
     7
  5
6D6
 10
-22.9
 20
13.6
 30
0.0
  0
VERTEX
  8
0
 62
     7
  5
6D7
 10
-22.98
 20
13.61778
 30
0.0
  0
VERTEX
  8
0
 62
     7
  5
6D8
 10
-22.98
 20
13.58222
 30
0.0
  0
VERTEX
  8
0
 62
     7
  5
6D9
 10
-22.9
 20
13.6
 30
0.0
  0
SEQEND
  8
0
  5
6DA
  0
POLYLINE
  8
0
 62
     7
  5
6DB
 66
     1
 10
0.0
 20
0.0
 30
0.0
  0
VERTEX
  8
0
 62
     7
  5
6DC
 10
-22.9
 20
19.6
 30
0.0
  0
VERTEX
  8
0
 62
     7
  5
6DD
 10
-22.98
 20
19.61778
 30
0.0
  0
VERTEX
  8
0
 62
     7
  5
6DE
 10
-22.98
 20
19.58222
 30
0.0
  0
VERTEX
  8
0
 62
     7
  5
6DF
 10
-22.9
 20
19.6
 30
0.0
  0
SEQEND
  8
0
  5
6E0
  0
LINE
  8
0
 62
     7
  5
6E1
 10
-17.3
 20
8.6
 30
0.0
 11
-16.9
 21
8.6
 31
0.0
  0
POLYLINE
  8
0
 62
     7
  5
6E2
 66
     1
 10
0.0
 20
0.0
 30
0.0
  0
VERTEX
  8
0
 62
     7
  5
6E3
 10
-17.3
 20
8.6
 30
0.0
  0
VERTEX
  8
0
 62
     7
  5
6E4
 10
-17.22
 20
8.58222
 30
0.0
  0
VERTEX
  8
0
 62
     7
  5
6E5
 10
-17.22
 20
8.61778
 30
0.0
  0
VERTEX
  8
0
 62
     7
  5
6E6
 10
-17.3
 20
8.6
 30
0.0
  0
SEQEND
  8
0
  5
6E7
  0
LINE
  8
0
 62
     7
  5
6E8
 10
-14.6
 20
8.7
 30
0.0
 11
-14.9
 21
8.7
 31
0.0
  0
LINE
  8
0
 62
     7
  5
6E9
 10
-14.6
 20
14.7
 30
0.0
 11
-14.9
 21
14.7
 31
0.0
  0
LINE
  8
0
 62
     7
  5
6EA
 10
-14.6
 20
20.7
 30
0.0
 11
-14.9
 21
20.7
 31
0.0
  0
LINE
  8
0
 62
     7
  5
6EB
 10
-13.418046
 20
8.7
 30
0.0
 11
-14.0
 21
8.7
 31
0.0
  0
LINE
  8
0
 62
     7
  5
6EC
 10
-13.418046
 20
14.7
 30
0.0
 11
-14.0
 21
14.7
 31
0.0
  0
LINE
  8
0
 62
     7
  5
6ED
 10
-13.418046
 20
20.7
 30
0.0
 11
-14.0
 21
20.7
 31
0.0
  0
LINE
  8
0
 62
     7
  5
6EE
 10
-17.1
 20
14.6
 30
0.0
 11
-16.6
 21
14.6
 31
0.0
  0
LINE
  8
0
 62
     7
  5
6EF
 10
-17.1
 20
20.6
 30
0.0
 11
-16.6
 21
20.6
 31
0.0
  0
POLYLINE
  8
0
 62
     7
  5
6F0
 66
     1
 10
0.0
 20
0.0
 30
0.0
  0
VERTEX
  8
0
 62
     7
  5
6F1
 10
-13.7
 20
8.7
 30
0.0
  0
VERTEX
  8
0
 62
     7
  5
6F2
 10
-13.78
 20
8.68222
 30
0.0
  0
VERTEX
  8
0
 62
     7
  5
6F3
 10
-13.78
 20
8.71778
 30
0.0
  0
VERTEX
  8
0
 62
     7
  5
6F4
 10
-13.7
 20
8.7
 30
0.0
  0
SEQEND
  8
0
  5
6F5
  0
POLYLINE
  8
0
 62
     7
  5
6F6
 66
     1
 10
0.0
 20
0.0
 30
0.0
  0
VERTEX
  8
0
 62
     7
  5
6F7
 10
-13.7
 20
14.7
 30
0.0
  0
VERTEX
  8
0
 62
     7
  5
6F8
 10
-13.78
 20
14.68222
 30
0.0
  0
VERTEX
  8
0
 62
     7
  5
6F9
 10
-13.78
 20
14.71778
 30
0.0
  0
VERTEX
  8
0
 62
     7
  5
6FA
 10
-13.7
 20
14.7
 30
0.0
  0
SEQEND
  8
0
  5
6FB
  0
POLYLINE
  8
0
 62
     7
  5
6FC
 66
     1
 10
0.0
 20
0.0
 30
0.0
  0
VERTEX
  8
0
 62
     7
  5
6FD
 10
-13.7
 20
20.7
 30
0.0
  0
VERTEX
  8
0
 62
     7
  5
6FE
 10
-13.78
 20
20.68222
 30
0.0
  0
VERTEX
  8
0
 62
     7
  5
6FF
 10
-13.78
 20
20.71778
 30
0.0
  0
VERTEX
  8
0
 62
     7
  5
700
 10
-13.7
 20
20.7
 30
0.0
  0
SEQEND
  8
0
  5
701
  0
POLYLINE
  8
0
 62
     7
  5
702
 66
     1
 10
0.0
 20
0.0
 30
0.0
  0
VERTEX
  8
0
 62
     7
  5
703
 10
-14.6
 20
8.7
 30
0.0
  0
VERTEX
  8
0
 62
     7
  5
704
 10
-14.68
 20
8.68222
 30
0.0
  0
VERTEX
  8
0
 62
     7
  5
705
 10
-14.68
 20
8.71778
 30
0.0
  0
VERTEX
  8
0
 62
     7
  5
706
 10
-14.6
 20
8.7
 30
0.0
  0
SEQEND
  8
0
  5
707
  0
POLYLINE
  8
0
 62
     7
  5
708
 66
     1
 10
0.0
 20
0.0
 30
0.0
  0
VERTEX
  8
0
 62
     7
  5
709
 10
-14.6
 20
14.7
 30
0.0
  0
VERTEX
  8
0
 62
     7
  5
70A
 10
-14.68
 20
14.68222
 30
0.0
  0
VERTEX
  8
0
 62
     7
  5
70B
 10
-14.68
 20
14.71778
 30
0.0
  0
VERTEX
  8
0
 62
     7
  5
70C
 10
-14.6
 20
14.7
 30
0.0
  0
SEQEND
  8
0
  5
70D
  0
POLYLINE
  8
0
 62
     7
  5
70E
 66
     1
 10
0.0
 20
0.0
 30
0.0
  0
VERTEX
  8
0
 62
     7
  5
70F
 10
-14.6
 20
20.7
 30
0.0
  0
VERTEX
  8
0
 62
     7
  5
710
 10
-14.68
 20
20.68222
 30
0.0
  0
VERTEX
  8
0
 62
     7
  5
711
 10
-14.68
 20
20.71778
 30
0.0
  0
VERTEX
  8
0
 62
     7
  5
712
 10
-14.6
 20
20.7
 30
0.0
  0
SEQEND
  8
0
  5
713
  0
POLYLINE
  8
0
 62
     7
  5
714
 66
     1
 10
0.0
 20
0.0
 30
0.0
  0
VERTEX
  8
0
 62
     7
  5
715
 10
-13.418046
 20
8.7
 30
0.0
  0
VERTEX
  8
0
 62
     7
  5
716
 10
-13.498046
 20
8.68222
 30
0.0
  0
VERTEX
  8
0
 62
     7
  5
717
 10
-13.498046
 20
8.71778
 30
0.0
  0
VERTEX
  8
0
 62
     7
  5
718
 10
-13.418046
 20
8.7
 30
0.0
  0
SEQEND
  8
0
  5
719
  0
POLYLINE
  8
0
 62
     7
  5
71A
 66
     1
 10
0.0
 20
0.0
 30
0.0
  0
VERTEX
  8
0
 62
     7
  5
71B
 10
-13.418046
 20
14.7
 30
0.0
  0
VERTEX
  8
0
 62
     7
  5
71C
 10
-13.498046
 20
14.68222
 30
0.0
  0
VERTEX
  8
0
 62
     7
  5
71D
 10
-13.498046
 20
14.71778
 30
0.0
  0
VERTEX
  8
0
 62
     7
  5
71E
 10
-13.418046
 20
14.7
 30
0.0
  0
SEQEND
  8
0
  5
71F
  0
POLYLINE
  8
0
 62
     7
  5
720
 66
     1
 10
0.0
 20
0.0
 30
0.0
  0
VERTEX
  8
0
 62
     7
  5
721
 10
-13.418046
 20
20.7
 30
0.0
  0
VERTEX
  8
0
 62
     7
  5
722
 10
-13.498046
 20
20.68222
 30
0.0
  0
VERTEX
  8
0
 62
     7
  5
723
 10
-13.498046
 20
20.71778
 30
0.0
  0
VERTEX
  8
0
 62
     7
  5
724
 10
-13.418046
 20
20.7
 30
0.0
  0
SEQEND
  8
0
  5
725
  0
POLYLINE
  8
0
 62
     7
  5
726
 66
     1
 10
0.0
 20
0.0
 30
0.0
  0
VERTEX
  8
0
 62
     7
  5
727
 10
-17.1
 20
14.6
 30
0.0
  0
VERTEX
  8
0
 62
     7
  5
728
 10
-17.02
 20
14.58222
 30
0.0
  0
VERTEX
  8
0
 62
     7
  5
729
 10
-17.02
 20
14.61778
 30
0.0
  0
VERTEX
  8
0
 62
     7
  5
72A
 10
-17.1
 20
14.6
 30
0.0
  0
SEQEND
  8
0
  5
72B
  0
POLYLINE
  8
0
 62
     7
  5
72C
 66
     1
 10
0.0
 20
0.0
 30
0.0
  0
VERTEX
  8
0
 62
     7
  5
72D
 10
-17.1
 20
20.6
 30
0.0
  0
VERTEX
  8
0
 62
     7
  5
72E
 10
-17.02
 20
20.58222
 30
0.0
  0
VERTEX
  8
0
 62
     7
  5
72F
 10
-17.02
 20
20.61778
 30
0.0
  0
VERTEX
  8
0
 62
     7
  5
730
 10
-17.1
 20
20.6
 30
0.0
  0
SEQEND
  8
0
  5
731
  0
LINE
  8
STANDARD
 62
     7
  5
732
 10
-13.118046
 20
8.3
 30
0.0
 11
-13.118046
 21
7.6
 31
0.0
  0
LINE
  8
STANDARD
 62
     7
  5
733
 10
-13.118046
 20
14.3
 30
0.0
 11
-13.118046
 21
13.6
 31
0.0
  0
LINE
  8
STANDARD
 62
     7
  5
734
 10
-13.118046
 20
20.3
 30
0.0
 11
-13.118046
 21
19.6
 31
0.0
  0
LINE
  8
STANDARD
 62
     7
  5
735
 10
-13.118046
 20
10.0
 30
0.0
 11
-13.118046
 21
9.1
 31
0.0
  0
LINE
  8
STANDARD
 62
     7
  5
736
 10
-14.9
 20
10.2
 30
0.0
 11
-14.9
 21
8.7
 31
0.0
  0
LINE
  8
STANDARD
 62
     7
  5
737
 10
-14.9
 20
16.2
 30
0.0
 11
-14.9
 21
14.7
 31
0.0
  0
LINE
  8
STANDARD
 62
     7
  5
738
 10
-14.9
 20
22.2
 30
0.0
 11
-14.9
 21
20.7
 31
0.0
  0
LINE
  8
STANDARD
 62
     7
  5
739
 10
-14.275
 20
8.7
 30
0.0
 11
-14.275
 21
8.75
 31
0.0
  0
LINE
  8
STANDARD
 62
     7
  5
73A
 10
-14.275
 20
14.7
 30
0.0
 11
-14.275
 21
14.75
 31
0.0
  0
LINE
  8
STANDARD
 62
     7
  5
73B
 10
-14.275
 20
20.7
 30
0.0
 11
-14.275
 21
20.75
 31
0.0
  0
LINE
  8
STANDARD
 62
     7
  5
73C
 10
-14.325
 20
8.7
 30
0.0
 11
-14.325
 21
8.65
 31
0.0
  0
LINE
  8
STANDARD
 62
     7
  5
73D
 10
-14.325
 20
14.7
 30
0.0
 11
-14.325
 21
14.65
 31
0.0
  0
LINE
  8
STANDARD
 62
     7
  5
73E
 10
-14.325
 20
20.7
 30
0.0
 11
-14.325
 21
20.65
 31
0.0
  0
LINE
  8
STANDARD
 62
     7
  5
73F
 10
-14.275
 20
8.75
 30
0.0
 11
-14.225
 21
8.75
 31
0.0
  0
LINE
  8
STANDARD
 62
     7
  5
740
 10
-14.275
 20
14.75
 30
0.0
 11
-14.225
 21
14.75
 31
0.0
  0
LINE
  8
STANDARD
 62
     7
  5
741
 10
-14.275
 20
20.75
 30
0.0
 11
-14.225
 21
20.75
 31
0.0
  0
LINE
  8
STANDARD
 62
     7
  5
742
 10
-14.325
 20
8.65
 30
0.0
 11
-14.375
 21
8.65
 31
0.0
  0
LINE
  8
STANDARD
 62
     7
  5
743
 10
-14.325
 20
14.65
 30
0.0
 11
-14.375
 21
14.65
 31
0.0
  0
LINE
  8
STANDARD
 62
     7
  5
744
 10
-14.325
 20
20.65
 30
0.0
 11
-14.375
 21
20.65
 31
0.0
  0
LINE
  8
STANDARD
 62
     7
  5
745
 10
-14.225
 20
8.75
 30
0.0
 11
-14.225
 21
8.8
 31
0.0
  0
LINE
  8
STANDARD
 62
     7
  5
746
 10
-14.225
 20
14.75
 30
0.0
 11
-14.225
 21
14.8
 31
0.0
  0
LINE
  8
STANDARD
 62
     7
  5
747
 10
-14.225
 20
20.75
 30
0.0
 11
-14.225
 21
20.8
 31
0.0
  0
LINE
  8
STANDARD
 62
     7
  5
748
 10
-14.375
 20
8.65
 30
0.0
 11
-14.375
 21
8.6
 31
0.0
  0
LINE
  8
STANDARD
 62
     7
  5
749
 10
-14.375
 20
14.65
 30
0.0
 11
-14.375
 21
14.6
 31
0.0
  0
LINE
  8
STANDARD
 62
     7
  5
74A
 10
-14.375
 20
20.65
 30
0.0
 11
-14.375
 21
20.6
 31
0.0
  0
LINE
  8
STANDARD
 62
     7
  5
74B
 10
-14.225
 20
8.8
 30
0.0
 11
-14.175
 21
8.8
 31
0.0
  0
LINE
  8
STANDARD
 62
     7
  5
74C
 10
-14.225
 20
14.8
 30
0.0
 11
-14.175
 21
14.8
 31
0.0
  0
LINE
  8
STANDARD
 62
     7
  5
74D
 10
-14.225
 20
20.8
 30
0.0
 11
-14.175
 21
20.8
 31
0.0
  0
LINE
  8
STANDARD
 62
     7
  5
74E
 10
-14.375
 20
8.6
 30
0.0
 11
-14.425
 21
8.6
 31
0.0
  0
LINE
  8
STANDARD
 62
     7
  5
74F
 10
-14.375
 20
14.6
 30
0.0
 11
-14.425
 21
14.6
 31
0.0
  0
LINE
  8
STANDARD
 62
     7
  5
750
 10
-14.375
 20
20.6
 30
0.0
 11
-14.425
 21
20.6
 31
0.0
  0
LINE
  8
STANDARD
 62
     7
  5
751
 10
-14.175
 20
8.8
 30
0.0
 11
-14.175
 21
8.85
 31
0.0
  0
LINE
  8
STANDARD
 62
     7
  5
752
 10
-14.175
 20
14.8
 30
0.0
 11
-14.175
 21
14.85
 31
0.0
  0
LINE
  8
STANDARD
 62
     7
  5
753
 10
-14.175
 20
20.8
 30
0.0
 11
-14.175
 21
20.85
 31
0.0
  0
LINE
  8
STANDARD
 62
     7
  5
754
 10
-14.425
 20
8.6
 30
0.0
 11
-14.425
 21
8.55
 31
0.0
  0
LINE
  8
STANDARD
 62
     7
  5
755
 10
-14.425
 20
14.6
 30
0.0
 11
-14.425
 21
14.55
 31
0.0
  0
LINE
  8
STANDARD
 62
     7
  5
756
 10
-14.425
 20
20.6
 30
0.0
 11
-14.425
 21
20.55
 31
0.0
  0
LINE
  8
STANDARD
 62
     7
  5
757
 10
-14.175
 20
8.85
 30
0.0
 11
-14.125
 21
8.85
 31
0.0
  0
LINE
  8
STANDARD
 62
     7
  5
758
 10
-14.175
 20
14.85
 30
0.0
 11
-14.125
 21
14.85
 31
0.0
  0
LINE
  8
STANDARD
 62
     7
  5
759
 10
-14.175
 20
20.85
 30
0.0
 11
-14.125
 21
20.85
 31
0.0
  0
LINE
  8
STANDARD
 62
     7
  5
75A
 10
-14.425
 20
8.55
 30
0.0
 11
-14.475
 21
8.55
 31
0.0
  0
LINE
  8
STANDARD
 62
     7
  5
75B
 10
-14.425
 20
14.55
 30
0.0
 11
-14.475
 21
14.55
 31
0.0
  0
LINE
  8
STANDARD
 62
     7
  5
75C
 10
-14.425
 20
20.55
 30
0.0
 11
-14.475
 21
20.55
 31
0.0
  0
LINE
  8
STANDARD
 62
     7
  5
75D
 10
-14.125
 20
8.85
 30
0.0
 11
-14.125
 21
8.9
 31
0.0
  0
LINE
  8
STANDARD
 62
     7
  5
75E
 10
-14.125
 20
14.85
 30
0.0
 11
-14.125
 21
14.9
 31
0.0
  0
LINE
  8
STANDARD
 62
     7
  5
75F
 10
-14.125
 20
20.85
 30
0.0
 11
-14.125
 21
20.9
 31
0.0
  0
LINE
  8
STANDARD
 62
     7
  5
760
 10
-14.475
 20
8.55
 30
0.0
 11
-14.475
 21
8.5
 31
0.0
  0
LINE
  8
STANDARD
 62
     7
  5
761
 10
-14.475
 20
14.55
 30
0.0
 11
-14.475
 21
14.5
 31
0.0
  0
LINE
  8
STANDARD
 62
     7
  5
762
 10
-14.475
 20
20.55
 30
0.0
 11
-14.475
 21
20.5
 31
0.0
  0
LINE
  8
STANDARD
 62
     7
  5
763
 10
-14.325
 20
8.7
 30
0.0
 11
-14.275
 21
8.7
 31
0.0
  0
LINE
  8
STANDARD
 62
     7
  5
764
 10
-14.325
 20
14.7
 30
0.0
 11
-14.275
 21
14.7
 31
0.0
  0
LINE
  8
STANDARD
 62
     7
  5
765
 10
-14.325
 20
20.7
 30
0.0
 11
-14.275
 21
20.7
 31
0.0
  0
LINE
  8
STANDARD
 62
     7
  5
766
 10
-14.125
 20
8.9
 30
0.0
 11
-14.075
 21
8.9
 31
0.0
  0
LINE
  8
STANDARD
 62
     7
  5
767
 10
-14.125
 20
14.9
 30
0.0
 11
-14.075
 21
14.9
 31
0.0
  0
LINE
  8
STANDARD
 62
     7
  5
768
 10
-14.125
 20
20.9
 30
0.0
 11
-14.075
 21
20.9
 31
0.0
  0
LINE
  8
STANDARD
 62
     7
  5
769
 10
-14.075
 20
8.9
 30
0.0
 11
-14.075
 21
8.95
 31
0.0
  0
LINE
  8
STANDARD
 62
     7
  5
76A
 10
-14.075
 20
14.9
 30
0.0
 11
-14.075
 21
14.95
 31
0.0
  0
LINE
  8
STANDARD
 62
     7
  5
76B
 10
-14.075
 20
20.9
 30
0.0
 11
-14.075
 21
20.95
 31
0.0
  0
LINE
  8
STANDARD
 62
     7
  5
76C
 10
-14.075
 20
8.95
 30
0.0
 11
-14.025
 21
8.95
 31
0.0
  0
LINE
  8
STANDARD
 62
     7
  5
76D
 10
-14.075
 20
14.95
 30
0.0
 11
-14.025
 21
14.95
 31
0.0
  0
LINE
  8
STANDARD
 62
     7
  5
76E
 10
-14.075
 20
20.95
 30
0.0
 11
-14.025
 21
20.95
 31
0.0
  0
LINE
  8
STANDARD
 62
     7
  5
76F
 10
-14.025
 20
8.95
 30
0.0
 11
-14.025
 21
9.0
 31
0.0
  0
LINE
  8
STANDARD
 62
     7
  5
770
 10
-14.025
 20
14.95
 30
0.0
 11
-14.025
 21
15.0
 31
0.0
  0
LINE
  8
STANDARD
 62
     7
  5
771
 10
-14.025
 20
20.95
 30
0.0
 11
-14.025
 21
21.0
 31
0.0
  0
LINE
  8
STANDARD
 62
     7
  5
772
 10
-14.475
 20
8.5
 30
0.0
 11
-14.525
 21
8.5
 31
0.0
  0
LINE
  8
STANDARD
 62
     7
  5
773
 10
-14.475
 20
14.5
 30
0.0
 11
-14.525
 21
14.5
 31
0.0
  0
LINE
  8
STANDARD
 62
     7
  5
774
 10
-14.475
 20
20.5
 30
0.0
 11
-14.525
 21
20.5
 31
0.0
  0
LINE
  8
STANDARD
 62
     7
  5
775
 10
-14.525
 20
8.5
 30
0.0
 11
-14.525
 21
8.45
 31
0.0
  0
LINE
  8
STANDARD
 62
     7
  5
776
 10
-14.525
 20
14.5
 30
0.0
 11
-14.525
 21
14.45
 31
0.0
  0
LINE
  8
STANDARD
 62
     7
  5
777
 10
-14.525
 20
20.5
 30
0.0
 11
-14.525
 21
20.45
 31
0.0
  0
LINE
  8
STANDARD
 62
     7
  5
778
 10
-14.525
 20
8.45
 30
0.0
 11
-14.575
 21
8.45
 31
0.0
  0
LINE
  8
STANDARD
 62
     7
  5
779
 10
-14.525
 20
14.45
 30
0.0
 11
-14.575
 21
14.45
 31
0.0
  0
LINE
  8
STANDARD
 62
     7
  5
77A
 10
-14.525
 20
20.45
 30
0.0
 11
-14.575
 21
20.45
 31
0.0
  0
LINE
  8
STANDARD
 62
     7
  5
77B
 10
-14.575
 20
8.45
 30
0.0
 11
-14.575
 21
8.4
 31
0.0
  0
LINE
  8
STANDARD
 62
     7
  5
77C
 10
-14.575
 20
14.45
 30
0.0
 11
-14.575
 21
14.4
 31
0.0
  0
LINE
  8
STANDARD
 62
     7
  5
77D
 10
-14.575
 20
20.45
 30
0.0
 11
-14.575
 21
20.4
 31
0.0
  0
LINE
  8
STANDARD
 62
     7
  5
77E
 10
-20.1
 20
13.0
 30
0.0
 11
-20.1
 21
12.8
 31
0.0
  0
LINE
  8
STANDARD
 62
     7
  5
77F
 10
-20.1
 20
19.0
 30
0.0
 11
-20.1
 21
18.8
 31
0.0
  0
LINE
  8
STANDARD
 62
     7
  5
780
 10
-20.1
 20
12.8
 30
0.0
 11
-19.6
 21
12.8
 31
0.0
  0
LINE
  8
STANDARD
 62
     7
  5
781
 10
-20.1
 20
18.8
 30
0.0
 11
-19.6
 21
18.8
 31
0.0
  0
LINE
  8
STANDARD
 62
     7
  5
782
 10
-19.6
 20
12.8
 30
0.0
 11
-19.6
 21
12.5
 31
0.0
  0
LINE
  8
STANDARD
 62
     7
  5
783
 10
-19.6
 20
18.8
 30
0.0
 11
-19.6
 21
18.5
 31
0.0
  0
LINE
  8
STANDARD
 62
     7
  5
784
 10
-13.7
 20
10.6
 30
0.0
 11
-19.6
 21
10.6
 31
0.0
  0
LINE
  8
STANDARD
 62
     7
  5
785
 10
-13.7
 20
16.6
 30
0.0
 11
-19.6
 21
16.6
 31
0.0
  0
LINE
  8
STANDARD
 62
     7
  5
786
 10
-13.7
 20
22.6
 30
0.0
 11
-19.6
 21
22.6
 31
0.0
  0
LINE
  8
STANDARD
 62
     7
  5
787
 10
-19.6
 20
10.2
 30
0.0
 11
-14.9
 21
10.2
 31
0.0
  0
LINE
  8
STANDARD
 62
     7
  5
788
 10
-19.6
 20
16.2
 30
0.0
 11
-14.9
 21
16.2
 31
0.0
  0
LINE
  8
STANDARD
 62
     7
  5
789
 10
-19.6
 20
22.2
 30
0.0
 11
-14.9
 21
22.2
 31
0.0
  0
ENDSEC
  0
EOF
