  0
SECTION
  2
HEADER
  9
$ACADVER
  1
AC1009
  9
$INSBASE
 10
0.0
 20
0.0
 30
0.0
  9
$EXTMIN
 10
-44.0624
 20
1.64925
 30
0.0
  9
$EXTMAX
 10
-37.5176
 20
11.90075
 30
0.0
  9
$LIMMIN
 10
0.0
 20
0.0
  9
$LIMMAX
 10
0.0
 20
0.0
  9
$ORTHOMODE
 70
     0
  9
$REGENMODE
 70
     1
  9
$FILLMODE
 70
     1
  9
$QTEXTMODE
 70
     0
  9
$MIRRTEXT
 70
     1
  9
$DRAGMODE
 70
     2
  9
$LTSCALE
 40
1.0
  9
$OSMODE
 70
     0
  9
$ATTMODE
 70
     1
  9
$TEXTSIZE
 40
0.2
  9
$TRACEWID
 40
0.05
  9
$TEXTSTYLE
  7
STANDARD
  9
$CLAYER
  8
0
  9
$CELTYPE
  6
CONTINUOUS
  9
$CECOLOR
 62
   256
  9
$DIMSCALE
 40
1.0
  9
$DIMASZ
 40
0.18
  9
$DIMEXO
 40
0.0625
  9
$DIMDLI
 40
0.38
  9
$DIMRND
 40
0.0
  9
$DIMDLE
 40
0.0
  9
$DIMEXE
 40
0.18
  9
$DIMTP
 40
0.0
  9
$DIMTM
 40
0.0
  9
$DIMTXT
 40
0.18
  9
$DIMCEN
 40
0.09
  9
$DIMTSZ
 40
0.0
  9
$DIMTOL
 70
     0
  9
$DIMLIM
 70
     0
  9
$DIMTIH
 70
     1
  9
$DIMTOH
 70
     1
  9
$DIMSE1
 70
     0
  9
$DIMSE2
 70
     0
  9
$DIMTAD
 70
     0
  9
$DIMZIN
 70
     0
  9
$DIMBLK
  1

  9
$DIMASO
 70
     1
  9
$DIMSHO
 70
     1
  9
$DIMPOST
  1

  9
$DIMAPOST
  1

  9
$DIMALT
 70
     0
  9
$DIMALTD
 70
     2
  9
$DIMALTF
 40
25.4
  9
$DIMLFAC
 40
1.0
  9
$DIMTOFL
 70
     0
  9
$DIMTVP
 40
0.0
  9
$DIMTIX
 70
     0
  9
$DIMSOXD
 70
     0
  9
$DIMSAH
 70
     0
  9
$DIMBLK1
  1

  9
$DIMBLK2
  1

  9
$DIMSTYLE
  2
STANDARD
  9
$DIMCLRD
 70
     0
  9
$DIMCLRE
 70
     0
  9
$DIMCLRT
 70
     0
  9
$DIMTFAC
 40
1.0
  9
$DIMGAP
 40
0.09
  9
$LUNITS
 70
     2
  9
$LUPREC
 70
     4
  9
$AXISMODE
 70
     0
  9
$AXISUNIT
 10
0.0
 20
0.0
  9
$SKETCHINC
 40
0.1
  9
$FILLETRAD
 40
0.0
  9
$AUNITS
 70
     0
  9
$AUPREC
 70
     0
  9
$MENU
  1
acad
  9
$ELEVATION
 40
0.0
  9
$PELEVATION
 40
0.0
  9
$THICKNESS
 40
0.0
  9
$LIMCHECK
 70
     0
  9
$BLIPMODE
 70
     1
  9
$CHAMFERA
 40
0.0
  9
$CHAMFERB
 40
0.0
  9
$SKPOLY
 70
     0
  9
$TDCREATE
 40
0.000000000
  9
$TDUPDATE
 40
0.000000000
  9
$TDINDWG
 40
0.0000000000
  9
$TDUSRTIMER
 40
0.0000000000
  9
$USRTIMER
 70
     1
  9
$ANGBASE
 50
0.0
  9
$ANGDIR
 70
     0
  9
$PDMODE
 70
     0
  9
$PDSIZE
 40
0.0
  9
$PLINEWID
 40
0.0
  9
$COORDS
 70
     0
  9
$SPLFRAME
 70
     0
  9
$SPLINETYPE
 70
     6
  9
$SPLINESEGS
 70
     8
  9
$ATTDIA
 70
     0
  9
$ATTREQ
 70
     1
  9
$HANDLING
 70
     1
  9
$HANDSEED
  5
127
  9
$SURFTAB1
 70
     6
  9
$SURFTAB2
 70
     6
  9
$SURFTYPE
 70
     6
  9
$SURFU
 70
     6
  9
$SURFV
 70
     6
  9
$UCSNAME
  2

  9
$UCSORG
 10
0.0
 20
0.0
 30
0.0
  9
$UCSXDIR
 10
1.0
 20
0.0
 30
0.0
  9
$UCSYDIR
 10
0.0
 20
1.0
 30
0.0
  9
$PUCSNAME
  2

  9
$PUCSORG
 10
0.0
 20
0.0
 30
0.0
  9
$PUCSXDIR
 10
1.0
 20
0.0
 30
0.0
  9
$PUCSYDIR
 10
0.0
 20
1.0
 30
0.0
  9
$USERI1
 70
     0
  9
$USERI2
 70
     0
  9
$USERI3
 70
     0
  9
$USERI4
 70
     0
  9
$USERI5
 70
     0
  9
$USERR1
 40
0.0
  9
$USERR2
 40
0.0
  9
$USERR3
 40
0.0
  9
$USERR4
 40
0.0
  9
$USERR5
 40
0.0
  9
$WORLDVIEW
 70
     1
  9
$SHADEDGE
 70
     3
  9
$SHADEDIF
 70
    70
  9
$TILEMODE
 70
     1
  9
$MAXACTVP
 70
    16
  9
$PINSBASE
 10
0.0
 20
0.0
 30
0.0
  9
$PLIMCHECK
 70
     0
  9
$PEXTMIN
 10
1.000000E+20
 20
1.000000E+20
 30
1.000000E+20
  9
$PEXTMAX
 10
-1.000000E+20
 20
-1.000000E+20
 30
-1.000000E+20
  9
$PLIMMIN
 10
0.0
 20
0.0
  9
$PLIMMAX
 10
12.0
 20
9.0
  9
$UNITMODE
 70
     0
  9
$VISRETAIN
 70
     0
  9
$PLINEGEN
 70
     1
  9
$PSLTSCALE
 70
     0
  9
$TREEDEPTH
 70
  3020
  9
$DWGCODEPAGE
  3
dos850
  0
ENDSEC
  0
SECTION
  2
TABLES
  0
TABLE
  2
VPORT
 70
     1
  0
VPORT
  2
*ACTIVE
 70
     0
 10
0.0
 20
0.0
 11
1.0
 21
1.0
 12
6.591288
 22
4.579184
 13
0.0
 23
0.0
 14
1.0
 24
1.0
 15
0.0
 25
0.0
 16
0.0
 26
0.0
 36
1.0
 17
0.0
 27
0.0
 37
0.0
 40
9.158369
 41
0.688564
 42
50.0
 43
0.0
 44
0.0
 50
0.0
 51
0.0
 71
     0
 72
   100
 73
     1
 74
     1
 75
     0
 76
     0
 77
     0
 78
     0
  0
ENDTAB
  0
TABLE
  2
LTYPE
 70
     2
  0
LTYPE
  2
CONTINUOUS
 70
    64
  3
Solid line
 72
    65
 73
     0
 40
0.0
  0
LTYPE
  2
DASH
 70
    64
  3
- -
 72
    65
 73
     4
 40
0.1
 49
0.025
 49
-0.025
 49
-0.025
 49
0.025
  0
ENDTAB
  0
TABLE
  2
LAYER
 70
     7
  0
LAYER
  2
0
 70
     0
 62
     7
  6
CONTINUOUS
  0
LAYER
  2
MERGE
 70
     0
 62
     7
  6
CONTINUOUS
  0
LAYER
  2
STANDARD
 70
     0
 62
     7
  6
CONTINUOUS
  0
LAYER
  2
PINS
 70
     0
 62
     7
  6
CONTINUOUS
  0
LAYER
  2
PARAMS
 70
     0
 62
     7
  6
CONTINUOUS
  0
LAYER
  2
OUTLINE
 70
     0
 62
     7
  6
CONTINUOUS
  0
LAYER
  2
INTERNALS
 70
     0
 62
     7
  6
CONTINUOUS
  0
ENDTAB
  0
TABLE
  2
STYLE
 70
     2
  0
STYLE
  2
STANDARD
 70
     0
 40
0.0
 41
1.0
 50
0.0
 71
     0
 42
0.0
  3
txt
  4

  0
STYLE
  2
STYLE1
 70
     0
 40
0.0
 41
1.0
 50
0.0
 71
     0
 42
0.0
  3
Arial.ttf
  4

  0
ENDTAB
  0
TABLE
  2
VIEW
 70
     0
  0
ENDTAB
  0
TABLE
  2
UCS
 70
     0
  0
ENDTAB
  0
TABLE
  2
APPID
 70
     1
  0
APPID
  2
ACAD
 70
     0
  0
ENDTAB
  0
TABLE
  2
DIMSTYLE
 70
     1
  0
DIMSTYLE
  2
STANDARD
 70
     0
  3

  4

  5

  6

  7

 40
1.0
 41
0.18
 42
0.0625
 43
0.38
 44
0.18
 45
0.0
 46
0.0
 47
0.0
 48
0.0
 71
     0
 72
     0
 73
     1
 74
     1
 75
     0
 76
     0
 77
     0
 78
     0
140
0.18
141
0.09
142
0.0
143
25.4
144
1.0
145
0.0
146
1.0
147
0.09
170
     0
171
     2
172
     0
173
     0
174
     0
175
     0
176
     0
177
     0
178
     0
  0
ENDTAB
  0
ENDSEC
  0
SECTION
  2
BLOCKS
  0
ENDSEC
  0
SECTION
  2
ENTITIES
  0
TEXT
  8
STANDARD
 62
     7
  5
24
 10
-40.3275
 20
11.65
 30
0.0
 40
0.1
  1
0
  7
STYLE1
 72
     1
 11
-40.3
 21
11.7
 31
0.0
 73
     2
  0
TEXT
  8
STANDARD
 62
     7
  5
25
 10
-40.3275
 20
9.05
 30
0.0
 40
0.1
  1
0
  7
STYLE1
 72
     1
 11
-40.3
 21
9.1
 31
0.0
 73
     2
  0
TEXT
  8
STANDARD
 62
     7
  5
26
 10
-42.8275
 20
11.65
 30
0.0
 40
0.1
  1
0
  7
STYLE1
 72
     1
 11
-42.8
 21
11.7
 31
0.0
 73
     2
  0
TEXT
  8
STANDARD
 62
     7
  5
27
 10
-42.8275
 20
9.05
 30
0.0
 40
0.1
  1
0
  7
STYLE1
 72
     1
 11
-42.8
 21
9.1
 31
0.0
 73
     2
  0
TEXT
  8
STANDARD
 62
     7
  5
28
 10
-42.8275
 20
3.85
 30
0.0
 40
0.1
  1
0
  7
STYLE1
 72
     1
 11
-42.8
 21
3.9
 31
0.0
 73
     2
  0
TEXT
  8
STANDARD
 62
     7
  5
29
 10
-42.8275
 20
6.45
 30
0.0
 40
0.1
  1
0
  7
STYLE1
 72
     1
 11
-42.8
 21
6.5
 31
0.0
 73
     2
  0
TEXT
  8
STANDARD
 62
     7
  5
2A
 10
-39.8275
 20
11.65
 30
0.0
 40
0.1
  1
1
  7
STYLE1
 72
     1
 11
-39.8
 21
11.7
 31
0.0
 73
     2
  0
TEXT
  8
STANDARD
 62
     7
  5
2B
 10
-39.8275
 20
9.05
 30
0.0
 40
0.1
  1
1
  7
STYLE1
 72
     1
 11
-39.8
 21
9.1
 31
0.0
 73
     2
  0
TEXT
  8
STANDARD
 62
     7
  5
2C
 10
-42.3275
 20
11.65
 30
0.0
 40
0.1
  1
1
  7
STYLE1
 72
     1
 11
-42.3
 21
11.7
 31
0.0
 73
     2
  0
TEXT
  8
STANDARD
 62
     7
  5
2D
 10
-42.3275
 20
9.05
 30
0.0
 40
0.1
  1
1
  7
STYLE1
 72
     1
 11
-42.3
 21
9.1
 31
0.0
 73
     2
  0
TEXT
  8
STANDARD
 62
     7
  5
2E
 10
-42.3275
 20
3.85
 30
0.0
 40
0.1
  1
1
  7
STYLE1
 72
     1
 11
-42.3
 21
3.9
 31
0.0
 73
     2
  0
TEXT
  8
STANDARD
 62
     7
  5
2F
 10
-42.3275
 20
6.45
 30
0.0
 40
0.1
  1
1
  7
STYLE1
 72
     1
 11
-42.3
 21
6.5
 31
0.0
 73
     2
  0
TEXT
  8
STANDARD
 62
     7
  5
30
 10
-39.3275
 20
11.65
 30
0.0
 40
0.1
  1
2
  7
STYLE1
 72
     1
 11
-39.3
 21
11.7
 31
0.0
 73
     2
  0
TEXT
  8
STANDARD
 62
     7
  5
31
 10
-39.3275
 20
9.05
 30
0.0
 40
0.1
  1
2
  7
STYLE1
 72
     1
 11
-39.3
 21
9.1
 31
0.0
 73
     2
  0
TEXT
  8
STANDARD
 62
     7
  5
32
 10
-41.8275
 20
11.65
 30
0.0
 40
0.1
  1
2
  7
STYLE1
 72
     1
 11
-41.8
 21
11.7
 31
0.0
 73
     2
  0
TEXT
  8
STANDARD
 62
     7
  5
33
 10
-41.8275
 20
9.05
 30
0.0
 40
0.1
  1
2
  7
STYLE1
 72
     1
 11
-41.8
 21
9.1
 31
0.0
 73
     2
  0
TEXT
  8
STANDARD
 62
     7
  5
34
 10
-41.8275
 20
3.85
 30
0.0
 40
0.1
  1
2
  7
STYLE1
 72
     1
 11
-41.8
 21
3.9
 31
0.0
 73
     2
  0
TEXT
  8
STANDARD
 62
     7
  5
35
 10
-41.8275
 20
6.45
 30
0.0
 40
0.1
  1
2
  7
STYLE1
 72
     1
 11
-41.8
 21
6.5
 31
0.0
 73
     2
  0
TEXT
  8
STANDARD
 62
     7
  5
36
 10
-38.3275
 20
11.65
 30
0.0
 40
0.1
  1
4
  7
STYLE1
 72
     1
 11
-38.3
 21
11.7
 31
0.0
 73
     2
  0
TEXT
  8
STANDARD
 62
     7
  5
37
 10
-38.3275
 20
9.05
 30
0.0
 40
0.1
  1
4
  7
STYLE1
 72
     1
 11
-38.3
 21
9.1
 31
0.0
 73
     2
  0
TEXT
  8
STANDARD
 62
     7
  5
38
 10
-40.8275
 20
11.65
 30
0.0
 40
0.1
  1
4
  7
STYLE1
 72
     1
 11
-40.8
 21
11.7
 31
0.0
 73
     2
  0
TEXT
  8
STANDARD
 62
     7
  5
39
 10
-40.8275
 20
9.05
 30
0.0
 40
0.1
  1
4
  7
STYLE1
 72
     1
 11
-40.8
 21
9.1
 31
0.0
 73
     2
  0
TEXT
  8
STANDARD
 62
     7
  5
3A
 10
-40.8275
 20
3.85
 30
0.0
 40
0.1
  1
4
  7
STYLE1
 72
     1
 11
-40.8
 21
3.9
 31
0.0
 73
     2
  0
TEXT
  8
STANDARD
 62
     7
  5
3B
 10
-40.8275
 20
6.45
 30
0.0
 40
0.1
  1
4
  7
STYLE1
 72
     1
 11
-40.8
 21
6.5
 31
0.0
 73
     2
  0
TEXT
  8
STANDARD
 62
     7
  5
3C
 10
-38.8275
 20
11.65
 30
0.0
 40
0.1
  1
3
  7
STYLE1
 72
     1
 11
-38.8
 21
11.7
 31
0.0
 73
     2
  0
TEXT
  8
STANDARD
 62
     7
  5
3D
 10
-38.8275
 20
9.05
 30
0.0
 40
0.1
  1
3
  7
STYLE1
 72
     1
 11
-38.8
 21
9.1
 31
0.0
 73
     2
  0
TEXT
  8
STANDARD
 62
     7
  5
3E
 10
-41.3275
 20
11.65
 30
0.0
 40
0.1
  1
3
  7
STYLE1
 72
     1
 11
-41.3
 21
11.7
 31
0.0
 73
     2
  0
TEXT
  8
STANDARD
 62
     7
  5
3F
 10
-41.3275
 20
9.05
 30
0.0
 40
0.1
  1
3
  7
STYLE1
 72
     1
 11
-41.3
 21
9.1
 31
0.0
 73
     2
  0
TEXT
  8
STANDARD
 62
     7
  5
40
 10
-41.3275
 20
3.85
 30
0.0
 40
0.1
  1
3
  7
STYLE1
 72
     1
 11
-41.3
 21
3.9
 31
0.0
 73
     2
  0
TEXT
  8
STANDARD
 62
     7
  5
41
 10
-41.3275
 20
6.45
 30
0.0
 40
0.1
  1
3
  7
STYLE1
 72
     1
 11
-41.3
 21
6.5
 31
0.0
 73
     2
  0
TEXT
  8
STANDARD
 62
     7
  5
42
 10
-40.3275
 20
3.85
 30
0.0
 40
0.1
  1
5
  7
STYLE1
 72
     1
 11
-40.3
 21
3.9
 31
0.0
 73
     2
  0
TEXT
  8
STANDARD
 62
     7
  5
43
 10
-40.3275
 20
6.45
 30
0.0
 40
0.1
  1
5
  7
STYLE1
 72
     1
 11
-40.3
 21
6.5
 31
0.0
 73
     2
  0
TEXT
  8
STANDARD
 62
     7
  5
44
 10
-39.8275
 20
3.85
 30
0.0
 40
0.1
  1
6
  7
STYLE1
 72
     1
 11
-39.8
 21
3.9
 31
0.0
 73
     2
  0
TEXT
  8
STANDARD
 62
     7
  5
45
 10
-39.8275
 20
6.45
 30
0.0
 40
0.1
  1
6
  7
STYLE1
 72
     1
 11
-39.8
 21
6.5
 31
0.0
 73
     2
  0
TEXT
  8
STANDARD
 62
     7
  5
46
 10
-39.3275
 20
3.85
 30
0.0
 40
0.1
  1
7
  7
STYLE1
 72
     1
 11
-39.3
 21
3.9
 31
0.0
 73
     2
  0
TEXT
  8
STANDARD
 62
     7
  5
47
 10
-39.3275
 20
6.45
 30
0.0
 40
0.1
  1
7
  7
STYLE1
 72
     1
 11
-39.3
 21
6.5
 31
0.0
 73
     2
  0
TEXT
  8
STANDARD
 62
     7
  5
48
 10
-38.8275
 20
3.85
 30
0.0
 40
0.1
  1
8
  7
STYLE1
 72
     1
 11
-38.8
 21
3.9
 31
0.0
 73
     2
  0
TEXT
  8
STANDARD
 62
     7
  5
49
 10
-38.8275
 20
6.45
 30
0.0
 40
0.1
  1
8
  7
STYLE1
 72
     1
 11
-38.8
 21
6.5
 31
0.0
 73
     2
  0
TEXT
  8
STANDARD
 62
     7
  5
4A
 10
-38.3275
 20
3.85
 30
0.0
 40
0.1
  1
9
  7
STYLE1
 72
     1
 11
-38.3
 21
3.9
 31
0.0
 73
     2
  0
TEXT
  8
STANDARD
 62
     7
  5
4B
 10
-38.3275
 20
6.45
 30
0.0
 40
0.1
  1
9
  7
STYLE1
 72
     1
 11
-38.3
 21
6.5
 31
0.0
 73
     2
  0
TEXT
  8
STANDARD
 62
     7
  5
4C
 10
-37.8275
 20
11.65
 30
0.0
 40
0.1
  1
0
  7
STYLE1
 72
     1
 11
-37.8
 21
11.7
 31
0.0
 73
     2
  0
TEXT
  8
STANDARD
 62
     7
  5
4D
 10
-37.8275
 20
9.05
 30
0.0
 40
0.1
  1
0
  7
STYLE1
 72
     1
 11
-37.8
 21
9.1
 31
0.0
 73
     2
  0
TEXT
  8
STANDARD
 62
     7
  5
4E
 10
-37.8275
 20
3.85
 30
0.0
 40
0.1
  1
0
  7
STYLE1
 72
     1
 11
-37.8
 21
3.9
 31
0.0
 73
     2
  0
TEXT
  8
STANDARD
 62
     7
  5
4F
 10
-37.8275
 20
6.45
 30
0.0
 40
0.1
  1
0
  7
STYLE1
 72
     1
 11
-37.8
 21
6.5
 31
0.0
 73
     2
  0
TEXT
  8
STANDARD
 62
     7
  5
50
 10
-44.03
 20
11.65
 30
0.0
 40
0.1
  1
STEP TYPE 11
  7
STYLE1
 72
     1
 11
-43.7
 21
11.7
 31
0.0
 73
     2
  0
TEXT
  8
STANDARD
 62
     7
  5
51
 10
-44.03
 20
9.05
 30
0.0
 40
0.1
  1
STEP TYPE 12
  7
STYLE1
 72
     1
 11
-43.7
 21
9.1
 31
0.0
 73
     2
  0
TEXT
  8
STANDARD
 62
     7
  5
52
 10
-44.03
 20
3.85
 30
0.0
 40
0.1
  1
STEP TYPE 14
  7
STYLE1
 72
     1
 11
-43.7
 21
3.9
 31
0.0
 73
     2
  0
TEXT
  8
STANDARD
 62
     7
  5
53
 10
-44.03
 20
6.45
 30
0.0
 40
0.1
  1
STEP TYPE 13
  7
STYLE1
 72
     1
 11
-43.7
 21
6.5
 31
0.0
 73
     2
  0
TEXT
  8
STANDARD
 62
     7
  5
54
 10
-43.9
 20
11.25
 30
0.0
 40
0.1
  1
phase-A
  7
STYLE1
 11
-43.9
 21
11.3
 31
0.0
 73
     2
  0
TEXT
  8
STANDARD
 62
     7
  5
55
 10
-43.9
 20
8.65
 30
0.0
 40
0.1
  1
phase-A
  7
STYLE1
 11
-43.9
 21
8.7
 31
0.0
 73
     2
  0
TEXT
  8
STANDARD
 62
     7
  5
56
 10
-43.9
 20
3.45
 30
0.0
 40
0.1
  1
phase-A
  7
STYLE1
 11
-43.9
 21
3.5
 31
0.0
 73
     2
  0
TEXT
  8
STANDARD
 62
     7
  5
57
 10
-43.9
 20
6.05
 30
0.0
 40
0.1
  1
phase-A
  7
STYLE1
 11
-43.9
 21
6.1
 31
0.0
 73
     2
  0
TEXT
  8
STANDARD
 62
     7
  5
58
 10
-43.9
 20
10.85
 30
0.0
 40
0.1
  1
phase-B
  7
STYLE1
 11
-43.9
 21
10.9
 31
0.0
 73
     2
  0
TEXT
  8
STANDARD
 62
     7
  5
59
 10
-43.9
 20
8.25
 30
0.0
 40
0.1
  1
phase-B
  7
STYLE1
 11
-43.9
 21
8.3
 31
0.0
 73
     2
  0
TEXT
  8
STANDARD
 62
     7
  5
5A
 10
-43.9
 20
3.05
 30
0.0
 40
0.1
  1
phase-B
  7
STYLE1
 11
-43.9
 21
3.1
 31
0.0
 73
     2
  0
TEXT
  8
STANDARD
 62
     7
  5
5B
 10
-43.9
 20
5.65
 30
0.0
 40
0.1
  1
phase-B
  7
STYLE1
 11
-43.9
 21
5.7
 31
0.0
 73
     2
  0
TEXT
  8
STANDARD
 62
     7
  5
5C
 10
-43.9
 20
10.45
 30
0.0
 40
0.1
  1
phase-C
  7
STYLE1
 11
-43.9
 21
10.5
 31
0.0
 73
     2
  0
TEXT
  8
STANDARD
 62
     7
  5
5D
 10
-43.9
 20
7.85
 30
0.0
 40
0.1
  1
phase-C
  7
STYLE1
 11
-43.9
 21
7.9
 31
0.0
 73
     2
  0
TEXT
  8
STANDARD
 62
     7
  5
5E
 10
-43.9
 20
2.65
 30
0.0
 40
0.1
  1
phase-C
  7
STYLE1
 11
-43.9
 21
2.7
 31
0.0
 73
     2
  0
TEXT
  8
STANDARD
 62
     7
  5
5F
 10
-43.9
 20
5.25
 30
0.0
 40
0.1
  1
phase-C
  7
STYLE1
 11
-43.9
 21
5.3
 31
0.0
 73
     2
  0
TEXT
  8
STANDARD
 62
     7
  5
60
 10
-43.9
 20
10.05
 30
0.0
 40
0.1
  1
phase-D
  7
STYLE1
 11
-43.9
 21
10.1
 31
0.0
 73
     2
  0
TEXT
  8
STANDARD
 62
     7
  5
61
 10
-43.9
 20
7.45
 30
0.0
 40
0.1
  1
phase-D
  7
STYLE1
 11
-43.9
 21
7.5
 31
0.0
 73
     2
  0
TEXT
  8
STANDARD
 62
     7
  5
62
 10
-43.9
 20
2.25
 30
0.0
 40
0.1
  1
phase-D
  7
STYLE1
 11
-43.9
 21
2.3
 31
0.0
 73
     2
  0
TEXT
  8
STANDARD
 62
     7
  5
63
 10
-43.9
 20
4.85
 30
0.0
 40
0.1
  1
phase-D
  7
STYLE1
 11
-43.9
 21
4.9
 31
0.0
 73
     2
  0
TEXT
  8
STANDARD
 62
     7
  5
64
 10
-43.9
 20
9.65
 30
0.0
 40
0.1
  1
phase-E
  7
STYLE1
 11
-43.9
 21
9.7
 31
0.0
 73
     2
  0
TEXT
  8
STANDARD
 62
     7
  5
65
 10
-43.9
 20
7.05
 30
0.0
 40
0.1
  1
phase-E
  7
STYLE1
 11
-43.9
 21
7.1
 31
0.0
 73
     2
  0
TEXT
  8
STANDARD
 62
     7
  5
66
 10
-43.9
 20
1.85
 30
0.0
 40
0.1
  1
phase-E
  7
STYLE1
 11
-43.9
 21
1.9
 31
0.0
 73
     2
  0
TEXT
  8
STANDARD
 62
     7
  5
67
 10
-43.9
 20
4.45
 30
0.0
 40
0.1
  1
phase-E
  7
STYLE1
 11
-43.9
 21
4.5
 31
0.0
 73
     2
  0
LINE
  8
STANDARD
  6
DASH
 62
     7
  5
69
 10
-42.05
 20
11.85
 30
0.0
 11
-42.05
 21
9.5
 31
0.0
  0
LINE
  8
STANDARD
  6
DASH
 62
     7
  5
6A
 10
-42.05
 20
9.25
 30
0.0
 11
-42.05
 21
6.9
 31
0.0
  0
LINE
  8
STANDARD
  6
DASH
 62
     7
  5
6B
 10
-42.05
 20
4.05
 30
0.0
 11
-42.05
 21
1.7
 31
0.0
  0
LINE
  8
STANDARD
  6
DASH
 62
     7
  5
6C
 10
-42.05
 20
6.65
 30
0.0
 11
-42.05
 21
4.3
 31
0.0
  0
LINE
  8
STANDARD
  6
DASH
 62
     7
  5
6D
 10
-41.55
 20
11.85
 30
0.0
 11
-41.55
 21
9.5
 31
0.0
  0
LINE
  8
STANDARD
  6
DASH
 62
     7
  5
6E
 10
-41.55
 20
9.25
 30
0.0
 11
-41.55
 21
6.9
 31
0.0
  0
LINE
  8
STANDARD
  6
DASH
 62
     7
  5
6F
 10
-41.55
 20
4.05
 30
0.0
 11
-41.55
 21
1.7
 31
0.0
  0
LINE
  8
STANDARD
  6
DASH
 62
     7
  5
70
 10
-41.55
 20
6.65
 30
0.0
 11
-41.55
 21
4.3
 31
0.0
  0
LINE
  8
STANDARD
  6
DASH
 62
     7
  5
71
 10
-41.05
 20
11.85
 30
0.0
 11
-41.05
 21
9.5
 31
0.0
  0
LINE
  8
STANDARD
  6
DASH
 62
     7
  5
72
 10
-41.05
 20
9.25
 30
0.0
 11
-41.05
 21
6.9
 31
0.0
  0
LINE
  8
STANDARD
  6
DASH
 62
     7
  5
73
 10
-41.05
 20
4.05
 30
0.0
 11
-41.05
 21
1.7
 31
0.0
  0
LINE
  8
STANDARD
  6
DASH
 62
     7
  5
74
 10
-41.05
 20
6.65
 30
0.0
 11
-41.05
 21
4.3
 31
0.0
  0
LINE
  8
STANDARD
  6
DASH
 62
     7
  5
75
 10
-40.55
 20
11.85
 30
0.0
 11
-40.55
 21
9.5
 31
0.0
  0
LINE
  8
STANDARD
  6
DASH
 62
     7
  5
76
 10
-40.55
 20
9.25
 30
0.0
 11
-40.55
 21
6.9
 31
0.0
  0
LINE
  8
STANDARD
  6
DASH
 62
     7
  5
77
 10
-40.55
 20
4.05
 30
0.0
 11
-40.55
 21
1.7
 31
0.0
  0
LINE
  8
STANDARD
  6
DASH
 62
     7
  5
78
 10
-40.55
 20
6.65
 30
0.0
 11
-40.55
 21
4.3
 31
0.0
  0
LINE
  8
STANDARD
  6
DASH
 62
     7
  5
79
 10
-40.05
 20
11.85
 30
0.0
 11
-40.05
 21
9.5
 31
0.0
  0
LINE
  8
STANDARD
  6
DASH
 62
     7
  5
7A
 10
-40.05
 20
9.25
 30
0.0
 11
-40.05
 21
6.9
 31
0.0
  0
LINE
  8
STANDARD
  6
DASH
 62
     7
  5
7B
 10
-40.05
 20
4.05
 30
0.0
 11
-40.05
 21
1.7
 31
0.0
  0
LINE
  8
STANDARD
  6
DASH
 62
     7
  5
7C
 10
-40.05
 20
6.65
 30
0.0
 11
-40.05
 21
4.3
 31
0.0
  0
LINE
  8
STANDARD
  6
DASH
 62
     7
  5
7D
 10
-39.55
 20
11.85
 30
0.0
 11
-39.55
 21
9.5
 31
0.0
  0
LINE
  8
STANDARD
  6
DASH
 62
     7
  5
7E
 10
-39.55
 20
9.25
 30
0.0
 11
-39.55
 21
6.9
 31
0.0
  0
LINE
  8
STANDARD
  6
DASH
 62
     7
  5
7F
 10
-39.55
 20
4.05
 30
0.0
 11
-39.55
 21
1.7
 31
0.0
  0
LINE
  8
STANDARD
  6
DASH
 62
     7
  5
80
 10
-39.55
 20
6.65
 30
0.0
 11
-39.55
 21
4.3
 31
0.0
  0
LINE
  8
STANDARD
  6
DASH
 62
     7
  5
81
 10
-39.05
 20
11.85
 30
0.0
 11
-39.05
 21
9.5
 31
0.0
  0
LINE
  8
STANDARD
  6
DASH
 62
     7
  5
82
 10
-39.05
 20
9.25
 30
0.0
 11
-39.05
 21
6.9
 31
0.0
  0
LINE
  8
STANDARD
  6
DASH
 62
     7
  5
83
 10
-39.05
 20
4.05
 30
0.0
 11
-39.05
 21
1.7
 31
0.0
  0
LINE
  8
STANDARD
  6
DASH
 62
     7
  5
84
 10
-39.05
 20
6.65
 30
0.0
 11
-39.05
 21
4.3
 31
0.0
  0
LINE
  8
STANDARD
  6
DASH
 62
     7
  5
85
 10
-38.55
 20
11.85
 30
0.0
 11
-38.55
 21
9.5
 31
0.0
  0
LINE
  8
STANDARD
  6
DASH
 62
     7
  5
86
 10
-38.55
 20
9.25
 30
0.0
 11
-38.55
 21
6.9
 31
0.0
  0
LINE
  8
STANDARD
  6
DASH
 62
     7
  5
87
 10
-38.55
 20
4.05
 30
0.0
 11
-38.55
 21
1.7
 31
0.0
  0
LINE
  8
STANDARD
  6
DASH
 62
     7
  5
88
 10
-38.55
 20
6.65
 30
0.0
 11
-38.55
 21
4.3
 31
0.0
  0
LINE
  8
STANDARD
  6
DASH
 62
     7
  5
89
 10
-37.55
 20
11.85
 30
0.0
 11
-37.55
 21
9.5
 31
0.0
  0
LINE
  8
STANDARD
  6
DASH
 62
     7
  5
8A
 10
-37.55
 20
9.25
 30
0.0
 11
-37.55
 21
6.9
 31
0.0
  0
LINE
  8
STANDARD
  6
DASH
 62
     7
  5
8B
 10
-37.55
 20
4.05
 30
0.0
 11
-37.55
 21
1.7
 31
0.0
  0
LINE
  8
STANDARD
  6
DASH
 62
     7
  5
8C
 10
-37.55
 20
6.65
 30
0.0
 11
-37.55
 21
4.3
 31
0.0
  0
LINE
  8
STANDARD
  6
DASH
 62
     7
  5
8D
 10
-38.05
 20
11.85
 30
0.0
 11
-38.05
 21
9.5
 31
0.0
  0
LINE
  8
STANDARD
  6
DASH
 62
     7
  5
8E
 10
-38.05
 20
9.25
 30
0.0
 11
-38.05
 21
6.9
 31
0.0
  0
LINE
  8
STANDARD
  6
DASH
 62
     7
  5
8F
 10
-38.05
 20
4.05
 30
0.0
 11
-38.05
 21
1.7
 31
0.0
  0
LINE
  8
STANDARD
  6
DASH
 62
     7
  5
90
 10
-38.05
 20
6.65
 30
0.0
 11
-38.05
 21
4.3
 31
0.0
  0
LINE
  8
STANDARD
  6
DASH
 62
     7
  5
91
 10
-43.05
 20
11.85
 30
0.0
 11
-43.05
 21
9.5
 31
0.0
  0
LINE
  8
STANDARD
  6
DASH
 62
     7
  5
92
 10
-43.05
 20
9.25
 30
0.0
 11
-43.05
 21
6.9
 31
0.0
  0
LINE
  8
STANDARD
  6
DASH
 62
     7
  5
93
 10
-43.05
 20
4.05
 30
0.0
 11
-43.05
 21
1.7
 31
0.0
  0
LINE
  8
STANDARD
  6
DASH
 62
     7
  5
94
 10
-43.05
 20
6.65
 30
0.0
 11
-43.05
 21
4.3
 31
0.0
  0
LINE
  8
STANDARD
  6
DASH
 62
     7
  5
95
 10
-42.55
 20
11.85
 30
0.0
 11
-42.55
 21
9.5
 31
0.0
  0
LINE
  8
STANDARD
  6
DASH
 62
     7
  5
96
 10
-42.55
 20
9.25
 30
0.0
 11
-42.55
 21
6.9
 31
0.0
  0
LINE
  8
STANDARD
  6
DASH
 62
     7
  5
97
 10
-42.55
 20
4.05
 30
0.0
 11
-42.55
 21
1.7
 31
0.0
  0
LINE
  8
STANDARD
  6
DASH
 62
     7
  5
98
 10
-42.55
 20
6.65
 30
0.0
 11
-42.55
 21
4.3
 31
0.0
  0
LINE
  8
STANDARD
 62
     7
  5
99
 10
-43.0
 20
11.4
 30
0.0
 11
-42.6
 21
11.4
 31
0.0
  0
LINE
  8
STANDARD
 62
     7
  5
9A
 10
-42.6
 20
11.4
 30
0.0
 11
-42.5
 21
11.2
 31
0.0
  0
LINE
  8
STANDARD
 62
     7
  5
9B
 10
-42.5
 20
11.2
 30
0.0
 11
-40.6
 21
11.2
 31
0.0
  0
LINE
  8
STANDARD
 62
     7
  5
9C
 10
-40.6
 20
11.2
 30
0.0
 11
-40.5
 21
11.4
 31
0.0
  0
LINE
  8
STANDARD
 62
     7
  5
9D
 10
-40.5
 20
11.4
 30
0.0
 11
-40.1
 21
11.4
 31
0.0
  0
LINE
  8
STANDARD
 62
     7
  5
9E
 10
-40.1
 20
11.4
 30
0.0
 11
-40.0
 21
11.2
 31
0.0
  0
LINE
  8
STANDARD
 62
     7
  5
9F
 10
-40.0
 20
11.2
 30
0.0
 11
-38.1
 21
11.2
 31
0.0
  0
LINE
  8
STANDARD
 62
     7
  5
A0
 10
-38.1
 20
11.2
 30
0.0
 11
-38.0
 21
11.4
 31
0.0
  0
LINE
  8
STANDARD
 62
     7
  5
A1
 10
-38.0
 20
11.4
 30
0.0
 11
-37.6
 21
11.4
 31
0.0
  0
LINE
  8
STANDARD
 62
     7
  5
A2
 10
-43.0
 20
10.4
 30
0.0
 11
-42.1
 21
10.4
 31
0.0
  0
LINE
  8
STANDARD
 62
     7
  5
A3
 10
-43.0
 20
10.0
 30
0.0
 11
-41.6
 21
10.0
 31
0.0
  0
LINE
  8
STANDARD
 62
     7
  5
A4
 10
-43.0
 20
9.6
 30
0.0
 11
-41.1
 21
9.6
 31
0.0
  0
LINE
  8
STANDARD
 62
     7
  5
A5
 10
-43.0
 20
10.8
 30
0.0
 11
-42.6
 21
10.8
 31
0.0
  0
LINE
  8
STANDARD
 62
     7
  5
A6
 10
-42.1
 20
10.4
 30
0.0
 11
-42.0
 21
10.6
 31
0.0
  0
LINE
  8
STANDARD
 62
     7
  5
A7
 10
-41.6
 20
10.0
 30
0.0
 11
-41.5
 21
10.2
 31
0.0
  0
LINE
  8
STANDARD
 62
     7
  5
A8
 10
-41.1
 20
9.6
 30
0.0
 11
-41.0
 21
9.8
 31
0.0
  0
LINE
  8
STANDARD
 62
     7
  5
A9
 10
-42.6
 20
10.8
 30
0.0
 11
-42.5
 21
11.0
 31
0.0
  0
LINE
  8
STANDARD
 62
     7
  5
AA
 10
-42.0
 20
10.6
 30
0.0
 11
-41.6
 21
10.6
 31
0.0
  0
LINE
  8
STANDARD
 62
     7
  5
AB
 10
-41.5
 20
10.2
 30
0.0
 11
-41.1
 21
10.2
 31
0.0
  0
LINE
  8
STANDARD
 62
     7
  5
AC
 10
-41.0
 20
9.8
 30
0.0
 11
-40.6
 21
9.8
 31
0.0
  0
LINE
  8
STANDARD
 62
     7
  5
AD
 10
-42.5
 20
11.0
 30
0.0
 11
-42.1
 21
11.0
 31
0.0
  0
LINE
  8
STANDARD
 62
     7
  5
AE
 10
-41.6
 20
10.6
 30
0.0
 11
-41.5
 21
10.4
 31
0.0
  0
LINE
  8
STANDARD
 62
     7
  5
AF
 10
-41.1
 20
10.2
 30
0.0
 11
-41.0
 21
10.0
 31
0.0
  0
LINE
  8
STANDARD
 62
     7
  5
B0
 10
-40.6
 20
9.8
 30
0.0
 11
-40.5
 21
9.6
 31
0.0
  0
LINE
  8
STANDARD
 62
     7
  5
B1
 10
-42.1
 20
11.0
 30
0.0
 11
-42.0
 21
10.8
 31
0.0
  0
LINE
  8
STANDARD
 62
     7
  5
B2
 10
-41.5
 20
10.4
 30
0.0
 11
-39.6
 21
10.4
 31
0.0
  0
LINE
  8
STANDARD
 62
     7
  5
B3
 10
-41.0
 20
10.0
 30
0.0
 11
-39.1
 21
10.0
 31
0.0
  0
LINE
  8
STANDARD
 62
     7
  5
B4
 10
-40.5
 20
9.6
 30
0.0
 11
-38.6
 21
9.6
 31
0.0
  0
LINE
  8
STANDARD
 62
     7
  5
B5
 10
-42.0
 20
10.8
 30
0.0
 11
-40.1
 21
10.8
 31
0.0
  0
LINE
  8
STANDARD
 62
     7
  5
B6
 10
-39.6
 20
10.4
 30
0.0
 11
-39.5
 21
10.6
 31
0.0
  0
LINE
  8
STANDARD
 62
     7
  5
B7
 10
-39.1
 20
10.0
 30
0.0
 11
-39.0
 21
10.2
 31
0.0
  0
LINE
  8
STANDARD
 62
     7
  5
B8
 10
-38.6
 20
9.6
 30
0.0
 11
-38.5
 21
9.8
 31
0.0
  0
LINE
  8
STANDARD
 62
     7
  5
B9
 10
-40.1
 20
10.8
 30
0.0
 11
-40.0
 21
11.0
 31
0.0
  0
LINE
  8
STANDARD
 62
     7
  5
BA
 10
-39.5
 20
10.6
 30
0.0
 11
-39.1
 21
10.6
 31
0.0
  0
LINE
  8
STANDARD
 62
     7
  5
BB
 10
-39.0
 20
10.2
 30
0.0
 11
-38.6
 21
10.2
 31
0.0
  0
LINE
  8
STANDARD
 62
     7
  5
BC
 10
-38.5
 20
9.8
 30
0.0
 11
-38.1
 21
9.8
 31
0.0
  0
LINE
  8
STANDARD
 62
     7
  5
BD
 10
-40.0
 20
11.0
 30
0.0
 11
-39.6
 21
11.0
 31
0.0
  0
LINE
  8
STANDARD
 62
     7
  5
BE
 10
-39.1
 20
10.6
 30
0.0
 11
-39.0
 21
10.4
 31
0.0
  0
LINE
  8
STANDARD
 62
     7
  5
BF
 10
-38.6
 20
10.2
 30
0.0
 11
-38.5
 21
10.0
 31
0.0
  0
LINE
  8
STANDARD
 62
     7
  5
C0
 10
-38.1
 20
9.8
 30
0.0
 11
-38.0
 21
9.6
 31
0.0
  0
LINE
  8
STANDARD
 62
     7
  5
C1
 10
-39.6
 20
11.0
 30
0.0
 11
-39.5
 21
10.8
 31
0.0
  0
LINE
  8
STANDARD
 62
     7
  5
C2
 10
-39.0
 20
10.4
 30
0.0
 11
-37.6
 21
10.4
 31
0.0
  0
LINE
  8
STANDARD
 62
     7
  5
C3
 10
-38.5
 20
10.0
 30
0.0
 11
-37.6
 21
10.0
 31
0.0
  0
LINE
  8
STANDARD
 62
     7
  5
C4
 10
-38.0
 20
9.6
 30
0.0
 11
-37.6
 21
9.6
 31
0.0
  0
LINE
  8
STANDARD
 62
     7
  5
C5
 10
-39.5
 20
10.8
 30
0.0
 11
-37.6
 21
10.8
 31
0.0
  0
LINE
  8
STANDARD
 62
     7
  5
C6
 10
-43.0
 20
8.8
 30
0.0
 11
-42.6
 21
8.8
 31
0.0
  0
LINE
  8
STANDARD
 62
     7
  5
C7
 10
-42.6
 20
8.8
 30
0.0
 11
-42.5
 21
8.6
 31
0.0
  0
LINE
  8
STANDARD
 62
     7
  5
C8
 10
-42.5
 20
8.6
 30
0.0
 11
-41.1
 21
8.6
 31
0.0
  0
LINE
  8
STANDARD
 62
     7
  5
C9
 10
-41.1
 20
8.6
 30
0.0
 11
-41.0
 21
8.8
 31
0.0
  0
LINE
  8
STANDARD
 62
     7
  5
CA
 10
-41.0
 20
8.8
 30
0.0
 11
-40.1
 21
8.8
 31
0.0
  0
LINE
  8
STANDARD
 62
     7
  5
CB
 10
-40.1
 20
8.8
 30
0.0
 11
-40.0
 21
8.6
 31
0.0
  0
LINE
  8
STANDARD
 62
     7
  5
CC
 10
-40.0
 20
8.6
 30
0.0
 11
-38.6
 21
8.6
 31
0.0
  0
LINE
  8
STANDARD
 62
     7
  5
CD
 10
-38.6
 20
8.6
 30
0.0
 11
-38.5
 21
8.8
 31
0.0
  0
LINE
  8
STANDARD
 62
     7
  5
CE
 10
-38.5
 20
8.8
 30
0.0
 11
-37.6
 21
8.8
 31
0.0
  0
LINE
  8
STANDARD
 62
     7
  5
CF
 10
-43.0
 20
8.4
 30
0.0
 11
-42.1
 21
8.4
 31
0.0
  0
LINE
  8
STANDARD
 62
     7
  5
D0
 10
-42.1
 20
8.4
 30
0.0
 11
-42.0
 21
8.2
 31
0.0
  0
LINE
  8
STANDARD
 62
     7
  5
D1
 10
-42.0
 20
8.2
 30
0.0
 11
-40.6
 21
8.2
 31
0.0
  0
LINE
  8
STANDARD
 62
     7
  5
D2
 10
-40.6
 20
8.2
 30
0.0
 11
-40.5
 21
8.4
 31
0.0
  0
LINE
  8
STANDARD
 62
     7
  5
D3
 10
-40.5
 20
8.4
 30
0.0
 11
-39.6
 21
8.4
 31
0.0
  0
LINE
  8
STANDARD
 62
     7
  5
D4
 10
-39.6
 20
8.4
 30
0.0
 11
-39.5
 21
8.2
 31
0.0
  0
LINE
  8
STANDARD
 62
     7
  5
D5
 10
-39.5
 20
8.2
 30
0.0
 11
-38.1
 21
8.2
 31
0.0
  0
LINE
  8
STANDARD
 62
     7
  5
D6
 10
-38.1
 20
8.2
 30
0.0
 11
-38.0
 21
8.4
 31
0.0
  0
LINE
  8
STANDARD
 62
     7
  5
D7
 10
-38.0
 20
8.4
 30
0.0
 11
-37.6
 21
8.4
 31
0.0
  0
LINE
  8
STANDARD
 62
     7
  5
D8
 10
-43.0
 20
7.4
 30
0.0
 11
-42.1
 21
7.4
 31
0.0
  0
LINE
  8
STANDARD
 62
     7
  5
D9
 10
-43.0
 20
7.0
 30
0.0
 11
-41.6
 21
7.0
 31
0.0
  0
LINE
  8
STANDARD
 62
     7
  5
DA
 10
-43.0
 20
7.8
 30
0.0
 11
-42.6
 21
7.8
 31
0.0
  0
LINE
  8
STANDARD
 62
     7
  5
DB
 10
-42.1
 20
7.4
 30
0.0
 11
-42.0
 21
7.6
 31
0.0
  0
LINE
  8
STANDARD
 62
     7
  5
DC
 10
-41.6
 20
7.0
 30
0.0
 11
-41.5
 21
7.2
 31
0.0
  0
LINE
  8
STANDARD
 62
     7
  5
DD
 10
-42.6
 20
7.8
 30
0.0
 11
-42.5
 21
8.0
 31
0.0
  0
LINE
  8
STANDARD
 62
     7
  5
DE
 10
-42.0
 20
7.6
 30
0.0
 11
-41.1
 21
7.6
 31
0.0
  0
LINE
  8
STANDARD
 62
     7
  5
DF
 10
-41.5
 20
7.2
 30
0.0
 11
-40.6
 21
7.2
 31
0.0
  0
LINE
  8
STANDARD
 62
     7
  5
E0
 10
-42.5
 20
8.0
 30
0.0
 11
-41.6
 21
8.0
 31
0.0
  0
LINE
  8
STANDARD
 62
     7
  5
E1
 10
-41.1
 20
7.6
 30
0.0
 11
-41.0
 21
7.4
 31
0.0
  0
LINE
  8
STANDARD
 62
     7
  5
E2
 10
-40.6
 20
7.2
 30
0.0
 11
-40.5
 21
7.0
 31
0.0
  0
LINE
  8
STANDARD
 62
     7
  5
E3
 10
-41.6
 20
8.0
 30
0.0
 11
-41.5
 21
7.8
 31
0.0
  0
LINE
  8
STANDARD
 62
     7
  5
E4
 10
-41.0
 20
7.4
 30
0.0
 11
-39.6
 21
7.4
 31
0.0
  0
LINE
  8
STANDARD
 62
     7
  5
E5
 10
-40.5
 20
7.0
 30
0.0
 11
-39.1
 21
7.0
 31
0.0
  0
LINE
  8
STANDARD
 62
     7
  5
E6
 10
-41.5
 20
7.8
 30
0.0
 11
-40.1
 21
7.8
 31
0.0
  0
LINE
  8
STANDARD
 62
     7
  5
E7
 10
-39.6
 20
7.4
 30
0.0
 11
-39.5
 21
7.6
 31
0.0
  0
LINE
  8
STANDARD
 62
     7
  5
E8
 10
-39.1
 20
7.0
 30
0.0
 11
-39.0
 21
7.2
 31
0.0
  0
LINE
  8
STANDARD
 62
     7
  5
E9
 10
-40.1
 20
7.8
 30
0.0
 11
-40.0
 21
8.0
 31
0.0
  0
LINE
  8
STANDARD
 62
     7
  5
EA
 10
-39.5
 20
7.6
 30
0.0
 11
-38.6
 21
7.6
 31
0.0
  0
LINE
  8
STANDARD
 62
     7
  5
EB
 10
-39.0
 20
7.2
 30
0.0
 11
-38.1
 21
7.2
 31
0.0
  0
LINE
  8
STANDARD
 62
     7
  5
EC
 10
-40.0
 20
8.0
 30
0.0
 11
-39.1
 21
8.0
 31
0.0
  0
LINE
  8
STANDARD
 62
     7
  5
ED
 10
-38.6
 20
7.6
 30
0.0
 11
-38.5
 21
7.4
 31
0.0
  0
LINE
  8
STANDARD
 62
     7
  5
EE
 10
-38.1
 20
7.2
 30
0.0
 11
-38.0
 21
7.0
 31
0.0
  0
LINE
  8
STANDARD
 62
     7
  5
EF
 10
-39.1
 20
8.0
 30
0.0
 11
-39.0
 21
7.8
 31
0.0
  0
LINE
  8
STANDARD
 62
     7
  5
F0
 10
-38.5
 20
7.4
 30
0.0
 11
-37.6
 21
7.4
 31
0.0
  0
LINE
  8
STANDARD
 62
     7
  5
F1
 10
-38.0
 20
7.0
 30
0.0
 11
-37.6
 21
7.0
 31
0.0
  0
LINE
  8
STANDARD
 62
     7
  5
F2
 10
-39.0
 20
7.8
 30
0.0
 11
-37.6
 21
7.8
 31
0.0
  0
LINE
  8
STANDARD
 62
     7
  5
F3
 10
-43.0
 20
3.6
 30
0.0
 11
-42.1
 21
3.6
 31
0.0
  0
LINE
  8
STANDARD
 62
     7
  5
F4
 10
-43.0
 20
6.2
 30
0.0
 11
-42.1
 21
6.2
 31
0.0
  0
LINE
  8
STANDARD
 62
     7
  5
F5
 10
-42.1
 20
3.6
 30
0.0
 11
-42.0
 21
3.4
 31
0.0
  0
LINE
  8
STANDARD
 62
     7
  5
F6
 10
-42.1
 20
6.2
 30
0.0
 11
-42.0
 21
6.0
 31
0.0
  0
LINE
  8
STANDARD
 62
     7
  5
F7
 10
-42.0
 20
3.4
 30
0.0
 11
-39.6
 21
3.4
 31
0.0
  0
LINE
  8
STANDARD
 62
     7
  5
F8
 10
-42.0
 20
6.0
 30
0.0
 11
-38.6
 21
6.0
 31
0.0
  0
LINE
  8
STANDARD
 62
     7
  5
F9
 10
-39.6
 20
3.4
 30
0.0
 11
-39.5
 21
3.6
 31
0.0
  0
LINE
  8
STANDARD
 62
     7
  5
FA
 10
-38.6
 20
6.0
 30
0.0
 11
-38.5
 21
6.2
 31
0.0
  0
LINE
  8
STANDARD
 62
     7
  5
FB
 10
-39.5
 20
3.6
 30
0.0
 11
-37.6
 21
3.6
 31
0.0
  0
LINE
  8
STANDARD
 62
     7
  5
FC
 10
-38.5
 20
6.2
 30
0.0
 11
-37.6
 21
6.2
 31
0.0
  0
LINE
  8
STANDARD
 62
     7
  5
FD
 10
-43.0
 20
2.6
 30
0.0
 11
-42.6
 21
2.6
 31
0.0
  0
LINE
  8
STANDARD
 62
     7
  5
FE
 10
-43.0
 20
5.2
 30
0.0
 11
-41.6
 21
5.2
 31
0.0
  0
LINE
  8
STANDARD
 62
     7
  5
FF
 10
-43.0
 20
2.2
 30
0.0
 11
-41.6
 21
2.2
 31
0.0
  0
LINE
  8
STANDARD
 62
     7
  5
100
 10
-43.0
 20
4.8
 30
0.0
 11
-40.6
 21
4.8
 31
0.0
  0
LINE
  8
STANDARD
 62
     7
  5
101
 10
-43.0
 20
1.8
 30
0.0
 11
-40.6
 21
1.8
 31
0.0
  0
LINE
  8
STANDARD
 62
     7
  5
102
 10
-43.0
 20
4.4
 30
0.0
 11
-39.6
 21
4.4
 31
0.0
  0
LINE
  8
STANDARD
 62
     7
  5
103
 10
-43.0
 20
5.6
 30
0.0
 11
-42.6
 21
5.6
 31
0.0
  0
LINE
  8
STANDARD
 62
     7
  5
104
 10
-42.6
 20
2.6
 30
0.0
 11
-42.5
 21
2.8
 31
0.0
  0
LINE
  8
STANDARD
 62
     7
  5
105
 10
-41.6
 20
5.2
 30
0.0
 11
-41.5
 21
5.4
 31
0.0
  0
LINE
  8
STANDARD
 62
     7
  5
106
 10
-41.6
 20
2.2
 30
0.0
 11
-41.5
 21
2.4
 31
0.0
  0
LINE
  8
STANDARD
 62
     7
  5
107
 10
-40.6
 20
4.8
 30
0.0
 11
-40.5
 21
5.0
 31
0.0
  0
LINE
  8
STANDARD
 62
     7
  5
108
 10
-40.6
 20
1.8
 30
0.0
 11
-40.5
 21
2.0
 31
0.0
  0
LINE
  8
STANDARD
 62
     7
  5
109
 10
-39.6
 20
4.4
 30
0.0
 11
-39.5
 21
4.6
 31
0.0
  0
LINE
  8
STANDARD
 62
     7
  5
10A
 10
-42.6
 20
5.6
 30
0.0
 11
-42.5
 21
5.8
 31
0.0
  0
LINE
  8
STANDARD
 62
     7
  5
10B
 10
-42.5
 20
2.8
 30
0.0
 11
-40.1
 21
2.8
 31
0.0
  0
LINE
  8
STANDARD
 62
     7
  5
10C
 10
-41.5
 20
5.4
 30
0.0
 11
-40.1
 21
5.4
 31
0.0
  0
LINE
  8
STANDARD
 62
     7
  5
10D
 10
-41.5
 20
2.4
 30
0.0
 11
-39.1
 21
2.4
 31
0.0
  0
LINE
  8
STANDARD
 62
     7
  5
10E
 10
-40.5
 20
5.0
 30
0.0
 11
-39.1
 21
5.0
 31
0.0
  0
LINE
  8
STANDARD
 62
     7
  5
10F
 10
-40.5
 20
2.0
 30
0.0
 11
-38.1
 21
2.0
 31
0.0
  0
LINE
  8
STANDARD
 62
     7
  5
110
 10
-39.5
 20
4.6
 30
0.0
 11
-38.1
 21
4.6
 31
0.0
  0
LINE
  8
STANDARD
 62
     7
  5
111
 10
-43.0
 20
3.2
 30
0.0
 11
-41.1
 21
3.2
 31
0.0
  0
LINE
  8
STANDARD
 62
     7
  5
112
 10
-42.5
 20
5.8
 30
0.0
 11
-41.1
 21
5.8
 31
0.0
  0
LINE
  8
STANDARD
 62
     7
  5
113
 10
-40.1
 20
2.8
 30
0.0
 11
-40.0
 21
2.6
 31
0.0
  0
LINE
  8
STANDARD
 62
     7
  5
114
 10
-40.1
 20
5.4
 30
0.0
 11
-40.0
 21
5.2
 31
0.0
  0
LINE
  8
STANDARD
 62
     7
  5
115
 10
-39.1
 20
2.4
 30
0.0
 11
-39.0
 21
2.2
 31
0.0
  0
LINE
  8
STANDARD
 62
     7
  5
116
 10
-39.1
 20
5.0
 30
0.0
 11
-39.0
 21
4.8
 31
0.0
  0
LINE
  8
STANDARD
 62
     7
  5
117
 10
-38.1
 20
2.0
 30
0.0
 11
-38.0
 21
1.8
 31
0.0
  0
LINE
  8
STANDARD
 62
     7
  5
118
 10
-38.1
 20
4.6
 30
0.0
 11
-38.0
 21
4.4
 31
0.0
  0
LINE
  8
STANDARD
 62
     7
  5
119
 10
-41.1
 20
3.2
 30
0.0
 11
-41.0
 21
3.0
 31
0.0
  0
LINE
  8
STANDARD
 62
     7
  5
11A
 10
-41.1
 20
5.8
 30
0.0
 11
-41.0
 21
5.6
 31
0.0
  0
LINE
  8
STANDARD
 62
     7
  5
11B
 10
-40.0
 20
2.6
 30
0.0
 11
-37.6
 21
2.6
 31
0.0
  0
LINE
  8
STANDARD
 62
     7
  5
11C
 10
-40.0
 20
5.2
 30
0.0
 11
-37.6
 21
5.2
 31
0.0
  0
LINE
  8
STANDARD
 62
     7
  5
11D
 10
-39.0
 20
2.2
 30
0.0
 11
-37.6
 21
2.2
 31
0.0
  0
LINE
  8
STANDARD
 62
     7
  5
11E
 10
-39.0
 20
4.8
 30
0.0
 11
-37.6
 21
4.8
 31
0.0
  0
LINE
  8
STANDARD
 62
     7
  5
11F
 10
-38.0
 20
1.8
 30
0.0
 11
-37.6
 21
1.8
 31
0.0
  0
LINE
  8
STANDARD
 62
     7
  5
120
 10
-38.0
 20
4.4
 30
0.0
 11
-37.6
 21
4.4
 31
0.0
  0
LINE
  8
STANDARD
 62
     7
  5
121
 10
-41.0
 20
3.0
 30
0.0
 11
-38.6
 21
3.0
 31
0.0
  0
LINE
  8
STANDARD
 62
     7
  5
122
 10
-41.0
 20
5.6
 30
0.0
 11
-37.6
 21
5.6
 31
0.0
  0
LINE
  8
STANDARD
 62
     7
  5
123
 10
-38.6
 20
3.0
 30
0.0
 11
-38.5
 21
3.2
 31
0.0
  0
LINE
  8
STANDARD
 62
     7
  5
124
 10
-38.5
 20
3.2
 30
0.0
 11
-37.6
 21
3.2
 31
0.0
  0
ENDSEC
  0
EOF
