  0
SECTION
  2
HEADER
  9
$ACADVER
  1
AC1009
  9
$INSBASE
 10
0.0
 20
0.0
 30
0.0
  9
$EXTMIN
 10
-20.055
 20
-1.69
 30
0.0
  9
$EXTMAX
 10
-8.945
 20
16.49
 30
0.0
  9
$LIMMIN
 10
0.0
 20
0.0
  9
$LIMMAX
 10
0.0
 20
0.0
  9
$ORTHOMODE
 70
     0
  9
$REGENMODE
 70
     1
  9
$FILLMODE
 70
     1
  9
$QTEXTMODE
 70
     0
  9
$MIRRTEXT
 70
     1
  9
$DRAGMODE
 70
     2
  9
$LTSCALE
 40
1.0
  9
$OSMODE
 70
     0
  9
$ATTMODE
 70
     1
  9
$TEXTSIZE
 40
0.2
  9
$TRACEWID
 40
0.05
  9
$TEXTSTYLE
  7
STANDARD
  9
$CLAYER
  8
0
  9
$CELTYPE
  6
CONTINUOUS
  9
$CECOLOR
 62
   256
  9
$DIMSCALE
 40
1.0
  9
$DIMASZ
 40
0.18
  9
$DIMEXO
 40
0.0625
  9
$DIMDLI
 40
0.38
  9
$DIMRND
 40
0.0
  9
$DIMDLE
 40
0.0
  9
$DIMEXE
 40
0.18
  9
$DIMTP
 40
0.0
  9
$DIMTM
 40
0.0
  9
$DIMTXT
 40
0.18
  9
$DIMCEN
 40
0.09
  9
$DIMTSZ
 40
0.0
  9
$DIMTOL
 70
     0
  9
$DIMLIM
 70
     0
  9
$DIMTIH
 70
     1
  9
$DIMTOH
 70
     1
  9
$DIMSE1
 70
     0
  9
$DIMSE2
 70
     0
  9
$DIMTAD
 70
     0
  9
$DIMZIN
 70
     0
  9
$DIMBLK
  1

  9
$DIMASO
 70
     1
  9
$DIMSHO
 70
     1
  9
$DIMPOST
  1

  9
$DIMAPOST
  1

  9
$DIMALT
 70
     0
  9
$DIMALTD
 70
     2
  9
$DIMALTF
 40
25.4
  9
$DIMLFAC
 40
1.0
  9
$DIMTOFL
 70
     0
  9
$DIMTVP
 40
0.0
  9
$DIMTIX
 70
     0
  9
$DIMSOXD
 70
     0
  9
$DIMSAH
 70
     0
  9
$DIMBLK1
  1

  9
$DIMBLK2
  1

  9
$DIMSTYLE
  2
STANDARD
  9
$DIMCLRD
 70
     0
  9
$DIMCLRE
 70
     0
  9
$DIMCLRT
 70
     0
  9
$DIMTFAC
 40
1.0
  9
$DIMGAP
 40
0.09
  9
$LUNITS
 70
     2
  9
$LUPREC
 70
     4
  9
$AXISMODE
 70
     0
  9
$AXISUNIT
 10
0.0
 20
0.0
  9
$SKETCHINC
 40
0.1
  9
$FILLETRAD
 40
0.0
  9
$AUNITS
 70
     0
  9
$AUPREC
 70
     0
  9
$MENU
  1
acad
  9
$ELEVATION
 40
0.0
  9
$PELEVATION
 40
0.0
  9
$THICKNESS
 40
0.0
  9
$LIMCHECK
 70
     0
  9
$BLIPMODE
 70
     1
  9
$CHAMFERA
 40
0.0
  9
$CHAMFERB
 40
0.0
  9
$SKPOLY
 70
     0
  9
$TDCREATE
 40
0.000000000
  9
$TDUPDATE
 40
0.000000000
  9
$TDINDWG
 40
0.0000000000
  9
$TDUSRTIMER
 40
0.0000000000
  9
$USRTIMER
 70
     1
  9
$ANGBASE
 50
0.0
  9
$ANGDIR
 70
     0
  9
$PDMODE
 70
     0
  9
$PDSIZE
 40
0.0
  9
$PLINEWID
 40
0.0
  9
$COORDS
 70
     0
  9
$SPLFRAME
 70
     0
  9
$SPLINETYPE
 70
     6
  9
$SPLINESEGS
 70
     8
  9
$ATTDIA
 70
     0
  9
$ATTREQ
 70
     1
  9
$HANDLING
 70
     1
  9
$HANDSEED
  5
4E9
  9
$SURFTAB1
 70
     6
  9
$SURFTAB2
 70
     6
  9
$SURFTYPE
 70
     6
  9
$SURFU
 70
     6
  9
$SURFV
 70
     6
  9
$UCSNAME
  2

  9
$UCSORG
 10
0.0
 20
0.0
 30
0.0
  9
$UCSXDIR
 10
1.0
 20
0.0
 30
0.0
  9
$UCSYDIR
 10
0.0
 20
1.0
 30
0.0
  9
$PUCSNAME
  2

  9
$PUCSORG
 10
0.0
 20
0.0
 30
0.0
  9
$PUCSXDIR
 10
1.0
 20
0.0
 30
0.0
  9
$PUCSYDIR
 10
0.0
 20
1.0
 30
0.0
  9
$USERI1
 70
     0
  9
$USERI2
 70
     0
  9
$USERI3
 70
     0
  9
$USERI4
 70
     0
  9
$USERI5
 70
     0
  9
$USERR1
 40
0.0
  9
$USERR2
 40
0.0
  9
$USERR3
 40
0.0
  9
$USERR4
 40
0.0
  9
$USERR5
 40
0.0
  9
$WORLDVIEW
 70
     1
  9
$SHADEDGE
 70
     3
  9
$SHADEDIF
 70
    70
  9
$TILEMODE
 70
     1
  9
$MAXACTVP
 70
    16
  9
$PINSBASE
 10
0.0
 20
0.0
 30
0.0
  9
$PLIMCHECK
 70
     0
  9
$PEXTMIN
 10
1.000000E+20
 20
1.000000E+20
 30
1.000000E+20
  9
$PEXTMAX
 10
-1.000000E+20
 20
-1.000000E+20
 30
-1.000000E+20
  9
$PLIMMIN
 10
0.0
 20
0.0
  9
$PLIMMAX
 10
12.0
 20
9.0
  9
$UNITMODE
 70
     0
  9
$VISRETAIN
 70
     0
  9
$PLINEGEN
 70
     1
  9
$PSLTSCALE
 70
     0
  9
$TREEDEPTH
 70
  3020
  9
$DWGCODEPAGE
  3
dos850
  0
ENDSEC
  0
SECTION
  2
TABLES
  0
TABLE
  2
VPORT
 70
     1
  0
VPORT
  2
*ACTIVE
 70
     0
 10
0.0
 20
0.0
 11
1.0
 21
1.0
 12
6.591288
 22
4.579184
 13
0.0
 23
0.0
 14
1.0
 24
1.0
 15
0.0
 25
0.0
 16
0.0
 26
0.0
 36
1.0
 17
0.0
 27
0.0
 37
0.0
 40
9.158369
 41
0.688564
 42
50.0
 43
0.0
 44
0.0
 50
0.0
 51
0.0
 71
     0
 72
   100
 73
     1
 74
     1
 75
     0
 76
     0
 77
     0
 78
     0
  0
ENDTAB
  0
TABLE
  2
LTYPE
 70
     3
  0
LTYPE
  2
CONTINUOUS
 70
    64
  3
Solid line
 72
    65
 73
     0
 40
0.0
  0
LTYPE
  2
ORTHO_50_50
 70
    64
  3
- -
 72
    65
 73
     4
 40
0.05
 49
0.0125
 49
-0.0125
 49
-0.0125
 49
0.0125
  0
LTYPE
  2
DASH
 70
    64
  3
- -
 72
    65
 73
     4
 40
0.1
 49
0.025
 49
-0.025
 49
-0.025
 49
0.025
  0
ENDTAB
  0
TABLE
  2
LAYER
 70
     7
  0
LAYER
  2
0
 70
     0
 62
     7
  6
CONTINUOUS
  0
LAYER
  2
MERGE
 70
     0
 62
     7
  6
CONTINUOUS
  0
LAYER
  2
STANDARD
 70
     0
 62
     7
  6
CONTINUOUS
  0
LAYER
  2
PINS
 70
     0
 62
     7
  6
CONTINUOUS
  0
LAYER
  2
PARAMS
 70
     0
 62
     7
  6
CONTINUOUS
  0
LAYER
  2
OUTLINE
 70
     0
 62
     7
  6
CONTINUOUS
  0
LAYER
  2
INTERNALS
 70
     0
 62
     7
  6
CONTINUOUS
  0
ENDTAB
  0
TABLE
  2
STYLE
 70
     2
  0
STYLE
  2
STANDARD
 70
     0
 40
0.0
 41
1.0
 50
0.0
 71
     0
 42
0.0
  3
txt
  4

  0
STYLE
  2
STYLE1
 70
     0
 40
0.0
 41
1.0
 50
0.0
 71
     0
 42
0.0
  3
Arial.ttf
  4

  0
ENDTAB
  0
TABLE
  2
VIEW
 70
     0
  0
ENDTAB
  0
TABLE
  2
UCS
 70
     0
  0
ENDTAB
  0
TABLE
  2
APPID
 70
     1
  0
APPID
  2
ACAD
 70
     0
  0
ENDTAB
  0
TABLE
  2
DIMSTYLE
 70
     1
  0
DIMSTYLE
  2
STANDARD
 70
     0
  3

  4

  5

  6

  7

 40
1.0
 41
0.18
 42
0.0625
 43
0.38
 44
0.18
 45
0.0
 46
0.0
 47
0.0
 48
0.0
 71
     0
 72
     0
 73
     1
 74
     1
 75
     0
 76
     0
 77
     0
 78
     0
140
0.18
141
0.09
142
0.0
143
25.4
144
1.0
145
0.0
146
1.0
147
0.09
170
     0
171
     2
172
     0
173
     0
174
     0
175
     0
176
     0
177
     0
178
     0
  0
ENDTAB
  0
ENDSEC
  0
SECTION
  2
BLOCKS
  0
ENDSEC
  0
SECTION
  2
ENTITIES
  0
POLYLINE
  8
STANDARD
 62
     7
  5
24
 66
     1
 10
0.0
 20
0.0
 30
0.0
 70
     1
  0
VERTEX
  8
STANDARD
 62
     7
  5
25
 10
-20.0
 20
-0.7
 30
0.0
  0
VERTEX
  8
STANDARD
 62
     7
  5
26
 10
-20.0
 20
-0.5
 30
0.0
  0
VERTEX
  8
STANDARD
 62
     7
  5
27
 10
-18.7
 20
-0.5
 30
0.0
  0
VERTEX
  8
STANDARD
 62
     7
  5
28
 10
-18.6
 20
-0.6
 30
0.0
  0
VERTEX
  8
STANDARD
 62
     7
  5
29
 10
-18.7
 20
-0.7
 30
0.0
  0
VERTEX
  8
STANDARD
 62
     7
  5
2A
 10
-20.0
 20
-0.7
 30
0.0
  0
VERTEX
  8
STANDARD
 62
     7
  5
2B
 10
-20.0
 20
-0.7
 30
0.0
  0
SEQEND
  8
0
  5
2C
  0
POLYLINE
  8
STANDARD
 62
     7
  5
2D
 66
     1
 10
0.0
 20
0.0
 30
0.0
 70
     1
  0
VERTEX
  8
STANDARD
 62
     7
  5
2E
 10
-20.0
 20
5.4
 30
0.0
  0
VERTEX
  8
STANDARD
 62
     7
  5
2F
 10
-20.0
 20
5.6
 30
0.0
  0
VERTEX
  8
STANDARD
 62
     7
  5
30
 10
-18.7
 20
5.6
 30
0.0
  0
VERTEX
  8
STANDARD
 62
     7
  5
31
 10
-18.6
 20
5.5
 30
0.0
  0
VERTEX
  8
STANDARD
 62
     7
  5
32
 10
-18.7
 20
5.4
 30
0.0
  0
VERTEX
  8
STANDARD
 62
     7
  5
33
 10
-20.0
 20
5.4
 30
0.0
  0
VERTEX
  8
STANDARD
 62
     7
  5
34
 10
-20.0
 20
5.4
 30
0.0
  0
SEQEND
  8
0
  5
35
  0
POLYLINE
  8
STANDARD
 62
     7
  5
36
 66
     1
 10
0.0
 20
0.0
 30
0.0
 70
     1
  0
VERTEX
  8
STANDARD
 62
     7
  5
37
 10
-20.0
 20
11.5
 30
0.0
  0
VERTEX
  8
STANDARD
 62
     7
  5
38
 10
-20.0
 20
11.7
 30
0.0
  0
VERTEX
  8
STANDARD
 62
     7
  5
39
 10
-18.7
 20
11.7
 30
0.0
  0
VERTEX
  8
STANDARD
 62
     7
  5
3A
 10
-18.6
 20
11.6
 30
0.0
  0
VERTEX
  8
STANDARD
 62
     7
  5
3B
 10
-18.7
 20
11.5
 30
0.0
  0
VERTEX
  8
STANDARD
 62
     7
  5
3C
 10
-20.0
 20
11.5
 30
0.0
  0
VERTEX
  8
STANDARD
 62
     7
  5
3D
 10
-20.0
 20
11.5
 30
0.0
  0
SEQEND
  8
0
  5
3E
  0
TEXT
  8
STANDARD
 62
     7
  5
3F
 10
-19.62
 20
-0.65
 30
0.0
 40
0.1
  1
velocity
  7
STYLE1
 72
     1
 11
-19.4
 21
-0.6
 31
0.0
 73
     2
  0
TEXT
  8
STANDARD
 62
     7
  5
40
 10
-19.62
 20
5.45
 30
0.0
 40
0.1
  1
velocity
  7
STYLE1
 72
     1
 11
-19.4
 21
5.5
 31
0.0
 73
     2
  0
TEXT
  8
STANDARD
 62
     7
  5
41
 10
-19.62
 20
11.55
 30
0.0
 40
0.1
  1
velocity
  7
STYLE1
 72
     1
 11
-19.4
 21
11.6
 31
0.0
 73
     2
  0
POLYLINE
  8
STANDARD
 62
     7
  5
42
 66
     1
 10
0.0
 20
0.0
 30
0.0
 70
     1
  0
VERTEX
  8
STANDARD
 62
     7
  5
43
 10
-9.1
 20
3.0
 30
0.0
  0
VERTEX
  8
STANDARD
 62
     7
  5
44
 10
-9.0
 20
3.1
 30
0.0
  0
VERTEX
  8
STANDARD
 62
     7
  5
45
 10
-9.1
 20
3.2
 30
0.0
  0
VERTEX
  8
STANDARD
 62
     7
  5
46
 10
-10.4
 20
3.2
 30
0.0
  0
VERTEX
  8
STANDARD
 62
     7
  5
47
 10
-10.4
 20
3.0
 30
0.0
  0
VERTEX
  8
STANDARD
 62
     7
  5
48
 10
-9.1
 20
3.0
 30
0.0
  0
VERTEX
  8
STANDARD
 62
     7
  5
49
 10
-9.1
 20
3.0
 30
0.0
  0
SEQEND
  8
0
  5
4A
  0
POLYLINE
  8
STANDARD
 62
     7
  5
4B
 66
     1
 10
0.0
 20
0.0
 30
0.0
 70
     1
  0
VERTEX
  8
STANDARD
 62
     7
  5
4C
 10
-9.1
 20
2.1
 30
0.0
  0
VERTEX
  8
STANDARD
 62
     7
  5
4D
 10
-9.0
 20
2.2
 30
0.0
  0
VERTEX
  8
STANDARD
 62
     7
  5
4E
 10
-9.1
 20
2.3
 30
0.0
  0
VERTEX
  8
STANDARD
 62
     7
  5
4F
 10
-10.4
 20
2.3
 30
0.0
  0
VERTEX
  8
STANDARD
 62
     7
  5
50
 10
-10.4
 20
2.1
 30
0.0
  0
VERTEX
  8
STANDARD
 62
     7
  5
51
 10
-9.1
 20
2.1
 30
0.0
  0
VERTEX
  8
STANDARD
 62
     7
  5
52
 10
-9.1
 20
2.1
 30
0.0
  0
SEQEND
  8
0
  5
53
  0
POLYLINE
  8
STANDARD
 62
     7
  5
54
 66
     1
 10
0.0
 20
0.0
 30
0.0
 70
     1
  0
VERTEX
  8
STANDARD
 62
     7
  5
55
 10
-9.1
 20
2.4
 30
0.0
  0
VERTEX
  8
STANDARD
 62
     7
  5
56
 10
-9.0
 20
2.5
 30
0.0
  0
VERTEX
  8
STANDARD
 62
     7
  5
57
 10
-9.1
 20
2.6
 30
0.0
  0
VERTEX
  8
STANDARD
 62
     7
  5
58
 10
-10.4
 20
2.6
 30
0.0
  0
VERTEX
  8
STANDARD
 62
     7
  5
59
 10
-10.4
 20
2.4
 30
0.0
  0
VERTEX
  8
STANDARD
 62
     7
  5
5A
 10
-9.1
 20
2.4
 30
0.0
  0
VERTEX
  8
STANDARD
 62
     7
  5
5B
 10
-9.1
 20
2.4
 30
0.0
  0
SEQEND
  8
0
  5
5C
  0
POLYLINE
  8
STANDARD
 62
     7
  5
5D
 66
     1
 10
0.0
 20
0.0
 30
0.0
 70
     1
  0
VERTEX
  8
STANDARD
 62
     7
  5
5E
 10
-9.1
 20
8.4
 30
0.0
  0
VERTEX
  8
STANDARD
 62
     7
  5
5F
 10
-9.0
 20
8.5
 30
0.0
  0
VERTEX
  8
STANDARD
 62
     7
  5
60
 10
-9.1
 20
8.6
 30
0.0
  0
VERTEX
  8
STANDARD
 62
     7
  5
61
 10
-10.4
 20
8.6
 30
0.0
  0
VERTEX
  8
STANDARD
 62
     7
  5
62
 10
-10.4
 20
8.4
 30
0.0
  0
VERTEX
  8
STANDARD
 62
     7
  5
63
 10
-9.1
 20
8.4
 30
0.0
  0
VERTEX
  8
STANDARD
 62
     7
  5
64
 10
-9.1
 20
8.4
 30
0.0
  0
SEQEND
  8
0
  5
65
  0
POLYLINE
  8
STANDARD
 62
     7
  5
66
 66
     1
 10
0.0
 20
0.0
 30
0.0
 70
     1
  0
VERTEX
  8
STANDARD
 62
     7
  5
67
 10
-9.1
 20
13.8
 30
0.0
  0
VERTEX
  8
STANDARD
 62
     7
  5
68
 10
-9.0
 20
13.9
 30
0.0
  0
VERTEX
  8
STANDARD
 62
     7
  5
69
 10
-9.1
 20
14.0
 30
0.0
  0
VERTEX
  8
STANDARD
 62
     7
  5
6A
 10
-10.4
 20
14.0
 30
0.0
  0
VERTEX
  8
STANDARD
 62
     7
  5
6B
 10
-10.4
 20
13.8
 30
0.0
  0
VERTEX
  8
STANDARD
 62
     7
  5
6C
 10
-9.1
 20
13.8
 30
0.0
  0
VERTEX
  8
STANDARD
 62
     7
  5
6D
 10
-9.1
 20
13.8
 30
0.0
  0
SEQEND
  8
0
  5
6E
  0
POLYLINE
  8
STANDARD
 62
     7
  5
6F
 66
     1
 10
0.0
 20
0.0
 30
0.0
 70
     1
  0
VERTEX
  8
STANDARD
 62
     7
  5
70
 10
-9.1
 20
3.3
 30
0.0
  0
VERTEX
  8
STANDARD
 62
     7
  5
71
 10
-9.0
 20
3.4
 30
0.0
  0
VERTEX
  8
STANDARD
 62
     7
  5
72
 10
-9.1
 20
3.5
 30
0.0
  0
VERTEX
  8
STANDARD
 62
     7
  5
73
 10
-10.4
 20
3.5
 30
0.0
  0
VERTEX
  8
STANDARD
 62
     7
  5
74
 10
-10.4
 20
3.3
 30
0.0
  0
VERTEX
  8
STANDARD
 62
     7
  5
75
 10
-9.1
 20
3.3
 30
0.0
  0
VERTEX
  8
STANDARD
 62
     7
  5
76
 10
-9.1
 20
3.3
 30
0.0
  0
SEQEND
  8
0
  5
77
  0
POLYLINE
  8
STANDARD
 62
     7
  5
78
 66
     1
 10
0.0
 20
0.0
 30
0.0
 70
     1
  0
VERTEX
  8
STANDARD
 62
     7
  5
79
 10
-9.1
 20
2.7
 30
0.0
  0
VERTEX
  8
STANDARD
 62
     7
  5
7A
 10
-9.0
 20
2.8
 30
0.0
  0
VERTEX
  8
STANDARD
 62
     7
  5
7B
 10
-9.1
 20
2.9
 30
0.0
  0
VERTEX
  8
STANDARD
 62
     7
  5
7C
 10
-10.4
 20
2.9
 30
0.0
  0
VERTEX
  8
STANDARD
 62
     7
  5
7D
 10
-10.4
 20
2.7
 30
0.0
  0
VERTEX
  8
STANDARD
 62
     7
  5
7E
 10
-9.1
 20
2.7
 30
0.0
  0
VERTEX
  8
STANDARD
 62
     7
  5
7F
 10
-9.1
 20
2.7
 30
0.0
  0
SEQEND
  8
0
  5
80
  0
POLYLINE
  8
STANDARD
 62
     7
  5
81
 66
     1
 10
0.0
 20
0.0
 30
0.0
 70
     1
  0
VERTEX
  8
STANDARD
 62
     7
  5
82
 10
-9.1
 20
8.9
 30
0.0
  0
VERTEX
  8
STANDARD
 62
     7
  5
83
 10
-9.0
 20
9.0
 30
0.0
  0
VERTEX
  8
STANDARD
 62
     7
  5
84
 10
-9.1
 20
9.1
 30
0.0
  0
VERTEX
  8
STANDARD
 62
     7
  5
85
 10
-10.4
 20
9.1
 30
0.0
  0
VERTEX
  8
STANDARD
 62
     7
  5
86
 10
-10.4
 20
8.9
 30
0.0
  0
VERTEX
  8
STANDARD
 62
     7
  5
87
 10
-9.1
 20
8.9
 30
0.0
  0
VERTEX
  8
STANDARD
 62
     7
  5
88
 10
-9.1
 20
8.9
 30
0.0
  0
SEQEND
  8
0
  5
89
  0
POLYLINE
  8
STANDARD
 62
     7
  5
8A
 66
     1
 10
0.0
 20
0.0
 30
0.0
 70
     1
  0
VERTEX
  8
STANDARD
 62
     7
  5
8B
 10
-9.1
 20
14.4
 30
0.0
  0
VERTEX
  8
STANDARD
 62
     7
  5
8C
 10
-9.0
 20
14.5
 30
0.0
  0
VERTEX
  8
STANDARD
 62
     7
  5
8D
 10
-9.1
 20
14.6
 30
0.0
  0
VERTEX
  8
STANDARD
 62
     7
  5
8E
 10
-10.4
 20
14.6
 30
0.0
  0
VERTEX
  8
STANDARD
 62
     7
  5
8F
 10
-10.4
 20
14.4
 30
0.0
  0
VERTEX
  8
STANDARD
 62
     7
  5
90
 10
-9.1
 20
14.4
 30
0.0
  0
VERTEX
  8
STANDARD
 62
     7
  5
91
 10
-9.1
 20
14.4
 30
0.0
  0
SEQEND
  8
0
  5
92
  0
POLYLINE
  8
STANDARD
 62
     7
  5
93
 66
     1
 10
0.0
 20
0.0
 30
0.0
 70
     1
  0
VERTEX
  8
STANDARD
 62
     7
  5
94
 10
-19.9
 20
1.9
 30
0.0
  0
VERTEX
  8
STANDARD
 62
     7
  5
95
 10
-20.0
 20
2.0
 30
0.0
  0
VERTEX
  8
STANDARD
 62
     7
  5
96
 10
-19.9
 20
2.1
 30
0.0
  0
VERTEX
  8
STANDARD
 62
     7
  5
97
 10
-18.6
 20
2.1
 30
0.0
  0
VERTEX
  8
STANDARD
 62
     7
  5
98
 10
-18.6
 20
1.9
 30
0.0
  0
VERTEX
  8
STANDARD
 62
     7
  5
99
 10
-19.9
 20
1.9
 30
0.0
  0
VERTEX
  8
STANDARD
 62
     7
  5
9A
 10
-19.9
 20
1.9
 30
0.0
  0
SEQEND
  8
0
  5
9B
  0
POLYLINE
  8
STANDARD
 62
     7
  5
9C
 66
     1
 10
0.0
 20
0.0
 30
0.0
 70
     1
  0
VERTEX
  8
STANDARD
 62
     7
  5
9D
 10
-19.9
 20
8.0
 30
0.0
  0
VERTEX
  8
STANDARD
 62
     7
  5
9E
 10
-20.0
 20
8.1
 30
0.0
  0
VERTEX
  8
STANDARD
 62
     7
  5
9F
 10
-19.9
 20
8.2
 30
0.0
  0
VERTEX
  8
STANDARD
 62
     7
  5
A0
 10
-18.6
 20
8.2
 30
0.0
  0
VERTEX
  8
STANDARD
 62
     7
  5
A1
 10
-18.6
 20
8.0
 30
0.0
  0
VERTEX
  8
STANDARD
 62
     7
  5
A2
 10
-19.9
 20
8.0
 30
0.0
  0
VERTEX
  8
STANDARD
 62
     7
  5
A3
 10
-19.9
 20
8.0
 30
0.0
  0
SEQEND
  8
0
  5
A4
  0
POLYLINE
  8
STANDARD
 62
     7
  5
A5
 66
     1
 10
0.0
 20
0.0
 30
0.0
 70
     1
  0
VERTEX
  8
STANDARD
 62
     7
  5
A6
 10
-19.9
 20
14.1
 30
0.0
  0
VERTEX
  8
STANDARD
 62
     7
  5
A7
 10
-20.0
 20
14.2
 30
0.0
  0
VERTEX
  8
STANDARD
 62
     7
  5
A8
 10
-19.9
 20
14.3
 30
0.0
  0
VERTEX
  8
STANDARD
 62
     7
  5
A9
 10
-18.6
 20
14.3
 30
0.0
  0
VERTEX
  8
STANDARD
 62
     7
  5
AA
 10
-18.6
 20
14.1
 30
0.0
  0
VERTEX
  8
STANDARD
 62
     7
  5
AB
 10
-19.9
 20
14.1
 30
0.0
  0
VERTEX
  8
STANDARD
 62
     7
  5
AC
 10
-19.9
 20
14.1
 30
0.0
  0
SEQEND
  8
0
  5
AD
  0
POLYLINE
  8
STANDARD
 62
     7
  5
AE
 66
     1
 10
0.0
 20
0.0
 30
0.0
 70
     1
  0
VERTEX
  8
STANDARD
 62
     7
  5
AF
 10
-19.9
 20
2.9
 30
0.0
  0
VERTEX
  8
STANDARD
 62
     7
  5
B0
 10
-20.0
 20
3.0
 30
0.0
  0
VERTEX
  8
STANDARD
 62
     7
  5
B1
 10
-19.9
 20
3.1
 30
0.0
  0
VERTEX
  8
STANDARD
 62
     7
  5
B2
 10
-18.6
 20
3.1
 30
0.0
  0
VERTEX
  8
STANDARD
 62
     7
  5
B3
 10
-18.6
 20
2.9
 30
0.0
  0
VERTEX
  8
STANDARD
 62
     7
  5
B4
 10
-19.9
 20
2.9
 30
0.0
  0
VERTEX
  8
STANDARD
 62
     7
  5
B5
 10
-19.9
 20
2.9
 30
0.0
  0
SEQEND
  8
0
  5
B6
  0
POLYLINE
  8
STANDARD
 62
     7
  5
B7
 66
     1
 10
0.0
 20
0.0
 30
0.0
 70
     1
  0
VERTEX
  8
STANDARD
 62
     7
  5
B8
 10
-19.9
 20
9.0
 30
0.0
  0
VERTEX
  8
STANDARD
 62
     7
  5
B9
 10
-20.0
 20
9.1
 30
0.0
  0
VERTEX
  8
STANDARD
 62
     7
  5
BA
 10
-19.9
 20
9.2
 30
0.0
  0
VERTEX
  8
STANDARD
 62
     7
  5
BB
 10
-18.6
 20
9.2
 30
0.0
  0
VERTEX
  8
STANDARD
 62
     7
  5
BC
 10
-18.6
 20
9.0
 30
0.0
  0
VERTEX
  8
STANDARD
 62
     7
  5
BD
 10
-19.9
 20
9.0
 30
0.0
  0
VERTEX
  8
STANDARD
 62
     7
  5
BE
 10
-19.9
 20
9.0
 30
0.0
  0
SEQEND
  8
0
  5
BF
  0
POLYLINE
  8
STANDARD
 62
     7
  5
C0
 66
     1
 10
0.0
 20
0.0
 30
0.0
 70
     1
  0
VERTEX
  8
STANDARD
 62
     7
  5
C1
 10
-19.9
 20
15.1
 30
0.0
  0
VERTEX
  8
STANDARD
 62
     7
  5
C2
 10
-20.0
 20
15.2
 30
0.0
  0
VERTEX
  8
STANDARD
 62
     7
  5
C3
 10
-19.9
 20
15.3
 30
0.0
  0
VERTEX
  8
STANDARD
 62
     7
  5
C4
 10
-18.6
 20
15.3
 30
0.0
  0
VERTEX
  8
STANDARD
 62
     7
  5
C5
 10
-18.6
 20
15.1
 30
0.0
  0
VERTEX
  8
STANDARD
 62
     7
  5
C6
 10
-19.9
 20
15.1
 30
0.0
  0
VERTEX
  8
STANDARD
 62
     7
  5
C7
 10
-19.9
 20
15.1
 30
0.0
  0
SEQEND
  8
0
  5
C8
  0
TEXT
  8
STANDARD
 62
     7
  5
C9
 10
-9.8925
 20
3.05
 30
0.0
 40
0.1
  1
phase-B
  7
STYLE1
 72
     1
 11
-9.7
 21
3.1
 31
0.0
 73
     2
  0
TEXT
  8
STANDARD
 62
     7
  5
CA
 10
-9.8925
 20
2.15
 30
0.0
 40
0.1
  1
phase-E
  7
STYLE1
 72
     1
 11
-9.7
 21
2.2
 31
0.0
 73
     2
  0
TEXT
  8
STANDARD
 62
     7
  5
CB
 10
-9.8925
 20
2.45
 30
0.0
 40
0.1
  1
phase-D
  7
STYLE1
 72
     1
 11
-9.7
 21
2.5
 31
0.0
 73
     2
  0
TEXT
  8
STANDARD
 62
     7
  5
CC
 10
-9.81
 20
8.45
 30
0.0
 40
0.1
  1
down
  7
STYLE1
 72
     1
 11
-9.7
 21
8.5
 31
0.0
 73
     2
  0
TEXT
  8
STANDARD
 62
     7
  5
CD
 10
-9.81
 20
13.85
 30
0.0
 40
0.1
  1
step
  7
STYLE1
 72
     1
 11
-9.7
 21
13.9
 31
0.0
 73
     2
  0
TEXT
  8
STANDARD
 62
     7
  5
CE
 10
-9.8925
 20
3.35
 30
0.0
 40
0.1
  1
phase-A
  7
STYLE1
 72
     1
 11
-9.7
 21
3.4
 31
0.0
 73
     2
  0
TEXT
  8
STANDARD
 62
     7
  5
CF
 10
-9.8925
 20
2.75
 30
0.0
 40
0.1
  1
phase-C
  7
STYLE1
 72
     1
 11
-9.7
 21
2.8
 31
0.0
 73
     2
  0
TEXT
  8
STANDARD
 62
     7
  5
D0
 10
-9.755
 20
8.95
 30
0.0
 40
0.1
  1
up
  7
STYLE1
 72
     1
 11
-9.7
 21
9.0
 31
0.0
 73
     2
  0
TEXT
  8
STANDARD
 62
     7
  5
D1
 10
-9.7825
 20
14.45
 30
0.0
 40
0.1
  1
dir
  7
STYLE1
 72
     1
 11
-9.7
 21
14.5
 31
0.0
 73
     2
  0
TEXT
  8
STANDARD
 62
     7
  5
D2
 10
-19.465
 20
1.95
 30
0.0
 40
0.1
  1
counts
  7
STYLE1
 72
     1
 11
-19.3
 21
2.0
 31
0.0
 73
     2
  0
TEXT
  8
STANDARD
 62
     7
  5
D3
 10
-19.465
 20
8.05
 30
0.0
 40
0.1
  1
counts
  7
STYLE1
 72
     1
 11
-19.3
 21
8.1
 31
0.0
 73
     2
  0
TEXT
  8
STANDARD
 62
     7
  5
D4
 10
-19.465
 20
14.15
 30
0.0
 40
0.1
  1
counts
  7
STYLE1
 72
     1
 11
-19.3
 21
14.2
 31
0.0
 73
     2
  0
TEXT
  8
STANDARD
 62
     7
  5
D5
 10
-19.52
 20
2.95
 30
0.0
 40
0.1
  1
position
  7
STYLE1
 72
     1
 11
-19.3
 21
3.0
 31
0.0
 73
     2
  0
TEXT
  8
STANDARD
 62
     7
  5
D6
 10
-19.52
 20
9.05
 30
0.0
 40
0.1
  1
position
  7
STYLE1
 72
     1
 11
-19.3
 21
9.1
 31
0.0
 73
     2
  0
TEXT
  8
STANDARD
 62
     7
  5
D7
 10
-19.52
 20
15.15
 30
0.0
 40
0.1
  1
position
  7
STYLE1
 72
     1
 11
-19.3
 21
15.2
 31
0.0
 73
     2
  0
CIRCLE
  8
INTERNALS
 62
     7
  5
D8
 10
-11.325
 20
9.1
 30
0.0
 40
0.025
  0
POLYLINE
  8
INTERNALS
 62
     7
  5
D9
 66
     1
 10
0.0
 20
0.0
 30
0.0
 70
     1
  0
VERTEX
  8
INTERNALS
 62
     7
  5
DA
 10
-11.35
 20
9.1
 30
0.0
  0
VERTEX
  8
INTERNALS
 62
     7
  5
DB
 10
-11.6
 20
9.25
 30
0.0
  0
VERTEX
  8
INTERNALS
 62
     7
  5
DC
 10
-11.6
 20
8.95
 30
0.0
  0
VERTEX
  8
INTERNALS
 62
     7
  5
DD
 10
-11.35
 20
9.1
 30
0.0
  0
VERTEX
  8
INTERNALS
 62
     7
  5
DE
 10
-11.35
 20
9.1
 30
0.0
  0
SEQEND
  8
0
  5
DF
  0
TEXT
  8
PARAMS
 62
     7
  5
E0
 10
-18.3925
 20
0.15
 30
0.0
 40
0.1
  1
maxfreq
  7
STYLE1
 72
     1
 11
-18.2
 21
0.2
 31
0.0
 73
     2
  0
TEXT
  8
PARAMS
 62
     7
  5
E1
 10
-18.3925
 20
6.25
 30
0.0
 40
0.1
  1
maxfreq
  7
STYLE1
 72
     1
 11
-18.2
 21
6.3
 31
0.0
 73
     2
  0
TEXT
  8
PARAMS
 62
     7
  5
E2
 10
-18.3925
 20
12.35
 30
0.0
 40
0.1
  1
maxfreq
  7
STYLE1
 72
     1
 11
-18.2
 21
12.4
 31
0.0
 73
     2
  0
TEXT
  8
PARAMS
 62
     7
  5
E3
 10
-13.5475
 20
-0.075
 30
0.0
 40
0.1
  1
frequency
  7
STYLE1
 72
     1
 11
-13.3
 21
-0.025
 31
0.0
 73
     2
  0
TEXT
  8
PARAMS
 62
     7
  5
E4
 10
-13.5475
 20
-0.225
 30
0.0
 40
0.1
  1
generator
  7
STYLE1
 72
     1
 11
-13.3
 21
-0.175
 31
0.0
 73
     2
  0
TEXT
  8
PARAMS
 62
     7
  5
E5
 10
-13.5475
 20
6.025
 30
0.0
 40
0.1
  1
frequency
  7
STYLE1
 72
     1
 11
-13.3
 21
6.075
 31
0.0
 73
     2
  0
TEXT
  8
PARAMS
 62
     7
  5
E6
 10
-13.5475
 20
5.875
 30
0.0
 40
0.1
  1
generator
  7
STYLE1
 72
     1
 11
-13.3
 21
5.925
 31
0.0
 73
     2
  0
TEXT
  8
PARAMS
 62
     7
  5
E7
 10
-13.5475
 20
12.125
 30
0.0
 40
0.1
  1
frequency
  7
STYLE1
 72
     1
 11
-13.3
 21
12.175
 31
0.0
 73
     2
  0
TEXT
  8
PARAMS
 62
     7
  5
E8
 10
-13.5475
 20
11.975
 30
0.0
 40
0.1
  1
generator
  7
STYLE1
 72
     1
 11
-13.3
 21
12.025
 31
0.0
 73
     2
  0
TEXT
  8
PARAMS
 62
     7
  5
E9
 10
-12.6375
 20
2.825
 30
0.0
 40
0.1
  1
state
  7
STYLE1
 72
     1
 11
-12.5
 21
2.875
 31
0.0
 73
     2
  0
TEXT
  8
PARAMS
 62
     7
  5
EA
 10
-12.6925
 20
2.675
 30
0.0
 40
0.1
  1
counter
  7
STYLE1
 72
     1
 11
-12.5
 21
2.725
 31
0.0
 73
     2
  0
TEXT
  8
PARAMS
 62
     7
  5
EB
 10
-11.765
 20
2.825
 30
0.0
 40
0.1
  1
lookup
  7
STYLE1
 72
     1
 11
-11.6
 21
2.875
 31
0.0
 73
     2
  0
TEXT
  8
PARAMS
 62
     7
  5
EC
 10
-11.7375
 20
2.675
 30
0.0
 40
0.1
  1
table
  7
STYLE1
 72
     1
 11
-11.6
 21
2.725
 31
0.0
 73
     2
  0
TEXT
  8
PARAMS
 62
     7
  5
ED
 10
-14.51
 20
-0.65
 30
0.0
 40
0.1
  1
ramp
  7
STYLE1
 72
     1
 11
-14.4
 21
-0.6
 31
0.0
 73
     2
  0
TEXT
  8
PARAMS
 62
     7
  5
EE
 10
-14.51
 20
5.45
 30
0.0
 40
0.1
  1
ramp
  7
STYLE1
 72
     1
 11
-14.4
 21
5.5
 31
0.0
 73
     2
  0
TEXT
  8
PARAMS
 62
     7
  5
EF
 10
-14.51
 20
11.55
 30
0.0
 40
0.1
  1
ramp
  7
STYLE1
 72
     1
 11
-14.4
 21
11.6
 31
0.0
 73
     2
  0
TEXT
  8
PARAMS
 62
     7
  5
F0
 10
-16.7375
 20
1.95
 30
0.0
 40
0.1
  1
latch
  7
STYLE1
 72
     1
 11
-16.6
 21
2.0
 31
0.0
 73
     2
  0
TEXT
  8
PARAMS
 62
     7
  5
F1
 10
-16.7375
 20
8.05
 30
0.0
 40
0.1
  1
latch
  7
STYLE1
 72
     1
 11
-16.6
 21
8.1
 31
0.0
 73
     2
  0
TEXT
  8
PARAMS
 62
     7
  5
F2
 10
-16.7375
 20
14.15
 30
0.0
 40
0.1
  1
latch
  7
STYLE1
 72
     1
 11
-16.6
 21
14.2
 31
0.0
 73
     2
  0
TEXT
  8
PARAMS
 62
     7
  5
F3
 10
-13.9925
 20
2.35
 30
0.0
 40
0.1
  1
counter
  7
STYLE1
 72
     1
 11
-13.8
 21
2.4
 31
0.0
 73
     2
  0
TEXT
  8
PARAMS
 62
     7
  5
F4
 10
-13.9925
 20
8.45
 30
0.0
 40
0.1
  1
counter
  7
STYLE1
 72
     1
 11
-13.8
 21
8.5
 31
0.0
 73
     2
  0
TEXT
  8
PARAMS
 62
     7
  5
F5
 10
-13.9925
 20
14.55
 30
0.0
 40
0.1
  1
counter
  7
STYLE1
 72
     1
 11
-13.8
 21
14.6
 31
0.0
 73
     2
  0
TEXT
  8
PARAMS
 62
     7
  5
F6
 10
-11.62
 20
12.675
 30
0.0
 40
0.1
  1
step/dir
  7
STYLE1
 72
     1
 11
-11.4
 21
12.725
 31
0.0
 73
     2
  0
TEXT
  8
PARAMS
 62
     7
  5
F7
 10
-11.5375
 20
12.525
 30
0.0
 40
0.1
  1
logic
  7
STYLE1
 72
     1
 11
-11.4
 21
12.575
 31
0.0
 73
     2
  0
TEXT
  8
PARAMS
 62
     7
  5
F8
 10
-11.4825
 20
12.375
 30
0.0
 40
0.1
  1
and
  7
STYLE1
 72
     1
 11
-11.4
 21
12.425
 31
0.0
 73
     2
  0
TEXT
  8
PARAMS
 62
     7
  5
F9
 10
-11.565
 20
12.225
 30
0.0
 40
0.1
  1
timing
  7
STYLE1
 72
     1
 11
-11.4
 21
12.275
 31
0.0
 73
     2
  0
TEXT
  8
PARAMS
 62
     7
  5
FA
 10
-15.42
 20
0.05
 30
0.0
 40
0.1
  1
maxaccel
  7
STYLE1
 72
     1
 11
-15.2
 21
0.1
 31
0.0
 73
     2
  0
TEXT
  8
PARAMS
 62
     7
  5
FB
 10
-15.42
 20
6.15
 30
0.0
 40
0.1
  1
maxaccel
  7
STYLE1
 72
     1
 11
-15.2
 21
6.2
 31
0.0
 73
     2
  0
TEXT
  8
PARAMS
 62
     7
  5
FC
 10
-15.42
 20
12.25
 30
0.0
 40
0.1
  1
maxaccel
  7
STYLE1
 72
     1
 11
-15.2
 21
12.3
 31
0.0
 73
     2
  0
TEXT
  8
PARAMS
 62
     7
  5
FD
 10
-17.4475
 20
0.45
 30
0.0
 40
0.1
  1
frequency
  7
STYLE1
 72
     1
 11
-17.2
 21
0.5
 31
0.0
 73
     2
  0
TEXT
  8
PARAMS
 62
     7
  5
FE
 10
-17.4475
 20
6.55
 30
0.0
 40
0.1
  1
frequency
  7
STYLE1
 72
     1
 11
-17.2
 21
6.6
 31
0.0
 73
     2
  0
TEXT
  8
PARAMS
 62
     7
  5
FF
 10
-17.4475
 20
12.65
 30
0.0
 40
0.1
  1
frequency
  7
STYLE1
 72
     1
 11
-17.2
 21
12.7
 31
0.0
 73
     2
  0
TEXT
  8
PARAMS
 62
     7
  5
100
 10
-13.5475
 20
13.15
 30
0.0
 40
0.1
  1
stepspace
  7
STYLE1
 72
     1
 11
-13.3
 21
13.2
 31
0.0
 73
     2
  0
TEXT
  8
PARAMS
 62
     7
  5
101
 10
-13.52
 20
12.85
 30
0.0
 40
0.1
  1
dirsetup
  7
STYLE1
 72
     1
 11
-13.3
 21
12.9
 31
0.0
 73
     2
  0
TEXT
  8
PARAMS
 62
     7
  5
102
 10
-13.4925
 20
12.55
 30
0.0
 40
0.1
  1
dirhold
  7
STYLE1
 72
     1
 11
-13.3
 21
12.6
 31
0.0
 73
     2
  0
TEXT
  8
PARAMS
 62
     7
  5
103
 10
-13.4925
 20
13.45
 30
0.0
 40
0.1
  1
steplen
  7
STYLE1
 72
     1
 11
-13.3
 21
13.5
 31
0.0
 73
     2
  0
TEXT
  8
PARAMS
 62
     7
  5
104
 10
-15.4475
 20
2.65
 30
0.0
 40
0.1
  1
rawcounts
  7
STYLE1
 72
     1
 11
-15.2
 21
2.7
 31
0.0
 73
     2
  0
TEXT
  8
PARAMS
 62
     7
  5
105
 10
-15.4475
 20
8.75
 30
0.0
 40
0.1
  1
rawcounts
  7
STYLE1
 72
     1
 11
-15.2
 21
8.8
 31
0.0
 73
     2
  0
TEXT
  8
PARAMS
 62
     7
  5
106
 10
-15.4475
 20
14.85
 30
0.0
 40
0.1
  1
rawcounts
  7
STYLE1
 72
     1
 11
-15.2
 21
14.9
 31
0.0
 73
     2
  0
TEXT
  8
PARAMS
 62
     7
  5
107
 10
-19.285
 20
-0.15
 30
0.0
 40
0.1
  1
velocity-scale
  7
STYLE1
 72
     1
 11
-18.9
 21
-0.1
 31
0.0
 73
     2
  0
TEXT
  8
PARAMS
 62
     7
  5
108
 10
-19.285
 20
5.95
 30
0.0
 40
0.1
  1
velocity-scale
  7
STYLE1
 72
     1
 11
-18.9
 21
6.0
 31
0.0
 73
     2
  0
TEXT
  8
PARAMS
 62
     7
  5
109
 10
-19.285
 20
12.05
 30
0.0
 40
0.1
  1
velocity-scale
  7
STYLE1
 72
     1
 11
-18.9
 21
12.1
 31
0.0
 73
     2
  0
TEXT
  8
PARAMS
 62
     7
  5
10A
 10
-17.685
 20
3.55
 30
0.0
 40
0.1
  1
position-scale
  7
STYLE1
 72
     1
 11
-17.3
 21
3.6
 31
0.0
 73
     2
  0
TEXT
  8
PARAMS
 62
     7
  5
10B
 10
-17.685
 20
9.65
 30
0.0
 40
0.1
  1
position-scale
  7
STYLE1
 72
     1
 11
-17.3
 21
9.7
 31
0.0
 73
     2
  0
TEXT
  8
PARAMS
 62
     7
  5
10C
 10
-17.685
 20
15.75
 30
0.0
 40
0.1
  1
position-scale
  7
STYLE1
 72
     1
 11
-17.3
 21
15.8
 31
0.0
 73
     2
  0
LINE
  8
PARAMS
 62
     7
  5
10D
 10
-18.8
 20
0.1
 30
0.0
 11
-18.8
 21
0.3
 31
0.0
  0
LINE
  8
PARAMS
 62
     7
  5
10E
 10
-18.8
 20
6.2
 30
0.0
 11
-18.8
 21
6.4
 31
0.0
  0
LINE
  8
PARAMS
 62
     7
  5
10F
 10
-18.8
 20
12.3
 30
0.0
 11
-18.8
 21
12.5
 31
0.0
  0
LINE
  8
PARAMS
 62
     7
  5
110
 10
-15.8
 20
0.0
 30
0.0
 11
-15.8
 21
0.2
 31
0.0
  0
LINE
  8
PARAMS
 62
     7
  5
111
 10
-15.8
 20
6.1
 30
0.0
 11
-15.8
 21
6.3
 31
0.0
  0
LINE
  8
PARAMS
 62
     7
  5
112
 10
-15.8
 20
12.2
 30
0.0
 11
-15.8
 21
12.4
 31
0.0
  0
LINE
  8
PARAMS
 62
     7
  5
113
 10
-17.8
 20
0.4
 30
0.0
 11
-17.8
 21
0.6
 31
0.0
  0
LINE
  8
PARAMS
 62
     7
  5
114
 10
-17.8
 20
6.5
 30
0.0
 11
-17.8
 21
6.7
 31
0.0
  0
LINE
  8
PARAMS
 62
     7
  5
115
 10
-17.8
 20
12.6
 30
0.0
 11
-17.8
 21
12.8
 31
0.0
  0
LINE
  8
PARAMS
 62
     7
  5
116
 10
-13.9
 20
13.1
 30
0.0
 11
-13.9
 21
13.3
 31
0.0
  0
LINE
  8
PARAMS
 62
     7
  5
117
 10
-13.9
 20
12.8
 30
0.0
 11
-13.9
 21
13.0
 31
0.0
  0
LINE
  8
PARAMS
 62
     7
  5
118
 10
-13.9
 20
12.5
 30
0.0
 11
-13.9
 21
12.7
 31
0.0
  0
LINE
  8
PARAMS
 62
     7
  5
119
 10
-13.9
 20
13.4
 30
0.0
 11
-13.9
 21
13.6
 31
0.0
  0
LINE
  8
PARAMS
 62
     7
  5
11A
 10
-15.8
 20
2.6
 30
0.0
 11
-15.8
 21
2.8
 31
0.0
  0
LINE
  8
PARAMS
 62
     7
  5
11B
 10
-15.8
 20
8.7
 30
0.0
 11
-15.8
 21
8.9
 31
0.0
  0
LINE
  8
PARAMS
 62
     7
  5
11C
 10
-15.8
 20
14.8
 30
0.0
 11
-15.8
 21
15.0
 31
0.0
  0
LINE
  8
PARAMS
 62
     7
  5
11D
 10
-19.5
 20
-0.2
 30
0.0
 11
-19.5
 21
0.0
 31
0.0
  0
LINE
  8
PARAMS
 62
     7
  5
11E
 10
-19.5
 20
5.9
 30
0.0
 11
-19.5
 21
6.1
 31
0.0
  0
LINE
  8
PARAMS
 62
     7
  5
11F
 10
-19.5
 20
12.0
 30
0.0
 11
-19.5
 21
12.2
 31
0.0
  0
LINE
  8
PARAMS
 62
     7
  5
120
 10
-16.7
 20
3.5
 30
0.0
 11
-16.7
 21
3.7
 31
0.0
  0
LINE
  8
PARAMS
 62
     7
  5
121
 10
-16.7
 20
9.6
 30
0.0
 11
-16.7
 21
9.8
 31
0.0
  0
LINE
  8
PARAMS
 62
     7
  5
122
 10
-16.7
 20
15.7
 30
0.0
 11
-16.7
 21
15.9
 31
0.0
  0
LINE
  8
PARAMS
 62
     7
  5
123
 10
-18.8
 20
0.3
 30
0.0
 11
-17.6
 21
0.3
 31
0.0
  0
LINE
  8
PARAMS
 62
     7
  5
124
 10
-18.8
 20
6.4
 30
0.0
 11
-17.6
 21
6.4
 31
0.0
  0
LINE
  8
PARAMS
 62
     7
  5
125
 10
-18.8
 20
12.5
 30
0.0
 11
-17.6
 21
12.5
 31
0.0
  0
LINE
  8
PARAMS
 62
     7
  5
126
 10
-15.8
 20
0.2
 30
0.0
 11
-14.6
 21
0.2
 31
0.0
  0
LINE
  8
PARAMS
 62
     7
  5
127
 10
-15.8
 20
6.3
 30
0.0
 11
-14.6
 21
6.3
 31
0.0
  0
LINE
  8
PARAMS
 62
     7
  5
128
 10
-15.8
 20
12.4
 30
0.0
 11
-14.6
 21
12.4
 31
0.0
  0
LINE
  8
PARAMS
 62
     7
  5
129
 10
-17.8
 20
0.6
 30
0.0
 11
-16.6
 21
0.6
 31
0.0
  0
LINE
  8
PARAMS
 62
     7
  5
12A
 10
-17.8
 20
6.7
 30
0.0
 11
-16.6
 21
6.7
 31
0.0
  0
LINE
  8
PARAMS
 62
     7
  5
12B
 10
-17.8
 20
12.8
 30
0.0
 11
-16.6
 21
12.8
 31
0.0
  0
LINE
  8
PARAMS
 62
     7
  5
12C
 10
-13.9
 20
13.3
 30
0.0
 11
-12.7
 21
13.3
 31
0.0
  0
LINE
  8
PARAMS
 62
     7
  5
12D
 10
-13.9
 20
13.0
 30
0.0
 11
-12.7
 21
13.0
 31
0.0
  0
LINE
  8
PARAMS
 62
     7
  5
12E
 10
-13.9
 20
12.7
 30
0.0
 11
-12.7
 21
12.7
 31
0.0
  0
LINE
  8
PARAMS
 62
     7
  5
12F
 10
-13.9
 20
13.6
 30
0.0
 11
-12.7
 21
13.6
 31
0.0
  0
LINE
  8
PARAMS
 62
     7
  5
130
 10
-15.8
 20
2.8
 30
0.0
 11
-14.6
 21
2.8
 31
0.0
  0
LINE
  8
PARAMS
 62
     7
  5
131
 10
-15.8
 20
8.9
 30
0.0
 11
-14.6
 21
8.9
 31
0.0
  0
LINE
  8
PARAMS
 62
     7
  5
132
 10
-15.8
 20
15.0
 30
0.0
 11
-14.6
 21
15.0
 31
0.0
  0
LINE
  8
PARAMS
 62
     7
  5
133
 10
-19.5
 20
0.0
 30
0.0
 11
-18.3
 21
0.0
 31
0.0
  0
LINE
  8
PARAMS
 62
     7
  5
134
 10
-19.5
 20
6.1
 30
0.0
 11
-18.3
 21
6.1
 31
0.0
  0
LINE
  8
PARAMS
 62
     7
  5
135
 10
-19.5
 20
12.2
 30
0.0
 11
-18.3
 21
12.2
 31
0.0
  0
LINE
  8
PARAMS
 62
     7
  5
136
 10
-16.7
 20
3.7
 30
0.0
 11
-17.9
 21
3.7
 31
0.0
  0
LINE
  8
PARAMS
 62
     7
  5
137
 10
-16.7
 20
9.8
 30
0.0
 11
-17.9
 21
9.8
 31
0.0
  0
LINE
  8
PARAMS
 62
     7
  5
138
 10
-16.7
 20
15.9
 30
0.0
 11
-17.9
 21
15.9
 31
0.0
  0
LINE
  8
PARAMS
 62
     7
  5
139
 10
-17.6
 20
0.3
 30
0.0
 11
-17.6
 21
0.1
 31
0.0
  0
LINE
  8
PARAMS
 62
     7
  5
13A
 10
-17.6
 20
6.4
 30
0.0
 11
-17.6
 21
6.2
 31
0.0
  0
LINE
  8
PARAMS
 62
     7
  5
13B
 10
-17.6
 20
12.5
 30
0.0
 11
-17.6
 21
12.3
 31
0.0
  0
LINE
  8
PARAMS
 62
     7
  5
13C
 10
-14.6
 20
0.2
 30
0.0
 11
-14.6
 21
0.0
 31
0.0
  0
LINE
  8
PARAMS
 62
     7
  5
13D
 10
-14.6
 20
6.3
 30
0.0
 11
-14.6
 21
6.1
 31
0.0
  0
LINE
  8
PARAMS
 62
     7
  5
13E
 10
-14.6
 20
12.4
 30
0.0
 11
-14.6
 21
12.2
 31
0.0
  0
LINE
  8
PARAMS
 62
     7
  5
13F
 10
-16.6
 20
0.6
 30
0.0
 11
-16.6
 21
0.4
 31
0.0
  0
LINE
  8
PARAMS
 62
     7
  5
140
 10
-16.6
 20
6.7
 30
0.0
 11
-16.6
 21
6.5
 31
0.0
  0
LINE
  8
PARAMS
 62
     7
  5
141
 10
-16.6
 20
12.8
 30
0.0
 11
-16.6
 21
12.6
 31
0.0
  0
LINE
  8
PARAMS
 62
     7
  5
142
 10
-12.7
 20
13.3
 30
0.0
 11
-12.7
 21
13.1
 31
0.0
  0
LINE
  8
PARAMS
 62
     7
  5
143
 10
-12.7
 20
13.0
 30
0.0
 11
-12.7
 21
12.8
 31
0.0
  0
LINE
  8
PARAMS
 62
     7
  5
144
 10
-12.7
 20
12.7
 30
0.0
 11
-12.7
 21
12.5
 31
0.0
  0
LINE
  8
PARAMS
 62
     7
  5
145
 10
-12.7
 20
13.6
 30
0.0
 11
-12.7
 21
13.4
 31
0.0
  0
LINE
  8
PARAMS
 62
     7
  5
146
 10
-14.6
 20
2.8
 30
0.0
 11
-14.6
 21
2.6
 31
0.0
  0
LINE
  8
PARAMS
 62
     7
  5
147
 10
-14.6
 20
8.9
 30
0.0
 11
-14.6
 21
8.7
 31
0.0
  0
LINE
  8
PARAMS
 62
     7
  5
148
 10
-14.6
 20
15.0
 30
0.0
 11
-14.6
 21
14.8
 31
0.0
  0
LINE
  8
PARAMS
 62
     7
  5
149
 10
-18.3
 20
0.0
 30
0.0
 11
-18.3
 21
-0.2
 31
0.0
  0
LINE
  8
PARAMS
 62
     7
  5
14A
 10
-18.3
 20
6.1
 30
0.0
 11
-18.3
 21
5.9
 31
0.0
  0
LINE
  8
PARAMS
 62
     7
  5
14B
 10
-18.3
 20
12.2
 30
0.0
 11
-18.3
 21
12.0
 31
0.0
  0
LINE
  8
PARAMS
 62
     7
  5
14C
 10
-17.9
 20
3.7
 30
0.0
 11
-17.9
 21
3.5
 31
0.0
  0
LINE
  8
PARAMS
 62
     7
  5
14D
 10
-17.9
 20
9.8
 30
0.0
 11
-17.9
 21
9.6
 31
0.0
  0
LINE
  8
PARAMS
 62
     7
  5
14E
 10
-17.9
 20
15.9
 30
0.0
 11
-17.9
 21
15.7
 31
0.0
  0
LINE
  8
PARAMS
 62
     7
  5
14F
 10
-17.6
 20
0.1
 30
0.0
 11
-18.8
 21
0.1
 31
0.0
  0
LINE
  8
PARAMS
 62
     7
  5
150
 10
-17.6
 20
6.2
 30
0.0
 11
-18.8
 21
6.2
 31
0.0
  0
LINE
  8
PARAMS
 62
     7
  5
151
 10
-17.6
 20
12.3
 30
0.0
 11
-18.8
 21
12.3
 31
0.0
  0
LINE
  8
PARAMS
 62
     7
  5
152
 10
-14.6
 20
0.0
 30
0.0
 11
-15.8
 21
0.0
 31
0.0
  0
LINE
  8
PARAMS
 62
     7
  5
153
 10
-14.6
 20
6.1
 30
0.0
 11
-15.8
 21
6.1
 31
0.0
  0
LINE
  8
PARAMS
 62
     7
  5
154
 10
-14.6
 20
12.2
 30
0.0
 11
-15.8
 21
12.2
 31
0.0
  0
LINE
  8
PARAMS
 62
     7
  5
155
 10
-16.6
 20
0.4
 30
0.0
 11
-17.8
 21
0.4
 31
0.0
  0
LINE
  8
PARAMS
 62
     7
  5
156
 10
-16.6
 20
6.5
 30
0.0
 11
-17.8
 21
6.5
 31
0.0
  0
LINE
  8
PARAMS
 62
     7
  5
157
 10
-16.6
 20
12.6
 30
0.0
 11
-17.8
 21
12.6
 31
0.0
  0
LINE
  8
PARAMS
 62
     7
  5
158
 10
-12.7
 20
13.1
 30
0.0
 11
-13.9
 21
13.1
 31
0.0
  0
LINE
  8
PARAMS
 62
     7
  5
159
 10
-12.7
 20
12.8
 30
0.0
 11
-13.9
 21
12.8
 31
0.0
  0
LINE
  8
PARAMS
 62
     7
  5
15A
 10
-12.7
 20
12.5
 30
0.0
 11
-13.9
 21
12.5
 31
0.0
  0
LINE
  8
PARAMS
 62
     7
  5
15B
 10
-12.7
 20
13.4
 30
0.0
 11
-13.9
 21
13.4
 31
0.0
  0
LINE
  8
PARAMS
 62
     7
  5
15C
 10
-14.6
 20
2.6
 30
0.0
 11
-15.8
 21
2.6
 31
0.0
  0
LINE
  8
PARAMS
 62
     7
  5
15D
 10
-14.6
 20
8.7
 30
0.0
 11
-15.8
 21
8.7
 31
0.0
  0
LINE
  8
PARAMS
 62
     7
  5
15E
 10
-14.6
 20
14.8
 30
0.0
 11
-15.8
 21
14.8
 31
0.0
  0
LINE
  8
PARAMS
 62
     7
  5
15F
 10
-18.3
 20
-0.2
 30
0.0
 11
-19.5
 21
-0.2
 31
0.0
  0
LINE
  8
PARAMS
 62
     7
  5
160
 10
-18.3
 20
5.9
 30
0.0
 11
-19.5
 21
5.9
 31
0.0
  0
LINE
  8
PARAMS
 62
     7
  5
161
 10
-18.3
 20
12.0
 30
0.0
 11
-19.5
 21
12.0
 31
0.0
  0
LINE
  8
PARAMS
 62
     7
  5
162
 10
-17.9
 20
3.5
 30
0.0
 11
-16.7
 21
3.5
 31
0.0
  0
LINE
  8
PARAMS
 62
     7
  5
163
 10
-17.9
 20
9.6
 30
0.0
 11
-16.7
 21
9.6
 31
0.0
  0
LINE
  8
PARAMS
 62
     7
  5
164
 10
-17.9
 20
15.7
 30
0.0
 11
-16.7
 21
15.7
 31
0.0
  0
POLYLINE
  8
STANDARD
 62
     7
  5
165
 66
     1
 10
0.0
 20
0.0
 30
0.0
 70
     1
  0
VERTEX
  8
STANDARD
 62
     7
  5
166
 10
-13.7
 20
-0.9
 30
0.0
  0
VERTEX
  8
STANDARD
 62
     7
  5
167
 10
-13.7
 20
-0.3
 30
0.0
  0
VERTEX
  8
STANDARD
 62
     7
  5
168
 10
-12.9
 20
-0.3
 30
0.0
  0
VERTEX
  8
STANDARD
 62
     7
  5
169
 10
-12.9
 20
-0.9
 30
0.0
  0
VERTEX
  8
STANDARD
 62
     7
  5
16A
 10
-13.7
 20
-0.9
 30
0.0
  0
SEQEND
  8
0
  5
16B
  0
POLYLINE
  8
STANDARD
 62
     7
  5
16C
 66
     1
 10
0.0
 20
0.0
 30
0.0
 70
     1
  0
VERTEX
  8
STANDARD
 62
     7
  5
16D
 10
-13.7
 20
5.2
 30
0.0
  0
VERTEX
  8
STANDARD
 62
     7
  5
16E
 10
-13.7
 20
5.8
 30
0.0
  0
VERTEX
  8
STANDARD
 62
     7
  5
16F
 10
-12.9
 20
5.8
 30
0.0
  0
VERTEX
  8
STANDARD
 62
     7
  5
170
 10
-12.9
 20
5.2
 30
0.0
  0
VERTEX
  8
STANDARD
 62
     7
  5
171
 10
-13.7
 20
5.2
 30
0.0
  0
SEQEND
  8
0
  5
172
  0
POLYLINE
  8
STANDARD
 62
     7
  5
173
 66
     1
 10
0.0
 20
0.0
 30
0.0
 70
     1
  0
VERTEX
  8
STANDARD
 62
     7
  5
174
 10
-13.7
 20
11.3
 30
0.0
  0
VERTEX
  8
STANDARD
 62
     7
  5
175
 10
-13.7
 20
11.9
 30
0.0
  0
VERTEX
  8
STANDARD
 62
     7
  5
176
 10
-12.9
 20
11.9
 30
0.0
  0
VERTEX
  8
STANDARD
 62
     7
  5
177
 10
-12.9
 20
11.3
 30
0.0
  0
VERTEX
  8
STANDARD
 62
     7
  5
178
 10
-13.7
 20
11.3
 30
0.0
  0
SEQEND
  8
0
  5
179
  0
POLYLINE
  8
STANDARD
 62
     7
  5
17A
 66
     1
 10
0.0
 20
0.0
 30
0.0
 70
     1
  0
VERTEX
  8
STANDARD
 62
     7
  5
17B
 10
-14.7
 20
-0.9
 30
0.0
  0
VERTEX
  8
STANDARD
 62
     7
  5
17C
 10
-14.7
 20
-0.3
 30
0.0
  0
VERTEX
  8
STANDARD
 62
     7
  5
17D
 10
-14.1
 20
-0.3
 30
0.0
  0
VERTEX
  8
STANDARD
 62
     7
  5
17E
 10
-14.1
 20
-0.9
 30
0.0
  0
VERTEX
  8
STANDARD
 62
     7
  5
17F
 10
-14.7
 20
-0.9
 30
0.0
  0
SEQEND
  8
0
  5
180
  0
POLYLINE
  8
STANDARD
 62
     7
  5
181
 66
     1
 10
0.0
 20
0.0
 30
0.0
 70
     1
  0
VERTEX
  8
STANDARD
 62
     7
  5
182
 10
-14.7
 20
5.2
 30
0.0
  0
VERTEX
  8
STANDARD
 62
     7
  5
183
 10
-14.7
 20
5.8
 30
0.0
  0
VERTEX
  8
STANDARD
 62
     7
  5
184
 10
-14.1
 20
5.8
 30
0.0
  0
VERTEX
  8
STANDARD
 62
     7
  5
185
 10
-14.1
 20
5.2
 30
0.0
  0
VERTEX
  8
STANDARD
 62
     7
  5
186
 10
-14.7
 20
5.2
 30
0.0
  0
SEQEND
  8
0
  5
187
  0
POLYLINE
  8
STANDARD
 62
     7
  5
188
 66
     1
 10
0.0
 20
0.0
 30
0.0
 70
     1
  0
VERTEX
  8
STANDARD
 62
     7
  5
189
 10
-14.7
 20
11.3
 30
0.0
  0
VERTEX
  8
STANDARD
 62
     7
  5
18A
 10
-14.7
 20
11.9
 30
0.0
  0
VERTEX
  8
STANDARD
 62
     7
  5
18B
 10
-14.1
 20
11.9
 30
0.0
  0
VERTEX
  8
STANDARD
 62
     7
  5
18C
 10
-14.1
 20
11.3
 30
0.0
  0
VERTEX
  8
STANDARD
 62
     7
  5
18D
 10
-14.7
 20
11.3
 30
0.0
  0
SEQEND
  8
0
  5
18E
  0
POLYLINE
  8
STANDARD
 62
     7
  5
18F
 66
     1
 10
0.0
 20
0.0
 30
0.0
 70
     1
  0
VERTEX
  8
STANDARD
 62
     7
  5
190
 10
-17.7
 20
-0.9
 30
0.0
  0
VERTEX
  8
STANDARD
 62
     7
  5
191
 10
-17.7
 20
-0.3
 30
0.0
  0
VERTEX
  8
STANDARD
 62
     7
  5
192
 10
-17.1
 20
-0.3
 30
0.0
  0
VERTEX
  8
STANDARD
 62
     7
  5
193
 10
-17.1
 20
-0.9
 30
0.0
  0
VERTEX
  8
STANDARD
 62
     7
  5
194
 10
-17.7
 20
-0.9
 30
0.0
  0
SEQEND
  8
0
  5
195
  0
POLYLINE
  8
STANDARD
 62
     7
  5
196
 66
     1
 10
0.0
 20
0.0
 30
0.0
 70
     1
  0
VERTEX
  8
STANDARD
 62
     7
  5
197
 10
-17.7
 20
5.2
 30
0.0
  0
VERTEX
  8
STANDARD
 62
     7
  5
198
 10
-17.7
 20
5.8
 30
0.0
  0
VERTEX
  8
STANDARD
 62
     7
  5
199
 10
-17.1
 20
5.8
 30
0.0
  0
VERTEX
  8
STANDARD
 62
     7
  5
19A
 10
-17.1
 20
5.2
 30
0.0
  0
VERTEX
  8
STANDARD
 62
     7
  5
19B
 10
-17.7
 20
5.2
 30
0.0
  0
SEQEND
  8
0
  5
19C
  0
POLYLINE
  8
STANDARD
 62
     7
  5
19D
 66
     1
 10
0.0
 20
0.0
 30
0.0
 70
     1
  0
VERTEX
  8
STANDARD
 62
     7
  5
19E
 10
-17.7
 20
11.3
 30
0.0
  0
VERTEX
  8
STANDARD
 62
     7
  5
19F
 10
-17.7
 20
11.9
 30
0.0
  0
VERTEX
  8
STANDARD
 62
     7
  5
1A0
 10
-17.1
 20
11.9
 30
0.0
  0
VERTEX
  8
STANDARD
 62
     7
  5
1A1
 10
-17.1
 20
11.3
 30
0.0
  0
VERTEX
  8
STANDARD
 62
     7
  5
1A2
 10
-17.7
 20
11.3
 30
0.0
  0
SEQEND
  8
0
  5
1A3
  0
POLYLINE
  8
STANDARD
 62
     7
  5
1A4
 66
     1
 10
0.0
 20
0.0
 30
0.0
 70
     1
  0
VERTEX
  8
STANDARD
 62
     7
  5
1A5
 10
-16.9
 20
1.7
 30
0.0
  0
VERTEX
  8
STANDARD
 62
     7
  5
1A6
 10
-16.9
 20
2.3
 30
0.0
  0
VERTEX
  8
STANDARD
 62
     7
  5
1A7
 10
-16.3
 20
2.3
 30
0.0
  0
VERTEX
  8
STANDARD
 62
     7
  5
1A8
 10
-16.3
 20
1.7
 30
0.0
  0
VERTEX
  8
STANDARD
 62
     7
  5
1A9
 10
-16.9
 20
1.7
 30
0.0
  0
SEQEND
  8
0
  5
1AA
  0
POLYLINE
  8
STANDARD
 62
     7
  5
1AB
 66
     1
 10
0.0
 20
0.0
 30
0.0
 70
     1
  0
VERTEX
  8
STANDARD
 62
     7
  5
1AC
 10
-16.9
 20
7.8
 30
0.0
  0
VERTEX
  8
STANDARD
 62
     7
  5
1AD
 10
-16.9
 20
8.4
 30
0.0
  0
VERTEX
  8
STANDARD
 62
     7
  5
1AE
 10
-16.3
 20
8.4
 30
0.0
  0
VERTEX
  8
STANDARD
 62
     7
  5
1AF
 10
-16.3
 20
7.8
 30
0.0
  0
VERTEX
  8
STANDARD
 62
     7
  5
1B0
 10
-16.9
 20
7.8
 30
0.0
  0
SEQEND
  8
0
  5
1B1
  0
POLYLINE
  8
STANDARD
 62
     7
  5
1B2
 66
     1
 10
0.0
 20
0.0
 30
0.0
 70
     1
  0
VERTEX
  8
STANDARD
 62
     7
  5
1B3
 10
-16.9
 20
13.9
 30
0.0
  0
VERTEX
  8
STANDARD
 62
     7
  5
1B4
 10
-16.9
 20
14.5
 30
0.0
  0
VERTEX
  8
STANDARD
 62
     7
  5
1B5
 10
-16.3
 20
14.5
 30
0.0
  0
VERTEX
  8
STANDARD
 62
     7
  5
1B6
 10
-16.3
 20
13.9
 30
0.0
  0
VERTEX
  8
STANDARD
 62
     7
  5
1B7
 10
-16.9
 20
13.9
 30
0.0
  0
SEQEND
  8
0
  5
1B8
  0
POLYLINE
  8
STANDARD
 62
     7
  5
1B9
 66
     1
 10
0.0
 20
0.0
 30
0.0
 70
     1
  0
VERTEX
  8
STANDARD
 62
     7
  5
1BA
 10
-12.8
 20
2.5
 30
0.0
  0
VERTEX
  8
STANDARD
 62
     7
  5
1BB
 10
-12.8
 20
3.1
 30
0.0
  0
VERTEX
  8
STANDARD
 62
     7
  5
1BC
 10
-12.2
 20
3.1
 30
0.0
  0
VERTEX
  8
STANDARD
 62
     7
  5
1BD
 10
-12.2
 20
2.5
 30
0.0
  0
VERTEX
  8
STANDARD
 62
     7
  5
1BE
 10
-12.8
 20
2.5
 30
0.0
  0
SEQEND
  8
0
  5
1BF
  0
POLYLINE
  8
STANDARD
 62
     7
  5
1C0
 66
     1
 10
0.0
 20
0.0
 30
0.0
 70
     1
  0
VERTEX
  8
STANDARD
 62
     7
  5
1C1
 10
-11.9
 20
2.5
 30
0.0
  0
VERTEX
  8
STANDARD
 62
     7
  5
1C2
 10
-11.9
 20
3.1
 30
0.0
  0
VERTEX
  8
STANDARD
 62
     7
  5
1C3
 10
-11.3
 20
3.1
 30
0.0
  0
VERTEX
  8
STANDARD
 62
     7
  5
1C4
 10
-11.3
 20
2.5
 30
0.0
  0
VERTEX
  8
STANDARD
 62
     7
  5
1C5
 10
-11.9
 20
2.5
 30
0.0
  0
SEQEND
  8
0
  5
1C6
  0
POLYLINE
  8
STANDARD
 62
     7
  5
1C7
 66
     1
 10
0.0
 20
0.0
 30
0.0
 70
     1
  0
VERTEX
  8
STANDARD
 62
     7
  5
1C8
 10
-14.1
 20
1.7
 30
0.0
  0
VERTEX
  8
STANDARD
 62
     7
  5
1C9
 10
-14.1
 20
2.3
 30
0.0
  0
VERTEX
  8
STANDARD
 62
     7
  5
1CA
 10
-13.5
 20
2.3
 30
0.0
  0
VERTEX
  8
STANDARD
 62
     7
  5
1CB
 10
-13.5
 20
1.7
 30
0.0
  0
VERTEX
  8
STANDARD
 62
     7
  5
1CC
 10
-14.1
 20
1.7
 30
0.0
  0
SEQEND
  8
0
  5
1CD
  0
POLYLINE
  8
STANDARD
 62
     7
  5
1CE
 66
     1
 10
0.0
 20
0.0
 30
0.0
 70
     1
  0
VERTEX
  8
STANDARD
 62
     7
  5
1CF
 10
-14.1
 20
7.8
 30
0.0
  0
VERTEX
  8
STANDARD
 62
     7
  5
1D0
 10
-14.1
 20
8.4
 30
0.0
  0
VERTEX
  8
STANDARD
 62
     7
  5
1D1
 10
-13.5
 20
8.4
 30
0.0
  0
VERTEX
  8
STANDARD
 62
     7
  5
1D2
 10
-13.5
 20
7.8
 30
0.0
  0
VERTEX
  8
STANDARD
 62
     7
  5
1D3
 10
-14.1
 20
7.8
 30
0.0
  0
SEQEND
  8
0
  5
1D4
  0
POLYLINE
  8
STANDARD
 62
     7
  5
1D5
 66
     1
 10
0.0
 20
0.0
 30
0.0
 70
     1
  0
VERTEX
  8
STANDARD
 62
     7
  5
1D6
 10
-14.1
 20
13.9
 30
0.0
  0
VERTEX
  8
STANDARD
 62
     7
  5
1D7
 10
-14.1
 20
14.5
 30
0.0
  0
VERTEX
  8
STANDARD
 62
     7
  5
1D8
 10
-13.5
 20
14.5
 30
0.0
  0
VERTEX
  8
STANDARD
 62
     7
  5
1D9
 10
-13.5
 20
13.9
 30
0.0
  0
VERTEX
  8
STANDARD
 62
     7
  5
1DA
 10
-14.1
 20
13.9
 30
0.0
  0
SEQEND
  8
0
  5
1DB
  0
POLYLINE
  8
STANDARD
 62
     7
  5
1DC
 66
     1
 10
0.0
 20
0.0
 30
0.0
 70
     1
  0
VERTEX
  8
STANDARD
 62
     7
  5
1DD
 10
-11.7
 20
12.1
 30
0.0
  0
VERTEX
  8
STANDARD
 62
     7
  5
1DE
 10
-11.7
 20
12.9
 30
0.0
  0
VERTEX
  8
STANDARD
 62
     7
  5
1DF
 10
-11.1
 20
12.9
 30
0.0
  0
VERTEX
  8
STANDARD
 62
     7
  5
1E0
 10
-11.1
 20
12.1
 30
0.0
  0
VERTEX
  8
STANDARD
 62
     7
  5
1E1
 10
-11.7
 20
12.1
 30
0.0
  0
SEQEND
  8
0
  5
1E2
  0
LINE
  8
STANDARD
  6
ORTHO_50_50
 62
     7
  5
1E4
 10
-17.7
 20
-0.6
 30
0.0
 11
-17.1
 21
-0.6
 31
0.0
  0
LINE
  8
STANDARD
  6
ORTHO_50_50
 62
     7
  5
1E5
 10
-17.7
 20
5.5
 30
0.0
 11
-17.1
 21
5.5
 31
0.0
  0
LINE
  8
STANDARD
  6
ORTHO_50_50
 62
     7
  5
1E6
 10
-17.7
 20
11.6
 30
0.0
 11
-17.1
 21
11.6
 31
0.0
  0
LINE
  8
STANDARD
  6
ORTHO_50_50
 62
     7
  5
1E7
 10
-17.4
 20
-0.3
 30
0.0
 11
-17.4
 21
-0.9
 31
0.0
  0
LINE
  8
STANDARD
  6
ORTHO_50_50
 62
     7
  5
1E8
 10
-17.4
 20
5.8
 30
0.0
 11
-17.4
 21
5.2
 31
0.0
  0
LINE
  8
STANDARD
  6
ORTHO_50_50
 62
     7
  5
1E9
 10
-17.4
 20
11.9
 30
0.0
 11
-17.4
 21
11.3
 31
0.0
  0
LINE
  8
STANDARD
 62
     7
  5
1EA
 10
-17.7
 20
-0.8
 30
0.0
 11
-17.6
 21
-0.8
 31
0.0
  0
LINE
  8
STANDARD
 62
     7
  5
1EB
 10
-17.7
 20
5.3
 30
0.0
 11
-17.6
 21
5.3
 31
0.0
  0
LINE
  8
STANDARD
 62
     7
  5
1EC
 10
-17.7
 20
11.4
 30
0.0
 11
-17.6
 21
11.4
 31
0.0
  0
LINE
  8
STANDARD
 62
     7
  5
1ED
 10
-17.6
 20
-0.8
 30
0.0
 11
-17.2
 21
-0.4
 31
0.0
  0
LINE
  8
STANDARD
 62
     7
  5
1EE
 10
-17.6
 20
5.3
 30
0.0
 11
-17.2
 21
5.7
 31
0.0
  0
LINE
  8
STANDARD
 62
     7
  5
1EF
 10
-17.6
 20
11.4
 30
0.0
 11
-17.2
 21
11.8
 31
0.0
  0
LINE
  8
STANDARD
 62
     7
  5
1F0
 10
-17.2
 20
-0.4
 30
0.0
 11
-17.1
 21
-0.4
 31
0.0
  0
LINE
  8
STANDARD
 62
     7
  5
1F1
 10
-17.2
 20
5.7
 30
0.0
 11
-17.1
 21
5.7
 31
0.0
  0
LINE
  8
STANDARD
 62
     7
  5
1F2
 10
-17.2
 20
11.8
 30
0.0
 11
-17.1
 21
11.8
 31
0.0
  0
LINE
  8
STANDARD
 62
     7
  5
1F3
 10
-17.6
 20
0.2
 30
0.0
 11
-17.4
 21
0.2
 31
0.0
  0
LINE
  8
STANDARD
 62
     7
  5
1F4
 10
-17.6
 20
6.3
 30
0.0
 11
-17.4
 21
6.3
 31
0.0
  0
LINE
  8
STANDARD
 62
     7
  5
1F5
 10
-17.6
 20
12.4
 30
0.0
 11
-17.4
 21
12.4
 31
0.0
  0
LINE
  8
STANDARD
 62
     7
  5
1F6
 10
-17.4
 20
0.2
 30
0.0
 11
-17.4
 21
-0.3
 31
0.0
  0
POLYLINE
  8
STANDARD
 62
     7
  5
1F7
 66
     1
 10
0.0
 20
0.0
 30
0.0
  0
VERTEX
  8
STANDARD
 62
     7
  5
1F8
 10
-17.4
 20
-0.3
 30
0.0
  0
VERTEX
  8
STANDARD
 62
     7
  5
1F9
 10
-17.38222
 20
-0.22
 30
0.0
  0
VERTEX
  8
STANDARD
 62
     7
  5
1FA
 10
-17.41778
 20
-0.22
 30
0.0
  0
VERTEX
  8
STANDARD
 62
     7
  5
1FB
 10
-17.4
 20
-0.3
 30
0.0
  0
SEQEND
  8
0
  5
1FC
  0
LINE
  8
STANDARD
 62
     7
  5
1FD
 10
-17.4
 20
6.3
 30
0.0
 11
-17.4
 21
5.8
 31
0.0
  0
POLYLINE
  8
STANDARD
 62
     7
  5
1FE
 66
     1
 10
0.0
 20
0.0
 30
0.0
  0
VERTEX
  8
STANDARD
 62
     7
  5
1FF
 10
-17.4
 20
5.8
 30
0.0
  0
VERTEX
  8
STANDARD
 62
     7
  5
200
 10
-17.38222
 20
5.88
 30
0.0
  0
VERTEX
  8
STANDARD
 62
     7
  5
201
 10
-17.41778
 20
5.88
 30
0.0
  0
VERTEX
  8
STANDARD
 62
     7
  5
202
 10
-17.4
 20
5.8
 30
0.0
  0
SEQEND
  8
0
  5
203
  0
LINE
  8
STANDARD
 62
     7
  5
204
 10
-17.4
 20
12.4
 30
0.0
 11
-17.4
 21
11.9
 31
0.0
  0
POLYLINE
  8
STANDARD
 62
     7
  5
205
 66
     1
 10
0.0
 20
0.0
 30
0.0
  0
VERTEX
  8
STANDARD
 62
     7
  5
206
 10
-17.4
 20
11.9
 30
0.0
  0
VERTEX
  8
STANDARD
 62
     7
  5
207
 10
-17.38222
 20
11.98
 30
0.0
  0
VERTEX
  8
STANDARD
 62
     7
  5
208
 10
-17.41778
 20
11.98
 30
0.0
  0
VERTEX
  8
STANDARD
 62
     7
  5
209
 10
-17.4
 20
11.9
 30
0.0
  0
SEQEND
  8
0
  5
20A
  0
LINE
  8
STANDARD
 62
     7
  5
20B
 10
-16.4
 20
0.5
 30
0.0
 11
-16.4
 21
-0.6
 31
0.0
  0
LINE
  8
STANDARD
 62
     7
  5
20C
 10
-16.4
 20
6.6
 30
0.0
 11
-16.4
 21
5.5
 31
0.0
  0
LINE
  8
STANDARD
 62
     7
  5
20D
 10
-16.4
 20
12.7
 30
0.0
 11
-16.4
 21
11.6
 31
0.0
  0
LINE
  8
STANDARD
 62
     7
  5
20E
 10
-14.4
 20
2.7
 30
0.0
 11
-14.4
 21
2.0
 31
0.0
  0
LINE
  8
STANDARD
 62
     7
  5
20F
 10
-14.4
 20
8.8
 30
0.0
 11
-14.4
 21
8.1
 31
0.0
  0
LINE
  8
STANDARD
 62
     7
  5
210
 10
-14.4
 20
14.9
 30
0.0
 11
-14.4
 21
14.2
 31
0.0
  0
LINE
  8
STANDARD
 62
     7
  5
211
 10
-18.1
 20
-0.6
 30
0.0
 11
-18.15
 21
-0.55
 31
0.0
  0
LINE
  8
STANDARD
 62
     7
  5
212
 10
-18.1
 20
5.5
 30
0.0
 11
-18.15
 21
5.55
 31
0.0
  0
LINE
  8
STANDARD
 62
     7
  5
213
 10
-18.1
 20
11.6
 30
0.0
 11
-18.15
 21
11.65
 31
0.0
  0
LINE
  8
STANDARD
 62
     7
  5
214
 10
-18.1
 20
3.0
 30
0.0
 11
-18.15
 21
3.05
 31
0.0
  0
LINE
  8
STANDARD
 62
     7
  5
215
 10
-18.1
 20
9.1
 30
0.0
 11
-18.15
 21
9.15
 31
0.0
  0
LINE
  8
STANDARD
 62
     7
  5
216
 10
-18.1
 20
15.2
 30
0.0
 11
-18.15
 21
15.25
 31
0.0
  0
LINE
  8
STANDARD
 62
     7
  5
217
 10
-18.1
 20
-0.6
 30
0.0
 11
-18.15
 21
-0.65
 31
0.0
  0
LINE
  8
STANDARD
 62
     7
  5
218
 10
-18.1
 20
5.5
 30
0.0
 11
-18.15
 21
5.45
 31
0.0
  0
LINE
  8
STANDARD
 62
     7
  5
219
 10
-18.1
 20
11.6
 30
0.0
 11
-18.15
 21
11.55
 31
0.0
  0
LINE
  8
STANDARD
 62
     7
  5
21A
 10
-18.1
 20
3.0
 30
0.0
 11
-18.15
 21
2.95
 31
0.0
  0
LINE
  8
STANDARD
 62
     7
  5
21B
 10
-18.1
 20
9.1
 30
0.0
 11
-18.15
 21
9.05
 31
0.0
  0
LINE
  8
STANDARD
 62
     7
  5
21C
 10
-18.1
 20
15.2
 30
0.0
 11
-18.15
 21
15.15
 31
0.0
  0
LINE
  8
STANDARD
 62
     7
  5
21D
 10
-18.1
 20
-0.6
 30
0.0
 11
-18.05
 21
-0.65
 31
0.0
  0
LINE
  8
STANDARD
 62
     7
  5
21E
 10
-18.1
 20
5.5
 30
0.0
 11
-18.05
 21
5.45
 31
0.0
  0
LINE
  8
STANDARD
 62
     7
  5
21F
 10
-18.1
 20
11.6
 30
0.0
 11
-18.05
 21
11.55
 31
0.0
  0
LINE
  8
STANDARD
 62
     7
  5
220
 10
-18.1
 20
3.0
 30
0.0
 11
-18.05
 21
2.95
 31
0.0
  0
LINE
  8
STANDARD
 62
     7
  5
221
 10
-18.1
 20
9.1
 30
0.0
 11
-18.05
 21
9.05
 31
0.0
  0
LINE
  8
STANDARD
 62
     7
  5
222
 10
-18.1
 20
15.2
 30
0.0
 11
-18.05
 21
15.15
 31
0.0
  0
LINE
  8
STANDARD
 62
     7
  5
223
 10
-18.1
 20
-0.6
 30
0.0
 11
-18.05
 21
-0.55
 31
0.0
  0
LINE
  8
STANDARD
 62
     7
  5
224
 10
-18.1
 20
5.5
 30
0.0
 11
-18.05
 21
5.55
 31
0.0
  0
LINE
  8
STANDARD
 62
     7
  5
225
 10
-18.1
 20
11.6
 30
0.0
 11
-18.05
 21
11.65
 31
0.0
  0
LINE
  8
STANDARD
 62
     7
  5
226
 10
-18.1
 20
3.0
 30
0.0
 11
-18.05
 21
3.05
 31
0.0
  0
LINE
  8
STANDARD
 62
     7
  5
227
 10
-18.1
 20
9.1
 30
0.0
 11
-18.05
 21
9.15
 31
0.0
  0
LINE
  8
STANDARD
 62
     7
  5
228
 10
-18.1
 20
15.2
 30
0.0
 11
-18.05
 21
15.25
 31
0.0
  0
CIRCLE
  8
STANDARD
 62
     7
  5
229
 10
-18.1
 20
-0.6
 30
0.0
 40
0.15
  0
CIRCLE
  8
STANDARD
 62
     7
  5
22A
 10
-18.1
 20
5.5
 30
0.0
 40
0.15
  0
CIRCLE
  8
STANDARD
 62
     7
  5
22B
 10
-18.1
 20
11.6
 30
0.0
 40
0.15
  0
CIRCLE
  8
STANDARD
 62
     7
  5
22C
 10
-18.1
 20
3.0
 30
0.0
 40
0.15
  0
CIRCLE
  8
STANDARD
 62
     7
  5
22D
 10
-18.1
 20
9.1
 30
0.0
 40
0.15
  0
CIRCLE
  8
STANDARD
 62
     7
  5
22E
 10
-18.1
 20
15.2
 30
0.0
 40
0.15
  0
LINE
  8
STANDARD
 62
     7
  5
22F
 10
-19.8
 20
1.9
 30
0.0
 11
-19.8
 21
-0.5
 31
0.0
  0
LINE
  8
STANDARD
 62
     7
  5
230
 10
-19.8
 20
8.0
 30
0.0
 11
-19.8
 21
5.6
 31
0.0
  0
LINE
  8
STANDARD
 62
     7
  5
231
 10
-19.8
 20
14.1
 30
0.0
 11
-19.8
 21
11.7
 31
0.0
  0
LINE
  8
STANDARD
 62
     7
  5
232
 10
-19.8
 20
2.9
 30
0.0
 11
-19.8
 21
2.1
 31
0.0
  0
LINE
  8
STANDARD
 62
     7
  5
233
 10
-19.8
 20
9.0
 30
0.0
 11
-19.8
 21
8.2
 31
0.0
  0
LINE
  8
STANDARD
 62
     7
  5
234
 10
-19.8
 20
15.1
 30
0.0
 11
-19.8
 21
14.3
 31
0.0
  0
LINE
  8
STANDARD
 62
     7
  5
235
 10
-19.8
 20
3.1
 30
0.0
 11
-19.8
 21
4.2
 31
0.0
  0
LINE
  8
STANDARD
 62
     7
  5
236
 10
-19.8
 20
9.2
 30
0.0
 11
-19.8
 21
10.3
 31
0.0
  0
LINE
  8
STANDARD
 62
     7
  5
237
 10
-19.8
 20
15.3
 30
0.0
 11
-19.8
 21
16.4
 31
0.0
  0
LINE
  8
STANDARD
 62
     7
  5
238
 10
-19.8
 20
4.2
 30
0.0
 11
-9.2
 21
4.2
 31
0.0
  0
LINE
  8
STANDARD
 62
     7
  5
239
 10
-19.8
 20
10.3
 30
0.0
 11
-9.2
 21
10.3
 31
0.0
  0
LINE
  8
STANDARD
 62
     7
  5
23A
 10
-19.8
 20
16.4
 30
0.0
 11
-9.2
 21
16.4
 31
0.0
  0
LINE
  8
STANDARD
 62
     7
  5
23B
 10
-9.2
 20
3.0
 30
0.0
 11
-9.2
 21
2.9
 31
0.0
  0
LINE
  8
STANDARD
 62
     7
  5
23C
 10
-9.2
 20
3.3
 30
0.0
 11
-9.2
 21
3.2
 31
0.0
  0
LINE
  8
STANDARD
 62
     7
  5
23D
 10
-9.2
 20
4.2
 30
0.0
 11
-9.2
 21
3.5
 31
0.0
  0
LINE
  8
STANDARD
 62
     7
  5
23E
 10
-9.2
 20
10.3
 30
0.0
 11
-9.2
 21
9.1
 31
0.0
  0
LINE
  8
STANDARD
 62
     7
  5
23F
 10
-9.2
 20
16.4
 30
0.0
 11
-9.2
 21
14.6
 31
0.0
  0
LINE
  8
STANDARD
 62
     7
  5
240
 10
-9.2
 20
2.7
 30
0.0
 11
-9.2
 21
2.6
 31
0.0
  0
LINE
  8
STANDARD
 62
     7
  5
241
 10
-9.2
 20
8.9
 30
0.0
 11
-9.2
 21
8.6
 31
0.0
  0
LINE
  8
STANDARD
 62
     7
  5
242
 10
-9.2
 20
14.4
 30
0.0
 11
-9.2
 21
14.0
 31
0.0
  0
LINE
  8
STANDARD
 62
     7
  5
243
 10
-9.2
 20
2.1
 30
0.0
 11
-9.2
 21
-1.6
 31
0.0
  0
LINE
  8
STANDARD
 62
     7
  5
244
 10
-9.2
 20
2.4
 30
0.0
 11
-9.2
 21
2.3
 31
0.0
  0
LINE
  8
STANDARD
 62
     7
  5
245
 10
-9.2
 20
8.4
 30
0.0
 11
-9.2
 21
4.5
 31
0.0
  0
LINE
  8
STANDARD
 62
     7
  5
246
 10
-9.2
 20
13.8
 30
0.0
 11
-9.2
 21
10.6
 31
0.0
  0
LINE
  8
STANDARD
 62
     7
  5
247
 10
-9.2
 20
-1.6
 30
0.0
 11
-19.8
 21
-1.6
 31
0.0
  0
LINE
  8
STANDARD
 62
     7
  5
248
 10
-9.2
 20
4.5
 30
0.0
 11
-19.8
 21
4.5
 31
0.0
  0
LINE
  8
STANDARD
 62
     7
  5
249
 10
-9.2
 20
10.6
 30
0.0
 11
-19.8
 21
10.6
 31
0.0
  0
LINE
  8
STANDARD
 62
     7
  5
24A
 10
-19.8
 20
-1.6
 30
0.0
 11
-19.8
 21
-0.7
 31
0.0
  0
LINE
  8
STANDARD
 62
     7
  5
24B
 10
-19.8
 20
4.5
 30
0.0
 11
-19.8
 21
5.4
 31
0.0
  0
LINE
  8
STANDARD
 62
     7
  5
24C
 10
-19.8
 20
10.6
 30
0.0
 11
-19.8
 21
11.5
 31
0.0
  0
LINE
  8
STANDARD
 62
     7
  5
24D
 10
-14.6
 20
0.1
 30
0.0
 11
-14.4
 21
0.1
 31
0.0
  0
LINE
  8
STANDARD
 62
     7
  5
24E
 10
-14.6
 20
6.2
 30
0.0
 11
-14.4
 21
6.2
 31
0.0
  0
LINE
  8
STANDARD
 62
     7
  5
24F
 10
-14.6
 20
12.3
 30
0.0
 11
-14.4
 21
12.3
 31
0.0
  0
LINE
  8
STANDARD
 62
     7
  5
250
 10
-16.6
 20
0.5
 30
0.0
 11
-16.4
 21
0.5
 31
0.0
  0
POLYLINE
  8
STANDARD
 62
     7
  5
251
 66
     1
 10
0.0
 20
0.0
 30
0.0
  0
VERTEX
  8
STANDARD
 62
     7
  5
252
 10
-16.6
 20
0.5
 30
0.0
  0
VERTEX
  8
STANDARD
 62
     7
  5
253
 10
-16.52
 20
0.48222
 30
0.0
  0
VERTEX
  8
STANDARD
 62
     7
  5
254
 10
-16.52
 20
0.51778
 30
0.0
  0
VERTEX
  8
STANDARD
 62
     7
  5
255
 10
-16.6
 20
0.5
 30
0.0
  0
SEQEND
  8
0
  5
256
  0
LINE
  8
STANDARD
 62
     7
  5
257
 10
-16.6
 20
6.6
 30
0.0
 11
-16.4
 21
6.6
 31
0.0
  0
POLYLINE
  8
STANDARD
 62
     7
  5
258
 66
     1
 10
0.0
 20
0.0
 30
0.0
  0
VERTEX
  8
STANDARD
 62
     7
  5
259
 10
-16.6
 20
6.6
 30
0.0
  0
VERTEX
  8
STANDARD
 62
     7
  5
25A
 10
-16.52
 20
6.58222
 30
0.0
  0
VERTEX
  8
STANDARD
 62
     7
  5
25B
 10
-16.52
 20
6.61778
 30
0.0
  0
VERTEX
  8
STANDARD
 62
     7
  5
25C
 10
-16.6
 20
6.6
 30
0.0
  0
SEQEND
  8
0
  5
25D
  0
LINE
  8
STANDARD
 62
     7
  5
25E
 10
-16.6
 20
12.7
 30
0.0
 11
-16.4
 21
12.7
 31
0.0
  0
POLYLINE
  8
STANDARD
 62
     7
  5
25F
 66
     1
 10
0.0
 20
0.0
 30
0.0
  0
VERTEX
  8
STANDARD
 62
     7
  5
260
 10
-16.6
 20
12.7
 30
0.0
  0
VERTEX
  8
STANDARD
 62
     7
  5
261
 10
-16.52
 20
12.68222
 30
0.0
  0
VERTEX
  8
STANDARD
 62
     7
  5
262
 10
-16.52
 20
12.71778
 30
0.0
  0
VERTEX
  8
STANDARD
 62
     7
  5
263
 10
-16.6
 20
12.7
 30
0.0
  0
SEQEND
  8
0
  5
264
  0
LINE
  8
STANDARD
 62
     7
  5
265
 10
-14.6
 20
2.7
 30
0.0
 11
-14.4
 21
2.7
 31
0.0
  0
POLYLINE
  8
STANDARD
 62
     7
  5
266
 66
     1
 10
0.0
 20
0.0
 30
0.0
  0
VERTEX
  8
STANDARD
 62
     7
  5
267
 10
-14.6
 20
2.7
 30
0.0
  0
VERTEX
  8
STANDARD
 62
     7
  5
268
 10
-14.52
 20
2.68222
 30
0.0
  0
VERTEX
  8
STANDARD
 62
     7
  5
269
 10
-14.52
 20
2.71778
 30
0.0
  0
VERTEX
  8
STANDARD
 62
     7
  5
26A
 10
-14.6
 20
2.7
 30
0.0
  0
SEQEND
  8
0
  5
26B
  0
LINE
  8
STANDARD
 62
     7
  5
26C
 10
-14.6
 20
8.8
 30
0.0
 11
-14.4
 21
8.8
 31
0.0
  0
POLYLINE
  8
STANDARD
 62
     7
  5
26D
 66
     1
 10
0.0
 20
0.0
 30
0.0
  0
VERTEX
  8
STANDARD
 62
     7
  5
26E
 10
-14.6
 20
8.8
 30
0.0
  0
VERTEX
  8
STANDARD
 62
     7
  5
26F
 10
-14.52
 20
8.78222
 30
0.0
  0
VERTEX
  8
STANDARD
 62
     7
  5
270
 10
-14.52
 20
8.81778
 30
0.0
  0
VERTEX
  8
STANDARD
 62
     7
  5
271
 10
-14.6
 20
8.8
 30
0.0
  0
SEQEND
  8
0
  5
272
  0
LINE
  8
STANDARD
 62
     7
  5
273
 10
-14.6
 20
14.9
 30
0.0
 11
-14.4
 21
14.9
 31
0.0
  0
POLYLINE
  8
STANDARD
 62
     7
  5
274
 66
     1
 10
0.0
 20
0.0
 30
0.0
  0
VERTEX
  8
STANDARD
 62
     7
  5
275
 10
-14.6
 20
14.9
 30
0.0
  0
VERTEX
  8
STANDARD
 62
     7
  5
276
 10
-14.52
 20
14.88222
 30
0.0
  0
VERTEX
  8
STANDARD
 62
     7
  5
277
 10
-14.52
 20
14.91778
 30
0.0
  0
VERTEX
  8
STANDARD
 62
     7
  5
278
 10
-14.6
 20
14.9
 30
0.0
  0
SEQEND
  8
0
  5
279
  0
LINE
  8
STANDARD
 62
     7
  5
27A
 10
-18.3
 20
-0.1
 30
0.0
 11
-18.1
 21
-0.1
 31
0.0
  0
LINE
  8
STANDARD
 62
     7
  5
27B
 10
-18.3
 20
6.0
 30
0.0
 11
-18.1
 21
6.0
 31
0.0
  0
LINE
  8
STANDARD
 62
     7
  5
27C
 10
-18.3
 20
12.1
 30
0.0
 11
-18.1
 21
12.1
 31
0.0
  0
LINE
  8
STANDARD
 62
     7
  5
27D
 10
-17.9
 20
3.6
 30
0.0
 11
-18.1
 21
3.6
 31
0.0
  0
LINE
  8
STANDARD
 62
     7
  5
27E
 10
-17.9
 20
9.7
 30
0.0
 11
-18.1
 21
9.7
 31
0.0
  0
LINE
  8
STANDARD
 62
     7
  5
27F
 10
-17.9
 20
15.8
 30
0.0
 11
-18.1
 21
15.8
 31
0.0
  0
TEXT
  8
STANDARD
 62
     7
  5
280
 10
-13.215
 20
-0.55
 30
0.0
 40
0.1
  1
up/dn
  7
STYLE1
 72
     2
 11
-12.9
 21
-0.5
 31
0.0
 73
     2
  0
TEXT
  8
STANDARD
 62
     7
  5
281
 10
-13.215
 20
5.55
 30
0.0
 40
0.1
  1
up/dn
  7
STYLE1
 72
     2
 11
-12.9
 21
5.6
 31
0.0
 73
     2
  0
TEXT
  8
STANDARD
 62
     7
  5
282
 10
-13.215
 20
11.65
 30
0.0
 40
0.1
  1
up/dn
  7
STYLE1
 72
     2
 11
-12.9
 21
11.7
 31
0.0
 73
     2
  0
TEXT
  8
STANDARD
 62
     7
  5
283
 10
-13.815
 20
2.05
 30
0.0
 40
0.1
  1
up/dn
  7
STYLE1
 72
     2
 11
-13.5
 21
2.1
 31
0.0
 73
     2
  0
TEXT
  8
STANDARD
 62
     7
  5
284
 10
-13.815
 20
8.15
 30
0.0
 40
0.1
  1
up/dn
  7
STYLE1
 72
     2
 11
-13.5
 21
8.2
 31
0.0
 73
     2
  0
TEXT
  8
STANDARD
 62
     7
  5
285
 10
-13.815
 20
14.25
 30
0.0
 40
0.1
  1
up/dn
  7
STYLE1
 72
     2
 11
-13.5
 21
14.3
 31
0.0
 73
     2
  0
TEXT
  8
STANDARD
 62
     7
  5
286
 10
-13.215
 20
-0.75
 30
0.0
 40
0.1
  1
count
  7
STYLE1
 72
     2
 11
-12.9
 21
-0.7
 31
0.0
 73
     2
  0
TEXT
  8
STANDARD
 62
     7
  5
287
 10
-13.215
 20
5.35
 30
0.0
 40
0.1
  1
count
  7
STYLE1
 72
     2
 11
-12.9
 21
5.4
 31
0.0
 73
     2
  0
TEXT
  8
STANDARD
 62
     7
  5
288
 10
-13.215
 20
11.45
 30
0.0
 40
0.1
  1
count
  7
STYLE1
 72
     2
 11
-12.9
 21
11.5
 31
0.0
 73
     2
  0
TEXT
  8
STANDARD
 62
     7
  5
289
 10
-13.815
 20
1.85
 30
0.0
 40
0.1
  1
count
  7
STYLE1
 72
     2
 11
-13.5
 21
1.9
 31
0.0
 73
     2
  0
TEXT
  8
STANDARD
 62
     7
  5
28A
 10
-13.815
 20
7.95
 30
0.0
 40
0.1
  1
count
  7
STYLE1
 72
     2
 11
-13.5
 21
8.0
 31
0.0
 73
     2
  0
TEXT
  8
STANDARD
 62
     7
  5
28B
 10
-13.815
 20
14.05
 30
0.0
 40
0.1
  1
count
  7
STYLE1
 72
     2
 11
-13.5
 21
14.1
 31
0.0
 73
     2
  0
LINE
  8
STANDARD
 62
     7
  5
28C
 10
-14.4
 20
2.0
 30
0.0
 11
-14.1
 21
2.0
 31
0.0
  0
POLYLINE
  8
STANDARD
 62
     7
  5
28D
 66
     1
 10
0.0
 20
0.0
 30
0.0
  0
VERTEX
  8
STANDARD
 62
     7
  5
28E
 10
-14.4
 20
2.0
 30
0.0
  0
VERTEX
  8
STANDARD
 62
     7
  5
28F
 10
-14.32
 20
1.98222
 30
0.0
  0
VERTEX
  8
STANDARD
 62
     7
  5
290
 10
-14.32
 20
2.01778
 30
0.0
  0
VERTEX
  8
STANDARD
 62
     7
  5
291
 10
-14.4
 20
2.0
 30
0.0
  0
SEQEND
  8
0
  5
292
  0
LINE
  8
STANDARD
 62
     7
  5
293
 10
-14.4
 20
8.1
 30
0.0
 11
-14.1
 21
8.1
 31
0.0
  0
POLYLINE
  8
STANDARD
 62
     7
  5
294
 66
     1
 10
0.0
 20
0.0
 30
0.0
  0
VERTEX
  8
STANDARD
 62
     7
  5
295
 10
-14.4
 20
8.1
 30
0.0
  0
VERTEX
  8
STANDARD
 62
     7
  5
296
 10
-14.32
 20
8.08222
 30
0.0
  0
VERTEX
  8
STANDARD
 62
     7
  5
297
 10
-14.32
 20
8.11778
 30
0.0
  0
VERTEX
  8
STANDARD
 62
     7
  5
298
 10
-14.4
 20
8.1
 30
0.0
  0
SEQEND
  8
0
  5
299
  0
LINE
  8
STANDARD
 62
     7
  5
29A
 10
-14.4
 20
14.2
 30
0.0
 11
-14.1
 21
14.2
 31
0.0
  0
POLYLINE
  8
STANDARD
 62
     7
  5
29B
 66
     1
 10
0.0
 20
0.0
 30
0.0
  0
VERTEX
  8
STANDARD
 62
     7
  5
29C
 10
-14.4
 20
14.2
 30
0.0
  0
VERTEX
  8
STANDARD
 62
     7
  5
29D
 10
-14.32
 20
14.18222
 30
0.0
  0
VERTEX
  8
STANDARD
 62
     7
  5
29E
 10
-14.32
 20
14.21778
 30
0.0
  0
VERTEX
  8
STANDARD
 62
     7
  5
29F
 10
-14.4
 20
14.2
 30
0.0
  0
SEQEND
  8
0
  5
2A0
  0
ARC
  8
STANDARD
 62
     7
  5
2A1
 10
-10.85
 20
8.5
 30
0.0
 40
0.15
 50
270.0
 51
450.0
  0
LINE
  8
STANDARD
 62
     7
  5
2A2
 10
-10.85
 20
8.35
 30
0.0
 11
-11.1
 21
8.35
 31
0.0
  0
LINE
  8
STANDARD
 62
     7
  5
2A3
 10
-11.1
 20
8.35
 30
0.0
 11
-11.1
 21
8.65
 31
0.0
  0
LINE
  8
STANDARD
 62
     7
  5
2A4
 10
-11.1
 20
8.65
 30
0.0
 11
-10.85
 21
8.65
 31
0.0
  0
ARC
  8
STANDARD
 62
     7
  5
2A5
 10
-10.85
 20
9.0
 30
0.0
 40
0.15
 50
270.0
 51
450.0
  0
LINE
  8
STANDARD
 62
     7
  5
2A6
 10
-10.85
 20
8.85
 30
0.0
 11
-11.1
 21
8.85
 31
0.0
  0
LINE
  8
STANDARD
 62
     7
  5
2A7
 10
-11.1
 20
8.85
 30
0.0
 11
-11.1
 21
9.15
 31
0.0
  0
LINE
  8
STANDARD
 62
     7
  5
2A8
 10
-11.1
 20
9.15
 30
0.0
 11
-10.85
 21
9.15
 31
0.0
  0
POLYLINE
  8
STANDARD
 62
     7
  5
2A9
 66
     1
 10
0.0
 20
0.0
 30
0.0
  0
VERTEX
  8
STANDARD
 62
     7
  5
2AA
 10
-16.3
 20
2.0
 30
0.0
  0
VERTEX
  8
STANDARD
 62
     7
  5
2AB
 10
-14.4
 20
2.0
 30
0.0
  0
SEQEND
  8
0
  5
2AC
  0
POLYLINE
  8
STANDARD
 62
     7
  5
2AD
 66
     1
 10
0.0
 20
0.0
 30
0.0
  0
VERTEX
  8
STANDARD
 62
     7
  5
2AE
 10
-16.3
 20
2.0
 30
0.0
  0
VERTEX
  8
STANDARD
 62
     7
  5
2AF
 10
-16.22
 20
1.98222
 30
0.0
  0
VERTEX
  8
STANDARD
 62
     7
  5
2B0
 10
-16.22
 20
2.01778
 30
0.0
  0
VERTEX
  8
STANDARD
 62
     7
  5
2B1
 10
-16.3
 20
2.0
 30
0.0
  0
SEQEND
  8
0
  5
2B2
  0
POLYLINE
  8
STANDARD
 62
     7
  5
2B3
 66
     1
 10
0.0
 20
0.0
 30
0.0
  0
VERTEX
  8
STANDARD
 62
     7
  5
2B4
 10
-16.3
 20
8.1
 30
0.0
  0
VERTEX
  8
STANDARD
 62
     7
  5
2B5
 10
-14.4
 20
8.1
 30
0.0
  0
SEQEND
  8
0
  5
2B6
  0
POLYLINE
  8
STANDARD
 62
     7
  5
2B7
 66
     1
 10
0.0
 20
0.0
 30
0.0
  0
VERTEX
  8
STANDARD
 62
     7
  5
2B8
 10
-16.3
 20
8.1
 30
0.0
  0
VERTEX
  8
STANDARD
 62
     7
  5
2B9
 10
-16.22
 20
8.08222
 30
0.0
  0
VERTEX
  8
STANDARD
 62
     7
  5
2BA
 10
-16.22
 20
8.11778
 30
0.0
  0
VERTEX
  8
STANDARD
 62
     7
  5
2BB
 10
-16.3
 20
8.1
 30
0.0
  0
SEQEND
  8
0
  5
2BC
  0
POLYLINE
  8
STANDARD
 62
     7
  5
2BD
 66
     1
 10
0.0
 20
0.0
 30
0.0
  0
VERTEX
  8
STANDARD
 62
     7
  5
2BE
 10
-16.3
 20
14.2
 30
0.0
  0
VERTEX
  8
STANDARD
 62
     7
  5
2BF
 10
-14.4
 20
14.2
 30
0.0
  0
SEQEND
  8
0
  5
2C0
  0
POLYLINE
  8
STANDARD
 62
     7
  5
2C1
 66
     1
 10
0.0
 20
0.0
 30
0.0
  0
VERTEX
  8
STANDARD
 62
     7
  5
2C2
 10
-16.3
 20
14.2
 30
0.0
  0
VERTEX
  8
STANDARD
 62
     7
  5
2C3
 10
-16.22
 20
14.18222
 30
0.0
  0
VERTEX
  8
STANDARD
 62
     7
  5
2C4
 10
-16.22
 20
14.21778
 30
0.0
  0
VERTEX
  8
STANDARD
 62
     7
  5
2C5
 10
-16.3
 20
14.2
 30
0.0
  0
SEQEND
  8
0
  5
2C6
  0
LINE
  8
STANDARD
 62
     7
  5
2C7
 10
-17.95
 20
3.0
 30
0.0
 11
-17.5
 21
3.0
 31
0.0
  0
POLYLINE
  8
STANDARD
 62
     7
  5
2C8
 66
     1
 10
0.0
 20
0.0
 30
0.0
  0
VERTEX
  8
STANDARD
 62
     7
  5
2C9
 10
-17.95
 20
3.0
 30
0.0
  0
VERTEX
  8
STANDARD
 62
     7
  5
2CA
 10
-17.87
 20
2.98222
 30
0.0
  0
VERTEX
  8
STANDARD
 62
     7
  5
2CB
 10
-17.87
 20
3.01778
 30
0.0
  0
VERTEX
  8
STANDARD
 62
     7
  5
2CC
 10
-17.95
 20
3.0
 30
0.0
  0
SEQEND
  8
0
  5
2CD
  0
LINE
  8
STANDARD
 62
     7
  5
2CE
 10
-17.95
 20
9.1
 30
0.0
 11
-17.5
 21
9.1
 31
0.0
  0
POLYLINE
  8
STANDARD
 62
     7
  5
2CF
 66
     1
 10
0.0
 20
0.0
 30
0.0
  0
VERTEX
  8
STANDARD
 62
     7
  5
2D0
 10
-17.95
 20
9.1
 30
0.0
  0
VERTEX
  8
STANDARD
 62
     7
  5
2D1
 10
-17.87
 20
9.08222
 30
0.0
  0
VERTEX
  8
STANDARD
 62
     7
  5
2D2
 10
-17.87
 20
9.11778
 30
0.0
  0
VERTEX
  8
STANDARD
 62
     7
  5
2D3
 10
-17.95
 20
9.1
 30
0.0
  0
SEQEND
  8
0
  5
2D4
  0
LINE
  8
STANDARD
 62
     7
  5
2D5
 10
-17.95
 20
15.2
 30
0.0
 11
-17.5
 21
15.2
 31
0.0
  0
POLYLINE
  8
STANDARD
 62
     7
  5
2D6
 66
     1
 10
0.0
 20
0.0
 30
0.0
  0
VERTEX
  8
STANDARD
 62
     7
  5
2D7
 10
-17.95
 20
15.2
 30
0.0
  0
VERTEX
  8
STANDARD
 62
     7
  5
2D8
 10
-17.87
 20
15.18222
 30
0.0
  0
VERTEX
  8
STANDARD
 62
     7
  5
2D9
 10
-17.87
 20
15.21778
 30
0.0
  0
VERTEX
  8
STANDARD
 62
     7
  5
2DA
 10
-17.95
 20
15.2
 30
0.0
  0
SEQEND
  8
0
  5
2DB
  0
LINE
  8
STANDARD
 62
     7
  5
2DC
 10
-18.1
 20
-0.1
 30
0.0
 11
-18.1
 21
-0.45
 31
0.0
  0
POLYLINE
  8
STANDARD
 62
     7
  5
2DD
 66
     1
 10
0.0
 20
0.0
 30
0.0
  0
VERTEX
  8
STANDARD
 62
     7
  5
2DE
 10
-18.1
 20
-0.45
 30
0.0
  0
VERTEX
  8
STANDARD
 62
     7
  5
2DF
 10
-18.08222
 20
-0.37
 30
0.0
  0
VERTEX
  8
STANDARD
 62
     7
  5
2E0
 10
-18.11778
 20
-0.37
 30
0.0
  0
VERTEX
  8
STANDARD
 62
     7
  5
2E1
 10
-18.1
 20
-0.45
 30
0.0
  0
SEQEND
  8
0
  5
2E2
  0
LINE
  8
STANDARD
 62
     7
  5
2E3
 10
-18.1
 20
6.0
 30
0.0
 11
-18.1
 21
5.65
 31
0.0
  0
POLYLINE
  8
STANDARD
 62
     7
  5
2E4
 66
     1
 10
0.0
 20
0.0
 30
0.0
  0
VERTEX
  8
STANDARD
 62
     7
  5
2E5
 10
-18.1
 20
5.65
 30
0.0
  0
VERTEX
  8
STANDARD
 62
     7
  5
2E6
 10
-18.08222
 20
5.73
 30
0.0
  0
VERTEX
  8
STANDARD
 62
     7
  5
2E7
 10
-18.11778
 20
5.73
 30
0.0
  0
VERTEX
  8
STANDARD
 62
     7
  5
2E8
 10
-18.1
 20
5.65
 30
0.0
  0
SEQEND
  8
0
  5
2E9
  0
LINE
  8
STANDARD
 62
     7
  5
2EA
 10
-18.1
 20
12.1
 30
0.0
 11
-18.1
 21
11.75
 31
0.0
  0
POLYLINE
  8
STANDARD
 62
     7
  5
2EB
 66
     1
 10
0.0
 20
0.0
 30
0.0
  0
VERTEX
  8
STANDARD
 62
     7
  5
2EC
 10
-18.1
 20
11.75
 30
0.0
  0
VERTEX
  8
STANDARD
 62
     7
  5
2ED
 10
-18.08222
 20
11.83
 30
0.0
  0
VERTEX
  8
STANDARD
 62
     7
  5
2EE
 10
-18.11778
 20
11.83
 30
0.0
  0
VERTEX
  8
STANDARD
 62
     7
  5
2EF
 10
-18.1
 20
11.75
 30
0.0
  0
SEQEND
  8
0
  5
2F0
  0
LINE
  8
STANDARD
 62
     7
  5
2F1
 10
-18.1
 20
3.6
 30
0.0
 11
-18.1
 21
3.15
 31
0.0
  0
POLYLINE
  8
STANDARD
 62
     7
  5
2F2
 66
     1
 10
0.0
 20
0.0
 30
0.0
  0
VERTEX
  8
STANDARD
 62
     7
  5
2F3
 10
-18.1
 20
3.15
 30
0.0
  0
VERTEX
  8
STANDARD
 62
     7
  5
2F4
 10
-18.08222
 20
3.23
 30
0.0
  0
VERTEX
  8
STANDARD
 62
     7
  5
2F5
 10
-18.11778
 20
3.23
 30
0.0
  0
VERTEX
  8
STANDARD
 62
     7
  5
2F6
 10
-18.1
 20
3.15
 30
0.0
  0
SEQEND
  8
0
  5
2F7
  0
LINE
  8
STANDARD
 62
     7
  5
2F8
 10
-18.1
 20
9.7
 30
0.0
 11
-18.1
 21
9.25
 31
0.0
  0
POLYLINE
  8
STANDARD
 62
     7
  5
2F9
 66
     1
 10
0.0
 20
0.0
 30
0.0
  0
VERTEX
  8
STANDARD
 62
     7
  5
2FA
 10
-18.1
 20
9.25
 30
0.0
  0
VERTEX
  8
STANDARD
 62
     7
  5
2FB
 10
-18.08222
 20
9.33
 30
0.0
  0
VERTEX
  8
STANDARD
 62
     7
  5
2FC
 10
-18.11778
 20
9.33
 30
0.0
  0
VERTEX
  8
STANDARD
 62
     7
  5
2FD
 10
-18.1
 20
9.25
 30
0.0
  0
SEQEND
  8
0
  5
2FE
  0
LINE
  8
STANDARD
 62
     7
  5
2FF
 10
-18.1
 20
15.8
 30
0.0
 11
-18.1
 21
15.35
 31
0.0
  0
POLYLINE
  8
STANDARD
 62
     7
  5
300
 66
     1
 10
0.0
 20
0.0
 30
0.0
  0
VERTEX
  8
STANDARD
 62
     7
  5
301
 10
-18.1
 20
15.35
 30
0.0
  0
VERTEX
  8
STANDARD
 62
     7
  5
302
 10
-18.08222
 20
15.43
 30
0.0
  0
VERTEX
  8
STANDARD
 62
     7
  5
303
 10
-18.11778
 20
15.43
 30
0.0
  0
VERTEX
  8
STANDARD
 62
     7
  5
304
 10
-18.1
 20
15.35
 30
0.0
  0
SEQEND
  8
0
  5
305
  0
LINE
  8
STANDARD
 62
     7
  5
306
 10
-16.9
 20
2.0
 30
0.0
 11
-17.5
 21
2.0
 31
0.0
  0
POLYLINE
  8
STANDARD
 62
     7
  5
307
 66
     1
 10
0.0
 20
0.0
 30
0.0
  0
VERTEX
  8
STANDARD
 62
     7
  5
308
 10
-17.5
 20
2.0
 30
0.0
  0
VERTEX
  8
STANDARD
 62
     7
  5
309
 10
-17.42
 20
1.98222
 30
0.0
  0
VERTEX
  8
STANDARD
 62
     7
  5
30A
 10
-17.42
 20
2.01778
 30
0.0
  0
VERTEX
  8
STANDARD
 62
     7
  5
30B
 10
-17.5
 20
2.0
 30
0.0
  0
SEQEND
  8
0
  5
30C
  0
LINE
  8
STANDARD
 62
     7
  5
30D
 10
-16.9
 20
8.1
 30
0.0
 11
-17.5
 21
8.1
 31
0.0
  0
POLYLINE
  8
STANDARD
 62
     7
  5
30E
 66
     1
 10
0.0
 20
0.0
 30
0.0
  0
VERTEX
  8
STANDARD
 62
     7
  5
30F
 10
-17.5
 20
8.1
 30
0.0
  0
VERTEX
  8
STANDARD
 62
     7
  5
310
 10
-17.42
 20
8.08222
 30
0.0
  0
VERTEX
  8
STANDARD
 62
     7
  5
311
 10
-17.42
 20
8.11778
 30
0.0
  0
VERTEX
  8
STANDARD
 62
     7
  5
312
 10
-17.5
 20
8.1
 30
0.0
  0
SEQEND
  8
0
  5
313
  0
LINE
  8
STANDARD
 62
     7
  5
314
 10
-16.9
 20
14.2
 30
0.0
 11
-17.5
 21
14.2
 31
0.0
  0
POLYLINE
  8
STANDARD
 62
     7
  5
315
 66
     1
 10
0.0
 20
0.0
 30
0.0
  0
VERTEX
  8
STANDARD
 62
     7
  5
316
 10
-17.5
 20
14.2
 30
0.0
  0
VERTEX
  8
STANDARD
 62
     7
  5
317
 10
-17.42
 20
14.18222
 30
0.0
  0
VERTEX
  8
STANDARD
 62
     7
  5
318
 10
-17.42
 20
14.21778
 30
0.0
  0
VERTEX
  8
STANDARD
 62
     7
  5
319
 10
-17.5
 20
14.2
 30
0.0
  0
SEQEND
  8
0
  5
31A
  0
LINE
  8
STANDARD
 62
     7
  5
31B
 10
-17.5
 20
2.0
 30
0.0
 11
-18.6
 21
2.0
 31
0.0
  0
POLYLINE
  8
STANDARD
 62
     7
  5
31C
 66
     1
 10
0.0
 20
0.0
 30
0.0
  0
VERTEX
  8
STANDARD
 62
     7
  5
31D
 10
-18.6
 20
2.0
 30
0.0
  0
VERTEX
  8
STANDARD
 62
     7
  5
31E
 10
-18.52
 20
1.98222
 30
0.0
  0
VERTEX
  8
STANDARD
 62
     7
  5
31F
 10
-18.52
 20
2.01778
 30
0.0
  0
VERTEX
  8
STANDARD
 62
     7
  5
320
 10
-18.6
 20
2.0
 30
0.0
  0
SEQEND
  8
0
  5
321
  0
LINE
  8
STANDARD
 62
     7
  5
322
 10
-17.5
 20
8.1
 30
0.0
 11
-18.6
 21
8.1
 31
0.0
  0
POLYLINE
  8
STANDARD
 62
     7
  5
323
 66
     1
 10
0.0
 20
0.0
 30
0.0
  0
VERTEX
  8
STANDARD
 62
     7
  5
324
 10
-18.6
 20
8.1
 30
0.0
  0
VERTEX
  8
STANDARD
 62
     7
  5
325
 10
-18.52
 20
8.08222
 30
0.0
  0
VERTEX
  8
STANDARD
 62
     7
  5
326
 10
-18.52
 20
8.11778
 30
0.0
  0
VERTEX
  8
STANDARD
 62
     7
  5
327
 10
-18.6
 20
8.1
 30
0.0
  0
SEQEND
  8
0
  5
328
  0
LINE
  8
STANDARD
 62
     7
  5
329
 10
-17.5
 20
14.2
 30
0.0
 11
-18.6
 21
14.2
 31
0.0
  0
POLYLINE
  8
STANDARD
 62
     7
  5
32A
 66
     1
 10
0.0
 20
0.0
 30
0.0
  0
VERTEX
  8
STANDARD
 62
     7
  5
32B
 10
-18.6
 20
14.2
 30
0.0
  0
VERTEX
  8
STANDARD
 62
     7
  5
32C
 10
-18.52
 20
14.18222
 30
0.0
  0
VERTEX
  8
STANDARD
 62
     7
  5
32D
 10
-18.52
 20
14.21778
 30
0.0
  0
VERTEX
  8
STANDARD
 62
     7
  5
32E
 10
-18.6
 20
14.2
 30
0.0
  0
SEQEND
  8
0
  5
32F
  0
LINE
  8
STANDARD
 62
     7
  5
330
 10
-18.25
 20
3.0
 30
0.0
 11
-18.6
 21
3.0
 31
0.0
  0
POLYLINE
  8
STANDARD
 62
     7
  5
331
 66
     1
 10
0.0
 20
0.0
 30
0.0
  0
VERTEX
  8
STANDARD
 62
     7
  5
332
 10
-18.6
 20
3.0
 30
0.0
  0
VERTEX
  8
STANDARD
 62
     7
  5
333
 10
-18.52
 20
2.98222
 30
0.0
  0
VERTEX
  8
STANDARD
 62
     7
  5
334
 10
-18.52
 20
3.01778
 30
0.0
  0
VERTEX
  8
STANDARD
 62
     7
  5
335
 10
-18.6
 20
3.0
 30
0.0
  0
SEQEND
  8
0
  5
336
  0
LINE
  8
STANDARD
 62
     7
  5
337
 10
-18.25
 20
9.1
 30
0.0
 11
-18.6
 21
9.1
 31
0.0
  0
POLYLINE
  8
STANDARD
 62
     7
  5
338
 66
     1
 10
0.0
 20
0.0
 30
0.0
  0
VERTEX
  8
STANDARD
 62
     7
  5
339
 10
-18.6
 20
9.1
 30
0.0
  0
VERTEX
  8
STANDARD
 62
     7
  5
33A
 10
-18.52
 20
9.08222
 30
0.0
  0
VERTEX
  8
STANDARD
 62
     7
  5
33B
 10
-18.52
 20
9.11778
 30
0.0
  0
VERTEX
  8
STANDARD
 62
     7
  5
33C
 10
-18.6
 20
9.1
 30
0.0
  0
SEQEND
  8
0
  5
33D
  0
LINE
  8
STANDARD
 62
     7
  5
33E
 10
-18.25
 20
15.2
 30
0.0
 11
-18.6
 21
15.2
 31
0.0
  0
POLYLINE
  8
STANDARD
 62
     7
  5
33F
 66
     1
 10
0.0
 20
0.0
 30
0.0
  0
VERTEX
  8
STANDARD
 62
     7
  5
340
 10
-18.6
 20
15.2
 30
0.0
  0
VERTEX
  8
STANDARD
 62
     7
  5
341
 10
-18.52
 20
15.18222
 30
0.0
  0
VERTEX
  8
STANDARD
 62
     7
  5
342
 10
-18.52
 20
15.21778
 30
0.0
  0
VERTEX
  8
STANDARD
 62
     7
  5
343
 10
-18.6
 20
15.2
 30
0.0
  0
SEQEND
  8
0
  5
344
  0
LINE
  8
STANDARD
 62
     7
  5
345
 10
-17.5
 20
3.0
 30
0.0
 11
-17.5
 21
2.0
 31
0.0
  0
LINE
  8
STANDARD
 62
     7
  5
346
 10
-17.5
 20
9.1
 30
0.0
 11
-17.5
 21
8.1
 31
0.0
  0
LINE
  8
STANDARD
 62
     7
  5
347
 10
-17.5
 20
15.2
 30
0.0
 11
-17.5
 21
14.2
 31
0.0
  0
LINE
  8
STANDARD
  6
DASH
 62
     7
  5
349
 10
-16.0
 20
4.2
 30
0.0
 11
-16.0
 21
-1.6
 31
0.0
  0
LINE
  8
STANDARD
  6
DASH
 62
     7
  5
34A
 10
-16.0
 20
10.3
 30
0.0
 11
-16.0
 21
4.5
 31
0.0
  0
LINE
  8
STANDARD
  6
DASH
 62
     7
  5
34B
 10
-16.0
 20
16.4
 30
0.0
 11
-16.0
 21
10.6
 31
0.0
  0
TEXT
  8
STANDARD
 62
     7
  5
34C
 10
-12.2575
 20
3.85
 30
0.0
 40
0.1
  1
make_pulses()
  7
STYLE1
 72
     1
 11
-11.9
 21
3.9
 31
0.0
 73
     2
  0
TEXT
  8
STANDARD
 62
     7
  5
34D
 10
-12.2575
 20
9.95
 30
0.0
 40
0.1
  1
make_pulses()
  7
STYLE1
 72
     1
 11
-11.9
 21
10.0
 31
0.0
 73
     2
  0
TEXT
  8
STANDARD
 62
     7
  5
34E
 10
-10.8575
 20
4.85
 30
0.0
 40
0.1
  1
STEP TYPE = 1
  7
STYLE1
 72
     1
 11
-10.5
 21
4.9
 31
0.0
 73
     2
  0
TEXT
  8
STANDARD
 62
     7
  5
34F
 10
-10.995
 20
-1.25
 30
0.0
 40
0.1
  1
STEP TYPE = 2 - 14
  7
STYLE1
 72
     1
 11
-10.5
 21
-1.2
 31
0.0
 73
     2
  0
TEXT
  8
STANDARD
 62
     7
  5
350
 10
-10.8575
 20
10.95
 30
0.0
 40
0.1
  1
STEP TYPE = 0
  7
STYLE1
 72
     1
 11
-10.5
 21
11.0
 31
0.0
 73
     2
  0
TEXT
  8
STANDARD
 62
     7
  5
351
 10
-12.2575
 20
16.05
 30
0.0
 40
0.1
  1
make_pulses()
  7
STYLE1
 72
     1
 11
-11.9
 21
16.1
 31
0.0
 73
     2
  0
TEXT
  8
STANDARD
 62
     7
  5
352
 10
-19.1575
 20
0.75
 30
0.0
 40
0.1
  1
update_freq()
  7
STYLE1
 72
     1
 11
-18.8
 21
0.8
 31
0.0
 73
     2
  0
TEXT
  8
STANDARD
 62
     7
  5
353
 10
-19.1575
 20
6.85
 30
0.0
 40
0.1
  1
update_freq()
  7
STYLE1
 72
     1
 11
-18.8
 21
6.9
 31
0.0
 73
     2
  0
TEXT
  8
STANDARD
 62
     7
  5
354
 10
-19.1575
 20
12.95
 30
0.0
 40
0.1
  1
update_freq()
  7
STYLE1
 72
     1
 11
-18.8
 21
13.0
 31
0.0
 73
     2
  0
TEXT
  8
STANDARD
 62
     7
  5
355
 10
-19.295
 20
3.85
 30
0.0
 40
0.1
  1
capture_position()
  7
STYLE1
 72
     1
 11
-18.8
 21
3.9
 31
0.0
 73
     2
  0
TEXT
  8
STANDARD
 62
     7
  5
356
 10
-19.295
 20
9.95
 30
0.0
 40
0.1
  1
capture_position()
  7
STYLE1
 72
     1
 11
-18.8
 21
10.0
 31
0.0
 73
     2
  0
TEXT
  8
STANDARD
 62
     7
  5
357
 10
-19.295
 20
16.05
 30
0.0
 40
0.1
  1
capture_position()
  7
STYLE1
 72
     1
 11
-18.8
 21
16.1
 31
0.0
 73
     2
  0
TEXT
  8
STANDARD
 62
     7
  5
358
 10
-19.095
 20
-1.4
 30
0.0
 40
0.2
  1
freqgen.0
  7
STYLE1
 72
     1
 11
-18.6
 21
-1.3
 31
0.0
 73
     2
  0
TEXT
  8
STANDARD
 62
     7
  5
359
 10
-19.095
 20
4.7
 30
0.0
 40
0.2
  1
freqgen.0
  7
STYLE1
 72
     1
 11
-18.6
 21
4.8
 31
0.0
 73
     2
  0
TEXT
  8
STANDARD
 62
     7
  5
35A
 10
-19.095
 20
10.8
 30
0.0
 40
0.2
  1
freqgen.0
  7
STYLE1
 72
     1
 11
-18.6
 21
10.9
 31
0.0
 73
     2
  0
LINE
  8
STANDARD
 62
     7
  5
35B
 10
-18.25
 20
-0.6
 30
0.0
 11
-18.6
 21
-0.6
 31
0.0
  0
POLYLINE
  8
STANDARD
 62
     7
  5
35C
 66
     1
 10
0.0
 20
0.0
 30
0.0
  0
VERTEX
  8
STANDARD
 62
     7
  5
35D
 10
-18.25
 20
-0.6
 30
0.0
  0
VERTEX
  8
STANDARD
 62
     7
  5
35E
 10
-18.33
 20
-0.58222
 30
0.0
  0
VERTEX
  8
STANDARD
 62
     7
  5
35F
 10
-18.33
 20
-0.61778
 30
0.0
  0
VERTEX
  8
STANDARD
 62
     7
  5
360
 10
-18.25
 20
-0.6
 30
0.0
  0
SEQEND
  8
0
  5
361
  0
LINE
  8
STANDARD
 62
     7
  5
362
 10
-18.25
 20
5.5
 30
0.0
 11
-18.6
 21
5.5
 31
0.0
  0
POLYLINE
  8
STANDARD
 62
     7
  5
363
 66
     1
 10
0.0
 20
0.0
 30
0.0
  0
VERTEX
  8
STANDARD
 62
     7
  5
364
 10
-18.25
 20
5.5
 30
0.0
  0
VERTEX
  8
STANDARD
 62
     7
  5
365
 10
-18.33
 20
5.51778
 30
0.0
  0
VERTEX
  8
STANDARD
 62
     7
  5
366
 10
-18.33
 20
5.48222
 30
0.0
  0
VERTEX
  8
STANDARD
 62
     7
  5
367
 10
-18.25
 20
5.5
 30
0.0
  0
SEQEND
  8
0
  5
368
  0
LINE
  8
STANDARD
 62
     7
  5
369
 10
-18.25
 20
11.6
 30
0.0
 11
-18.6
 21
11.6
 31
0.0
  0
POLYLINE
  8
STANDARD
 62
     7
  5
36A
 66
     1
 10
0.0
 20
0.0
 30
0.0
  0
VERTEX
  8
STANDARD
 62
     7
  5
36B
 10
-18.25
 20
11.6
 30
0.0
  0
VERTEX
  8
STANDARD
 62
     7
  5
36C
 10
-18.33
 20
11.61778
 30
0.0
  0
VERTEX
  8
STANDARD
 62
     7
  5
36D
 10
-18.33
 20
11.58222
 30
0.0
  0
VERTEX
  8
STANDARD
 62
     7
  5
36E
 10
-18.25
 20
11.6
 30
0.0
  0
SEQEND
  8
0
  5
36F
  0
LINE
  8
STANDARD
 62
     7
  5
370
 10
-17.95
 20
-0.6
 30
0.0
 11
-17.7
 21
-0.6
 31
0.0
  0
POLYLINE
  8
STANDARD
 62
     7
  5
371
 66
     1
 10
0.0
 20
0.0
 30
0.0
  0
VERTEX
  8
STANDARD
 62
     7
  5
372
 10
-17.7
 20
-0.6
 30
0.0
  0
VERTEX
  8
STANDARD
 62
     7
  5
373
 10
-17.78
 20
-0.58222
 30
0.0
  0
VERTEX
  8
STANDARD
 62
     7
  5
374
 10
-17.78
 20
-0.61778
 30
0.0
  0
VERTEX
  8
STANDARD
 62
     7
  5
375
 10
-17.7
 20
-0.6
 30
0.0
  0
SEQEND
  8
0
  5
376
  0
LINE
  8
STANDARD
 62
     7
  5
377
 10
-17.95
 20
5.5
 30
0.0
 11
-17.7
 21
5.5
 31
0.0
  0
POLYLINE
  8
STANDARD
 62
     7
  5
378
 66
     1
 10
0.0
 20
0.0
 30
0.0
  0
VERTEX
  8
STANDARD
 62
     7
  5
379
 10
-17.7
 20
5.5
 30
0.0
  0
VERTEX
  8
STANDARD
 62
     7
  5
37A
 10
-17.78
 20
5.51778
 30
0.0
  0
VERTEX
  8
STANDARD
 62
     7
  5
37B
 10
-17.78
 20
5.48222
 30
0.0
  0
VERTEX
  8
STANDARD
 62
     7
  5
37C
 10
-17.7
 20
5.5
 30
0.0
  0
SEQEND
  8
0
  5
37D
  0
LINE
  8
STANDARD
 62
     7
  5
37E
 10
-17.95
 20
11.6
 30
0.0
 11
-17.7
 21
11.6
 31
0.0
  0
POLYLINE
  8
STANDARD
 62
     7
  5
37F
 66
     1
 10
0.0
 20
0.0
 30
0.0
  0
VERTEX
  8
STANDARD
 62
     7
  5
380
 10
-17.7
 20
11.6
 30
0.0
  0
VERTEX
  8
STANDARD
 62
     7
  5
381
 10
-17.78
 20
11.61778
 30
0.0
  0
VERTEX
  8
STANDARD
 62
     7
  5
382
 10
-17.78
 20
11.58222
 30
0.0
  0
VERTEX
  8
STANDARD
 62
     7
  5
383
 10
-17.7
 20
11.6
 30
0.0
  0
SEQEND
  8
0
  5
384
  0
LINE
  8
STANDARD
 62
     7
  5
385
 10
-17.1
 20
-0.6
 30
0.0
 11
-16.4
 21
-0.6
 31
0.0
  0
POLYLINE
  8
STANDARD
 62
     7
  5
386
 66
     1
 10
0.0
 20
0.0
 30
0.0
  0
VERTEX
  8
STANDARD
 62
     7
  5
387
 10
-16.4
 20
-0.6
 30
0.0
  0
VERTEX
  8
STANDARD
 62
     7
  5
388
 10
-16.48
 20
-0.58222
 30
0.0
  0
VERTEX
  8
STANDARD
 62
     7
  5
389
 10
-16.48
 20
-0.61778
 30
0.0
  0
VERTEX
  8
STANDARD
 62
     7
  5
38A
 10
-16.4
 20
-0.6
 30
0.0
  0
SEQEND
  8
0
  5
38B
  0
LINE
  8
STANDARD
 62
     7
  5
38C
 10
-17.1
 20
5.5
 30
0.0
 11
-16.4
 21
5.5
 31
0.0
  0
POLYLINE
  8
STANDARD
 62
     7
  5
38D
 66
     1
 10
0.0
 20
0.0
 30
0.0
  0
VERTEX
  8
STANDARD
 62
     7
  5
38E
 10
-16.4
 20
5.5
 30
0.0
  0
VERTEX
  8
STANDARD
 62
     7
  5
38F
 10
-16.48
 20
5.51778
 30
0.0
  0
VERTEX
  8
STANDARD
 62
     7
  5
390
 10
-16.48
 20
5.48222
 30
0.0
  0
VERTEX
  8
STANDARD
 62
     7
  5
391
 10
-16.4
 20
5.5
 30
0.0
  0
SEQEND
  8
0
  5
392
  0
LINE
  8
STANDARD
 62
     7
  5
393
 10
-17.1
 20
11.6
 30
0.0
 11
-16.4
 21
11.6
 31
0.0
  0
POLYLINE
  8
STANDARD
 62
     7
  5
394
 66
     1
 10
0.0
 20
0.0
 30
0.0
  0
VERTEX
  8
STANDARD
 62
     7
  5
395
 10
-16.4
 20
11.6
 30
0.0
  0
VERTEX
  8
STANDARD
 62
     7
  5
396
 10
-16.48
 20
11.61778
 30
0.0
  0
VERTEX
  8
STANDARD
 62
     7
  5
397
 10
-16.48
 20
11.58222
 30
0.0
  0
VERTEX
  8
STANDARD
 62
     7
  5
398
 10
-16.4
 20
11.6
 30
0.0
  0
SEQEND
  8
0
  5
399
  0
LINE
  8
STANDARD
 62
     7
  5
39A
 10
-16.4
 20
-0.6
 30
0.0
 11
-14.7
 21
-0.6
 31
0.0
  0
POLYLINE
  8
STANDARD
 62
     7
  5
39B
 66
     1
 10
0.0
 20
0.0
 30
0.0
  0
VERTEX
  8
STANDARD
 62
     7
  5
39C
 10
-14.7
 20
-0.6
 30
0.0
  0
VERTEX
  8
STANDARD
 62
     7
  5
39D
 10
-14.78
 20
-0.58222
 30
0.0
  0
VERTEX
  8
STANDARD
 62
     7
  5
39E
 10
-14.78
 20
-0.61778
 30
0.0
  0
VERTEX
  8
STANDARD
 62
     7
  5
39F
 10
-14.7
 20
-0.6
 30
0.0
  0
SEQEND
  8
0
  5
3A0
  0
LINE
  8
STANDARD
 62
     7
  5
3A1
 10
-16.4
 20
5.5
 30
0.0
 11
-14.7
 21
5.5
 31
0.0
  0
POLYLINE
  8
STANDARD
 62
     7
  5
3A2
 66
     1
 10
0.0
 20
0.0
 30
0.0
  0
VERTEX
  8
STANDARD
 62
     7
  5
3A3
 10
-14.7
 20
5.5
 30
0.0
  0
VERTEX
  8
STANDARD
 62
     7
  5
3A4
 10
-14.78
 20
5.51778
 30
0.0
  0
VERTEX
  8
STANDARD
 62
     7
  5
3A5
 10
-14.78
 20
5.48222
 30
0.0
  0
VERTEX
  8
STANDARD
 62
     7
  5
3A6
 10
-14.7
 20
5.5
 30
0.0
  0
SEQEND
  8
0
  5
3A7
  0
LINE
  8
STANDARD
 62
     7
  5
3A8
 10
-16.4
 20
11.6
 30
0.0
 11
-14.7
 21
11.6
 31
0.0
  0
POLYLINE
  8
STANDARD
 62
     7
  5
3A9
 66
     1
 10
0.0
 20
0.0
 30
0.0
  0
VERTEX
  8
STANDARD
 62
     7
  5
3AA
 10
-14.7
 20
11.6
 30
0.0
  0
VERTEX
  8
STANDARD
 62
     7
  5
3AB
 10
-14.78
 20
11.61778
 30
0.0
  0
VERTEX
  8
STANDARD
 62
     7
  5
3AC
 10
-14.78
 20
11.58222
 30
0.0
  0
VERTEX
  8
STANDARD
 62
     7
  5
3AD
 10
-14.7
 20
11.6
 30
0.0
  0
SEQEND
  8
0
  5
3AE
  0
LINE
  8
STANDARD
 62
     7
  5
3AF
 10
-14.4
 20
0.1
 30
0.0
 11
-14.4
 21
-0.3
 31
0.0
  0
POLYLINE
  8
STANDARD
 62
     7
  5
3B0
 66
     1
 10
0.0
 20
0.0
 30
0.0
  0
VERTEX
  8
STANDARD
 62
     7
  5
3B1
 10
-14.4
 20
-0.3
 30
0.0
  0
VERTEX
  8
STANDARD
 62
     7
  5
3B2
 10
-14.38222
 20
-0.22
 30
0.0
  0
VERTEX
  8
STANDARD
 62
     7
  5
3B3
 10
-14.41778
 20
-0.22
 30
0.0
  0
VERTEX
  8
STANDARD
 62
     7
  5
3B4
 10
-14.4
 20
-0.3
 30
0.0
  0
SEQEND
  8
0
  5
3B5
  0
LINE
  8
STANDARD
 62
     7
  5
3B6
 10
-14.4
 20
6.2
 30
0.0
 11
-14.4
 21
5.8
 31
0.0
  0
POLYLINE
  8
STANDARD
 62
     7
  5
3B7
 66
     1
 10
0.0
 20
0.0
 30
0.0
  0
VERTEX
  8
STANDARD
 62
     7
  5
3B8
 10
-14.4
 20
5.8
 30
0.0
  0
VERTEX
  8
STANDARD
 62
     7
  5
3B9
 10
-14.38222
 20
5.88
 30
0.0
  0
VERTEX
  8
STANDARD
 62
     7
  5
3BA
 10
-14.41778
 20
5.88
 30
0.0
  0
VERTEX
  8
STANDARD
 62
     7
  5
3BB
 10
-14.4
 20
5.8
 30
0.0
  0
SEQEND
  8
0
  5
3BC
  0
LINE
  8
STANDARD
 62
     7
  5
3BD
 10
-14.4
 20
12.3
 30
0.0
 11
-14.4
 21
11.9
 31
0.0
  0
POLYLINE
  8
STANDARD
 62
     7
  5
3BE
 66
     1
 10
0.0
 20
0.0
 30
0.0
  0
VERTEX
  8
STANDARD
 62
     7
  5
3BF
 10
-14.4
 20
11.9
 30
0.0
  0
VERTEX
  8
STANDARD
 62
     7
  5
3C0
 10
-14.38222
 20
11.98
 30
0.0
  0
VERTEX
  8
STANDARD
 62
     7
  5
3C1
 10
-14.41778
 20
11.98
 30
0.0
  0
VERTEX
  8
STANDARD
 62
     7
  5
3C2
 10
-14.4
 20
11.9
 30
0.0
  0
SEQEND
  8
0
  5
3C3
  0
LINE
  8
STANDARD
  6
DASH
 62
     7
  5
3C4
 10
-16.0
 20
1.1
 30
0.0
 11
-19.8
 21
1.1
 31
0.0
  0
LINE
  8
STANDARD
  6
DASH
 62
     7
  5
3C5
 10
-16.0
 20
7.2
 30
0.0
 11
-19.8
 21
7.2
 31
0.0
  0
LINE
  8
STANDARD
  6
DASH
 62
     7
  5
3C6
 10
-16.0
 20
13.3
 30
0.0
 11
-19.8
 21
13.3
 31
0.0
  0
LINE
  8
STANDARD
 62
     7
  5
3C7
 10
-10.8
 20
14.3
 30
0.0
 11
-10.8
 21
14.5
 31
0.0
  0
LINE
  8
STANDARD
 62
     7
  5
3C8
 10
-10.8
 20
14.1
 30
0.0
 11
-10.8
 21
13.9
 31
0.0
  0
LINE
  8
STANDARD
 62
     7
  5
3C9
 10
-12.9
 20
11.7
 30
0.0
 11
-11.5
 21
11.7
 31
0.0
  0
LINE
  8
STANDARD
 62
     7
  5
3CA
 10
-11.3
 20
11.5
 30
0.0
 11
-12.9
 21
11.5
 31
0.0
  0
LINE
  8
STANDARD
 62
     7
  5
3CB
 10
-14.1
 20
-0.6
 30
0.0
 11
-13.7
 21
-0.6
 31
0.0
  0
POLYLINE
  8
STANDARD
 62
     7
  5
3CC
 66
     1
 10
0.0
 20
0.0
 30
0.0
  0
VERTEX
  8
STANDARD
 62
     7
  5
3CD
 10
-13.7
 20
-0.6
 30
0.0
  0
VERTEX
  8
STANDARD
 62
     7
  5
3CE
 10
-13.78
 20
-0.58222
 30
0.0
  0
VERTEX
  8
STANDARD
 62
     7
  5
3CF
 10
-13.78
 20
-0.61778
 30
0.0
  0
VERTEX
  8
STANDARD
 62
     7
  5
3D0
 10
-13.7
 20
-0.6
 30
0.0
  0
SEQEND
  8
0
  5
3D1
  0
LINE
  8
STANDARD
 62
     7
  5
3D2
 10
-14.1
 20
5.5
 30
0.0
 11
-13.7
 21
5.5
 31
0.0
  0
POLYLINE
  8
STANDARD
 62
     7
  5
3D3
 66
     1
 10
0.0
 20
0.0
 30
0.0
  0
VERTEX
  8
STANDARD
 62
     7
  5
3D4
 10
-13.7
 20
5.5
 30
0.0
  0
VERTEX
  8
STANDARD
 62
     7
  5
3D5
 10
-13.78
 20
5.51778
 30
0.0
  0
VERTEX
  8
STANDARD
 62
     7
  5
3D6
 10
-13.78
 20
5.48222
 30
0.0
  0
VERTEX
  8
STANDARD
 62
     7
  5
3D7
 10
-13.7
 20
5.5
 30
0.0
  0
SEQEND
  8
0
  5
3D8
  0
LINE
  8
STANDARD
 62
     7
  5
3D9
 10
-14.1
 20
11.6
 30
0.0
 11
-13.7
 21
11.6
 31
0.0
  0
POLYLINE
  8
STANDARD
 62
     7
  5
3DA
 66
     1
 10
0.0
 20
0.0
 30
0.0
  0
VERTEX
  8
STANDARD
 62
     7
  5
3DB
 10
-13.7
 20
11.6
 30
0.0
  0
VERTEX
  8
STANDARD
 62
     7
  5
3DC
 10
-13.78
 20
11.61778
 30
0.0
  0
VERTEX
  8
STANDARD
 62
     7
  5
3DD
 10
-13.78
 20
11.58222
 30
0.0
  0
VERTEX
  8
STANDARD
 62
     7
  5
3DE
 10
-13.7
 20
11.6
 30
0.0
  0
SEQEND
  8
0
  5
3DF
  0
LINE
  8
STANDARD
 62
     7
  5
3E0
 10
-11.5
 20
12.1
 30
0.0
 11
-11.5
 21
11.7
 31
0.0
  0
POLYLINE
  8
STANDARD
 62
     7
  5
3E1
 66
     1
 10
0.0
 20
0.0
 30
0.0
  0
VERTEX
  8
STANDARD
 62
     7
  5
3E2
 10
-11.5
 20
12.1
 30
0.0
  0
VERTEX
  8
STANDARD
 62
     7
  5
3E3
 10
-11.51778
 20
12.02
 30
0.0
  0
VERTEX
  8
STANDARD
 62
     7
  5
3E4
 10
-11.48222
 20
12.02
 30
0.0
  0
VERTEX
  8
STANDARD
 62
     7
  5
3E5
 10
-11.5
 20
12.1
 30
0.0
  0
SEQEND
  8
0
  5
3E6
  0
LINE
  8
STANDARD
 62
     7
  5
3E7
 10
-11.3
 20
12.1
 30
0.0
 11
-11.3
 21
11.5
 31
0.0
  0
POLYLINE
  8
STANDARD
 62
     7
  5
3E8
 66
     1
 10
0.0
 20
0.0
 30
0.0
  0
VERTEX
  8
STANDARD
 62
     7
  5
3E9
 10
-11.3
 20
12.1
 30
0.0
  0
VERTEX
  8
STANDARD
 62
     7
  5
3EA
 10
-11.31778
 20
12.02
 30
0.0
  0
VERTEX
  8
STANDARD
 62
     7
  5
3EB
 10
-11.28222
 20
12.02
 30
0.0
  0
VERTEX
  8
STANDARD
 62
     7
  5
3EC
 10
-11.3
 20
12.1
 30
0.0
  0
SEQEND
  8
0
  5
3ED
  0
LINE
  8
STANDARD
 62
     7
  5
3EE
 10
-11.3
 20
12.9
 30
0.0
 11
-11.3
 21
14.1
 31
0.0
  0
POLYLINE
  8
STANDARD
 62
     7
  5
3EF
 66
     1
 10
0.0
 20
0.0
 30
0.0
  0
VERTEX
  8
STANDARD
 62
     7
  5
3F0
 10
-11.3
 20
14.1
 30
0.0
  0
VERTEX
  8
STANDARD
 62
     7
  5
3F1
 10
-11.31778
 20
14.02
 30
0.0
  0
VERTEX
  8
STANDARD
 62
     7
  5
3F2
 10
-11.28222
 20
14.02
 30
0.0
  0
VERTEX
  8
STANDARD
 62
     7
  5
3F3
 10
-11.3
 20
14.1
 30
0.0
  0
SEQEND
  8
0
  5
3F4
  0
LINE
  8
STANDARD
 62
     7
  5
3F5
 10
-11.5
 20
12.9
 30
0.0
 11
-11.5
 21
14.3
 31
0.0
  0
POLYLINE
  8
STANDARD
 62
     7
  5
3F6
 66
     1
 10
0.0
 20
0.0
 30
0.0
  0
VERTEX
  8
STANDARD
 62
     7
  5
3F7
 10
-11.5
 20
14.3
 30
0.0
  0
VERTEX
  8
STANDARD
 62
     7
  5
3F8
 10
-11.51778
 20
14.22
 30
0.0
  0
VERTEX
  8
STANDARD
 62
     7
  5
3F9
 10
-11.48222
 20
14.22
 30
0.0
  0
VERTEX
  8
STANDARD
 62
     7
  5
3FA
 10
-11.5
 20
14.3
 30
0.0
  0
SEQEND
  8
0
  5
3FB
  0
LINE
  8
STANDARD
 62
     7
  5
3FC
 10
-10.8
 20
14.5
 30
0.0
 11
-10.4
 21
14.5
 31
0.0
  0
POLYLINE
  8
STANDARD
 62
     7
  5
3FD
 66
     1
 10
0.0
 20
0.0
 30
0.0
  0
VERTEX
  8
STANDARD
 62
     7
  5
3FE
 10
-10.4
 20
14.5
 30
0.0
  0
VERTEX
  8
STANDARD
 62
     7
  5
3FF
 10
-10.48
 20
14.51778
 30
0.0
  0
VERTEX
  8
STANDARD
 62
     7
  5
400
 10
-10.48
 20
14.48222
 30
0.0
  0
VERTEX
  8
STANDARD
 62
     7
  5
401
 10
-10.4
 20
14.5
 30
0.0
  0
SEQEND
  8
0
  5
402
  0
LINE
  8
STANDARD
 62
     7
  5
403
 10
-10.8
 20
13.9
 30
0.0
 11
-10.4
 21
13.9
 31
0.0
  0
POLYLINE
  8
STANDARD
 62
     7
  5
404
 66
     1
 10
0.0
 20
0.0
 30
0.0
  0
VERTEX
  8
STANDARD
 62
     7
  5
405
 10
-10.4
 20
13.9
 30
0.0
  0
VERTEX
  8
STANDARD
 62
     7
  5
406
 10
-10.48
 20
13.91778
 30
0.0
  0
VERTEX
  8
STANDARD
 62
     7
  5
407
 10
-10.48
 20
13.88222
 30
0.0
  0
VERTEX
  8
STANDARD
 62
     7
  5
408
 10
-10.4
 20
13.9
 30
0.0
  0
SEQEND
  8
0
  5
409
  0
LINE
  8
STANDARD
 62
     7
  5
40A
 10
-13.5
 20
14.3
 30
0.0
 11
-10.8
 21
14.3
 31
0.0
  0
POLYLINE
  8
STANDARD
 62
     7
  5
40B
 66
     1
 10
0.0
 20
0.0
 30
0.0
  0
VERTEX
  8
STANDARD
 62
     7
  5
40C
 10
-13.5
 20
14.3
 30
0.0
  0
VERTEX
  8
STANDARD
 62
     7
  5
40D
 10
-13.42
 20
14.28222
 30
0.0
  0
VERTEX
  8
STANDARD
 62
     7
  5
40E
 10
-13.42
 20
14.31778
 30
0.0
  0
VERTEX
  8
STANDARD
 62
     7
  5
40F
 10
-13.5
 20
14.3
 30
0.0
  0
SEQEND
  8
0
  5
410
  0
LINE
  8
STANDARD
 62
     7
  5
411
 10
-13.5
 20
14.1
 30
0.0
 11
-10.8
 21
14.1
 31
0.0
  0
POLYLINE
  8
STANDARD
 62
     7
  5
412
 66
     1
 10
0.0
 20
0.0
 30
0.0
  0
VERTEX
  8
STANDARD
 62
     7
  5
413
 10
-13.5
 20
14.1
 30
0.0
  0
VERTEX
  8
STANDARD
 62
     7
  5
414
 10
-13.42
 20
14.08222
 30
0.0
  0
VERTEX
  8
STANDARD
 62
     7
  5
415
 10
-13.42
 20
14.11778
 30
0.0
  0
VERTEX
  8
STANDARD
 62
     7
  5
416
 10
-13.5
 20
14.1
 30
0.0
  0
SEQEND
  8
0
  5
417
  0
LINE
  8
STANDARD
 62
     7
  5
418
 10
-12.4
 20
12.3
 30
0.0
 11
-12.4
 21
12.6
 31
0.0
  0
LINE
  8
STANDARD
 62
     7
  5
419
 10
-12.4
 20
12.6
 30
0.0
 11
-12.7
 21
12.6
 31
0.0
  0
LINE
  8
STANDARD
 62
     7
  5
41A
 10
-12.3
 20
12.4
 30
0.0
 11
-12.3
 21
12.9
 31
0.0
  0
LINE
  8
STANDARD
 62
     7
  5
41B
 10
-12.3
 20
12.9
 30
0.0
 11
-12.7
 21
12.9
 31
0.0
  0
LINE
  8
STANDARD
 62
     7
  5
41C
 10
-12.2
 20
12.5
 30
0.0
 11
-12.2
 21
13.2
 31
0.0
  0
LINE
  8
STANDARD
 62
     7
  5
41D
 10
-12.2
 20
13.2
 30
0.0
 11
-12.7
 21
13.2
 31
0.0
  0
LINE
  8
STANDARD
 62
     7
  5
41E
 10
-12.1
 20
12.6
 30
0.0
 11
-12.1
 21
13.5
 31
0.0
  0
LINE
  8
STANDARD
 62
     7
  5
41F
 10
-12.1
 20
13.5
 30
0.0
 11
-12.7
 21
13.5
 31
0.0
  0
LINE
  8
STANDARD
 62
     7
  5
420
 10
-11.7
 20
12.6
 30
0.0
 11
-12.1
 21
12.6
 31
0.0
  0
POLYLINE
  8
STANDARD
 62
     7
  5
421
 66
     1
 10
0.0
 20
0.0
 30
0.0
  0
VERTEX
  8
STANDARD
 62
     7
  5
422
 10
-11.7
 20
12.6
 30
0.0
  0
VERTEX
  8
STANDARD
 62
     7
  5
423
 10
-11.78
 20
12.61778
 30
0.0
  0
VERTEX
  8
STANDARD
 62
     7
  5
424
 10
-11.78
 20
12.58222
 30
0.0
  0
VERTEX
  8
STANDARD
 62
     7
  5
425
 10
-11.7
 20
12.6
 30
0.0
  0
SEQEND
  8
0
  5
426
  0
LINE
  8
STANDARD
 62
     7
  5
427
 10
-11.7
 20
12.5
 30
0.0
 11
-12.2
 21
12.5
 31
0.0
  0
POLYLINE
  8
STANDARD
 62
     7
  5
428
 66
     1
 10
0.0
 20
0.0
 30
0.0
  0
VERTEX
  8
STANDARD
 62
     7
  5
429
 10
-11.7
 20
12.5
 30
0.0
  0
VERTEX
  8
STANDARD
 62
     7
  5
42A
 10
-11.78
 20
12.51778
 30
0.0
  0
VERTEX
  8
STANDARD
 62
     7
  5
42B
 10
-11.78
 20
12.48222
 30
0.0
  0
VERTEX
  8
STANDARD
 62
     7
  5
42C
 10
-11.7
 20
12.5
 30
0.0
  0
SEQEND
  8
0
  5
42D
  0
LINE
  8
STANDARD
 62
     7
  5
42E
 10
-11.7
 20
12.4
 30
0.0
 11
-12.3
 21
12.4
 31
0.0
  0
POLYLINE
  8
STANDARD
 62
     7
  5
42F
 66
     1
 10
0.0
 20
0.0
 30
0.0
  0
VERTEX
  8
STANDARD
 62
     7
  5
430
 10
-11.7
 20
12.4
 30
0.0
  0
VERTEX
  8
STANDARD
 62
     7
  5
431
 10
-11.78
 20
12.41778
 30
0.0
  0
VERTEX
  8
STANDARD
 62
     7
  5
432
 10
-11.78
 20
12.38222
 30
0.0
  0
VERTEX
  8
STANDARD
 62
     7
  5
433
 10
-11.7
 20
12.4
 30
0.0
  0
SEQEND
  8
0
  5
434
  0
LINE
  8
STANDARD
 62
     7
  5
435
 10
-11.7
 20
12.3
 30
0.0
 11
-12.4
 21
12.3
 31
0.0
  0
POLYLINE
  8
STANDARD
 62
     7
  5
436
 66
     1
 10
0.0
 20
0.0
 30
0.0
  0
VERTEX
  8
STANDARD
 62
     7
  5
437
 10
-11.7
 20
12.3
 30
0.0
  0
VERTEX
  8
STANDARD
 62
     7
  5
438
 10
-11.78
 20
12.31778
 30
0.0
  0
VERTEX
  8
STANDARD
 62
     7
  5
439
 10
-11.78
 20
12.28222
 30
0.0
  0
VERTEX
  8
STANDARD
 62
     7
  5
43A
 10
-11.7
 20
12.3
 30
0.0
  0
SEQEND
  8
0
  5
43B
  0
LINE
  8
STANDARD
 62
     7
  5
43C
 10
-12.9
 20
-0.5
 30
0.0
 11
-12.6
 21
-0.5
 31
0.0
  0
LINE
  8
STANDARD
 62
     7
  5
43D
 10
-12.9
 20
5.6
 30
0.0
 11
-12.6
 21
5.6
 31
0.0
  0
LINE
  8
STANDARD
 62
     7
  5
43E
 10
-12.6
 20
6.4
 30
0.0
 11
-12.6
 21
9.1
 31
0.0
  0
LINE
  8
STANDARD
 62
     7
  5
43F
 10
-12.9
 20
-0.7
 30
0.0
 11
-12.4
 21
-0.7
 31
0.0
  0
LINE
  8
STANDARD
 62
     7
  5
440
 10
-12.9
 20
5.4
 30
0.0
 11
-12.4
 21
5.4
 31
0.0
  0
LINE
  8
STANDARD
 62
     7
  5
441
 10
-12.4
 20
0.3
 30
0.0
 11
-12.4
 21
1.9
 31
0.0
  0
LINE
  8
STANDARD
 62
     7
  5
442
 10
-12.4
 20
6.4
 30
0.0
 11
-12.4
 21
8.0
 31
0.0
  0
LINE
  8
STANDARD
 62
     7
  5
443
 10
-12.4
 20
8.9
 30
0.0
 11
-12.4
 21
8.0
 31
0.0
  0
LINE
  8
STANDARD
 62
     7
  5
444
 10
-11.1
 20
9.1
 30
0.0
 11
-11.3
 21
9.1
 31
0.0
  0
LINE
  8
STANDARD
 62
     7
  5
445
 10
-13.5
 20
2.1
 30
0.0
 11
-12.6
 21
2.1
 31
0.0
  0
POLYLINE
  8
STANDARD
 62
     7
  5
446
 66
     1
 10
0.0
 20
0.0
 30
0.0
  0
VERTEX
  8
STANDARD
 62
     7
  5
447
 10
-13.5
 20
2.1
 30
0.0
  0
VERTEX
  8
STANDARD
 62
     7
  5
448
 10
-13.42
 20
2.08222
 30
0.0
  0
VERTEX
  8
STANDARD
 62
     7
  5
449
 10
-13.42
 20
2.11778
 30
0.0
  0
VERTEX
  8
STANDARD
 62
     7
  5
44A
 10
-13.5
 20
2.1
 30
0.0
  0
SEQEND
  8
0
  5
44B
  0
LINE
  8
STANDARD
 62
     7
  5
44C
 10
-13.5
 20
8.2
 30
0.0
 11
-12.6
 21
8.2
 31
0.0
  0
POLYLINE
  8
STANDARD
 62
     7
  5
44D
 66
     1
 10
0.0
 20
0.0
 30
0.0
  0
VERTEX
  8
STANDARD
 62
     7
  5
44E
 10
-13.5
 20
8.2
 30
0.0
  0
VERTEX
  8
STANDARD
 62
     7
  5
44F
 10
-13.42
 20
8.18222
 30
0.0
  0
VERTEX
  8
STANDARD
 62
     7
  5
450
 10
-13.42
 20
8.21778
 30
0.0
  0
VERTEX
  8
STANDARD
 62
     7
  5
451
 10
-13.5
 20
8.2
 30
0.0
  0
SEQEND
  8
0
  5
452
  0
LINE
  8
STANDARD
 62
     7
  5
453
 10
-12.4
 20
1.9
 30
0.0
 11
-13.5
 21
1.9
 31
0.0
  0
POLYLINE
  8
STANDARD
 62
     7
  5
454
 66
     1
 10
0.0
 20
0.0
 30
0.0
  0
VERTEX
  8
STANDARD
 62
     7
  5
455
 10
-13.5
 20
1.9
 30
0.0
  0
VERTEX
  8
STANDARD
 62
     7
  5
456
 10
-13.42
 20
1.88222
 30
0.0
  0
VERTEX
  8
STANDARD
 62
     7
  5
457
 10
-13.42
 20
1.91778
 30
0.0
  0
VERTEX
  8
STANDARD
 62
     7
  5
458
 10
-13.5
 20
1.9
 30
0.0
  0
SEQEND
  8
0
  5
459
  0
LINE
  8
STANDARD
 62
     7
  5
45A
 10
-12.4
 20
8.0
 30
0.0
 11
-13.5
 21
8.0
 31
0.0
  0
POLYLINE
  8
STANDARD
 62
     7
  5
45B
 66
     1
 10
0.0
 20
0.0
 30
0.0
  0
VERTEX
  8
STANDARD
 62
     7
  5
45C
 10
-13.5
 20
8.0
 30
0.0
  0
VERTEX
  8
STANDARD
 62
     7
  5
45D
 10
-13.42
 20
7.98222
 30
0.0
  0
VERTEX
  8
STANDARD
 62
     7
  5
45E
 10
-13.42
 20
8.01778
 30
0.0
  0
VERTEX
  8
STANDARD
 62
     7
  5
45F
 10
-13.5
 20
8.0
 30
0.0
  0
SEQEND
  8
0
  5
460
  0
LINE
  8
STANDARD
 62
     7
  5
461
 10
-11.1
 20
8.4
 30
0.0
 11
-12.4
 21
8.4
 31
0.0
  0
POLYLINE
  8
STANDARD
 62
     7
  5
462
 66
     1
 10
0.0
 20
0.0
 30
0.0
  0
VERTEX
  8
STANDARD
 62
     7
  5
463
 10
-11.1
 20
8.4
 30
0.0
  0
VERTEX
  8
STANDARD
 62
     7
  5
464
 10
-11.18
 20
8.41778
 30
0.0
  0
VERTEX
  8
STANDARD
 62
     7
  5
465
 10
-11.18
 20
8.38222
 30
0.0
  0
VERTEX
  8
STANDARD
 62
     7
  5
466
 10
-11.1
 20
8.4
 30
0.0
  0
SEQEND
  8
0
  5
467
  0
LINE
  8
STANDARD
 62
     7
  5
468
 10
-11.1
 20
8.6
 30
0.0
 11
-12.6
 21
8.6
 31
0.0
  0
POLYLINE
  8
STANDARD
 62
     7
  5
469
 66
     1
 10
0.0
 20
0.0
 30
0.0
  0
VERTEX
  8
STANDARD
 62
     7
  5
46A
 10
-11.1
 20
8.6
 30
0.0
  0
VERTEX
  8
STANDARD
 62
     7
  5
46B
 10
-11.18
 20
8.61778
 30
0.0
  0
VERTEX
  8
STANDARD
 62
     7
  5
46C
 10
-11.18
 20
8.58222
 30
0.0
  0
VERTEX
  8
STANDARD
 62
     7
  5
46D
 10
-11.1
 20
8.6
 30
0.0
  0
SEQEND
  8
0
  5
46E
  0
LINE
  8
STANDARD
 62
     7
  5
46F
 10
-11.1
 20
8.9
 30
0.0
 11
-12.4
 21
8.9
 31
0.0
  0
POLYLINE
  8
STANDARD
 62
     7
  5
470
 66
     1
 10
0.0
 20
0.0
 30
0.0
  0
VERTEX
  8
STANDARD
 62
     7
  5
471
 10
-11.1
 20
8.9
 30
0.0
  0
VERTEX
  8
STANDARD
 62
     7
  5
472
 10
-11.18
 20
8.91778
 30
0.0
  0
VERTEX
  8
STANDARD
 62
     7
  5
473
 10
-11.18
 20
8.88222
 30
0.0
  0
VERTEX
  8
STANDARD
 62
     7
  5
474
 10
-11.1
 20
8.9
 30
0.0
  0
SEQEND
  8
0
  5
475
  0
LINE
  8
STANDARD
 62
     7
  5
476
 10
-11.6
 20
9.1
 30
0.0
 11
-12.6
 21
9.1
 31
0.0
  0
POLYLINE
  8
STANDARD
 62
     7
  5
477
 66
     1
 10
0.0
 20
0.0
 30
0.0
  0
VERTEX
  8
STANDARD
 62
     7
  5
478
 10
-11.6
 20
9.1
 30
0.0
  0
VERTEX
  8
STANDARD
 62
     7
  5
479
 10
-11.68
 20
9.11778
 30
0.0
  0
VERTEX
  8
STANDARD
 62
     7
  5
47A
 10
-11.68
 20
9.08222
 30
0.0
  0
VERTEX
  8
STANDARD
 62
     7
  5
47B
 10
-11.6
 20
9.1
 30
0.0
  0
SEQEND
  8
0
  5
47C
  0
LINE
  8
STANDARD
 62
     7
  5
47D
 10
-10.7
 20
9.0
 30
0.0
 11
-10.4
 21
9.0
 31
0.0
  0
POLYLINE
  8
STANDARD
 62
     7
  5
47E
 66
     1
 10
0.0
 20
0.0
 30
0.0
  0
VERTEX
  8
STANDARD
 62
     7
  5
47F
 10
-10.4
 20
9.0
 30
0.0
  0
VERTEX
  8
STANDARD
 62
     7
  5
480
 10
-10.48
 20
9.01778
 30
0.0
  0
VERTEX
  8
STANDARD
 62
     7
  5
481
 10
-10.48
 20
8.98222
 30
0.0
  0
VERTEX
  8
STANDARD
 62
     7
  5
482
 10
-10.4
 20
9.0
 30
0.0
  0
SEQEND
  8
0
  5
483
  0
LINE
  8
STANDARD
 62
     7
  5
484
 10
-10.7
 20
8.5
 30
0.0
 11
-10.4
 21
8.5
 31
0.0
  0
POLYLINE
  8
STANDARD
 62
     7
  5
485
 66
     1
 10
0.0
 20
0.0
 30
0.0
  0
VERTEX
  8
STANDARD
 62
     7
  5
486
 10
-10.4
 20
8.5
 30
0.0
  0
VERTEX
  8
STANDARD
 62
     7
  5
487
 10
-10.48
 20
8.51778
 30
0.0
  0
VERTEX
  8
STANDARD
 62
     7
  5
488
 10
-10.48
 20
8.48222
 30
0.0
  0
VERTEX
  8
STANDARD
 62
     7
  5
489
 10
-10.4
 20
8.5
 30
0.0
  0
SEQEND
  8
0
  5
48A
  0
LINE
  8
STANDARD
 62
     7
  5
48B
 10
-12.6
 20
-0.5
 30
0.0
 11
-12.6
 21
0.3
 31
0.0
  0
POLYLINE
  8
STANDARD
 62
     7
  5
48C
 66
     1
 10
0.0
 20
0.0
 30
0.0
  0
VERTEX
  8
STANDARD
 62
     7
  5
48D
 10
-12.6
 20
0.3
 30
0.0
  0
VERTEX
  8
STANDARD
 62
     7
  5
48E
 10
-12.61778
 20
0.22
 30
0.0
  0
VERTEX
  8
STANDARD
 62
     7
  5
48F
 10
-12.58222
 20
0.22
 30
0.0
  0
VERTEX
  8
STANDARD
 62
     7
  5
490
 10
-12.6
 20
0.3
 30
0.0
  0
SEQEND
  8
0
  5
491
  0
LINE
  8
STANDARD
 62
     7
  5
492
 10
-12.6
 20
5.6
 30
0.0
 11
-12.6
 21
6.4
 31
0.0
  0
POLYLINE
  8
STANDARD
 62
     7
  5
493
 66
     1
 10
0.0
 20
0.0
 30
0.0
  0
VERTEX
  8
STANDARD
 62
     7
  5
494
 10
-12.6
 20
6.4
 30
0.0
  0
VERTEX
  8
STANDARD
 62
     7
  5
495
 10
-12.61778
 20
6.32
 30
0.0
  0
VERTEX
  8
STANDARD
 62
     7
  5
496
 10
-12.58222
 20
6.32
 30
0.0
  0
VERTEX
  8
STANDARD
 62
     7
  5
497
 10
-12.6
 20
6.4
 30
0.0
  0
SEQEND
  8
0
  5
498
  0
LINE
  8
STANDARD
 62
     7
  5
499
 10
-12.4
 20
-0.7
 30
0.0
 11
-12.4
 21
0.3
 31
0.0
  0
POLYLINE
  8
STANDARD
 62
     7
  5
49A
 66
     1
 10
0.0
 20
0.0
 30
0.0
  0
VERTEX
  8
STANDARD
 62
     7
  5
49B
 10
-12.4
 20
0.3
 30
0.0
  0
VERTEX
  8
STANDARD
 62
     7
  5
49C
 10
-12.41778
 20
0.22
 30
0.0
  0
VERTEX
  8
STANDARD
 62
     7
  5
49D
 10
-12.38222
 20
0.22
 30
0.0
  0
VERTEX
  8
STANDARD
 62
     7
  5
49E
 10
-12.4
 20
0.3
 30
0.0
  0
SEQEND
  8
0
  5
49F
  0
LINE
  8
STANDARD
 62
     7
  5
4A0
 10
-12.4
 20
5.4
 30
0.0
 11
-12.4
 21
6.4
 31
0.0
  0
POLYLINE
  8
STANDARD
 62
     7
  5
4A1
 66
     1
 10
0.0
 20
0.0
 30
0.0
  0
VERTEX
  8
STANDARD
 62
     7
  5
4A2
 10
-12.4
 20
6.4
 30
0.0
  0
VERTEX
  8
STANDARD
 62
     7
  5
4A3
 10
-12.41778
 20
6.32
 30
0.0
  0
VERTEX
  8
STANDARD
 62
     7
  5
4A4
 10
-12.38222
 20
6.32
 30
0.0
  0
VERTEX
  8
STANDARD
 62
     7
  5
4A5
 10
-12.4
 20
6.4
 30
0.0
  0
SEQEND
  8
0
  5
4A6
  0
LINE
  8
STANDARD
 62
     7
  5
4A7
 10
-12.6
 20
0.3
 30
0.0
 11
-12.6
 21
2.5
 31
0.0
  0
POLYLINE
  8
STANDARD
 62
     7
  5
4A8
 66
     1
 10
0.0
 20
0.0
 30
0.0
  0
VERTEX
  8
STANDARD
 62
     7
  5
4A9
 10
-12.6
 20
2.5
 30
0.0
  0
VERTEX
  8
STANDARD
 62
     7
  5
4AA
 10
-12.61778
 20
2.42
 30
0.0
  0
VERTEX
  8
STANDARD
 62
     7
  5
4AB
 10
-12.58222
 20
2.42
 30
0.0
  0
VERTEX
  8
STANDARD
 62
     7
  5
4AC
 10
-12.6
 20
2.5
 30
0.0
  0
SEQEND
  8
0
  5
4AD
  0
LINE
  8
STANDARD
 62
     7
  5
4AE
 10
-12.4
 20
2.5
 30
0.0
 11
-12.4
 21
1.9
 31
0.0
  0
POLYLINE
  8
STANDARD
 62
     7
  5
4AF
 66
     1
 10
0.0
 20
0.0
 30
0.0
  0
VERTEX
  8
STANDARD
 62
     7
  5
4B0
 10
-12.4
 20
2.5
 30
0.0
  0
VERTEX
  8
STANDARD
 62
     7
  5
4B1
 10
-12.41778
 20
2.42
 30
0.0
  0
VERTEX
  8
STANDARD
 62
     7
  5
4B2
 10
-12.38222
 20
2.42
 30
0.0
  0
VERTEX
  8
STANDARD
 62
     7
  5
4B3
 10
-12.4
 20
2.5
 30
0.0
  0
SEQEND
  8
0
  5
4B4
  0
LINE
  8
STANDARD
 62
     7
  5
4B5
 10
-10.8
 20
3.1
 30
0.0
 11
-10.8
 21
2.9
 31
0.0
  0
LINE
  8
STANDARD
 62
     7
  5
4B6
 10
-10.8
 20
2.9
 30
0.0
 11
-11.3
 21
2.9
 31
0.0
  0
LINE
  8
STANDARD
 62
     7
  5
4B7
 10
-10.9
 20
3.4
 30
0.0
 11
-10.9
 21
3.0
 31
0.0
  0
LINE
  8
STANDARD
 62
     7
  5
4B8
 10
-10.9
 20
3.0
 30
0.0
 11
-11.3
 21
3.0
 31
0.0
  0
LINE
  8
STANDARD
 62
     7
  5
4B9
 10
-10.8
 20
2.5
 30
0.0
 11
-10.8
 21
2.7
 31
0.0
  0
LINE
  8
STANDARD
 62
     7
  5
4BA
 10
-10.8
 20
2.7
 30
0.0
 11
-11.3
 21
2.7
 31
0.0
  0
LINE
  8
STANDARD
 62
     7
  5
4BB
 10
-10.9
 20
2.2
 30
0.0
 11
-10.9
 21
2.6
 31
0.0
  0
LINE
  8
STANDARD
 62
     7
  5
4BC
 10
-10.9
 20
2.6
 30
0.0
 11
-11.3
 21
2.6
 31
0.0
  0
LINE
  8
STANDARD
 62
     7
  5
4BD
 10
-10.4
 20
2.2
 30
0.0
 11
-10.9
 21
2.2
 31
0.0
  0
POLYLINE
  8
STANDARD
 62
     7
  5
4BE
 66
     1
 10
0.0
 20
0.0
 30
0.0
  0
VERTEX
  8
STANDARD
 62
     7
  5
4BF
 10
-10.4
 20
2.2
 30
0.0
  0
VERTEX
  8
STANDARD
 62
     7
  5
4C0
 10
-10.48
 20
2.21778
 30
0.0
  0
VERTEX
  8
STANDARD
 62
     7
  5
4C1
 10
-10.48
 20
2.18222
 30
0.0
  0
VERTEX
  8
STANDARD
 62
     7
  5
4C2
 10
-10.4
 20
2.2
 30
0.0
  0
SEQEND
  8
0
  5
4C3
  0
LINE
  8
STANDARD
 62
     7
  5
4C4
 10
-10.4
 20
2.5
 30
0.0
 11
-10.8
 21
2.5
 31
0.0
  0
POLYLINE
  8
STANDARD
 62
     7
  5
4C5
 66
     1
 10
0.0
 20
0.0
 30
0.0
  0
VERTEX
  8
STANDARD
 62
     7
  5
4C6
 10
-10.4
 20
2.5
 30
0.0
  0
VERTEX
  8
STANDARD
 62
     7
  5
4C7
 10
-10.48
 20
2.51778
 30
0.0
  0
VERTEX
  8
STANDARD
 62
     7
  5
4C8
 10
-10.48
 20
2.48222
 30
0.0
  0
VERTEX
  8
STANDARD
 62
     7
  5
4C9
 10
-10.4
 20
2.5
 30
0.0
  0
SEQEND
  8
0
  5
4CA
  0
LINE
  8
STANDARD
 62
     7
  5
4CB
 10
-10.4
 20
2.8
 30
0.0
 11
-11.3
 21
2.8
 31
0.0
  0
POLYLINE
  8
STANDARD
 62
     7
  5
4CC
 66
     1
 10
0.0
 20
0.0
 30
0.0
  0
VERTEX
  8
STANDARD
 62
     7
  5
4CD
 10
-10.4
 20
2.8
 30
0.0
  0
VERTEX
  8
STANDARD
 62
     7
  5
4CE
 10
-10.48
 20
2.81778
 30
0.0
  0
VERTEX
  8
STANDARD
 62
     7
  5
4CF
 10
-10.48
 20
2.78222
 30
0.0
  0
VERTEX
  8
STANDARD
 62
     7
  5
4D0
 10
-10.4
 20
2.8
 30
0.0
  0
SEQEND
  8
0
  5
4D1
  0
LINE
  8
STANDARD
 62
     7
  5
4D2
 10
-10.4
 20
3.1
 30
0.0
 11
-10.8
 21
3.1
 31
0.0
  0
POLYLINE
  8
STANDARD
 62
     7
  5
4D3
 66
     1
 10
0.0
 20
0.0
 30
0.0
  0
VERTEX
  8
STANDARD
 62
     7
  5
4D4
 10
-10.4
 20
3.1
 30
0.0
  0
VERTEX
  8
STANDARD
 62
     7
  5
4D5
 10
-10.48
 20
3.11778
 30
0.0
  0
VERTEX
  8
STANDARD
 62
     7
  5
4D6
 10
-10.48
 20
3.08222
 30
0.0
  0
VERTEX
  8
STANDARD
 62
     7
  5
4D7
 10
-10.4
 20
3.1
 30
0.0
  0
SEQEND
  8
0
  5
4D8
  0
LINE
  8
STANDARD
 62
     7
  5
4D9
 10
-10.4
 20
3.4
 30
0.0
 11
-10.9
 21
3.4
 31
0.0
  0
POLYLINE
  8
STANDARD
 62
     7
  5
4DA
 66
     1
 10
0.0
 20
0.0
 30
0.0
  0
VERTEX
  8
STANDARD
 62
     7
  5
4DB
 10
-10.4
 20
3.4
 30
0.0
  0
VERTEX
  8
STANDARD
 62
     7
  5
4DC
 10
-10.48
 20
3.41778
 30
0.0
  0
VERTEX
  8
STANDARD
 62
     7
  5
4DD
 10
-10.48
 20
3.38222
 30
0.0
  0
VERTEX
  8
STANDARD
 62
     7
  5
4DE
 10
-10.4
 20
3.4
 30
0.0
  0
SEQEND
  8
0
  5
4DF
  0
LINE
  8
STANDARD
 62
     7
  5
4E0
 10
-12.2
 20
2.8
 30
0.0
 11
-11.9
 21
2.8
 31
0.0
  0
POLYLINE
  8
STANDARD
 62
     7
  5
4E1
 66
     1
 10
0.0
 20
0.0
 30
0.0
  0
VERTEX
  8
STANDARD
 62
     7
  5
4E2
 10
-11.9
 20
2.8
 30
0.0
  0
VERTEX
  8
STANDARD
 62
     7
  5
4E3
 10
-11.98
 20
2.81778
 30
0.0
  0
VERTEX
  8
STANDARD
 62
     7
  5
4E4
 10
-11.98
 20
2.78222
 30
0.0
  0
VERTEX
  8
STANDARD
 62
     7
  5
4E5
 10
-11.9
 20
2.8
 30
0.0
  0
SEQEND
  8
0
  5
4E6
  0
ENDSEC
  0
EOF
