  0
SECTION
  2
HEADER
  9
$ACADVER
  1
AC1009
  9
$INSBASE
 10
0.0
 20
0.0
 30
0.0
  9
$EXTMIN
 10
4.4405
 20
9.458
 30
0.0
  9
$EXTMAX
 10
16.4595
 20
17.942
 30
0.0
  9
$LIMMIN
 10
0.0
 20
0.0
  9
$LIMMAX
 10
0.0
 20
0.0
  9
$ORTHOMODE
 70
     0
  9
$REGENMODE
 70
     1
  9
$FILLMODE
 70
     1
  9
$QTEXTMODE
 70
     0
  9
$MIRRTEXT
 70
     1
  9
$DRAGMODE
 70
     2
  9
$LTSCALE
 40
1.0
  9
$OSMODE
 70
     0
  9
$ATTMODE
 70
     1
  9
$TEXTSIZE
 40
0.2
  9
$TRACEWID
 40
0.05
  9
$TEXTSTYLE
  7
STANDARD
  9
$CLAYER
  8
0
  9
$CELTYPE
  6
CONTINUOUS
  9
$CECOLOR
 62
   256
  9
$DIMSCALE
 40
1.0
  9
$DIMASZ
 40
0.18
  9
$DIMEXO
 40
0.0625
  9
$DIMDLI
 40
0.38
  9
$DIMRND
 40
0.0
  9
$DIMDLE
 40
0.0
  9
$DIMEXE
 40
0.18
  9
$DIMTP
 40
0.0
  9
$DIMTM
 40
0.0
  9
$DIMTXT
 40
0.18
  9
$DIMCEN
 40
0.09
  9
$DIMTSZ
 40
0.0
  9
$DIMTOL
 70
     0
  9
$DIMLIM
 70
     0
  9
$DIMTIH
 70
     1
  9
$DIMTOH
 70
     1
  9
$DIMSE1
 70
     0
  9
$DIMSE2
 70
     0
  9
$DIMTAD
 70
     0
  9
$DIMZIN
 70
     0
  9
$DIMBLK
  1

  9
$DIMASO
 70
     1
  9
$DIMSHO
 70
     1
  9
$DIMPOST
  1

  9
$DIMAPOST
  1

  9
$DIMALT
 70
     0
  9
$DIMALTD
 70
     2
  9
$DIMALTF
 40
25.4
  9
$DIMLFAC
 40
1.0
  9
$DIMTOFL
 70
     0
  9
$DIMTVP
 40
0.0
  9
$DIMTIX
 70
     0
  9
$DIMSOXD
 70
     0
  9
$DIMSAH
 70
     0
  9
$DIMBLK1
  1

  9
$DIMBLK2
  1

  9
$DIMSTYLE
  2
STANDARD
  9
$DIMCLRD
 70
     0
  9
$DIMCLRE
 70
     0
  9
$DIMCLRT
 70
     0
  9
$DIMTFAC
 40
1.0
  9
$DIMGAP
 40
0.09
  9
$LUNITS
 70
     2
  9
$LUPREC
 70
     4
  9
$AXISMODE
 70
     0
  9
$AXISUNIT
 10
0.0
 20
0.0
  9
$SKETCHINC
 40
0.1
  9
$FILLETRAD
 40
0.0
  9
$AUNITS
 70
     0
  9
$AUPREC
 70
     0
  9
$MENU
  1
acad
  9
$ELEVATION
 40
0.0
  9
$PELEVATION
 40
0.0
  9
$THICKNESS
 40
0.0
  9
$LIMCHECK
 70
     0
  9
$BLIPMODE
 70
     1
  9
$CHAMFERA
 40
0.0
  9
$CHAMFERB
 40
0.0
  9
$SKPOLY
 70
     0
  9
$TDCREATE
 40
0.000000000
  9
$TDUPDATE
 40
0.000000000
  9
$TDINDWG
 40
0.0000000000
  9
$TDUSRTIMER
 40
0.0000000000
  9
$USRTIMER
 70
     1
  9
$ANGBASE
 50
0.0
  9
$ANGDIR
 70
     0
  9
$PDMODE
 70
     0
  9
$PDSIZE
 40
0.0
  9
$PLINEWID
 40
0.0
  9
$COORDS
 70
     0
  9
$SPLFRAME
 70
     0
  9
$SPLINETYPE
 70
     6
  9
$SPLINESEGS
 70
     8
  9
$ATTDIA
 70
     0
  9
$ATTREQ
 70
     1
  9
$HANDLING
 70
     1
  9
$HANDSEED
  5
2F7
  9
$SURFTAB1
 70
     6
  9
$SURFTAB2
 70
     6
  9
$SURFTYPE
 70
     6
  9
$SURFU
 70
     6
  9
$SURFV
 70
     6
  9
$UCSNAME
  2

  9
$UCSORG
 10
0.0
 20
0.0
 30
0.0
  9
$UCSXDIR
 10
1.0
 20
0.0
 30
0.0
  9
$UCSYDIR
 10
0.0
 20
1.0
 30
0.0
  9
$PUCSNAME
  2

  9
$PUCSORG
 10
0.0
 20
0.0
 30
0.0
  9
$PUCSXDIR
 10
1.0
 20
0.0
 30
0.0
  9
$PUCSYDIR
 10
0.0
 20
1.0
 30
0.0
  9
$USERI1
 70
     0
  9
$USERI2
 70
     0
  9
$USERI3
 70
     0
  9
$USERI4
 70
     0
  9
$USERI5
 70
     0
  9
$USERR1
 40
0.0
  9
$USERR2
 40
0.0
  9
$USERR3
 40
0.0
  9
$USERR4
 40
0.0
  9
$USERR5
 40
0.0
  9
$WORLDVIEW
 70
     1
  9
$SHADEDGE
 70
     3
  9
$SHADEDIF
 70
    70
  9
$TILEMODE
 70
     1
  9
$MAXACTVP
 70
    16
  9
$PINSBASE
 10
0.0
 20
0.0
 30
0.0
  9
$PLIMCHECK
 70
     0
  9
$PEXTMIN
 10
1.000000E+20
 20
1.000000E+20
 30
1.000000E+20
  9
$PEXTMAX
 10
-1.000000E+20
 20
-1.000000E+20
 30
-1.000000E+20
  9
$PLIMMIN
 10
0.0
 20
0.0
  9
$PLIMMAX
 10
12.0
 20
9.0
  9
$UNITMODE
 70
     0
  9
$VISRETAIN
 70
     0
  9
$PLINEGEN
 70
     1
  9
$PSLTSCALE
 70
     0
  9
$TREEDEPTH
 70
  3020
  9
$DWGCODEPAGE
  3
dos850
  0
ENDSEC
  0
SECTION
  2
TABLES
  0
TABLE
  2
VPORT
 70
     1
  0
VPORT
  2
*ACTIVE
 70
     0
 10
0.0
 20
0.0
 11
1.0
 21
1.0
 12
6.591288
 22
4.579184
 13
0.0
 23
0.0
 14
1.0
 24
1.0
 15
0.0
 25
0.0
 16
0.0
 26
0.0
 36
1.0
 17
0.0
 27
0.0
 37
0.0
 40
9.158369
 41
0.688564
 42
50.0
 43
0.0
 44
0.0
 50
0.0
 51
0.0
 71
     0
 72
   100
 73
     1
 74
     1
 75
     0
 76
     0
 77
     0
 78
     0
  0
ENDTAB
  0
TABLE
  2
LTYPE
 70
     2
  0
LTYPE
  2
CONTINUOUS
 70
    64
  3
Solid line
 72
    65
 73
     0
 40
0.0
  0
LTYPE
  2
ORTHO_50_50
 70
    64
  3
- -
 72
    65
 73
     4
 40
0.05
 49
0.0125
 49
-0.0125
 49
-0.0125
 49
0.0125
  0
ENDTAB
  0
TABLE
  2
LAYER
 70
     7
  0
LAYER
  2
0
 70
     0
 62
     7
  6
CONTINUOUS
  0
LAYER
  2
MERGE
 70
     0
 62
     7
  6
CONTINUOUS
  0
LAYER
  2
STANDARD
 70
     0
 62
     7
  6
CONTINUOUS
  0
LAYER
  2
PINS
 70
     0
 62
     7
  6
CONTINUOUS
  0
LAYER
  2
PARAMS
 70
     0
 62
     7
  6
CONTINUOUS
  0
LAYER
  2
OUTLINE
 70
     0
 62
     7
  6
CONTINUOUS
  0
LAYER
  2
INTERNALS
 70
     0
 62
     7
  6
CONTINUOUS
  0
ENDTAB
  0
TABLE
  2
STYLE
 70
     2
  0
STYLE
  2
STANDARD
 70
     0
 40
0.0
 41
1.0
 50
0.0
 71
     0
 42
0.0
  3
txt
  4

  0
STYLE
  2
STYLE1
 70
     0
 40
0.0
 41
1.0
 50
0.0
 71
     0
 42
0.0
  3
Arial.ttf
  4

  0
ENDTAB
  0
TABLE
  2
VIEW
 70
     0
  0
ENDTAB
  0
TABLE
  2
UCS
 70
     0
  0
ENDTAB
  0
TABLE
  2
APPID
 70
     1
  0
APPID
  2
ACAD
 70
     0
  0
ENDTAB
  0
TABLE
  2
DIMSTYLE
 70
     1
  0
DIMSTYLE
  2
STANDARD
 70
     0
  3

  4

  5

  6

  7

 40
1.0
 41
0.18
 42
0.0625
 43
0.38
 44
0.18
 45
0.0
 46
0.0
 47
0.0
 48
0.0
 71
     0
 72
     0
 73
     1
 74
     1
 75
     0
 76
     0
 77
     0
 78
     0
140
0.18
141
0.09
142
0.0
143
25.4
144
1.0
145
0.0
146
1.0
147
0.09
170
     0
171
     2
172
     0
173
     0
174
     0
175
     0
176
     0
177
     0
178
     0
  0
ENDTAB
  0
ENDSEC
  0
SECTION
  2
BLOCKS
  0
ENDSEC
  0
SECTION
  2
ENTITIES
  0
POLYLINE
  8
STANDARD
 62
     7
  5
24
 66
     1
 10
0.0
 20
0.0
 30
0.0
 70
     1
  0
VERTEX
  8
STANDARD
 62
     7
  5
25
 10
15.0
 20
13.3
 30
0.0
  0
VERTEX
  8
STANDARD
 62
     7
  5
26
 10
15.0
 20
13.5
 30
0.0
  0
VERTEX
  8
STANDARD
 62
     7
  5
27
 10
16.3
 20
13.5
 30
0.0
  0
VERTEX
  8
STANDARD
 62
     7
  5
28
 10
16.4
 20
13.4
 30
0.0
  0
VERTEX
  8
STANDARD
 62
     7
  5
29
 10
16.3
 20
13.3
 30
0.0
  0
VERTEX
  8
STANDARD
 62
     7
  5
2A
 10
15.0
 20
13.3
 30
0.0
  0
VERTEX
  8
STANDARD
 62
     7
  5
2B
 10
15.0
 20
13.3
 30
0.0
  0
SEQEND
  8
0
  5
2C
  0
POLYLINE
  8
STANDARD
 62
     7
  5
2D
 66
     1
 10
0.0
 20
0.0
 30
0.0
 70
     1
  0
VERTEX
  8
STANDARD
 62
     7
  5
2E
 10
4.5
 20
10.7
 30
0.0
  0
VERTEX
  8
STANDARD
 62
     7
  5
2F
 10
4.5
 20
10.9
 30
0.0
  0
VERTEX
  8
STANDARD
 62
     7
  5
30
 10
5.8
 20
10.9
 30
0.0
  0
VERTEX
  8
STANDARD
 62
     7
  5
31
 10
5.9
 20
10.8
 30
0.0
  0
VERTEX
  8
STANDARD
 62
     7
  5
32
 10
5.8
 20
10.7
 30
0.0
  0
VERTEX
  8
STANDARD
 62
     7
  5
33
 10
4.5
 20
10.7
 30
0.0
  0
VERTEX
  8
STANDARD
 62
     7
  5
34
 10
4.5
 20
10.7
 30
0.0
  0
SEQEND
  8
0
  5
35
  0
POLYLINE
  8
STANDARD
 62
     7
  5
36
 66
     1
 10
0.0
 20
0.0
 30
0.0
 70
     1
  0
VERTEX
  8
STANDARD
 62
     7
  5
37
 10
4.5
 20
13.7
 30
0.0
  0
VERTEX
  8
STANDARD
 62
     7
  5
38
 10
4.5
 20
13.9
 30
0.0
  0
VERTEX
  8
STANDARD
 62
     7
  5
39
 10
5.8
 20
13.9
 30
0.0
  0
VERTEX
  8
STANDARD
 62
     7
  5
3A
 10
5.9
 20
13.8
 30
0.0
  0
VERTEX
  8
STANDARD
 62
     7
  5
3B
 10
5.8
 20
13.7
 30
0.0
  0
VERTEX
  8
STANDARD
 62
     7
  5
3C
 10
4.5
 20
13.7
 30
0.0
  0
VERTEX
  8
STANDARD
 62
     7
  5
3D
 10
4.5
 20
13.7
 30
0.0
  0
SEQEND
  8
0
  5
3E
  0
TEXT
  8
STANDARD
 62
     7
  5
3F
 10
15.435
 20
13.35
 30
0.0
 40
0.1
  1
output
  7
STYLE1
 72
     1
 11
15.6
 21
13.4
 31
0.0
 73
     2
  0
TEXT
  8
STANDARD
 62
     7
  5
40
 10
4.935
 20
10.75
 30
0.0
 40
0.1
  1
enable
  7
STYLE1
 72
     1
 11
5.1
 21
10.8
 31
0.0
 73
     2
  0
TEXT
  8
STANDARD
 62
     7
  5
41
 10
4.9075
 20
13.75
 30
0.0
 40
0.1
  1
command
  7
STYLE1
 72
     1
 11
5.1
 21
13.8
 31
0.0
 73
     2
  0
POLYLINE
  8
STANDARD
 62
     7
  5
42
 66
     1
 10
0.0
 20
0.0
 30
0.0
 70
     1
  0
VERTEX
  8
STANDARD
 62
     7
  5
43
 10
15.1
 20
17.4
 30
0.0
  0
VERTEX
  8
STANDARD
 62
     7
  5
44
 10
15.0
 20
17.5
 30
0.0
  0
VERTEX
  8
STANDARD
 62
     7
  5
45
 10
15.1
 20
17.6
 30
0.0
  0
VERTEX
  8
STANDARD
 62
     7
  5
46
 10
16.4
 20
17.6
 30
0.0
  0
VERTEX
  8
STANDARD
 62
     7
  5
47
 10
16.4
 20
17.4
 30
0.0
  0
VERTEX
  8
STANDARD
 62
     7
  5
48
 10
15.1
 20
17.4
 30
0.0
  0
VERTEX
  8
STANDARD
 62
     7
  5
49
 10
15.1
 20
17.4
 30
0.0
  0
SEQEND
  8
0
  5
4A
  0
POLYLINE
  8
STANDARD
 62
     7
  5
4B
 66
     1
 10
0.0
 20
0.0
 30
0.0
 70
     1
  0
VERTEX
  8
STANDARD
 62
     7
  5
4C
 10
4.6
 20
16.5
 30
0.0
  0
VERTEX
  8
STANDARD
 62
     7
  5
4D
 10
4.5
 20
16.6
 30
0.0
  0
VERTEX
  8
STANDARD
 62
     7
  5
4E
 10
4.6
 20
16.7
 30
0.0
  0
VERTEX
  8
STANDARD
 62
     7
  5
4F
 10
5.9
 20
16.7
 30
0.0
  0
VERTEX
  8
STANDARD
 62
     7
  5
50
 10
5.9
 20
16.5
 30
0.0
  0
VERTEX
  8
STANDARD
 62
     7
  5
51
 10
4.6
 20
16.5
 30
0.0
  0
VERTEX
  8
STANDARD
 62
     7
  5
52
 10
4.6
 20
16.5
 30
0.0
  0
SEQEND
  8
0
  5
53
  0
TEXT
  8
STANDARD
 62
     7
  5
54
 10
15.48
 20
17.45
 30
0.0
 40
0.1
  1
feedback
  7
STYLE1
 72
     1
 11
15.7
 21
17.5
 31
0.0
 73
     2
  0
TEXT
  8
STANDARD
 62
     7
  5
55
 10
5.0625
 20
16.55
 30
0.0
 40
0.1
  1
error
  7
STYLE1
 72
     1
 11
5.2
 21
16.6
 31
0.0
 73
     2
  0
TEXT
  8
PARAMS
 62
     7
  5
56
 10
10.2525
 20
9.85
 30
0.0
 40
0.1
  1
max-cmdDD
 50
359.999983
  7
STYLE1
 72
     1
 11
10.5
 21
9.9
 31
0.0
 73
     2
  0
TEXT
  8
PARAMS
 62
     7
  5
57
 10
8.18
 20
12.05
 30
0.0
 40
0.1
  1
max-cmdD
  7
STYLE1
 72
     1
 11
8.4
 21
12.1
 31
0.0
 73
     2
  0
TEXT
  8
PARAMS
 62
     7
  5
58
 10
10.025
 20
13.35
 30
0.0
 40
0.1
  1
max-errorD
 50
359.999983
  7
STYLE1
 72
     1
 11
10.3
 21
13.4
 31
0.0
 73
     2
  0
TEXT
  8
PARAMS
 62
     7
  5
59
 10
11.0625
 20
15.55
 30
0.0
 40
0.1
  1
Pgain
  7
STYLE1
 72
     1
 11
11.2
 21
15.6
 31
0.0
 73
     2
  0
TEXT
  8
PARAMS
 62
     7
  5
5A
 10
11.1175
 20
11.05
 30
0.0
 40
0.1
  1
FF2
  7
STYLE1
 72
     1
 11
11.2
 21
11.1
 31
0.0
 73
     2
  0
TEXT
  8
PARAMS
 62
     7
  5
5B
 10
11.99
 20
13.35
 30
0.0
 40
0.1
  1
bias
  7
STYLE1
 72
     1
 11
12.1
 21
13.4
 31
0.0
 73
     2
  0
TEXT
  8
PARAMS
 62
     7
  5
5C
 10
11.1175
 20
12.75
 30
0.0
 40
0.1
  1
FF0
  7
STYLE1
 72
     1
 11
11.2
 21
12.8
 31
0.0
 73
     2
  0
TEXT
  8
PARAMS
 62
     7
  5
5D
 10
11.1175
 20
11.85
 30
0.0
 40
0.1
  1
FF1
  7
STYLE1
 72
     1
 11
11.2
 21
11.9
 31
0.0
 73
     2
  0
TEXT
  8
PARAMS
 62
     7
  5
5E
 10
11.0625
 20
14.55
 30
0.0
 40
0.1
  1
Dgain
  7
STYLE1
 72
     1
 11
11.2
 21
14.6
 31
0.0
 73
     2
  0
TEXT
  8
PARAMS
 62
     7
  5
5F
 10
11.0625
 20
17.15
 30
0.0
 40
0.1
  1
Igain
  7
STYLE1
 72
     1
 11
11.2
 21
17.2
 31
0.0
 73
     2
  0
TEXT
  8
PARAMS
 62
     7
  5
60
 10
10.025
 20
15.95
 30
0.0
 40
0.1
  1
max-errorI
 50
359.999983
  7
STYLE1
 72
     1
 11
10.3
 21
16.0
 31
0.0
 73
     2
  0
TEXT
  8
PARAMS
 62
     7
  5
61
 10
13.225
 20
11.05
 30
0.0
 40
0.1
  1
max-output
 50
359.999983
  7
STYLE1
 72
     1
 11
13.5
 21
11.1
 31
0.0
 73
     2
  0
TEXT
  8
PARAMS
 62
     7
  5
62
 10
7.8525
 20
15.75
 30
0.0
 40
0.1
  1
max-error
  7
STYLE1
 72
     1
 11
8.1
 21
15.8
 31
0.0
 73
     2
  0
TEXT
  8
PARAMS
 62
     7
  5
63
 10
6.98
 20
14.55
 30
0.0
 40
0.1
  1
deadband
  7
STYLE1
 72
     1
 11
7.2
 21
14.6
 31
0.0
 73
     2
  0
LINE
  8
PARAMS
 62
     7
  5
64
 10
9.9
 20
10.0
 30
0.0
 11
9.9
 21
9.8
 31
0.0
  0
LINE
  8
PARAMS
 62
     7
  5
65
 10
7.8
 20
12.0
 30
0.0
 11
7.8
 21
12.2
 31
0.0
  0
LINE
  8
PARAMS
 62
     7
  5
66
 10
9.7
 20
13.5
 30
0.0
 11
9.7
 21
13.3
 31
0.0
  0
LINE
  8
PARAMS
 62
     7
  5
67
 10
10.6
 20
15.5
 30
0.0
 11
10.6
 21
15.7
 31
0.0
  0
LINE
  8
PARAMS
 62
     7
  5
68
 10
10.6
 20
11.0
 30
0.0
 11
10.6
 21
11.2
 31
0.0
  0
LINE
  8
PARAMS
 62
     7
  5
69
 10
11.5
 20
13.3
 30
0.0
 11
11.5
 21
13.5
 31
0.0
  0
LINE
  8
PARAMS
 62
     7
  5
6A
 10
10.6
 20
12.7
 30
0.0
 11
10.6
 21
12.9
 31
0.0
  0
LINE
  8
PARAMS
 62
     7
  5
6B
 10
10.6
 20
11.8
 30
0.0
 11
10.6
 21
12.0
 31
0.0
  0
LINE
  8
PARAMS
 62
     7
  5
6C
 10
10.6
 20
14.5
 30
0.0
 11
10.6
 21
14.7
 31
0.0
  0
LINE
  8
PARAMS
 62
     7
  5
6D
 10
10.6
 20
17.1
 30
0.0
 11
10.6
 21
17.3
 31
0.0
  0
LINE
  8
PARAMS
 62
     7
  5
6E
 10
9.7
 20
16.1
 30
0.0
 11
9.7
 21
15.9
 31
0.0
  0
LINE
  8
PARAMS
 62
     7
  5
6F
 10
12.9
 20
11.2
 30
0.0
 11
12.9
 21
11.0
 31
0.0
  0
LINE
  8
PARAMS
 62
     7
  5
70
 10
7.5
 20
15.7
 30
0.0
 11
7.5
 21
15.9
 31
0.0
  0
LINE
  8
PARAMS
 62
     7
  5
71
 10
6.6
 20
14.5
 30
0.0
 11
6.6
 21
14.7
 31
0.0
  0
LINE
  8
PARAMS
 62
     7
  5
72
 10
9.9
 20
9.8
 30
0.0
 11
11.1
 21
9.8
 31
0.0
  0
LINE
  8
PARAMS
 62
     7
  5
73
 10
7.8
 20
12.2
 30
0.0
 11
9.0
 21
12.2
 31
0.0
  0
LINE
  8
PARAMS
 62
     7
  5
74
 10
9.7
 20
13.3
 30
0.0
 11
10.9
 21
13.3
 31
0.0
  0
LINE
  8
PARAMS
 62
     7
  5
75
 10
10.6
 20
15.7
 30
0.0
 11
11.8
 21
15.7
 31
0.0
  0
LINE
  8
PARAMS
 62
     7
  5
76
 10
10.6
 20
11.2
 30
0.0
 11
11.8
 21
11.2
 31
0.0
  0
LINE
  8
PARAMS
 62
     7
  5
77
 10
11.5
 20
13.5
 30
0.0
 11
12.7
 21
13.5
 31
0.0
  0
LINE
  8
PARAMS
 62
     7
  5
78
 10
10.6
 20
12.9
 30
0.0
 11
11.8
 21
12.9
 31
0.0
  0
LINE
  8
PARAMS
 62
     7
  5
79
 10
10.6
 20
12.0
 30
0.0
 11
11.8
 21
12.0
 31
0.0
  0
LINE
  8
PARAMS
 62
     7
  5
7A
 10
10.6
 20
14.7
 30
0.0
 11
11.8
 21
14.7
 31
0.0
  0
LINE
  8
PARAMS
 62
     7
  5
7B
 10
10.6
 20
17.3
 30
0.0
 11
11.8
 21
17.3
 31
0.0
  0
LINE
  8
PARAMS
 62
     7
  5
7C
 10
9.7
 20
15.9
 30
0.0
 11
10.9
 21
15.9
 31
0.0
  0
LINE
  8
PARAMS
 62
     7
  5
7D
 10
12.9
 20
11.0
 30
0.0
 11
14.1
 21
11.0
 31
0.0
  0
LINE
  8
PARAMS
 62
     7
  5
7E
 10
7.5
 20
15.9
 30
0.0
 11
8.7
 21
15.9
 31
0.0
  0
LINE
  8
PARAMS
 62
     7
  5
7F
 10
6.6
 20
14.7
 30
0.0
 11
7.8
 21
14.7
 31
0.0
  0
LINE
  8
PARAMS
 62
     7
  5
80
 10
11.1
 20
9.8
 30
0.0
 11
11.1
 21
10.0
 31
0.0
  0
LINE
  8
PARAMS
 62
     7
  5
81
 10
9.0
 20
12.2
 30
0.0
 11
9.0
 21
12.0
 31
0.0
  0
LINE
  8
PARAMS
 62
     7
  5
82
 10
10.9
 20
13.3
 30
0.0
 11
10.9
 21
13.5
 31
0.0
  0
LINE
  8
PARAMS
 62
     7
  5
83
 10
11.8
 20
15.7
 30
0.0
 11
11.8
 21
15.5
 31
0.0
  0
LINE
  8
PARAMS
 62
     7
  5
84
 10
11.8
 20
11.2
 30
0.0
 11
11.8
 21
11.0
 31
0.0
  0
LINE
  8
PARAMS
 62
     7
  5
85
 10
12.7
 20
13.5
 30
0.0
 11
12.7
 21
13.3
 31
0.0
  0
LINE
  8
PARAMS
 62
     7
  5
86
 10
11.8
 20
12.9
 30
0.0
 11
11.8
 21
12.7
 31
0.0
  0
LINE
  8
PARAMS
 62
     7
  5
87
 10
11.8
 20
12.0
 30
0.0
 11
11.8
 21
11.8
 31
0.0
  0
LINE
  8
PARAMS
 62
     7
  5
88
 10
11.8
 20
14.7
 30
0.0
 11
11.8
 21
14.5
 31
0.0
  0
LINE
  8
PARAMS
 62
     7
  5
89
 10
11.8
 20
17.3
 30
0.0
 11
11.8
 21
17.1
 31
0.0
  0
LINE
  8
PARAMS
 62
     7
  5
8A
 10
10.9
 20
15.9
 30
0.0
 11
10.9
 21
16.1
 31
0.0
  0
LINE
  8
PARAMS
 62
     7
  5
8B
 10
14.1
 20
11.0
 30
0.0
 11
14.1
 21
11.2
 31
0.0
  0
LINE
  8
PARAMS
 62
     7
  5
8C
 10
8.7
 20
15.9
 30
0.0
 11
8.7
 21
15.7
 31
0.0
  0
LINE
  8
PARAMS
 62
     7
  5
8D
 10
7.8
 20
14.7
 30
0.0
 11
7.8
 21
14.5
 31
0.0
  0
LINE
  8
PARAMS
 62
     7
  5
8E
 10
11.1
 20
10.0
 30
0.0
 11
9.9
 21
10.0
 31
0.0
  0
LINE
  8
PARAMS
 62
     7
  5
8F
 10
9.0
 20
12.0
 30
0.0
 11
7.8
 21
12.0
 31
0.0
  0
LINE
  8
PARAMS
 62
     7
  5
90
 10
10.9
 20
13.5
 30
0.0
 11
9.7
 21
13.5
 31
0.0
  0
LINE
  8
PARAMS
 62
     7
  5
91
 10
11.8
 20
15.5
 30
0.0
 11
10.6
 21
15.5
 31
0.0
  0
LINE
  8
PARAMS
 62
     7
  5
92
 10
11.8
 20
11.0
 30
0.0
 11
10.6
 21
11.0
 31
0.0
  0
LINE
  8
PARAMS
 62
     7
  5
93
 10
12.7
 20
13.3
 30
0.0
 11
11.5
 21
13.3
 31
0.0
  0
LINE
  8
PARAMS
 62
     7
  5
94
 10
11.8
 20
12.7
 30
0.0
 11
10.6
 21
12.7
 31
0.0
  0
LINE
  8
PARAMS
 62
     7
  5
95
 10
11.8
 20
11.8
 30
0.0
 11
10.6
 21
11.8
 31
0.0
  0
LINE
  8
PARAMS
 62
     7
  5
96
 10
11.8
 20
14.5
 30
0.0
 11
10.6
 21
14.5
 31
0.0
  0
LINE
  8
PARAMS
 62
     7
  5
97
 10
11.8
 20
17.1
 30
0.0
 11
10.6
 21
17.1
 31
0.0
  0
LINE
  8
PARAMS
 62
     7
  5
98
 10
10.9
 20
16.1
 30
0.0
 11
9.7
 21
16.1
 31
0.0
  0
LINE
  8
PARAMS
 62
     7
  5
99
 10
14.1
 20
11.2
 30
0.0
 11
12.9
 21
11.2
 31
0.0
  0
LINE
  8
PARAMS
 62
     7
  5
9A
 10
8.7
 20
15.7
 30
0.0
 11
7.5
 21
15.7
 31
0.0
  0
LINE
  8
PARAMS
 62
     7
  5
9B
 10
7.8
 20
14.5
 30
0.0
 11
6.6
 21
14.5
 31
0.0
  0
TEXT
  8
STANDARD
 62
     7
  5
9C
 10
6.425
 20
10.1
 30
0.0
 40
0.2
  1
pid.0
  7
STYLE1
 72
     1
 11
6.7
 21
10.2
 31
0.0
 73
     2
  0
POLYLINE
  8
STANDARD
 62
     7
  5
9D
 66
     1
 10
0.0
 20
0.0
 30
0.0
 70
     1
  0
VERTEX
  8
STANDARD
 62
     7
  5
9E
 10
11.0
 20
10.2
 30
0.0
  0
VERTEX
  8
STANDARD
 62
     7
  5
9F
 10
11.0
 20
10.8
 30
0.0
  0
VERTEX
  8
STANDARD
 62
     7
  5
A0
 10
11.6
 20
10.8
 30
0.0
  0
VERTEX
  8
STANDARD
 62
     7
  5
A1
 10
11.6
 20
10.2
 30
0.0
  0
VERTEX
  8
STANDARD
 62
     7
  5
A2
 10
11.0
 20
10.2
 30
0.0
  0
SEQEND
  8
0
  5
A3
  0
POLYLINE
  8
STANDARD
 62
     7
  5
A4
 66
     1
 10
0.0
 20
0.0
 30
0.0
 70
     1
  0
VERTEX
  8
STANDARD
 62
     7
  5
A5
 10
8.9
 20
11.2
 30
0.0
  0
VERTEX
  8
STANDARD
 62
     7
  5
A6
 10
8.9
 20
11.8
 30
0.0
  0
VERTEX
  8
STANDARD
 62
     7
  5
A7
 10
9.5
 20
11.8
 30
0.0
  0
VERTEX
  8
STANDARD
 62
     7
  5
A8
 10
9.5
 20
11.2
 30
0.0
  0
VERTEX
  8
STANDARD
 62
     7
  5
A9
 10
8.9
 20
11.2
 30
0.0
  0
SEQEND
  8
0
  5
AA
  0
POLYLINE
  8
STANDARD
 62
     7
  5
AB
 66
     1
 10
0.0
 20
0.0
 30
0.0
 70
     1
  0
VERTEX
  8
STANDARD
 62
     7
  5
AC
 10
10.8
 20
13.7
 30
0.0
  0
VERTEX
  8
STANDARD
 62
     7
  5
AD
 10
10.8
 20
14.3
 30
0.0
  0
VERTEX
  8
STANDARD
 62
     7
  5
AE
 10
11.4
 20
14.3
 30
0.0
  0
VERTEX
  8
STANDARD
 62
     7
  5
AF
 10
11.4
 20
13.7
 30
0.0
  0
VERTEX
  8
STANDARD
 62
     7
  5
B0
 10
10.8
 20
13.7
 30
0.0
  0
SEQEND
  8
0
  5
B1
  0
POLYLINE
  8
STANDARD
 62
     7
  5
B2
 66
     1
 10
0.0
 20
0.0
 30
0.0
 70
     1
  0
VERTEX
  8
STANDARD
 62
     7
  5
B3
 10
10.8
 20
16.3
 30
0.0
  0
VERTEX
  8
STANDARD
 62
     7
  5
B4
 10
10.8
 20
16.9
 30
0.0
  0
VERTEX
  8
STANDARD
 62
     7
  5
B5
 10
11.4
 20
16.9
 30
0.0
  0
VERTEX
  8
STANDARD
 62
     7
  5
B6
 10
11.4
 20
16.3
 30
0.0
  0
VERTEX
  8
STANDARD
 62
     7
  5
B7
 10
10.8
 20
16.3
 30
0.0
  0
SEQEND
  8
0
  5
B8
  0
POLYLINE
  8
STANDARD
 62
     7
  5
B9
 66
     1
 10
0.0
 20
0.0
 30
0.0
 70
     1
  0
VERTEX
  8
STANDARD
 62
     7
  5
BA
 10
14.0
 20
13.1
 30
0.0
  0
VERTEX
  8
STANDARD
 62
     7
  5
BB
 10
14.0
 20
13.7
 30
0.0
  0
VERTEX
  8
STANDARD
 62
     7
  5
BC
 10
14.6
 20
13.7
 30
0.0
  0
VERTEX
  8
STANDARD
 62
     7
  5
BD
 10
14.6
 20
13.1
 30
0.0
  0
VERTEX
  8
STANDARD
 62
     7
  5
BE
 10
14.0
 20
13.1
 30
0.0
  0
SEQEND
  8
0
  5
BF
  0
POLYLINE
  8
STANDARD
 62
     7
  5
C0
 66
     1
 10
0.0
 20
0.0
 30
0.0
 70
     1
  0
VERTEX
  8
STANDARD
 62
     7
  5
C1
 10
8.6
 20
14.9
 30
0.0
  0
VERTEX
  8
STANDARD
 62
     7
  5
C2
 10
8.6
 20
15.5
 30
0.0
  0
VERTEX
  8
STANDARD
 62
     7
  5
C3
 10
9.2
 20
15.5
 30
0.0
  0
VERTEX
  8
STANDARD
 62
     7
  5
C4
 10
9.2
 20
14.9
 30
0.0
  0
VERTEX
  8
STANDARD
 62
     7
  5
C5
 10
8.6
 20
14.9
 30
0.0
  0
SEQEND
  8
0
  5
C6
  0
POLYLINE
  8
STANDARD
 62
     7
  5
C7
 66
     1
 10
0.0
 20
0.0
 30
0.0
 70
     1
  0
VERTEX
  8
STANDARD
 62
     7
  5
C8
 10
7.7
 20
14.9
 30
0.0
  0
VERTEX
  8
STANDARD
 62
     7
  5
C9
 10
7.7
 20
15.5
 30
0.0
  0
VERTEX
  8
STANDARD
 62
     7
  5
CA
 10
8.3
 20
15.5
 30
0.0
  0
VERTEX
  8
STANDARD
 62
     7
  5
CB
 10
8.3
 20
14.9
 30
0.0
  0
VERTEX
  8
STANDARD
 62
     7
  5
CC
 10
7.7
 20
14.9
 30
0.0
  0
SEQEND
  8
0
  5
CD
  0
LINE
  8
STANDARD
  6
ORTHO_50_50
 62
     7
  5
CF
 10
11.0
 20
10.5
 30
0.0
 11
11.6
 21
10.5
 31
0.0
  0
LINE
  8
STANDARD
  6
ORTHO_50_50
 62
     7
  5
D0
 10
8.9
 20
11.5
 30
0.0
 11
9.5
 21
11.5
 31
0.0
  0
LINE
  8
STANDARD
  6
ORTHO_50_50
 62
     7
  5
D1
 10
10.8
 20
14.0
 30
0.0
 11
11.4
 21
14.0
 31
0.0
  0
LINE
  8
STANDARD
  6
ORTHO_50_50
 62
     7
  5
D2
 10
10.8
 20
16.6
 30
0.0
 11
11.4
 21
16.6
 31
0.0
  0
LINE
  8
STANDARD
  6
ORTHO_50_50
 62
     7
  5
D3
 10
14.0
 20
13.4
 30
0.0
 11
14.6
 21
13.4
 31
0.0
  0
LINE
  8
STANDARD
  6
ORTHO_50_50
 62
     7
  5
D4
 10
8.6
 20
15.2
 30
0.0
 11
9.2
 21
15.2
 31
0.0
  0
LINE
  8
STANDARD
  6
ORTHO_50_50
 62
     7
  5
D5
 10
7.7
 20
15.2
 30
0.0
 11
8.3
 21
15.2
 31
0.0
  0
LINE
  8
STANDARD
  6
ORTHO_50_50
 62
     7
  5
D6
 10
11.3
 20
10.8
 30
0.0
 11
11.3
 21
10.2
 31
0.0
  0
LINE
  8
STANDARD
  6
ORTHO_50_50
 62
     7
  5
D7
 10
9.2
 20
11.8
 30
0.0
 11
9.2
 21
11.2
 31
0.0
  0
LINE
  8
STANDARD
  6
ORTHO_50_50
 62
     7
  5
D8
 10
11.1
 20
14.3
 30
0.0
 11
11.1
 21
13.7
 31
0.0
  0
LINE
  8
STANDARD
  6
ORTHO_50_50
 62
     7
  5
D9
 10
11.1
 20
16.9
 30
0.0
 11
11.1
 21
16.3
 31
0.0
  0
LINE
  8
STANDARD
  6
ORTHO_50_50
 62
     7
  5
DA
 10
14.3
 20
13.7
 30
0.0
 11
14.3
 21
13.1
 31
0.0
  0
LINE
  8
STANDARD
  6
ORTHO_50_50
 62
     7
  5
DB
 10
8.9
 20
15.5
 30
0.0
 11
8.9
 21
14.9
 31
0.0
  0
LINE
  8
STANDARD
  6
ORTHO_50_50
 62
     7
  5
DC
 10
8.0
 20
15.5
 30
0.0
 11
8.0
 21
14.9
 31
0.0
  0
LINE
  8
STANDARD
 62
     7
  5
DD
 10
7.7
 20
14.9
 30
0.0
 11
7.9
 21
15.1
 31
0.0
  0
LINE
  8
STANDARD
 62
     7
  5
DE
 10
7.9
 20
15.1
 30
0.0
 11
7.9
 21
15.2
 31
0.0
  0
LINE
  8
STANDARD
 62
     7
  5
DF
 10
7.9
 20
15.2
 30
0.0
 11
8.1
 21
15.2
 31
0.0
  0
LINE
  8
STANDARD
 62
     7
  5
E0
 10
8.1
 20
15.2
 30
0.0
 11
8.1
 21
15.3
 31
0.0
  0
LINE
  8
STANDARD
 62
     7
  5
E1
 10
8.1
 20
15.3
 30
0.0
 11
8.3
 21
15.5
 31
0.0
  0
LINE
  8
STANDARD
 62
     7
  5
E2
 10
11.0
 20
10.3
 30
0.0
 11
11.1
 21
10.3
 31
0.0
  0
LINE
  8
STANDARD
 62
     7
  5
E3
 10
8.9
 20
11.3
 30
0.0
 11
9.0
 21
11.3
 31
0.0
  0
LINE
  8
STANDARD
 62
     7
  5
E4
 10
10.8
 20
13.8
 30
0.0
 11
10.9
 21
13.8
 31
0.0
  0
LINE
  8
STANDARD
 62
     7
  5
E5
 10
10.8
 20
16.4
 30
0.0
 11
10.9
 21
16.4
 31
0.0
  0
LINE
  8
STANDARD
 62
     7
  5
E6
 10
14.0
 20
13.2
 30
0.0
 11
14.1
 21
13.2
 31
0.0
  0
LINE
  8
STANDARD
 62
     7
  5
E7
 10
8.6
 20
15.0
 30
0.0
 11
8.7
 21
15.0
 31
0.0
  0
LINE
  8
STANDARD
 62
     7
  5
E8
 10
11.1
 20
10.3
 30
0.0
 11
11.5
 21
10.7
 31
0.0
  0
LINE
  8
STANDARD
 62
     7
  5
E9
 10
9.0
 20
11.3
 30
0.0
 11
9.4
 21
11.7
 31
0.0
  0
LINE
  8
STANDARD
 62
     7
  5
EA
 10
10.9
 20
13.8
 30
0.0
 11
11.3
 21
14.2
 31
0.0
  0
LINE
  8
STANDARD
 62
     7
  5
EB
 10
10.9
 20
16.4
 30
0.0
 11
11.3
 21
16.8
 31
0.0
  0
LINE
  8
STANDARD
 62
     7
  5
EC
 10
14.1
 20
13.2
 30
0.0
 11
14.5
 21
13.6
 31
0.0
  0
LINE
  8
STANDARD
 62
     7
  5
ED
 10
8.7
 20
15.0
 30
0.0
 11
9.1
 21
15.4
 31
0.0
  0
LINE
  8
STANDARD
 62
     7
  5
EE
 10
11.5
 20
10.7
 30
0.0
 11
11.6
 21
10.7
 31
0.0
  0
LINE
  8
STANDARD
 62
     7
  5
EF
 10
9.4
 20
11.7
 30
0.0
 11
9.5
 21
11.7
 31
0.0
  0
LINE
  8
STANDARD
 62
     7
  5
F0
 10
11.3
 20
14.2
 30
0.0
 11
11.4
 21
14.2
 31
0.0
  0
LINE
  8
STANDARD
 62
     7
  5
F1
 10
11.3
 20
16.8
 30
0.0
 11
11.4
 21
16.8
 31
0.0
  0
LINE
  8
STANDARD
 62
     7
  5
F2
 10
14.5
 20
13.6
 30
0.0
 11
14.6
 21
13.6
 31
0.0
  0
LINE
  8
STANDARD
 62
     7
  5
F3
 10
9.1
 20
15.4
 30
0.0
 11
9.2
 21
15.4
 31
0.0
  0
CIRCLE
  8
STANDARD
 62
     7
  5
F4
 10
6.3
 20
15.2
 30
0.0
 40
0.2
  0
CIRCLE
  8
STANDARD
 62
     7
  5
F5
 10
12.6
 20
11.5
 30
0.0
 40
0.2
  0
CIRCLE
  8
STANDARD
 62
     7
  5
F6
 10
13.3
 20
13.4
 30
0.0
 40
0.2
  0
CIRCLE
  8
STANDARD
 62
     7
  5
F7
 10
12.6
 20
15.2
 30
0.0
 40
0.2
  0
LINE
  8
STANDARD
 62
     7
  5
F8
 10
6.3
 20
15.2
 30
0.0
 11
6.441421
 21
15.341421
 31
0.0
  0
LINE
  8
STANDARD
 62
     7
  5
F9
 10
12.6
 20
11.5
 30
0.0
 11
12.741421
 21
11.641421
 31
0.0
  0
LINE
  8
STANDARD
 62
     7
  5
FA
 10
13.3
 20
13.4
 30
0.0
 11
13.441421
 21
13.541421
 31
0.0
  0
LINE
  8
STANDARD
 62
     7
  5
FB
 10
12.6
 20
15.2
 30
0.0
 11
12.741421
 21
15.341421
 31
0.0
  0
LINE
  8
STANDARD
 62
     7
  5
FC
 10
6.3
 20
15.2
 30
0.0
 11
6.158579
 21
15.341421
 31
0.0
  0
LINE
  8
STANDARD
 62
     7
  5
FD
 10
12.6
 20
11.5
 30
0.0
 11
12.458579
 21
11.641421
 31
0.0
  0
LINE
  8
STANDARD
 62
     7
  5
FE
 10
13.3
 20
13.4
 30
0.0
 11
13.158579
 21
13.541421
 31
0.0
  0
LINE
  8
STANDARD
 62
     7
  5
FF
 10
12.6
 20
15.2
 30
0.0
 11
12.458579
 21
15.341421
 31
0.0
  0
LINE
  8
STANDARD
 62
     7
  5
100
 10
6.3
 20
15.2
 30
0.0
 11
6.158579
 21
15.058579
 31
0.0
  0
LINE
  8
STANDARD
 62
     7
  5
101
 10
12.6
 20
11.5
 30
0.0
 11
12.458579
 21
11.358579
 31
0.0
  0
LINE
  8
STANDARD
 62
     7
  5
102
 10
13.3
 20
13.4
 30
0.0
 11
13.158579
 21
13.258579
 31
0.0
  0
LINE
  8
STANDARD
 62
     7
  5
103
 10
12.6
 20
15.2
 30
0.0
 11
12.458579
 21
15.058579
 31
0.0
  0
LINE
  8
STANDARD
 62
     7
  5
104
 10
6.3
 20
15.2
 30
0.0
 11
6.441421
 21
15.058579
 31
0.0
  0
LINE
  8
STANDARD
 62
     7
  5
105
 10
12.6
 20
11.5
 30
0.0
 11
12.741421
 21
11.358579
 31
0.0
  0
LINE
  8
STANDARD
 62
     7
  5
106
 10
13.3
 20
13.4
 30
0.0
 11
13.441421
 21
13.258579
 31
0.0
  0
LINE
  8
STANDARD
 62
     7
  5
107
 10
12.6
 20
15.2
 30
0.0
 11
12.741421
 21
15.058579
 31
0.0
  0
LINE
  8
STANDARD
 62
     7
  5
108
 10
6.25
 20
15.32
 30
0.0
 11
6.35
 21
15.32
 31
0.0
  0
LINE
  8
STANDARD
 62
     7
  5
109
 10
12.55
 20
11.62
 30
0.0
 11
12.65
 21
11.62
 31
0.0
  0
LINE
  8
STANDARD
 62
     7
  5
10A
 10
13.25
 20
13.52
 30
0.0
 11
13.35
 21
13.52
 31
0.0
  0
LINE
  8
STANDARD
 62
     7
  5
10B
 10
12.55
 20
15.32
 30
0.0
 11
12.65
 21
15.32
 31
0.0
  0
LINE
  8
STANDARD
 62
     7
  5
10C
 10
12.6
 20
11.67
 30
0.0
 11
12.6
 21
11.57
 31
0.0
  0
LINE
  8
STANDARD
 62
     7
  5
10D
 10
13.3
 20
13.57
 30
0.0
 11
13.3
 21
13.47
 31
0.0
  0
LINE
  8
STANDARD
 62
     7
  5
10E
 10
12.6
 20
15.37
 30
0.0
 11
12.6
 21
15.27
 31
0.0
  0
LINE
  8
STANDARD
 62
     7
  5
10F
 10
12.43
 20
11.5
 30
0.0
 11
12.53
 21
11.5
 31
0.0
  0
LINE
  8
STANDARD
 62
     7
  5
110
 10
13.13
 20
13.4
 30
0.0
 11
13.23
 21
13.4
 31
0.0
  0
LINE
  8
STANDARD
 62
     7
  5
111
 10
12.43
 20
15.2
 30
0.0
 11
12.53
 21
15.2
 31
0.0
  0
LINE
  8
STANDARD
 62
     7
  5
112
 10
12.48
 20
11.55
 30
0.0
 11
12.48
 21
11.45
 31
0.0
  0
LINE
  8
STANDARD
 62
     7
  5
113
 10
13.18
 20
13.45
 30
0.0
 11
13.18
 21
13.35
 31
0.0
  0
LINE
  8
STANDARD
 62
     7
  5
114
 10
12.48
 20
15.25
 30
0.0
 11
12.48
 21
15.15
 31
0.0
  0
LINE
  8
STANDARD
 62
     7
  5
115
 10
6.3
 20
15.13
 30
0.0
 11
6.3
 21
15.03
 31
0.0
  0
LINE
  8
STANDARD
 62
     7
  5
116
 10
12.6
 20
11.43
 30
0.0
 11
12.6
 21
11.33
 31
0.0
  0
LINE
  8
STANDARD
 62
     7
  5
117
 10
13.3
 20
13.33
 30
0.0
 11
13.3
 21
13.23
 31
0.0
  0
LINE
  8
STANDARD
 62
     7
  5
118
 10
12.6
 20
15.13
 30
0.0
 11
12.6
 21
15.03
 31
0.0
  0
LINE
  8
STANDARD
 62
     7
  5
119
 10
6.25
 20
15.08
 30
0.0
 11
6.35
 21
15.08
 31
0.0
  0
LINE
  8
STANDARD
 62
     7
  5
11A
 10
12.55
 20
11.38
 30
0.0
 11
12.65
 21
11.38
 31
0.0
  0
LINE
  8
STANDARD
 62
     7
  5
11B
 10
13.25
 20
13.28
 30
0.0
 11
13.35
 21
13.28
 31
0.0
  0
LINE
  8
STANDARD
 62
     7
  5
11C
 10
12.55
 20
15.08
 30
0.0
 11
12.65
 21
15.08
 31
0.0
  0
POLYLINE
  8
STANDARD
 62
     7
  5
11D
 66
     1
 10
0.0
 20
0.0
 30
0.0
 70
     1
  0
VERTEX
  8
STANDARD
 62
     7
  5
11E
 10
10.0
 20
10.2
 30
0.0
  0
VERTEX
  8
STANDARD
 62
     7
  5
11F
 10
10.0
 20
10.8
 30
0.0
  0
VERTEX
  8
STANDARD
 62
     7
  5
120
 10
10.6
 20
10.8
 30
0.0
  0
VERTEX
  8
STANDARD
 62
     7
  5
121
 10
10.7
 20
10.5
 30
0.0
  0
VERTEX
  8
STANDARD
 62
     7
  5
122
 10
10.6
 20
10.2
 30
0.0
  0
VERTEX
  8
STANDARD
 62
     7
  5
123
 10
10.0
 20
10.2
 30
0.0
  0
VERTEX
  8
STANDARD
 62
     7
  5
124
 10
10.0
 20
10.2
 30
0.0
  0
SEQEND
  8
0
  5
125
  0
POLYLINE
  8
STANDARD
 62
     7
  5
126
 66
     1
 10
0.0
 20
0.0
 30
0.0
 70
     1
  0
VERTEX
  8
STANDARD
 62
     7
  5
127
 10
7.9
 20
11.2
 30
0.0
  0
VERTEX
  8
STANDARD
 62
     7
  5
128
 10
7.9
 20
11.8
 30
0.0
  0
VERTEX
  8
STANDARD
 62
     7
  5
129
 10
8.5
 20
11.8
 30
0.0
  0
VERTEX
  8
STANDARD
 62
     7
  5
12A
 10
8.6
 20
11.5
 30
0.0
  0
VERTEX
  8
STANDARD
 62
     7
  5
12B
 10
8.5
 20
11.2
 30
0.0
  0
VERTEX
  8
STANDARD
 62
     7
  5
12C
 10
7.9
 20
11.2
 30
0.0
  0
VERTEX
  8
STANDARD
 62
     7
  5
12D
 10
7.9
 20
11.2
 30
0.0
  0
SEQEND
  8
0
  5
12E
  0
POLYLINE
  8
STANDARD
 62
     7
  5
12F
 66
     1
 10
0.0
 20
0.0
 30
0.0
 70
     1
  0
VERTEX
  8
STANDARD
 62
     7
  5
130
 10
9.8
 20
13.7
 30
0.0
  0
VERTEX
  8
STANDARD
 62
     7
  5
131
 10
9.8
 20
14.3
 30
0.0
  0
VERTEX
  8
STANDARD
 62
     7
  5
132
 10
10.4
 20
14.3
 30
0.0
  0
VERTEX
  8
STANDARD
 62
     7
  5
133
 10
10.5
 20
14.0
 30
0.0
  0
VERTEX
  8
STANDARD
 62
     7
  5
134
 10
10.4
 20
13.7
 30
0.0
  0
VERTEX
  8
STANDARD
 62
     7
  5
135
 10
9.8
 20
13.7
 30
0.0
  0
VERTEX
  8
STANDARD
 62
     7
  5
136
 10
9.8
 20
13.7
 30
0.0
  0
SEQEND
  8
0
  5
137
  0
POLYLINE
  8
STANDARD
 62
     7
  5
138
 66
     1
 10
0.0
 20
0.0
 30
0.0
 70
     1
  0
VERTEX
  8
STANDARD
 62
     7
  5
139
 10
9.8
 20
16.3
 30
0.0
  0
VERTEX
  8
STANDARD
 62
     7
  5
13A
 10
9.8
 20
16.9
 30
0.0
  0
VERTEX
  8
STANDARD
 62
     7
  5
13B
 10
10.4
 20
16.9
 30
0.0
  0
VERTEX
  8
STANDARD
 62
     7
  5
13C
 10
10.5
 20
16.6
 30
0.0
  0
VERTEX
  8
STANDARD
 62
     7
  5
13D
 10
10.4
 20
16.3
 30
0.0
  0
VERTEX
  8
STANDARD
 62
     7
  5
13E
 10
9.8
 20
16.3
 30
0.0
  0
VERTEX
  8
STANDARD
 62
     7
  5
13F
 10
9.8
 20
16.3
 30
0.0
  0
SEQEND
  8
0
  5
140
  0
TEXT
  8
STANDARD
 62
     7
  5
141
 10
10.2725
 20
10.55
 30
0.0
 40
0.1
  1
d
  7
STYLE1
 72
     1
 11
10.3
 21
10.6
 31
0.0
 73
     2
  0
TEXT
  8
STANDARD
 62
     7
  5
142
 10
8.1725
 20
11.55
 30
0.0
 40
0.1
  1
d
  7
STYLE1
 72
     1
 11
8.2
 21
11.6
 31
0.0
 73
     2
  0
TEXT
  8
STANDARD
 62
     7
  5
143
 10
10.0725
 20
14.05
 30
0.0
 40
0.1
  1
d
  7
STYLE1
 72
     1
 11
10.1
 21
14.1
 31
0.0
 73
     2
  0
TEXT
  8
STANDARD
 62
     7
  5
144
 10
10.245
 20
10.35
 30
0.0
 40
0.1
  1
dT
  7
STYLE1
 72
     1
 11
10.3
 21
10.4
 31
0.0
 73
     2
  0
TEXT
  8
STANDARD
 62
     7
  5
145
 10
8.145
 20
11.35
 30
0.0
 40
0.1
  1
dT
  7
STYLE1
 72
     1
 11
8.2
 21
11.4
 31
0.0
 73
     2
  0
TEXT
  8
STANDARD
 62
     7
  5
146
 10
10.045
 20
13.85
 30
0.0
 40
0.1
  1
dT
  7
STYLE1
 72
     1
 11
10.1
 21
13.9
 31
0.0
 73
     2
  0
LINE
  8
STANDARD
 62
     7
  5
147
 10
10.2
 20
10.5
 30
0.0
 11
10.4
 21
10.5
 31
0.0
  0
LINE
  8
STANDARD
 62
     7
  5
148
 10
8.1
 20
11.5
 30
0.0
 11
8.3
 21
11.5
 31
0.0
  0
LINE
  8
STANDARD
 62
     7
  5
149
 10
10.0
 20
14.0
 30
0.0
 11
10.2
 21
14.0
 31
0.0
  0
POLYLINE
  8
STANDARD
 62
     7
  5
14A
 66
     1
 10
0.0
 20
0.0
 30
0.0
  0
VERTEX
  8
STANDARD
 62
     7
  5
14B
 10
10.2
 20
16.8
 30
0.0
  0
VERTEX
  8
STANDARD
 62
     7
  5
14C
 10
10.187533
 20
16.79987
 30
0.0
  0
VERTEX
  8
STANDARD
 62
     7
  5
14D
 10
10.17526
 20
16.798958
 30
0.0
  0
VERTEX
  8
STANDARD
 62
     7
  5
14E
 10
10.163379
 20
16.796484
 30
0.0
  0
VERTEX
  8
STANDARD
 62
     7
  5
14F
 10
10.152083
 20
16.791667
 30
0.0
  0
VERTEX
  8
STANDARD
 62
     7
  5
150
 10
10.141569
 20
16.783724
 30
0.0
  0
VERTEX
  8
STANDARD
 62
     7
  5
151
 10
10.132031
 20
16.771875
 30
0.0
  0
VERTEX
  8
STANDARD
 62
     7
  5
152
 10
10.123665
 20
16.755339
 30
0.0
  0
VERTEX
  8
STANDARD
 62
     7
  5
153
 10
10.116667
 20
16.733333
 30
0.0
  0
VERTEX
  8
STANDARD
 62
     7
  5
154
 10
10.111133
 20
16.705469
 30
0.0
  0
VERTEX
  8
STANDARD
 62
     7
  5
155
 10
10.106771
 20
16.672917
 30
0.0
  0
VERTEX
  8
STANDARD
 62
     7
  5
156
 10
10.10319
 20
16.63724
 30
0.0
  0
VERTEX
  8
STANDARD
 62
     7
  5
157
 10
10.1
 20
16.6
 30
0.0
  0
VERTEX
  8
STANDARD
 62
     7
  5
158
 10
10.09681
 20
16.56276
 30
0.0
  0
VERTEX
  8
STANDARD
 62
     7
  5
159
 10
10.093229
 20
16.527083
 30
0.0
  0
VERTEX
  8
STANDARD
 62
     7
  5
15A
 10
10.088867
 20
16.494531
 30
0.0
  0
VERTEX
  8
STANDARD
 62
     7
  5
15B
 10
10.083333
 20
16.466667
 30
0.0
  0
VERTEX
  8
STANDARD
 62
     7
  5
15C
 10
10.076335
 20
16.444661
 30
0.0
  0
VERTEX
  8
STANDARD
 62
     7
  5
15D
 10
10.067969
 20
16.428125
 30
0.0
  0
VERTEX
  8
STANDARD
 62
     7
  5
15E
 10
10.058431
 20
16.416276
 30
0.0
  0
VERTEX
  8
STANDARD
 62
     7
  5
15F
 10
10.047917
 20
16.408333
 30
0.0
  0
VERTEX
  8
STANDARD
 62
     7
  5
160
 10
10.036621
 20
16.403516
 30
0.0
  0
VERTEX
  8
STANDARD
 62
     7
  5
161
 10
10.02474
 20
16.401042
 30
0.0
  0
VERTEX
  8
STANDARD
 62
     7
  5
162
 10
10.012467
 20
16.40013
 30
0.0
  0
VERTEX
  8
STANDARD
 62
     7
  5
163
 10
10.0
 20
16.4
 30
0.0
  0
SEQEND
  8
0
  5
164
  0
LINE
  8
STANDARD
 62
     7
  5
165
 10
7.0
 20
15.2
 30
0.0
 11
7.0
 21
16.6
 31
0.0
  0
CIRCLE
  8
STANDARD
 62
     7
  5
166
 10
7.0
 20
15.2
 30
0.0
 40
0.02
  0
LINE
  8
STANDARD
 62
     7
  5
167
 10
7.0
 20
16.6
 30
0.0
 11
5.9
 21
16.6
 31
0.0
  0
POLYLINE
  8
STANDARD
 62
     7
  5
168
 66
     1
 10
0.0
 20
0.0
 30
0.0
  0
VERTEX
  8
STANDARD
 62
     7
  5
169
 10
5.9
 20
16.6
 30
0.0
  0
VERTEX
  8
STANDARD
 62
     7
  5
16A
 10
5.98
 20
16.58222
 30
0.0
  0
VERTEX
  8
STANDARD
 62
     7
  5
16B
 10
5.98
 20
16.61778
 30
0.0
  0
VERTEX
  8
STANDARD
 62
     7
  5
16C
 10
5.9
 20
16.6
 30
0.0
  0
SEQEND
  8
0
  5
16D
  0
LINE
  8
STANDARD
 62
     7
  5
16E
 10
7.0
 20
15.2
 30
0.0
 11
7.7
 21
15.2
 31
0.0
  0
POLYLINE
  8
STANDARD
 62
     7
  5
16F
 66
     1
 10
0.0
 20
0.0
 30
0.0
  0
VERTEX
  8
STANDARD
 62
     7
  5
170
 10
7.7
 20
15.2
 30
0.0
  0
VERTEX
  8
STANDARD
 62
     7
  5
171
 10
7.62
 20
15.21778
 30
0.0
  0
VERTEX
  8
STANDARD
 62
     7
  5
172
 10
7.62
 20
15.18222
 30
0.0
  0
VERTEX
  8
STANDARD
 62
     7
  5
173
 10
7.7
 20
15.2
 30
0.0
  0
SEQEND
  8
0
  5
174
  0
LINE
  8
STANDARD
 62
     7
  5
175
 10
6.3
 20
15.0
 30
0.0
 11
6.3
 21
13.8
 31
0.0
  0
POLYLINE
  8
STANDARD
 62
     7
  5
176
 66
     1
 10
0.0
 20
0.0
 30
0.0
  0
VERTEX
  8
STANDARD
 62
     7
  5
177
 10
6.3
 20
15.0
 30
0.0
  0
VERTEX
  8
STANDARD
 62
     7
  5
178
 10
6.28222
 20
14.92
 30
0.0
  0
VERTEX
  8
STANDARD
 62
     7
  5
179
 10
6.31778
 20
14.92
 30
0.0
  0
VERTEX
  8
STANDARD
 62
     7
  5
17A
 10
6.3
 20
15.0
 30
0.0
  0
SEQEND
  8
0
  5
17B
  0
LINE
  8
STANDARD
 62
     7
  5
17C
 10
7.8
 20
14.6
 30
0.0
 11
8.0
 21
14.6
 31
0.0
  0
LINE
  8
STANDARD
 62
     7
  5
17D
 10
11.1
 20
9.9
 30
0.0
 11
11.3
 21
9.9
 31
0.0
  0
LINE
  8
STANDARD
 62
     7
  5
17E
 10
9.0
 20
12.1
 30
0.0
 11
9.2
 21
12.1
 31
0.0
  0
LINE
  8
STANDARD
 62
     7
  5
17F
 10
10.9
 20
13.4
 30
0.0
 11
11.1
 21
13.4
 31
0.0
  0
LINE
  8
STANDARD
 62
     7
  5
180
 10
11.8
 20
15.6
 30
0.0
 11
12.0
 21
15.6
 31
0.0
  0
LINE
  8
STANDARD
 62
     7
  5
181
 10
11.8
 20
11.1
 30
0.0
 11
12.0
 21
11.1
 31
0.0
  0
LINE
  8
STANDARD
 62
     7
  5
182
 10
11.8
 20
12.8
 30
0.0
 11
12.0
 21
12.8
 31
0.0
  0
LINE
  8
STANDARD
 62
     7
  5
183
 10
11.8
 20
11.9
 30
0.0
 11
12.0
 21
11.9
 31
0.0
  0
LINE
  8
STANDARD
 62
     7
  5
184
 10
11.8
 20
14.6
 30
0.0
 11
12.0
 21
14.6
 31
0.0
  0
LINE
  8
STANDARD
 62
     7
  5
185
 10
11.8
 20
17.2
 30
0.0
 11
12.0
 21
17.2
 31
0.0
  0
LINE
  8
STANDARD
 62
     7
  5
186
 10
10.9
 20
16.0
 30
0.0
 11
11.1
 21
16.0
 31
0.0
  0
LINE
  8
STANDARD
 62
     7
  5
187
 10
14.1
 20
11.1
 30
0.0
 11
14.3
 21
11.1
 31
0.0
  0
LINE
  8
STANDARD
 62
     7
  5
188
 10
8.7
 20
15.8
 30
0.0
 11
8.9
 21
15.8
 31
0.0
  0
LINE
  8
STANDARD
 62
     7
  5
189
 10
8.0
 20
14.6
 30
0.0
 11
8.0
 21
14.9
 31
0.0
  0
POLYLINE
  8
STANDARD
 62
     7
  5
18A
 66
     1
 10
0.0
 20
0.0
 30
0.0
  0
VERTEX
  8
STANDARD
 62
     7
  5
18B
 10
8.0
 20
14.9
 30
0.0
  0
VERTEX
  8
STANDARD
 62
     7
  5
18C
 10
7.98222
 20
14.82
 30
0.0
  0
VERTEX
  8
STANDARD
 62
     7
  5
18D
 10
8.01778
 20
14.82
 30
0.0
  0
VERTEX
  8
STANDARD
 62
     7
  5
18E
 10
8.0
 20
14.9
 30
0.0
  0
SEQEND
  8
0
  5
18F
  0
LINE
  8
STANDARD
 62
     7
  5
190
 10
11.3
 20
9.9
 30
0.0
 11
11.3
 21
10.2
 31
0.0
  0
POLYLINE
  8
STANDARD
 62
     7
  5
191
 66
     1
 10
0.0
 20
0.0
 30
0.0
  0
VERTEX
  8
STANDARD
 62
     7
  5
192
 10
11.3
 20
10.2
 30
0.0
  0
VERTEX
  8
STANDARD
 62
     7
  5
193
 10
11.28222
 20
10.12
 30
0.0
  0
VERTEX
  8
STANDARD
 62
     7
  5
194
 10
11.31778
 20
10.12
 30
0.0
  0
VERTEX
  8
STANDARD
 62
     7
  5
195
 10
11.3
 20
10.2
 30
0.0
  0
SEQEND
  8
0
  5
196
  0
LINE
  8
STANDARD
 62
     7
  5
197
 10
9.2
 20
12.1
 30
0.0
 11
9.2
 21
11.8
 31
0.0
  0
POLYLINE
  8
STANDARD
 62
     7
  5
198
 66
     1
 10
0.0
 20
0.0
 30
0.0
  0
VERTEX
  8
STANDARD
 62
     7
  5
199
 10
9.2
 20
11.8
 30
0.0
  0
VERTEX
  8
STANDARD
 62
     7
  5
19A
 10
9.21778
 20
11.88
 30
0.0
  0
VERTEX
  8
STANDARD
 62
     7
  5
19B
 10
9.18222
 20
11.88
 30
0.0
  0
VERTEX
  8
STANDARD
 62
     7
  5
19C
 10
9.2
 20
11.8
 30
0.0
  0
SEQEND
  8
0
  5
19D
  0
LINE
  8
STANDARD
 62
     7
  5
19E
 10
11.1
 20
13.4
 30
0.0
 11
11.1
 21
13.7
 31
0.0
  0
POLYLINE
  8
STANDARD
 62
     7
  5
19F
 66
     1
 10
0.0
 20
0.0
 30
0.0
  0
VERTEX
  8
STANDARD
 62
     7
  5
1A0
 10
11.1
 20
13.7
 30
0.0
  0
VERTEX
  8
STANDARD
 62
     7
  5
1A1
 10
11.08222
 20
13.62
 30
0.0
  0
VERTEX
  8
STANDARD
 62
     7
  5
1A2
 10
11.11778
 20
13.62
 30
0.0
  0
VERTEX
  8
STANDARD
 62
     7
  5
1A3
 10
11.1
 20
13.7
 30
0.0
  0
SEQEND
  8
0
  5
1A4
  0
LINE
  8
STANDARD
 62
     7
  5
1A5
 10
12.0
 20
15.6
 30
0.0
 11
12.0
 21
15.35
 31
0.0
  0
POLYLINE
  8
STANDARD
 62
     7
  5
1A6
 66
     1
 10
0.0
 20
0.0
 30
0.0
  0
VERTEX
  8
STANDARD
 62
     7
  5
1A7
 10
12.0
 20
15.35
 30
0.0
  0
VERTEX
  8
STANDARD
 62
     7
  5
1A8
 10
12.01778
 20
15.43
 30
0.0
  0
VERTEX
  8
STANDARD
 62
     7
  5
1A9
 10
11.98222
 20
15.43
 30
0.0
  0
VERTEX
  8
STANDARD
 62
     7
  5
1AA
 10
12.0
 20
15.35
 30
0.0
  0
SEQEND
  8
0
  5
1AB
  0
LINE
  8
STANDARD
 62
     7
  5
1AC
 10
12.0
 20
11.1
 30
0.0
 11
12.0
 21
10.65
 31
0.0
  0
POLYLINE
  8
STANDARD
 62
     7
  5
1AD
 66
     1
 10
0.0
 20
0.0
 30
0.0
  0
VERTEX
  8
STANDARD
 62
     7
  5
1AE
 10
12.0
 20
10.65
 30
0.0
  0
VERTEX
  8
STANDARD
 62
     7
  5
1AF
 10
12.01778
 20
10.73
 30
0.0
  0
VERTEX
  8
STANDARD
 62
     7
  5
1B0
 10
11.98222
 20
10.73
 30
0.0
  0
VERTEX
  8
STANDARD
 62
     7
  5
1B1
 10
12.0
 20
10.65
 30
0.0
  0
SEQEND
  8
0
  5
1B2
  0
LINE
  8
STANDARD
 62
     7
  5
1B3
 10
12.0
 20
12.8
 30
0.0
 11
12.0
 21
12.55
 31
0.0
  0
POLYLINE
  8
STANDARD
 62
     7
  5
1B4
 66
     1
 10
0.0
 20
0.0
 30
0.0
  0
VERTEX
  8
STANDARD
 62
     7
  5
1B5
 10
12.0
 20
12.55
 30
0.0
  0
VERTEX
  8
STANDARD
 62
     7
  5
1B6
 10
12.01778
 20
12.63
 30
0.0
  0
VERTEX
  8
STANDARD
 62
     7
  5
1B7
 10
11.98222
 20
12.63
 30
0.0
  0
VERTEX
  8
STANDARD
 62
     7
  5
1B8
 10
12.0
 20
12.55
 30
0.0
  0
SEQEND
  8
0
  5
1B9
  0
LINE
  8
STANDARD
 62
     7
  5
1BA
 10
12.0
 20
11.9
 30
0.0
 11
12.0
 21
11.65
 31
0.0
  0
POLYLINE
  8
STANDARD
 62
     7
  5
1BB
 66
     1
 10
0.0
 20
0.0
 30
0.0
  0
VERTEX
  8
STANDARD
 62
     7
  5
1BC
 10
12.0
 20
11.65
 30
0.0
  0
VERTEX
  8
STANDARD
 62
     7
  5
1BD
 10
12.01778
 20
11.73
 30
0.0
  0
VERTEX
  8
STANDARD
 62
     7
  5
1BE
 10
11.98222
 20
11.73
 30
0.0
  0
VERTEX
  8
STANDARD
 62
     7
  5
1BF
 10
12.0
 20
11.65
 30
0.0
  0
SEQEND
  8
0
  5
1C0
  0
LINE
  8
STANDARD
 62
     7
  5
1C1
 10
12.0
 20
14.6
 30
0.0
 11
12.0
 21
14.15
 31
0.0
  0
POLYLINE
  8
STANDARD
 62
     7
  5
1C2
 66
     1
 10
0.0
 20
0.0
 30
0.0
  0
VERTEX
  8
STANDARD
 62
     7
  5
1C3
 10
12.0
 20
14.15
 30
0.0
  0
VERTEX
  8
STANDARD
 62
     7
  5
1C4
 10
12.01778
 20
14.23
 30
0.0
  0
VERTEX
  8
STANDARD
 62
     7
  5
1C5
 10
11.98222
 20
14.23
 30
0.0
  0
VERTEX
  8
STANDARD
 62
     7
  5
1C6
 10
12.0
 20
14.15
 30
0.0
  0
SEQEND
  8
0
  5
1C7
  0
LINE
  8
STANDARD
 62
     7
  5
1C8
 10
12.0
 20
17.2
 30
0.0
 11
12.0
 21
16.75
 31
0.0
  0
POLYLINE
  8
STANDARD
 62
     7
  5
1C9
 66
     1
 10
0.0
 20
0.0
 30
0.0
  0
VERTEX
  8
STANDARD
 62
     7
  5
1CA
 10
12.0
 20
16.75
 30
0.0
  0
VERTEX
  8
STANDARD
 62
     7
  5
1CB
 10
12.01778
 20
16.83
 30
0.0
  0
VERTEX
  8
STANDARD
 62
     7
  5
1CC
 10
11.98222
 20
16.83
 30
0.0
  0
VERTEX
  8
STANDARD
 62
     7
  5
1CD
 10
12.0
 20
16.75
 30
0.0
  0
SEQEND
  8
0
  5
1CE
  0
LINE
  8
STANDARD
 62
     7
  5
1CF
 10
11.1
 20
16.0
 30
0.0
 11
11.1
 21
16.3
 31
0.0
  0
POLYLINE
  8
STANDARD
 62
     7
  5
1D0
 66
     1
 10
0.0
 20
0.0
 30
0.0
  0
VERTEX
  8
STANDARD
 62
     7
  5
1D1
 10
11.1
 20
16.3
 30
0.0
  0
VERTEX
  8
STANDARD
 62
     7
  5
1D2
 10
11.08222
 20
16.22
 30
0.0
  0
VERTEX
  8
STANDARD
 62
     7
  5
1D3
 10
11.11778
 20
16.22
 30
0.0
  0
VERTEX
  8
STANDARD
 62
     7
  5
1D4
 10
11.1
 20
16.3
 30
0.0
  0
SEQEND
  8
0
  5
1D5
  0
LINE
  8
STANDARD
 62
     7
  5
1D6
 10
14.3
 20
11.1
 30
0.0
 11
14.3
 21
13.1
 31
0.0
  0
POLYLINE
  8
STANDARD
 62
     7
  5
1D7
 66
     1
 10
0.0
 20
0.0
 30
0.0
  0
VERTEX
  8
STANDARD
 62
     7
  5
1D8
 10
14.3
 20
13.1
 30
0.0
  0
VERTEX
  8
STANDARD
 62
     7
  5
1D9
 10
14.28222
 20
13.02
 30
0.0
  0
VERTEX
  8
STANDARD
 62
     7
  5
1DA
 10
14.31778
 20
13.02
 30
0.0
  0
VERTEX
  8
STANDARD
 62
     7
  5
1DB
 10
14.3
 20
13.1
 30
0.0
  0
SEQEND
  8
0
  5
1DC
  0
LINE
  8
STANDARD
 62
     7
  5
1DD
 10
8.9
 20
15.8
 30
0.0
 11
8.9
 21
15.5
 31
0.0
  0
POLYLINE
  8
STANDARD
 62
     7
  5
1DE
 66
     1
 10
0.0
 20
0.0
 30
0.0
  0
VERTEX
  8
STANDARD
 62
     7
  5
1DF
 10
8.9
 20
15.5
 30
0.0
  0
VERTEX
  8
STANDARD
 62
     7
  5
1E0
 10
8.91778
 20
15.58
 30
0.0
  0
VERTEX
  8
STANDARD
 62
     7
  5
1E1
 10
8.88222
 20
15.58
 30
0.0
  0
VERTEX
  8
STANDARD
 62
     7
  5
1E2
 10
8.9
 20
15.5
 30
0.0
  0
SEQEND
  8
0
  5
1E3
  0
LINE
  8
STANDARD
 62
     7
  5
1E4
 10
10.7
 20
10.5
 30
0.0
 11
11.0
 21
10.5
 31
0.0
  0
POLYLINE
  8
STANDARD
 62
     7
  5
1E5
 66
     1
 10
0.0
 20
0.0
 30
0.0
  0
VERTEX
  8
STANDARD
 62
     7
  5
1E6
 10
11.0
 20
10.5
 30
0.0
  0
VERTEX
  8
STANDARD
 62
     7
  5
1E7
 10
10.92
 20
10.51778
 30
0.0
  0
VERTEX
  8
STANDARD
 62
     7
  5
1E8
 10
10.92
 20
10.48222
 30
0.0
  0
VERTEX
  8
STANDARD
 62
     7
  5
1E9
 10
11.0
 20
10.5
 30
0.0
  0
SEQEND
  8
0
  5
1EA
  0
LINE
  8
STANDARD
 62
     7
  5
1EB
 10
8.6
 20
11.5
 30
0.0
 11
8.9
 21
11.5
 31
0.0
  0
POLYLINE
  8
STANDARD
 62
     7
  5
1EC
 66
     1
 10
0.0
 20
0.0
 30
0.0
  0
VERTEX
  8
STANDARD
 62
     7
  5
1ED
 10
8.9
 20
11.5
 30
0.0
  0
VERTEX
  8
STANDARD
 62
     7
  5
1EE
 10
8.82
 20
11.51778
 30
0.0
  0
VERTEX
  8
STANDARD
 62
     7
  5
1EF
 10
8.82
 20
11.48222
 30
0.0
  0
VERTEX
  8
STANDARD
 62
     7
  5
1F0
 10
8.9
 20
11.5
 30
0.0
  0
SEQEND
  8
0
  5
1F1
  0
LINE
  8
STANDARD
 62
     7
  5
1F2
 10
10.5
 20
14.0
 30
0.0
 11
10.8
 21
14.0
 31
0.0
  0
POLYLINE
  8
STANDARD
 62
     7
  5
1F3
 66
     1
 10
0.0
 20
0.0
 30
0.0
  0
VERTEX
  8
STANDARD
 62
     7
  5
1F4
 10
10.8
 20
14.0
 30
0.0
  0
VERTEX
  8
STANDARD
 62
     7
  5
1F5
 10
10.72
 20
14.01778
 30
0.0
  0
VERTEX
  8
STANDARD
 62
     7
  5
1F6
 10
10.72
 20
13.98222
 30
0.0
  0
VERTEX
  8
STANDARD
 62
     7
  5
1F7
 10
10.8
 20
14.0
 30
0.0
  0
SEQEND
  8
0
  5
1F8
  0
LINE
  8
STANDARD
 62
     7
  5
1F9
 10
10.5
 20
16.6
 30
0.0
 11
10.8
 21
16.6
 31
0.0
  0
POLYLINE
  8
STANDARD
 62
     7
  5
1FA
 66
     1
 10
0.0
 20
0.0
 30
0.0
  0
VERTEX
  8
STANDARD
 62
     7
  5
1FB
 10
10.8
 20
16.6
 30
0.0
  0
VERTEX
  8
STANDARD
 62
     7
  5
1FC
 10
10.72
 20
16.61778
 30
0.0
  0
VERTEX
  8
STANDARD
 62
     7
  5
1FD
 10
10.72
 20
16.58222
 30
0.0
  0
VERTEX
  8
STANDARD
 62
     7
  5
1FE
 10
10.8
 20
16.6
 30
0.0
  0
SEQEND
  8
0
  5
1FF
  0
LINE
  8
STANDARD
 62
     7
  5
200
 10
13.5
 20
13.4
 30
0.0
 11
14.0
 21
13.4
 31
0.0
  0
POLYLINE
  8
STANDARD
 62
     7
  5
201
 66
     1
 10
0.0
 20
0.0
 30
0.0
  0
VERTEX
  8
STANDARD
 62
     7
  5
202
 10
14.0
 20
13.4
 30
0.0
  0
VERTEX
  8
STANDARD
 62
     7
  5
203
 10
13.92
 20
13.41778
 30
0.0
  0
VERTEX
  8
STANDARD
 62
     7
  5
204
 10
13.92
 20
13.38222
 30
0.0
  0
VERTEX
  8
STANDARD
 62
     7
  5
205
 10
14.0
 20
13.4
 30
0.0
  0
SEQEND
  8
0
  5
206
  0
LINE
  8
STANDARD
 62
     7
  5
207
 10
8.3
 20
15.2
 30
0.0
 11
8.6
 21
15.2
 31
0.0
  0
POLYLINE
  8
STANDARD
 62
     7
  5
208
 66
     1
 10
0.0
 20
0.0
 30
0.0
  0
VERTEX
  8
STANDARD
 62
     7
  5
209
 10
8.6
 20
15.2
 30
0.0
  0
VERTEX
  8
STANDARD
 62
     7
  5
20A
 10
8.52
 20
15.21778
 30
0.0
  0
VERTEX
  8
STANDARD
 62
     7
  5
20B
 10
8.52
 20
15.18222
 30
0.0
  0
VERTEX
  8
STANDARD
 62
     7
  5
20C
 10
8.6
 20
15.2
 30
0.0
  0
SEQEND
  8
0
  5
20D
  0
LINE
  8
STANDARD
 62
     7
  5
20E
 10
9.5
 20
16.6
 30
0.0
 11
9.5
 21
14.0
 31
0.0
  0
LINE
  8
STANDARD
 62
     7
  5
20F
 10
9.2
 20
15.2
 30
0.0
 11
9.5
 21
15.2
 31
0.0
  0
POLYLINE
  8
STANDARD
 62
     7
  5
210
 66
     1
 10
0.0
 20
0.0
 30
0.0
  0
VERTEX
  8
STANDARD
 62
     7
  5
211
 10
9.5
 20
15.2
 30
0.0
  0
VERTEX
  8
STANDARD
 62
     7
  5
212
 10
9.42
 20
15.21778
 30
0.0
  0
VERTEX
  8
STANDARD
 62
     7
  5
213
 10
9.42
 20
15.18222
 30
0.0
  0
VERTEX
  8
STANDARD
 62
     7
  5
214
 10
9.5
 20
15.2
 30
0.0
  0
SEQEND
  8
0
  5
215
  0
LINE
  8
STANDARD
 62
     7
  5
216
 10
9.8
 20
16.6
 30
0.0
 11
9.5
 21
16.6
 31
0.0
  0
POLYLINE
  8
STANDARD
 62
     7
  5
217
 66
     1
 10
0.0
 20
0.0
 30
0.0
  0
VERTEX
  8
STANDARD
 62
     7
  5
218
 10
9.8
 20
16.6
 30
0.0
  0
VERTEX
  8
STANDARD
 62
     7
  5
219
 10
9.72
 20
16.61778
 30
0.0
  0
VERTEX
  8
STANDARD
 62
     7
  5
21A
 10
9.72
 20
16.58222
 30
0.0
  0
VERTEX
  8
STANDARD
 62
     7
  5
21B
 10
9.8
 20
16.6
 30
0.0
  0
SEQEND
  8
0
  5
21C
  0
LINE
  8
STANDARD
 62
     7
  5
21D
 10
9.7
 20
10.5
 30
0.0
 11
10.0
 21
10.5
 31
0.0
  0
POLYLINE
  8
STANDARD
 62
     7
  5
21E
 66
     1
 10
0.0
 20
0.0
 30
0.0
  0
VERTEX
  8
STANDARD
 62
     7
  5
21F
 10
10.0
 20
10.5
 30
0.0
  0
VERTEX
  8
STANDARD
 62
     7
  5
220
 10
9.92
 20
10.51778
 30
0.0
  0
VERTEX
  8
STANDARD
 62
     7
  5
221
 10
9.92
 20
10.48222
 30
0.0
  0
VERTEX
  8
STANDARD
 62
     7
  5
222
 10
10.0
 20
10.5
 30
0.0
  0
SEQEND
  8
0
  5
223
  0
LINE
  8
STANDARD
 62
     7
  5
224
 10
6.3
 20
11.5
 30
0.0
 11
7.9
 21
11.5
 31
0.0
  0
POLYLINE
  8
STANDARD
 62
     7
  5
225
 66
     1
 10
0.0
 20
0.0
 30
0.0
  0
VERTEX
  8
STANDARD
 62
     7
  5
226
 10
7.9
 20
11.5
 30
0.0
  0
VERTEX
  8
STANDARD
 62
     7
  5
227
 10
7.82
 20
11.51778
 30
0.0
  0
VERTEX
  8
STANDARD
 62
     7
  5
228
 10
7.82
 20
11.48222
 30
0.0
  0
VERTEX
  8
STANDARD
 62
     7
  5
229
 10
7.9
 20
11.5
 30
0.0
  0
SEQEND
  8
0
  5
22A
  0
LINE
  8
STANDARD
 62
     7
  5
22B
 10
9.5
 20
14.0
 30
0.0
 11
9.8
 21
14.0
 31
0.0
  0
POLYLINE
  8
STANDARD
 62
     7
  5
22C
 66
     1
 10
0.0
 20
0.0
 30
0.0
  0
VERTEX
  8
STANDARD
 62
     7
  5
22D
 10
9.8
 20
14.0
 30
0.0
  0
VERTEX
  8
STANDARD
 62
     7
  5
22E
 10
9.72
 20
14.01778
 30
0.0
  0
VERTEX
  8
STANDARD
 62
     7
  5
22F
 10
9.72
 20
13.98222
 30
0.0
  0
VERTEX
  8
STANDARD
 62
     7
  5
230
 10
9.8
 20
14.0
 30
0.0
  0
SEQEND
  8
0
  5
231
  0
LINE
  8
STANDARD
 62
     7
  5
232
 10
12.0
 20
15.2
 30
0.0
 11
11.95
 21
15.25
 31
0.0
  0
LINE
  8
STANDARD
 62
     7
  5
233
 10
12.0
 20
10.5
 30
0.0
 11
11.95
 21
10.55
 31
0.0
  0
LINE
  8
STANDARD
 62
     7
  5
234
 10
12.0
 20
12.4
 30
0.0
 11
11.95
 21
12.45
 31
0.0
  0
LINE
  8
STANDARD
 62
     7
  5
235
 10
12.0
 20
11.5
 30
0.0
 11
11.95
 21
11.55
 31
0.0
  0
LINE
  8
STANDARD
 62
     7
  5
236
 10
12.0
 20
14.0
 30
0.0
 11
11.95
 21
14.05
 31
0.0
  0
LINE
  8
STANDARD
 62
     7
  5
237
 10
12.0
 20
16.6
 30
0.0
 11
11.95
 21
16.65
 31
0.0
  0
LINE
  8
STANDARD
 62
     7
  5
238
 10
12.0
 20
15.2
 30
0.0
 11
11.95
 21
15.15
 31
0.0
  0
LINE
  8
STANDARD
 62
     7
  5
239
 10
12.0
 20
10.5
 30
0.0
 11
11.95
 21
10.45
 31
0.0
  0
LINE
  8
STANDARD
 62
     7
  5
23A
 10
12.0
 20
12.4
 30
0.0
 11
11.95
 21
12.35
 31
0.0
  0
LINE
  8
STANDARD
 62
     7
  5
23B
 10
12.0
 20
11.5
 30
0.0
 11
11.95
 21
11.45
 31
0.0
  0
LINE
  8
STANDARD
 62
     7
  5
23C
 10
12.0
 20
14.0
 30
0.0
 11
11.95
 21
13.95
 31
0.0
  0
LINE
  8
STANDARD
 62
     7
  5
23D
 10
12.0
 20
16.6
 30
0.0
 11
11.95
 21
16.55
 31
0.0
  0
LINE
  8
STANDARD
 62
     7
  5
23E
 10
12.0
 20
15.2
 30
0.0
 11
12.05
 21
15.15
 31
0.0
  0
LINE
  8
STANDARD
 62
     7
  5
23F
 10
12.0
 20
10.5
 30
0.0
 11
12.05
 21
10.45
 31
0.0
  0
LINE
  8
STANDARD
 62
     7
  5
240
 10
12.0
 20
12.4
 30
0.0
 11
12.05
 21
12.35
 31
0.0
  0
LINE
  8
STANDARD
 62
     7
  5
241
 10
12.0
 20
11.5
 30
0.0
 11
12.05
 21
11.45
 31
0.0
  0
LINE
  8
STANDARD
 62
     7
  5
242
 10
12.0
 20
14.0
 30
0.0
 11
12.05
 21
13.95
 31
0.0
  0
LINE
  8
STANDARD
 62
     7
  5
243
 10
12.0
 20
16.6
 30
0.0
 11
12.05
 21
16.55
 31
0.0
  0
LINE
  8
STANDARD
 62
     7
  5
244
 10
12.0
 20
15.2
 30
0.0
 11
12.05
 21
15.25
 31
0.0
  0
LINE
  8
STANDARD
 62
     7
  5
245
 10
12.0
 20
10.5
 30
0.0
 11
12.05
 21
10.55
 31
0.0
  0
LINE
  8
STANDARD
 62
     7
  5
246
 10
12.0
 20
12.4
 30
0.0
 11
12.05
 21
12.45
 31
0.0
  0
LINE
  8
STANDARD
 62
     7
  5
247
 10
12.0
 20
11.5
 30
0.0
 11
12.05
 21
11.55
 31
0.0
  0
LINE
  8
STANDARD
 62
     7
  5
248
 10
12.0
 20
14.0
 30
0.0
 11
12.05
 21
14.05
 31
0.0
  0
LINE
  8
STANDARD
 62
     7
  5
249
 10
12.0
 20
16.6
 30
0.0
 11
12.05
 21
16.65
 31
0.0
  0
CIRCLE
  8
STANDARD
 62
     7
  5
24A
 10
12.0
 20
15.2
 30
0.0
 40
0.15
  0
CIRCLE
  8
STANDARD
 62
     7
  5
24B
 10
12.0
 20
10.5
 30
0.0
 40
0.15
  0
CIRCLE
  8
STANDARD
 62
     7
  5
24C
 10
12.0
 20
12.4
 30
0.0
 40
0.15
  0
CIRCLE
  8
STANDARD
 62
     7
  5
24D
 10
12.0
 20
11.5
 30
0.0
 40
0.15
  0
CIRCLE
  8
STANDARD
 62
     7
  5
24E
 10
12.0
 20
14.0
 30
0.0
 40
0.15
  0
CIRCLE
  8
STANDARD
 62
     7
  5
24F
 10
12.0
 20
16.6
 30
0.0
 40
0.15
  0
LINE
  8
STANDARD
 62
     7
  5
250
 10
12.15
 20
16.6
 30
0.0
 11
12.6
 21
16.6
 31
0.0
  0
LINE
  8
STANDARD
 62
     7
  5
251
 10
12.6
 20
12.4
 30
0.0
 11
12.15
 21
12.4
 31
0.0
  0
LINE
  8
STANDARD
 62
     7
  5
252
 10
12.6
 20
10.5
 30
0.0
 11
12.15
 21
10.5
 31
0.0
  0
LINE
  8
STANDARD
 62
     7
  5
253
 10
12.6
 20
14.0
 30
0.0
 11
12.15
 21
14.0
 31
0.0
  0
LINE
  8
STANDARD
 62
     7
  5
254
 10
11.85
 20
15.2
 30
0.0
 11
9.5
 21
15.2
 31
0.0
  0
POLYLINE
  8
STANDARD
 62
     7
  5
255
 66
     1
 10
0.0
 20
0.0
 30
0.0
  0
VERTEX
  8
STANDARD
 62
     7
  5
256
 10
11.85
 20
15.2
 30
0.0
  0
VERTEX
  8
STANDARD
 62
     7
  5
257
 10
11.77
 20
15.21778
 30
0.0
  0
VERTEX
  8
STANDARD
 62
     7
  5
258
 10
11.77
 20
15.18222
 30
0.0
  0
VERTEX
  8
STANDARD
 62
     7
  5
259
 10
11.85
 20
15.2
 30
0.0
  0
SEQEND
  8
0
  5
25A
  0
LINE
  8
STANDARD
 62
     7
  5
25B
 10
12.15
 20
11.5
 30
0.0
 11
12.4
 21
11.5
 31
0.0
  0
POLYLINE
  8
STANDARD
 62
     7
  5
25C
 66
     1
 10
0.0
 20
0.0
 30
0.0
  0
VERTEX
  8
STANDARD
 62
     7
  5
25D
 10
12.4
 20
11.5
 30
0.0
  0
VERTEX
  8
STANDARD
 62
     7
  5
25E
 10
12.32
 20
11.51778
 30
0.0
  0
VERTEX
  8
STANDARD
 62
     7
  5
25F
 10
12.32
 20
11.48222
 30
0.0
  0
VERTEX
  8
STANDARD
 62
     7
  5
260
 10
12.4
 20
11.5
 30
0.0
  0
SEQEND
  8
0
  5
261
  0
LINE
  8
STANDARD
 62
     7
  5
262
 10
12.7
 20
13.4
 30
0.0
 11
13.1
 21
13.4
 31
0.0
  0
POLYLINE
  8
STANDARD
 62
     7
  5
263
 66
     1
 10
0.0
 20
0.0
 30
0.0
  0
VERTEX
  8
STANDARD
 62
     7
  5
264
 10
13.1
 20
13.4
 30
0.0
  0
VERTEX
  8
STANDARD
 62
     7
  5
265
 10
13.02
 20
13.41778
 30
0.0
  0
VERTEX
  8
STANDARD
 62
     7
  5
266
 10
13.02
 20
13.38222
 30
0.0
  0
VERTEX
  8
STANDARD
 62
     7
  5
267
 10
13.1
 20
13.4
 30
0.0
  0
SEQEND
  8
0
  5
268
  0
LINE
  8
STANDARD
 62
     7
  5
269
 10
12.15
 20
15.2
 30
0.0
 11
12.4
 21
15.2
 31
0.0
  0
POLYLINE
  8
STANDARD
 62
     7
  5
26A
 66
     1
 10
0.0
 20
0.0
 30
0.0
  0
VERTEX
  8
STANDARD
 62
     7
  5
26B
 10
12.4
 20
15.2
 30
0.0
  0
VERTEX
  8
STANDARD
 62
     7
  5
26C
 10
12.32
 20
15.21778
 30
0.0
  0
VERTEX
  8
STANDARD
 62
     7
  5
26D
 10
12.32
 20
15.18222
 30
0.0
  0
VERTEX
  8
STANDARD
 62
     7
  5
26E
 10
12.4
 20
15.2
 30
0.0
  0
SEQEND
  8
0
  5
26F
  0
LINE
  8
STANDARD
 62
     7
  5
270
 10
12.6
 20
12.4
 30
0.0
 11
12.6
 21
11.7
 31
0.0
  0
POLYLINE
  8
STANDARD
 62
     7
  5
271
 66
     1
 10
0.0
 20
0.0
 30
0.0
  0
VERTEX
  8
STANDARD
 62
     7
  5
272
 10
12.6
 20
11.7
 30
0.0
  0
VERTEX
  8
STANDARD
 62
     7
  5
273
 10
12.61778
 20
11.78
 30
0.0
  0
VERTEX
  8
STANDARD
 62
     7
  5
274
 10
12.58222
 20
11.78
 30
0.0
  0
VERTEX
  8
STANDARD
 62
     7
  5
275
 10
12.6
 20
11.7
 30
0.0
  0
SEQEND
  8
0
  5
276
  0
LINE
  8
STANDARD
 62
     7
  5
277
 10
13.3
 20
15.2
 30
0.0
 11
13.3
 21
13.6
 31
0.0
  0
POLYLINE
  8
STANDARD
 62
     7
  5
278
 66
     1
 10
0.0
 20
0.0
 30
0.0
  0
VERTEX
  8
STANDARD
 62
     7
  5
279
 10
13.3
 20
13.6
 30
0.0
  0
VERTEX
  8
STANDARD
 62
     7
  5
27A
 10
13.31778
 20
13.68
 30
0.0
  0
VERTEX
  8
STANDARD
 62
     7
  5
27B
 10
13.28222
 20
13.68
 30
0.0
  0
VERTEX
  8
STANDARD
 62
     7
  5
27C
 10
13.3
 20
13.6
 30
0.0
  0
SEQEND
  8
0
  5
27D
  0
LINE
  8
STANDARD
 62
     7
  5
27E
 10
12.6
 20
16.6
 30
0.0
 11
12.6
 21
15.4
 31
0.0
  0
POLYLINE
  8
STANDARD
 62
     7
  5
27F
 66
     1
 10
0.0
 20
0.0
 30
0.0
  0
VERTEX
  8
STANDARD
 62
     7
  5
280
 10
12.6
 20
15.4
 30
0.0
  0
VERTEX
  8
STANDARD
 62
     7
  5
281
 10
12.61778
 20
15.48
 30
0.0
  0
VERTEX
  8
STANDARD
 62
     7
  5
282
 10
12.58222
 20
15.48
 30
0.0
  0
VERTEX
  8
STANDARD
 62
     7
  5
283
 10
12.6
 20
15.4
 30
0.0
  0
SEQEND
  8
0
  5
284
  0
LINE
  8
STANDARD
 62
     7
  5
285
 10
11.85
 20
16.6
 30
0.0
 11
11.4
 21
16.6
 31
0.0
  0
POLYLINE
  8
STANDARD
 62
     7
  5
286
 66
     1
 10
0.0
 20
0.0
 30
0.0
  0
VERTEX
  8
STANDARD
 62
     7
  5
287
 10
11.85
 20
16.6
 30
0.0
  0
VERTEX
  8
STANDARD
 62
     7
  5
288
 10
11.77
 20
16.61778
 30
0.0
  0
VERTEX
  8
STANDARD
 62
     7
  5
289
 10
11.77
 20
16.58222
 30
0.0
  0
VERTEX
  8
STANDARD
 62
     7
  5
28A
 10
11.85
 20
16.6
 30
0.0
  0
SEQEND
  8
0
  5
28B
  0
LINE
  8
STANDARD
 62
     7
  5
28C
 10
11.85
 20
10.5
 30
0.0
 11
11.6
 21
10.5
 31
0.0
  0
POLYLINE
  8
STANDARD
 62
     7
  5
28D
 66
     1
 10
0.0
 20
0.0
 30
0.0
  0
VERTEX
  8
STANDARD
 62
     7
  5
28E
 10
11.85
 20
10.5
 30
0.0
  0
VERTEX
  8
STANDARD
 62
     7
  5
28F
 10
11.77
 20
10.51778
 30
0.0
  0
VERTEX
  8
STANDARD
 62
     7
  5
290
 10
11.77
 20
10.48222
 30
0.0
  0
VERTEX
  8
STANDARD
 62
     7
  5
291
 10
11.85
 20
10.5
 30
0.0
  0
SEQEND
  8
0
  5
292
  0
LINE
  8
STANDARD
 62
     7
  5
293
 10
11.85
 20
12.4
 30
0.0
 11
6.3
 21
12.4
 31
0.0
  0
POLYLINE
  8
STANDARD
 62
     7
  5
294
 66
     1
 10
0.0
 20
0.0
 30
0.0
  0
VERTEX
  8
STANDARD
 62
     7
  5
295
 10
11.85
 20
12.4
 30
0.0
  0
VERTEX
  8
STANDARD
 62
     7
  5
296
 10
11.77
 20
12.41778
 30
0.0
  0
VERTEX
  8
STANDARD
 62
     7
  5
297
 10
11.77
 20
12.38222
 30
0.0
  0
VERTEX
  8
STANDARD
 62
     7
  5
298
 10
11.85
 20
12.4
 30
0.0
  0
SEQEND
  8
0
  5
299
  0
LINE
  8
STANDARD
 62
     7
  5
29A
 10
11.85
 20
11.5
 30
0.0
 11
9.7
 21
11.5
 31
0.0
  0
POLYLINE
  8
STANDARD
 62
     7
  5
29B
 66
     1
 10
0.0
 20
0.0
 30
0.0
  0
VERTEX
  8
STANDARD
 62
     7
  5
29C
 10
11.85
 20
11.5
 30
0.0
  0
VERTEX
  8
STANDARD
 62
     7
  5
29D
 10
11.77
 20
11.51778
 30
0.0
  0
VERTEX
  8
STANDARD
 62
     7
  5
29E
 10
11.77
 20
11.48222
 30
0.0
  0
VERTEX
  8
STANDARD
 62
     7
  5
29F
 10
11.85
 20
11.5
 30
0.0
  0
SEQEND
  8
0
  5
2A0
  0
LINE
  8
STANDARD
 62
     7
  5
2A1
 10
9.7
 20
11.5
 30
0.0
 11
9.5
 21
11.5
 31
0.0
  0
POLYLINE
  8
STANDARD
 62
     7
  5
2A2
 66
     1
 10
0.0
 20
0.0
 30
0.0
  0
VERTEX
  8
STANDARD
 62
     7
  5
2A3
 10
9.7
 20
11.5
 30
0.0
  0
VERTEX
  8
STANDARD
 62
     7
  5
2A4
 10
9.62
 20
11.51778
 30
0.0
  0
VERTEX
  8
STANDARD
 62
     7
  5
2A5
 10
9.62
 20
11.48222
 30
0.0
  0
VERTEX
  8
STANDARD
 62
     7
  5
2A6
 10
9.7
 20
11.5
 30
0.0
  0
SEQEND
  8
0
  5
2A7
  0
LINE
  8
STANDARD
 62
     7
  5
2A8
 10
11.85
 20
14.0
 30
0.0
 11
11.4
 21
14.0
 31
0.0
  0
POLYLINE
  8
STANDARD
 62
     7
  5
2A9
 66
     1
 10
0.0
 20
0.0
 30
0.0
  0
VERTEX
  8
STANDARD
 62
     7
  5
2AA
 10
11.85
 20
14.0
 30
0.0
  0
VERTEX
  8
STANDARD
 62
     7
  5
2AB
 10
11.77
 20
14.01778
 30
0.0
  0
VERTEX
  8
STANDARD
 62
     7
  5
2AC
 10
11.77
 20
13.98222
 30
0.0
  0
VERTEX
  8
STANDARD
 62
     7
  5
2AD
 10
11.85
 20
14.0
 30
0.0
  0
SEQEND
  8
0
  5
2AE
  0
LINE
  8
STANDARD
 62
     7
  5
2AF
 10
12.6
 20
11.3
 30
0.0
 11
12.6
 21
10.5
 31
0.0
  0
POLYLINE
  8
STANDARD
 62
     7
  5
2B0
 66
     1
 10
0.0
 20
0.0
 30
0.0
  0
VERTEX
  8
STANDARD
 62
     7
  5
2B1
 10
12.6
 20
11.3
 30
0.0
  0
VERTEX
  8
STANDARD
 62
     7
  5
2B2
 10
12.58222
 20
11.22
 30
0.0
  0
VERTEX
  8
STANDARD
 62
     7
  5
2B3
 10
12.61778
 20
11.22
 30
0.0
  0
VERTEX
  8
STANDARD
 62
     7
  5
2B4
 10
12.6
 20
11.3
 30
0.0
  0
SEQEND
  8
0
  5
2B5
  0
LINE
  8
STANDARD
 62
     7
  5
2B6
 10
13.3
 20
13.2
 30
0.0
 11
13.3
 21
11.5
 31
0.0
  0
POLYLINE
  8
STANDARD
 62
     7
  5
2B7
 66
     1
 10
0.0
 20
0.0
 30
0.0
  0
VERTEX
  8
STANDARD
 62
     7
  5
2B8
 10
13.3
 20
13.2
 30
0.0
  0
VERTEX
  8
STANDARD
 62
     7
  5
2B9
 10
13.28222
 20
13.12
 30
0.0
  0
VERTEX
  8
STANDARD
 62
     7
  5
2BA
 10
13.31778
 20
13.12
 30
0.0
  0
VERTEX
  8
STANDARD
 62
     7
  5
2BB
 10
13.3
 20
13.2
 30
0.0
  0
SEQEND
  8
0
  5
2BC
  0
LINE
  8
STANDARD
 62
     7
  5
2BD
 10
12.6
 20
15.0
 30
0.0
 11
12.6
 21
14.0
 31
0.0
  0
POLYLINE
  8
STANDARD
 62
     7
  5
2BE
 66
     1
 10
0.0
 20
0.0
 30
0.0
  0
VERTEX
  8
STANDARD
 62
     7
  5
2BF
 10
12.6
 20
15.0
 30
0.0
  0
VERTEX
  8
STANDARD
 62
     7
  5
2C0
 10
12.58222
 20
14.92
 30
0.0
  0
VERTEX
  8
STANDARD
 62
     7
  5
2C1
 10
12.61778
 20
14.92
 30
0.0
  0
VERTEX
  8
STANDARD
 62
     7
  5
2C2
 10
12.6
 20
15.0
 30
0.0
  0
SEQEND
  8
0
  5
2C3
  0
LINE
  8
STANDARD
 62
     7
  5
2C4
 10
9.7
 20
11.5
 30
0.0
 11
9.7
 21
10.5
 31
0.0
  0
LINE
  8
STANDARD
 62
     7
  5
2C5
 10
6.3
 20
11.5
 30
0.0
 11
6.3
 21
12.4
 31
0.0
  0
LINE
  8
STANDARD
 62
     7
  5
2C6
 10
12.8
 20
15.2
 30
0.0
 11
13.3
 21
15.2
 31
0.0
  0
LINE
  8
STANDARD
 62
     7
  5
2C7
 10
12.8
 20
11.5
 30
0.0
 11
13.3
 21
11.5
 31
0.0
  0
LINE
  8
STANDARD
 62
     7
  5
2C8
 10
6.3
 20
13.8
 30
0.0
 11
5.9
 21
13.8
 31
0.0
  0
POLYLINE
  8
STANDARD
 62
     7
  5
2C9
 66
     1
 10
0.0
 20
0.0
 30
0.0
  0
VERTEX
  8
STANDARD
 62
     7
  5
2CA
 10
6.3
 20
13.8
 30
0.0
  0
VERTEX
  8
STANDARD
 62
     7
  5
2CB
 10
6.22
 20
13.81778
 30
0.0
  0
VERTEX
  8
STANDARD
 62
     7
  5
2CC
 10
6.22
 20
13.78222
 30
0.0
  0
VERTEX
  8
STANDARD
 62
     7
  5
2CD
 10
6.3
 20
13.8
 30
0.0
  0
SEQEND
  8
0
  5
2CE
  0
LINE
  8
STANDARD
 62
     7
  5
2CF
 10
6.3
 20
13.8
 30
0.0
 11
6.3
 21
12.4
 31
0.0
  0
POLYLINE
  8
STANDARD
 62
     7
  5
2D0
 66
     1
 10
0.0
 20
0.0
 30
0.0
  0
VERTEX
  8
STANDARD
 62
     7
  5
2D1
 10
6.3
 20
12.4
 30
0.0
  0
VERTEX
  8
STANDARD
 62
     7
  5
2D2
 10
6.31778
 20
12.48
 30
0.0
  0
VERTEX
  8
STANDARD
 62
     7
  5
2D3
 10
6.28222
 20
12.48
 30
0.0
  0
VERTEX
  8
STANDARD
 62
     7
  5
2D4
 10
6.3
 20
12.4
 30
0.0
  0
SEQEND
  8
0
  5
2D5
  0
LINE
  8
STANDARD
 62
     7
  5
2D6
 10
6.5
 20
15.2
 30
0.0
 11
7.0
 21
15.2
 31
0.0
  0
POLYLINE
  8
STANDARD
 62
     7
  5
2D7
 66
     1
 10
0.0
 20
0.0
 30
0.0
  0
VERTEX
  8
STANDARD
 62
     7
  5
2D8
 10
7.0
 20
15.2
 30
0.0
  0
VERTEX
  8
STANDARD
 62
     7
  5
2D9
 10
6.92
 20
15.21778
 30
0.0
  0
VERTEX
  8
STANDARD
 62
     7
  5
2DA
 10
6.92
 20
15.18222
 30
0.0
  0
VERTEX
  8
STANDARD
 62
     7
  5
2DB
 10
7.0
 20
15.2
 30
0.0
  0
SEQEND
  8
0
  5
2DC
  0
LINE
  8
STANDARD
 62
     7
  5
2DD
 10
15.0
 20
13.4
 30
0.0
 11
14.6
 21
13.4
 31
0.0
  0
POLYLINE
  8
STANDARD
 62
     7
  5
2DE
 66
     1
 10
0.0
 20
0.0
 30
0.0
  0
VERTEX
  8
STANDARD
 62
     7
  5
2DF
 10
15.0
 20
13.4
 30
0.0
  0
VERTEX
  8
STANDARD
 62
     7
  5
2E0
 10
14.92
 20
13.41778
 30
0.0
  0
VERTEX
  8
STANDARD
 62
     7
  5
2E1
 10
14.92
 20
13.38222
 30
0.0
  0
VERTEX
  8
STANDARD
 62
     7
  5
2E2
 10
15.0
 20
13.4
 30
0.0
  0
SEQEND
  8
0
  5
2E3
  0
LINE
  8
STANDARD
 62
     7
  5
2E4
 10
15.0
 20
17.5
 30
0.0
 11
6.3
 21
17.5
 31
0.0
  0
LINE
  8
STANDARD
 62
     7
  5
2E5
 10
6.3
 20
17.5
 30
0.0
 11
6.3
 21
15.4
 31
0.0
  0
POLYLINE
  8
STANDARD
 62
     7
  5
2E6
 66
     1
 10
0.0
 20
0.0
 30
0.0
  0
VERTEX
  8
STANDARD
 62
     7
  5
2E7
 10
6.3
 20
15.4
 30
0.0
  0
VERTEX
  8
STANDARD
 62
     7
  5
2E8
 10
6.31778
 20
15.48
 30
0.0
  0
VERTEX
  8
STANDARD
 62
     7
  5
2E9
 10
6.28222
 20
15.48
 30
0.0
  0
VERTEX
  8
STANDARD
 62
     7
  5
2EA
 10
6.3
 20
15.4
 30
0.0
  0
SEQEND
  8
0
  5
2EB
  0
LINE
  8
STANDARD
 62
     7
  5
2EC
 10
4.7
 20
16.5
 30
0.0
 11
4.7
 21
13.9
 31
0.0
  0
LINE
  8
STANDARD
 62
     7
  5
2ED
 10
4.7
 20
16.7
 30
0.0
 11
4.7
 21
17.9
 31
0.0
  0
LINE
  8
STANDARD
 62
     7
  5
2EE
 10
4.7
 20
17.9
 30
0.0
 11
16.2
 21
17.9
 31
0.0
  0
LINE
  8
STANDARD
 62
     7
  5
2EF
 10
16.2
 20
17.9
 30
0.0
 11
16.2
 21
17.6
 31
0.0
  0
LINE
  8
STANDARD
 62
     7
  5
2F0
 10
16.2
 20
17.4
 30
0.0
 11
16.2
 21
13.5
 31
0.0
  0
LINE
  8
STANDARD
 62
     7
  5
2F1
 10
16.2
 20
13.3
 30
0.0
 11
16.2
 21
9.5
 31
0.0
  0
LINE
  8
STANDARD
 62
     7
  5
2F2
 10
16.2
 20
9.5
 30
0.0
 11
4.7
 21
9.5
 31
0.0
  0
LINE
  8
STANDARD
 62
     7
  5
2F3
 10
4.7
 20
10.9
 30
0.0
 11
4.7
 21
13.7
 31
0.0
  0
LINE
  8
STANDARD
 62
     7
  5
2F4
 10
4.7
 20
9.5
 30
0.0
 11
4.7
 21
10.7
 31
0.0
  0
ENDSEC
  0
EOF
