  0
SECTION
  2
HEADER
  9
$ACADVER
  1
AC1009
  9
$INSBASE
 10
0.0
 20
0.0
 30
0.0
  9
$EXTMIN
 10
-30.836975
 20
15.2905
 30
0.0
  9
$EXTMAX
 10
-22.358025
 20
17.2095
 30
0.0
  9
$LIMMIN
 10
0.0
 20
0.0
  9
$LIMMAX
 10
0.0
 20
0.0
  9
$ORTHOMODE
 70
     0
  9
$REGENMODE
 70
     1
  9
$FILLMODE
 70
     1
  9
$QTEXTMODE
 70
     0
  9
$MIRRTEXT
 70
     1
  9
$DRAGMODE
 70
     2
  9
$LTSCALE
 40
1.0
  9
$OSMODE
 70
     0
  9
$ATTMODE
 70
     1
  9
$TEXTSIZE
 40
0.2
  9
$TRACEWID
 40
0.05
  9
$TEXTSTYLE
  7
STANDARD
  9
$CLAYER
  8
0
  9
$CELTYPE
  6
CONTINUOUS
  9
$CECOLOR
 62
   256
  9
$DIMSCALE
 40
1.0
  9
$DIMASZ
 40
0.18
  9
$DIMEXO
 40
0.0625
  9
$DIMDLI
 40
0.38
  9
$DIMRND
 40
0.0
  9
$DIMDLE
 40
0.0
  9
$DIMEXE
 40
0.18
  9
$DIMTP
 40
0.0
  9
$DIMTM
 40
0.0
  9
$DIMTXT
 40
0.18
  9
$DIMCEN
 40
0.09
  9
$DIMTSZ
 40
0.0
  9
$DIMTOL
 70
     0
  9
$DIMLIM
 70
     0
  9
$DIMTIH
 70
     1
  9
$DIMTOH
 70
     1
  9
$DIMSE1
 70
     0
  9
$DIMSE2
 70
     0
  9
$DIMTAD
 70
     0
  9
$DIMZIN
 70
     0
  9
$DIMBLK
  1

  9
$DIMASO
 70
     1
  9
$DIMSHO
 70
     1
  9
$DIMPOST
  1

  9
$DIMAPOST
  1

  9
$DIMALT
 70
     0
  9
$DIMALTD
 70
     2
  9
$DIMALTF
 40
25.4
  9
$DIMLFAC
 40
1.0
  9
$DIMTOFL
 70
     0
  9
$DIMTVP
 40
0.0
  9
$DIMTIX
 70
     0
  9
$DIMSOXD
 70
     0
  9
$DIMSAH
 70
     0
  9
$DIMBLK1
  1

  9
$DIMBLK2
  1

  9
$DIMSTYLE
  2
STANDARD
  9
$DIMCLRD
 70
     0
  9
$DIMCLRE
 70
     0
  9
$DIMCLRT
 70
     0
  9
$DIMTFAC
 40
1.0
  9
$DIMGAP
 40
0.09
  9
$LUNITS
 70
     2
  9
$LUPREC
 70
     4
  9
$AXISMODE
 70
     0
  9
$AXISUNIT
 10
0.0
 20
0.0
  9
$SKETCHINC
 40
0.1
  9
$FILLETRAD
 40
0.0
  9
$AUNITS
 70
     0
  9
$AUPREC
 70
     0
  9
$MENU
  1
acad
  9
$ELEVATION
 40
0.0
  9
$PELEVATION
 40
0.0
  9
$THICKNESS
 40
0.0
  9
$LIMCHECK
 70
     0
  9
$BLIPMODE
 70
     1
  9
$CHAMFERA
 40
0.0
  9
$CHAMFERB
 40
0.0
  9
$SKPOLY
 70
     0
  9
$TDCREATE
 40
0.000000000
  9
$TDUPDATE
 40
0.000000000
  9
$TDINDWG
 40
0.0000000000
  9
$TDUSRTIMER
 40
0.0000000000
  9
$USRTIMER
 70
     1
  9
$ANGBASE
 50
0.0
  9
$ANGDIR
 70
     0
  9
$PDMODE
 70
     0
  9
$PDSIZE
 40
0.0
  9
$PLINEWID
 40
0.0
  9
$COORDS
 70
     0
  9
$SPLFRAME
 70
     0
  9
$SPLINETYPE
 70
     6
  9
$SPLINESEGS
 70
     8
  9
$ATTDIA
 70
     0
  9
$ATTREQ
 70
     1
  9
$HANDLING
 70
     1
  9
$HANDSEED
  5
C4
  9
$SURFTAB1
 70
     6
  9
$SURFTAB2
 70
     6
  9
$SURFTYPE
 70
     6
  9
$SURFU
 70
     6
  9
$SURFV
 70
     6
  9
$UCSNAME
  2

  9
$UCSORG
 10
0.0
 20
0.0
 30
0.0
  9
$UCSXDIR
 10
1.0
 20
0.0
 30
0.0
  9
$UCSYDIR
 10
0.0
 20
1.0
 30
0.0
  9
$PUCSNAME
  2

  9
$PUCSORG
 10
0.0
 20
0.0
 30
0.0
  9
$PUCSXDIR
 10
1.0
 20
0.0
 30
0.0
  9
$PUCSYDIR
 10
0.0
 20
1.0
 30
0.0
  9
$USERI1
 70
     0
  9
$USERI2
 70
     0
  9
$USERI3
 70
     0
  9
$USERI4
 70
     0
  9
$USERI5
 70
     0
  9
$USERR1
 40
0.0
  9
$USERR2
 40
0.0
  9
$USERR3
 40
0.0
  9
$USERR4
 40
0.0
  9
$USERR5
 40
0.0
  9
$WORLDVIEW
 70
     1
  9
$SHADEDGE
 70
     3
  9
$SHADEDIF
 70
    70
  9
$TILEMODE
 70
     1
  9
$MAXACTVP
 70
    16
  9
$PINSBASE
 10
0.0
 20
0.0
 30
0.0
  9
$PLIMCHECK
 70
     0
  9
$PEXTMIN
 10
1.000000E+20
 20
1.000000E+20
 30
1.000000E+20
  9
$PEXTMAX
 10
-1.000000E+20
 20
-1.000000E+20
 30
-1.000000E+20
  9
$PLIMMIN
 10
0.0
 20
0.0
  9
$PLIMMAX
 10
12.0
 20
9.0
  9
$UNITMODE
 70
     0
  9
$VISRETAIN
 70
     0
  9
$PLINEGEN
 70
     1
  9
$PSLTSCALE
 70
     0
  9
$TREEDEPTH
 70
  3020
  9
$DWGCODEPAGE
  3
dos850
  0
ENDSEC
  0
SECTION
  2
TABLES
  0
TABLE
  2
VPORT
 70
     1
  0
VPORT
  2
*ACTIVE
 70
     0
 10
0.0
 20
0.0
 11
1.0
 21
1.0
 12
6.591288
 22
4.579184
 13
0.0
 23
0.0
 14
1.0
 24
1.0
 15
0.0
 25
0.0
 16
0.0
 26
0.0
 36
1.0
 17
0.0
 27
0.0
 37
0.0
 40
9.158369
 41
0.688564
 42
50.0
 43
0.0
 44
0.0
 50
0.0
 51
0.0
 71
     0
 72
   100
 73
     1
 74
     1
 75
     0
 76
     0
 77
     0
 78
     0
  0
ENDTAB
  0
TABLE
  2
LTYPE
 70
     1
  0
LTYPE
  2
CONTINUOUS
 70
    64
  3
Solid line
 72
    65
 73
     0
 40
0.0
  0
ENDTAB
  0
TABLE
  2
LAYER
 70
     7
  0
LAYER
  2
0
 70
     0
 62
     7
  6
CONTINUOUS
  0
LAYER
  2
MERGE
 70
     0
 62
     7
  6
CONTINUOUS
  0
LAYER
  2
STANDARD
 70
     0
 62
     7
  6
CONTINUOUS
  0
LAYER
  2
PINS
 70
     0
 62
     7
  6
CONTINUOUS
  0
LAYER
  2
PARAMS
 70
     0
 62
     7
  6
CONTINUOUS
  0
LAYER
  2
OUTLINE
 70
     0
 62
     7
  6
CONTINUOUS
  0
LAYER
  2
INTERNALS
 70
     0
 62
     7
  6
CONTINUOUS
  0
ENDTAB
  0
TABLE
  2
STYLE
 70
     2
  0
STYLE
  2
STANDARD
 70
     0
 40
0.0
 41
1.0
 50
0.0
 71
     0
 42
0.0
  3
txt
  4

  0
STYLE
  2
STYLE1
 70
     0
 40
0.0
 41
1.0
 50
0.0
 71
     0
 42
0.0
  3
Arial.ttf
  4

  0
ENDTAB
  0
TABLE
  2
VIEW
 70
     0
  0
ENDTAB
  0
TABLE
  2
UCS
 70
     0
  0
ENDTAB
  0
TABLE
  2
APPID
 70
     1
  0
APPID
  2
ACAD
 70
     0
  0
ENDTAB
  0
TABLE
  2
DIMSTYLE
 70
     1
  0
DIMSTYLE
  2
STANDARD
 70
     0
  3

  4

  5

  6

  7

 40
1.0
 41
0.18
 42
0.0625
 43
0.38
 44
0.18
 45
0.0
 46
0.0
 47
0.0
 48
0.0
 71
     0
 72
     0
 73
     1
 74
     1
 75
     0
 76
     0
 77
     0
 78
     0
140
0.18
141
0.09
142
0.0
143
25.4
144
1.0
145
0.0
146
1.0
147
0.09
170
     0
171
     2
172
     0
173
     0
174
     0
175
     0
176
     0
177
     0
178
     0
  0
ENDTAB
  0
ENDSEC
  0
SECTION
  2
BLOCKS
  0
ENDSEC
  0
SECTION
  2
ENTITIES
  0
LINE
  8
STANDARD
 62
     7
  5
24
 10
-30.2
 20
17.0
 30
0.0
 11
-28.8
 21
17.0
 31
0.0
  0
LINE
  8
STANDARD
 62
     7
  5
25
 10
-28.8
 20
17.0
 30
0.0
 11
-28.7
 21
17.2
 31
0.0
  0
LINE
  8
STANDARD
 62
     7
  5
26
 10
-28.7
 20
17.2
 30
0.0
 11
-27.9
 21
17.2
 31
0.0
  0
LINE
  8
STANDARD
 62
     7
  5
27
 10
-27.9
 20
17.2
 30
0.0
 11
-27.8
 21
17.0
 31
0.0
  0
LINE
  8
STANDARD
 62
     7
  5
28
 10
-27.8
 20
17.0
 30
0.0
 11
-26.6
 21
17.0
 31
0.0
  0
LINE
  8
STANDARD
 62
     7
  5
29
 10
-26.6
 20
17.0
 30
0.0
 11
-26.5
 21
17.2
 31
0.0
  0
LINE
  8
STANDARD
 62
     7
  5
2A
 10
-26.5
 20
17.2
 30
0.0
 11
-25.7
 21
17.2
 31
0.0
  0
LINE
  8
STANDARD
 62
     7
  5
2B
 10
-25.7
 20
17.2
 30
0.0
 11
-25.6
 21
17.0
 31
0.0
  0
LINE
  8
STANDARD
 62
     7
  5
2C
 10
-25.6
 20
17.0
 30
0.0
 11
-23.8
 21
17.0
 31
0.0
  0
LINE
  8
STANDARD
 62
     7
  5
2D
 10
-23.8
 20
17.0
 30
0.0
 11
-23.7
 21
17.2
 31
0.0
  0
LINE
  8
STANDARD
 62
     7
  5
2E
 10
-23.7
 20
17.2
 30
0.0
 11
-22.9
 21
17.2
 31
0.0
  0
LINE
  8
STANDARD
 62
     7
  5
2F
 10
-22.9
 20
17.2
 30
0.0
 11
-22.8
 21
17.0
 31
0.0
  0
LINE
  8
STANDARD
 62
     7
  5
30
 10
-22.8
 20
17.0
 30
0.0
 11
-22.4
 21
17.0
 31
0.0
  0
TEXT
  8
STANDARD
 62
     7
  5
31
 10
-23.4925
 20
16.55
 30
0.0
 40
0.1
  1
steplen
  7
STYLE1
 72
     1
 11
-23.3
 21
16.6
 31
0.0
 73
     2
  0
TEXT
  8
STANDARD
 62
     7
  5
32
 10
-26.2925
 20
16.55
 30
0.0
 40
0.1
  1
steplen
  7
STYLE1
 72
     1
 11
-26.1
 21
16.6
 31
0.0
 73
     2
  0
TEXT
  8
STANDARD
 62
     7
  5
33
 10
-25.0475
 20
16.625
 30
0.0
 40
0.1
  1
stepspace
  7
STYLE1
 72
     1
 11
-24.8
 21
16.675
 31
0.0
 73
     2
  0
TEXT
  8
STANDARD
 62
     7
  5
34
 10
-24.9375
 20
16.475
 30
0.0
 40
0.1
  1
(min)
  7
STYLE1
 72
     1
 11
-24.8
 21
16.525
 31
0.0
 73
     2
  0
TEXT
  8
STANDARD
 62
     7
  5
35
 10
-27.4475
 20
16.625
 30
0.0
 40
0.1
  1
stepspace
  7
STYLE1
 72
     1
 11
-27.2
 21
16.675
 31
0.0
 73
     2
  0
TEXT
  8
STANDARD
 62
     7
  5
36
 10
-27.3375
 20
16.475
 30
0.0
 40
0.1
  1
(min)
  7
STYLE1
 72
     1
 11
-27.2
 21
16.525
 31
0.0
 73
     2
  0
TEXT
  8
STANDARD
 62
     7
  5
37
 10
-24.47
 20
16.025
 30
0.0
 40
0.1
  1
dirsetup
  7
STYLE1
 72
     1
 11
-24.25
 21
16.075
 31
0.0
 73
     2
  0
TEXT
  8
STANDARD
 62
     7
  5
38
 10
-24.3875
 20
15.875
 30
0.0
 40
0.1
  1
(min)
  7
STYLE1
 72
     1
 11
-24.25
 21
15.925
 31
0.0
 73
     2
  0
TEXT
  8
STANDARD
 62
     7
  5
39
 10
-29.42
 20
16.025
 30
0.0
 40
0.1
  1
dirsetup
  7
STYLE1
 72
     1
 11
-29.2
 21
16.075
 31
0.0
 73
     2
  0
TEXT
  8
STANDARD
 62
     7
  5
3A
 10
-29.3375
 20
15.875
 30
0.0
 40
0.1
  1
(min)
  7
STYLE1
 72
     1
 11
-29.2
 21
15.925
 31
0.0
 73
     2
  0
TEXT
  8
STANDARD
 62
     7
  5
3B
 10
-25.3925
 20
16.025
 30
0.0
 40
0.1
  1
dirhold
  7
STYLE1
 72
     1
 11
-25.2
 21
16.075
 31
0.0
 73
     2
  0
TEXT
  8
STANDARD
 62
     7
  5
3C
 10
-25.3375
 20
15.875
 30
0.0
 40
0.1
  1
(min)
  7
STYLE1
 72
     1
 11
-25.2
 21
15.925
 31
0.0
 73
     2
  0
TEXT
  8
STANDARD
 62
     7
  5
3D
 10
-28.4925
 20
16.55
 30
0.0
 40
0.1
  1
steplen
  7
STYLE1
 72
     1
 11
-28.3
 21
16.6
 31
0.0
 73
     2
  0
LINE
  8
STANDARD
 62
     7
  5
3E
 10
-28.75
 20
16.95
 30
0.0
 11
-28.75
 21
15.8
 31
0.0
  0
LINE
  8
STANDARD
 62
     7
  5
3F
 10
-27.85
 20
16.95
 30
0.0
 11
-27.85
 21
16.35
 31
0.0
  0
LINE
  8
STANDARD
 62
     7
  5
40
 10
-25.65
 20
16.95
 30
0.0
 11
-25.65
 21
15.8
 31
0.0
  0
LINE
  8
STANDARD
 62
     7
  5
41
 10
-23.75
 20
16.95
 30
0.0
 11
-23.75
 21
15.8
 31
0.0
  0
LINE
  8
STANDARD
 62
     7
  5
42
 10
-22.85
 20
16.95
 30
0.0
 11
-22.85
 21
16.35
 31
0.0
  0
LINE
  8
STANDARD
 62
     7
  5
43
 10
-30.2
 20
15.3
 30
0.0
 11
-29.7
 21
15.3
 31
0.0
  0
LINE
  8
STANDARD
 62
     7
  5
44
 10
-29.7
 20
15.3
 30
0.0
 11
-29.6
 21
15.5
 31
0.0
  0
LINE
  8
STANDARD
 62
     7
  5
45
 10
-30.2
 20
15.5
 30
0.0
 11
-29.7
 21
15.5
 31
0.0
  0
LINE
  8
STANDARD
 62
     7
  5
46
 10
-29.7
 20
15.5
 30
0.0
 11
-29.6
 21
15.3
 31
0.0
  0
LINE
  8
STANDARD
 62
     7
  5
47
 10
-29.6
 20
15.3
 30
0.0
 11
-24.8
 21
15.3
 31
0.0
  0
LINE
  8
STANDARD
 62
     7
  5
48
 10
-24.8
 20
15.3
 30
0.0
 11
-24.7
 21
15.5
 31
0.0
  0
LINE
  8
STANDARD
 62
     7
  5
49
 10
-24.7
 20
15.5
 30
0.0
 11
-22.4
 21
15.5
 31
0.0
  0
LINE
  8
STANDARD
 62
     7
  5
4A
 10
-22.4
 20
15.3
 30
0.0
 11
-24.7
 21
15.3
 31
0.0
  0
LINE
  8
STANDARD
 62
     7
  5
4B
 10
-24.7
 20
15.3
 30
0.0
 11
-24.8
 21
15.5
 31
0.0
  0
LINE
  8
STANDARD
 62
     7
  5
4C
 10
-24.8
 20
15.5
 30
0.0
 11
-29.6
 21
15.5
 31
0.0
  0
LINE
  8
STANDARD
 62
     7
  5
4D
 10
-29.65
 20
15.55
 30
0.0
 11
-29.65
 21
16.2
 31
0.0
  0
LINE
  8
STANDARD
 62
     7
  5
4E
 10
-24.75
 20
15.55
 30
0.0
 11
-24.75
 21
16.2
 31
0.0
  0
LINE
  8
STANDARD
 62
     7
  5
4F
 10
-28.55
 20
16.6
 30
0.0
 11
-28.75
 21
16.6
 31
0.0
  0
POLYLINE
  8
STANDARD
 62
     7
  5
50
 66
     1
 10
0.0
 20
0.0
 30
0.0
  0
VERTEX
  8
STANDARD
 62
     7
  5
51
 10
-28.75
 20
16.6
 30
0.0
  0
VERTEX
  8
STANDARD
 62
     7
  5
52
 10
-28.67
 20
16.58222
 30
0.0
  0
VERTEX
  8
STANDARD
 62
     7
  5
53
 10
-28.67
 20
16.61778
 30
0.0
  0
VERTEX
  8
STANDARD
 62
     7
  5
54
 10
-28.75
 20
16.6
 30
0.0
  0
SEQEND
  8
0
  5
55
  0
LINE
  8
STANDARD
 62
     7
  5
56
 10
-29.45
 20
16.0
 30
0.0
 11
-29.65
 21
16.0
 31
0.0
  0
POLYLINE
  8
STANDARD
 62
     7
  5
57
 66
     1
 10
0.0
 20
0.0
 30
0.0
  0
VERTEX
  8
STANDARD
 62
     7
  5
58
 10
-29.65
 20
16.0
 30
0.0
  0
VERTEX
  8
STANDARD
 62
     7
  5
59
 10
-29.57
 20
15.98222
 30
0.0
  0
VERTEX
  8
STANDARD
 62
     7
  5
5A
 10
-29.57
 20
16.01778
 30
0.0
  0
VERTEX
  8
STANDARD
 62
     7
  5
5B
 10
-29.65
 20
16.0
 30
0.0
  0
SEQEND
  8
0
  5
5C
  0
LINE
  8
STANDARD
 62
     7
  5
5D
 10
-28.95
 20
16.0
 30
0.0
 11
-28.75
 21
16.0
 31
0.0
  0
POLYLINE
  8
STANDARD
 62
     7
  5
5E
 66
     1
 10
0.0
 20
0.0
 30
0.0
  0
VERTEX
  8
STANDARD
 62
     7
  5
5F
 10
-28.75
 20
16.0
 30
0.0
  0
VERTEX
  8
STANDARD
 62
     7
  5
60
 10
-28.83
 20
16.01778
 30
0.0
  0
VERTEX
  8
STANDARD
 62
     7
  5
61
 10
-28.83
 20
15.98222
 30
0.0
  0
VERTEX
  8
STANDARD
 62
     7
  5
62
 10
-28.75
 20
16.0
 30
0.0
  0
SEQEND
  8
0
  5
63
  0
LINE
  8
STANDARD
 62
     7
  5
64
 10
-28.05
 20
16.6
 30
0.0
 11
-27.85
 21
16.6
 31
0.0
  0
POLYLINE
  8
STANDARD
 62
     7
  5
65
 66
     1
 10
0.0
 20
0.0
 30
0.0
  0
VERTEX
  8
STANDARD
 62
     7
  5
66
 10
-27.85
 20
16.6
 30
0.0
  0
VERTEX
  8
STANDARD
 62
     7
  5
67
 10
-27.93
 20
16.61778
 30
0.0
  0
VERTEX
  8
STANDARD
 62
     7
  5
68
 10
-27.93
 20
16.58222
 30
0.0
  0
VERTEX
  8
STANDARD
 62
     7
  5
69
 10
-27.85
 20
16.6
 30
0.0
  0
SEQEND
  8
0
  5
6A
  0
LINE
  8
STANDARD
 62
     7
  5
6B
 10
-27.5
 20
16.6
 30
0.0
 11
-27.85
 21
16.6
 31
0.0
  0
POLYLINE
  8
STANDARD
 62
     7
  5
6C
 66
     1
 10
0.0
 20
0.0
 30
0.0
  0
VERTEX
  8
STANDARD
 62
     7
  5
6D
 10
-27.85
 20
16.6
 30
0.0
  0
VERTEX
  8
STANDARD
 62
     7
  5
6E
 10
-27.77
 20
16.58222
 30
0.0
  0
VERTEX
  8
STANDARD
 62
     7
  5
6F
 10
-27.77
 20
16.61778
 30
0.0
  0
VERTEX
  8
STANDARD
 62
     7
  5
70
 10
-27.85
 20
16.6
 30
0.0
  0
SEQEND
  8
0
  5
71
  0
LINE
  8
STANDARD
 62
     7
  5
72
 10
-26.9
 20
16.6
 30
0.0
 11
-26.55
 21
16.6
 31
0.0
  0
POLYLINE
  8
STANDARD
 62
     7
  5
73
 66
     1
 10
0.0
 20
0.0
 30
0.0
  0
VERTEX
  8
STANDARD
 62
     7
  5
74
 10
-26.55
 20
16.6
 30
0.0
  0
VERTEX
  8
STANDARD
 62
     7
  5
75
 10
-26.63
 20
16.61778
 30
0.0
  0
VERTEX
  8
STANDARD
 62
     7
  5
76
 10
-26.63
 20
16.58222
 30
0.0
  0
VERTEX
  8
STANDARD
 62
     7
  5
77
 10
-26.55
 20
16.6
 30
0.0
  0
SEQEND
  8
0
  5
78
  0
LINE
  8
STANDARD
 62
     7
  5
79
 10
-26.55
 20
16.95
 30
0.0
 11
-26.55
 21
16.35
 31
0.0
  0
LINE
  8
STANDARD
 62
     7
  5
7A
 10
-26.35
 20
16.6
 30
0.0
 11
-26.55
 21
16.6
 31
0.0
  0
POLYLINE
  8
STANDARD
 62
     7
  5
7B
 66
     1
 10
0.0
 20
0.0
 30
0.0
  0
VERTEX
  8
STANDARD
 62
     7
  5
7C
 10
-26.55
 20
16.6
 30
0.0
  0
VERTEX
  8
STANDARD
 62
     7
  5
7D
 10
-26.47
 20
16.58222
 30
0.0
  0
VERTEX
  8
STANDARD
 62
     7
  5
7E
 10
-26.47
 20
16.61778
 30
0.0
  0
VERTEX
  8
STANDARD
 62
     7
  5
7F
 10
-26.55
 20
16.6
 30
0.0
  0
SEQEND
  8
0
  5
80
  0
LINE
  8
STANDARD
 62
     7
  5
81
 10
-25.85
 20
16.6
 30
0.0
 11
-25.65
 21
16.6
 31
0.0
  0
POLYLINE
  8
STANDARD
 62
     7
  5
82
 66
     1
 10
0.0
 20
0.0
 30
0.0
  0
VERTEX
  8
STANDARD
 62
     7
  5
83
 10
-25.65
 20
16.6
 30
0.0
  0
VERTEX
  8
STANDARD
 62
     7
  5
84
 10
-25.73
 20
16.61778
 30
0.0
  0
VERTEX
  8
STANDARD
 62
     7
  5
85
 10
-25.73
 20
16.58222
 30
0.0
  0
VERTEX
  8
STANDARD
 62
     7
  5
86
 10
-25.65
 20
16.6
 30
0.0
  0
SEQEND
  8
0
  5
87
  0
LINE
  8
STANDARD
 62
     7
  5
88
 10
-25.19961
 20
16.6
 30
0.0
 11
-25.65
 21
16.6
 31
0.0
  0
POLYLINE
  8
STANDARD
 62
     7
  5
89
 66
     1
 10
0.0
 20
0.0
 30
0.0
  0
VERTEX
  8
STANDARD
 62
     7
  5
8A
 10
-25.65
 20
16.6
 30
0.0
  0
VERTEX
  8
STANDARD
 62
     7
  5
8B
 10
-25.57
 20
16.58222
 30
0.0
  0
VERTEX
  8
STANDARD
 62
     7
  5
8C
 10
-25.57
 20
16.61778
 30
0.0
  0
VERTEX
  8
STANDARD
 62
     7
  5
8D
 10
-25.65
 20
16.6
 30
0.0
  0
SEQEND
  8
0
  5
8E
  0
LINE
  8
STANDARD
 62
     7
  5
8F
 10
-24.4
 20
16.6
 30
0.0
 11
-23.75
 21
16.6
 31
0.0
  0
POLYLINE
  8
STANDARD
 62
     7
  5
90
 66
     1
 10
0.0
 20
0.0
 30
0.0
  0
VERTEX
  8
STANDARD
 62
     7
  5
91
 10
-23.75
 20
16.6
 30
0.0
  0
VERTEX
  8
STANDARD
 62
     7
  5
92
 10
-23.83
 20
16.61778
 30
0.0
  0
VERTEX
  8
STANDARD
 62
     7
  5
93
 10
-23.83
 20
16.58222
 30
0.0
  0
VERTEX
  8
STANDARD
 62
     7
  5
94
 10
-23.75
 20
16.6
 30
0.0
  0
SEQEND
  8
0
  5
95
  0
LINE
  8
STANDARD
 62
     7
  5
96
 10
-23.55
 20
16.6
 30
0.0
 11
-23.75
 21
16.6
 31
0.0
  0
POLYLINE
  8
STANDARD
 62
     7
  5
97
 66
     1
 10
0.0
 20
0.0
 30
0.0
  0
VERTEX
  8
STANDARD
 62
     7
  5
98
 10
-23.75
 20
16.6
 30
0.0
  0
VERTEX
  8
STANDARD
 62
     7
  5
99
 10
-23.67
 20
16.58222
 30
0.0
  0
VERTEX
  8
STANDARD
 62
     7
  5
9A
 10
-23.67
 20
16.61778
 30
0.0
  0
VERTEX
  8
STANDARD
 62
     7
  5
9B
 10
-23.75
 20
16.6
 30
0.0
  0
SEQEND
  8
0
  5
9C
  0
LINE
  8
STANDARD
 62
     7
  5
9D
 10
-23.05
 20
16.6
 30
0.0
 11
-22.85
 21
16.6
 31
0.0
  0
POLYLINE
  8
STANDARD
 62
     7
  5
9E
 66
     1
 10
0.0
 20
0.0
 30
0.0
  0
VERTEX
  8
STANDARD
 62
     7
  5
9F
 10
-22.85
 20
16.6
 30
0.0
  0
VERTEX
  8
STANDARD
 62
     7
  5
A0
 10
-22.93
 20
16.61778
 30
0.0
  0
VERTEX
  8
STANDARD
 62
     7
  5
A1
 10
-22.93
 20
16.58222
 30
0.0
  0
VERTEX
  8
STANDARD
 62
     7
  5
A2
 10
-22.85
 20
16.6
 30
0.0
  0
SEQEND
  8
0
  5
A3
  0
LINE
  8
STANDARD
 62
     7
  5
A4
 10
-24.0
 20
16.0
 30
0.0
 11
-23.75
 21
16.0
 31
0.0
  0
POLYLINE
  8
STANDARD
 62
     7
  5
A5
 66
     1
 10
0.0
 20
0.0
 30
0.0
  0
VERTEX
  8
STANDARD
 62
     7
  5
A6
 10
-23.75
 20
16.0
 30
0.0
  0
VERTEX
  8
STANDARD
 62
     7
  5
A7
 10
-23.83
 20
16.01778
 30
0.0
  0
VERTEX
  8
STANDARD
 62
     7
  5
A8
 10
-23.83
 20
15.98222
 30
0.0
  0
VERTEX
  8
STANDARD
 62
     7
  5
A9
 10
-23.75
 20
16.0
 30
0.0
  0
SEQEND
  8
0
  5
AA
  0
LINE
  8
STANDARD
 62
     7
  5
AB
 10
-24.75
 20
16.0
 30
0.0
 11
-24.5
 21
16.0
 31
0.0
  0
POLYLINE
  8
STANDARD
 62
     7
  5
AC
 66
     1
 10
0.0
 20
0.0
 30
0.0
  0
VERTEX
  8
STANDARD
 62
     7
  5
AD
 10
-24.75
 20
16.0
 30
0.0
  0
VERTEX
  8
STANDARD
 62
     7
  5
AE
 10
-24.67
 20
15.98222
 30
0.0
  0
VERTEX
  8
STANDARD
 62
     7
  5
AF
 10
-24.67
 20
16.01778
 30
0.0
  0
VERTEX
  8
STANDARD
 62
     7
  5
B0
 10
-24.75
 20
16.0
 30
0.0
  0
SEQEND
  8
0
  5
B1
  0
LINE
  8
STANDARD
 62
     7
  5
B2
 10
-25.0
 20
16.0
 30
0.0
 11
-24.75
 21
16.0
 31
0.0
  0
POLYLINE
  8
STANDARD
 62
     7
  5
B3
 66
     1
 10
0.0
 20
0.0
 30
0.0
  0
VERTEX
  8
STANDARD
 62
     7
  5
B4
 10
-24.75
 20
16.0
 30
0.0
  0
VERTEX
  8
STANDARD
 62
     7
  5
B5
 10
-24.83
 20
16.01778
 30
0.0
  0
VERTEX
  8
STANDARD
 62
     7
  5
B6
 10
-24.83
 20
15.98222
 30
0.0
  0
VERTEX
  8
STANDARD
 62
     7
  5
B7
 10
-24.75
 20
16.0
 30
0.0
  0
SEQEND
  8
0
  5
B8
  0
LINE
  8
STANDARD
 62
     7
  5
B9
 10
-25.4
 20
16.0
 30
0.0
 11
-25.65
 21
16.0
 31
0.0
  0
POLYLINE
  8
STANDARD
 62
     7
  5
BA
 66
     1
 10
0.0
 20
0.0
 30
0.0
  0
VERTEX
  8
STANDARD
 62
     7
  5
BB
 10
-25.65
 20
16.0
 30
0.0
  0
VERTEX
  8
STANDARD
 62
     7
  5
BC
 10
-25.57
 20
15.98222
 30
0.0
  0
VERTEX
  8
STANDARD
 62
     7
  5
BD
 10
-25.57
 20
16.01778
 30
0.0
  0
VERTEX
  8
STANDARD
 62
     7
  5
BE
 10
-25.65
 20
16.0
 30
0.0
  0
SEQEND
  8
0
  5
BF
  0
TEXT
  8
STANDARD
 62
     7
  5
C0
 10
-30.52
 20
17.05
 30
0.0
 40
0.1
  1
step
  7
STYLE1
 72
     2
 11
-30.3
 21
17.1
 31
0.0
 73
     2
  0
TEXT
  8
STANDARD
 62
     7
  5
C1
 10
-30.795
 20
15.35
 30
0.0
 40
0.1
  1
direction
  7
STYLE1
 72
     2
 11
-30.3
 21
15.4
 31
0.0
 73
     2
  0
ENDSEC
  0
EOF
