999
dxflib 2.0.4.8
  0
SECTION
  2
HEADER
  9
$ACADVER
  1
AC1015
  9
$HANDSEED
  5
FFFF
  9
$USERR4
 40
0.0
  9
$AXISUNIT
 10
0.0
 20
0.0
 30
0.0
  9
$DIMTAD
 70
0
  9
$VISRETAIN
 70
0
  9
$TILEMODE
 70
1
  9
$SHADEDIF
 70
70
  9
$USERR5
 40
0.0
  9
$UCSYDIR
 10
0.0
 20
1.0
 30
0.0
  9
$ATTREQ
 70
1
  9
$CHAMFERA
 40
0.0
  9
$MENU
  1
acad
  9
$CLAYER
  8
0
  9
$DIMASZ
 40
0.18
  9
$GRIDUNIT
 10
0.0
 20
0.0
  9
$DIMADEC
 70
0
  9
$UCSXDIR
 10
1.0
 20
0.0
 30
0.0
  9
$CHAMFERB
 40
0.0
  9
$TRACEWID
 40
0.05
  9
$REGENMODE
 70
1
  9
$ORTHOMODE
 70
0
  9
$EXTMIN
 10
4.3365
 20
-1.9490000000000001
 30
0.0
  9
$DIMGAP
 40
0.09
  9
$PUCSYDIR
 10
0.0
 20
1.0
 30
0.0
  9
$ANGBASE
 50
0.0
  9
$USRTIMER
 70
1
  9
$SKETCHINC
 40
0.1
  9
$DIMTFAC
 40
1.0
  9
$DIMSAH
 70
0
  9
$DIMALT
 70
0
  9
$DIMSHO
 70
1
  9
$PUCSXDIR
 10
1.0
 20
0.0
 30
0.0
  9
$SURFTYPE
 70
6
  9
$SPLFRAME
 70
0
  9
$AXISMODE
 70
0
  9
$DIMTSZ
 40
0.0
  9
$LIMMIN
 10
0.0
 20
0.0
  9
$SPLINESEGS
 70
8
  9
$AUPREC
 70
0
  9
$LUNITS
 70
2
  9
$DWGCODEPAGE
  3
dos850
  9
$SURFTAB1
 70
6
  9
$BLIPMODE
 70
1
  9
$UNITMODE
 70
0
  9
$USERI1
 70
0
  9
$SURFTAB2
 70
6
  9
$SKPOLY
 70
0
  9
$ELEVATION
 40
0.0
  9
$DIMCEN
 40
0.09
  9
$DIMRND
 40
0.0
  9
$INSBASE
 10
0.0
 20
0.0
 30
0.0
  9
$DIMEXO
 40
0.0625
  9
$INSUNITS
 70
4
  9
$USERI2
 70
0
  9
$UCSORG
 10
0.0
 20
0.0
 30
0.0
  9
$PELEVATION
 40
0.0
  9
$TEXTSIZE
 40
0.2
  9
$DRAGMODE
 70
2
  9
$FILLMODE
 70
1
  9
$EXTMAX
 10
17.1634999999999991
 20
7.9489999999999998
 30
0.0
  9
$USERI3
 70
0
  9
$SURFU
 70
6
  9
$ANGDIR
 70
0
  9
$TDUSRTIMER
 40
0.0
  9
$DIMZIN
 70
0
  9
$DIMDLE
 40
0.0
  9
$DIMSCALE
 40
1.0
  9
$DIMLUNIT
 70
2
  9
$WORLDVIEW
 70
1
  9
$USERI4
 70
0
  9
$SURFV
 70
6
  9
$OSMODE
 70
0
  9
$QTEXTMODE
 70
0
  9
$LIMMAX
 10
0.0
 20
0.0
  9
$DIMTXT
 40
0.18
  9
$GRIDMODE
 70
1
  9
$USERI5
 70
0
  9
$HANDLING
 70
1
  9
$PDMODE
 70
0
  9
$LIMCHECK
 70
0
  9
$THICKNESS
 40
0.0
  9
$DIMSE1
 70
0
  9
$DIMLIM
 70
0
  9
$ATTMODE
 70
1
  9
$LUPREC
 70
4
  9
$PEXTMAX
 10
-100000000000000000000.0
 20
-100000000000000000000.0
 30
-100000000000000000000.0
  9
$PEXTMIN
 10
100000000000000000000.0
 20
100000000000000000000.0
 30
100000000000000000000.0
  9
$PUCSORG
 10
0.0
 20
0.0
 30
0.0
  9
$SPLINETYPE
 70
6
  9
$TDINDWG
 40
0.0
  9
$DIMSOXD
 70
0
  9
$DIMLFAC
 40
1.0
  9
$DIMSE2
 70
0
  9
$DIMTOH
 70
1
  9
$CELTYPE
  6
CONTINUOUS
  9
$PLIMCHECK
 70
0
  9
$PLINEWID
 40
0.0
  9
$DIMSTYLE
  2
STANDARD
  9
$DIMTVP
 40
0.0
  9
$DIMASO
 70
1
  9
$DIMTM
 40
0.0
  9
$DIMDLI
 40
0.38
  9
$CECOLOR
 62
256
  9
$PLIMMAX
 10
210.0
 20
297.0
  9
$PLIMMIN
 10
0.0
 20
0.0
  9
$TREEDEPTH
 70
3020
  9
$MAXACTVP
 70
16
  9
$TDUPDATE
 40
0.0
  9
$FILLETRAD
 40
0.0
  9
$DIMCLRT
 70
0
  9
$DIMALTD
 70
2
  9
$DIMTIH
 70
1
  9
$LTSCALE
 40
1.0
  9
$PINSBASE
 10
91.1638951197480623
 20
146.9242481748095202
 30
0.0
  9
$DIMEXE
 40
0.18
  9
$USERR1
 40
0.0
  9
$ATTDIA
 70
0
  9
$PDSIZE
 40
0.0
  9
$DIMCLRD
 70
0
  9
$DIMAUNIT
 70
0
  9
$PSLTSCALE
 70
0
  9
$PLINEGEN
 70
1
  9
$SHADEDGE
 70
3
  9
$USERR2
 40
0.0
  9
$COORDS
 70
0
  9
$TDCREATE
 40
0.0
  9
$DIMCLRE
 70
0
  9
$DIMTOFL
 70
0
  9
$DIMALTF
 40
25.3999999999999986
  9
$DIMTOL
 70
0
  9
$DIMTP
 40
0.0
  9
$TEXTSTYLE
  7
STANDARD
  9
$AUNITS
 70
0
  9
$USERR3
 40
0.0
  9
$DIMTIX
 70
0
  9
$MIRRTEXT
 70
1
  0
ENDSEC
  0
SECTION
  2
TABLES
  0
TABLE
  2
VPORT
  5
8
100
AcDbSymbolTable
 70
1
  0
VPORT
  5
30
100
AcDbSymbolTableRecord
100
AcDbViewportTableRecord
  2
*Active
 70
0
 10
0.0
 20
0.0
 11
1.0
 21
1.0
 12
286.3055555555554861
 22
148.5
 13
0.0
 23
0.0
 14
10.0
 24
10.0
 15
10.0
 25
10.0
 16
0.0
 26
0.0
 36
1.0
 17
0.0
 27
0.0
 37
0.0
 40
297.0
 41
1.92798353909465
 42
50.0
 43
0.0
 44
0.0
 50
0.0
 51
0.0
 71
0
 72
100
 73
1
 74
3
 75
1
 76
1
 77
0
 78
0
281
0
 65
1
110
0.0
120
0.0
130
0.0
111
1.0
121
0.0
131
0.0
112
0.0
122
1.0
132
0.0
 79
0
146
0.0
  0
ENDTAB
  0
TABLE
  2
LTYPE
  5
5
100
AcDbSymbolTable
 70
21
  0
LTYPE
  5
14
100
AcDbSymbolTableRecord
100
AcDbLinetypeTableRecord
  2
ByBlock
 70
0
  3

 72
65
 73
0
 40
0.0
  0
LTYPE
  5
15
100
AcDbSymbolTableRecord
100
AcDbLinetypeTableRecord
  2
ByLayer
 70
0
  3

 72
65
 73
0
 40
0.0
  0
LTYPE
  5
16
100
AcDbSymbolTableRecord
100
AcDbLinetypeTableRecord
  2
CONTINUOUS
 70
0
  3
Solid line
 72
65
 73
0
 40
0.0
  0
LTYPE
  5
31
100
AcDbSymbolTableRecord
100
AcDbLinetypeTableRecord
  2
DOT
 70
0
  3
Dot . . . . . . . . . . . . . . . . . . . . . .
 72
65
 73
2
 40
6.3499999999999996
 49
0.0
 74
0
 49
-6.3499999999999996
 74
0
  0
LTYPE
  5
32
100
AcDbSymbolTableRecord
100
AcDbLinetypeTableRecord
  2
DOT2
 70
0
  3
Dot (.5x) .....................................
 72
65
 73
2
 40
3.1749999999999998
 49
0.0
 74
0
 49
-3.1749999999999998
 74
0
  0
LTYPE
  5
33
100
AcDbSymbolTableRecord
100
AcDbLinetypeTableRecord
  2
DOTX2
 70
0
  3
Dot (2x) .  .  .  .  .  .  .  .  .  .  .  .  .
 72
65
 73
2
 40
12.6999999999999993
 49
0.0
 74
0
 49
-12.6999999999999993
 74
0
  0
LTYPE
  5
34
100
AcDbSymbolTableRecord
100
AcDbLinetypeTableRecord
  2
DASHED
 70
0
  3
Dashed __ __ __ __ __ __ __ __ __ __ __ __ __ _
 72
65
 73
2
 40
19.0500000000000007
 49
12.6999999999999993
 74
0
 49
-6.3499999999999996
 74
0
  0
LTYPE
  5
35
100
AcDbSymbolTableRecord
100
AcDbLinetypeTableRecord
  2
DASHED2
 70
0
  3
Dashed (.5x) _ _ _ _ _ _ _ _ _ _ _ _ _ _ _ _ _
 72
65
 73
2
 40
9.5250000000000004
 49
6.3499999999999996
 74
0
 49
-3.1749999999999998
 74
0
  0
LTYPE
  5
36
100
AcDbSymbolTableRecord
100
AcDbLinetypeTableRecord
  2
DASHEDX2
 70
0
  3
Dashed (2x) ____  ____  ____  ____  ____  ___
 72
65
 73
2
 40
38.1000000000000014
 49
25.3999999999999986
 74
0
 49
-12.6999999999999993
 74
0
  0
LTYPE
  5
37
100
AcDbSymbolTableRecord
100
AcDbLinetypeTableRecord
  2
DASHDOT
 70
0
  3
Dash dot __ . __ . __ . __ . __ . __ . __ . __
 72
65
 73
4
 40
25.3999999999999986
 49
12.6999999999999993
 74
0
 49
-6.3499999999999996
 74
0
 49
0.0
 74
0
 49
-6.3499999999999996
 74
0
  0
LTYPE
  5
38
100
AcDbSymbolTableRecord
100
AcDbLinetypeTableRecord
  2
DASHDOT2
 70
0
  3
Dash dot (.5x) _._._._._._._._._._._._._._._.
 72
65
 73
4
 40
12.6999999999999993
 49
6.3499999999999996
 74
0
 49
-3.1749999999999998
 74
0
 49
0.0
 74
0
 49
-3.1749999999999998
 74
0
  0
LTYPE
  5
39
100
AcDbSymbolTableRecord
100
AcDbLinetypeTableRecord
  2
DASHDOTX2
 70
0
  3
Dash dot (2x) ____  .  ____  .  ____  .  ___
 72
65
 73
4
 40
50.7999999999999972
 49
25.3999999999999986
 74
0
 49
-12.6999999999999993
 74
0
 49
0.0
 74
0
 49
-12.6999999999999993
 74
0
  0
LTYPE
  5
3A
100
AcDbSymbolTableRecord
100
AcDbLinetypeTableRecord
  2
DIVIDE
 70
0
  3
Divide ____ . . ____ . . ____ . . ____ . . ____
 72
65
 73
6
 40
31.75
 49
12.6999999999999993
 74
0
 49
-6.3499999999999996
 74
0
 49
0.0
 74
0
 49
-6.3499999999999996
 74
0
 49
0.0
 74
0
 49
-6.3499999999999996
 74
0
  0
LTYPE
  5
3B
100
AcDbSymbolTableRecord
100
AcDbLinetypeTableRecord
  2
DIVIDE2
 70
0
  3
Divide (.5x) __..__..__..__..__..__..__..__.._
 72
65
 73
6
 40
15.875
 49
6.3499999999999996
 74
0
 49
-3.1749999999999998
 74
0
 49
0.0
 74
0
 49
-3.1749999999999998
 74
0
 49
0.0
 74
0
 49
-3.1749999999999998
 74
0
  0
LTYPE
  5
3C
100
AcDbSymbolTableRecord
100
AcDbLinetypeTableRecord
  2
DIVIDEX2
 70
0
  3
Divide (2x) ________  .  .  ________  .  .  _
 72
65
 73
6
 40
63.5
 49
25.3999999999999986
 74
0
 49
-12.6999999999999993
 74
0
 49
0.0
 74
0
 49
-12.6999999999999993
 74
0
 49
0.0
 74
0
 49
-12.6999999999999993
 74
0
  0
LTYPE
  5
3D
100
AcDbSymbolTableRecord
100
AcDbLinetypeTableRecord
  2
CENTER
 70
0
  3
Center ____ _ ____ _ ____ _ ____ _ ____ _ ____
 72
65
 73
4
 40
50.7999999999999972
 49
31.75
 74
0
 49
-6.3499999999999996
 74
0
 49
6.3499999999999996
 74
0
 49
-6.3499999999999996
 74
0
  0
LTYPE
  5
3E
100
AcDbSymbolTableRecord
100
AcDbLinetypeTableRecord
  2
CENTER2
 70
0
  3
Center (.5x) ___ _ ___ _ ___ _ ___ _ ___ _ ___
 72
65
 73
4
 40
28.5749999999999993
 49
19.0500000000000007
 74
0
 49
-3.1749999999999998
 74
0
 49
3.1749999999999998
 74
0
 49
-3.1749999999999998
 74
0
  0
LTYPE
  5
3F
100
AcDbSymbolTableRecord
100
AcDbLinetypeTableRecord
  2
CENTERX2
 70
0
  3
Center (2x) ________  __  ________  __  _____
 72
65
 73
4
 40
101.5999999999999943
 49
63.5
 74
0
 49
-12.6999999999999993
 74
0
 49
12.6999999999999993
 74
0
 49
-12.6999999999999993
 74
0
  0
LTYPE
  5
40
100
AcDbSymbolTableRecord
100
AcDbLinetypeTableRecord
  2
BORDER
 70
0
  3
Border __ __ . __ __ . __ __ . __ __ . __ __ .
 72
65
 73
6
 40
44.4500000000000028
 49
12.6999999999999993
 74
0
 49
-6.3499999999999996
 74
0
 49
12.6999999999999993
 74
0
 49
-6.3499999999999996
 74
0
 49
0.0
 74
0
 49
-6.3499999999999996
 74
0
  0
LTYPE
  5
41
100
AcDbSymbolTableRecord
100
AcDbLinetypeTableRecord
  2
BORDER2
 70
0
  3
Border (.5x) __.__.__.__.__.__.__.__.__.__.__.
 72
65
 73
6
 40
22.2250000000000014
 49
6.3499999999999996
 74
0
 49
-3.1749999999999998
 74
0
 49
6.3499999999999996
 74
0
 49
-3.1749999999999998
 74
0
 49
0.0
 74
0
 49
-3.1749999999999998
 74
0
  0
LTYPE
  5
42
100
AcDbSymbolTableRecord
100
AcDbLinetypeTableRecord
  2
BORDERX2
 70
0
  3
Border (2x) ____  ____  .  ____  ____  .  ___
 72
65
 73
6
 40
88.9000000000000057
 49
25.3999999999999986
 74
0
 49
-12.6999999999999993
 74
0
 49
25.3999999999999986
 74
0
 49
-12.6999999999999993
 74
0
 49
0.0
 74
0
 49
-12.6999999999999993
 74
0
  0
ENDTAB
  0
TABLE
  2
LAYER
  5
2
100
AcDbSymbolTable
 70
7
  0
LAYER
  5
10
100
AcDbSymbolTableRecord
100
AcDbLayerTableRecord
  2
0
 70
0
 62
7
  6
CONTINUOUS
390
F
  0
LAYER
  5
43
100
AcDbSymbolTableRecord
100
AcDbLayerTableRecord
  2
MERGE
 70
0
 62
7
  6
CONTINUOUS
390
F
  0
LAYER
  5
44
100
AcDbSymbolTableRecord
100
AcDbLayerTableRecord
  2
STANDARD
 70
0
 62
7
  6
CONTINUOUS
390
F
  0
LAYER
  5
45
100
AcDbSymbolTableRecord
100
AcDbLayerTableRecord
  2
PINS
 70
0
 62
7
  6
CONTINUOUS
390
F
  0
LAYER
  5
46
100
AcDbSymbolTableRecord
100
AcDbLayerTableRecord
  2
PARAMS
 70
0
 62
7
  6
CONTINUOUS
390
F
  0
LAYER
  5
47
100
AcDbSymbolTableRecord
100
AcDbLayerTableRecord
  2
OUTLINE
 70
0
 62
7
  6
CONTINUOUS
390
F
  0
LAYER
  5
48
100
AcDbSymbolTableRecord
100
AcDbLayerTableRecord
  2
INTERNALS
 70
0
 62
7
  6
CONTINUOUS
390
F
  0
ENDTAB
  0
TABLE
  2
STYLE
  5
3
100
AcDbSymbolTable
 70
1
  0
STYLE
  5
11
100
AcDbSymbolTableRecord
100
AcDbTextStyleTableRecord
  2
Standard
 70
0
 40
0.0
 41
0.75
 50
0.0
 71
0
 42
2.5
  3
txt
  4

  0
ENDTAB
  0
TABLE
  2
VIEW
  5
6
100
AcDbSymbolTable
 70
0
  0
ENDTAB
  0
TABLE
  2
UCS
  5
7
100
AcDbSymbolTable
 70
0
  0
ENDTAB
  0
TABLE
  2
APPID
  5
9
100
AcDbSymbolTable
 70
1
  0
APPID
  5
12
100
AcDbSymbolTableRecord
100
AcDbRegAppTableRecord
  2
ACAD
 70
0
  0
ENDTAB
  0
TABLE
  2
DIMSTYLE
  5
A
100
AcDbSymbolTable
 70
1
100
AcDbDimStyleTable
 71
0
  0
DIMSTYLE
105
27
100
AcDbSymbolTableRecord
100
AcDbDimStyleTableRecord
  2
Standard
 41
0.18
 42
0.0625
 43
3.75
 44
0.18
 70
0
 73
0
 74
0
 77
1
 78
8
140
0.18
141
2.5
143
0.03937007874016
147
0.09
171
3
172
1
271
2
272
2
274
3
278
44
283
0
284
8
340
11
  0
ENDTAB
  0
TABLE
  2
BLOCK_RECORD
  5
1
100
AcDbSymbolTable
 70
1
  0
BLOCK_RECORD
  5
1F
100
AcDbSymbolTableRecord
100
AcDbBlockTableRecord
  2
*Model_Space
340
22
  0
BLOCK_RECORD
  5
1B
100
AcDbSymbolTableRecord
100
AcDbBlockTableRecord
  2
*Paper_Space
340
1E
  0
BLOCK_RECORD
  5
23
100
AcDbSymbolTableRecord
100
AcDbBlockTableRecord
  2
*Paper_Space0
340
26
  0
ENDTAB
  0
ENDSEC
  0
SECTION
  2
BLOCKS
  0
BLOCK
  5
20
100
AcDbEntity
  8
0
100
AcDbBlockBegin
  2
*Model_Space
 70
0
 10
0.0
 20
0.0
 30
0.0
  3
*Model_Space
  1

  0
ENDBLK
  5
21
100
AcDbEntity
  8
0
100
AcDbBlockEnd
  0
BLOCK
  5
1C
100
AcDbEntity
 67
1
  8
0
100
AcDbBlockBegin
  2
*Paper_Space
 70
0
 10
0.0
 20
0.0
 30
0.0
  3
*Paper_Space
  1

  0
ENDBLK
  5
1D
100
AcDbEntity
 67
1
  8
0
100
AcDbBlockEnd
  0
BLOCK
  5
24
100
AcDbEntity
  8
0
100
AcDbBlockBegin
  2
*Paper_Space0
 70
0
 10
0.0
 20
0.0
 30
0.0
  3
*Paper_Space0
  1

  0
ENDBLK
  5
25
100
AcDbEntity
  8
0
100
AcDbBlockEnd
  0
ENDSEC
  0
SECTION
  2
ENTITIES
  0
LINE
  5
49
100
AcDbEntity
100
AcDbLine
  8
PINS
 62
7
370
-1
  6
ByLayer
 10
23.5861048802519306
 20
9.075751825190487
 30
0.0
 11
22.0861048802519342
 21
10.575751825190487
 31
0.0
  0
LINE
  5
4A
100
AcDbEntity
100
AcDbLine
  8
PINS
 62
7
370
-1
  6
ByLayer
 10
22.0861048802519342
 20
10.575751825190487
 30
0.0
 11
23.5861048802519306
 21
12.0757518251904887
 31
0.0
  0
LINE
  5
4B
100
AcDbEntity
100
AcDbLine
  8
PINS
 62
7
370
-1
  6
ByLayer
 10
23.5861048802519306
 20
12.0757518251904887
 30
0.0
 11
43.0861048802519093
 21
12.0757518251904887
 31
0.0
  0
LINE
  5
4C
100
AcDbEntity
100
AcDbLine
  8
PINS
 62
7
370
-1
  6
ByLayer
 10
43.0861048802519093
 20
12.0757518251904887
 30
0.0
 11
43.0861048802519093
 21
9.075751825190487
 31
0.0
  0
LINE
  5
4D
100
AcDbEntity
100
AcDbLine
  8
PINS
 62
7
370
-1
  6
ByLayer
 10
43.0861048802519093
 20
9.075751825190487
 30
0.0
 11
23.5861048802519306
 21
9.075751825190487
 31
0.0
  0
LINE
  5
4E
100
AcDbEntity
100
AcDbLine
  8
OUTLINE
 62
7
370
-1
  6
ByLayer
 10
23.5861048802519306
 20
9.075751825190487
 30
0.0
 11
23.5861048802519306
 21
9.075751825190487
 31
0.0
  0
LINE
  5
4F
100
AcDbEntity
100
AcDbLine
  8
PINS
 62
7
370
-1
  6
ByLayer
 10
23.5861048802519306
 20
12.0757518251904887
 30
0.0
 11
22.0861048802519342
 21
13.5757518251904834
 31
0.0
  0
LINE
  5
50
100
AcDbEntity
100
AcDbLine
  8
PINS
 62
7
370
-1
  6
ByLayer
 10
22.0861048802519342
 20
13.5757518251904834
 30
0.0
 11
23.5861048802519306
 21
15.0757518251904852
 31
0.0
  0
LINE
  5
51
100
AcDbEntity
100
AcDbLine
  8
PINS
 62
7
370
-1
  6
ByLayer
 10
23.5861048802519306
 20
15.0757518251904852
 30
0.0
 11
43.0861048802519093
 21
15.0757518251904852
 31
0.0
  0
LINE
  5
52
100
AcDbEntity
100
AcDbLine
  8
PINS
 62
7
370
-1
  6
ByLayer
 10
43.0861048802519093
 20
15.0757518251904852
 30
0.0
 11
43.0861048802519093
 21
12.0757518251904887
 31
0.0
  0
LINE
  5
53
100
AcDbEntity
100
AcDbLine
  8
PINS
 62
7
370
-1
  6
ByLayer
 10
43.0861048802519093
 20
12.0757518251904887
 30
0.0
 11
23.5861048802519306
 21
12.0757518251904887
 31
0.0
  0
LINE
  5
54
100
AcDbEntity
100
AcDbLine
  8
OUTLINE
 62
7
370
-1
  6
ByLayer
 10
23.5861048802519306
 20
12.0757518251904887
 30
0.0
 11
23.5861048802519306
 21
12.0757518251904887
 31
0.0
  0
MTEXT
  5
55
100
AcDbEntity
100
AcDbMText
  8
PINS
 62
7
370
-1
  6
ByLayer
 10
32.5861048802519235
 20
10.575751825190487
 30
0.0
 40
1.800
 41
1500.0
 71
5
 72
2
  1
pin-8-in-not
  7
romand
 50
0.0
 73
0
 44
1.0
  0
MTEXT
  5
56
100
AcDbEntity
100
AcDbMText
  8
PINS
 62
7
370
-1
  6
ByLayer
 10
32.5861048802519235
 20
13.5757518251904834
 30
0.0
 40
1.800
 41
1500.0
 71
5
 72
2
  1
pin-8-in
  7
romand
 50
0.0
 73
0
 44
1.0
  0
CIRCLE
  5
57
100
AcDbEntity
100
AcDbCircle
  8
INTERNALS
 62
7
370
-1
  6
ByLayer
 10
47.9611048802519306
 20
10.575751825190487
 30
0.0
 40
0.375
  0
LWPOLYLINE
  5
58
  8
INTERNALS
 62
7
370
-1
  6
ByLayer
100
AcDbEntity
100
AcDbPolyline
 90
5
 70
1
 10
48.3361048802519377
 20
10.575751825190487
 10
52.0861048802519377
 20
12.825751825190487
 10
52.0861048802519377
 20
8.3257518251904887
 10
48.3361048802519377
 20
10.575751825190487
 10
48.3361048802519377
 20
10.575751825190487
  0
LINE
  5
59
100
AcDbEntity
100
AcDbLine
  8
INTERNALS
 62
7
370
-1
  6
ByLayer
 10
43.0861048802519093
 20
13.5757518251904834
 30
0.0
 11
55.0861048802519235
 21
13.5757518251904834
 31
0.0
  0
LINE
  5
5A
100
AcDbEntity
100
AcDbLine
  8
INTERNALS
 62
7
370
-1
  6
ByLayer
 10
55.0861048802519235
 20
13.5757518251904834
 30
0.0
 11
55.0861048802519235
 21
10.575751825190487
 31
0.0
  0
LINE
  5
5B
100
AcDbEntity
100
AcDbLine
  8
INTERNALS
 62
7
370
-1
  6
ByLayer
 10
55.0861048802519235
 20
10.575751825190487
 30
0.0
 11
52.0861048802519377
 21
10.575751825190487
 31
0.0
  0
LINE
  5
5C
100
AcDbEntity
100
AcDbLine
  8
INTERNALS
 62
7
370
-1
  6
ByLayer
 10
47.5861048802519235
 20
10.575751825190487
 30
0.0
 11
43.0861048802519093
 21
10.575751825190487
 31
0.0
  0
LWPOLYLINE
  5
5D
  8
INTERNALS
 62
7
370
-1
  6
ByLayer
100
AcDbEntity
100
AcDbPolyline
 90
5
 70
1
 10
58.0861048802519093
 20
12.0757518251904887
 10
62.5861048802519235
 20
14.325751825190487
 10
62.5861048802519235
 20
9.8257518251904834
 10
58.0861048802519093
 20
12.0757518251904887
 10
58.0861048802519093
 20
12.0757518251904887
  0
LINE
  5
5E
100
AcDbEntity
100
AcDbLine
  8
INTERNALS
 62
7
370
-1
  6
ByLayer
 10
58.0861048802519093
 20
12.0757518251904887
 30
0.0
 11
55.0861048802519235
 21
12.0757518251904887
 31
0.0
  0
CIRCLE
  5
5F
100
AcDbEntity
100
AcDbCircle
  8
INTERNALS
 62
7
370
-1
  6
ByLayer
 10
55.0861048802519235
 20
12.0757518251904887
 30
0.0
 40
0.3
  0
LINE
  5
60
100
AcDbEntity
100
AcDbLine
  8
PINS
 62
7
370
-1
  6
ByLayer
 10
23.5861048802519306
 20
1.5757518251904861
 30
0.0
 11
22.0861048802519342
 21
3.0757518251904874
 31
0.0
  0
LINE
  5
61
100
AcDbEntity
100
AcDbLine
  8
PINS
 62
7
370
-1
  6
ByLayer
 10
22.0861048802519342
 20
3.0757518251904874
 30
0.0
 11
23.5861048802519306
 21
4.5757518251904887
 31
0.0
  0
LINE
  5
62
100
AcDbEntity
100
AcDbLine
  8
PINS
 62
7
370
-1
  6
ByLayer
 10
23.5861048802519306
 20
4.5757518251904887
 30
0.0
 11
43.0861048802519093
 21
4.5757518251904887
 31
0.0
  0
LINE
  5
63
100
AcDbEntity
100
AcDbLine
  8
PINS
 62
7
370
-1
  6
ByLayer
 10
43.0861048802519093
 20
4.5757518251904887
 30
0.0
 11
43.0861048802519093
 21
1.5757518251904861
 31
0.0
  0
LINE
  5
64
100
AcDbEntity
100
AcDbLine
  8
PINS
 62
7
370
-1
  6
ByLayer
 10
43.0861048802519093
 20
1.5757518251904861
 30
0.0
 11
23.5861048802519306
 21
1.5757518251904861
 31
0.0
  0
LINE
  5
65
100
AcDbEntity
100
AcDbLine
  8
OUTLINE
 62
7
370
-1
  6
ByLayer
 10
23.5861048802519306
 20
1.5757518251904861
 30
0.0
 11
23.5861048802519306
 21
1.5757518251904861
 31
0.0
  0
LINE
  5
66
100
AcDbEntity
100
AcDbLine
  8
PINS
 62
7
370
-1
  6
ByLayer
 10
23.5861048802519306
 20
4.5757518251904887
 30
0.0
 11
22.0861048802519342
 21
6.0757518251904834
 31
0.0
  0
LINE
  5
67
100
AcDbEntity
100
AcDbLine
  8
PINS
 62
7
370
-1
  6
ByLayer
 10
22.0861048802519342
 20
6.0757518251904834
 30
0.0
 11
23.5861048802519306
 21
7.5757518251904852
 31
0.0
  0
LINE
  5
68
100
AcDbEntity
100
AcDbLine
  8
PINS
 62
7
370
-1
  6
ByLayer
 10
23.5861048802519306
 20
7.5757518251904852
 30
0.0
 11
43.0861048802519093
 21
7.5757518251904852
 31
0.0
  0
LINE
  5
69
100
AcDbEntity
100
AcDbLine
  8
PINS
 62
7
370
-1
  6
ByLayer
 10
43.0861048802519093
 20
7.5757518251904852
 30
0.0
 11
43.0861048802519093
 21
4.5757518251904887
 31
0.0
  0
LINE
  5
6A
100
AcDbEntity
100
AcDbLine
  8
PINS
 62
7
370
-1
  6
ByLayer
 10
43.0861048802519093
 20
4.5757518251904887
 30
0.0
 11
23.5861048802519306
 21
4.5757518251904887
 31
0.0
  0
LINE
  5
6B
100
AcDbEntity
100
AcDbLine
  8
OUTLINE
 62
7
370
-1
  6
ByLayer
 10
23.5861048802519306
 20
4.5757518251904887
 30
0.0
 11
23.5861048802519306
 21
4.5757518251904887
 31
0.0
  0
MTEXT
  5
6C
100
AcDbEntity
100
AcDbMText
  8
PINS
 62
7
370
-1
  6
ByLayer
 10
32.5861048802519235
 20
3.0757518251904874
 30
0.0
 40
1.800
 41
1500.0
 71
5
 72
2
  1
pin-7-in-not
  7
romand
 50
0.0
 73
0
 44
1.0
  0
MTEXT
  5
6D
100
AcDbEntity
100
AcDbMText
  8
PINS
 62
7
370
-1
  6
ByLayer
 10
32.5861048802519235
 20
6.0757518251904834
 30
0.0
 40
1.800
 41
1500.0
 71
5
 72
2
  1
pin-7-in
  7
romand
 50
0.0
 73
0
 44
1.0
  0
CIRCLE
  5
6E
100
AcDbEntity
100
AcDbCircle
  8
INTERNALS
 62
7
370
-1
  6
ByLayer
 10
47.9611048802519306
 20
3.0757518251904874
 30
0.0
 40
0.375
  0
LWPOLYLINE
  5
6F
  8
INTERNALS
 62
7
370
-1
  6
ByLayer
100
AcDbEntity
100
AcDbPolyline
 90
5
 70
1
 10
48.3361048802519377
 20
3.0757518251904874
 10
52.0861048802519377
 20
5.3257518251904861
 10
52.0861048802519377
 20
0.8257518251904887
 10
48.3361048802519377
 20
3.0757518251904874
 10
48.3361048802519377
 20
3.0757518251904874
  0
LINE
  5
70
100
AcDbEntity
100
AcDbLine
  8
INTERNALS
 62
7
370
-1
  6
ByLayer
 10
43.0861048802519093
 20
6.0757518251904834
 30
0.0
 11
55.0861048802519235
 21
6.0757518251904834
 31
0.0
  0
LINE
  5
71
100
AcDbEntity
100
AcDbLine
  8
INTERNALS
 62
7
370
-1
  6
ByLayer
 10
55.0861048802519235
 20
6.0757518251904834
 30
0.0
 11
55.0861048802519235
 21
3.0757518251904874
 31
0.0
  0
LINE
  5
72
100
AcDbEntity
100
AcDbLine
  8
INTERNALS
 62
7
370
-1
  6
ByLayer
 10
55.0861048802519235
 20
3.0757518251904874
 30
0.0
 11
52.0861048802519377
 21
3.0757518251904874
 31
0.0
  0
LINE
  5
73
100
AcDbEntity
100
AcDbLine
  8
INTERNALS
 62
7
370
-1
  6
ByLayer
 10
47.5861048802519235
 20
3.0757518251904874
 30
0.0
 11
43.0861048802519093
 21
3.0757518251904874
 31
0.0
  0
LWPOLYLINE
  5
74
  8
INTERNALS
 62
7
370
-1
  6
ByLayer
100
AcDbEntity
100
AcDbPolyline
 90
5
 70
1
 10
58.0861048802519093
 20
4.5757518251904887
 10
62.5861048802519235
 20
6.825751825190487
 10
62.5861048802519235
 20
2.3257518251904834
 10
58.0861048802519093
 20
4.5757518251904887
 10
58.0861048802519093
 20
4.5757518251904887
  0
LINE
  5
75
100
AcDbEntity
100
AcDbLine
  8
INTERNALS
 62
7
370
-1
  6
ByLayer
 10
58.0861048802519093
 20
4.5757518251904887
 30
0.0
 11
55.0861048802519235
 21
4.5757518251904887
 31
0.0
  0
CIRCLE
  5
76
100
AcDbEntity
100
AcDbCircle
  8
INTERNALS
 62
7
370
-1
  6
ByLayer
 10
55.0861048802519235
 20
4.5757518251904887
 30
0.0
 40
0.3
  0
LINE
  5
77
100
AcDbEntity
100
AcDbLine
  8
PINS
 62
7
370
-1
  6
ByLayer
 10
23.5861048802519306
 20
-5.924248174809513
 30
0.0
 11
22.0861048802519342
 21
-4.424248174809513
 31
0.0
  0
LINE
  5
78
100
AcDbEntity
100
AcDbLine
  8
PINS
 62
7
370
-1
  6
ByLayer
 10
22.0861048802519342
 20
-4.424248174809513
 30
0.0
 11
23.5861048802519306
 21
-2.9242481748095117
 31
0.0
  0
LINE
  5
79
100
AcDbEntity
100
AcDbLine
  8
PINS
 62
7
370
-1
  6
ByLayer
 10
23.5861048802519306
 20
-2.9242481748095117
 30
0.0
 11
43.0861048802519093
 21
-2.9242481748095117
 31
0.0
  0
LINE
  5
7A
100
AcDbEntity
100
AcDbLine
  8
PINS
 62
7
370
-1
  6
ByLayer
 10
43.0861048802519093
 20
-2.9242481748095117
 30
0.0
 11
43.0861048802519093
 21
-5.924248174809513
 31
0.0
  0
LINE
  5
7B
100
AcDbEntity
100
AcDbLine
  8
PINS
 62
7
370
-1
  6
ByLayer
 10
43.0861048802519093
 20
-5.924248174809513
 30
0.0
 11
23.5861048802519306
 21
-5.924248174809513
 31
0.0
  0
LINE
  5
7C
100
AcDbEntity
100
AcDbLine
  8
OUTLINE
 62
7
370
-1
  6
ByLayer
 10
23.5861048802519306
 20
-5.924248174809513
 30
0.0
 11
23.5861048802519306
 21
-5.924248174809513
 31
0.0
  0
LINE
  5
7D
100
AcDbEntity
100
AcDbLine
  8
PINS
 62
7
370
-1
  6
ByLayer
 10
23.5861048802519306
 20
-2.9242481748095117
 30
0.0
 11
22.0861048802519342
 21
-1.424248174809517
 31
0.0
  0
LINE
  5
7E
100
AcDbEntity
100
AcDbLine
  8
PINS
 62
7
370
-1
  6
ByLayer
 10
22.0861048802519342
 20
-1.424248174809517
 30
0.0
 11
23.5861048802519306
 21
0.0757518251904847
 31
0.0
  0
LINE
  5
7F
100
AcDbEntity
100
AcDbLine
  8
PINS
 62
7
370
-1
  6
ByLayer
 10
23.5861048802519306
 20
0.0757518251904847
 30
0.0
 11
43.0861048802519093
 21
0.0757518251904847
 31
0.0
  0
LINE
  5
80
100
AcDbEntity
100
AcDbLine
  8
PINS
 62
7
370
-1
  6
ByLayer
 10
43.0861048802519093
 20
0.0757518251904847
 30
0.0
 11
43.0861048802519093
 21
-2.9242481748095117
 31
0.0
  0
LINE
  5
81
100
AcDbEntity
100
AcDbLine
  8
PINS
 62
7
370
-1
  6
ByLayer
 10
43.0861048802519093
 20
-2.9242481748095117
 30
0.0
 11
23.5861048802519306
 21
-2.9242481748095117
 31
0.0
  0
LINE
  5
82
100
AcDbEntity
100
AcDbLine
  8
OUTLINE
 62
7
370
-1
  6
ByLayer
 10
23.5861048802519306
 20
-2.9242481748095117
 30
0.0
 11
23.5861048802519306
 21
-2.9242481748095117
 31
0.0
  0
MTEXT
  5
83
100
AcDbEntity
100
AcDbMText
  8
PINS
 62
7
370
-1
  6
ByLayer
 10
32.5861048802519235
 20
-4.424248174809513
 30
0.0
 40
1.800
 41
1500.0
 71
5
 72
2
  1
pin-6-in-not
  7
romand
 50
0.0
 73
0
 44
1.0
  0
MTEXT
  5
84
100
AcDbEntity
100
AcDbMText
  8
PINS
 62
7
370
-1
  6
ByLayer
 10
32.5861048802519235
 20
-1.424248174809517
 30
0.0
 40
1.800
 41
1500.0
 71
5
 72
2
  1
pin-6-in
  7
romand
 50
0.0
 73
0
 44
1.0
  0
CIRCLE
  5
85
100
AcDbEntity
100
AcDbCircle
  8
INTERNALS
 62
7
370
-1
  6
ByLayer
 10
47.9611048802519306
 20
-4.424248174809513
 30
0.0
 40
0.375
  0
LWPOLYLINE
  5
86
  8
INTERNALS
 62
7
370
-1
  6
ByLayer
100
AcDbEntity
100
AcDbPolyline
 90
5
 70
1
 10
48.3361048802519377
 20
-4.424248174809513
 10
52.0861048802519377
 20
-2.1742481748095135
 10
52.0861048802519377
 20
-6.6742481748095113
 10
48.3361048802519377
 20
-4.424248174809513
 10
48.3361048802519377
 20
-4.424248174809513
  0
LINE
  5
87
100
AcDbEntity
100
AcDbLine
  8
INTERNALS
 62
7
370
-1
  6
ByLayer
 10
43.0861048802519093
 20
-1.424248174809517
 30
0.0
 11
55.0861048802519235
 21
-1.424248174809517
 31
0.0
  0
LINE
  5
88
100
AcDbEntity
100
AcDbLine
  8
INTERNALS
 62
7
370
-1
  6
ByLayer
 10
55.0861048802519235
 20
-1.424248174809517
 30
0.0
 11
55.0861048802519235
 21
-4.424248174809513
 31
0.0
  0
LINE
  5
89
100
AcDbEntity
100
AcDbLine
  8
INTERNALS
 62
7
370
-1
  6
ByLayer
 10
55.0861048802519235
 20
-4.424248174809513
 30
0.0
 11
52.0861048802519377
 21
-4.424248174809513
 31
0.0
  0
LINE
  5
8A
100
AcDbEntity
100
AcDbLine
  8
INTERNALS
 62
7
370
-1
  6
ByLayer
 10
47.5861048802519235
 20
-4.424248174809513
 30
0.0
 11
43.0861048802519093
 21
-4.424248174809513
 31
0.0
  0
LWPOLYLINE
  5
8B
  8
INTERNALS
 62
7
370
-1
  6
ByLayer
100
AcDbEntity
100
AcDbPolyline
 90
5
 70
1
 10
58.0861048802519093
 20
-2.9242481748095117
 10
62.5861048802519235
 20
-0.6742481748095126
 10
62.5861048802519235
 20
-5.1742481748095166
 10
58.0861048802519093
 20
-2.9242481748095117
 10
58.0861048802519093
 20
-2.9242481748095117
  0
LINE
  5
8C
100
AcDbEntity
100
AcDbLine
  8
INTERNALS
 62
7
370
-1
  6
ByLayer
 10
58.0861048802519093
 20
-2.9242481748095117
 30
0.0
 11
55.0861048802519235
 21
-2.9242481748095117
 31
0.0
  0
CIRCLE
  5
8D
100
AcDbEntity
100
AcDbCircle
  8
INTERNALS
 62
7
370
-1
  6
ByLayer
 10
55.0861048802519235
 20
-2.9242481748095117
 30
0.0
 40
0.3
  0
LINE
  5
8E
100
AcDbEntity
100
AcDbLine
  8
PINS
 62
7
370
-1
  6
ByLayer
 10
23.5861048802519306
 20
-13.424248174809513
 30
0.0
 11
22.0861048802519342
 21
-11.924248174809513
 31
0.0
  0
LINE
  5
8F
100
AcDbEntity
100
AcDbLine
  8
PINS
 62
7
370
-1
  6
ByLayer
 10
22.0861048802519342
 20
-11.924248174809513
 30
0.0
 11
23.5861048802519306
 21
-10.4242481748095113
 31
0.0
  0
LINE
  5
90
100
AcDbEntity
100
AcDbLine
  8
PINS
 62
7
370
-1
  6
ByLayer
 10
23.5861048802519306
 20
-10.4242481748095113
 30
0.0
 11
43.0861048802519093
 21
-10.4242481748095113
 31
0.0
  0
LINE
  5
91
100
AcDbEntity
100
AcDbLine
  8
PINS
 62
7
370
-1
  6
ByLayer
 10
43.0861048802519093
 20
-10.4242481748095113
 30
0.0
 11
43.0861048802519093
 21
-13.424248174809513
 31
0.0
  0
LINE
  5
92
100
AcDbEntity
100
AcDbLine
  8
PINS
 62
7
370
-1
  6
ByLayer
 10
43.0861048802519093
 20
-13.424248174809513
 30
0.0
 11
23.5861048802519306
 21
-13.424248174809513
 31
0.0
  0
LINE
  5
93
100
AcDbEntity
100
AcDbLine
  8
OUTLINE
 62
7
370
-1
  6
ByLayer
 10
23.5861048802519306
 20
-13.424248174809513
 30
0.0
 11
23.5861048802519306
 21
-13.424248174809513
 31
0.0
  0
LINE
  5
94
100
AcDbEntity
100
AcDbLine
  8
PINS
 62
7
370
-1
  6
ByLayer
 10
23.5861048802519306
 20
-10.4242481748095113
 30
0.0
 11
22.0861048802519342
 21
-8.9242481748095166
 31
0.0
  0
LINE
  5
95
100
AcDbEntity
100
AcDbLine
  8
PINS
 62
7
370
-1
  6
ByLayer
 10
22.0861048802519342
 20
-8.9242481748095166
 30
0.0
 11
23.5861048802519306
 21
-7.4242481748095148
 31
0.0
  0
LINE
  5
96
100
AcDbEntity
100
AcDbLine
  8
PINS
 62
7
370
-1
  6
ByLayer
 10
23.5861048802519306
 20
-7.4242481748095148
 30
0.0
 11
43.0861048802519093
 21
-7.4242481748095148
 31
0.0
  0
LINE
  5
97
100
AcDbEntity
100
AcDbLine
  8
PINS
 62
7
370
-1
  6
ByLayer
 10
43.0861048802519093
 20
-7.4242481748095148
 30
0.0
 11
43.0861048802519093
 21
-10.4242481748095113
 31
0.0
  0
LINE
  5
98
100
AcDbEntity
100
AcDbLine
  8
PINS
 62
7
370
-1
  6
ByLayer
 10
43.0861048802519093
 20
-10.4242481748095113
 30
0.0
 11
23.5861048802519306
 21
-10.4242481748095113
 31
0.0
  0
LINE
  5
99
100
AcDbEntity
100
AcDbLine
  8
OUTLINE
 62
7
370
-1
  6
ByLayer
 10
23.5861048802519306
 20
-10.4242481748095113
 30
0.0
 11
23.5861048802519306
 21
-10.4242481748095113
 31
0.0
  0
MTEXT
  5
9A
100
AcDbEntity
100
AcDbMText
  8
PINS
 62
7
370
-1
  6
ByLayer
 10
32.5861048802519235
 20
-11.924248174809513
 30
0.0
 40
1.800
 41
1500.0
 71
5
 72
2
  1
pin-5-in-not
  7
romand
 50
0.0
 73
0
 44
1.0
  0
MTEXT
  5
9B
100
AcDbEntity
100
AcDbMText
  8
PINS
 62
7
370
-1
  6
ByLayer
 10
32.5861048802519235
 20
-8.9242481748095166
 30
0.0
 40
1.800
 41
1500.0
 71
5
 72
2
  1
pin-5-in
  7
romand
 50
0.0
 73
0
 44
1.0
  0
CIRCLE
  5
9C
100
AcDbEntity
100
AcDbCircle
  8
INTERNALS
 62
7
370
-1
  6
ByLayer
 10
47.9611048802519306
 20
-11.924248174809513
 30
0.0
 40
0.375
  0
LWPOLYLINE
  5
9D
  8
INTERNALS
 62
7
370
-1
  6
ByLayer
100
AcDbEntity
100
AcDbPolyline
 90
5
 70
1
 10
48.3361048802519377
 20
-11.924248174809513
 10
52.0861048802519377
 20
-9.674248174809513
 10
52.0861048802519377
 20
-14.174248174809513
 10
48.3361048802519377
 20
-11.924248174809513
 10
48.3361048802519377
 20
-11.924248174809513
  0
LINE
  5
9E
100
AcDbEntity
100
AcDbLine
  8
INTERNALS
 62
7
370
-1
  6
ByLayer
 10
43.0861048802519093
 20
-8.9242481748095166
 30
0.0
 11
55.0861048802519235
 21
-8.9242481748095166
 31
0.0
  0
LINE
  5
9F
100
AcDbEntity
100
AcDbLine
  8
INTERNALS
 62
7
370
-1
  6
ByLayer
 10
55.0861048802519235
 20
-8.9242481748095166
 30
0.0
 11
55.0861048802519235
 21
-11.924248174809513
 31
0.0
  0
LINE
  5
A0
100
AcDbEntity
100
AcDbLine
  8
INTERNALS
 62
7
370
-1
  6
ByLayer
 10
55.0861048802519235
 20
-11.924248174809513
 30
0.0
 11
52.0861048802519377
 21
-11.924248174809513
 31
0.0
  0
LINE
  5
A1
100
AcDbEntity
100
AcDbLine
  8
INTERNALS
 62
7
370
-1
  6
ByLayer
 10
47.5861048802519235
 20
-11.924248174809513
 30
0.0
 11
43.0861048802519093
 21
-11.924248174809513
 31
0.0
  0
LWPOLYLINE
  5
A2
  8
INTERNALS
 62
7
370
-1
  6
ByLayer
100
AcDbEntity
100
AcDbPolyline
 90
5
 70
1
 10
58.0861048802519093
 20
-10.4242481748095113
 10
62.5861048802519235
 20
-8.174248174809513
 10
62.5861048802519235
 20
-12.6742481748095166
 10
58.0861048802519093
 20
-10.4242481748095113
 10
58.0861048802519093
 20
-10.4242481748095113
  0
LINE
  5
A3
100
AcDbEntity
100
AcDbLine
  8
INTERNALS
 62
7
370
-1
  6
ByLayer
 10
58.0861048802519093
 20
-10.4242481748095113
 30
0.0
 11
55.0861048802519235
 21
-10.4242481748095113
 31
0.0
  0
CIRCLE
  5
A4
100
AcDbEntity
100
AcDbCircle
  8
INTERNALS
 62
7
370
-1
  6
ByLayer
 10
55.0861048802519235
 20
-10.4242481748095113
 30
0.0
 40
0.3
  0
LINE
  5
A5
100
AcDbEntity
100
AcDbLine
  8
PINS
 62
7
370
-1
  6
ByLayer
 10
23.5861048802519306
 20
-20.924248174809513
 30
0.0
 11
22.0861048802519342
 21
-19.424248174809513
 31
0.0
  0
LINE
  5
A6
100
AcDbEntity
100
AcDbLine
  8
PINS
 62
7
370
-1
  6
ByLayer
 10
22.0861048802519342
 20
-19.424248174809513
 30
0.0
 11
23.5861048802519306
 21
-17.924248174809513
 31
0.0
  0
LINE
  5
A7
100
AcDbEntity
100
AcDbLine
  8
PINS
 62
7
370
-1
  6
ByLayer
 10
23.5861048802519306
 20
-17.924248174809513
 30
0.0
 11
43.0861048802519093
 21
-17.924248174809513
 31
0.0
  0
LINE
  5
A8
100
AcDbEntity
100
AcDbLine
  8
PINS
 62
7
370
-1
  6
ByLayer
 10
43.0861048802519093
 20
-17.924248174809513
 30
0.0
 11
43.0861048802519093
 21
-20.924248174809513
 31
0.0
  0
LINE
  5
A9
100
AcDbEntity
100
AcDbLine
  8
PINS
 62
7
370
-1
  6
ByLayer
 10
43.0861048802519093
 20
-20.924248174809513
 30
0.0
 11
23.5861048802519306
 21
-20.924248174809513
 31
0.0
  0
LINE
  5
AA
100
AcDbEntity
100
AcDbLine
  8
OUTLINE
 62
7
370
-1
  6
ByLayer
 10
23.5861048802519306
 20
-20.924248174809513
 30
0.0
 11
23.5861048802519306
 21
-20.924248174809513
 31
0.0
  0
LINE
  5
AB
100
AcDbEntity
100
AcDbLine
  8
PINS
 62
7
370
-1
  6
ByLayer
 10
23.5861048802519306
 20
-17.924248174809513
 30
0.0
 11
22.0861048802519342
 21
-16.424248174809513
 31
0.0
  0
LINE
  5
AC
100
AcDbEntity
100
AcDbLine
  8
PINS
 62
7
370
-1
  6
ByLayer
 10
22.0861048802519342
 20
-16.424248174809513
 30
0.0
 11
23.5861048802519306
 21
-14.924248174809513
 31
0.0
  0
LINE
  5
AD
100
AcDbEntity
100
AcDbLine
  8
PINS
 62
7
370
-1
  6
ByLayer
 10
23.5861048802519306
 20
-14.924248174809513
 30
0.0
 11
43.0861048802519093
 21
-14.924248174809513
 31
0.0
  0
LINE
  5
AE
100
AcDbEntity
100
AcDbLine
  8
PINS
 62
7
370
-1
  6
ByLayer
 10
43.0861048802519093
 20
-14.924248174809513
 30
0.0
 11
43.0861048802519093
 21
-17.924248174809513
 31
0.0
  0
LINE
  5
AF
100
AcDbEntity
100
AcDbLine
  8
PINS
 62
7
370
-1
  6
ByLayer
 10
43.0861048802519093
 20
-17.924248174809513
 30
0.0
 11
23.5861048802519306
 21
-17.924248174809513
 31
0.0
  0
LINE
  5
B0
100
AcDbEntity
100
AcDbLine
  8
OUTLINE
 62
7
370
-1
  6
ByLayer
 10
23.5861048802519306
 20
-17.924248174809513
 30
0.0
 11
23.5861048802519306
 21
-17.924248174809513
 31
0.0
  0
MTEXT
  5
B1
100
AcDbEntity
100
AcDbMText
  8
PINS
 62
7
370
-1
  6
ByLayer
 10
32.5861048802519235
 20
-19.424248174809513
 30
0.0
 40
1.800
 41
1500.0
 71
5
 72
2
  1
pin-4-in-not
  7
romand
 50
0.0
 73
0
 44
1.0
  0
MTEXT
  5
B2
100
AcDbEntity
100
AcDbMText
  8
PINS
 62
7
370
-1
  6
ByLayer
 10
32.5861048802519235
 20
-16.424248174809513
 30
0.0
 40
1.800
 41
1500.0
 71
5
 72
2
  1
pin-4-in
  7
romand
 50
0.0
 73
0
 44
1.0
  0
CIRCLE
  5
B3
100
AcDbEntity
100
AcDbCircle
  8
INTERNALS
 62
7
370
-1
  6
ByLayer
 10
47.9611048802519306
 20
-19.424248174809513
 30
0.0
 40
0.375
  0
LWPOLYLINE
  5
B4
  8
INTERNALS
 62
7
370
-1
  6
ByLayer
100
AcDbEntity
100
AcDbPolyline
 90
5
 70
1
 10
48.3361048802519377
 20
-19.424248174809513
 10
52.0861048802519377
 20
-17.174248174809513
 10
52.0861048802519377
 20
-21.674248174809513
 10
48.3361048802519377
 20
-19.424248174809513
 10
48.3361048802519377
 20
-19.424248174809513
  0
LINE
  5
B5
100
AcDbEntity
100
AcDbLine
  8
INTERNALS
 62
7
370
-1
  6
ByLayer
 10
43.0861048802519093
 20
-16.424248174809513
 30
0.0
 11
55.0861048802519235
 21
-16.424248174809513
 31
0.0
  0
LINE
  5
B6
100
AcDbEntity
100
AcDbLine
  8
INTERNALS
 62
7
370
-1
  6
ByLayer
 10
55.0861048802519235
 20
-16.424248174809513
 30
0.0
 11
55.0861048802519235
 21
-19.424248174809513
 31
0.0
  0
LINE
  5
B7
100
AcDbEntity
100
AcDbLine
  8
INTERNALS
 62
7
370
-1
  6
ByLayer
 10
55.0861048802519235
 20
-19.424248174809513
 30
0.0
 11
52.0861048802519377
 21
-19.424248174809513
 31
0.0
  0
LINE
  5
B8
100
AcDbEntity
100
AcDbLine
  8
INTERNALS
 62
7
370
-1
  6
ByLayer
 10
47.5861048802519235
 20
-19.424248174809513
 30
0.0
 11
43.0861048802519093
 21
-19.424248174809513
 31
0.0
  0
LWPOLYLINE
  5
B9
  8
INTERNALS
 62
7
370
-1
  6
ByLayer
100
AcDbEntity
100
AcDbPolyline
 90
5
 70
1
 10
58.0861048802519093
 20
-17.924248174809513
 10
62.5861048802519235
 20
-15.674248174809513
 10
62.5861048802519235
 20
-20.174248174809513
 10
58.0861048802519093
 20
-17.924248174809513
 10
58.0861048802519093
 20
-17.924248174809513
  0
LINE
  5
BA
100
AcDbEntity
100
AcDbLine
  8
INTERNALS
 62
7
370
-1
  6
ByLayer
 10
58.0861048802519093
 20
-17.924248174809513
 30
0.0
 11
55.0861048802519235
 21
-17.924248174809513
 31
0.0
  0
CIRCLE
  5
BB
100
AcDbEntity
100
AcDbCircle
  8
INTERNALS
 62
7
370
-1
  6
ByLayer
 10
55.0861048802519235
 20
-17.924248174809513
 30
0.0
 40
0.3
  0
LINE
  5
BC
100
AcDbEntity
100
AcDbLine
  8
PINS
 62
7
370
-1
  6
ByLayer
 10
23.5861048802519306
 20
-28.424248174809513
 30
0.0
 11
22.0861048802519342
 21
-26.924248174809513
 31
0.0
  0
LINE
  5
BD
100
AcDbEntity
100
AcDbLine
  8
PINS
 62
7
370
-1
  6
ByLayer
 10
22.0861048802519342
 20
-26.924248174809513
 30
0.0
 11
23.5861048802519306
 21
-25.424248174809513
 31
0.0
  0
LINE
  5
BE
100
AcDbEntity
100
AcDbLine
  8
PINS
 62
7
370
-1
  6
ByLayer
 10
23.5861048802519306
 20
-25.424248174809513
 30
0.0
 11
43.0861048802519093
 21
-25.424248174809513
 31
0.0
  0
LINE
  5
BF
100
AcDbEntity
100
AcDbLine
  8
PINS
 62
7
370
-1
  6
ByLayer
 10
43.0861048802519093
 20
-25.424248174809513
 30
0.0
 11
43.0861048802519093
 21
-28.424248174809513
 31
0.0
  0
LINE
  5
C0
100
AcDbEntity
100
AcDbLine
  8
PINS
 62
7
370
-1
  6
ByLayer
 10
43.0861048802519093
 20
-28.424248174809513
 30
0.0
 11
23.5861048802519306
 21
-28.424248174809513
 31
0.0
  0
LINE
  5
C1
100
AcDbEntity
100
AcDbLine
  8
OUTLINE
 62
7
370
-1
  6
ByLayer
 10
23.5861048802519306
 20
-28.424248174809513
 30
0.0
 11
23.5861048802519306
 21
-28.424248174809513
 31
0.0
  0
LINE
  5
C2
100
AcDbEntity
100
AcDbLine
  8
PINS
 62
7
370
-1
  6
ByLayer
 10
23.5861048802519306
 20
-25.424248174809513
 30
0.0
 11
22.0861048802519342
 21
-23.924248174809513
 31
0.0
  0
LINE
  5
C3
100
AcDbEntity
100
AcDbLine
  8
PINS
 62
7
370
-1
  6
ByLayer
 10
22.0861048802519342
 20
-23.924248174809513
 30
0.0
 11
23.5861048802519306
 21
-22.424248174809513
 31
0.0
  0
LINE
  5
C4
100
AcDbEntity
100
AcDbLine
  8
PINS
 62
7
370
-1
  6
ByLayer
 10
23.5861048802519306
 20
-22.424248174809513
 30
0.0
 11
43.0861048802519093
 21
-22.424248174809513
 31
0.0
  0
LINE
  5
C5
100
AcDbEntity
100
AcDbLine
  8
PINS
 62
7
370
-1
  6
ByLayer
 10
43.0861048802519093
 20
-22.424248174809513
 30
0.0
 11
43.0861048802519093
 21
-25.424248174809513
 31
0.0
  0
LINE
  5
C6
100
AcDbEntity
100
AcDbLine
  8
PINS
 62
7
370
-1
  6
ByLayer
 10
43.0861048802519093
 20
-25.424248174809513
 30
0.0
 11
23.5861048802519306
 21
-25.424248174809513
 31
0.0
  0
LINE
  5
C7
100
AcDbEntity
100
AcDbLine
  8
OUTLINE
 62
7
370
-1
  6
ByLayer
 10
23.5861048802519306
 20
-25.424248174809513
 30
0.0
 11
23.5861048802519306
 21
-25.424248174809513
 31
0.0
  0
MTEXT
  5
C8
100
AcDbEntity
100
AcDbMText
  8
PINS
 62
7
370
-1
  6
ByLayer
 10
32.5861048802519235
 20
-26.924248174809513
 30
0.0
 40
1.800
 41
1500.0
 71
5
 72
2
  1
pin-3-in-not
  7
romand
 50
0.0
 73
0
 44
1.0
  0
MTEXT
  5
C9
100
AcDbEntity
100
AcDbMText
  8
PINS
 62
7
370
-1
  6
ByLayer
 10
32.5861048802519235
 20
-23.924248174809513
 30
0.0
 40
1.800
 41
1500.0
 71
5
 72
2
  1
pin-3-in
  7
romand
 50
0.0
 73
0
 44
1.0
  0
CIRCLE
  5
CA
100
AcDbEntity
100
AcDbCircle
  8
INTERNALS
 62
7
370
-1
  6
ByLayer
 10
47.9611048802519306
 20
-26.924248174809513
 30
0.0
 40
0.375
  0
LWPOLYLINE
  5
CB
  8
INTERNALS
 62
7
370
-1
  6
ByLayer
100
AcDbEntity
100
AcDbPolyline
 90
5
 70
1
 10
48.3361048802519377
 20
-26.924248174809513
 10
52.0861048802519377
 20
-24.674248174809513
 10
52.0861048802519377
 20
-29.1742481748095202
 10
48.3361048802519377
 20
-26.924248174809513
 10
48.3361048802519377
 20
-26.924248174809513
  0
LINE
  5
CC
100
AcDbEntity
100
AcDbLine
  8
INTERNALS
 62
7
370
-1
  6
ByLayer
 10
43.0861048802519093
 20
-23.924248174809513
 30
0.0
 11
55.0861048802519235
 21
-23.924248174809513
 31
0.0
  0
LINE
  5
CD
100
AcDbEntity
100
AcDbLine
  8
INTERNALS
 62
7
370
-1
  6
ByLayer
 10
55.0861048802519235
 20
-23.924248174809513
 30
0.0
 11
55.0861048802519235
 21
-26.924248174809513
 31
0.0
  0
LINE
  5
CE
100
AcDbEntity
100
AcDbLine
  8
INTERNALS
 62
7
370
-1
  6
ByLayer
 10
55.0861048802519235
 20
-26.924248174809513
 30
0.0
 11
52.0861048802519377
 21
-26.924248174809513
 31
0.0
  0
LINE
  5
CF
100
AcDbEntity
100
AcDbLine
  8
INTERNALS
 62
7
370
-1
  6
ByLayer
 10
47.5861048802519235
 20
-26.924248174809513
 30
0.0
 11
43.0861048802519093
 21
-26.924248174809513
 31
0.0
  0
LWPOLYLINE
  5
D0
  8
INTERNALS
 62
7
370
-1
  6
ByLayer
100
AcDbEntity
100
AcDbPolyline
 90
5
 70
1
 10
58.0861048802519093
 20
-25.424248174809513
 10
62.5861048802519235
 20
-23.174248174809513
 10
62.5861048802519235
 20
-27.6742481748095095
 10
58.0861048802519093
 20
-25.424248174809513
 10
58.0861048802519093
 20
-25.424248174809513
  0
LINE
  5
D1
100
AcDbEntity
100
AcDbLine
  8
INTERNALS
 62
7
370
-1
  6
ByLayer
 10
58.0861048802519093
 20
-25.424248174809513
 30
0.0
 11
55.0861048802519235
 21
-25.424248174809513
 31
0.0
  0
CIRCLE
  5
D2
100
AcDbEntity
100
AcDbCircle
  8
INTERNALS
 62
7
370
-1
  6
ByLayer
 10
55.0861048802519235
 20
-25.424248174809513
 30
0.0
 40
0.3
  0
LINE
  5
D3
100
AcDbEntity
100
AcDbLine
  8
PINS
 62
7
370
-1
  6
ByLayer
 10
23.5861048802519306
 20
-35.924248174809513
 30
0.0
 11
22.0861048802519342
 21
-34.424248174809513
 31
0.0
  0
LINE
  5
D4
100
AcDbEntity
100
AcDbLine
  8
PINS
 62
7
370
-1
  6
ByLayer
 10
22.0861048802519342
 20
-34.424248174809513
 30
0.0
 11
23.5861048802519306
 21
-32.9242481748095202
 31
0.0
  0
LINE
  5
D5
100
AcDbEntity
100
AcDbLine
  8
PINS
 62
7
370
-1
  6
ByLayer
 10
23.5861048802519306
 20
-32.9242481748095202
 30
0.0
 11
43.0861048802519093
 21
-32.9242481748095202
 31
0.0
  0
LINE
  5
D6
100
AcDbEntity
100
AcDbLine
  8
PINS
 62
7
370
-1
  6
ByLayer
 10
43.0861048802519093
 20
-32.9242481748095202
 30
0.0
 11
43.0861048802519093
 21
-35.924248174809513
 31
0.0
  0
LINE
  5
D7
100
AcDbEntity
100
AcDbLine
  8
PINS
 62
7
370
-1
  6
ByLayer
 10
43.0861048802519093
 20
-35.924248174809513
 30
0.0
 11
23.5861048802519306
 21
-35.924248174809513
 31
0.0
  0
LINE
  5
D8
100
AcDbEntity
100
AcDbLine
  8
OUTLINE
 62
7
370
-1
  6
ByLayer
 10
23.5861048802519306
 20
-35.924248174809513
 30
0.0
 11
23.5861048802519306
 21
-35.924248174809513
 31
0.0
  0
LINE
  5
D9
100
AcDbEntity
100
AcDbLine
  8
PINS
 62
7
370
-1
  6
ByLayer
 10
23.5861048802519306
 20
-32.9242481748095202
 30
0.0
 11
22.0861048802519342
 21
-31.4242481748095059
 31
0.0
  0
LINE
  5
DA
100
AcDbEntity
100
AcDbLine
  8
PINS
 62
7
370
-1
  6
ByLayer
 10
22.0861048802519342
 20
-31.4242481748095059
 30
0.0
 11
23.5861048802519306
 21
-29.924248174809513
 31
0.0
  0
LINE
  5
DB
100
AcDbEntity
100
AcDbLine
  8
PINS
 62
7
370
-1
  6
ByLayer
 10
23.5861048802519306
 20
-29.924248174809513
 30
0.0
 11
43.0861048802519093
 21
-29.924248174809513
 31
0.0
  0
LINE
  5
DC
100
AcDbEntity
100
AcDbLine
  8
PINS
 62
7
370
-1
  6
ByLayer
 10
43.0861048802519093
 20
-29.924248174809513
 30
0.0
 11
43.0861048802519093
 21
-32.9242481748095202
 31
0.0
  0
LINE
  5
DD
100
AcDbEntity
100
AcDbLine
  8
PINS
 62
7
370
-1
  6
ByLayer
 10
43.0861048802519093
 20
-32.9242481748095202
 30
0.0
 11
23.5861048802519306
 21
-32.9242481748095202
 31
0.0
  0
LINE
  5
DE
100
AcDbEntity
100
AcDbLine
  8
OUTLINE
 62
7
370
-1
  6
ByLayer
 10
23.5861048802519306
 20
-32.9242481748095202
 30
0.0
 11
23.5861048802519306
 21
-32.9242481748095202
 31
0.0
  0
MTEXT
  5
DF
100
AcDbEntity
100
AcDbMText
  8
PINS
 62
7
370
-1
  6
ByLayer
 10
32.5861048802519235
 20
-34.424248174809513
 30
0.0
 40
1.800
 41
1500.0
 71
5
 72
2
  1
pin-2-in-not
  7
romand
 50
0.0
 73
0
 44
1.0
  0
MTEXT
  5
E0
100
AcDbEntity
100
AcDbMText
  8
PINS
 62
7
370
-1
  6
ByLayer
 10
32.5861048802519235
 20
-31.4242481748095059
 30
0.0
 40
1.800
 41
1500.0
 71
5
 72
2
  1
pin-2-in
  7
romand
 50
0.0
 73
0
 44
1.0
  0
CIRCLE
  5
E1
100
AcDbEntity
100
AcDbCircle
  8
INTERNALS
 62
7
370
-1
  6
ByLayer
 10
47.9611048802519306
 20
-34.424248174809513
 30
0.0
 40
0.375
  0
LWPOLYLINE
  5
E2
  8
INTERNALS
 62
7
370
-1
  6
ByLayer
100
AcDbEntity
100
AcDbPolyline
 90
5
 70
1
 10
48.3361048802519377
 20
-34.424248174809513
 10
52.0861048802519377
 20
-32.174248174809513
 10
52.0861048802519377
 20
-36.674248174809513
 10
48.3361048802519377
 20
-34.424248174809513
 10
48.3361048802519377
 20
-34.424248174809513
  0
LINE
  5
E3
100
AcDbEntity
100
AcDbLine
  8
INTERNALS
 62
7
370
-1
  6
ByLayer
 10
43.0861048802519093
 20
-31.4242481748095059
 30
0.0
 11
55.0861048802519235
 21
-31.4242481748095059
 31
0.0
  0
LINE
  5
E4
100
AcDbEntity
100
AcDbLine
  8
INTERNALS
 62
7
370
-1
  6
ByLayer
 10
55.0861048802519235
 20
-31.4242481748095059
 30
0.0
 11
55.0861048802519235
 21
-34.424248174809513
 31
0.0
  0
LINE
  5
E5
100
AcDbEntity
100
AcDbLine
  8
INTERNALS
 62
7
370
-1
  6
ByLayer
 10
55.0861048802519235
 20
-34.424248174809513
 30
0.0
 11
52.0861048802519377
 21
-34.424248174809513
 31
0.0
  0
LINE
  5
E6
100
AcDbEntity
100
AcDbLine
  8
INTERNALS
 62
7
370
-1
  6
ByLayer
 10
47.5861048802519235
 20
-34.424248174809513
 30
0.0
 11
43.0861048802519093
 21
-34.424248174809513
 31
0.0
  0
LWPOLYLINE
  5
E7
  8
INTERNALS
 62
7
370
-1
  6
ByLayer
100
AcDbEntity
100
AcDbPolyline
 90
5
 70
1
 10
58.0861048802519093
 20
-32.9242481748095202
 10
62.5861048802519235
 20
-30.674248174809513
 10
62.5861048802519235
 20
-35.1742481748095059
 10
58.0861048802519093
 20
-32.9242481748095202
 10
58.0861048802519093
 20
-32.9242481748095202
  0
LINE
  5
E8
100
AcDbEntity
100
AcDbLine
  8
INTERNALS
 62
7
370
-1
  6
ByLayer
 10
58.0861048802519093
 20
-32.9242481748095202
 30
0.0
 11
55.0861048802519235
 21
-32.9242481748095202
 31
0.0
  0
CIRCLE
  5
E9
100
AcDbEntity
100
AcDbCircle
  8
INTERNALS
 62
7
370
-1
  6
ByLayer
 10
55.0861048802519235
 20
-32.9242481748095202
 30
0.0
 40
0.3
  0
LINE
  5
EA
100
AcDbEntity
100
AcDbLine
  8
PINS
 62
7
370
-1
  6
ByLayer
 10
23.5861048802519306
 20
16.575751825190487
 30
0.0
 11
22.0861048802519342
 21
18.0757518251904798
 31
0.0
  0
LINE
  5
EB
100
AcDbEntity
100
AcDbLine
  8
PINS
 62
7
370
-1
  6
ByLayer
 10
22.0861048802519342
 20
18.0757518251904798
 30
0.0
 11
23.5861048802519306
 21
19.5757518251904905
 31
0.0
  0
LINE
  5
EC
100
AcDbEntity
100
AcDbLine
  8
PINS
 62
7
370
-1
  6
ByLayer
 10
23.5861048802519306
 20
19.5757518251904905
 30
0.0
 11
43.0861048802519093
 21
19.5757518251904905
 31
0.0
  0
LINE
  5
ED
100
AcDbEntity
100
AcDbLine
  8
PINS
 62
7
370
-1
  6
ByLayer
 10
43.0861048802519093
 20
19.5757518251904905
 30
0.0
 11
43.0861048802519093
 21
16.575751825190487
 31
0.0
  0
LINE
  5
EE
100
AcDbEntity
100
AcDbLine
  8
PINS
 62
7
370
-1
  6
ByLayer
 10
43.0861048802519093
 20
16.575751825190487
 30
0.0
 11
23.5861048802519306
 21
16.575751825190487
 31
0.0
  0
LINE
  5
EF
100
AcDbEntity
100
AcDbLine
  8
OUTLINE
 62
7
370
-1
  6
ByLayer
 10
23.5861048802519306
 20
16.575751825190487
 30
0.0
 11
23.5861048802519306
 21
16.575751825190487
 31
0.0
  0
LINE
  5
F0
100
AcDbEntity
100
AcDbLine
  8
PINS
 62
7
370
-1
  6
ByLayer
 10
23.5861048802519306
 20
19.5757518251904905
 30
0.0
 11
22.0861048802519342
 21
21.0757518251904834
 31
0.0
  0
LINE
  5
F1
100
AcDbEntity
100
AcDbLine
  8
PINS
 62
7
370
-1
  6
ByLayer
 10
22.0861048802519342
 20
21.0757518251904834
 30
0.0
 11
23.5861048802519306
 21
22.5757518251904905
 31
0.0
  0
LINE
  5
F2
100
AcDbEntity
100
AcDbLine
  8
PINS
 62
7
370
-1
  6
ByLayer
 10
23.5861048802519306
 20
22.5757518251904905
 30
0.0
 11
43.0861048802519093
 21
22.5757518251904905
 31
0.0
  0
LINE
  5
F3
100
AcDbEntity
100
AcDbLine
  8
PINS
 62
7
370
-1
  6
ByLayer
 10
43.0861048802519093
 20
22.5757518251904905
 30
0.0
 11
43.0861048802519093
 21
19.5757518251904905
 31
0.0
  0
LINE
  5
F4
100
AcDbEntity
100
AcDbLine
  8
PINS
 62
7
370
-1
  6
ByLayer
 10
43.0861048802519093
 20
19.5757518251904905
 30
0.0
 11
23.5861048802519306
 21
19.5757518251904905
 31
0.0
  0
LINE
  5
F5
100
AcDbEntity
100
AcDbLine
  8
OUTLINE
 62
7
370
-1
  6
ByLayer
 10
23.5861048802519306
 20
19.5757518251904905
 30
0.0
 11
23.5861048802519306
 21
19.5757518251904905
 31
0.0
  0
MTEXT
  5
F6
100
AcDbEntity
100
AcDbMText
  8
PINS
 62
7
370
-1
  6
ByLayer
 10
32.5861048802519235
 20
18.0757518251904798
 30
0.0
 40
1.800
 41
1500.0
 71
5
 72
2
  1
pin-9-in-not
  7
romand
 50
0.0
 73
0
 44
1.0
  0
MTEXT
  5
F7
100
AcDbEntity
100
AcDbMText
  8
PINS
 62
7
370
-1
  6
ByLayer
 10
32.5861048802519235
 20
21.0757518251904834
 30
0.0
 40
1.800
 41
1500.0
 71
5
 72
2
  1
pin-9-in
  7
romand
 50
0.0
 73
0
 44
1.0
  0
CIRCLE
  5
F8
100
AcDbEntity
100
AcDbCircle
  8
INTERNALS
 62
7
370
-1
  6
ByLayer
 10
47.9611048802519306
 20
18.0757518251904798
 30
0.0
 40
0.375
  0
LWPOLYLINE
  5
F9
  8
INTERNALS
 62
7
370
-1
  6
ByLayer
100
AcDbEntity
100
AcDbPolyline
 90
5
 70
1
 10
48.3361048802519377
 20
18.0757518251904798
 10
52.0861048802519377
 20
20.325751825190487
 10
52.0861048802519377
 20
15.8257518251904887
 10
48.3361048802519377
 20
18.0757518251904798
 10
48.3361048802519377
 20
18.0757518251904798
  0
LINE
  5
FA
100
AcDbEntity
100
AcDbLine
  8
INTERNALS
 62
7
370
-1
  6
ByLayer
 10
43.0861048802519093
 20
21.0757518251904834
 30
0.0
 11
55.0861048802519235
 21
21.0757518251904834
 31
0.0
  0
LINE
  5
FB
100
AcDbEntity
100
AcDbLine
  8
INTERNALS
 62
7
370
-1
  6
ByLayer
 10
55.0861048802519235
 20
21.0757518251904834
 30
0.0
 11
55.0861048802519235
 21
18.0757518251904798
 31
0.0
  0
LINE
  5
FC
100
AcDbEntity
100
AcDbLine
  8
INTERNALS
 62
7
370
-1
  6
ByLayer
 10
55.0861048802519235
 20
18.0757518251904798
 30
0.0
 11
52.0861048802519377
 21
18.0757518251904798
 31
0.0
  0
LINE
  5
FD
100
AcDbEntity
100
AcDbLine
  8
INTERNALS
 62
7
370
-1
  6
ByLayer
 10
47.5861048802519235
 20
18.0757518251904798
 30
0.0
 11
43.0861048802519093
 21
18.0757518251904798
 31
0.0
  0
LWPOLYLINE
  5
FE
  8
INTERNALS
 62
7
370
-1
  6
ByLayer
100
AcDbEntity
100
AcDbPolyline
 90
5
 70
1
 10
58.0861048802519093
 20
19.5757518251904905
 10
62.5861048802519235
 20
21.8257518251904798
 10
62.5861048802519235
 20
17.3257518251904834
 10
58.0861048802519093
 20
19.5757518251904905
 10
58.0861048802519093
 20
19.5757518251904905
  0
LINE
  5
FF
100
AcDbEntity
100
AcDbLine
  8
INTERNALS
 62
7
370
-1
  6
ByLayer
 10
58.0861048802519093
 20
19.5757518251904905
 30
0.0
 11
55.0861048802519235
 21
19.5757518251904905
 31
0.0
  0
CIRCLE
  5
100
100
AcDbEntity
100
AcDbCircle
  8
INTERNALS
 62
7
370
-1
  6
ByLayer
 10
55.0861048802519235
 20
19.5757518251904905
 30
0.0
 40
0.3
  0
LWPOLYLINE
  5
101
  8
PINS
 62
7
370
-1
  6
ByLayer
100
AcDbEntity
100
AcDbPolyline
 90
7
 70
1
 10
23.5861048802519306
 20
54.075751825190487
 10
22.0861048802519342
 20
55.5757518251904798
 10
23.5861048802519306
 20
57.075751825190487
 10
43.0861048802519093
 20
57.075751825190487
 10
43.0861048802519093
 20
54.075751825190487
 10
23.5861048802519306
 20
54.075751825190487
 10
23.5861048802519306
 20
54.075751825190487
  0
LWPOLYLINE
  5
102
  8
PINS
 62
7
370
-1
  6
ByLayer
100
AcDbEntity
100
AcDbPolyline
 90
7
 70
1
 10
23.5861048802519306
 20
57.075751825190487
 10
22.0861048802519342
 20
58.575751825190487
 10
23.5861048802519306
 20
60.0757518251904941
 10
43.0861048802519093
 20
60.0757518251904941
 10
43.0861048802519093
 20
57.075751825190487
 10
23.5861048802519306
 20
57.075751825190487
 10
23.5861048802519306
 20
57.075751825190487
  0
MTEXT
  5
103
100
AcDbEntity
100
AcDbMText
  8
PINS
 62
7
370
-1
  6
ByLayer
 10
32.5861048802519235
 20
55.5757518251904798
 30
0.0
 40
1.800
 41
1500.0
 71
5
 72
2
  1
pin-15-in-not
  7
romand
 50
0.0
 73
0
 44
1.0
  0
MTEXT
  5
104
100
AcDbEntity
100
AcDbMText
  8
PINS
 62
7
370
-1
  6
ByLayer
 10
32.5861048802519235
 20
58.575751825190487
 30
0.0
 40
1.800
 41
1500.0
 71
5
 72
2
  1
pin-15-in
  7
romand
 50
0.0
 73
0
 44
1.0
  0
CIRCLE
  5
105
100
AcDbEntity
100
AcDbCircle
  8
INTERNALS
 62
7
370
-1
  6
ByLayer
 10
47.9611048802519306
 20
55.5757518251904798
 30
0.0
 40
0.375
  0
LWPOLYLINE
  5
106
  8
INTERNALS
 62
7
370
-1
  6
ByLayer
100
AcDbEntity
100
AcDbPolyline
 90
5
 70
1
 10
48.3361048802519377
 20
55.5757518251904798
 10
52.0861048802519377
 20
57.825751825190487
 10
52.0861048802519377
 20
53.325751825190487
 10
48.3361048802519377
 20
55.5757518251904798
 10
48.3361048802519377
 20
55.5757518251904798
  0
LINE
  5
107
100
AcDbEntity
100
AcDbLine
  8
INTERNALS
 62
7
370
-1
  6
ByLayer
 10
43.0861048802519093
 20
58.575751825190487
 30
0.0
 11
55.0861048802519235
 21
58.575751825190487
 31
0.0
  0
LINE
  5
108
100
AcDbEntity
100
AcDbLine
  8
INTERNALS
 62
7
370
-1
  6
ByLayer
 10
55.0861048802519235
 20
58.575751825190487
 30
0.0
 11
55.0861048802519235
 21
55.5757518251904798
 31
0.0
  0
LINE
  5
109
100
AcDbEntity
100
AcDbLine
  8
INTERNALS
 62
7
370
-1
  6
ByLayer
 10
55.0861048802519235
 20
55.5757518251904798
 30
0.0
 11
52.0861048802519377
 21
55.5757518251904798
 31
0.0
  0
LINE
  5
10A
100
AcDbEntity
100
AcDbLine
  8
INTERNALS
 62
7
370
-1
  6
ByLayer
 10
47.5861048802519235
 20
55.5757518251904798
 30
0.0
 11
43.0861048802519093
 21
55.5757518251904798
 31
0.0
  0
LWPOLYLINE
  5
10B
  8
INTERNALS
 62
7
370
-1
  6
ByLayer
100
AcDbEntity
100
AcDbPolyline
 90
5
 70
1
 10
58.0861048802519093
 20
57.075751825190487
 10
62.5861048802519235
 20
59.3257518251904798
 10
62.5861048802519235
 20
54.825751825190487
 10
58.0861048802519093
 20
57.075751825190487
 10
58.0861048802519093
 20
57.075751825190487
  0
LINE
  5
10C
100
AcDbEntity
100
AcDbLine
  8
INTERNALS
 62
7
370
-1
  6
ByLayer
 10
58.0861048802519093
 20
57.075751825190487
 30
0.0
 11
55.0861048802519235
 21
57.075751825190487
 31
0.0
  0
CIRCLE
  5
10D
100
AcDbEntity
100
AcDbCircle
  8
INTERNALS
 62
7
370
-1
  6
ByLayer
 10
55.0861048802519235
 20
57.075751825190487
 30
0.0
 40
0.3
  0
LWPOLYLINE
  5
10E
  8
PINS
 62
7
370
-1
  6
ByLayer
100
AcDbEntity
100
AcDbPolyline
 90
7
 70
1
 10
23.5861048802519306
 20
46.575751825190487
 10
22.0861048802519342
 20
48.0757518251904798
 10
23.5861048802519306
 20
49.575751825190487
 10
43.0861048802519093
 20
49.575751825190487
 10
43.0861048802519093
 20
46.575751825190487
 10
23.5861048802519306
 20
46.575751825190487
 10
23.5861048802519306
 20
46.575751825190487
  0
LWPOLYLINE
  5
10F
  8
PINS
 62
7
370
-1
  6
ByLayer
100
AcDbEntity
100
AcDbPolyline
 90
7
 70
1
 10
23.5861048802519306
 20
49.575751825190487
 10
22.0861048802519342
 20
51.075751825190487
 10
23.5861048802519306
 20
52.5757518251904941
 10
43.0861048802519093
 20
52.5757518251904941
 10
43.0861048802519093
 20
49.575751825190487
 10
23.5861048802519306
 20
49.575751825190487
 10
23.5861048802519306
 20
49.575751825190487
  0
MTEXT
  5
110
100
AcDbEntity
100
AcDbMText
  8
PINS
 62
7
370
-1
  6
ByLayer
 10
32.5861048802519235
 20
48.0757518251904798
 30
0.0
 40
1.800
 41
1500.0
 71
5
 72
2
  1
pin-13-in-not
  7
romand
 50
0.0
 73
0
 44
1.0
  0
MTEXT
  5
111
100
AcDbEntity
100
AcDbMText
  8
PINS
 62
7
370
-1
  6
ByLayer
 10
32.5861048802519235
 20
51.075751825190487
 30
0.0
 40
1.800
 41
1500.0
 71
5
 72
2
  1
pin-13-in
  7
romand
 50
0.0
 73
0
 44
1.0
  0
CIRCLE
  5
112
100
AcDbEntity
100
AcDbCircle
  8
INTERNALS
 62
7
370
-1
  6
ByLayer
 10
47.9611048802519306
 20
48.0757518251904798
 30
0.0
 40
0.375
  0
LWPOLYLINE
  5
113
  8
INTERNALS
 62
7
370
-1
  6
ByLayer
100
AcDbEntity
100
AcDbPolyline
 90
5
 70
1
 10
48.3361048802519377
 20
48.0757518251904798
 10
52.0861048802519377
 20
50.325751825190487
 10
52.0861048802519377
 20
45.825751825190487
 10
48.3361048802519377
 20
48.0757518251904798
 10
48.3361048802519377
 20
48.0757518251904798
  0
LINE
  5
114
100
AcDbEntity
100
AcDbLine
  8
INTERNALS
 62
7
370
-1
  6
ByLayer
 10
43.0861048802519093
 20
51.075751825190487
 30
0.0
 11
55.0861048802519235
 21
51.075751825190487
 31
0.0
  0
LINE
  5
115
100
AcDbEntity
100
AcDbLine
  8
INTERNALS
 62
7
370
-1
  6
ByLayer
 10
55.0861048802519235
 20
51.075751825190487
 30
0.0
 11
55.0861048802519235
 21
48.0757518251904798
 31
0.0
  0
LINE
  5
116
100
AcDbEntity
100
AcDbLine
  8
INTERNALS
 62
7
370
-1
  6
ByLayer
 10
55.0861048802519235
 20
48.0757518251904798
 30
0.0
 11
52.0861048802519377
 21
48.0757518251904798
 31
0.0
  0
LINE
  5
117
100
AcDbEntity
100
AcDbLine
  8
INTERNALS
 62
7
370
-1
  6
ByLayer
 10
47.5861048802519235
 20
48.0757518251904798
 30
0.0
 11
43.0861048802519093
 21
48.0757518251904798
 31
0.0
  0
LWPOLYLINE
  5
118
  8
INTERNALS
 62
7
370
-1
  6
ByLayer
100
AcDbEntity
100
AcDbPolyline
 90
5
 70
1
 10
58.0861048802519093
 20
49.575751825190487
 10
62.5861048802519235
 20
51.8257518251904798
 10
62.5861048802519235
 20
47.325751825190487
 10
58.0861048802519093
 20
49.575751825190487
 10
58.0861048802519093
 20
49.575751825190487
  0
LINE
  5
119
100
AcDbEntity
100
AcDbLine
  8
INTERNALS
 62
7
370
-1
  6
ByLayer
 10
58.0861048802519093
 20
49.575751825190487
 30
0.0
 11
55.0861048802519235
 21
49.575751825190487
 31
0.0
  0
CIRCLE
  5
11A
100
AcDbEntity
100
AcDbCircle
  8
INTERNALS
 62
7
370
-1
  6
ByLayer
 10
55.0861048802519235
 20
49.575751825190487
 30
0.0
 40
0.3
  0
LWPOLYLINE
  5
11B
  8
PINS
 62
7
370
-1
  6
ByLayer
100
AcDbEntity
100
AcDbPolyline
 90
7
 70
1
 10
23.5861048802519306
 20
39.075751825190487
 10
22.0861048802519342
 20
40.5757518251904798
 10
23.5861048802519306
 20
42.075751825190487
 10
43.0861048802519093
 20
42.075751825190487
 10
43.0861048802519093
 20
39.075751825190487
 10
23.5861048802519306
 20
39.075751825190487
 10
23.5861048802519306
 20
39.075751825190487
  0
LWPOLYLINE
  5
11C
  8
PINS
 62
7
370
-1
  6
ByLayer
100
AcDbEntity
100
AcDbPolyline
 90
7
 70
1
 10
23.5861048802519306
 20
42.075751825190487
 10
22.0861048802519342
 20
43.575751825190487
 10
23.5861048802519306
 20
45.0757518251904941
 10
43.0861048802519093
 20
45.0757518251904941
 10
43.0861048802519093
 20
42.075751825190487
 10
23.5861048802519306
 20
42.075751825190487
 10
23.5861048802519306
 20
42.075751825190487
  0
MTEXT
  5
11D
100
AcDbEntity
100
AcDbMText
  8
PINS
 62
7
370
-1
  6
ByLayer
 10
32.5861048802519235
 20
40.5757518251904798
 30
0.0
 40
1.800
 41
1500.0
 71
5
 72
2
  1
pin-12-in-not
  7
romand
 50
0.0
 73
0
 44
1.0
  0
MTEXT
  5
11E
100
AcDbEntity
100
AcDbMText
  8
PINS
 62
7
370
-1
  6
ByLayer
 10
32.5861048802519235
 20
43.575751825190487
 30
0.0
 40
1.800
 41
1500.0
 71
5
 72
2
  1
pin-12-in
  7
romand
 50
0.0
 73
0
 44
1.0
  0
CIRCLE
  5
11F
100
AcDbEntity
100
AcDbCircle
  8
INTERNALS
 62
7
370
-1
  6
ByLayer
 10
47.9611048802519306
 20
40.5757518251904798
 30
0.0
 40
0.375
  0
LWPOLYLINE
  5
120
  8
INTERNALS
 62
7
370
-1
  6
ByLayer
100
AcDbEntity
100
AcDbPolyline
 90
5
 70
1
 10
48.3361048802519377
 20
40.5757518251904798
 10
52.0861048802519377
 20
42.825751825190487
 10
52.0861048802519377
 20
38.325751825190487
 10
48.3361048802519377
 20
40.5757518251904798
 10
48.3361048802519377
 20
40.5757518251904798
  0
LINE
  5
121
100
AcDbEntity
100
AcDbLine
  8
INTERNALS
 62
7
370
-1
  6
ByLayer
 10
43.0861048802519093
 20
43.575751825190487
 30
0.0
 11
55.0861048802519235
 21
43.575751825190487
 31
0.0
  0
LINE
  5
122
100
AcDbEntity
100
AcDbLine
  8
INTERNALS
 62
7
370
-1
  6
ByLayer
 10
55.0861048802519235
 20
43.575751825190487
 30
0.0
 11
55.0861048802519235
 21
40.5757518251904798
 31
0.0
  0
LINE
  5
123
100
AcDbEntity
100
AcDbLine
  8
INTERNALS
 62
7
370
-1
  6
ByLayer
 10
55.0861048802519235
 20
40.5757518251904798
 30
0.0
 11
52.0861048802519377
 21
40.5757518251904798
 31
0.0
  0
LINE
  5
124
100
AcDbEntity
100
AcDbLine
  8
INTERNALS
 62
7
370
-1
  6
ByLayer
 10
47.5861048802519235
 20
40.5757518251904798
 30
0.0
 11
43.0861048802519093
 21
40.5757518251904798
 31
0.0
  0
LWPOLYLINE
  5
125
  8
INTERNALS
 62
7
370
-1
  6
ByLayer
100
AcDbEntity
100
AcDbPolyline
 90
5
 70
1
 10
58.0861048802519093
 20
42.075751825190487
 10
62.5861048802519235
 20
44.3257518251904798
 10
62.5861048802519235
 20
39.825751825190487
 10
58.0861048802519093
 20
42.075751825190487
 10
58.0861048802519093
 20
42.075751825190487
  0
LINE
  5
126
100
AcDbEntity
100
AcDbLine
  8
INTERNALS
 62
7
370
-1
  6
ByLayer
 10
58.0861048802519093
 20
42.075751825190487
 30
0.0
 11
55.0861048802519235
 21
42.075751825190487
 31
0.0
  0
CIRCLE
  5
127
100
AcDbEntity
100
AcDbCircle
  8
INTERNALS
 62
7
370
-1
  6
ByLayer
 10
55.0861048802519235
 20
42.075751825190487
 30
0.0
 40
0.3
  0
LWPOLYLINE
  5
128
  8
PINS
 62
7
370
-1
  6
ByLayer
100
AcDbEntity
100
AcDbPolyline
 90
7
 70
1
 10
23.5861048802519306
 20
31.575751825190487
 10
22.0861048802519342
 20
33.0757518251904798
 10
23.5861048802519306
 20
34.575751825190487
 10
43.0861048802519093
 20
34.575751825190487
 10
43.0861048802519093
 20
31.575751825190487
 10
23.5861048802519306
 20
31.575751825190487
 10
23.5861048802519306
 20
31.575751825190487
  0
LWPOLYLINE
  5
129
  8
PINS
 62
7
370
-1
  6
ByLayer
100
AcDbEntity
100
AcDbPolyline
 90
7
 70
1
 10
23.5861048802519306
 20
34.575751825190487
 10
22.0861048802519342
 20
36.075751825190487
 10
23.5861048802519306
 20
37.5757518251904941
 10
43.0861048802519093
 20
37.5757518251904941
 10
43.0861048802519093
 20
34.575751825190487
 10
23.5861048802519306
 20
34.575751825190487
 10
23.5861048802519306
 20
34.575751825190487
  0
MTEXT
  5
12A
100
AcDbEntity
100
AcDbMText
  8
PINS
 62
7
370
-1
  6
ByLayer
 10
32.5861048802519235
 20
33.0757518251904798
 30
0.0
 40
1.800
 41
1500.0
 71
5
 72
2
  1
pin-11-in-not
  7
romand
 50
0.0
 73
0
 44
1.0
  0
MTEXT
  5
12B
100
AcDbEntity
100
AcDbMText
  8
PINS
 62
7
370
-1
  6
ByLayer
 10
32.5861048802519235
 20
36.075751825190487
 30
0.0
 40
1.800
 41
1500.0
 71
5
 72
2
  1
pin-11-in
  7
romand
 50
0.0
 73
0
 44
1.0
  0
CIRCLE
  5
12C
100
AcDbEntity
100
AcDbCircle
  8
INTERNALS
 62
7
370
-1
  6
ByLayer
 10
47.9611048802519306
 20
33.0757518251904798
 30
0.0
 40
0.375
  0
LWPOLYLINE
  5
12D
  8
INTERNALS
 62
7
370
-1
  6
ByLayer
100
AcDbEntity
100
AcDbPolyline
 90
5
 70
1
 10
48.3361048802519377
 20
33.0757518251904798
 10
52.0861048802519377
 20
35.325751825190487
 10
52.0861048802519377
 20
30.8257518251904905
 10
48.3361048802519377
 20
33.0757518251904798
 10
48.3361048802519377
 20
33.0757518251904798
  0
LINE
  5
12E
100
AcDbEntity
100
AcDbLine
  8
INTERNALS
 62
7
370
-1
  6
ByLayer
 10
43.0861048802519093
 20
36.075751825190487
 30
0.0
 11
55.0861048802519235
 21
36.075751825190487
 31
0.0
  0
LINE
  5
12F
100
AcDbEntity
100
AcDbLine
  8
INTERNALS
 62
7
370
-1
  6
ByLayer
 10
55.0861048802519235
 20
36.075751825190487
 30
0.0
 11
55.0861048802519235
 21
33.0757518251904798
 31
0.0
  0
LINE
  5
130
100
AcDbEntity
100
AcDbLine
  8
INTERNALS
 62
7
370
-1
  6
ByLayer
 10
55.0861048802519235
 20
33.0757518251904798
 30
0.0
 11
52.0861048802519377
 21
33.0757518251904798
 31
0.0
  0
LINE
  5
131
100
AcDbEntity
100
AcDbLine
  8
INTERNALS
 62
7
370
-1
  6
ByLayer
 10
47.5861048802519235
 20
33.0757518251904798
 30
0.0
 11
43.0861048802519093
 21
33.0757518251904798
 31
0.0
  0
LWPOLYLINE
  5
132
  8
INTERNALS
 62
7
370
-1
  6
ByLayer
100
AcDbEntity
100
AcDbPolyline
 90
5
 70
1
 10
58.0861048802519093
 20
34.575751825190487
 10
62.5861048802519235
 20
36.8257518251904798
 10
62.5861048802519235
 20
32.3257518251904798
 10
58.0861048802519093
 20
34.575751825190487
 10
58.0861048802519093
 20
34.575751825190487
  0
LINE
  5
133
100
AcDbEntity
100
AcDbLine
  8
INTERNALS
 62
7
370
-1
  6
ByLayer
 10
58.0861048802519093
 20
34.575751825190487
 30
0.0
 11
55.0861048802519235
 21
34.575751825190487
 31
0.0
  0
CIRCLE
  5
134
100
AcDbEntity
100
AcDbCircle
  8
INTERNALS
 62
7
370
-1
  6
ByLayer
 10
55.0861048802519235
 20
34.575751825190487
 30
0.0
 40
0.3
  0
LWPOLYLINE
  5
135
  8
PINS
 62
7
370
-1
  6
ByLayer
100
AcDbEntity
100
AcDbPolyline
 90
7
 70
1
 10
23.5861048802519306
 20
24.075751825190487
 10
22.0861048802519342
 20
25.5757518251904798
 10
23.5861048802519306
 20
27.0757518251904905
 10
43.0861048802519093
 20
27.0757518251904905
 10
43.0861048802519093
 20
24.075751825190487
 10
23.5861048802519306
 20
24.075751825190487
 10
23.5861048802519306
 20
24.075751825190487
  0
LWPOLYLINE
  5
136
  8
PINS
 62
7
370
-1
  6
ByLayer
100
AcDbEntity
100
AcDbPolyline
 90
7
 70
1
 10
23.5861048802519306
 20
27.0757518251904905
 10
22.0861048802519342
 20
28.5757518251904834
 10
23.5861048802519306
 20
30.0757518251904905
 10
43.0861048802519093
 20
30.0757518251904905
 10
43.0861048802519093
 20
27.0757518251904905
 10
23.5861048802519306
 20
27.0757518251904905
 10
23.5861048802519306
 20
27.0757518251904905
  0
MTEXT
  5
137
100
AcDbEntity
100
AcDbMText
  8
PINS
 62
7
370
-1
  6
ByLayer
 10
32.5861048802519235
 20
25.5757518251904798
 30
0.0
 40
1.800
 41
1500.0
 71
5
 72
2
  1
pin-10-in-not
  7
romand
 50
0.0
 73
0
 44
1.0
  0
MTEXT
  5
138
100
AcDbEntity
100
AcDbMText
  8
PINS
 62
7
370
-1
  6
ByLayer
 10
32.5861048802519235
 20
28.5757518251904834
 30
0.0
 40
1.800
 41
1500.0
 71
5
 72
2
  1
pin-10-in
  7
romand
 50
0.0
 73
0
 44
1.0
  0
CIRCLE
  5
139
100
AcDbEntity
100
AcDbCircle
  8
INTERNALS
 62
7
370
-1
  6
ByLayer
 10
47.9611048802519306
 20
25.5757518251904798
 30
0.0
 40
0.375
  0
LWPOLYLINE
  5
13A
  8
INTERNALS
 62
7
370
-1
  6
ByLayer
100
AcDbEntity
100
AcDbPolyline
 90
5
 70
1
 10
48.3361048802519377
 20
25.5757518251904798
 10
52.0861048802519377
 20
27.825751825190487
 10
52.0861048802519377
 20
23.3257518251904905
 10
48.3361048802519377
 20
25.5757518251904798
 10
48.3361048802519377
 20
25.5757518251904798
  0
LINE
  5
13B
100
AcDbEntity
100
AcDbLine
  8
INTERNALS
 62
7
370
-1
  6
ByLayer
 10
43.0861048802519093
 20
28.5757518251904834
 30
0.0
 11
55.0861048802519235
 21
28.5757518251904834
 31
0.0
  0
LINE
  5
13C
100
AcDbEntity
100
AcDbLine
  8
INTERNALS
 62
7
370
-1
  6
ByLayer
 10
55.0861048802519235
 20
28.5757518251904834
 30
0.0
 11
55.0861048802519235
 21
25.5757518251904798
 31
0.0
  0
LINE
  5
13D
100
AcDbEntity
100
AcDbLine
  8
INTERNALS
 62
7
370
-1
  6
ByLayer
 10
55.0861048802519235
 20
25.5757518251904798
 30
0.0
 11
52.0861048802519377
 21
25.5757518251904798
 31
0.0
  0
LINE
  5
13E
100
AcDbEntity
100
AcDbLine
  8
INTERNALS
 62
7
370
-1
  6
ByLayer
 10
47.5861048802519235
 20
25.5757518251904798
 30
0.0
 11
43.0861048802519093
 21
25.5757518251904798
 31
0.0
  0
LWPOLYLINE
  5
13F
  8
INTERNALS
 62
7
370
-1
  6
ByLayer
100
AcDbEntity
100
AcDbPolyline
 90
5
 70
1
 10
58.0861048802519093
 20
27.0757518251904905
 10
62.5861048802519235
 20
29.3257518251904798
 10
62.5861048802519235
 20
24.8257518251904834
 10
58.0861048802519093
 20
27.0757518251904905
 10
58.0861048802519093
 20
27.0757518251904905
  0
LINE
  5
140
100
AcDbEntity
100
AcDbLine
  8
INTERNALS
 62
7
370
-1
  6
ByLayer
 10
58.0861048802519093
 20
27.0757518251904905
 30
0.0
 11
55.0861048802519235
 21
27.0757518251904905
 31
0.0
  0
CIRCLE
  5
141
100
AcDbEntity
100
AcDbCircle
  8
INTERNALS
 62
7
370
-1
  6
ByLayer
 10
55.0861048802519235
 20
27.0757518251904905
 30
0.0
 40
0.3
  0
LINE
  5
142
100
AcDbEntity
100
AcDbLine
  8
PINS
 62
7
370
-1
  6
ByLayer
 10
44.5861048802519377
 20
-41.924248174809513
 30
0.0
 11
44.5861048802519377
 21
-41.924248174809513
 31
0.0
  0
LWPOLYLINE
  5
143
  8
PINS
 62
7
370
-1
  6
ByLayer
100
AcDbEntity
100
AcDbPolyline
 90
7
 70
1
 10
22.0861048802519342
 20
-44.924248174809513
 10
22.0861048802519342
 20
-41.924248174809513
 10
41.5861048802519164
 20
-41.924248174809513
 10
43.0861048802519093
 20
-43.424248174809513
 10
41.5861048802519164
 20
-44.924248174809513
 10
22.0861048802519342
 20
-44.924248174809513
 10
22.0861048802519342
 20
-44.924248174809513
  0
MTEXT
  5
144
100
AcDbEntity
100
AcDbMText
  8
PARAMS
 62
7
370
-1
  6
ByLayer
 10
53.5861048802519306
 20
-40.424248174809513
 30
0.0
 40
1.800
 41
1500.0
 71
5
 72
2
  1
pin-17-out-invert
  7
romand
 50
0.0
 73
0
 44
1.0
  0
MTEXT
  5
145
100
AcDbEntity
100
AcDbMText
  8
PINS
 62
7
370
-1
  6
ByLayer
 10
31.0861048802519306
 20
-43.424248174809513
 30
0.0
 40
1.800
 41
1500.0
 71
5
 72
2
  1
pin-17-out
  7
romand
 50
0.0
 73
0
 44
1.0
  0
ARC
  5
146
100
AcDbEntity
  8
INTERNALS
 62
7
370
-1
  6
ByLayer
100
AcDbCircle
 10
63.6491698802519323
 20
-41.924248174809513
 30
0.0
 40
3.75
100
AcDbArc
 50
323.1301020000000221
 51
396.8698979999999779
  0
ARC
  5
147
100
AcDbEntity
  8
INTERNALS
 62
7
370
-1
  6
ByLayer
100
AcDbCircle
 10
64.8361048802519235
 20
-41.924248174809513
 30
0.0
 40
3.75
100
AcDbArc
 50
323.1301020000000221
 51
396.8698979999999779
  0
ARC
  5
148
100
AcDbEntity
  8
INTERNALS
 62
7
370
-1
  6
ByLayer
100
AcDbCircle
 10
68.3181898802519356
 20
-38.0491181748095144
 30
0.0
 40
6.144075
100
AcDbArc
 50
265.4997520000000009
 51
320.8974289999999883
  0
ARC
  5
149
100
AcDbEntity
  8
INTERNALS
 62
7
370
-1
  6
ByLayer
100
AcDbCircle
 10
68.3181898802519356
 20
-45.7993781748095188
 30
0.0
 40
6.144075
100
AcDbArc
 50
39.1025709999999975
 51
94.5002479999999991
  0
LINE
  5
14A
100
AcDbEntity
100
AcDbLine
  8
INTERNALS
 62
7
370
-1
  6
ByLayer
 10
67.0861048802519377
 20
-43.424248174809513
 30
0.0
 11
43.0861048802519093
 21
-43.424248174809513
 31
0.0
  0
LINE
  5
14B
100
AcDbEntity
100
AcDbLine
  8
INTERNALS
 62
7
370
-1
  6
ByLayer
 10
62.5861048802519235
 20
-40.424248174809513
 30
0.0
 11
67.0861048802519377
 21
-40.424248174809513
 31
0.0
  0
LWPOLYLINE
  5
14C
  8
PARAMS
 62
7
370
-1
  6
ByLayer
100
AcDbEntity
100
AcDbPolyline
 90
5
 70
1
 10
44.5861048802519377
 20
-41.924248174809513
 10
44.5861048802519377
 20
-38.924248174809513
 10
62.5861048802519235
 20
-38.924248174809513
 10
62.5861048802519235
 20
-41.924248174809513
 10
44.5861048802519377
 20
-41.924248174809513
  0
LINE
  5
14D
100
AcDbEntity
100
AcDbLine
  8
PINS
 62
7
370
-1
  6
ByLayer
 10
44.5861048802519377
 20
-49.424248174809513
 30
0.0
 11
44.5861048802519377
 21
-49.424248174809513
 31
0.0
  0
LWPOLYLINE
  5
14E
  8
PINS
 62
7
370
-1
  6
ByLayer
100
AcDbEntity
100
AcDbPolyline
 90
7
 70
1
 10
22.0861048802519342
 20
-52.424248174809513
 10
22.0861048802519342
 20
-49.424248174809513
 10
41.5861048802519164
 20
-49.424248174809513
 10
43.0861048802519093
 20
-50.924248174809513
 10
41.5861048802519164
 20
-52.424248174809513
 10
22.0861048802519342
 20
-52.424248174809513
 10
22.0861048802519342
 20
-52.424248174809513
  0
MTEXT
  5
14F
100
AcDbEntity
100
AcDbMText
  8
PARAMS
 62
7
370
-1
  6
ByLayer
 10
53.5861048802519306
 20
-47.924248174809513
 30
0.0
 40
1.800
 41
1500.0
 71
5
 72
2
  1
pin-16-out-invert
  7
romand
 50
0.0
 73
0
 44
1.0
  0
MTEXT
  5
150
100
AcDbEntity
100
AcDbMText
  8
PINS
 62
7
370
-1
  6
ByLayer
 10
31.0861048802519306
 20
-50.924248174809513
 30
0.0
 40
1.800
 41
1500.0
 71
5
 72
2
  1
pin-16-out
  7
romand
 50
0.0
 73
0
 44
1.0
  0
ARC
  5
151
100
AcDbEntity
  8
INTERNALS
 62
7
370
-1
  6
ByLayer
100
AcDbCircle
 10
63.6491698802519323
 20
-49.424248174809513
 30
0.0
 40
3.75
100
AcDbArc
 50
323.1301020000000221
 51
396.8698979999999779
  0
ARC
  5
152
100
AcDbEntity
  8
INTERNALS
 62
7
370
-1
  6
ByLayer
100
AcDbCircle
 10
64.8361048802519235
 20
-49.424248174809513
 30
0.0
 40
3.75
100
AcDbArc
 50
323.1301020000000221
 51
396.8698979999999779
  0
ARC
  5
153
100
AcDbEntity
  8
INTERNALS
 62
7
370
-1
  6
ByLayer
100
AcDbCircle
 10
68.3181898802519356
 20
-45.5491181748095144
 30
0.0
 40
6.144075
100
AcDbArc
 50
265.4997520000000009
 51
320.8974289999999883
  0
ARC
  5
154
100
AcDbEntity
  8
INTERNALS
 62
7
370
-1
  6
ByLayer
100
AcDbCircle
 10
68.3181898802519356
 20
-53.2993781748095117
 30
0.0
 40
6.144075
100
AcDbArc
 50
39.1025709999999975
 51
94.5002479999999991
  0
LINE
  5
155
100
AcDbEntity
100
AcDbLine
  8
INTERNALS
 62
7
370
-1
  6
ByLayer
 10
67.0861048802519377
 20
-50.924248174809513
 30
0.0
 11
43.0861048802519093
 21
-50.924248174809513
 31
0.0
  0
LINE
  5
156
100
AcDbEntity
100
AcDbLine
  8
INTERNALS
 62
7
370
-1
  6
ByLayer
 10
62.5861048802519235
 20
-47.924248174809513
 30
0.0
 11
67.0861048802519377
 21
-47.924248174809513
 31
0.0
  0
LWPOLYLINE
  5
157
  8
PARAMS
 62
7
370
-1
  6
ByLayer
100
AcDbEntity
100
AcDbPolyline
 90
5
 70
1
 10
44.5861048802519377
 20
-49.424248174809513
 10
44.5861048802519377
 20
-46.424248174809513
 10
62.5861048802519235
 20
-46.424248174809513
 10
62.5861048802519235
 20
-49.424248174809513
 10
44.5861048802519377
 20
-49.424248174809513
  0
LINE
  5
158
100
AcDbEntity
100
AcDbLine
  8
PINS
 62
7
370
-1
  6
ByLayer
 10
44.5861048802519377
 20
-56.924248174809513
 30
0.0
 11
44.5861048802519377
 21
-56.924248174809513
 31
0.0
  0
LWPOLYLINE
  5
159
  8
PINS
 62
7
370
-1
  6
ByLayer
100
AcDbEntity
100
AcDbPolyline
 90
7
 70
1
 10
22.0861048802519342
 20
-59.924248174809513
 10
22.0861048802519342
 20
-56.924248174809513
 10
41.5861048802519164
 20
-56.924248174809513
 10
43.0861048802519093
 20
-58.4242481748095202
 10
41.5861048802519164
 20
-59.924248174809513
 10
22.0861048802519342
 20
-59.924248174809513
 10
22.0861048802519342
 20
-59.924248174809513
  0
MTEXT
  5
15A
100
AcDbEntity
100
AcDbMText
  8
PARAMS
 62
7
370
-1
  6
ByLayer
 10
53.5861048802519306
 20
-55.4242481748095202
 30
0.0
 40
1.800
 41
1500.0
 71
5
 72
2
  1
pin-14-out-invert
  7
romand
 50
0.0
 73
0
 44
1.0
  0
MTEXT
  5
15B
100
AcDbEntity
100
AcDbMText
  8
PINS
 62
7
370
-1
  6
ByLayer
 10
31.0861048802519306
 20
-58.4242481748095202
 30
0.0
 40
1.800
 41
1500.0
 71
5
 72
2
  1
pin-14-out
  7
romand
 50
0.0
 73
0
 44
1.0
  0
ARC
  5
15C
100
AcDbEntity
  8
INTERNALS
 62
7
370
-1
  6
ByLayer
100
AcDbCircle
 10
63.6491698802519323
 20
-56.924248174809513
 30
0.0
 40
3.75
100
AcDbArc
 50
323.1301020000000221
 51
396.8698979999999779
  0
ARC
  5
15D
100
AcDbEntity
  8
INTERNALS
 62
7
370
-1
  6
ByLayer
100
AcDbCircle
 10
64.8361048802519235
 20
-56.924248174809513
 30
0.0
 40
3.75
100
AcDbArc
 50
323.1301020000000221
 51
396.8698979999999779
  0
ARC
  5
15E
100
AcDbEntity
  8
INTERNALS
 62
7
370
-1
  6
ByLayer
100
AcDbCircle
 10
68.3181898802519356
 20
-53.0491181748095144
 30
0.0
 40
6.144075
100
AcDbArc
 50
265.4997520000000009
 51
320.8974289999999883
  0
ARC
  5
15F
100
AcDbEntity
  8
INTERNALS
 62
7
370
-1
  6
ByLayer
100
AcDbCircle
 10
68.3181898802519356
 20
-60.7993781748095117
 30
0.0
 40
6.144075
100
AcDbArc
 50
39.1025709999999975
 51
94.5002479999999991
  0
LINE
  5
160
100
AcDbEntity
100
AcDbLine
  8
INTERNALS
 62
7
370
-1
  6
ByLayer
 10
67.0861048802519377
 20
-58.4242481748095202
 30
0.0
 11
43.0861048802519093
 21
-58.4242481748095202
 31
0.0
  0
LINE
  5
161
100
AcDbEntity
100
AcDbLine
  8
INTERNALS
 62
7
370
-1
  6
ByLayer
 10
62.5861048802519235
 20
-55.4242481748095202
 30
0.0
 11
67.0861048802519377
 21
-55.4242481748095202
 31
0.0
  0
LWPOLYLINE
  5
162
  8
PARAMS
 62
7
370
-1
  6
ByLayer
100
AcDbEntity
100
AcDbPolyline
 90
5
 70
1
 10
44.5861048802519377
 20
-56.924248174809513
 10
44.5861048802519377
 20
-53.9242481748095059
 10
62.5861048802519235
 20
-53.9242481748095059
 10
62.5861048802519235
 20
-56.924248174809513
 10
44.5861048802519377
 20
-56.924248174809513
  0
LINE
  5
163
100
AcDbEntity
100
AcDbLine
  8
PINS
 62
7
370
-1
  6
ByLayer
 10
44.5861048802519377
 20
-64.4242481748095059
 30
0.0
 11
44.5861048802519377
 21
-64.4242481748095059
 31
0.0
  0
LWPOLYLINE
  5
164
  8
PINS
 62
7
370
-1
  6
ByLayer
100
AcDbEntity
100
AcDbPolyline
 90
7
 70
1
 10
22.0861048802519342
 20
-67.4242481748095202
 10
22.0861048802519342
 20
-64.4242481748095059
 10
41.5861048802519164
 20
-64.4242481748095059
 10
43.0861048802519093
 20
-65.9242481748095202
 10
41.5861048802519164
 20
-67.4242481748095202
 10
22.0861048802519342
 20
-67.4242481748095202
 10
22.0861048802519342
 20
-67.4242481748095202
  0
MTEXT
  5
165
100
AcDbEntity
100
AcDbMText
  8
PARAMS
 62
7
370
-1
  6
ByLayer
 10
53.5861048802519306
 20
-62.9242481748095202
 30
0.0
 40
1.800
 41
1500.0
 71
5
 72
2
  1
pin-1-out-invert
  7
romand
 50
0.0
 73
0
 44
1.0
  0
MTEXT
  5
166
100
AcDbEntity
100
AcDbMText
  8
PINS
 62
7
370
-1
  6
ByLayer
 10
31.0861048802519306
 20
-65.9242481748095202
 30
0.0
 40
1.800
 41
1500.0
 71
5
 72
2
  1
pin-1-out
  7
romand
 50
0.0
 73
0
 44
1.0
  0
ARC
  5
167
100
AcDbEntity
  8
INTERNALS
 62
7
370
-1
  6
ByLayer
100
AcDbCircle
 10
63.6491698802519323
 20
-64.4242481748095059
 30
0.0
 40
3.75
100
AcDbArc
 50
323.1301020000000221
 51
396.8698979999999779
  0
ARC
  5
168
100
AcDbEntity
  8
INTERNALS
 62
7
370
-1
  6
ByLayer
100
AcDbCircle
 10
64.8361048802519235
 20
-64.4242481748095059
 30
0.0
 40
3.75
100
AcDbArc
 50
323.1301020000000221
 51
396.8698979999999779
  0
ARC
  5
169
100
AcDbEntity
  8
INTERNALS
 62
7
370
-1
  6
ByLayer
100
AcDbCircle
 10
68.3181898802519356
 20
-60.5491181748095144
 30
0.0
 40
6.144075
100
AcDbArc
 50
265.4997520000000009
 51
320.8974289999999883
  0
ARC
  5
16A
100
AcDbEntity
  8
INTERNALS
 62
7
370
-1
  6
ByLayer
100
AcDbCircle
 10
68.3181898802519356
 20
-68.2993781748095046
 30
0.0
 40
6.144075
100
AcDbArc
 50
39.1025709999999975
 51
94.5002479999999991
  0
LINE
  5
16B
100
AcDbEntity
100
AcDbLine
  8
INTERNALS
 62
7
370
-1
  6
ByLayer
 10
67.0861048802519377
 20
-65.9242481748095202
 30
0.0
 11
43.0861048802519093
 21
-65.9242481748095202
 31
0.0
  0
LINE
  5
16C
100
AcDbEntity
100
AcDbLine
  8
INTERNALS
 62
7
370
-1
  6
ByLayer
 10
62.5861048802519235
 20
-62.9242481748095202
 30
0.0
 11
67.0861048802519377
 21
-62.9242481748095202
 31
0.0
  0
LWPOLYLINE
  5
16D
  8
PARAMS
 62
7
370
-1
  6
ByLayer
100
AcDbEntity
100
AcDbPolyline
 90
5
 70
1
 10
44.5861048802519377
 20
-64.4242481748095059
 10
44.5861048802519377
 20
-61.4242481748095059
 10
62.5861048802519235
 20
-61.4242481748095059
 10
62.5861048802519235
 20
-64.4242481748095059
 10
44.5861048802519377
 20
-64.4242481748095059
  0
LINE
  5
16E
100
AcDbEntity
100
AcDbLine
  8
OUTLINE
 62
7
370
-1
  6
ByLayer
 10
25.0861048802519235
 20
9.075751825190487
 30
0.0
 11
25.0861048802519235
 21
7.5757518251904852
 31
0.0
  0
LINE
  5
16F
100
AcDbEntity
100
AcDbLine
  8
OUTLINE
 62
7
370
-1
  6
ByLayer
 10
25.0861048802519235
 20
1.5757518251904861
 30
0.0
 11
25.0861048802519235
 21
0.0757518251904847
 31
0.0
  0
LINE
  5
170
100
AcDbEntity
100
AcDbLine
  8
OUTLINE
 62
7
370
-1
  6
ByLayer
 10
25.0861048802519235
 20
-5.924248174809513
 30
0.0
 11
25.0861048802519235
 21
-7.4242481748095148
 31
0.0
  0
LINE
  5
171
100
AcDbEntity
100
AcDbLine
  8
OUTLINE
 62
7
370
-1
  6
ByLayer
 10
25.0861048802519235
 20
-13.424248174809513
 30
0.0
 11
25.0861048802519235
 21
-14.924248174809513
 31
0.0
  0
LINE
  5
172
100
AcDbEntity
100
AcDbLine
  8
OUTLINE
 62
7
370
-1
  6
ByLayer
 10
25.0861048802519235
 20
-20.924248174809513
 30
0.0
 11
25.0861048802519235
 21
-22.424248174809513
 31
0.0
  0
LINE
  5
173
100
AcDbEntity
100
AcDbLine
  8
OUTLINE
 62
7
370
-1
  6
ByLayer
 10
25.0861048802519235
 20
-35.924248174809513
 30
0.0
 11
25.0861048802519235
 21
-41.924248174809513
 31
0.0
  0
LINE
  5
174
100
AcDbEntity
100
AcDbLine
  8
OUTLINE
 62
7
370
-1
  6
ByLayer
 10
25.0861048802519235
 20
-52.424248174809513
 30
0.0
 11
25.0861048802519235
 21
-56.924248174809513
 31
0.0
  0
LINE
  5
175
100
AcDbEntity
100
AcDbLine
  8
OUTLINE
 62
7
370
-1
  6
ByLayer
 10
25.0861048802519235
 20
-59.924248174809513
 30
0.0
 11
25.0861048802519235
 21
-64.4242481748095059
 31
0.0
  0
LINE
  5
176
100
AcDbEntity
100
AcDbLine
  8
OUTLINE
 62
7
370
-1
  6
ByLayer
 10
25.0861048802519235
 20
-44.924248174809513
 30
0.0
 11
25.0861048802519235
 21
-49.424248174809513
 31
0.0
  0
LINE
  5
177
100
AcDbEntity
100
AcDbLine
  8
OUTLINE
 62
7
370
-1
  6
ByLayer
 10
25.0861048802519235
 20
-28.424248174809513
 30
0.0
 11
25.0861048802519235
 21
-29.924248174809513
 31
0.0
  0
LINE
  5
178
100
AcDbEntity
100
AcDbLine
  8
OUTLINE
 62
7
370
-1
  6
ByLayer
 10
25.0861048802519235
 20
24.075751825190487
 30
0.0
 11
25.0861048802519235
 21
22.5757518251904905
 31
0.0
  0
LINE
  5
179
100
AcDbEntity
100
AcDbLine
  8
OUTLINE
 62
7
370
-1
  6
ByLayer
 10
25.0861048802519235
 20
31.575751825190487
 30
0.0
 11
25.0861048802519235
 21
30.0757518251904905
 31
0.0
  0
LINE
  5
17A
100
AcDbEntity
100
AcDbLine
  8
OUTLINE
 62
7
370
-1
  6
ByLayer
 10
25.0861048802519235
 20
39.075751825190487
 30
0.0
 11
25.0861048802519235
 21
37.5757518251904941
 31
0.0
  0
LINE
  5
17B
100
AcDbEntity
100
AcDbLine
  8
OUTLINE
 62
7
370
-1
  6
ByLayer
 10
25.0861048802519235
 20
46.575751825190487
 30
0.0
 11
25.0861048802519235
 21
45.0757518251904941
 31
0.0
  0
LINE
  5
17C
100
AcDbEntity
100
AcDbLine
  8
OUTLINE
 62
7
370
-1
  6
ByLayer
 10
25.0861048802519235
 20
54.075751825190487
 30
0.0
 11
25.0861048802519235
 21
52.5757518251904941
 31
0.0
  0
LINE
  5
17D
100
AcDbEntity
100
AcDbLine
  8
OUTLINE
 62
7
370
-1
  6
ByLayer
 10
25.0861048802519235
 20
16.575751825190487
 30
0.0
 11
25.0861048802519235
 21
15.0757518251904852
 31
0.0
  0
LWPOLYLINE
  5
17E
  8
PINS
 62
7
370
-1
  6
ByLayer
100
AcDbEntity
100
AcDbPolyline
 90
7
 70
1
 10
-79.9138951197480765
 20
24.075751825190487
 10
-81.4138951197480765
 20
25.5757518251904798
 10
-79.9138951197480765
 20
27.0757518251904905
 10
-60.4138951197480765
 20
27.0757518251904905
 10
-60.4138951197480765
 20
24.075751825190487
 10
-79.9138951197480765
 20
24.075751825190487
 10
-79.9138951197480765
 20
24.075751825190487
  0
LWPOLYLINE
  5
17F
  8
PINS
 62
7
370
-1
  6
ByLayer
100
AcDbEntity
100
AcDbPolyline
 90
7
 70
1
 10
-79.9138951197480765
 20
27.0757518251904905
 10
-81.4138951197480765
 20
28.5757518251904834
 10
-79.9138951197480765
 20
30.0757518251904905
 10
-60.4138951197480765
 20
30.0757518251904905
 10
-60.4138951197480765
 20
27.0757518251904905
 10
-79.9138951197480765
 20
27.0757518251904905
 10
-79.9138951197480765
 20
27.0757518251904905
  0
MTEXT
  5
180
100
AcDbEntity
100
AcDbMText
  8
PINS
 62
7
370
-1
  6
ByLayer
 10
-70.9138951197480765
 20
25.5757518251904798
 30
0.0
 40
1.800
 41
1500.0
 71
5
 72
2
  1
pin-10-in-not
  7
romand
 50
0.0
 73
0
 44
1.0
  0
MTEXT
  5
181
100
AcDbEntity
100
AcDbMText
  8
PINS
 62
7
370
-1
  6
ByLayer
 10
-70.9138951197480765
 20
28.5757518251904834
 30
0.0
 40
1.800
 41
1500.0
 71
5
 72
2
  1
pin-10-in
  7
romand
 50
0.0
 73
0
 44
1.0
  0
CIRCLE
  5
182
100
AcDbEntity
100
AcDbCircle
  8
INTERNALS
 62
7
370
-1
  6
ByLayer
 10
-55.5388951197480765
 20
25.5757518251904798
 30
0.0
 40
0.375
  0
LWPOLYLINE
  5
183
  8
INTERNALS
 62
7
370
-1
  6
ByLayer
100
AcDbEntity
100
AcDbPolyline
 90
5
 70
1
 10
-55.1638951197480765
 20
25.5757518251904798
 10
-51.4138951197480694
 20
27.825751825190487
 10
-51.4138951197480694
 20
23.3257518251904905
 10
-55.1638951197480765
 20
25.5757518251904798
 10
-55.1638951197480765
 20
25.5757518251904798
  0
LINE
  5
184
100
AcDbEntity
100
AcDbLine
  8
INTERNALS
 62
7
370
-1
  6
ByLayer
 10
-60.4138951197480765
 20
28.5757518251904834
 30
0.0
 11
-48.4138951197480836
 21
28.5757518251904834
 31
0.0
  0
LINE
  5
185
100
AcDbEntity
100
AcDbLine
  8
INTERNALS
 62
7
370
-1
  6
ByLayer
 10
-48.4138951197480836
 20
28.5757518251904834
 30
0.0
 11
-48.4138951197480836
 21
25.5757518251904798
 31
0.0
  0
LINE
  5
186
100
AcDbEntity
100
AcDbLine
  8
INTERNALS
 62
7
370
-1
  6
ByLayer
 10
-48.4138951197480836
 20
25.5757518251904798
 30
0.0
 11
-51.4138951197480694
 21
25.5757518251904798
 31
0.0
  0
LINE
  5
187
100
AcDbEntity
100
AcDbLine
  8
INTERNALS
 62
7
370
-1
  6
ByLayer
 10
-55.9138951197480765
 20
25.5757518251904798
 30
0.0
 11
-60.4138951197480765
 21
25.5757518251904798
 31
0.0
  0
LWPOLYLINE
  5
188
  8
INTERNALS
 62
7
370
-1
  6
ByLayer
100
AcDbEntity
100
AcDbPolyline
 90
5
 70
1
 10
-45.4138951197480765
 20
27.0757518251904905
 10
-40.9138951197480836
 20
29.3257518251904798
 10
-40.9138951197480836
 20
24.8257518251904834
 10
-45.4138951197480765
 20
27.0757518251904905
 10
-45.4138951197480765
 20
27.0757518251904905
  0
LINE
  5
189
100
AcDbEntity
100
AcDbLine
  8
INTERNALS
 62
7
370
-1
  6
ByLayer
 10
-45.4138951197480765
 20
27.0757518251904905
 30
0.0
 11
-48.4138951197480836
 21
27.0757518251904905
 31
0.0
  0
CIRCLE
  5
18A
100
AcDbEntity
100
AcDbCircle
  8
INTERNALS
 62
7
370
-1
  6
ByLayer
 10
-48.4138951197480836
 20
27.0757518251904905
 30
0.0
 40
0.3
  0
LWPOLYLINE
  5
18B
  8
PINS
 62
7
370
-1
  6
ByLayer
100
AcDbEntity
100
AcDbPolyline
 90
7
 70
1
 10
-79.9138951197480765
 20
31.575751825190487
 10
-81.4138951197480765
 20
33.0757518251904798
 10
-79.9138951197480765
 20
34.575751825190487
 10
-60.4138951197480765
 20
34.575751825190487
 10
-60.4138951197480765
 20
31.575751825190487
 10
-79.9138951197480765
 20
31.575751825190487
 10
-79.9138951197480765
 20
31.575751825190487
  0
LWPOLYLINE
  5
18C
  8
PINS
 62
7
370
-1
  6
ByLayer
100
AcDbEntity
100
AcDbPolyline
 90
7
 70
1
 10
-79.9138951197480765
 20
34.575751825190487
 10
-81.4138951197480765
 20
36.075751825190487
 10
-79.9138951197480765
 20
37.5757518251904941
 10
-60.4138951197480765
 20
37.5757518251904941
 10
-60.4138951197480765
 20
34.575751825190487
 10
-79.9138951197480765
 20
34.575751825190487
 10
-79.9138951197480765
 20
34.575751825190487
  0
MTEXT
  5
18D
100
AcDbEntity
100
AcDbMText
  8
PINS
 62
7
370
-1
  6
ByLayer
 10
-70.9138951197480765
 20
33.0757518251904798
 30
0.0
 40
1.800
 41
1500.0
 71
5
 72
2
  1
pin-11-in-not
  7
romand
 50
0.0
 73
0
 44
1.0
  0
MTEXT
  5
18E
100
AcDbEntity
100
AcDbMText
  8
PINS
 62
7
370
-1
  6
ByLayer
 10
-70.9138951197480765
 20
36.075751825190487
 30
0.0
 40
1.800
 41
1500.0
 71
5
 72
2
  1
pin-11-in
  7
romand
 50
0.0
 73
0
 44
1.0
  0
CIRCLE
  5
18F
100
AcDbEntity
100
AcDbCircle
  8
INTERNALS
 62
7
370
-1
  6
ByLayer
 10
-55.5388951197480765
 20
33.0757518251904798
 30
0.0
 40
0.375
  0
LWPOLYLINE
  5
190
  8
INTERNALS
 62
7
370
-1
  6
ByLayer
100
AcDbEntity
100
AcDbPolyline
 90
5
 70
1
 10
-55.1638951197480765
 20
33.0757518251904798
 10
-51.4138951197480694
 20
35.325751825190487
 10
-51.4138951197480694
 20
30.8257518251904905
 10
-55.1638951197480765
 20
33.0757518251904798
 10
-55.1638951197480765
 20
33.0757518251904798
  0
LINE
  5
191
100
AcDbEntity
100
AcDbLine
  8
INTERNALS
 62
7
370
-1
  6
ByLayer
 10
-60.4138951197480765
 20
36.075751825190487
 30
0.0
 11
-48.4138951197480836
 21
36.075751825190487
 31
0.0
  0
LINE
  5
192
100
AcDbEntity
100
AcDbLine
  8
INTERNALS
 62
7
370
-1
  6
ByLayer
 10
-48.4138951197480836
 20
36.075751825190487
 30
0.0
 11
-48.4138951197480836
 21
33.0757518251904798
 31
0.0
  0
LINE
  5
193
100
AcDbEntity
100
AcDbLine
  8
INTERNALS
 62
7
370
-1
  6
ByLayer
 10
-48.4138951197480836
 20
33.0757518251904798
 30
0.0
 11
-51.4138951197480694
 21
33.0757518251904798
 31
0.0
  0
LINE
  5
194
100
AcDbEntity
100
AcDbLine
  8
INTERNALS
 62
7
370
-1
  6
ByLayer
 10
-55.9138951197480765
 20
33.0757518251904798
 30
0.0
 11
-60.4138951197480765
 21
33.0757518251904798
 31
0.0
  0
LWPOLYLINE
  5
195
  8
INTERNALS
 62
7
370
-1
  6
ByLayer
100
AcDbEntity
100
AcDbPolyline
 90
5
 70
1
 10
-45.4138951197480765
 20
34.575751825190487
 10
-40.9138951197480836
 20
36.8257518251904798
 10
-40.9138951197480836
 20
32.3257518251904798
 10
-45.4138951197480765
 20
34.575751825190487
 10
-45.4138951197480765
 20
34.575751825190487
  0
LINE
  5
196
100
AcDbEntity
100
AcDbLine
  8
INTERNALS
 62
7
370
-1
  6
ByLayer
 10
-45.4138951197480765
 20
34.575751825190487
 30
0.0
 11
-48.4138951197480836
 21
34.575751825190487
 31
0.0
  0
CIRCLE
  5
197
100
AcDbEntity
100
AcDbCircle
  8
INTERNALS
 62
7
370
-1
  6
ByLayer
 10
-48.4138951197480836
 20
34.575751825190487
 30
0.0
 40
0.3
  0
LWPOLYLINE
  5
198
  8
PINS
 62
7
370
-1
  6
ByLayer
100
AcDbEntity
100
AcDbPolyline
 90
7
 70
1
 10
-79.9138951197480765
 20
39.075751825190487
 10
-81.4138951197480765
 20
40.5757518251904798
 10
-79.9138951197480765
 20
42.075751825190487
 10
-60.4138951197480765
 20
42.075751825190487
 10
-60.4138951197480765
 20
39.075751825190487
 10
-79.9138951197480765
 20
39.075751825190487
 10
-79.9138951197480765
 20
39.075751825190487
  0
LWPOLYLINE
  5
199
  8
PINS
 62
7
370
-1
  6
ByLayer
100
AcDbEntity
100
AcDbPolyline
 90
7
 70
1
 10
-79.9138951197480765
 20
42.075751825190487
 10
-81.4138951197480765
 20
43.575751825190487
 10
-79.9138951197480765
 20
45.0757518251904941
 10
-60.4138951197480765
 20
45.0757518251904941
 10
-60.4138951197480765
 20
42.075751825190487
 10
-79.9138951197480765
 20
42.075751825190487
 10
-79.9138951197480765
 20
42.075751825190487
  0
MTEXT
  5
19A
100
AcDbEntity
100
AcDbMText
  8
PINS
 62
7
370
-1
  6
ByLayer
 10
-70.9138951197480765
 20
40.5757518251904798
 30
0.0
 40
1.800
 41
1500.0
 71
5
 72
2
  1
pin-12-in-not
  7
romand
 50
0.0
 73
0
 44
1.0
  0
MTEXT
  5
19B
100
AcDbEntity
100
AcDbMText
  8
PINS
 62
7
370
-1
  6
ByLayer
 10
-70.9138951197480765
 20
43.575751825190487
 30
0.0
 40
1.800
 41
1500.0
 71
5
 72
2
  1
pin-12-in
  7
romand
 50
0.0
 73
0
 44
1.0
  0
CIRCLE
  5
19C
100
AcDbEntity
100
AcDbCircle
  8
INTERNALS
 62
7
370
-1
  6
ByLayer
 10
-55.5388951197480765
 20
40.5757518251904798
 30
0.0
 40
0.375
  0
LWPOLYLINE
  5
19D
  8
INTERNALS
 62
7
370
-1
  6
ByLayer
100
AcDbEntity
100
AcDbPolyline
 90
5
 70
1
 10
-55.1638951197480765
 20
40.5757518251904798
 10
-51.4138951197480694
 20
42.825751825190487
 10
-51.4138951197480694
 20
38.325751825190487
 10
-55.1638951197480765
 20
40.5757518251904798
 10
-55.1638951197480765
 20
40.5757518251904798
  0
LINE
  5
19E
100
AcDbEntity
100
AcDbLine
  8
INTERNALS
 62
7
370
-1
  6
ByLayer
 10
-60.4138951197480765
 20
43.575751825190487
 30
0.0
 11
-48.4138951197480836
 21
43.575751825190487
 31
0.0
  0
LINE
  5
19F
100
AcDbEntity
100
AcDbLine
  8
INTERNALS
 62
7
370
-1
  6
ByLayer
 10
-48.4138951197480836
 20
43.575751825190487
 30
0.0
 11
-48.4138951197480836
 21
40.5757518251904798
 31
0.0
  0
LINE
  5
1A0
100
AcDbEntity
100
AcDbLine
  8
INTERNALS
 62
7
370
-1
  6
ByLayer
 10
-48.4138951197480836
 20
40.5757518251904798
 30
0.0
 11
-51.4138951197480694
 21
40.5757518251904798
 31
0.0
  0
LINE
  5
1A1
100
AcDbEntity
100
AcDbLine
  8
INTERNALS
 62
7
370
-1
  6
ByLayer
 10
-55.9138951197480765
 20
40.5757518251904798
 30
0.0
 11
-60.4138951197480765
 21
40.5757518251904798
 31
0.0
  0
LWPOLYLINE
  5
1A2
  8
INTERNALS
 62
7
370
-1
  6
ByLayer
100
AcDbEntity
100
AcDbPolyline
 90
5
 70
1
 10
-45.4138951197480765
 20
42.075751825190487
 10
-40.9138951197480836
 20
44.3257518251904798
 10
-40.9138951197480836
 20
39.825751825190487
 10
-45.4138951197480765
 20
42.075751825190487
 10
-45.4138951197480765
 20
42.075751825190487
  0
LINE
  5
1A3
100
AcDbEntity
100
AcDbLine
  8
INTERNALS
 62
7
370
-1
  6
ByLayer
 10
-45.4138951197480765
 20
42.075751825190487
 30
0.0
 11
-48.4138951197480836
 21
42.075751825190487
 31
0.0
  0
CIRCLE
  5
1A4
100
AcDbEntity
100
AcDbCircle
  8
INTERNALS
 62
7
370
-1
  6
ByLayer
 10
-48.4138951197480836
 20
42.075751825190487
 30
0.0
 40
0.3
  0
LWPOLYLINE
  5
1A5
  8
PINS
 62
7
370
-1
  6
ByLayer
100
AcDbEntity
100
AcDbPolyline
 90
7
 70
1
 10
-79.9138951197480765
 20
46.575751825190487
 10
-81.4138951197480765
 20
48.0757518251904798
 10
-79.9138951197480765
 20
49.575751825190487
 10
-60.4138951197480765
 20
49.575751825190487
 10
-60.4138951197480765
 20
46.575751825190487
 10
-79.9138951197480765
 20
46.575751825190487
 10
-79.9138951197480765
 20
46.575751825190487
  0
LWPOLYLINE
  5
1A6
  8
PINS
 62
7
370
-1
  6
ByLayer
100
AcDbEntity
100
AcDbPolyline
 90
7
 70
1
 10
-79.9138951197480765
 20
49.575751825190487
 10
-81.4138951197480765
 20
51.075751825190487
 10
-79.9138951197480765
 20
52.5757518251904941
 10
-60.4138951197480765
 20
52.5757518251904941
 10
-60.4138951197480765
 20
49.575751825190487
 10
-79.9138951197480765
 20
49.575751825190487
 10
-79.9138951197480765
 20
49.575751825190487
  0
MTEXT
  5
1A7
100
AcDbEntity
100
AcDbMText
  8
PINS
 62
7
370
-1
  6
ByLayer
 10
-70.9138951197480765
 20
48.0757518251904798
 30
0.0
 40
1.800
 41
1500.0
 71
5
 72
2
  1
pin-13-in-not
  7
romand
 50
0.0
 73
0
 44
1.0
  0
MTEXT
  5
1A8
100
AcDbEntity
100
AcDbMText
  8
PINS
 62
7
370
-1
  6
ByLayer
 10
-70.9138951197480765
 20
51.075751825190487
 30
0.0
 40
1.800
 41
1500.0
 71
5
 72
2
  1
pin-13-in
  7
romand
 50
0.0
 73
0
 44
1.0
  0
CIRCLE
  5
1A9
100
AcDbEntity
100
AcDbCircle
  8
INTERNALS
 62
7
370
-1
  6
ByLayer
 10
-55.5388951197480765
 20
48.0757518251904798
 30
0.0
 40
0.375
  0
LWPOLYLINE
  5
1AA
  8
INTERNALS
 62
7
370
-1
  6
ByLayer
100
AcDbEntity
100
AcDbPolyline
 90
5
 70
1
 10
-55.1638951197480765
 20
48.0757518251904798
 10
-51.4138951197480694
 20
50.325751825190487
 10
-51.4138951197480694
 20
45.825751825190487
 10
-55.1638951197480765
 20
48.0757518251904798
 10
-55.1638951197480765
 20
48.0757518251904798
  0
LINE
  5
1AB
100
AcDbEntity
100
AcDbLine
  8
INTERNALS
 62
7
370
-1
  6
ByLayer
 10
-60.4138951197480765
 20
51.075751825190487
 30
0.0
 11
-48.4138951197480836
 21
51.075751825190487
 31
0.0
  0
LINE
  5
1AC
100
AcDbEntity
100
AcDbLine
  8
INTERNALS
 62
7
370
-1
  6
ByLayer
 10
-48.4138951197480836
 20
51.075751825190487
 30
0.0
 11
-48.4138951197480836
 21
48.0757518251904798
 31
0.0
  0
LINE
  5
1AD
100
AcDbEntity
100
AcDbLine
  8
INTERNALS
 62
7
370
-1
  6
ByLayer
 10
-48.4138951197480836
 20
48.0757518251904798
 30
0.0
 11
-51.4138951197480694
 21
48.0757518251904798
 31
0.0
  0
LINE
  5
1AE
100
AcDbEntity
100
AcDbLine
  8
INTERNALS
 62
7
370
-1
  6
ByLayer
 10
-55.9138951197480765
 20
48.0757518251904798
 30
0.0
 11
-60.4138951197480765
 21
48.0757518251904798
 31
0.0
  0
LWPOLYLINE
  5
1AF
  8
INTERNALS
 62
7
370
-1
  6
ByLayer
100
AcDbEntity
100
AcDbPolyline
 90
5
 70
1
 10
-45.4138951197480765
 20
49.575751825190487
 10
-40.9138951197480836
 20
51.8257518251904798
 10
-40.9138951197480836
 20
47.325751825190487
 10
-45.4138951197480765
 20
49.575751825190487
 10
-45.4138951197480765
 20
49.575751825190487
  0
LINE
  5
1B0
100
AcDbEntity
100
AcDbLine
  8
INTERNALS
 62
7
370
-1
  6
ByLayer
 10
-45.4138951197480765
 20
49.575751825190487
 30
0.0
 11
-48.4138951197480836
 21
49.575751825190487
 31
0.0
  0
CIRCLE
  5
1B1
100
AcDbEntity
100
AcDbCircle
  8
INTERNALS
 62
7
370
-1
  6
ByLayer
 10
-48.4138951197480836
 20
49.575751825190487
 30
0.0
 40
0.3
  0
LWPOLYLINE
  5
1B2
  8
PINS
 62
7
370
-1
  6
ByLayer
100
AcDbEntity
100
AcDbPolyline
 90
7
 70
1
 10
-79.9138951197480765
 20
54.075751825190487
 10
-81.4138951197480765
 20
55.5757518251904798
 10
-79.9138951197480765
 20
57.075751825190487
 10
-60.4138951197480765
 20
57.075751825190487
 10
-60.4138951197480765
 20
54.075751825190487
 10
-79.9138951197480765
 20
54.075751825190487
 10
-79.9138951197480765
 20
54.075751825190487
  0
LWPOLYLINE
  5
1B3
  8
PINS
 62
7
370
-1
  6
ByLayer
100
AcDbEntity
100
AcDbPolyline
 90
7
 70
1
 10
-79.9138951197480765
 20
57.075751825190487
 10
-81.4138951197480765
 20
58.575751825190487
 10
-79.9138951197480765
 20
60.0757518251904941
 10
-60.4138951197480765
 20
60.0757518251904941
 10
-60.4138951197480765
 20
57.075751825190487
 10
-79.9138951197480765
 20
57.075751825190487
 10
-79.9138951197480765
 20
57.075751825190487
  0
CIRCLE
  5
1B4
100
AcDbEntity
100
AcDbCircle
  8
INTERNALS
 62
7
370
-1
  6
ByLayer
 10
-55.5388951197480765
 20
55.5757518251904798
 30
0.0
 40
0.375
  0
LWPOLYLINE
  5
1B5
  8
INTERNALS
 62
7
370
-1
  6
ByLayer
100
AcDbEntity
100
AcDbPolyline
 90
5
 70
1
 10
-55.1638951197480765
 20
55.5757518251904798
 10
-51.4138951197480694
 20
57.825751825190487
 10
-51.4138951197480694
 20
53.325751825190487
 10
-55.1638951197480765
 20
55.5757518251904798
 10
-55.1638951197480765
 20
55.5757518251904798
  0
LINE
  5
1B6
100
AcDbEntity
100
AcDbLine
  8
INTERNALS
 62
7
370
-1
  6
ByLayer
 10
-60.4138951197480765
 20
58.575751825190487
 30
0.0
 11
-48.4138951197480836
 21
58.575751825190487
 31
0.0
  0
LINE
  5
1B7
100
AcDbEntity
100
AcDbLine
  8
INTERNALS
 62
7
370
-1
  6
ByLayer
 10
-48.4138951197480836
 20
58.575751825190487
 30
0.0
 11
-48.4138951197480836
 21
55.5757518251904798
 31
0.0
  0
LINE
  5
1B8
100
AcDbEntity
100
AcDbLine
  8
INTERNALS
 62
7
370
-1
  6
ByLayer
 10
-48.4138951197480836
 20
55.5757518251904798
 30
0.0
 11
-51.4138951197480694
 21
55.5757518251904798
 31
0.0
  0
LINE
  5
1B9
100
AcDbEntity
100
AcDbLine
  8
INTERNALS
 62
7
370
-1
  6
ByLayer
 10
-55.9138951197480765
 20
55.5757518251904798
 30
0.0
 11
-60.4138951197480765
 21
55.5757518251904798
 31
0.0
  0
LWPOLYLINE
  5
1BA
  8
INTERNALS
 62
7
370
-1
  6
ByLayer
100
AcDbEntity
100
AcDbPolyline
 90
5
 70
1
 10
-45.4138951197480765
 20
57.075751825190487
 10
-40.9138951197480836
 20
59.3257518251904798
 10
-40.9138951197480836
 20
54.825751825190487
 10
-45.4138951197480765
 20
57.075751825190487
 10
-45.4138951197480765
 20
57.075751825190487
  0
LINE
  5
1BB
100
AcDbEntity
100
AcDbLine
  8
INTERNALS
 62
7
370
-1
  6
ByLayer
 10
-45.4138951197480765
 20
57.075751825190487
 30
0.0
 11
-48.4138951197480836
 21
57.075751825190487
 31
0.0
  0
CIRCLE
  5
1BC
100
AcDbEntity
100
AcDbCircle
  8
INTERNALS
 62
7
370
-1
  6
ByLayer
 10
-48.4138951197480836
 20
57.075751825190487
 30
0.0
 40
0.3
  0
LINE
  5
1BD
100
AcDbEntity
100
AcDbLine
  8
PARAMS
 62
7
370
-1
  6
ByLayer
 10
-58.9138951197480765
 20
10.575751825190487
 30
0.0
 11
-58.9138951197480765
 21
10.575751825190487
 31
0.0
  0
LINE
  5
1BE
100
AcDbEntity
100
AcDbLine
  8
PINS
 62
7
370
-1
  6
ByLayer
 10
-81.4138951197480765
 20
7.5757518251904852
 30
0.0
 11
-81.4138951197480765
 21
10.575751825190487
 31
0.0
  0
LINE
  5
1BF
100
AcDbEntity
100
AcDbLine
  8
PINS
 62
7
370
-1
  6
ByLayer
 10
-81.4138951197480765
 20
10.575751825190487
 30
0.0
 11
-61.9138951197480765
 21
10.575751825190487
 31
0.0
  0
LINE
  5
1C0
100
AcDbEntity
100
AcDbLine
  8
PINS
 62
7
370
-1
  6
ByLayer
 10
-61.9138951197480765
 20
10.575751825190487
 30
0.0
 11
-60.4138951197480765
 21
9.075751825190487
 31
0.0
  0
LINE
  5
1C1
100
AcDbEntity
100
AcDbLine
  8
PINS
 62
7
370
-1
  6
ByLayer
 10
-60.4138951197480765
 20
9.075751825190487
 30
0.0
 11
-61.9138951197480765
 21
7.5757518251904852
 31
0.0
  0
LINE
  5
1C2
100
AcDbEntity
100
AcDbLine
  8
PINS
 62
7
370
-1
  6
ByLayer
 10
-61.9138951197480765
 20
7.5757518251904852
 30
0.0
 11
-81.4138951197480765
 21
7.5757518251904852
 31
0.0
  0
LINE
  5
1C3
100
AcDbEntity
100
AcDbLine
  8
PINS
 62
7
370
-1
  6
ByLayer
 10
-81.4138951197480765
 20
7.5757518251904852
 30
0.0
 11
-81.4138951197480765
 21
7.5757518251904852
 31
0.0
  0
MTEXT
  5
1C4
100
AcDbEntity
100
AcDbMText
  8
PARAMS
 62
7
370
-1
  6
ByLayer
 10
-49.9138951197480765
 20
12.0757518251904887
 30
0.0
 40
1.800
 41
1500.0
 71
5
 72
2
  1
pin-8-out-invert
  7
romand
 50
0.0
 73
0
 44
1.0
  0
MTEXT
  5
1C5
100
AcDbEntity
100
AcDbMText
  8
PINS
 62
7
370
-1
  6
ByLayer
 10
-72.4138951197480765
 20
9.075751825190487
 30
0.0
 40
1.800
 41
1500.0
 71
5
 72
2
  1
pin-8-out
  7
romand
 50
0.0
 73
0
 44
1.0
  0
ARC
  5
1C6
100
AcDbEntity
  8
INTERNALS
 62
7
370
-1
  6
ByLayer
100
AcDbCircle
 10
-39.8508301197480748
 20
10.575751825190487
 30
0.0
 40
3.75
100
AcDbArc
 50
323.1301020000000221
 51
396.8698979999999779
  0
ARC
  5
1C7
100
AcDbEntity
  8
INTERNALS
 62
7
370
-1
  6
ByLayer
100
AcDbCircle
 10
-38.6638951197480765
 20
10.575751825190487
 30
0.0
 40
3.75
100
AcDbArc
 50
323.1301020000000221
 51
396.8698979999999779
  0
ARC
  5
1C8
100
AcDbEntity
  8
INTERNALS
 62
7
370
-1
  6
ByLayer
100
AcDbCircle
 10
-35.1818101197480786
 20
14.4508818251904856
 30
0.0
 40
6.144075
100
AcDbArc
 50
265.4997520000000009
 51
320.8974289999999883
  0
ARC
  5
1C9
100
AcDbEntity
  8
INTERNALS
 62
7
370
-1
  6
ByLayer
100
AcDbCircle
 10
-35.1818101197480786
 20
6.700621825190483
 30
0.0
 40
6.144075
100
AcDbArc
 50
39.1025709999999975
 51
94.5002479999999991
  0
LINE
  5
1CA
100
AcDbEntity
100
AcDbLine
  8
INTERNALS
 62
7
370
-1
  6
ByLayer
 10
-36.4138951197480694
 20
9.075751825190487
 30
0.0
 11
-60.4138951197480765
 21
9.075751825190487
 31
0.0
  0
LINE
  5
1CB
100
AcDbEntity
100
AcDbLine
  8
INTERNALS
 62
7
370
-1
  6
ByLayer
 10
-40.9138951197480836
 20
12.0757518251904887
 30
0.0
 11
-36.4138951197480694
 21
12.0757518251904887
 31
0.0
  0
LINE
  5
1CC
100
AcDbEntity
100
AcDbLine
  8
PARAMS
 62
7
370
-1
  6
ByLayer
 10
-58.9138951197480765
 20
10.575751825190487
 30
0.0
 11
-58.9138951197480765
 21
13.5757518251904834
 31
0.0
  0
LINE
  5
1CD
100
AcDbEntity
100
AcDbLine
  8
PARAMS
 62
7
370
-1
  6
ByLayer
 10
-58.9138951197480765
 20
13.5757518251904834
 30
0.0
 11
-40.9138951197480836
 21
13.5757518251904834
 31
0.0
  0
LINE
  5
1CE
100
AcDbEntity
100
AcDbLine
  8
PARAMS
 62
7
370
-1
  6
ByLayer
 10
-40.9138951197480836
 20
13.5757518251904834
 30
0.0
 11
-40.9138951197480836
 21
10.575751825190487
 31
0.0
  0
LINE
  5
1CF
100
AcDbEntity
100
AcDbLine
  8
PARAMS
 62
7
370
-1
  6
ByLayer
 10
-40.9138951197480836
 20
10.575751825190487
 30
0.0
 11
-58.9138951197480765
 21
10.575751825190487
 31
0.0
  0
LINE
  5
1D0
100
AcDbEntity
100
AcDbLine
  8
PARAMS
 62
7
370
-1
  6
ByLayer
 10
-58.9138951197480765
 20
3.0757518251904874
 30
0.0
 11
-58.9138951197480765
 21
3.0757518251904874
 31
0.0
  0
LINE
  5
1D1
100
AcDbEntity
100
AcDbLine
  8
PINS
 62
7
370
-1
  6
ByLayer
 10
-81.4138951197480765
 20
0.0757518251904847
 30
0.0
 11
-81.4138951197480765
 21
3.0757518251904874
 31
0.0
  0
LINE
  5
1D2
100
AcDbEntity
100
AcDbLine
  8
PINS
 62
7
370
-1
  6
ByLayer
 10
-81.4138951197480765
 20
3.0757518251904874
 30
0.0
 11
-61.9138951197480765
 21
3.0757518251904874
 31
0.0
  0
LINE
  5
1D3
100
AcDbEntity
100
AcDbLine
  8
PINS
 62
7
370
-1
  6
ByLayer
 10
-61.9138951197480765
 20
3.0757518251904874
 30
0.0
 11
-60.4138951197480765
 21
1.5757518251904861
 31
0.0
  0
LINE
  5
1D4
100
AcDbEntity
100
AcDbLine
  8
PINS
 62
7
370
-1
  6
ByLayer
 10
-60.4138951197480765
 20
1.5757518251904861
 30
0.0
 11
-61.9138951197480765
 21
0.0757518251904847
 31
0.0
  0
LINE
  5
1D5
100
AcDbEntity
100
AcDbLine
  8
PINS
 62
7
370
-1
  6
ByLayer
 10
-61.9138951197480765
 20
0.0757518251904847
 30
0.0
 11
-81.4138951197480765
 21
0.0757518251904847
 31
0.0
  0
LINE
  5
1D6
100
AcDbEntity
100
AcDbLine
  8
PINS
 62
7
370
-1
  6
ByLayer
 10
-81.4138951197480765
 20
0.0757518251904847
 30
0.0
 11
-81.4138951197480765
 21
0.0757518251904847
 31
0.0
  0
MTEXT
  5
1D7
100
AcDbEntity
100
AcDbMText
  8
PARAMS
 62
7
370
-1
  6
ByLayer
 10
-49.9138951197480765
 20
4.5757518251904887
 30
0.0
 40
1.800
 41
1500.0
 71
5
 72
2
  1
pin-7-out-invert
  7
romand
 50
0.0
 73
0
 44
1.0
  0
MTEXT
  5
1D8
100
AcDbEntity
100
AcDbMText
  8
PINS
 62
7
370
-1
  6
ByLayer
 10
-72.4138951197480765
 20
1.5757518251904861
 30
0.0
 40
1.800
 41
1500.0
 71
5
 72
2
  1
pin-7-out
  7
romand
 50
0.0
 73
0
 44
1.0
  0
ARC
  5
1D9
100
AcDbEntity
  8
INTERNALS
 62
7
370
-1
  6
ByLayer
100
AcDbCircle
 10
-39.8508301197480748
 20
3.0757518251904874
 30
0.0
 40
3.75
100
AcDbArc
 50
323.1301020000000221
 51
396.8698979999999779
  0
ARC
  5
1DA
100
AcDbEntity
  8
INTERNALS
 62
7
370
-1
  6
ByLayer
100
AcDbCircle
 10
-38.6638951197480765
 20
3.0757518251904874
 30
0.0
 40
3.75
100
AcDbArc
 50
323.1301020000000221
 51
396.8698979999999779
  0
ARC
  5
1DB
100
AcDbEntity
  8
INTERNALS
 62
7
370
-1
  6
ByLayer
100
AcDbCircle
 10
-35.1818101197480786
 20
6.9508818251904856
 30
0.0
 40
6.144075
100
AcDbArc
 50
265.4997520000000009
 51
320.8974289999999883
  0
ARC
  5
1DC
100
AcDbEntity
  8
INTERNALS
 62
7
370
-1
  6
ByLayer
100
AcDbCircle
 10
-35.1818101197480786
 20
-0.799378174809517
 30
0.0
 40
6.144075
100
AcDbArc
 50
39.1025709999999975
 51
94.5002479999999991
  0
LINE
  5
1DD
100
AcDbEntity
100
AcDbLine
  8
INTERNALS
 62
7
370
-1
  6
ByLayer
 10
-36.4138951197480694
 20
1.5757518251904861
 30
0.0
 11
-60.4138951197480765
 21
1.5757518251904861
 31
0.0
  0
LINE
  5
1DE
100
AcDbEntity
100
AcDbLine
  8
INTERNALS
 62
7
370
-1
  6
ByLayer
 10
-40.9138951197480836
 20
4.5757518251904887
 30
0.0
 11
-36.4138951197480694
 21
4.5757518251904887
 31
0.0
  0
LINE
  5
1DF
100
AcDbEntity
100
AcDbLine
  8
PARAMS
 62
7
370
-1
  6
ByLayer
 10
-58.9138951197480765
 20
3.0757518251904874
 30
0.0
 11
-58.9138951197480765
 21
6.0757518251904834
 31
0.0
  0
LINE
  5
1E0
100
AcDbEntity
100
AcDbLine
  8
PARAMS
 62
7
370
-1
  6
ByLayer
 10
-58.9138951197480765
 20
6.0757518251904834
 30
0.0
 11
-40.9138951197480836
 21
6.0757518251904834
 31
0.0
  0
LINE
  5
1E1
100
AcDbEntity
100
AcDbLine
  8
PARAMS
 62
7
370
-1
  6
ByLayer
 10
-40.9138951197480836
 20
6.0757518251904834
 30
0.0
 11
-40.9138951197480836
 21
3.0757518251904874
 31
0.0
  0
LINE
  5
1E2
100
AcDbEntity
100
AcDbLine
  8
PARAMS
 62
7
370
-1
  6
ByLayer
 10
-40.9138951197480836
 20
3.0757518251904874
 30
0.0
 11
-58.9138951197480765
 21
3.0757518251904874
 31
0.0
  0
LINE
  5
1E3
100
AcDbEntity
100
AcDbLine
  8
PARAMS
 62
7
370
-1
  6
ByLayer
 10
-58.9138951197480765
 20
-4.424248174809513
 30
0.0
 11
-58.9138951197480765
 21
-4.424248174809513
 31
0.0
  0
LINE
  5
1E4
100
AcDbEntity
100
AcDbLine
  8
PINS
 62
7
370
-1
  6
ByLayer
 10
-81.4138951197480765
 20
-7.4242481748095148
 30
0.0
 11
-81.4138951197480765
 21
-4.424248174809513
 31
0.0
  0
LINE
  5
1E5
100
AcDbEntity
100
AcDbLine
  8
PINS
 62
7
370
-1
  6
ByLayer
 10
-81.4138951197480765
 20
-4.424248174809513
 30
0.0
 11
-61.9138951197480765
 21
-4.424248174809513
 31
0.0
  0
LINE
  5
1E6
100
AcDbEntity
100
AcDbLine
  8
PINS
 62
7
370
-1
  6
ByLayer
 10
-61.9138951197480765
 20
-4.424248174809513
 30
0.0
 11
-60.4138951197480765
 21
-5.924248174809513
 31
0.0
  0
LINE
  5
1E7
100
AcDbEntity
100
AcDbLine
  8
PINS
 62
7
370
-1
  6
ByLayer
 10
-60.4138951197480765
 20
-5.924248174809513
 30
0.0
 11
-61.9138951197480765
 21
-7.4242481748095148
 31
0.0
  0
LINE
  5
1E8
100
AcDbEntity
100
AcDbLine
  8
PINS
 62
7
370
-1
  6
ByLayer
 10
-61.9138951197480765
 20
-7.4242481748095148
 30
0.0
 11
-81.4138951197480765
 21
-7.4242481748095148
 31
0.0
  0
LINE
  5
1E9
100
AcDbEntity
100
AcDbLine
  8
PINS
 62
7
370
-1
  6
ByLayer
 10
-81.4138951197480765
 20
-7.4242481748095148
 30
0.0
 11
-81.4138951197480765
 21
-7.4242481748095148
 31
0.0
  0
MTEXT
  5
1EA
100
AcDbEntity
100
AcDbMText
  8
PARAMS
 62
7
370
-1
  6
ByLayer
 10
-49.9138951197480765
 20
-2.9242481748095117
 30
0.0
 40
1.800
 41
1500.0
 71
5
 72
2
  1
pin-6-out-invert
  7
romand
 50
0.0
 73
0
 44
1.0
  0
MTEXT
  5
1EB
100
AcDbEntity
100
AcDbMText
  8
PINS
 62
7
370
-1
  6
ByLayer
 10
-72.4138951197480765
 20
-5.924248174809513
 30
0.0
 40
1.800
 41
1500.0
 71
5
 72
2
  1
pin-6-out
  7
romand
 50
0.0
 73
0
 44
1.0
  0
ARC
  5
1EC
100
AcDbEntity
  8
INTERNALS
 62
7
370
-1
  6
ByLayer
100
AcDbCircle
 10
-39.8508301197480748
 20
-4.424248174809513
 30
0.0
 40
3.75
100
AcDbArc
 50
323.1301020000000221
 51
396.8698979999999779
  0
ARC
  5
1ED
100
AcDbEntity
  8
INTERNALS
 62
7
370
-1
  6
ByLayer
100
AcDbCircle
 10
-38.6638951197480765
 20
-4.424248174809513
 30
0.0
 40
3.75
100
AcDbArc
 50
323.1301020000000221
 51
396.8698979999999779
  0
ARC
  5
1EE
100
AcDbEntity
  8
INTERNALS
 62
7
370
-1
  6
ByLayer
100
AcDbCircle
 10
-35.1818101197480786
 20
-0.5491181748095149
 30
0.0
 40
6.144075
100
AcDbArc
 50
265.4997520000000009
 51
320.8974289999999883
  0
ARC
  5
1EF
100
AcDbEntity
  8
INTERNALS
 62
7
370
-1
  6
ByLayer
100
AcDbCircle
 10
-35.1818101197480786
 20
-8.299378174809517
 30
0.0
 40
6.144075
100
AcDbArc
 50
39.1025709999999975
 51
94.5002479999999991
  0
LINE
  5
1F0
100
AcDbEntity
100
AcDbLine
  8
INTERNALS
 62
7
370
-1
  6
ByLayer
 10
-36.4138951197480694
 20
-5.924248174809513
 30
0.0
 11
-60.4138951197480765
 21
-5.924248174809513
 31
0.0
  0
LINE
  5
1F1
100
AcDbEntity
100
AcDbLine
  8
INTERNALS
 62
7
370
-1
  6
ByLayer
 10
-40.9138951197480836
 20
-2.9242481748095117
 30
0.0
 11
-36.4138951197480694
 21
-2.9242481748095117
 31
0.0
  0
LINE
  5
1F2
100
AcDbEntity
100
AcDbLine
  8
PARAMS
 62
7
370
-1
  6
ByLayer
 10
-58.9138951197480765
 20
-4.424248174809513
 30
0.0
 11
-58.9138951197480765
 21
-1.424248174809517
 31
0.0
  0
LINE
  5
1F3
100
AcDbEntity
100
AcDbLine
  8
PARAMS
 62
7
370
-1
  6
ByLayer
 10
-58.9138951197480765
 20
-1.424248174809517
 30
0.0
 11
-40.9138951197480836
 21
-1.424248174809517
 31
0.0
  0
LINE
  5
1F4
100
AcDbEntity
100
AcDbLine
  8
PARAMS
 62
7
370
-1
  6
ByLayer
 10
-40.9138951197480836
 20
-1.424248174809517
 30
0.0
 11
-40.9138951197480836
 21
-4.424248174809513
 31
0.0
  0
LINE
  5
1F5
100
AcDbEntity
100
AcDbLine
  8
PARAMS
 62
7
370
-1
  6
ByLayer
 10
-40.9138951197480836
 20
-4.424248174809513
 30
0.0
 11
-58.9138951197480765
 21
-4.424248174809513
 31
0.0
  0
LINE
  5
1F6
100
AcDbEntity
100
AcDbLine
  8
PARAMS
 62
7
370
-1
  6
ByLayer
 10
-58.9138951197480765
 20
-11.924248174809513
 30
0.0
 11
-58.9138951197480765
 21
-11.924248174809513
 31
0.0
  0
LINE
  5
1F7
100
AcDbEntity
100
AcDbLine
  8
PINS
 62
7
370
-1
  6
ByLayer
 10
-81.4138951197480765
 20
-14.924248174809513
 30
0.0
 11
-81.4138951197480765
 21
-11.924248174809513
 31
0.0
  0
LINE
  5
1F8
100
AcDbEntity
100
AcDbLine
  8
PINS
 62
7
370
-1
  6
ByLayer
 10
-81.4138951197480765
 20
-11.924248174809513
 30
0.0
 11
-61.9138951197480765
 21
-11.924248174809513
 31
0.0
  0
LINE
  5
1F9
100
AcDbEntity
100
AcDbLine
  8
PINS
 62
7
370
-1
  6
ByLayer
 10
-61.9138951197480765
 20
-11.924248174809513
 30
0.0
 11
-60.4138951197480765
 21
-13.424248174809513
 31
0.0
  0
LINE
  5
1FA
100
AcDbEntity
100
AcDbLine
  8
PINS
 62
7
370
-1
  6
ByLayer
 10
-60.4138951197480765
 20
-13.424248174809513
 30
0.0
 11
-61.9138951197480765
 21
-14.924248174809513
 31
0.0
  0
LINE
  5
1FB
100
AcDbEntity
100
AcDbLine
  8
PINS
 62
7
370
-1
  6
ByLayer
 10
-61.9138951197480765
 20
-14.924248174809513
 30
0.0
 11
-81.4138951197480765
 21
-14.924248174809513
 31
0.0
  0
LINE
  5
1FC
100
AcDbEntity
100
AcDbLine
  8
PINS
 62
7
370
-1
  6
ByLayer
 10
-81.4138951197480765
 20
-14.924248174809513
 30
0.0
 11
-81.4138951197480765
 21
-14.924248174809513
 31
0.0
  0
MTEXT
  5
1FD
100
AcDbEntity
100
AcDbMText
  8
PARAMS
 62
7
370
-1
  6
ByLayer
 10
-49.9138951197480765
 20
-10.4242481748095113
 30
0.0
 40
1.800
 41
1500.0
 71
5
 72
2
  1
pin-5-out-invert
  7
romand
 50
0.0
 73
0
 44
1.0
  0
MTEXT
  5
1FE
100
AcDbEntity
100
AcDbMText
  8
PINS
 62
7
370
-1
  6
ByLayer
 10
-72.4138951197480765
 20
-13.424248174809513
 30
0.0
 40
1.800
 41
1500.0
 71
5
 72
2
  1
pin-5-out
  7
romand
 50
0.0
 73
0
 44
1.0
  0
ARC
  5
1FF
100
AcDbEntity
  8
INTERNALS
 62
7
370
-1
  6
ByLayer
100
AcDbCircle
 10
-39.8508301197480748
 20
-11.924248174809513
 30
0.0
 40
3.75
100
AcDbArc
 50
323.1301020000000221
 51
396.8698979999999779
  0
ARC
  5
200
100
AcDbEntity
  8
INTERNALS
 62
7
370
-1
  6
ByLayer
100
AcDbCircle
 10
-38.6638951197480765
 20
-11.924248174809513
 30
0.0
 40
3.75
100
AcDbArc
 50
323.1301020000000221
 51
396.8698979999999779
  0
ARC
  5
201
100
AcDbEntity
  8
INTERNALS
 62
7
370
-1
  6
ByLayer
100
AcDbCircle
 10
-35.1818101197480786
 20
-8.0491181748095144
 30
0.0
 40
6.144075
100
AcDbArc
 50
265.4997520000000009
 51
320.8974289999999883
  0
ARC
  5
202
100
AcDbEntity
  8
INTERNALS
 62
7
370
-1
  6
ByLayer
100
AcDbCircle
 10
-35.1818101197480786
 20
-15.7993781748095117
 30
0.0
 40
6.144075
100
AcDbArc
 50
39.1025709999999975
 51
94.5002479999999991
  0
LINE
  5
203
100
AcDbEntity
100
AcDbLine
  8
INTERNALS
 62
7
370
-1
  6
ByLayer
 10
-36.4138951197480694
 20
-13.424248174809513
 30
0.0
 11
-60.4138951197480765
 21
-13.424248174809513
 31
0.0
  0
LINE
  5
204
100
AcDbEntity
100
AcDbLine
  8
INTERNALS
 62
7
370
-1
  6
ByLayer
 10
-40.9138951197480836
 20
-10.4242481748095113
 30
0.0
 11
-36.4138951197480694
 21
-10.4242481748095113
 31
0.0
  0
LINE
  5
205
100
AcDbEntity
100
AcDbLine
  8
PARAMS
 62
7
370
-1
  6
ByLayer
 10
-58.9138951197480765
 20
-11.924248174809513
 30
0.0
 11
-58.9138951197480765
 21
-8.9242481748095166
 31
0.0
  0
LINE
  5
206
100
AcDbEntity
100
AcDbLine
  8
PARAMS
 62
7
370
-1
  6
ByLayer
 10
-58.9138951197480765
 20
-8.9242481748095166
 30
0.0
 11
-40.9138951197480836
 21
-8.9242481748095166
 31
0.0
  0
LINE
  5
207
100
AcDbEntity
100
AcDbLine
  8
PARAMS
 62
7
370
-1
  6
ByLayer
 10
-40.9138951197480836
 20
-8.9242481748095166
 30
0.0
 11
-40.9138951197480836
 21
-11.924248174809513
 31
0.0
  0
LINE
  5
208
100
AcDbEntity
100
AcDbLine
  8
PARAMS
 62
7
370
-1
  6
ByLayer
 10
-40.9138951197480836
 20
-11.924248174809513
 30
0.0
 11
-58.9138951197480765
 21
-11.924248174809513
 31
0.0
  0
LINE
  5
209
100
AcDbEntity
100
AcDbLine
  8
PARAMS
 62
7
370
-1
  6
ByLayer
 10
-58.9138951197480765
 20
-19.424248174809513
 30
0.0
 11
-58.9138951197480765
 21
-19.424248174809513
 31
0.0
  0
LINE
  5
20A
100
AcDbEntity
100
AcDbLine
  8
PINS
 62
7
370
-1
  6
ByLayer
 10
-81.4138951197480765
 20
-22.424248174809513
 30
0.0
 11
-81.4138951197480765
 21
-19.424248174809513
 31
0.0
  0
LINE
  5
20B
100
AcDbEntity
100
AcDbLine
  8
PINS
 62
7
370
-1
  6
ByLayer
 10
-81.4138951197480765
 20
-19.424248174809513
 30
0.0
 11
-61.9138951197480765
 21
-19.424248174809513
 31
0.0
  0
LINE
  5
20C
100
AcDbEntity
100
AcDbLine
  8
PINS
 62
7
370
-1
  6
ByLayer
 10
-61.9138951197480765
 20
-19.424248174809513
 30
0.0
 11
-60.4138951197480765
 21
-20.924248174809513
 31
0.0
  0
LINE
  5
20D
100
AcDbEntity
100
AcDbLine
  8
PINS
 62
7
370
-1
  6
ByLayer
 10
-60.4138951197480765
 20
-20.924248174809513
 30
0.0
 11
-61.9138951197480765
 21
-22.424248174809513
 31
0.0
  0
LINE
  5
20E
100
AcDbEntity
100
AcDbLine
  8
PINS
 62
7
370
-1
  6
ByLayer
 10
-61.9138951197480765
 20
-22.424248174809513
 30
0.0
 11
-81.4138951197480765
 21
-22.424248174809513
 31
0.0
  0
LINE
  5
20F
100
AcDbEntity
100
AcDbLine
  8
PINS
 62
7
370
-1
  6
ByLayer
 10
-81.4138951197480765
 20
-22.424248174809513
 30
0.0
 11
-81.4138951197480765
 21
-22.424248174809513
 31
0.0
  0
MTEXT
  5
210
100
AcDbEntity
100
AcDbMText
  8
PARAMS
 62
7
370
-1
  6
ByLayer
 10
-49.9138951197480765
 20
-17.924248174809513
 30
0.0
 40
1.800
 41
1500.0
 71
5
 72
2
  1
pin-4-out-invert
  7
romand
 50
0.0
 73
0
 44
1.0
  0
MTEXT
  5
211
100
AcDbEntity
100
AcDbMText
  8
PINS
 62
7
370
-1
  6
ByLayer
 10
-72.4138951197480765
 20
-20.924248174809513
 30
0.0
 40
1.800
 41
1500.0
 71
5
 72
2
  1
pin-4-out
  7
romand
 50
0.0
 73
0
 44
1.0
  0
ARC
  5
212
100
AcDbEntity
  8
INTERNALS
 62
7
370
-1
  6
ByLayer
100
AcDbCircle
 10
-39.8508301197480748
 20
-19.424248174809513
 30
0.0
 40
3.75
100
AcDbArc
 50
323.1301020000000221
 51
396.8698979999999779
  0
ARC
  5
213
100
AcDbEntity
  8
INTERNALS
 62
7
370
-1
  6
ByLayer
100
AcDbCircle
 10
-38.6638951197480765
 20
-19.424248174809513
 30
0.0
 40
3.75
100
AcDbArc
 50
323.1301020000000221
 51
396.8698979999999779
  0
ARC
  5
214
100
AcDbEntity
  8
INTERNALS
 62
7
370
-1
  6
ByLayer
100
AcDbCircle
 10
-35.1818101197480786
 20
-15.5491181748095144
 30
0.0
 40
6.144075
100
AcDbArc
 50
265.4997520000000009
 51
320.8974289999999883
  0
ARC
  5
215
100
AcDbEntity
  8
INTERNALS
 62
7
370
-1
  6
ByLayer
100
AcDbCircle
 10
-35.1818101197480786
 20
-23.2993781748095117
 30
0.0
 40
6.144075
100
AcDbArc
 50
39.1025709999999975
 51
94.5002479999999991
  0
LINE
  5
216
100
AcDbEntity
100
AcDbLine
  8
INTERNALS
 62
7
370
-1
  6
ByLayer
 10
-36.4138951197480694
 20
-20.924248174809513
 30
0.0
 11
-60.4138951197480765
 21
-20.924248174809513
 31
0.0
  0
LINE
  5
217
100
AcDbEntity
100
AcDbLine
  8
INTERNALS
 62
7
370
-1
  6
ByLayer
 10
-40.9138951197480836
 20
-17.924248174809513
 30
0.0
 11
-36.4138951197480694
 21
-17.924248174809513
 31
0.0
  0
LINE
  5
218
100
AcDbEntity
100
AcDbLine
  8
PARAMS
 62
7
370
-1
  6
ByLayer
 10
-58.9138951197480765
 20
-19.424248174809513
 30
0.0
 11
-58.9138951197480765
 21
-16.424248174809513
 31
0.0
  0
LINE
  5
219
100
AcDbEntity
100
AcDbLine
  8
PARAMS
 62
7
370
-1
  6
ByLayer
 10
-58.9138951197480765
 20
-16.424248174809513
 30
0.0
 11
-40.9138951197480836
 21
-16.424248174809513
 31
0.0
  0
LINE
  5
21A
100
AcDbEntity
100
AcDbLine
  8
PARAMS
 62
7
370
-1
  6
ByLayer
 10
-40.9138951197480836
 20
-16.424248174809513
 30
0.0
 11
-40.9138951197480836
 21
-19.424248174809513
 31
0.0
  0
LINE
  5
21B
100
AcDbEntity
100
AcDbLine
  8
PARAMS
 62
7
370
-1
  6
ByLayer
 10
-40.9138951197480836
 20
-19.424248174809513
 30
0.0
 11
-58.9138951197480765
 21
-19.424248174809513
 31
0.0
  0
LINE
  5
21C
100
AcDbEntity
100
AcDbLine
  8
PARAMS
 62
7
370
-1
  6
ByLayer
 10
-58.9138951197480765
 20
-26.924248174809513
 30
0.0
 11
-58.9138951197480765
 21
-26.924248174809513
 31
0.0
  0
LINE
  5
21D
100
AcDbEntity
100
AcDbLine
  8
PINS
 62
7
370
-1
  6
ByLayer
 10
-81.4138951197480765
 20
-29.924248174809513
 30
0.0
 11
-81.4138951197480765
 21
-26.924248174809513
 31
0.0
  0
LINE
  5
21E
100
AcDbEntity
100
AcDbLine
  8
PINS
 62
7
370
-1
  6
ByLayer
 10
-81.4138951197480765
 20
-26.924248174809513
 30
0.0
 11
-61.9138951197480765
 21
-26.924248174809513
 31
0.0
  0
LINE
  5
21F
100
AcDbEntity
100
AcDbLine
  8
PINS
 62
7
370
-1
  6
ByLayer
 10
-61.9138951197480765
 20
-26.924248174809513
 30
0.0
 11
-60.4138951197480765
 21
-28.424248174809513
 31
0.0
  0
LINE
  5
220
100
AcDbEntity
100
AcDbLine
  8
PINS
 62
7
370
-1
  6
ByLayer
 10
-60.4138951197480765
 20
-28.424248174809513
 30
0.0
 11
-61.9138951197480765
 21
-29.924248174809513
 31
0.0
  0
LINE
  5
221
100
AcDbEntity
100
AcDbLine
  8
PINS
 62
7
370
-1
  6
ByLayer
 10
-61.9138951197480765
 20
-29.924248174809513
 30
0.0
 11
-81.4138951197480765
 21
-29.924248174809513
 31
0.0
  0
LINE
  5
222
100
AcDbEntity
100
AcDbLine
  8
PINS
 62
7
370
-1
  6
ByLayer
 10
-81.4138951197480765
 20
-29.924248174809513
 30
0.0
 11
-81.4138951197480765
 21
-29.924248174809513
 31
0.0
  0
MTEXT
  5
223
100
AcDbEntity
100
AcDbMText
  8
PARAMS
 62
7
370
-1
  6
ByLayer
 10
-49.9138951197480765
 20
-25.424248174809513
 30
0.0
 40
1.800
 41
1500.0
 71
5
 72
2
  1
pin-3-out-invert
  7
romand
 50
0.0
 73
0
 44
1.0
  0
MTEXT
  5
224
100
AcDbEntity
100
AcDbMText
  8
PINS
 62
7
370
-1
  6
ByLayer
 10
-72.4138951197480765
 20
-28.424248174809513
 30
0.0
 40
1.800
 41
1500.0
 71
5
 72
2
  1
pin-3-out
  7
romand
 50
0.0
 73
0
 44
1.0
  0
ARC
  5
225
100
AcDbEntity
  8
INTERNALS
 62
7
370
-1
  6
ByLayer
100
AcDbCircle
 10
-39.8508301197480748
 20
-26.924248174809513
 30
0.0
 40
3.75
100
AcDbArc
 50
323.1301020000000221
 51
396.8698979999999779
  0
ARC
  5
226
100
AcDbEntity
  8
INTERNALS
 62
7
370
-1
  6
ByLayer
100
AcDbCircle
 10
-38.6638951197480765
 20
-26.924248174809513
 30
0.0
 40
3.75
100
AcDbArc
 50
323.1301020000000221
 51
396.8698979999999779
  0
ARC
  5
227
100
AcDbEntity
  8
INTERNALS
 62
7
370
-1
  6
ByLayer
100
AcDbCircle
 10
-35.1818101197480786
 20
-23.0491181748095144
 30
0.0
 40
6.144075
100
AcDbArc
 50
265.4997520000000009
 51
320.8974289999999883
  0
ARC
  5
228
100
AcDbEntity
  8
INTERNALS
 62
7
370
-1
  6
ByLayer
100
AcDbCircle
 10
-35.1818101197480786
 20
-30.7993781748095117
 30
0.0
 40
6.144075
100
AcDbArc
 50
39.1025709999999975
 51
94.5002479999999991
  0
LINE
  5
229
100
AcDbEntity
100
AcDbLine
  8
INTERNALS
 62
7
370
-1
  6
ByLayer
 10
-36.4138951197480694
 20
-28.424248174809513
 30
0.0
 11
-60.4138951197480765
 21
-28.424248174809513
 31
0.0
  0
LINE
  5
22A
100
AcDbEntity
100
AcDbLine
  8
INTERNALS
 62
7
370
-1
  6
ByLayer
 10
-40.9138951197480836
 20
-25.424248174809513
 30
0.0
 11
-36.4138951197480694
 21
-25.424248174809513
 31
0.0
  0
LINE
  5
22B
100
AcDbEntity
100
AcDbLine
  8
PARAMS
 62
7
370
-1
  6
ByLayer
 10
-58.9138951197480765
 20
-26.924248174809513
 30
0.0
 11
-58.9138951197480765
 21
-23.924248174809513
 31
0.0
  0
LINE
  5
22C
100
AcDbEntity
100
AcDbLine
  8
PARAMS
 62
7
370
-1
  6
ByLayer
 10
-58.9138951197480765
 20
-23.924248174809513
 30
0.0
 11
-40.9138951197480836
 21
-23.924248174809513
 31
0.0
  0
LINE
  5
22D
100
AcDbEntity
100
AcDbLine
  8
PARAMS
 62
7
370
-1
  6
ByLayer
 10
-40.9138951197480836
 20
-23.924248174809513
 30
0.0
 11
-40.9138951197480836
 21
-26.924248174809513
 31
0.0
  0
LINE
  5
22E
100
AcDbEntity
100
AcDbLine
  8
PARAMS
 62
7
370
-1
  6
ByLayer
 10
-40.9138951197480836
 20
-26.924248174809513
 30
0.0
 11
-58.9138951197480765
 21
-26.924248174809513
 31
0.0
  0
LINE
  5
22F
100
AcDbEntity
100
AcDbLine
  8
PARAMS
 62
7
370
-1
  6
ByLayer
 10
-58.9138951197480765
 20
-34.424248174809513
 30
0.0
 11
-58.9138951197480765
 21
-34.424248174809513
 31
0.0
  0
LINE
  5
230
100
AcDbEntity
100
AcDbLine
  8
PINS
 62
7
370
-1
  6
ByLayer
 10
-81.4138951197480765
 20
-37.424248174809513
 30
0.0
 11
-81.4138951197480765
 21
-34.424248174809513
 31
0.0
  0
LINE
  5
231
100
AcDbEntity
100
AcDbLine
  8
PINS
 62
7
370
-1
  6
ByLayer
 10
-81.4138951197480765
 20
-34.424248174809513
 30
0.0
 11
-61.9138951197480765
 21
-34.424248174809513
 31
0.0
  0
LINE
  5
232
100
AcDbEntity
100
AcDbLine
  8
PINS
 62
7
370
-1
  6
ByLayer
 10
-61.9138951197480765
 20
-34.424248174809513
 30
0.0
 11
-60.4138951197480765
 21
-35.924248174809513
 31
0.0
  0
LINE
  5
233
100
AcDbEntity
100
AcDbLine
  8
PINS
 62
7
370
-1
  6
ByLayer
 10
-60.4138951197480765
 20
-35.924248174809513
 30
0.0
 11
-61.9138951197480765
 21
-37.424248174809513
 31
0.0
  0
LINE
  5
234
100
AcDbEntity
100
AcDbLine
  8
PINS
 62
7
370
-1
  6
ByLayer
 10
-61.9138951197480765
 20
-37.424248174809513
 30
0.0
 11
-81.4138951197480765
 21
-37.424248174809513
 31
0.0
  0
LINE
  5
235
100
AcDbEntity
100
AcDbLine
  8
PINS
 62
7
370
-1
  6
ByLayer
 10
-81.4138951197480765
 20
-37.424248174809513
 30
0.0
 11
-81.4138951197480765
 21
-37.424248174809513
 31
0.0
  0
MTEXT
  5
236
100
AcDbEntity
100
AcDbMText
  8
PARAMS
 62
7
370
-1
  6
ByLayer
 10
-49.9138951197480765
 20
-32.9242481748095202
 30
0.0
 40
1.800
 41
1500.0
 71
5
 72
2
  1
pin-2-out-invert
  7
romand
 50
0.0
 73
0
 44
1.0
  0
MTEXT
  5
237
100
AcDbEntity
100
AcDbMText
  8
PINS
 62
7
370
-1
  6
ByLayer
 10
-72.4138951197480765
 20
-35.924248174809513
 30
0.0
 40
1.800
 41
1500.0
 71
5
 72
2
  1
pin-2-out
  7
romand
 50
0.0
 73
0
 44
1.0
  0
ARC
  5
238
100
AcDbEntity
  8
INTERNALS
 62
7
370
-1
  6
ByLayer
100
AcDbCircle
 10
-39.8508301197480748
 20
-34.424248174809513
 30
0.0
 40
3.75
100
AcDbArc
 50
323.1301020000000221
 51
396.8698979999999779
  0
ARC
  5
239
100
AcDbEntity
  8
INTERNALS
 62
7
370
-1
  6
ByLayer
100
AcDbCircle
 10
-38.6638951197480765
 20
-34.424248174809513
 30
0.0
 40
3.75
100
AcDbArc
 50
323.1301020000000221
 51
396.8698979999999779
  0
ARC
  5
23A
100
AcDbEntity
  8
INTERNALS
 62
7
370
-1
  6
ByLayer
100
AcDbCircle
 10
-35.1818101197480786
 20
-30.5491181748095144
 30
0.0
 40
6.144075
100
AcDbArc
 50
265.4997520000000009
 51
320.8974289999999883
  0
ARC
  5
23B
100
AcDbEntity
  8
INTERNALS
 62
7
370
-1
  6
ByLayer
100
AcDbCircle
 10
-35.1818101197480786
 20
-38.2993781748095117
 30
0.0
 40
6.144075
100
AcDbArc
 50
39.1025709999999975
 51
94.5002479999999991
  0
LINE
  5
23C
100
AcDbEntity
100
AcDbLine
  8
INTERNALS
 62
7
370
-1
  6
ByLayer
 10
-36.4138951197480694
 20
-35.924248174809513
 30
0.0
 11
-60.4138951197480765
 21
-35.924248174809513
 31
0.0
  0
LINE
  5
23D
100
AcDbEntity
100
AcDbLine
  8
INTERNALS
 62
7
370
-1
  6
ByLayer
 10
-40.9138951197480836
 20
-32.9242481748095202
 30
0.0
 11
-36.4138951197480694
 21
-32.9242481748095202
 31
0.0
  0
LINE
  5
23E
100
AcDbEntity
100
AcDbLine
  8
PARAMS
 62
7
370
-1
  6
ByLayer
 10
-58.9138951197480765
 20
-34.424248174809513
 30
0.0
 11
-58.9138951197480765
 21
-31.4242481748095059
 31
0.0
  0
LINE
  5
23F
100
AcDbEntity
100
AcDbLine
  8
PARAMS
 62
7
370
-1
  6
ByLayer
 10
-58.9138951197480765
 20
-31.4242481748095059
 30
0.0
 11
-40.9138951197480836
 21
-31.4242481748095059
 31
0.0
  0
LINE
  5
240
100
AcDbEntity
100
AcDbLine
  8
PARAMS
 62
7
370
-1
  6
ByLayer
 10
-40.9138951197480836
 20
-31.4242481748095059
 30
0.0
 11
-40.9138951197480836
 21
-34.424248174809513
 31
0.0
  0
LINE
  5
241
100
AcDbEntity
100
AcDbLine
  8
PARAMS
 62
7
370
-1
  6
ByLayer
 10
-40.9138951197480836
 20
-34.424248174809513
 30
0.0
 11
-58.9138951197480765
 21
-34.424248174809513
 31
0.0
  0
LINE
  5
242
100
AcDbEntity
100
AcDbLine
  8
PARAMS
 62
7
370
-1
  6
ByLayer
 10
-58.9138951197480765
 20
18.0757518251904798
 30
0.0
 11
-58.9138951197480765
 21
18.0757518251904798
 31
0.0
  0
LINE
  5
243
100
AcDbEntity
100
AcDbLine
  8
PINS
 62
7
370
-1
  6
ByLayer
 10
-81.4138951197480765
 20
15.0757518251904852
 30
0.0
 11
-81.4138951197480765
 21
18.0757518251904798
 31
0.0
  0
LINE
  5
244
100
AcDbEntity
100
AcDbLine
  8
PINS
 62
7
370
-1
  6
ByLayer
 10
-81.4138951197480765
 20
18.0757518251904798
 30
0.0
 11
-61.9138951197480765
 21
18.0757518251904798
 31
0.0
  0
LINE
  5
245
100
AcDbEntity
100
AcDbLine
  8
PINS
 62
7
370
-1
  6
ByLayer
 10
-61.9138951197480765
 20
18.0757518251904798
 30
0.0
 11
-60.4138951197480765
 21
16.575751825190487
 31
0.0
  0
LINE
  5
246
100
AcDbEntity
100
AcDbLine
  8
PINS
 62
7
370
-1
  6
ByLayer
 10
-60.4138951197480765
 20
16.575751825190487
 30
0.0
 11
-61.9138951197480765
 21
15.0757518251904852
 31
0.0
  0
LINE
  5
247
100
AcDbEntity
100
AcDbLine
  8
PINS
 62
7
370
-1
  6
ByLayer
 10
-61.9138951197480765
 20
15.0757518251904852
 30
0.0
 11
-81.4138951197480765
 21
15.0757518251904852
 31
0.0
  0
LINE
  5
248
100
AcDbEntity
100
AcDbLine
  8
PINS
 62
7
370
-1
  6
ByLayer
 10
-81.4138951197480765
 20
15.0757518251904852
 30
0.0
 11
-81.4138951197480765
 21
15.0757518251904852
 31
0.0
  0
MTEXT
  5
249
100
AcDbEntity
100
AcDbMText
  8
PINS
 62
7
370
-1
  6
ByLayer
 10
-72.4138951197480765
 20
16.575751825190487
 30
0.0
 40
1.800
 41
1500.0
 71
5
 72
2
  1
pin-9-out
  7
romand
 50
0.0
 73
0
 44
1.0
  0
ARC
  5
24A
100
AcDbEntity
  8
INTERNALS
 62
7
370
-1
  6
ByLayer
100
AcDbCircle
 10
-39.8508301197480748
 20
18.0757518251904798
 30
0.0
 40
3.75
100
AcDbArc
 50
323.1301020000000221
 51
396.8698979999999779
  0
ARC
  5
24B
100
AcDbEntity
  8
INTERNALS
 62
7
370
-1
  6
ByLayer
100
AcDbCircle
 10
-38.6638951197480765
 20
18.0757518251904798
 30
0.0
 40
3.75
100
AcDbArc
 50
323.1301020000000221
 51
396.8698979999999779
  0
ARC
  5
24C
100
AcDbEntity
  8
INTERNALS
 62
7
370
-1
  6
ByLayer
100
AcDbCircle
 10
-35.1818101197480786
 20
21.9508818251904927
 30
0.0
 40
6.144075
100
AcDbArc
 50
265.4997520000000009
 51
320.8974289999999883
  0
ARC
  5
24D
100
AcDbEntity
  8
INTERNALS
 62
7
370
-1
  6
ByLayer
100
AcDbCircle
 10
-35.1818101197480786
 20
14.200621825190483
 30
0.0
 40
6.144075
100
AcDbArc
 50
39.1025709999999975
 51
94.5002479999999991
  0
LINE
  5
24E
100
AcDbEntity
100
AcDbLine
  8
INTERNALS
 62
7
370
-1
  6
ByLayer
 10
-36.4138951197480694
 20
16.575751825190487
 30
0.0
 11
-60.4138951197480765
 21
16.575751825190487
 31
0.0
  0
LINE
  5
24F
100
AcDbEntity
100
AcDbLine
  8
INTERNALS
 62
7
370
-1
  6
ByLayer
 10
-40.9138951197480836
 20
19.5757518251904905
 30
0.0
 11
-36.4138951197480694
 21
19.5757518251904905
 31
0.0
  0
LINE
  5
250
100
AcDbEntity
100
AcDbLine
  8
PARAMS
 62
7
370
-1
  6
ByLayer
 10
-58.9138951197480765
 20
18.0757518251904798
 30
0.0
 11
-58.9138951197480765
 21
21.0757518251904834
 31
0.0
  0
LINE
  5
251
100
AcDbEntity
100
AcDbLine
  8
PARAMS
 62
7
370
-1
  6
ByLayer
 10
-58.9138951197480765
 20
21.0757518251904834
 30
0.0
 11
-40.9138951197480836
 21
21.0757518251904834
 31
0.0
  0
LINE
  5
252
100
AcDbEntity
100
AcDbLine
  8
PARAMS
 62
7
370
-1
  6
ByLayer
 10
-40.9138951197480836
 20
21.0757518251904834
 30
0.0
 11
-40.9138951197480836
 21
18.0757518251904798
 31
0.0
  0
LINE
  5
253
100
AcDbEntity
100
AcDbLine
  8
PARAMS
 62
7
370
-1
  6
ByLayer
 10
-40.9138951197480836
 20
18.0757518251904798
 30
0.0
 11
-58.9138951197480765
 21
18.0757518251904798
 31
0.0
  0
LINE
  5
254
100
AcDbEntity
100
AcDbLine
  8
PINS
 62
7
370
-1
  6
ByLayer
 10
-58.9138951197480765
 20
-41.924248174809513
 30
0.0
 11
-58.9138951197480765
 21
-41.924248174809513
 31
0.0
  0
LWPOLYLINE
  5
255
  8
PINS
 62
7
370
-1
  6
ByLayer
100
AcDbEntity
100
AcDbPolyline
 90
7
 70
1
 10
-81.4138951197480765
 20
-44.924248174809513
 10
-81.4138951197480765
 20
-41.924248174809513
 10
-61.9138951197480765
 20
-41.924248174809513
 10
-60.4138951197480765
 20
-43.424248174809513
 10
-61.9138951197480765
 20
-44.924248174809513
 10
-81.4138951197480765
 20
-44.924248174809513
 10
-81.4138951197480765
 20
-44.924248174809513
  0
MTEXT
  5
256
100
AcDbEntity
100
AcDbMText
  8
PARAMS
 62
7
370
-1
  6
ByLayer
 10
-49.9138951197480765
 20
-40.424248174809513
 30
0.0
 40
1.800
 41
1500.0
 71
5
 72
2
  1
pin-17-out-invert
  7
romand
 50
0.0
 73
0
 44
1.0
  0
MTEXT
  5
257
100
AcDbEntity
100
AcDbMText
  8
PINS
 62
7
370
-1
  6
ByLayer
 10
-72.4138951197480765
 20
-43.424248174809513
 30
0.0
 40
1.800
 41
1500.0
 71
5
 72
2
  1
pin-17-out
  7
romand
 50
0.0
 73
0
 44
1.0
  0
ARC
  5
258
100
AcDbEntity
  8
INTERNALS
 62
7
370
-1
  6
ByLayer
100
AcDbCircle
 10
-39.8508301197480748
 20
-41.924248174809513
 30
0.0
 40
3.75
100
AcDbArc
 50
323.1301020000000221
 51
396.8698979999999779
  0
ARC
  5
259
100
AcDbEntity
  8
INTERNALS
 62
7
370
-1
  6
ByLayer
100
AcDbCircle
 10
-38.6638951197480765
 20
-41.924248174809513
 30
0.0
 40
3.75
100
AcDbArc
 50
323.1301020000000221
 51
396.8698979999999779
  0
ARC
  5
25A
100
AcDbEntity
  8
INTERNALS
 62
7
370
-1
  6
ByLayer
100
AcDbCircle
 10
-35.1818101197480786
 20
-38.0491181748095144
 30
0.0
 40
6.144075
100
AcDbArc
 50
265.4997520000000009
 51
320.8974289999999883
  0
ARC
  5
25B
100
AcDbEntity
  8
INTERNALS
 62
7
370
-1
  6
ByLayer
100
AcDbCircle
 10
-35.1818101197480786
 20
-45.7993781748095188
 30
0.0
 40
6.144075
100
AcDbArc
 50
39.1025709999999975
 51
94.5002479999999991
  0
LINE
  5
25C
100
AcDbEntity
100
AcDbLine
  8
INTERNALS
 62
7
370
-1
  6
ByLayer
 10
-36.4138951197480694
 20
-43.424248174809513
 30
0.0
 11
-60.4138951197480765
 21
-43.424248174809513
 31
0.0
  0
LINE
  5
25D
100
AcDbEntity
100
AcDbLine
  8
INTERNALS
 62
7
370
-1
  6
ByLayer
 10
-40.9138951197480836
 20
-40.424248174809513
 30
0.0
 11
-36.4138951197480694
 21
-40.424248174809513
 31
0.0
  0
LWPOLYLINE
  5
25E
  8
PARAMS
 62
7
370
-1
  6
ByLayer
100
AcDbEntity
100
AcDbPolyline
 90
5
 70
1
 10
-58.9138951197480765
 20
-41.924248174809513
 10
-58.9138951197480765
 20
-38.924248174809513
 10
-40.9138951197480836
 20
-38.924248174809513
 10
-40.9138951197480836
 20
-41.924248174809513
 10
-58.9138951197480765
 20
-41.924248174809513
  0
LINE
  5
25F
100
AcDbEntity
100
AcDbLine
  8
PINS
 62
7
370
-1
  6
ByLayer
 10
-58.9138951197480765
 20
-49.424248174809513
 30
0.0
 11
-58.9138951197480765
 21
-49.424248174809513
 31
0.0
  0
LWPOLYLINE
  5
260
  8
PINS
 62
7
370
-1
  6
ByLayer
100
AcDbEntity
100
AcDbPolyline
 90
7
 70
1
 10
-81.4138951197480765
 20
-52.424248174809513
 10
-81.4138951197480765
 20
-49.424248174809513
 10
-61.9138951197480765
 20
-49.424248174809513
 10
-60.4138951197480765
 20
-50.924248174809513
 10
-61.9138951197480765
 20
-52.424248174809513
 10
-81.4138951197480765
 20
-52.424248174809513
 10
-81.4138951197480765
 20
-52.424248174809513
  0
MTEXT
  5
261
100
AcDbEntity
100
AcDbMText
  8
PARAMS
 62
7
370
-1
  6
ByLayer
 10
-49.9138951197480765
 20
-47.924248174809513
 30
0.0
 40
1.800
 41
1500.0
 71
5
 72
2
  1
pin-16-out-invert
  7
romand
 50
0.0
 73
0
 44
1.0
  0
MTEXT
  5
262
100
AcDbEntity
100
AcDbMText
  8
PINS
 62
7
370
-1
  6
ByLayer
 10
-72.4138951197480765
 20
-50.924248174809513
 30
0.0
 40
1.800
 41
1500.0
 71
5
 72
2
  1
pin-16-out
  7
romand
 50
0.0
 73
0
 44
1.0
  0
ARC
  5
263
100
AcDbEntity
  8
INTERNALS
 62
7
370
-1
  6
ByLayer
100
AcDbCircle
 10
-39.8508301197480748
 20
-49.424248174809513
 30
0.0
 40
3.75
100
AcDbArc
 50
323.1301020000000221
 51
396.8698979999999779
  0
ARC
  5
264
100
AcDbEntity
  8
INTERNALS
 62
7
370
-1
  6
ByLayer
100
AcDbCircle
 10
-38.6638951197480765
 20
-49.424248174809513
 30
0.0
 40
3.75
100
AcDbArc
 50
323.1301020000000221
 51
396.8698979999999779
  0
ARC
  5
265
100
AcDbEntity
  8
INTERNALS
 62
7
370
-1
  6
ByLayer
100
AcDbCircle
 10
-35.1818101197480786
 20
-45.5491181748095144
 30
0.0
 40
6.144075
100
AcDbArc
 50
265.4997520000000009
 51
320.8974289999999883
  0
ARC
  5
266
100
AcDbEntity
  8
INTERNALS
 62
7
370
-1
  6
ByLayer
100
AcDbCircle
 10
-35.1818101197480786
 20
-53.2993781748095117
 30
0.0
 40
6.144075
100
AcDbArc
 50
39.1025709999999975
 51
94.5002479999999991
  0
LINE
  5
267
100
AcDbEntity
100
AcDbLine
  8
INTERNALS
 62
7
370
-1
  6
ByLayer
 10
-36.4138951197480694
 20
-50.924248174809513
 30
0.0
 11
-60.4138951197480765
 21
-50.924248174809513
 31
0.0
  0
LINE
  5
268
100
AcDbEntity
100
AcDbLine
  8
INTERNALS
 62
7
370
-1
  6
ByLayer
 10
-40.9138951197480836
 20
-47.924248174809513
 30
0.0
 11
-36.4138951197480694
 21
-47.924248174809513
 31
0.0
  0
LWPOLYLINE
  5
269
  8
PARAMS
 62
7
370
-1
  6
ByLayer
100
AcDbEntity
100
AcDbPolyline
 90
5
 70
1
 10
-58.9138951197480765
 20
-49.424248174809513
 10
-58.9138951197480765
 20
-46.424248174809513
 10
-40.9138951197480836
 20
-46.424248174809513
 10
-40.9138951197480836
 20
-49.424248174809513
 10
-58.9138951197480765
 20
-49.424248174809513
  0
LINE
  5
26A
100
AcDbEntity
100
AcDbLine
  8
PINS
 62
7
370
-1
  6
ByLayer
 10
-58.9138951197480765
 20
-56.924248174809513
 30
0.0
 11
-58.9138951197480765
 21
-56.924248174809513
 31
0.0
  0
LWPOLYLINE
  5
26B
  8
PINS
 62
7
370
-1
  6
ByLayer
100
AcDbEntity
100
AcDbPolyline
 90
7
 70
1
 10
-81.4138951197480765
 20
-59.924248174809513
 10
-81.4138951197480765
 20
-56.924248174809513
 10
-61.9138951197480765
 20
-56.924248174809513
 10
-60.4138951197480765
 20
-58.4242481748095202
 10
-61.9138951197480765
 20
-59.924248174809513
 10
-81.4138951197480765
 20
-59.924248174809513
 10
-81.4138951197480765
 20
-59.924248174809513
  0
MTEXT
  5
26C
100
AcDbEntity
100
AcDbMText
  8
PARAMS
 62
7
370
-1
  6
ByLayer
 10
-49.9138951197480765
 20
-55.4242481748095202
 30
0.0
 40
1.800
 41
1500.0
 71
5
 72
2
  1
pin-14-out-invert
  7
romand
 50
0.0
 73
0
 44
1.0
  0
MTEXT
  5
26D
100
AcDbEntity
100
AcDbMText
  8
PINS
 62
7
370
-1
  6
ByLayer
 10
-72.4138951197480765
 20
-58.4242481748095202
 30
0.0
 40
1.800
 41
1500.0
 71
5
 72
2
  1
pin-14-out
  7
romand
 50
0.0
 73
0
 44
1.0
  0
ARC
  5
26E
100
AcDbEntity
  8
INTERNALS
 62
7
370
-1
  6
ByLayer
100
AcDbCircle
 10
-39.8508301197480748
 20
-56.924248174809513
 30
0.0
 40
3.75
100
AcDbArc
 50
323.1301020000000221
 51
396.8698979999999779
  0
ARC
  5
26F
100
AcDbEntity
  8
INTERNALS
 62
7
370
-1
  6
ByLayer
100
AcDbCircle
 10
-38.6638951197480765
 20
-56.924248174809513
 30
0.0
 40
3.75
100
AcDbArc
 50
323.1301020000000221
 51
396.8698979999999779
  0
ARC
  5
270
100
AcDbEntity
  8
INTERNALS
 62
7
370
-1
  6
ByLayer
100
AcDbCircle
 10
-35.1818101197480786
 20
-53.0491181748095144
 30
0.0
 40
6.144075
100
AcDbArc
 50
265.4997520000000009
 51
320.8974289999999883
  0
ARC
  5
271
100
AcDbEntity
  8
INTERNALS
 62
7
370
-1
  6
ByLayer
100
AcDbCircle
 10
-35.1818101197480786
 20
-60.7993781748095117
 30
0.0
 40
6.144075
100
AcDbArc
 50
39.1025709999999975
 51
94.5002479999999991
  0
LINE
  5
272
100
AcDbEntity
100
AcDbLine
  8
INTERNALS
 62
7
370
-1
  6
ByLayer
 10
-36.4138951197480694
 20
-58.4242481748095202
 30
0.0
 11
-60.4138951197480765
 21
-58.4242481748095202
 31
0.0
  0
LINE
  5
273
100
AcDbEntity
100
AcDbLine
  8
INTERNALS
 62
7
370
-1
  6
ByLayer
 10
-40.9138951197480836
 20
-55.4242481748095202
 30
0.0
 11
-36.4138951197480694
 21
-55.4242481748095202
 31
0.0
  0
LWPOLYLINE
  5
274
  8
PARAMS
 62
7
370
-1
  6
ByLayer
100
AcDbEntity
100
AcDbPolyline
 90
5
 70
1
 10
-58.9138951197480765
 20
-56.924248174809513
 10
-58.9138951197480765
 20
-53.9242481748095059
 10
-40.9138951197480836
 20
-53.9242481748095059
 10
-40.9138951197480836
 20
-56.924248174809513
 10
-58.9138951197480765
 20
-56.924248174809513
  0
LINE
  5
275
100
AcDbEntity
100
AcDbLine
  8
PINS
 62
7
370
-1
  6
ByLayer
 10
-58.9138951197480765
 20
-64.4242481748095059
 30
0.0
 11
-58.9138951197480765
 21
-64.4242481748095059
 31
0.0
  0
LWPOLYLINE
  5
276
  8
PINS
 62
7
370
-1
  6
ByLayer
100
AcDbEntity
100
AcDbPolyline
 90
7
 70
1
 10
-81.4138951197480765
 20
-67.4242481748095202
 10
-81.4138951197480765
 20
-64.4242481748095059
 10
-61.9138951197480765
 20
-64.4242481748095059
 10
-60.4138951197480765
 20
-65.9242481748095202
 10
-61.9138951197480765
 20
-67.4242481748095202
 10
-81.4138951197480765
 20
-67.4242481748095202
 10
-81.4138951197480765
 20
-67.4242481748095202
  0
MTEXT
  5
277
100
AcDbEntity
100
AcDbMText
  8
PARAMS
 62
7
370
-1
  6
ByLayer
 10
-49.9138951197480765
 20
-62.9242481748095202
 30
0.0
 40
1.800
 41
1500.0
 71
5
 72
2
  1
pin-1-out-invert
  7
romand
 50
0.0
 73
0
 44
1.0
  0
MTEXT
  5
278
100
AcDbEntity
100
AcDbMText
  8
PINS
 62
7
370
-1
  6
ByLayer
 10
-72.4138951197480765
 20
-65.9242481748095202
 30
0.0
 40
1.800
 41
1500.0
 71
5
 72
2
  1
pin-1-out
  7
romand
 50
0.0
 73
0
 44
1.0
  0
ARC
  5
279
100
AcDbEntity
  8
INTERNALS
 62
7
370
-1
  6
ByLayer
100
AcDbCircle
 10
-39.8508301197480748
 20
-64.4242481748095059
 30
0.0
 40
3.75
100
AcDbArc
 50
323.1301020000000221
 51
396.8698979999999779
  0
ARC
  5
27A
100
AcDbEntity
  8
INTERNALS
 62
7
370
-1
  6
ByLayer
100
AcDbCircle
 10
-38.6638951197480765
 20
-64.4242481748095059
 30
0.0
 40
3.75
100
AcDbArc
 50
323.1301020000000221
 51
396.8698979999999779
  0
ARC
  5
27B
100
AcDbEntity
  8
INTERNALS
 62
7
370
-1
  6
ByLayer
100
AcDbCircle
 10
-35.1818101197480786
 20
-60.5491181748095144
 30
0.0
 40
6.144075
100
AcDbArc
 50
265.4997520000000009
 51
320.8974289999999883
  0
ARC
  5
27C
100
AcDbEntity
  8
INTERNALS
 62
7
370
-1
  6
ByLayer
100
AcDbCircle
 10
-35.1818101197480786
 20
-68.2993781748095046
 30
0.0
 40
6.144075
100
AcDbArc
 50
39.1025709999999975
 51
94.5002479999999991
  0
LINE
  5
27D
100
AcDbEntity
100
AcDbLine
  8
INTERNALS
 62
7
370
-1
  6
ByLayer
 10
-36.4138951197480694
 20
-65.9242481748095202
 30
0.0
 11
-60.4138951197480765
 21
-65.9242481748095202
 31
0.0
  0
LINE
  5
27E
100
AcDbEntity
100
AcDbLine
  8
INTERNALS
 62
7
370
-1
  6
ByLayer
 10
-40.9138951197480836
 20
-62.9242481748095202
 30
0.0
 11
-36.4138951197480694
 21
-62.9242481748095202
 31
0.0
  0
LWPOLYLINE
  5
27F
  8
PARAMS
 62
7
370
-1
  6
ByLayer
100
AcDbEntity
100
AcDbPolyline
 90
5
 70
1
 10
-58.9138951197480765
 20
-64.4242481748095059
 10
-58.9138951197480765
 20
-61.4242481748095059
 10
-40.9138951197480836
 20
-61.4242481748095059
 10
-40.9138951197480836
 20
-64.4242481748095059
 10
-58.9138951197480765
 20
-64.4242481748095059
  0
LINE
  5
280
100
AcDbEntity
100
AcDbLine
  8
OUTLINE
 62
7
370
-1
  6
ByLayer
 10
-78.4138951197480765
 20
7.5757518251904852
 30
0.0
 11
-78.4138951197480765
 21
3.0757518251904874
 31
0.0
  0
LINE
  5
281
100
AcDbEntity
100
AcDbLine
  8
OUTLINE
 62
7
370
-1
  6
ByLayer
 10
-78.4138951197480765
 20
0.0757518251904847
 30
0.0
 11
-78.4138951197480765
 21
-4.424248174809513
 31
0.0
  0
LINE
  5
282
100
AcDbEntity
100
AcDbLine
  8
OUTLINE
 62
7
370
-1
  6
ByLayer
 10
-78.4138951197480765
 20
-7.4242481748095148
 30
0.0
 11
-78.4138951197480765
 21
-11.924248174809513
 31
0.0
  0
LINE
  5
283
100
AcDbEntity
100
AcDbLine
  8
OUTLINE
 62
7
370
-1
  6
ByLayer
 10
-78.4138951197480765
 20
-14.924248174809513
 30
0.0
 11
-78.4138951197480765
 21
-19.424248174809513
 31
0.0
  0
LINE
  5
284
100
AcDbEntity
100
AcDbLine
  8
OUTLINE
 62
7
370
-1
  6
ByLayer
 10
-78.4138951197480765
 20
-22.424248174809513
 30
0.0
 11
-78.4138951197480765
 21
-26.924248174809513
 31
0.0
  0
LINE
  5
285
100
AcDbEntity
100
AcDbLine
  8
OUTLINE
 62
7
370
-1
  6
ByLayer
 10
-78.4138951197480765
 20
-37.424248174809513
 30
0.0
 11
-78.4138951197480765
 21
-41.924248174809513
 31
0.0
  0
LINE
  5
286
100
AcDbEntity
100
AcDbLine
  8
OUTLINE
 62
7
370
-1
  6
ByLayer
 10
-78.4138951197480765
 20
-44.924248174809513
 30
0.0
 11
-78.4138951197480765
 21
-49.424248174809513
 31
0.0
  0
LINE
  5
287
100
AcDbEntity
100
AcDbLine
  8
OUTLINE
 62
7
370
-1
  6
ByLayer
 10
-78.4138951197480765
 20
-52.424248174809513
 30
0.0
 11
-78.4138951197480765
 21
-56.924248174809513
 31
0.0
  0
LINE
  5
288
100
AcDbEntity
100
AcDbLine
  8
OUTLINE
 62
7
370
-1
  6
ByLayer
 10
-78.4138951197480765
 20
-59.924248174809513
 30
0.0
 11
-78.4138951197480765
 21
-64.4242481748095059
 31
0.0
  0
LINE
  5
289
100
AcDbEntity
100
AcDbLine
  8
OUTLINE
 62
7
370
-1
  6
ByLayer
 10
-78.4138951197480765
 20
-29.924248174809513
 30
0.0
 11
-78.4138951197480765
 21
-34.424248174809513
 31
0.0
  0
LINE
  5
28A
100
AcDbEntity
100
AcDbLine
  8
OUTLINE
 62
7
370
-1
  6
ByLayer
 10
-78.4138951197480765
 20
15.0757518251904852
 30
0.0
 11
-78.4138951197480765
 21
10.575751825190487
 31
0.0
  0
LINE
  5
28B
100
AcDbEntity
100
AcDbLine
  8
OUTLINE
 62
7
370
-1
  6
ByLayer
 10
-78.4138951197480765
 20
54.075751825190487
 30
0.0
 11
-78.4138951197480765
 21
52.5757518251904941
 31
0.0
  0
LINE
  5
28C
100
AcDbEntity
100
AcDbLine
  8
OUTLINE
 62
7
370
-1
  6
ByLayer
 10
-78.4138951197480765
 20
46.575751825190487
 30
0.0
 11
-78.4138951197480765
 21
45.0757518251904941
 31
0.0
  0
LINE
  5
28D
100
AcDbEntity
100
AcDbLine
  8
OUTLINE
 62
7
370
-1
  6
ByLayer
 10
-78.4138951197480765
 20
39.075751825190487
 30
0.0
 11
-78.4138951197480765
 21
37.5757518251904941
 31
0.0
  0
LINE
  5
28E
100
AcDbEntity
100
AcDbLine
  8
OUTLINE
 62
7
370
-1
  6
ByLayer
 10
-78.4138951197480765
 20
31.575751825190487
 30
0.0
 11
-78.4138951197480765
 21
30.0757518251904905
 31
0.0
  0
LINE
  5
28F
100
AcDbEntity
100
AcDbLine
  8
OUTLINE
 62
7
370
-1
  6
ByLayer
 10
-78.4138951197480765
 20
24.075751825190487
 30
0.0
 11
-78.4138951197480765
 21
18.0757518251904798
 31
0.0
  0
MTEXT
  5
290
100
AcDbEntity
100
AcDbMText
  8
INTERNALS
 62
7
370
-1
  6
ByLayer
 10
104.5861048802519377
 20
31.575751825190487
 30
0.0
 40
2.25
 41
1500.0
 71
5
 72
2
  1
25
  7
romand
 50
0.0
 73
0
 44
1.0
  0
MTEXT
  5
291
100
AcDbEntity
100
AcDbMText
  8
INTERNALS
 62
7
370
-1
  6
ByLayer
 10
1.0861048802519289
 20
31.575751825190487
 30
0.0
 40
2.25
 41
1500.0
 71
5
 72
2
  1
25
  7
romand
 50
0.0
 73
0
 44
1.0
  0
MTEXT
  5
292
100
AcDbEntity
100
AcDbMText
  8
INTERNALS
 62
7
370
-1
  6
ByLayer
 10
98.5861048802518951
 20
34.575751825190487
 30
0.0
 40
2.25
 41
1500.0
 71
5
 72
2
  1
13
  7
romand
 50
0.0
 73
0
 44
1.0
  0
MTEXT
  5
293
100
AcDbEntity
100
AcDbMText
  8
INTERNALS
 62
7
370
-1
  6
ByLayer
 10
104.5861048802519377
 20
25.5757518251904798
 30
0.0
 40
2.25
 41
1500.0
 71
5
 72
2
  1
24
  7
romand
 50
0.0
 73
0
 44
1.0
  0
MTEXT
  5
294
100
AcDbEntity
100
AcDbMText
  8
INTERNALS
 62
7
370
-1
  6
ByLayer
 10
1.0861048802519289
 20
25.5757518251904798
 30
0.0
 40
2.25
 41
1500.0
 71
5
 72
2
  1
24
  7
romand
 50
0.0
 73
0
 44
1.0
  0
MTEXT
  5
295
100
AcDbEntity
100
AcDbMText
  8
INTERNALS
 62
7
370
-1
  6
ByLayer
 10
98.5861048802518951
 20
28.5757518251904834
 30
0.0
 40
2.25
 41
1500.0
 71
5
 72
2
  1
12
  7
romand
 50
0.0
 73
0
 44
1.0
  0
MTEXT
  5
296
100
AcDbEntity
100
AcDbMText
  8
INTERNALS
 62
7
370
-1
  6
ByLayer
 10
-4.9138951197480765
 20
28.5757518251904834
 30
0.0
 40
2.25
 41
1500.0
 71
5
 72
2
  1
12
  7
romand
 50
0.0
 73
0
 44
1.0
  0
MTEXT
  5
297
100
AcDbEntity
100
AcDbMText
  8
INTERNALS
 62
7
370
-1
  6
ByLayer
 10
98.5861048802518951
 20
22.5757518251904905
 30
0.0
 40
2.25
 41
1500.0
 71
5
 72
2
  1
11
  7
romand
 50
0.0
 73
0
 44
1.0
  0
MTEXT
  5
298
100
AcDbEntity
100
AcDbMText
  8
INTERNALS
 62
7
370
-1
  6
ByLayer
 10
-4.9138951197480765
 20
22.5757518251904905
 30
0.0
 40
2.25
 41
1500.0
 71
5
 72
2
  1
11
  7
romand
 50
0.0
 73
0
 44
1.0
  0
MTEXT
  5
299
100
AcDbEntity
100
AcDbMText
  8
INTERNALS
 62
7
370
-1
  6
ByLayer
 10
98.5861048802518951
 20
16.575751825190487
 30
0.0
 40
2.25
 41
1500.0
 71
5
 72
2
  1
10
  7
romand
 50
0.0
 73
0
 44
1.0
  0
MTEXT
  5
29A
100
AcDbEntity
100
AcDbMText
  8
INTERNALS
 62
7
370
-1
  6
ByLayer
 10
-4.9138951197480765
 20
16.575751825190487
 30
0.0
 40
2.25
 41
1500.0
 71
5
 72
2
  1
10
  7
romand
 50
0.0
 73
0
 44
1.0
  0
MTEXT
  5
29B
100
AcDbEntity
100
AcDbMText
  8
INTERNALS
 62
7
370
-1
  6
ByLayer
 10
98.5861048802518951
 20
10.575751825190487
 30
0.0
 40
2.25
 41
1500.0
 71
5
 72
2
  1
9
  7
romand
 50
0.0
 73
0
 44
1.0
  0
MTEXT
  5
29C
100
AcDbEntity
100
AcDbMText
  8
INTERNALS
 62
7
370
-1
  6
ByLayer
 10
-4.9138951197480765
 20
10.575751825190487
 30
0.0
 40
2.25
 41
1500.0
 71
5
 72
2
  1
9
  7
romand
 50
0.0
 73
0
 44
1.0
  0
MTEXT
  5
29D
100
AcDbEntity
100
AcDbMText
  8
INTERNALS
 62
7
370
-1
  6
ByLayer
 10
98.5861048802518951
 20
4.5757518251904887
 30
0.0
 40
2.25
 41
1500.0
 71
5
 72
2
  1
8
  7
romand
 50
0.0
 73
0
 44
1.0
  0
MTEXT
  5
29E
100
AcDbEntity
100
AcDbMText
  8
INTERNALS
 62
7
370
-1
  6
ByLayer
 10
-4.9138951197480765
 20
4.5757518251904887
 30
0.0
 40
2.25
 41
1500.0
 71
5
 72
2
  1
8
  7
romand
 50
0.0
 73
0
 44
1.0
  0
MTEXT
  5
29F
100
AcDbEntity
100
AcDbMText
  8
INTERNALS
 62
7
370
-1
  6
ByLayer
 10
98.5861048802518951
 20
-1.424248174809517
 30
0.0
 40
2.25
 41
1500.0
 71
5
 72
2
  1
7
  7
romand
 50
0.0
 73
0
 44
1.0
  0
MTEXT
  5
2A0
100
AcDbEntity
100
AcDbMText
  8
INTERNALS
 62
7
370
-1
  6
ByLayer
 10
-4.9138951197480765
 20
-1.424248174809517
 30
0.0
 40
2.25
 41
1500.0
 71
5
 72
2
  1
7
  7
romand
 50
0.0
 73
0
 44
1.0
  0
MTEXT
  5
2A1
100
AcDbEntity
100
AcDbMText
  8
INTERNALS
 62
7
370
-1
  6
ByLayer
 10
98.5861048802518951
 20
-7.4242481748095148
 30
0.0
 40
2.25
 41
1500.0
 71
5
 72
2
  1
6
  7
romand
 50
0.0
 73
0
 44
1.0
  0
MTEXT
  5
2A2
100
AcDbEntity
100
AcDbMText
  8
INTERNALS
 62
7
370
-1
  6
ByLayer
 10
-4.9138951197480765
 20
-7.4242481748095148
 30
0.0
 40
2.25
 41
1500.0
 71
5
 72
2
  1
6
  7
romand
 50
0.0
 73
0
 44
1.0
  0
MTEXT
  5
2A3
100
AcDbEntity
100
AcDbMText
  8
INTERNALS
 62
7
370
-1
  6
ByLayer
 10
98.5861048802518951
 20
-13.424248174809513
 30
0.0
 40
2.25
 41
1500.0
 71
5
 72
2
  1
5
  7
romand
 50
0.0
 73
0
 44
1.0
  0
MTEXT
  5
2A4
100
AcDbEntity
100
AcDbMText
  8
INTERNALS
 62
7
370
-1
  6
ByLayer
 10
-4.9138951197480765
 20
-13.424248174809513
 30
0.0
 40
2.25
 41
1500.0
 71
5
 72
2
  1
5
  7
romand
 50
0.0
 73
0
 44
1.0
  0
MTEXT
  5
2A5
100
AcDbEntity
100
AcDbMText
  8
INTERNALS
 62
7
370
-1
  6
ByLayer
 10
98.5861048802518951
 20
-19.424248174809513
 30
0.0
 40
2.25
 41
1500.0
 71
5
 72
2
  1
4
  7
romand
 50
0.0
 73
0
 44
1.0
  0
MTEXT
  5
2A6
100
AcDbEntity
100
AcDbMText
  8
INTERNALS
 62
7
370
-1
  6
ByLayer
 10
-4.9138951197480765
 20
-19.424248174809513
 30
0.0
 40
2.25
 41
1500.0
 71
5
 72
2
  1
4
  7
romand
 50
0.0
 73
0
 44
1.0
  0
MTEXT
  5
2A7
100
AcDbEntity
100
AcDbMText
  8
INTERNALS
 62
7
370
-1
  6
ByLayer
 10
98.5861048802518951
 20
-25.424248174809513
 30
0.0
 40
2.25
 41
1500.0
 71
5
 72
2
  1
3
  7
romand
 50
0.0
 73
0
 44
1.0
  0
MTEXT
  5
2A8
100
AcDbEntity
100
AcDbMText
  8
INTERNALS
 62
7
370
-1
  6
ByLayer
 10
-4.9138951197480765
 20
-25.424248174809513
 30
0.0
 40
2.25
 41
1500.0
 71
5
 72
2
  1
3
  7
romand
 50
0.0
 73
0
 44
1.0
  0
MTEXT
  5
2A9
100
AcDbEntity
100
AcDbMText
  8
INTERNALS
 62
7
370
-1
  6
ByLayer
 10
98.5861048802518951
 20
-31.4242481748095059
 30
0.0
 40
2.25
 41
1500.0
 71
5
 72
2
  1
2
  7
romand
 50
0.0
 73
0
 44
1.0
  0
MTEXT
  5
2AA
100
AcDbEntity
100
AcDbMText
  8
INTERNALS
 62
7
370
-1
  6
ByLayer
 10
-4.9138951197480765
 20
-31.4242481748095059
 30
0.0
 40
2.25
 41
1500.0
 71
5
 72
2
  1
2
  7
romand
 50
0.0
 73
0
 44
1.0
  0
MTEXT
  5
2AB
100
AcDbEntity
100
AcDbMText
  8
INTERNALS
 62
7
370
-1
  6
ByLayer
 10
98.5861048802518951
 20
-37.424248174809513
 30
0.0
 40
2.25
 41
1500.0
 71
5
 72
2
  1
1
  7
romand
 50
0.0
 73
0
 44
1.0
  0
MTEXT
  5
2AC
100
AcDbEntity
100
AcDbMText
  8
INTERNALS
 62
7
370
-1
  6
ByLayer
 10
-4.9138951197480765
 20
-37.424248174809513
 30
0.0
 40
2.25
 41
1500.0
 71
5
 72
2
  1
1
  7
romand
 50
0.0
 73
0
 44
1.0
  0
MTEXT
  5
2AD
100
AcDbEntity
100
AcDbMText
  8
INTERNALS
 62
7
370
-1
  6
ByLayer
 10
104.5861048802519377
 20
19.5757518251904905
 30
0.0
 40
2.25
 41
1500.0
 71
5
 72
2
  1
23
  7
romand
 50
0.0
 73
0
 44
1.0
  0
MTEXT
  5
2AE
100
AcDbEntity
100
AcDbMText
  8
INTERNALS
 62
7
370
-1
  6
ByLayer
 10
1.0861048802519289
 20
19.5757518251904905
 30
0.0
 40
2.25
 41
1500.0
 71
5
 72
2
  1
23
  7
romand
 50
0.0
 73
0
 44
1.0
  0
MTEXT
  5
2AF
100
AcDbEntity
100
AcDbMText
  8
INTERNALS
 62
7
370
-1
  6
ByLayer
 10
104.5861048802519377
 20
13.5757518251904834
 30
0.0
 40
2.25
 41
1500.0
 71
5
 72
2
  1
22
  7
romand
 50
0.0
 73
0
 44
1.0
  0
MTEXT
  5
2B0
100
AcDbEntity
100
AcDbMText
  8
INTERNALS
 62
7
370
-1
  6
ByLayer
 10
1.0861048802519289
 20
13.5757518251904834
 30
0.0
 40
2.25
 41
1500.0
 71
5
 72
2
  1
22
  7
romand
 50
0.0
 73
0
 44
1.0
  0
MTEXT
  5
2B1
100
AcDbEntity
100
AcDbMText
  8
INTERNALS
 62
7
370
-1
  6
ByLayer
 10
104.5861048802519377
 20
7.5757518251904852
 30
0.0
 40
2.25
 41
1500.0
 71
5
 72
2
  1
21
  7
romand
 50
0.0
 73
0
 44
1.0
  0
MTEXT
  5
2B2
100
AcDbEntity
100
AcDbMText
  8
INTERNALS
 62
7
370
-1
  6
ByLayer
 10
1.0861048802519289
 20
7.5757518251904852
 30
0.0
 40
2.25
 41
1500.0
 71
5
 72
2
  1
21
  7
romand
 50
0.0
 73
0
 44
1.0
  0
MTEXT
  5
2B3
100
AcDbEntity
100
AcDbMText
  8
INTERNALS
 62
7
370
-1
  6
ByLayer
 10
104.5861048802519377
 20
1.5757518251904861
 30
0.0
 40
2.25
 41
1500.0
 71
5
 72
2
  1
20
  7
romand
 50
0.0
 73
0
 44
1.0
  0
MTEXT
  5
2B4
100
AcDbEntity
100
AcDbMText
  8
INTERNALS
 62
7
370
-1
  6
ByLayer
 10
1.0861048802519289
 20
1.5757518251904861
 30
0.0
 40
2.25
 41
1500.0
 71
5
 72
2
  1
20
  7
romand
 50
0.0
 73
0
 44
1.0
  0
MTEXT
  5
2B5
100
AcDbEntity
100
AcDbMText
  8
INTERNALS
 62
7
370
-1
  6
ByLayer
 10
104.5861048802519377
 20
-4.424248174809513
 30
0.0
 40
2.25
 41
1500.0
 71
5
 72
2
  1
19
  7
romand
 50
0.0
 73
0
 44
1.0
  0
MTEXT
  5
2B6
100
AcDbEntity
100
AcDbMText
  8
INTERNALS
 62
7
370
-1
  6
ByLayer
 10
1.0861048802519289
 20
-4.424248174809513
 30
0.0
 40
2.25
 41
1500.0
 71
5
 72
2
  1
19
  7
romand
 50
0.0
 73
0
 44
1.0
  0
MTEXT
  5
2B7
100
AcDbEntity
100
AcDbMText
  8
INTERNALS
 62
7
370
-1
  6
ByLayer
 10
104.5861048802519377
 20
-10.4242481748095113
 30
0.0
 40
2.25
 41
1500.0
 71
5
 72
2
  1
18
  7
romand
 50
0.0
 73
0
 44
1.0
  0
MTEXT
  5
2B8
100
AcDbEntity
100
AcDbMText
  8
INTERNALS
 62
7
370
-1
  6
ByLayer
 10
1.0861048802519289
 20
-10.4242481748095113
 30
0.0
 40
2.25
 41
1500.0
 71
5
 72
2
  1
18
  7
romand
 50
0.0
 73
0
 44
1.0
  0
MTEXT
  5
2B9
100
AcDbEntity
100
AcDbMText
  8
INTERNALS
 62
7
370
-1
  6
ByLayer
 10
104.5861048802519377
 20
-16.424248174809513
 30
0.0
 40
2.25
 41
1500.0
 71
5
 72
2
  1
17
  7
romand
 50
0.0
 73
0
 44
1.0
  0
MTEXT
  5
2BA
100
AcDbEntity
100
AcDbMText
  8
INTERNALS
 62
7
370
-1
  6
ByLayer
 10
1.0861048802519289
 20
-16.424248174809513
 30
0.0
 40
2.25
 41
1500.0
 71
5
 72
2
  1
17
  7
romand
 50
0.0
 73
0
 44
1.0
  0
MTEXT
  5
2BB
100
AcDbEntity
100
AcDbMText
  8
INTERNALS
 62
7
370
-1
  6
ByLayer
 10
104.5861048802519377
 20
-22.424248174809513
 30
0.0
 40
2.25
 41
1500.0
 71
5
 72
2
  1
16
  7
romand
 50
0.0
 73
0
 44
1.0
  0
MTEXT
  5
2BC
100
AcDbEntity
100
AcDbMText
  8
INTERNALS
 62
7
370
-1
  6
ByLayer
 10
1.0861048802519289
 20
-22.424248174809513
 30
0.0
 40
2.25
 41
1500.0
 71
5
 72
2
  1
16
  7
romand
 50
0.0
 73
0
 44
1.0
  0
MTEXT
  5
2BD
100
AcDbEntity
100
AcDbMText
  8
INTERNALS
 62
7
370
-1
  6
ByLayer
 10
104.5861048802519377
 20
-28.424248174809513
 30
0.0
 40
2.25
 41
1500.0
 71
5
 72
2
  1
15
  7
romand
 50
0.0
 73
0
 44
1.0
  0
MTEXT
  5
2BE
100
AcDbEntity
100
AcDbMText
  8
INTERNALS
 62
7
370
-1
  6
ByLayer
 10
1.0861048802519289
 20
-28.424248174809513
 30
0.0
 40
2.25
 41
1500.0
 71
5
 72
2
  1
15
  7
romand
 50
0.0
 73
0
 44
1.0
  0
MTEXT
  5
2BF
100
AcDbEntity
100
AcDbMText
  8
INTERNALS
 62
7
370
-1
  6
ByLayer
 10
104.5861048802519377
 20
-34.424248174809513
 30
0.0
 40
2.25
 41
1500.0
 71
5
 72
2
  1
14
  7
romand
 50
0.0
 73
0
 44
1.0
  0
MTEXT
  5
2C0
100
AcDbEntity
100
AcDbMText
  8
INTERNALS
 62
7
370
-1
  6
ByLayer
 10
1.0861048802519289
 20
-34.424248174809513
 30
0.0
 40
2.25
 41
1500.0
 71
5
 72
2
  1
14
  7
romand
 50
0.0
 73
0
 44
1.0
  0
CIRCLE
  5
2C1
100
AcDbEntity
100
AcDbCircle
  8
INTERNALS
 62
7
370
-1
  6
ByLayer
 10
98.5861048802518951
 20
28.5757518251904834
 30
0.0
 40
2.4216449999999998
  0
CIRCLE
  5
2C2
100
AcDbEntity
100
AcDbCircle
  8
INTERNALS
 62
7
370
-1
  6
ByLayer
 10
-4.9138951197480765
 20
28.5757518251904834
 30
0.0
 40
2.4216449999999998
  0
CIRCLE
  5
2C3
100
AcDbEntity
100
AcDbCircle
  8
INTERNALS
 62
7
370
-1
  6
ByLayer
 10
98.5861048802518951
 20
22.5757518251904905
 30
0.0
 40
2.4216449999999998
  0
CIRCLE
  5
2C4
100
AcDbEntity
100
AcDbCircle
  8
INTERNALS
 62
7
370
-1
  6
ByLayer
 10
-4.9138951197480765
 20
22.5757518251904905
 30
0.0
 40
2.4216449999999998
  0
CIRCLE
  5
2C5
100
AcDbEntity
100
AcDbCircle
  8
INTERNALS
 62
7
370
-1
  6
ByLayer
 10
98.5861048802518951
 20
16.575751825190487
 30
0.0
 40
2.4216449999999998
  0
CIRCLE
  5
2C6
100
AcDbEntity
100
AcDbCircle
  8
INTERNALS
 62
7
370
-1
  6
ByLayer
 10
-4.9138951197480765
 20
16.575751825190487
 30
0.0
 40
2.4216449999999998
  0
CIRCLE
  5
2C7
100
AcDbEntity
100
AcDbCircle
  8
INTERNALS
 62
7
370
-1
  6
ByLayer
 10
98.5861048802518951
 20
10.575751825190487
 30
0.0
 40
2.4216449999999998
  0
CIRCLE
  5
2C8
100
AcDbEntity
100
AcDbCircle
  8
INTERNALS
 62
7
370
-1
  6
ByLayer
 10
-4.9138951197480765
 20
10.575751825190487
 30
0.0
 40
2.4216449999999998
  0
CIRCLE
  5
2C9
100
AcDbEntity
100
AcDbCircle
  8
INTERNALS
 62
7
370
-1
  6
ByLayer
 10
98.5861048802518951
 20
4.5757518251904887
 30
0.0
 40
2.4216449999999998
  0
CIRCLE
  5
2CA
100
AcDbEntity
100
AcDbCircle
  8
INTERNALS
 62
7
370
-1
  6
ByLayer
 10
-4.9138951197480765
 20
4.5757518251904887
 30
0.0
 40
2.4216449999999998
  0
CIRCLE
  5
2CB
100
AcDbEntity
100
AcDbCircle
  8
INTERNALS
 62
7
370
-1
  6
ByLayer
 10
98.5861048802518951
 20
-7.4242481748095148
 30
0.0
 40
2.4216449999999998
  0
CIRCLE
  5
2CC
100
AcDbEntity
100
AcDbCircle
  8
INTERNALS
 62
7
370
-1
  6
ByLayer
 10
-4.9138951197480765
 20
-7.4242481748095148
 30
0.0
 40
2.4216449999999998
  0
CIRCLE
  5
2CD
100
AcDbEntity
100
AcDbCircle
  8
INTERNALS
 62
7
370
-1
  6
ByLayer
 10
98.5861048802518951
 20
-13.424248174809513
 30
0.0
 40
2.4216449999999998
  0
CIRCLE
  5
2CE
100
AcDbEntity
100
AcDbCircle
  8
INTERNALS
 62
7
370
-1
  6
ByLayer
 10
-4.9138951197480765
 20
-13.424248174809513
 30
0.0
 40
2.4216449999999998
  0
CIRCLE
  5
2CF
100
AcDbEntity
100
AcDbCircle
  8
INTERNALS
 62
7
370
-1
  6
ByLayer
 10
98.5861048802518951
 20
-19.424248174809513
 30
0.0
 40
2.4216449999999998
  0
CIRCLE
  5
2D0
100
AcDbEntity
100
AcDbCircle
  8
INTERNALS
 62
7
370
-1
  6
ByLayer
 10
-4.9138951197480765
 20
-19.424248174809513
 30
0.0
 40
2.4216449999999998
  0
CIRCLE
  5
2D1
100
AcDbEntity
100
AcDbCircle
  8
INTERNALS
 62
7
370
-1
  6
ByLayer
 10
98.5861048802518951
 20
-25.424248174809513
 30
0.0
 40
2.4216449999999998
  0
CIRCLE
  5
2D2
100
AcDbEntity
100
AcDbCircle
  8
INTERNALS
 62
7
370
-1
  6
ByLayer
 10
-4.9138951197480765
 20
-25.424248174809513
 30
0.0
 40
2.4216449999999998
  0
CIRCLE
  5
2D3
100
AcDbEntity
100
AcDbCircle
  8
INTERNALS
 62
7
370
-1
  6
ByLayer
 10
98.5861048802518951
 20
-31.4242481748095059
 30
0.0
 40
2.4216449999999998
  0
CIRCLE
  5
2D4
100
AcDbEntity
100
AcDbCircle
  8
INTERNALS
 62
7
370
-1
  6
ByLayer
 10
-4.9138951197480765
 20
-31.4242481748095059
 30
0.0
 40
2.4216449999999998
  0
CIRCLE
  5
2D5
100
AcDbEntity
100
AcDbCircle
  8
INTERNALS
 62
7
370
-1
  6
ByLayer
 10
98.5861048802518951
 20
-37.424248174809513
 30
0.0
 40
2.4216449999999998
  0
CIRCLE
  5
2D6
100
AcDbEntity
100
AcDbCircle
  8
INTERNALS
 62
7
370
-1
  6
ByLayer
 10
-4.9138951197480765
 20
-37.424248174809513
 30
0.0
 40
2.4216449999999998
  0
CIRCLE
  5
2D7
100
AcDbEntity
100
AcDbCircle
  8
INTERNALS
 62
7
370
-1
  6
ByLayer
 10
98.5861048802518951
 20
-1.424248174809517
 30
0.0
 40
2.4216449999999998
  0
CIRCLE
  5
2D8
100
AcDbEntity
100
AcDbCircle
  8
INTERNALS
 62
7
370
-1
  6
ByLayer
 10
-4.9138951197480765
 20
-1.424248174809517
 30
0.0
 40
2.4216449999999998
  0
CIRCLE
  5
2D9
100
AcDbEntity
100
AcDbCircle
  8
INTERNALS
 62
7
370
-1
  6
ByLayer
 10
98.5861048802518951
 20
34.575751825190487
 30
0.0
 40
2.4216449999999998
  0
CIRCLE
  5
2DA
100
AcDbEntity
100
AcDbCircle
  8
INTERNALS
 62
7
370
-1
  6
ByLayer
 10
-4.9138951197480765
 20
34.575751825190487
 30
0.0
 40
2.4216449999999998
  0
CIRCLE
  5
2DB
100
AcDbEntity
100
AcDbCircle
  8
INTERNALS
 62
7
370
-1
  6
ByLayer
 10
104.5861048802519377
 20
25.5757518251904798
 30
0.0
 40
2.4216449999999998
  0
CIRCLE
  5
2DC
100
AcDbEntity
100
AcDbCircle
  8
INTERNALS
 62
7
370
-1
  6
ByLayer
 10
1.0861048802519289
 20
25.5757518251904798
 30
0.0
 40
2.4216449999999998
  0
CIRCLE
  5
2DD
100
AcDbEntity
100
AcDbCircle
  8
INTERNALS
 62
7
370
-1
  6
ByLayer
 10
104.5861048802519377
 20
19.5757518251904905
 30
0.0
 40
2.4216449999999998
  0
CIRCLE
  5
2DE
100
AcDbEntity
100
AcDbCircle
  8
INTERNALS
 62
7
370
-1
  6
ByLayer
 10
1.0861048802519289
 20
19.5757518251904905
 30
0.0
 40
2.4216449999999998
  0
CIRCLE
  5
2DF
100
AcDbEntity
100
AcDbCircle
  8
INTERNALS
 62
7
370
-1
  6
ByLayer
 10
104.5861048802519377
 20
13.5757518251904834
 30
0.0
 40
2.4216449999999998
  0
CIRCLE
  5
2E0
100
AcDbEntity
100
AcDbCircle
  8
INTERNALS
 62
7
370
-1
  6
ByLayer
 10
1.0861048802519289
 20
13.5757518251904834
 30
0.0
 40
2.4216449999999998
  0
CIRCLE
  5
2E1
100
AcDbEntity
100
AcDbCircle
  8
INTERNALS
 62
7
370
-1
  6
ByLayer
 10
104.5861048802519377
 20
7.5757518251904852
 30
0.0
 40
2.4216449999999998
  0
CIRCLE
  5
2E2
100
AcDbEntity
100
AcDbCircle
  8
INTERNALS
 62
7
370
-1
  6
ByLayer
 10
1.0861048802519289
 20
7.5757518251904852
 30
0.0
 40
2.4216449999999998
  0
CIRCLE
  5
2E3
100
AcDbEntity
100
AcDbCircle
  8
INTERNALS
 62
7
370
-1
  6
ByLayer
 10
104.5861048802519377
 20
1.5757518251904861
 30
0.0
 40
2.4216449999999998
  0
CIRCLE
  5
2E4
100
AcDbEntity
100
AcDbCircle
  8
INTERNALS
 62
7
370
-1
  6
ByLayer
 10
1.0861048802519289
 20
1.5757518251904861
 30
0.0
 40
2.4216449999999998
  0
CIRCLE
  5
2E5
100
AcDbEntity
100
AcDbCircle
  8
INTERNALS
 62
7
370
-1
  6
ByLayer
 10
104.5861048802519377
 20
-4.424248174809513
 30
0.0
 40
2.4216449999999998
  0
CIRCLE
  5
2E6
100
AcDbEntity
100
AcDbCircle
  8
INTERNALS
 62
7
370
-1
  6
ByLayer
 10
1.0861048802519289
 20
-4.424248174809513
 30
0.0
 40
2.4216449999999998
  0
CIRCLE
  5
2E7
100
AcDbEntity
100
AcDbCircle
  8
INTERNALS
 62
7
370
-1
  6
ByLayer
 10
104.5861048802519377
 20
-10.4242481748095113
 30
0.0
 40
2.4216449999999998
  0
CIRCLE
  5
2E8
100
AcDbEntity
100
AcDbCircle
  8
INTERNALS
 62
7
370
-1
  6
ByLayer
 10
1.0861048802519289
 20
-10.4242481748095113
 30
0.0
 40
2.4216449999999998
  0
CIRCLE
  5
2E9
100
AcDbEntity
100
AcDbCircle
  8
INTERNALS
 62
7
370
-1
  6
ByLayer
 10
104.5861048802519377
 20
-16.424248174809513
 30
0.0
 40
2.4216449999999998
  0
CIRCLE
  5
2EA
100
AcDbEntity
100
AcDbCircle
  8
INTERNALS
 62
7
370
-1
  6
ByLayer
 10
1.0861048802519289
 20
-16.424248174809513
 30
0.0
 40
2.4216449999999998
  0
CIRCLE
  5
2EB
100
AcDbEntity
100
AcDbCircle
  8
INTERNALS
 62
7
370
-1
  6
ByLayer
 10
104.5861048802519377
 20
-22.424248174809513
 30
0.0
 40
2.4216449999999998
  0
CIRCLE
  5
2EC
100
AcDbEntity
100
AcDbCircle
  8
INTERNALS
 62
7
370
-1
  6
ByLayer
 10
1.0861048802519289
 20
-22.424248174809513
 30
0.0
 40
2.4216449999999998
  0
CIRCLE
  5
2ED
100
AcDbEntity
100
AcDbCircle
  8
INTERNALS
 62
7
370
-1
  6
ByLayer
 10
104.5861048802519377
 20
-28.424248174809513
 30
0.0
 40
2.4216449999999998
  0
CIRCLE
  5
2EE
100
AcDbEntity
100
AcDbCircle
  8
INTERNALS
 62
7
370
-1
  6
ByLayer
 10
1.0861048802519289
 20
-28.424248174809513
 30
0.0
 40
2.4216449999999998
  0
CIRCLE
  5
2EF
100
AcDbEntity
100
AcDbCircle
  8
INTERNALS
 62
7
370
-1
  6
ByLayer
 10
104.5861048802519377
 20
-34.424248174809513
 30
0.0
 40
2.4216449999999998
  0
CIRCLE
  5
2F0
100
AcDbEntity
100
AcDbCircle
  8
INTERNALS
 62
7
370
-1
  6
ByLayer
 10
1.0861048802519289
 20
-34.424248174809513
 30
0.0
 40
2.4216449999999998
  0
CIRCLE
  5
2F1
100
AcDbEntity
100
AcDbCircle
  8
INTERNALS
 62
7
370
-1
  6
ByLayer
 10
104.5861048802519377
 20
31.575751825190487
 30
0.0
 40
2.4216449999999998
  0
CIRCLE
  5
2F2
100
AcDbEntity
100
AcDbCircle
  8
INTERNALS
 62
7
370
-1
  6
ByLayer
 10
1.0861048802519289
 20
31.575751825190487
 30
0.0
 40
2.4216449999999998
  0
LINE
  5
2F3
100
AcDbEntity
100
AcDbLine
  8
INTERNALS
 62
7
370
-1
  6
ByLayer
 10
-30.4138951197480765
 20
-19.424248174809513
 30
0.0
 11
-7.3355401197480816
 21
-19.424248174809513
 31
0.0
  0
LINE
  5
2F4
100
AcDbEntity
100
AcDbLine
  8
INTERNALS
 62
7
370
-1
  6
ByLayer
 10
-30.4138951197480765
 20
-11.924248174809513
 30
0.0
 11
-27.4138951197480765
 21
-11.924248174809513
 31
0.0
  0
LINE
  5
2F5
100
AcDbEntity
100
AcDbLine
  8
INTERNALS
 62
7
370
-1
  6
ByLayer
 10
-27.4138951197480765
 20
-11.924248174809513
 30
0.0
 11
-27.4138951197480765
 21
-13.424248174809513
 31
0.0
  0
LINE
  5
2F6
100
AcDbEntity
100
AcDbLine
  8
INTERNALS
 62
7
370
-1
  6
ByLayer
 10
-27.4138951197480765
 20
-13.424248174809513
 30
0.0
 11
-7.3355401197480816
 21
-13.424248174809513
 31
0.0
  0
LINE
  5
2F7
100
AcDbEntity
100
AcDbLine
  8
INTERNALS
 62
7
370
-1
  6
ByLayer
 10
-30.4138951197480765
 20
-4.424248174809513
 30
0.0
 11
-25.9138951197480836
 21
-4.424248174809513
 31
0.0
  0
LINE
  5
2F8
100
AcDbEntity
100
AcDbLine
  8
INTERNALS
 62
7
370
-1
  6
ByLayer
 10
-25.9138951197480836
 20
-4.424248174809513
 30
0.0
 11
-25.9138951197480836
 21
-7.4242481748095148
 31
0.0
  0
LINE
  5
2F9
100
AcDbEntity
100
AcDbLine
  8
INTERNALS
 62
7
370
-1
  6
ByLayer
 10
-25.9138951197480836
 20
-7.4242481748095148
 30
0.0
 11
-7.3355401197480816
 21
-7.4242481748095148
 31
0.0
  0
LINE
  5
2FA
100
AcDbEntity
100
AcDbLine
  8
INTERNALS
 62
7
370
-1
  6
ByLayer
 10
-30.4138951197480765
 20
3.0757518251904874
 30
0.0
 11
-24.4138951197480907
 21
3.0757518251904874
 31
0.0
  0
LINE
  5
2FB
100
AcDbEntity
100
AcDbLine
  8
INTERNALS
 62
7
370
-1
  6
ByLayer
 10
-24.4138951197480907
 20
3.0757518251904874
 30
0.0
 11
-24.4138951197480907
 21
-1.424248174809517
 31
0.0
  0
LINE
  5
2FC
100
AcDbEntity
100
AcDbLine
  8
INTERNALS
 62
7
370
-1
  6
ByLayer
 10
-24.4138951197480907
 20
-1.424248174809517
 30
0.0
 11
-7.3355401197480816
 21
-1.424248174809517
 31
0.0
  0
LINE
  5
2FD
100
AcDbEntity
100
AcDbLine
  8
INTERNALS
 62
7
370
-1
  6
ByLayer
 10
-30.4138951197480765
 20
10.575751825190487
 30
0.0
 11
-22.9138951197480623
 21
10.575751825190487
 31
0.0
  0
LINE
  5
2FE
100
AcDbEntity
100
AcDbLine
  8
INTERNALS
 62
7
370
-1
  6
ByLayer
 10
80.5861048802519093
 20
12.0757518251904887
 30
0.0
 11
80.5861048802519093
 21
4.5757518251904887
 31
0.0
  0
LINE
  5
2FF
100
AcDbEntity
100
AcDbLine
  8
INTERNALS
 62
7
370
-1
  6
ByLayer
 10
-22.9138951197480623
 20
10.575751825190487
 30
0.0
 11
-22.9138951197480623
 21
4.5757518251904887
 31
0.0
  0
LINE
  5
300
100
AcDbEntity
100
AcDbLine
  8
INTERNALS
 62
7
370
-1
  6
ByLayer
 10
80.5861048802519093
 20
4.5757518251904887
 30
0.0
 11
96.1644598802519255
 21
4.5757518251904887
 31
0.0
  0
LINE
  5
301
100
AcDbEntity
100
AcDbLine
  8
INTERNALS
 62
7
370
-1
  6
ByLayer
 10
-22.9138951197480623
 20
4.5757518251904887
 30
0.0
 11
-7.3355401197480816
 21
4.5757518251904887
 31
0.0
  0
LINE
  5
302
100
AcDbEntity
100
AcDbLine
  8
INTERNALS
 62
7
370
-1
  6
ByLayer
 10
-30.4138951197480765
 20
18.0757518251904798
 30
0.0
 11
-21.4138951197480694
 21
18.0757518251904798
 31
0.0
  0
LINE
  5
303
100
AcDbEntity
100
AcDbLine
  8
INTERNALS
 62
7
370
-1
  6
ByLayer
 10
82.0861048802519377
 20
19.5757518251904905
 30
0.0
 11
82.0861048802519377
 21
10.575751825190487
 31
0.0
  0
LINE
  5
304
100
AcDbEntity
100
AcDbLine
  8
INTERNALS
 62
7
370
-1
  6
ByLayer
 10
-21.4138951197480694
 20
18.0757518251904798
 30
0.0
 11
-21.4138951197480694
 21
10.575751825190487
 31
0.0
  0
LINE
  5
305
100
AcDbEntity
100
AcDbLine
  8
INTERNALS
 62
7
370
-1
  6
ByLayer
 10
82.0861048802519377
 20
10.575751825190487
 30
0.0
 11
96.1644598802519255
 21
10.575751825190487
 31
0.0
  0
LINE
  5
306
100
AcDbEntity
100
AcDbLine
  8
INTERNALS
 62
7
370
-1
  6
ByLayer
 10
-21.4138951197480694
 20
10.575751825190487
 30
0.0
 11
-7.3355401197480816
 21
10.575751825190487
 31
0.0
  0
LINE
  5
307
100
AcDbEntity
100
AcDbLine
  8
INTERNALS
 62
7
370
-1
  6
ByLayer
 10
62.5861048802519235
 20
27.0757518251904905
 30
0.0
 11
83.5861048802519235
 21
27.0757518251904905
 31
0.0
  0
LINE
  5
308
100
AcDbEntity
100
AcDbLine
  8
INTERNALS
 62
7
370
-1
  6
ByLayer
 10
-40.9138951197480836
 20
27.0757518251904905
 30
0.0
 11
-19.9138951197480765
 21
27.0757518251904905
 31
0.0
  0
LINE
  5
309
100
AcDbEntity
100
AcDbLine
  8
INTERNALS
 62
7
370
-1
  6
ByLayer
 10
83.5861048802519235
 20
27.0757518251904905
 30
0.0
 11
83.5861048802519235
 21
16.575751825190487
 31
0.0
  0
LINE
  5
30A
100
AcDbEntity
100
AcDbLine
  8
INTERNALS
 62
7
370
-1
  6
ByLayer
 10
-19.9138951197480765
 20
27.0757518251904905
 30
0.0
 11
-19.9138951197480765
 21
16.575751825190487
 31
0.0
  0
LINE
  5
30B
100
AcDbEntity
100
AcDbLine
  8
INTERNALS
 62
7
370
-1
  6
ByLayer
 10
83.5861048802519235
 20
16.575751825190487
 30
0.0
 11
96.1644598802519255
 21
16.575751825190487
 31
0.0
  0
LINE
  5
30C
100
AcDbEntity
100
AcDbLine
  8
INTERNALS
 62
7
370
-1
  6
ByLayer
 10
-19.9138951197480765
 20
16.575751825190487
 30
0.0
 11
-7.3355401197480816
 21
16.575751825190487
 31
0.0
  0
LINE
  5
30D
100
AcDbEntity
100
AcDbLine
  8
INTERNALS
 62
7
370
-1
  6
ByLayer
 10
62.5861048802519235
 20
34.575751825190487
 30
0.0
 11
85.0861048802519235
 21
34.575751825190487
 31
0.0
  0
LINE
  5
30E
100
AcDbEntity
100
AcDbLine
  8
INTERNALS
 62
7
370
-1
  6
ByLayer
 10
-40.9138951197480836
 20
34.575751825190487
 30
0.0
 11
-18.4138951197480836
 21
34.575751825190487
 31
0.0
  0
LINE
  5
30F
100
AcDbEntity
100
AcDbLine
  8
INTERNALS
 62
7
370
-1
  6
ByLayer
 10
85.0861048802519235
 20
34.575751825190487
 30
0.0
 11
85.0861048802519235
 21
22.5757518251904905
 31
0.0
  0
LINE
  5
310
100
AcDbEntity
100
AcDbLine
  8
INTERNALS
 62
7
370
-1
  6
ByLayer
 10
-18.4138951197480836
 20
34.575751825190487
 30
0.0
 11
-18.4138951197480836
 21
22.5757518251904905
 31
0.0
  0
LINE
  5
311
100
AcDbEntity
100
AcDbLine
  8
INTERNALS
 62
7
370
-1
  6
ByLayer
 10
85.0861048802519235
 20
22.5757518251904905
 30
0.0
 11
96.1644598802519255
 21
22.5757518251904905
 31
0.0
  0
LINE
  5
312
100
AcDbEntity
100
AcDbLine
  8
INTERNALS
 62
7
370
-1
  6
ByLayer
 10
-18.4138951197480836
 20
22.5757518251904905
 30
0.0
 11
-7.3355401197480816
 21
22.5757518251904905
 31
0.0
  0
LINE
  5
313
100
AcDbEntity
100
AcDbLine
  8
INTERNALS
 62
7
370
-1
  6
ByLayer
 10
62.5861048802519235
 20
42.075751825190487
 30
0.0
 11
86.5861048802519235
 21
42.075751825190487
 31
0.0
  0
LINE
  5
314
100
AcDbEntity
100
AcDbLine
  8
INTERNALS
 62
7
370
-1
  6
ByLayer
 10
-40.9138951197480836
 20
42.075751825190487
 30
0.0
 11
-16.9138951197480871
 21
42.075751825190487
 31
0.0
  0
LINE
  5
315
100
AcDbEntity
100
AcDbLine
  8
INTERNALS
 62
7
370
-1
  6
ByLayer
 10
86.5861048802519235
 20
42.075751825190487
 30
0.0
 11
86.5861048802519235
 21
28.5757518251904834
 31
0.0
  0
LINE
  5
316
100
AcDbEntity
100
AcDbLine
  8
INTERNALS
 62
7
370
-1
  6
ByLayer
 10
-16.9138951197480871
 20
42.075751825190487
 30
0.0
 11
-16.9138951197480871
 21
28.5757518251904834
 31
0.0
  0
LINE
  5
317
100
AcDbEntity
100
AcDbLine
  8
INTERNALS
 62
7
370
-1
  6
ByLayer
 10
86.5861048802519235
 20
28.5757518251904834
 30
0.0
 11
96.1644598802519255
 21
28.5757518251904834
 31
0.0
  0
LINE
  5
318
100
AcDbEntity
100
AcDbLine
  8
INTERNALS
 62
7
370
-1
  6
ByLayer
 10
-16.9138951197480871
 20
28.5757518251904834
 30
0.0
 11
-7.3355401197480816
 21
28.5757518251904834
 31
0.0
  0
LINE
  5
319
100
AcDbEntity
100
AcDbLine
  8
INTERNALS
 62
7
370
-1
  6
ByLayer
 10
62.5861048802519235
 20
49.575751825190487
 30
0.0
 11
88.0861048802519093
 21
49.575751825190487
 31
0.0
  0
LINE
  5
31A
100
AcDbEntity
100
AcDbLine
  8
INTERNALS
 62
7
370
-1
  6
ByLayer
 10
-40.9138951197480836
 20
49.575751825190487
 30
0.0
 11
-15.4138951197480658
 21
49.575751825190487
 31
0.0
  0
LINE
  5
31B
100
AcDbEntity
100
AcDbLine
  8
INTERNALS
 62
7
370
-1
  6
ByLayer
 10
88.0861048802519093
 20
49.575751825190487
 30
0.0
 11
88.0861048802519093
 21
34.575751825190487
 31
0.0
  0
LINE
  5
31C
100
AcDbEntity
100
AcDbLine
  8
INTERNALS
 62
7
370
-1
  6
ByLayer
 10
-15.4138951197480658
 20
49.575751825190487
 30
0.0
 11
-15.4138951197480658
 21
34.575751825190487
 31
0.0
  0
LINE
  5
31D
100
AcDbEntity
100
AcDbLine
  8
INTERNALS
 62
7
370
-1
  6
ByLayer
 10
88.0861048802519093
 20
34.575751825190487
 30
0.0
 11
96.1644598802519255
 21
34.575751825190487
 31
0.0
  0
LINE
  5
31E
100
AcDbEntity
100
AcDbLine
  8
INTERNALS
 62
7
370
-1
  6
ByLayer
 10
-15.4138951197480658
 20
34.575751825190487
 30
0.0
 11
-7.3355401197480816
 21
34.575751825190487
 31
0.0
  0
LINE
  5
31F
100
AcDbEntity
100
AcDbLine
  8
INTERNALS
 62
7
370
-1
  6
ByLayer
 10
-30.4138951197480765
 20
-26.924248174809513
 30
0.0
 11
-27.4138951197480765
 21
-26.924248174809513
 31
0.0
  0
LINE
  5
320
100
AcDbEntity
100
AcDbLine
  8
INTERNALS
 62
7
370
-1
  6
ByLayer
 10
-27.4138951197480765
 20
-26.924248174809513
 30
0.0
 11
-27.4138951197480765
 21
-25.424248174809513
 31
0.0
  0
LINE
  5
321
100
AcDbEntity
100
AcDbLine
  8
INTERNALS
 62
7
370
-1
  6
ByLayer
 10
-27.4138951197480765
 20
-25.424248174809513
 30
0.0
 11
-7.3355401197480816
 21
-25.424248174809513
 31
0.0
  0
LINE
  5
322
100
AcDbEntity
100
AcDbLine
  8
INTERNALS
 62
7
370
-1
  6
ByLayer
 10
-30.4138951197480765
 20
-34.424248174809513
 30
0.0
 11
-25.9138951197480836
 21
-34.424248174809513
 31
0.0
  0
LINE
  5
323
100
AcDbEntity
100
AcDbLine
  8
INTERNALS
 62
7
370
-1
  6
ByLayer
 10
-25.9138951197480836
 20
-34.424248174809513
 30
0.0
 11
-25.9138951197480836
 21
-31.4242481748095059
 31
0.0
  0
LINE
  5
324
100
AcDbEntity
100
AcDbLine
  8
INTERNALS
 62
7
370
-1
  6
ByLayer
 10
-25.9138951197480836
 20
-31.4242481748095059
 30
0.0
 11
-7.3355401197480816
 21
-31.4242481748095059
 31
0.0
  0
LINE
  5
325
100
AcDbEntity
100
AcDbLine
  8
INTERNALS
 62
7
370
-1
  6
ByLayer
 10
73.0861048802519093
 20
-41.924248174809513
 30
0.0
 11
82.0861048802519377
 21
-41.924248174809513
 31
0.0
  0
LINE
  5
326
100
AcDbEntity
100
AcDbLine
  8
INTERNALS
 62
7
370
-1
  6
ByLayer
 10
-30.4138951197480765
 20
-41.924248174809513
 30
0.0
 11
-21.4138951197480694
 21
-41.924248174809513
 31
0.0
  0
LINE
  5
327
100
AcDbEntity
100
AcDbLine
  8
INTERNALS
 62
7
370
-1
  6
ByLayer
 10
82.0861048802519377
 20
-41.924248174809513
 30
0.0
 11
82.0861048802519377
 21
-16.424248174809513
 31
0.0
  0
LINE
  5
328
100
AcDbEntity
100
AcDbLine
  8
INTERNALS
 62
7
370
-1
  6
ByLayer
 10
-21.4138951197480694
 20
-41.924248174809513
 30
0.0
 11
-21.4138951197480694
 21
-16.424248174809513
 31
0.0
  0
LINE
  5
329
100
AcDbEntity
100
AcDbLine
  8
INTERNALS
 62
7
370
-1
  6
ByLayer
 10
82.0861048802519377
 20
-16.424248174809513
 30
0.0
 11
102.1644598802519113
 21
-16.424248174809513
 31
0.0
  0
LINE
  5
32A
100
AcDbEntity
100
AcDbLine
  8
INTERNALS
 62
7
370
-1
  6
ByLayer
 10
-21.4138951197480694
 20
-16.424248174809513
 30
0.0
 11
-1.3355401197480745
 21
-16.424248174809513
 31
0.0
  0
LINE
  5
32B
100
AcDbEntity
100
AcDbLine
  8
INTERNALS
 62
7
370
-1
  6
ByLayer
 10
73.0861048802519093
 20
-49.424248174809513
 30
0.0
 11
83.5861048802519235
 21
-49.424248174809513
 31
0.0
  0
LINE
  5
32C
100
AcDbEntity
100
AcDbLine
  8
INTERNALS
 62
7
370
-1
  6
ByLayer
 10
-30.4138951197480765
 20
-49.424248174809513
 30
0.0
 11
-19.9138951197480765
 21
-49.424248174809513
 31
0.0
  0
LINE
  5
32D
100
AcDbEntity
100
AcDbLine
  8
INTERNALS
 62
7
370
-1
  6
ByLayer
 10
83.5861048802519235
 20
-49.424248174809513
 30
0.0
 11
83.5861048802519235
 21
-22.424248174809513
 31
0.0
  0
LINE
  5
32E
100
AcDbEntity
100
AcDbLine
  8
INTERNALS
 62
7
370
-1
  6
ByLayer
 10
-19.9138951197480765
 20
-49.424248174809513
 30
0.0
 11
-19.9138951197480765
 21
-22.424248174809513
 31
0.0
  0
LINE
  5
32F
100
AcDbEntity
100
AcDbLine
  8
INTERNALS
 62
7
370
-1
  6
ByLayer
 10
83.5861048802519235
 20
-22.424248174809513
 30
0.0
 11
102.1644598802519113
 21
-22.424248174809513
 31
0.0
  0
LINE
  5
330
100
AcDbEntity
100
AcDbLine
  8
INTERNALS
 62
7
370
-1
  6
ByLayer
 10
-19.9138951197480765
 20
-22.424248174809513
 30
0.0
 11
-1.3355401197480745
 21
-22.424248174809513
 31
0.0
  0
LINE
  5
331
100
AcDbEntity
100
AcDbLine
  8
INTERNALS
 62
7
370
-1
  6
ByLayer
 10
73.0861048802519093
 20
-56.924248174809513
 30
0.0
 11
85.0861048802519235
 21
-56.924248174809513
 31
0.0
  0
LINE
  5
332
100
AcDbEntity
100
AcDbLine
  8
INTERNALS
 62
7
370
-1
  6
ByLayer
 10
-30.4138951197480765
 20
-56.924248174809513
 30
0.0
 11
-18.4138951197480836
 21
-56.924248174809513
 31
0.0
  0
LINE
  5
333
100
AcDbEntity
100
AcDbLine
  8
INTERNALS
 62
7
370
-1
  6
ByLayer
 10
85.0861048802519235
 20
-56.924248174809513
 30
0.0
 11
85.0861048802519235
 21
-34.424248174809513
 31
0.0
  0
LINE
  5
334
100
AcDbEntity
100
AcDbLine
  8
INTERNALS
 62
7
370
-1
  6
ByLayer
 10
-18.4138951197480836
 20
-56.924248174809513
 30
0.0
 11
-18.4138951197480836
 21
-34.424248174809513
 31
0.0
  0
LINE
  5
335
100
AcDbEntity
100
AcDbLine
  8
INTERNALS
 62
7
370
-1
  6
ByLayer
 10
85.0861048802519235
 20
-34.424248174809513
 30
0.0
 11
102.1644598802519113
 21
-34.424248174809513
 31
0.0
  0
LINE
  5
336
100
AcDbEntity
100
AcDbLine
  8
INTERNALS
 62
7
370
-1
  6
ByLayer
 10
-18.4138951197480836
 20
-34.424248174809513
 30
0.0
 11
-1.3355401197480745
 21
-34.424248174809513
 31
0.0
  0
LINE
  5
337
100
AcDbEntity
100
AcDbLine
  8
INTERNALS
 62
7
370
-1
  6
ByLayer
 10
73.0861048802519093
 20
-64.4242481748095059
 30
0.0
 11
86.5861048802519235
 21
-64.4242481748095059
 31
0.0
  0
LINE
  5
338
100
AcDbEntity
100
AcDbLine
  8
INTERNALS
 62
7
370
-1
  6
ByLayer
 10
-30.4138951197480765
 20
-64.4242481748095059
 30
0.0
 11
-16.9138951197480871
 21
-64.4242481748095059
 31
0.0
  0
LINE
  5
339
100
AcDbEntity
100
AcDbLine
  8
INTERNALS
 62
7
370
-1
  6
ByLayer
 10
86.5861048802519235
 20
-64.4242481748095059
 30
0.0
 11
86.5861048802519235
 21
-37.424248174809513
 31
0.0
  0
LINE
  5
33A
100
AcDbEntity
100
AcDbLine
  8
INTERNALS
 62
7
370
-1
  6
ByLayer
 10
-16.9138951197480871
 20
-64.4242481748095059
 30
0.0
 11
-16.9138951197480871
 21
-37.424248174809513
 31
0.0
  0
LINE
  5
33B
100
AcDbEntity
100
AcDbLine
  8
INTERNALS
 62
7
370
-1
  6
ByLayer
 10
86.5861048802519235
 20
-37.424248174809513
 30
0.0
 11
96.1644598802519255
 21
-37.424248174809513
 31
0.0
  0
LINE
  5
33C
100
AcDbEntity
100
AcDbLine
  8
INTERNALS
 62
7
370
-1
  6
ByLayer
 10
-16.9138951197480871
 20
-37.424248174809513
 30
0.0
 11
-7.3355401197480816
 21
-37.424248174809513
 31
0.0
  0
LINE
  5
33D
100
AcDbEntity
100
AcDbLine
  8
INTERNALS
 62
7
370
-1
  6
ByLayer
 10
62.5861048802519235
 20
57.075751825190487
 30
0.0
 11
89.5861048802519377
 21
57.075751825190487
 31
0.0
  0
LINE
  5
33E
100
AcDbEntity
100
AcDbLine
  8
INTERNALS
 62
7
370
-1
  6
ByLayer
 10
-40.9138951197480836
 20
57.075751825190487
 30
0.0
 11
-13.9138951197480694
 21
57.075751825190487
 31
0.0
  0
LINE
  5
33F
100
AcDbEntity
100
AcDbLine
  8
INTERNALS
 62
7
370
-1
  6
ByLayer
 10
89.5861048802519377
 20
57.075751825190487
 30
0.0
 11
89.5861048802519377
 21
-28.424248174809513
 31
0.0
  0
LINE
  5
340
100
AcDbEntity
100
AcDbLine
  8
INTERNALS
 62
7
370
-1
  6
ByLayer
 10
-13.9138951197480694
 20
57.075751825190487
 30
0.0
 11
-13.9138951197480694
 21
-28.424248174809513
 31
0.0
  0
LINE
  5
341
100
AcDbEntity
100
AcDbLine
  8
INTERNALS
 62
7
370
-1
  6
ByLayer
 10
89.5861048802519377
 20
-28.424248174809513
 30
0.0
 11
102.1644598802519113
 21
-28.424248174809513
 31
0.0
  0
LINE
  5
342
100
AcDbEntity
100
AcDbLine
  8
INTERNALS
 62
7
370
-1
  6
ByLayer
 10
-13.9138951197480694
 20
-28.424248174809513
 30
0.0
 11
-1.3355401197480745
 21
-28.424248174809513
 31
0.0
  0
LINE
  5
343
100
AcDbEntity
100
AcDbLine
  8
OUTLINE
 62
7
370
-1
  6
ByLayer
 10
94.086104880251952
 20
34.575751825190487
 30
0.0
 11
94.086104880251952
 21
-37.424248174809513
 31
0.0
  0
LINE
  5
344
100
AcDbEntity
100
AcDbLine
  8
OUTLINE
 62
7
370
-1
  6
ByLayer
 10
-9.4138951197480871
 20
34.575751825190487
 30
0.0
 11
-9.4138951197480871
 21
-37.424248174809513
 31
0.0
  0
LINE
  5
345
100
AcDbEntity
100
AcDbLine
  8
OUTLINE
 62
7
370
-1
  6
ByLayer
 10
109.086104880251952
 20
31.575751825190487
 30
0.0
 11
109.086104880251952
 21
-34.424248174809513
 31
0.0
  0
LINE
  5
346
100
AcDbEntity
100
AcDbLine
  8
OUTLINE
 62
7
370
-1
  6
ByLayer
 10
5.5861048802519129
 20
31.575751825190487
 30
0.0
 11
5.5861048802519129
 21
-34.424248174809513
 31
0.0
  0
ARC
  5
347
100
AcDbEntity
  8
OUTLINE
 62
7
370
-1
  6
ByLayer
100
AcDbCircle
 10
98.5861048802518951
 20
34.575751825190487
 30
0.0
 40
4.5
100
AcDbArc
 50
63.4349500000000006
 51
180.0
  0
ARC
  5
348
100
AcDbEntity
  8
OUTLINE
 62
7
370
-1
  6
ByLayer
100
AcDbCircle
 10
-4.9138951197480765
 20
34.575751825190487
 30
0.0
 40
4.5
100
AcDbArc
 50
63.4349500000000006
 51
180.0
  0
ARC
  5
349
100
AcDbEntity
  8
OUTLINE
 62
7
370
-1
  6
ByLayer
100
AcDbCircle
 10
104.5861048802519377
 20
31.575751825190487
 30
0.0
 40
4.5
100
AcDbArc
 50
0.0
 51
63.4349479999999986
  0
ARC
  5
34A
100
AcDbEntity
  8
OUTLINE
 62
7
370
-1
  6
ByLayer
100
AcDbCircle
 10
1.0861048802519289
 20
31.575751825190487
 30
0.0
 40
4.5
100
AcDbArc
 50
0.0
 51
63.4349479999999986
  0
ARC
  5
34B
100
AcDbEntity
  8
OUTLINE
 62
7
370
-1
  6
ByLayer
100
AcDbCircle
 10
98.5861048802518951
 20
-37.424248174809513
 30
0.0
 40
4.5
100
AcDbArc
 50
180.0
 51
296.5650469999999927
  0
ARC
  5
34C
100
AcDbEntity
  8
OUTLINE
 62
7
370
-1
  6
ByLayer
100
AcDbCircle
 10
-4.9138951197480765
 20
-37.424248174809513
 30
0.0
 40
4.5
100
AcDbArc
 50
180.0
 51
296.5650469999999927
  0
ARC
  5
34D
100
AcDbEntity
  8
OUTLINE
 62
7
370
-1
  6
ByLayer
100
AcDbCircle
 10
104.5861048802519377
 20
-34.424248174809513
 30
0.0
 40
4.5
100
AcDbArc
 50
296.5650549999999726
 51
360.0
  0
ARC
  5
34E
100
AcDbEntity
  8
OUTLINE
 62
7
370
-1
  6
ByLayer
100
AcDbCircle
 10
1.0861048802519289
 20
-34.424248174809513
 30
0.0
 40
4.5
100
AcDbArc
 50
296.5650549999999726
 51
360.0
  0
LINE
  5
34F
100
AcDbEntity
100
AcDbLine
  8
OUTLINE
 62
7
370
-1
  6
ByLayer
 10
100.5985648802519279
 20
38.6006718251904815
 30
0.0
 11
106.5985648802519137
 21
35.6006718251904886
 31
0.0
  0
LINE
  5
350
100
AcDbEntity
100
AcDbLine
  8
OUTLINE
 62
7
370
-1
  6
ByLayer
 10
-2.9014351197480739
 20
38.6006718251904815
 30
0.0
 11
3.0985648802519314
 21
35.6006718251904886
 31
0.0
  0
LINE
  5
351
100
AcDbEntity
100
AcDbLine
  8
OUTLINE
 62
7
370
-1
  6
ByLayer
 10
100.5985648802519279
 20
-41.4491681748095147
 30
0.0
 11
106.5985648802519137
 21
-38.4491681748095075
 31
0.0
  0
LINE
  5
352
100
AcDbEntity
100
AcDbLine
  8
OUTLINE
 62
7
370
-1
  6
ByLayer
 10
-2.9014351197480739
 20
-41.4491681748095147
 30
0.0
 11
3.0985648802519314
 21
-38.4491681748095075
 31
0.0
  0
LINE
  5
353
100
AcDbEntity
100
AcDbLine
  8
OUTLINE
 62
7
370
-1
  6
ByLayer
 10
25.0861048802519235
 20
60.0757518251904941
 30
0.0
 11
25.0861048802519235
 21
75.0757518251904798
 31
0.0
  0
LINE
  5
354
100
AcDbEntity
100
AcDbLine
  8
OUTLINE
 62
7
370
-1
  6
ByLayer
 10
-78.4138951197480765
 20
60.0757518251904941
 30
0.0
 11
-78.4138951197480765
 21
75.0757518251904798
 31
0.0
  0
LINE
  5
355
100
AcDbEntity
100
AcDbLine
  8
OUTLINE
 62
7
370
-1
  6
ByLayer
 10
25.0861048802519235
 20
75.0757518251904798
 30
0.0
 11
101.586104880251952
 21
75.0757518251904798
 31
0.0
  0
LINE
  5
356
100
AcDbEntity
100
AcDbLine
  8
OUTLINE
 62
7
370
-1
  6
ByLayer
 10
-78.4138951197480765
 20
75.0757518251904798
 30
0.0
 11
-1.9138951197480871
 21
75.0757518251904798
 31
0.0
  0
LINE
  5
357
100
AcDbEntity
100
AcDbLine
  8
OUTLINE
 62
7
370
-1
  6
ByLayer
 10
101.586104880251952
 20
75.0757518251904798
 30
0.0
 11
101.586104880251952
 21
38.1069018251904907
 31
0.0
  0
LINE
  5
358
100
AcDbEntity
100
AcDbLine
  8
OUTLINE
 62
7
370
-1
  6
ByLayer
 10
-1.9138951197480871
 20
75.0757518251904798
 30
0.0
 11
-1.9138951197480871
 21
38.1069018251904907
 31
0.0
  0
LINE
  5
359
100
AcDbEntity
100
AcDbLine
  8
OUTLINE
 62
7
370
-1
  6
ByLayer
 10
25.0861048802519235
 20
-67.4242481748095202
 30
0.0
 11
25.0861048802519235
 21
-71.9242481748095059
 31
0.0
  0
LINE
  5
35A
100
AcDbEntity
100
AcDbLine
  8
OUTLINE
 62
7
370
-1
  6
ByLayer
 10
-78.4138951197480765
 20
-67.4242481748095202
 30
0.0
 11
-78.4138951197480765
 21
-71.9242481748095059
 31
0.0
  0
LINE
  5
35B
100
AcDbEntity
100
AcDbLine
  8
OUTLINE
 62
7
370
-1
  6
ByLayer
 10
25.0861048802519235
 20
-71.9242481748095059
 30
0.0
 11
101.586104880251952
 21
-71.9242481748095059
 31
0.0
  0
LINE
  5
35C
100
AcDbEntity
100
AcDbLine
  8
OUTLINE
 62
7
370
-1
  6
ByLayer
 10
-78.4138951197480765
 20
-71.9242481748095059
 30
0.0
 11
-1.9138951197480871
 21
-71.9242481748095059
 31
0.0
  0
LINE
  5
35D
100
AcDbEntity
100
AcDbLine
  8
OUTLINE
 62
7
370
-1
  6
ByLayer
 10
101.586104880251952
 20
-71.9242481748095059
 30
0.0
 11
101.586104880251952
 21
-40.9553981748095168
 31
0.0
  0
LINE
  5
35E
100
AcDbEntity
100
AcDbLine
  8
OUTLINE
 62
7
370
-1
  6
ByLayer
 10
-1.9138951197480871
 20
-71.9242481748095059
 30
0.0
 11
-1.9138951197480871
 21
-40.9553981748095168
 31
0.0
  0
LINE
  5
35F
100
AcDbEntity
100
AcDbLine
  8
INTERNALS
 62
7
370
-1
  6
ByLayer
 10
62.5861048802519235
 20
19.5757518251904905
 30
0.0
 11
82.0861048802519377
 21
19.5757518251904905
 31
0.0
  0
LINE
  5
360
100
AcDbEntity
100
AcDbLine
  8
INTERNALS
 62
7
370
-1
  6
ByLayer
 10
62.5861048802519235
 20
12.0757518251904887
 30
0.0
 11
80.5861048802519093
 21
12.0757518251904887
 31
0.0
  0
LINE
  5
361
100
AcDbEntity
100
AcDbLine
  8
INTERNALS
 62
7
370
-1
  6
ByLayer
 10
62.5861048802519235
 20
4.5757518251904887
 30
0.0
 11
79.0861048802519235
 21
4.5757518251904887
 31
0.0
  0
LINE
  5
362
100
AcDbEntity
100
AcDbLine
  8
INTERNALS
 62
7
370
-1
  6
ByLayer
 10
79.0861048802519235
 20
4.5757518251904887
 30
0.0
 11
79.0861048802519235
 21
-1.424248174809517
 31
0.0
  0
LINE
  5
363
100
AcDbEntity
100
AcDbLine
  8
INTERNALS
 62
7
370
-1
  6
ByLayer
 10
79.0861048802519235
 20
-1.424248174809517
 30
0.0
 11
96.1644598802519255
 21
-1.424248174809517
 31
0.0
  0
LINE
  5
364
100
AcDbEntity
100
AcDbLine
  8
INTERNALS
 62
7
370
-1
  6
ByLayer
 10
62.5861048802519235
 20
-2.9242481748095117
 30
0.0
 11
77.5861048802519235
 21
-2.9242481748095117
 31
0.0
  0
LINE
  5
365
100
AcDbEntity
100
AcDbLine
  8
INTERNALS
 62
7
370
-1
  6
ByLayer
 10
77.5861048802519235
 20
-2.9242481748095117
 30
0.0
 11
77.5861048802519235
 21
-7.4242481748095148
 31
0.0
  0
LINE
  5
366
100
AcDbEntity
100
AcDbLine
  8
INTERNALS
 62
7
370
-1
  6
ByLayer
 10
77.5861048802519235
 20
-7.4242481748095148
 30
0.0
 11
96.1644598802519255
 21
-7.4242481748095148
 31
0.0
  0
LINE
  5
367
100
AcDbEntity
100
AcDbLine
  8
INTERNALS
 62
7
370
-1
  6
ByLayer
 10
62.5861048802519235
 20
-10.4242481748095113
 30
0.0
 11
76.0861048802519235
 21
-10.4242481748095113
 31
0.0
  0
LINE
  5
368
100
AcDbEntity
100
AcDbLine
  8
INTERNALS
 62
7
370
-1
  6
ByLayer
 10
76.0861048802519235
 20
-10.4242481748095113
 30
0.0
 11
76.0861048802519235
 21
-13.424248174809513
 31
0.0
  0
LINE
  5
369
100
AcDbEntity
100
AcDbLine
  8
INTERNALS
 62
7
370
-1
  6
ByLayer
 10
76.0861048802519235
 20
-13.424248174809513
 30
0.0
 11
96.1644598802519255
 21
-13.424248174809513
 31
0.0
  0
LINE
  5
36A
100
AcDbEntity
100
AcDbLine
  8
INTERNALS
 62
7
370
-1
  6
ByLayer
 10
62.5861048802519235
 20
-17.924248174809513
 30
0.0
 11
74.5861048802519377
 21
-17.924248174809513
 31
0.0
  0
LINE
  5
36B
100
AcDbEntity
100
AcDbLine
  8
INTERNALS
 62
7
370
-1
  6
ByLayer
 10
74.5861048802519377
 20
-17.924248174809513
 30
0.0
 11
74.5861048802519377
 21
-19.424248174809513
 31
0.0
  0
LINE
  5
36C
100
AcDbEntity
100
AcDbLine
  8
INTERNALS
 62
7
370
-1
  6
ByLayer
 10
74.5861048802519377
 20
-19.424248174809513
 30
0.0
 11
96.1644598802519255
 21
-19.424248174809513
 31
0.0
  0
LINE
  5
36D
100
AcDbEntity
100
AcDbLine
  8
INTERNALS
 62
7
370
-1
  6
ByLayer
 10
62.5861048802519235
 20
-25.424248174809513
 30
0.0
 11
96.1644598802519255
 21
-25.424248174809513
 31
0.0
  0
LINE
  5
36E
100
AcDbEntity
100
AcDbLine
  8
INTERNALS
 62
7
370
-1
  6
ByLayer
 10
62.5861048802519235
 20
-32.9242481748095202
 30
0.0
 11
74.5861048802519377
 21
-32.9242481748095202
 31
0.0
  0
LINE
  5
36F
100
AcDbEntity
100
AcDbLine
  8
INTERNALS
 62
7
370
-1
  6
ByLayer
 10
74.5861048802519377
 20
-32.9242481748095202
 30
0.0
 11
74.5861048802519377
 21
-31.4242481748095059
 31
0.0
  0
LINE
  5
370
100
AcDbEntity
100
AcDbLine
  8
INTERNALS
 62
7
370
-1
  6
ByLayer
 10
74.5861048802519377
 20
-31.4242481748095059
 30
0.0
 11
96.1644598802519255
 21
-31.4242481748095059
 31
0.0
  0
MTEXT
  5
371
100
AcDbEntity
100
AcDbMText
  8
STANDARD
 62
7
370
-1
  6
ByLayer
 10
62.5861048802519235
 20
70.5757518251904798
 30
0.0
 40
3.0
 41
1500.0
 71
5
 72
2
  1
parport.0
  7
romand
 50
0.0
 73
0
 44
1.0
  0
MTEXT
  5
372
100
AcDbEntity
100
AcDbMText
  8
STANDARD
 62
7
370
-1
  6
ByLayer
 10
-40.9138951197480836
 20
70.5757518251904798
 30
0.0
 40
3.0
 41
1500.0
 71
5
 72
2
  1
parport.0
  7
romand
 50
0.0
 73
0
 44
1.0
  0
MTEXT
  5
373
100
AcDbEntity
100
AcDbMText
  8
STANDARD
 62
7
370
-1
  6
ByLayer
 10
62.5861048802519235
 20
64.5757518251904941
 30
0.0
 40
2.25
 41
1500.0
 71
5
 72
2
  1
configured\~as\~input
  7
romand
 50
0.0
 73
0
 44
1.0
  0
MTEXT
  5
374
100
AcDbEntity
100
AcDbMText
  8
STANDARD
 62
7
370
-1
  6
ByLayer
 10
-40.9138951197480836
 20
64.5757518251904941
 30
0.0
 40
2.25
 41
1500.0
 71
5
 72
2
  1
configured\~as\~output
  7
romand
 50
0.0
 73
0
 44
1.0
  0
MTEXT
  5
375
100
AcDbEntity
100
AcDbMText
  8
PINS
 62
7
370
-1
  6
ByLayer
 10
-70.9138951197480765
 20
58.575751825190487
 30
0.0
 40
1.7999999999999998
 41
1500.0
 71
5
 72
2
  1
pin-15-in
  7
romand
 50
0.0
 73
0
 44
1.0
  0
MTEXT
  5
376
100
AcDbEntity
100
AcDbMText
  8
PINS
 62
7
370
-1
  6
ByLayer
 10
-70.9138951197480765
 20
55.5757518251904798
 30
0.0
 40
1.7999999999999998
 41
1500.0
 71
5
 72
2
  1
pin-15-in-not
  7
romand
 50
0.0
 73
0
 44
1.0
  0
MTEXT
  5
377
100
AcDbEntity
100
AcDbMText
  8
PARAMS
 62
7
370
-1
  6
ByLayer
 10
-49.9138951197480765
 20
19.5757518251904905
 30
0.0
 40
1.800
 41
1500.0
 71
5
 72
2
  1
pin-9-out-invert
  7
romand
 50
0.0
 73
0
 44
1.0
  0
MTEXT
  5
378
100
AcDbEntity
100
AcDbMText
  8
INTERNALS
 62
7
370
-1
  6
ByLayer
 10
-4.9138951197480765
 20
34.575751825190487
 30
0.0
 40
2.25
 41
1500.0
 71
5
 72
2
  1
13
  7
romand
 50
0.0
 73
0
 44
1.0
  0
ENDSEC
  0
SECTION
  2
OBJECTS
  0
DICTIONARY
  5
C
100
AcDbDictionary
280
0
281
1
  3
ACAD_GROUP
350
D
  3
ACAD_LAYOUT
350
1A
  3
ACAD_MLINESTYLE
350
17
  3
ACAD_PLOTSETTINGS
350
19
  3
ACAD_PLOTSTYLENAME
350
E
  3
AcDbVariableDictionary
350
379
  0
DICTIONARY
  5
D
100
AcDbDictionary
280
0
281
1
  0
ACDBDICTIONARYWDFLT
  5
E
100
AcDbDictionary
281
1
  3
Normal
350
F
100
AcDbDictionaryWithDefault
340
F
  0
ACDBPLACEHOLDER
  5
F
  0
DICTIONARY
  5
17
100
AcDbDictionary
280
0
281
1
  3
Standard
350
18
  0
MLINESTYLE
  5
18
100
AcDbMlineStyle
  2
STANDARD
 70
0
  3

 62
256
 51
90.0
 52
90.0
 71
2
 49
0.5
 62
256
  6
BYLAYER
 49
-0.5
 62
256
  6
BYLAYER
  0
DICTIONARY
  5
19
100
AcDbDictionary
280
0
281
1
  0
DICTIONARY
  5
1A
100
AcDbDictionary
281
1
  3
Layout1
350
1E
  3
Layout2
350
26
  3
Model
350
22
  0
LAYOUT
  5
1E
100
AcDbPlotSettings
  1

  2
C:\Program Files\AutoCAD 2002\plotters\DWF ePlot (optimized for plotting).pc3
  4

  6

 40
0.0
 41
0.0
 42
0.0
 43
0.0
 44
0.0
 45
0.0
 46
0.0
 47
0.0
 48
0.0
 49
0.0
140
0.0
141
0.0
142
1.0
143
1.0
 70
688
 72
0
 73
0
 74
5
  7

 75
16
147
1.0
148
0.0
149
0.0
100
AcDbLayout
  1
Layout1
 70
1
 71
1
 10
0.0
 20
0.0
 11
420.0
 21
297.0
 12
0.0
 22
0.0
 32
0.0
 14
100000000000000000000.0
 24
100000000000000000000.0
 34
100000000000000000000.0
 15
-100000000000000000000.0
 25
-100000000000000000000.0
 35
-100000000000000000000.0
146
0.0
 13
0.0
 23
0.0
 33
0.0
 16
1.0
 26
0.0
 36
0.0
 17
0.0
 27
1.0
 37
0.0
 76
0
330
1B
  0
LAYOUT
  5
22
100
AcDbPlotSettings
  1

  2
C:\Program Files\AutoCAD 2002\plotters\DWF ePlot (optimized for plotting).pc3
  4

  6

 40
0.0
 41
0.0
 42
0.0
 43
0.0
 44
0.0
 45
0.0
 46
0.0
 47
0.0
 48
0.0
 49
0.0
140
0.0
141
0.0
142
1.0
143
1.0
 70
1712
 72
0
 73
0
 74
0
  7

 75
0
147
1.0
148
0.0
149
0.0
100
AcDbLayout
  1
Model
 70
1
 71
0
 10
0.0
 20
0.0
 11
12.0
 21
9.0
 12
0.0
 22
0.0
 32
0.0
 14
0.0
 24
0.0
 34
0.0
 15
0.0
 25
0.0
 35
0.0
146
0.0
 13
0.0
 23
0.0
 33
0.0
 16
1.0
 26
0.0
 36
0.0
 17
0.0
 27
1.0
 37
0.0
 76
0
330
1F
  0
LAYOUT
  5
26
100
AcDbPlotSettings
  1

  2
C:\Program Files\AutoCAD 2002\plotters\DWF ePlot (optimized for plotting).pc3
  4

  6

 40
0.0
 41
0.0
 42
0.0
 43
0.0
 44
0.0
 45
0.0
 46
0.0
 47
0.0
 48
0.0
 49
0.0
140
0.0
141
0.0
142
1.0
143
1.0
 70
688
 72
0
 73
0
 74
5
  7

 75
16
147
1.0
148
0.0
149
0.0
100
AcDbLayout
  1
Layout2
 70
1
 71
2
 10
0.0
 20
0.0
 11
12.0
 21
9.0
 12
0.0
 22
0.0
 32
0.0
 14
0.0
 24
0.0
 34
0.0
 15
0.0
 25
0.0
 35
0.0
146
0.0
 13
0.0
 23
0.0
 33
0.0
 16
1.0
 26
0.0
 36
0.0
 17
0.0
 27
1.0
 37
0.0
 76
0
330
23
  0
DICTIONARY
  5
379
100
AcDbDictionary
281
1
  3
DIMASSOC
350
37B
  3
HIDETEXT
350
37A
  0
DICTIONARYVAR
  5
37A
100
DictionaryVariables
280
0
  1
2
  0
DICTIONARYVAR
  5
37B
100
DictionaryVariables
280
0
  1
1
  0
ENDSEC
  0
EOF
