  0
SECTION
  2
HEADER
  9
$ACADVER
  1
AC1009
  9
$INSBASE
 10
0.0
 20
0.0
 30
0.0
  9
$EXTMIN
 10
-6.3495
 20
10.8725
 30
0.0
  9
$EXTMAX
 10
3.6495
 20
16.4275
 30
0.0
  9
$LIMMIN
 10
0.0
 20
0.0
  9
$LIMMAX
 10
0.0
 20
0.0
  9
$ORTHOMODE
 70
     0
  9
$REGENMODE
 70
     1
  9
$FILLMODE
 70
     1
  9
$QTEXTMODE
 70
     0
  9
$MIRRTEXT
 70
     1
  9
$DRAGMODE
 70
     2
  9
$LTSCALE
 40
1.0
  9
$OSMODE
 70
     0
  9
$ATTMODE
 70
     1
  9
$TEXTSIZE
 40
0.2
  9
$TRACEWID
 40
0.05
  9
$TEXTSTYLE
  7
STANDARD
  9
$CLAYER
  8
0
  9
$CELTYPE
  6
CONTINUOUS
  9
$CECOLOR
 62
   256
  9
$DIMSCALE
 40
1.0
  9
$DIMASZ
 40
0.18
  9
$DIMEXO
 40
0.0625
  9
$DIMDLI
 40
0.38
  9
$DIMRND
 40
0.0
  9
$DIMDLE
 40
0.0
  9
$DIMEXE
 40
0.18
  9
$DIMTP
 40
0.0
  9
$DIMTM
 40
0.0
  9
$DIMTXT
 40
0.18
  9
$DIMCEN
 40
0.09
  9
$DIMTSZ
 40
0.0
  9
$DIMTOL
 70
     0
  9
$DIMLIM
 70
     0
  9
$DIMTIH
 70
     1
  9
$DIMTOH
 70
     1
  9
$DIMSE1
 70
     0
  9
$DIMSE2
 70
     0
  9
$DIMTAD
 70
     0
  9
$DIMZIN
 70
     0
  9
$DIMBLK
  1

  9
$DIMASO
 70
     1
  9
$DIMSHO
 70
     1
  9
$DIMPOST
  1

  9
$DIMAPOST
  1

  9
$DIMALT
 70
     0
  9
$DIMALTD
 70
     2
  9
$DIMALTF
 40
25.4
  9
$DIMLFAC
 40
1.0
  9
$DIMTOFL
 70
     0
  9
$DIMTVP
 40
0.0
  9
$DIMTIX
 70
     0
  9
$DIMSOXD
 70
     0
  9
$DIMSAH
 70
     0
  9
$DIMBLK1
  1

  9
$DIMBLK2
  1

  9
$DIMSTYLE
  2
STANDARD
  9
$DIMCLRD
 70
     0
  9
$DIMCLRE
 70
     0
  9
$DIMCLRT
 70
     0
  9
$DIMTFAC
 40
1.0
  9
$DIMGAP
 40
0.09
  9
$LUNITS
 70
     2
  9
$LUPREC
 70
     4
  9
$AXISMODE
 70
     0
  9
$AXISUNIT
 10
0.0
 20
0.0
  9
$SKETCHINC
 40
0.1
  9
$FILLETRAD
 40
0.0
  9
$AUNITS
 70
     0
  9
$AUPREC
 70
     0
  9
$MENU
  1
acad
  9
$ELEVATION
 40
0.0
  9
$PELEVATION
 40
0.0
  9
$THICKNESS
 40
0.0
  9
$LIMCHECK
 70
     0
  9
$BLIPMODE
 70
     1
  9
$CHAMFERA
 40
0.0
  9
$CHAMFERB
 40
0.0
  9
$SKPOLY
 70
     0
  9
$TDCREATE
 40
0.000000000
  9
$TDUPDATE
 40
0.000000000
  9
$TDINDWG
 40
0.0000000000
  9
$TDUSRTIMER
 40
0.0000000000
  9
$USRTIMER
 70
     1
  9
$ANGBASE
 50
0.0
  9
$ANGDIR
 70
     0
  9
$PDMODE
 70
     0
  9
$PDSIZE
 40
0.0
  9
$PLINEWID
 40
0.0
  9
$COORDS
 70
     0
  9
$SPLFRAME
 70
     0
  9
$SPLINETYPE
 70
     6
  9
$SPLINESEGS
 70
     8
  9
$ATTDIA
 70
     0
  9
$ATTREQ
 70
     1
  9
$HANDLING
 70
     1
  9
$HANDSEED
  5
148
  9
$SURFTAB1
 70
     6
  9
$SURFTAB2
 70
     6
  9
$SURFTYPE
 70
     6
  9
$SURFU
 70
     6
  9
$SURFV
 70
     6
  9
$UCSNAME
  2

  9
$UCSORG
 10
0.0
 20
0.0
 30
0.0
  9
$UCSXDIR
 10
1.0
 20
0.0
 30
0.0
  9
$UCSYDIR
 10
0.0
 20
1.0
 30
0.0
  9
$PUCSNAME
  2

  9
$PUCSORG
 10
0.0
 20
0.0
 30
0.0
  9
$PUCSXDIR
 10
1.0
 20
0.0
 30
0.0
  9
$PUCSYDIR
 10
0.0
 20
1.0
 30
0.0
  9
$USERI1
 70
     0
  9
$USERI2
 70
     0
  9
$USERI3
 70
     0
  9
$USERI4
 70
     0
  9
$USERI5
 70
     0
  9
$USERR1
 40
0.0
  9
$USERR2
 40
0.0
  9
$USERR3
 40
0.0
  9
$USERR4
 40
0.0
  9
$USERR5
 40
0.0
  9
$WORLDVIEW
 70
     1
  9
$SHADEDGE
 70
     3
  9
$SHADEDIF
 70
    70
  9
$TILEMODE
 70
     1
  9
$MAXACTVP
 70
    16
  9
$PINSBASE
 10
0.0
 20
0.0
 30
0.0
  9
$PLIMCHECK
 70
     0
  9
$PEXTMIN
 10
1.000000E+20
 20
1.000000E+20
 30
1.000000E+20
  9
$PEXTMAX
 10
-1.000000E+20
 20
-1.000000E+20
 30
-1.000000E+20
  9
$PLIMMIN
 10
0.0
 20
0.0
  9
$PLIMMAX
 10
12.0
 20
9.0
  9
$UNITMODE
 70
     0
  9
$VISRETAIN
 70
     0
  9
$PLINEGEN
 70
     1
  9
$PSLTSCALE
 70
     0
  9
$TREEDEPTH
 70
  3020
  9
$DWGCODEPAGE
  3
dos850
  0
ENDSEC
  0
SECTION
  2
TABLES
  0
TABLE
  2
VPORT
 70
     1
  0
VPORT
  2
*ACTIVE
 70
     0
 10
0.0
 20
0.0
 11
1.0
 21
1.0
 12
6.591288
 22
4.579184
 13
0.0
 23
0.0
 14
1.0
 24
1.0
 15
0.0
 25
0.0
 16
0.0
 26
0.0
 36
1.0
 17
0.0
 27
0.0
 37
0.0
 40
9.158369
 41
0.688564
 42
50.0
 43
0.0
 44
0.0
 50
0.0
 51
0.0
 71
     0
 72
   100
 73
     1
 74
     1
 75
     0
 76
     0
 77
     0
 78
     0
  0
ENDTAB
  0
TABLE
  2
LTYPE
 70
     2
  0
LTYPE
  2
CONTINUOUS
 70
    64
  3
Solid line
 72
    65
 73
     0
 40
0.0
  0
LTYPE
  2
DASH
 70
    64
  3
- -
 72
    65
 73
     4
 40
0.1
 49
0.025
 49
-0.025
 49
-0.025
 49
0.025
  0
ENDTAB
  0
TABLE
  2
LAYER
 70
     7
  0
LAYER
  2
0
 70
     0
 62
     7
  6
CONTINUOUS
  0
LAYER
  2
MERGE
 70
     0
 62
     7
  6
CONTINUOUS
  0
LAYER
  2
STANDARD
 70
     0
 62
     7
  6
CONTINUOUS
  0
LAYER
  2
PINS
 70
     0
 62
     7
  6
CONTINUOUS
  0
LAYER
  2
PARAMS
 70
     0
 62
     7
  6
CONTINUOUS
  0
LAYER
  2
OUTLINE
 70
     0
 62
     7
  6
CONTINUOUS
  0
LAYER
  2
INTERNALS
 70
     0
 62
     7
  6
CONTINUOUS
  0
ENDTAB
  0
TABLE
  2
STYLE
 70
     2
  0
STYLE
  2
STANDARD
 70
     0
 40
0.0
 41
1.0
 50
0.0
 71
     0
 42
0.0
  3
txt
  4

  0
STYLE
  2
STYLE1
 70
     0
 40
0.0
 41
1.0
 50
0.0
 71
     0
 42
0.0
  3
Arial.ttf
  4

  0
ENDTAB
  0
TABLE
  2
VIEW
 70
     0
  0
ENDTAB
  0
TABLE
  2
UCS
 70
     0
  0
ENDTAB
  0
TABLE
  2
APPID
 70
     1
  0
APPID
  2
ACAD
 70
     0
  0
ENDTAB
  0
TABLE
  2
DIMSTYLE
 70
     1
  0
DIMSTYLE
  2
STANDARD
 70
     0
  3

  4

  5

  6

  7

 40
1.0
 41
0.18
 42
0.0625
 43
0.38
 44
0.18
 45
0.0
 46
0.0
 47
0.0
 48
0.0
 71
     0
 72
     0
 73
     1
 74
     1
 75
     0
 76
     0
 77
     0
 78
     0
140
0.18
141
0.09
142
0.0
143
25.4
144
1.0
145
0.0
146
1.0
147
0.09
170
     0
171
     2
172
     0
173
     0
174
     0
175
     0
176
     0
177
     0
178
     0
  0
ENDTAB
  0
ENDSEC
  0
SECTION
  2
BLOCKS
  0
ENDSEC
  0
SECTION
  2
ENTITIES
  0
POLYLINE
  8
STANDARD
 62
     7
  5
24
 66
     1
 10
0.0
 20
0.0
 30
0.0
 70
     1
  0
VERTEX
  8
STANDARD
 62
     7
  5
25
 10
-6.2
 20
12.6
 30
0.0
  0
VERTEX
  8
STANDARD
 62
     7
  5
26
 10
-6.2
 20
12.8
 30
0.0
  0
VERTEX
  8
STANDARD
 62
     7
  5
27
 10
-4.9
 20
12.8
 30
0.0
  0
VERTEX
  8
STANDARD
 62
     7
  5
28
 10
-4.8
 20
12.7
 30
0.0
  0
VERTEX
  8
STANDARD
 62
     7
  5
29
 10
-4.9
 20
12.6
 30
0.0
  0
VERTEX
  8
STANDARD
 62
     7
  5
2A
 10
-6.2
 20
12.6
 30
0.0
  0
VERTEX
  8
STANDARD
 62
     7
  5
2B
 10
-6.2
 20
12.6
 30
0.0
  0
SEQEND
  8
0
  5
2C
  0
POLYLINE
  8
STANDARD
 62
     7
  5
2D
 66
     1
 10
0.0
 20
0.0
 30
0.0
 70
     1
  0
VERTEX
  8
STANDARD
 62
     7
  5
2E
 10
-6.2
 20
11.8
 30
0.0
  0
VERTEX
  8
STANDARD
 62
     7
  5
2F
 10
-6.3
 20
11.9
 30
0.0
  0
VERTEX
  8
STANDARD
 62
     7
  5
30
 10
-6.2
 20
12.0
 30
0.0
  0
VERTEX
  8
STANDARD
 62
     7
  5
31
 10
-4.9
 20
12.0
 30
0.0
  0
VERTEX
  8
STANDARD
 62
     7
  5
32
 10
-4.8
 20
11.9
 30
0.0
  0
VERTEX
  8
STANDARD
 62
     7
  5
33
 10
-4.9
 20
11.8
 30
0.0
  0
VERTEX
  8
STANDARD
 62
     7
  5
34
 10
-6.2
 20
11.8
 30
0.0
  0
VERTEX
  8
STANDARD
 62
     7
  5
35
 10
-6.2
 20
11.8
 30
0.0
  0
SEQEND
  8
0
  5
36
  0
TEXT
  8
STANDARD
 62
     7
  5
37
 10
-5.7375
 20
12.65
 30
0.0
 40
0.1
  1
reset
  7
STYLE1
 72
     1
 11
-5.6
 21
12.7
 31
0.0
 73
     2
  0
TEXT
  8
STANDARD
 62
     7
  5
38
 10
-5.93
 20
11.85
 30
0.0
 40
0.1
  1
index-enable
  7
STYLE1
 72
     1
 11
-5.6
 21
11.9
 31
0.0
 73
     2
  0
LINE
  8
STANDARD
 62
     7
  5
39
 10
0.7
 20
13.4
 30
0.0
 11
0.7
 21
13.7
 31
0.0
  0
POLYLINE
  8
STANDARD
 62
     7
  5
3A
 66
     1
 10
0.0
 20
0.0
 30
0.0
 70
     1
  0
VERTEX
  8
STANDARD
 62
     7
  5
3B
 10
2.3
 20
11.8
 30
0.0
  0
VERTEX
  8
STANDARD
 62
     7
  5
3C
 10
2.2
 20
11.9
 30
0.0
  0
VERTEX
  8
STANDARD
 62
     7
  5
3D
 10
2.3
 20
12.0
 30
0.0
  0
VERTEX
  8
STANDARD
 62
     7
  5
3E
 10
3.6
 20
12.0
 30
0.0
  0
VERTEX
  8
STANDARD
 62
     7
  5
3F
 10
3.6
 20
11.8
 30
0.0
  0
VERTEX
  8
STANDARD
 62
     7
  5
40
 10
2.3
 20
11.8
 30
0.0
  0
VERTEX
  8
STANDARD
 62
     7
  5
41
 10
2.3
 20
11.8
 30
0.0
  0
SEQEND
  8
0
  5
42
  0
POLYLINE
  8
STANDARD
 62
     7
  5
43
 66
     1
 10
0.0
 20
0.0
 30
0.0
 70
     1
  0
VERTEX
  8
STANDARD
 62
     7
  5
44
 10
2.3
 20
13.8
 30
0.0
  0
VERTEX
  8
STANDARD
 62
     7
  5
45
 10
2.2
 20
13.9
 30
0.0
  0
VERTEX
  8
STANDARD
 62
     7
  5
46
 10
2.3
 20
14.0
 30
0.0
  0
VERTEX
  8
STANDARD
 62
     7
  5
47
 10
3.6
 20
14.0
 30
0.0
  0
VERTEX
  8
STANDARD
 62
     7
  5
48
 10
3.6
 20
13.8
 30
0.0
  0
VERTEX
  8
STANDARD
 62
     7
  5
49
 10
2.3
 20
13.8
 30
0.0
  0
VERTEX
  8
STANDARD
 62
     7
  5
4A
 10
2.3
 20
13.8
 30
0.0
  0
SEQEND
  8
0
  5
4B
  0
POLYLINE
  8
STANDARD
 62
     7
  5
4C
 66
     1
 10
0.0
 20
0.0
 30
0.0
 70
     1
  0
VERTEX
  8
STANDARD
 62
     7
  5
4D
 10
2.3
 20
14.2
 30
0.0
  0
VERTEX
  8
STANDARD
 62
     7
  5
4E
 10
2.2
 20
14.3
 30
0.0
  0
VERTEX
  8
STANDARD
 62
     7
  5
4F
 10
2.3
 20
14.4
 30
0.0
  0
VERTEX
  8
STANDARD
 62
     7
  5
50
 10
3.6
 20
14.4
 30
0.0
  0
VERTEX
  8
STANDARD
 62
     7
  5
51
 10
3.6
 20
14.2
 30
0.0
  0
VERTEX
  8
STANDARD
 62
     7
  5
52
 10
2.3
 20
14.2
 30
0.0
  0
VERTEX
  8
STANDARD
 62
     7
  5
53
 10
2.3
 20
14.2
 30
0.0
  0
SEQEND
  8
0
  5
54
  0
POLYLINE
  8
STANDARD
 62
     7
  5
55
 66
     1
 10
0.0
 20
0.0
 30
0.0
 70
     1
  0
VERTEX
  8
STANDARD
 62
     7
  5
56
 10
-6.1
 20
13.9
 30
0.0
  0
VERTEX
  8
STANDARD
 62
     7
  5
57
 10
-6.2
 20
14.0
 30
0.0
  0
VERTEX
  8
STANDARD
 62
     7
  5
58
 10
-6.1
 20
14.1
 30
0.0
  0
VERTEX
  8
STANDARD
 62
     7
  5
59
 10
-4.8
 20
14.1
 30
0.0
  0
VERTEX
  8
STANDARD
 62
     7
  5
5A
 10
-4.8
 20
13.9
 30
0.0
  0
VERTEX
  8
STANDARD
 62
     7
  5
5B
 10
-6.1
 20
13.9
 30
0.0
  0
VERTEX
  8
STANDARD
 62
     7
  5
5C
 10
-6.1
 20
13.9
 30
0.0
  0
SEQEND
  8
0
  5
5D
  0
POLYLINE
  8
STANDARD
 62
     7
  5
5E
 66
     1
 10
0.0
 20
0.0
 30
0.0
 70
     1
  0
VERTEX
  8
STANDARD
 62
     7
  5
5F
 10
-6.1
 20
14.9
 30
0.0
  0
VERTEX
  8
STANDARD
 62
     7
  5
60
 10
-6.2
 20
15.0
 30
0.0
  0
VERTEX
  8
STANDARD
 62
     7
  5
61
 10
-6.1
 20
15.1
 30
0.0
  0
VERTEX
  8
STANDARD
 62
     7
  5
62
 10
-4.8
 20
15.1
 30
0.0
  0
VERTEX
  8
STANDARD
 62
     7
  5
63
 10
-4.8
 20
14.9
 30
0.0
  0
VERTEX
  8
STANDARD
 62
     7
  5
64
 10
-6.1
 20
14.9
 30
0.0
  0
VERTEX
  8
STANDARD
 62
     7
  5
65
 10
-6.1
 20
14.9
 30
0.0
  0
SEQEND
  8
0
  5
66
  0
TEXT
  8
STANDARD
 62
     7
  5
67
 10
2.7075
 20
11.85
 30
0.0
 40
0.1
  1
phase-Z
  7
STYLE1
 72
     1
 11
2.9
 21
11.9
 31
0.0
 73
     2
  0
TEXT
  8
STANDARD
 62
     7
  5
68
 10
2.7075
 20
13.85
 30
0.0
 40
0.1
  1
phase-B
  7
STYLE1
 72
     1
 11
2.9
 21
13.9
 31
0.0
 73
     2
  0
TEXT
  8
STANDARD
 62
     7
  5
69
 10
2.7075
 20
14.25
 30
0.0
 40
0.1
  1
phase-A
  7
STYLE1
 72
     1
 11
2.9
 21
14.3
 31
0.0
 73
     2
  0
TEXT
  8
STANDARD
 62
     7
  5
6A
 10
-5.665
 20
13.95
 30
0.0
 40
0.1
  1
counts
  7
STYLE1
 72
     1
 11
-5.5
 21
14.0
 31
0.0
 73
     2
  0
TEXT
  8
STANDARD
 62
     7
  5
6B
 10
-5.72
 20
14.95
 30
0.0
 40
0.1
  1
position
  7
STYLE1
 72
     1
 11
-5.5
 21
15.0
 31
0.0
 73
     2
  0
TEXT
  8
PARAMS
 62
     7
  5
6C
 10
-2.9375
 20
13.95
 30
0.0
 40
0.1
  1
latch
  7
STYLE1
 72
     1
 11
-2.8
 21
14.0
 31
0.0
 73
     2
  0
TEXT
  8
PARAMS
 62
     7
  5
6D
 10
-0.0925
 20
14.55
 30
0.0
 40
0.1
  1
counter
  7
STYLE1
 72
     1
 11
0.1
 21
14.6
 31
0.0
 73
     2
  0
TEXT
  8
PARAMS
 62
     7
  5
6E
 10
1.39
 20
11.925
 30
0.0
 40
0.1
  1
edge
  7
STYLE1
 72
     1
 11
1.5
 21
11.975
 31
0.0
 73
     2
  0
TEXT
  8
PARAMS
 62
     7
  5
6F
 10
1.335
 20
11.775
 30
0.0
 40
0.1
  1
detect
  7
STYLE1
 72
     1
 11
1.5
 21
11.825
 31
0.0
 73
     2
  0
TEXT
  8
PARAMS
 62
     7
  5
70
 10
1.19
 20
14.125
 30
0.0
 40
0.1
  1
quad
  7
STYLE1
 72
     1
 11
1.3
 21
14.175
 31
0.0
 73
     2
  0
TEXT
  8
PARAMS
 62
     7
  5
71
 10
1.135
 20
13.975
 30
0.0
 40
0.1
  1
decode
  7
STYLE1
 72
     1
 11
1.3
 21
14.025
 31
0.0
 73
     2
  0
TEXT
  8
PARAMS
 62
     7
  5
72
 10
-1.5475
 20
14.65
 30
0.0
 40
0.1
  1
rawcounts
  7
STYLE1
 72
     1
 11
-1.3
 21
14.7
 31
0.0
 73
     2
  0
TEXT
  8
PARAMS
 62
     7
  5
73
 10
-3.885
 20
15.55
 30
0.0
 40
0.1
  1
position-scale
  7
STYLE1
 72
     1
 11
-3.5
 21
15.6
 31
0.0
 73
     2
  0
LINE
  8
PARAMS
 62
     7
  5
74
 10
-1.9
 20
14.6
 30
0.0
 11
-1.9
 21
14.8
 31
0.0
  0
LINE
  8
PARAMS
 62
     7
  5
75
 10
-2.9
 20
15.5
 30
0.0
 11
-2.9
 21
15.7
 31
0.0
  0
LINE
  8
PARAMS
 62
     7
  5
76
 10
-1.9
 20
14.8
 30
0.0
 11
-0.7
 21
14.8
 31
0.0
  0
LINE
  8
PARAMS
 62
     7
  5
77
 10
-2.9
 20
15.7
 30
0.0
 11
-4.1
 21
15.7
 31
0.0
  0
LINE
  8
PARAMS
 62
     7
  5
78
 10
-0.7
 20
14.8
 30
0.0
 11
-0.7
 21
14.6
 31
0.0
  0
LINE
  8
PARAMS
 62
     7
  5
79
 10
-4.1
 20
15.7
 30
0.0
 11
-4.1
 21
15.5
 31
0.0
  0
LINE
  8
PARAMS
 62
     7
  5
7A
 10
-0.7
 20
14.6
 30
0.0
 11
-1.9
 21
14.6
 31
0.0
  0
LINE
  8
PARAMS
 62
     7
  5
7B
 10
-4.1
 20
15.5
 30
0.0
 11
-2.9
 21
15.5
 31
0.0
  0
POLYLINE
  8
STANDARD
 62
     7
  5
7C
 66
     1
 10
0.0
 20
0.0
 30
0.0
 70
     1
  0
VERTEX
  8
STANDARD
 62
     7
  5
7D
 10
-3.1
 20
13.4
 30
0.0
  0
VERTEX
  8
STANDARD
 62
     7
  5
7E
 10
-3.1
 20
14.5
 30
0.0
  0
VERTEX
  8
STANDARD
 62
     7
  5
7F
 10
-2.5
 20
14.5
 30
0.0
  0
VERTEX
  8
STANDARD
 62
     7
  5
80
 10
-2.5
 20
13.4
 30
0.0
  0
VERTEX
  8
STANDARD
 62
     7
  5
81
 10
-3.1
 20
13.4
 30
0.0
  0
SEQEND
  8
0
  5
82
  0
POLYLINE
  8
STANDARD
 62
     7
  5
83
 66
     1
 10
0.0
 20
0.0
 30
0.0
 70
     1
  0
VERTEX
  8
STANDARD
 62
     7
  5
84
 10
-0.2
 20
13.4
 30
0.0
  0
VERTEX
  8
STANDARD
 62
     7
  5
85
 10
-0.2
 20
14.5
 30
0.0
  0
VERTEX
  8
STANDARD
 62
     7
  5
86
 10
0.4
 20
14.5
 30
0.0
  0
VERTEX
  8
STANDARD
 62
     7
  5
87
 10
0.4
 20
13.4
 30
0.0
  0
VERTEX
  8
STANDARD
 62
     7
  5
88
 10
-0.2
 20
13.4
 30
0.0
  0
SEQEND
  8
0
  5
89
  0
POLYLINE
  8
STANDARD
 62
     7
  5
8A
 66
     1
 10
0.0
 20
0.0
 30
0.0
 70
     1
  0
VERTEX
  8
STANDARD
 62
     7
  5
8B
 10
1.2
 20
11.6
 30
0.0
  0
VERTEX
  8
STANDARD
 62
     7
  5
8C
 10
1.2
 20
12.2
 30
0.0
  0
VERTEX
  8
STANDARD
 62
     7
  5
8D
 10
1.8
 20
12.2
 30
0.0
  0
VERTEX
  8
STANDARD
 62
     7
  5
8E
 10
1.8
 20
11.6
 30
0.0
  0
VERTEX
  8
STANDARD
 62
     7
  5
8F
 10
1.2
 20
11.6
 30
0.0
  0
SEQEND
  8
0
  5
90
  0
POLYLINE
  8
STANDARD
 62
     7
  5
91
 66
     1
 10
0.0
 20
0.0
 30
0.0
 70
     1
  0
VERTEX
  8
STANDARD
 62
     7
  5
92
 10
1.0
 20
13.7
 30
0.0
  0
VERTEX
  8
STANDARD
 62
     7
  5
93
 10
1.0
 20
14.5
 30
0.0
  0
VERTEX
  8
STANDARD
 62
     7
  5
94
 10
1.6
 20
14.5
 30
0.0
  0
VERTEX
  8
STANDARD
 62
     7
  5
95
 10
1.6
 20
13.7
 30
0.0
  0
VERTEX
  8
STANDARD
 62
     7
  5
96
 10
1.0
 20
13.7
 30
0.0
  0
SEQEND
  8
0
  5
97
  0
LINE
  8
STANDARD
 62
     7
  5
98
 10
-0.5
 20
14.7
 30
0.0
 11
-0.5
 21
14.0
 31
0.0
  0
LINE
  8
STANDARD
 62
     7
  5
99
 10
-4.3
 20
15.0
 30
0.0
 11
-4.35
 21
15.05
 31
0.0
  0
LINE
  8
STANDARD
 62
     7
  5
9A
 10
-4.3
 20
15.0
 30
0.0
 11
-4.35
 21
14.95
 31
0.0
  0
LINE
  8
STANDARD
 62
     7
  5
9B
 10
-4.3
 20
15.0
 30
0.0
 11
-4.25
 21
14.95
 31
0.0
  0
LINE
  8
STANDARD
 62
     7
  5
9C
 10
-4.3
 20
15.0
 30
0.0
 11
-4.25
 21
15.05
 31
0.0
  0
CIRCLE
  8
STANDARD
 62
     7
  5
9D
 10
-4.3
 20
15.0
 30
0.0
 40
0.15
  0
LINE
  8
STANDARD
 62
     7
  5
9E
 10
0.7
 20
11.9
 30
0.0
 11
-4.8
 21
11.9
 31
0.0
  0
LINE
  8
STANDARD
 62
     7
  5
9F
 10
-6.0
 20
13.9
 30
0.0
 11
-6.0
 21
12.8
 31
0.0
  0
LINE
  8
STANDARD
 62
     7
  5
A0
 10
-6.0
 20
14.9
 30
0.0
 11
-6.0
 21
14.1
 31
0.0
  0
LINE
  8
STANDARD
 62
     7
  5
A1
 10
-6.0
 20
15.1
 30
0.0
 11
-6.0
 21
16.4
 31
0.0
  0
LINE
  8
STANDARD
 62
     7
  5
A2
 10
-6.0
 20
16.4
 30
0.0
 11
3.4
 21
16.4
 31
0.0
  0
LINE
  8
STANDARD
 62
     7
  5
A3
 10
3.4
 20
16.4
 30
0.0
 11
3.4
 21
14.4
 31
0.0
  0
LINE
  8
STANDARD
 62
     7
  5
A4
 10
3.4
 20
13.8
 30
0.0
 11
3.4
 21
12.0
 31
0.0
  0
LINE
  8
STANDARD
 62
     7
  5
A5
 10
3.4
 20
14.2
 30
0.0
 11
3.4
 21
14.0
 31
0.0
  0
LINE
  8
STANDARD
 62
     7
  5
A6
 10
3.4
 20
11.8
 30
0.0
 11
3.4
 21
10.9
 31
0.0
  0
LINE
  8
STANDARD
 62
     7
  5
A7
 10
3.4
 20
10.9
 30
0.0
 11
-6.0
 21
10.9
 31
0.0
  0
LINE
  8
STANDARD
 62
     7
  5
A8
 10
-6.0
 20
12.0
 30
0.0
 11
-6.0
 21
12.6
 31
0.0
  0
LINE
  8
STANDARD
 62
     7
  5
A9
 10
-6.0
 20
10.9
 30
0.0
 11
-6.0
 21
11.8
 31
0.0
  0
LINE
  8
STANDARD
 62
     7
  5
AA
 10
-0.7
 20
14.7
 30
0.0
 11
-0.5
 21
14.7
 31
0.0
  0
POLYLINE
  8
STANDARD
 62
     7
  5
AB
 66
     1
 10
0.0
 20
0.0
 30
0.0
  0
VERTEX
  8
STANDARD
 62
     7
  5
AC
 10
-0.7
 20
14.7
 30
0.0
  0
VERTEX
  8
STANDARD
 62
     7
  5
AD
 10
-0.62
 20
14.68222
 30
0.0
  0
VERTEX
  8
STANDARD
 62
     7
  5
AE
 10
-0.62
 20
14.71778
 30
0.0
  0
VERTEX
  8
STANDARD
 62
     7
  5
AF
 10
-0.7
 20
14.7
 30
0.0
  0
SEQEND
  8
0
  5
B0
  0
LINE
  8
STANDARD
 62
     7
  5
B1
 10
-4.1
 20
15.6
 30
0.0
 11
-4.3
 21
15.6
 31
0.0
  0
LINE
  8
STANDARD
 62
     7
  5
B2
 10
1.6
 20
14.3
 30
0.0
 11
2.2
 21
14.3
 31
0.0
  0
POLYLINE
  8
STANDARD
 62
     7
  5
B3
 66
     1
 10
0.0
 20
0.0
 30
0.0
  0
VERTEX
  8
STANDARD
 62
     7
  5
B4
 10
1.6
 20
14.3
 30
0.0
  0
VERTEX
  8
STANDARD
 62
     7
  5
B5
 10
1.68
 20
14.28222
 30
0.0
  0
VERTEX
  8
STANDARD
 62
     7
  5
B6
 10
1.68
 20
14.31778
 30
0.0
  0
VERTEX
  8
STANDARD
 62
     7
  5
B7
 10
1.6
 20
14.3
 30
0.0
  0
SEQEND
  8
0
  5
B8
  0
LINE
  8
STANDARD
 62
     7
  5
B9
 10
1.6
 20
13.9
 30
0.0
 11
2.2
 21
13.9
 31
0.0
  0
POLYLINE
  8
STANDARD
 62
     7
  5
BA
 66
     1
 10
0.0
 20
0.0
 30
0.0
  0
VERTEX
  8
STANDARD
 62
     7
  5
BB
 10
1.6
 20
13.9
 30
0.0
  0
VERTEX
  8
STANDARD
 62
     7
  5
BC
 10
1.68
 20
13.88222
 30
0.0
  0
VERTEX
  8
STANDARD
 62
     7
  5
BD
 10
1.68
 20
13.91778
 30
0.0
  0
VERTEX
  8
STANDARD
 62
     7
  5
BE
 10
1.6
 20
13.9
 30
0.0
  0
SEQEND
  8
0
  5
BF
  0
POLYLINE
  8
STANDARD
 62
     7
  5
C0
 66
     1
 10
0.0
 20
0.0
 30
0.0
  0
VERTEX
  8
STANDARD
 62
     7
  5
C1
 10
0.4
 20
14.0
 30
0.0
  0
VERTEX
  8
STANDARD
 62
     7
  5
C2
 10
1.0
 20
14.0
 30
0.0
  0
SEQEND
  8
0
  5
C3
  0
POLYLINE
  8
STANDARD
 62
     7
  5
C4
 66
     1
 10
0.0
 20
0.0
 30
0.0
  0
VERTEX
  8
STANDARD
 62
     7
  5
C5
 10
0.4
 20
14.0
 30
0.0
  0
VERTEX
  8
STANDARD
 62
     7
  5
C6
 10
0.48
 20
13.98222
 30
0.0
  0
VERTEX
  8
STANDARD
 62
     7
  5
C7
 10
0.48
 20
14.01778
 30
0.0
  0
VERTEX
  8
STANDARD
 62
     7
  5
C8
 10
0.4
 20
14.0
 30
0.0
  0
SEQEND
  8
0
  5
C9
  0
POLYLINE
  8
STANDARD
 62
     7
  5
CA
 66
     1
 10
0.0
 20
0.0
 30
0.0
  0
VERTEX
  8
STANDARD
 62
     7
  5
CB
 10
0.4
 20
14.2
 30
0.0
  0
VERTEX
  8
STANDARD
 62
     7
  5
CC
 10
1.0
 20
14.2
 30
0.0
  0
SEQEND
  8
0
  5
CD
  0
POLYLINE
  8
STANDARD
 62
     7
  5
CE
 66
     1
 10
0.0
 20
0.0
 30
0.0
  0
VERTEX
  8
STANDARD
 62
     7
  5
CF
 10
0.4
 20
14.2
 30
0.0
  0
VERTEX
  8
STANDARD
 62
     7
  5
D0
 10
0.48
 20
14.18222
 30
0.0
  0
VERTEX
  8
STANDARD
 62
     7
  5
D1
 10
0.48
 20
14.21778
 30
0.0
  0
VERTEX
  8
STANDARD
 62
     7
  5
D2
 10
0.4
 20
14.2
 30
0.0
  0
SEQEND
  8
0
  5
D3
  0
TEXT
  8
STANDARD
 62
     7
  5
D4
 10
0.085
 20
14.15
 30
0.0
 40
0.1
  1
up/dn
  7
STYLE1
 72
     2
 11
0.4
 21
14.2
 31
0.0
 73
     2
  0
TEXT
  8
STANDARD
 62
     7
  5
D5
 10
0.085
 20
13.95
 30
0.0
 40
0.1
  1
count
  7
STYLE1
 72
     2
 11
0.4
 21
14.0
 31
0.0
 73
     2
  0
TEXT
  8
STANDARD
 62
     7
  5
D6
 10
0.085
 20
13.65
 30
0.0
 40
0.1
  1
clear
  7
STYLE1
 72
     2
 11
0.4
 21
13.7
 31
0.0
 73
     2
  0
LINE
  8
STANDARD
 62
     7
  5
D7
 10
-0.5
 20
14.0
 30
0.0
 11
-0.2
 21
14.0
 31
0.0
  0
POLYLINE
  8
STANDARD
 62
     7
  5
D8
 66
     1
 10
0.0
 20
0.0
 30
0.0
  0
VERTEX
  8
STANDARD
 62
     7
  5
D9
 10
-0.5
 20
14.0
 30
0.0
  0
VERTEX
  8
STANDARD
 62
     7
  5
DA
 10
-0.42
 20
13.98222
 30
0.0
  0
VERTEX
  8
STANDARD
 62
     7
  5
DB
 10
-0.42
 20
14.01778
 30
0.0
  0
VERTEX
  8
STANDARD
 62
     7
  5
DC
 10
-0.5
 20
14.0
 30
0.0
  0
SEQEND
  8
0
  5
DD
  0
ARC
  8
STANDARD
 62
     7
  5
DE
 10
0.8
 20
12.35
 30
0.0
 40
0.15
 50
0.0
 51
180.0
  0
LINE
  8
STANDARD
 62
     7
  5
DF
 10
0.95
 20
12.35
 30
0.0
 11
0.95
 21
12.1
 31
0.0
  0
LINE
  8
STANDARD
 62
     7
  5
E0
 10
0.95
 20
12.1
 30
0.0
 11
0.65
 21
12.1
 31
0.0
  0
LINE
  8
STANDARD
 62
     7
  5
E1
 10
0.65
 20
12.1
 30
0.0
 11
0.65
 21
12.35
 31
0.0
  0
LINE
  8
STANDARD
 62
     7
  5
E2
 10
0.4
 20
13.7
 30
0.0
 11
0.7
 21
13.7
 31
0.0
  0
POLYLINE
  8
STANDARD
 62
     7
  5
E3
 66
     1
 10
0.0
 20
0.0
 30
0.0
  0
VERTEX
  8
STANDARD
 62
     7
  5
E4
 10
0.4
 20
13.7
 30
0.0
  0
VERTEX
  8
STANDARD
 62
     7
  5
E5
 10
0.48
 20
13.68222
 30
0.0
  0
VERTEX
  8
STANDARD
 62
     7
  5
E6
 10
0.48
 20
13.71778
 30
0.0
  0
VERTEX
  8
STANDARD
 62
     7
  5
E7
 10
0.4
 20
13.7
 30
0.0
  0
SEQEND
  8
0
  5
E8
  0
LINE
  8
STANDARD
 62
     7
  5
E9
 10
0.9
 20
11.9
 30
0.0
 11
1.2
 21
11.9
 31
0.0
  0
LINE
  8
STANDARD
 62
     7
  5
EA
 10
0.9
 20
11.9
 30
0.0
 11
0.9
 21
12.1
 31
0.0
  0
POLYLINE
  8
STANDARD
 62
     7
  5
EB
 66
     1
 10
0.0
 20
0.0
 30
0.0
  0
VERTEX
  8
STANDARD
 62
     7
  5
EC
 10
0.9
 20
12.1
 30
0.0
  0
VERTEX
  8
STANDARD
 62
     7
  5
ED
 10
0.88222
 20
12.02
 30
0.0
  0
VERTEX
  8
STANDARD
 62
     7
  5
EE
 10
0.91778
 20
12.02
 30
0.0
  0
VERTEX
  8
STANDARD
 62
     7
  5
EF
 10
0.9
 20
12.1
 30
0.0
  0
SEQEND
  8
0
  5
F0
  0
POLYLINE
  8
STANDARD
 62
     7
  5
F1
 66
     1
 10
0.0
 20
0.0
 30
0.0
  0
VERTEX
  8
STANDARD
 62
     7
  5
F2
 10
-2.5
 20
14.0
 30
0.0
  0
VERTEX
  8
STANDARD
 62
     7
  5
F3
 10
-0.5
 20
14.0
 30
0.0
  0
SEQEND
  8
0
  5
F4
  0
POLYLINE
  8
STANDARD
 62
     7
  5
F5
 66
     1
 10
0.0
 20
0.0
 30
0.0
  0
VERTEX
  8
STANDARD
 62
     7
  5
F6
 10
-2.5
 20
14.0
 30
0.0
  0
VERTEX
  8
STANDARD
 62
     7
  5
F7
 10
-2.42
 20
13.98222
 30
0.0
  0
VERTEX
  8
STANDARD
 62
     7
  5
F8
 10
-2.42
 20
14.01778
 30
0.0
  0
VERTEX
  8
STANDARD
 62
     7
  5
F9
 10
-2.5
 20
14.0
 30
0.0
  0
SEQEND
  8
0
  5
FA
  0
LINE
  8
STANDARD
 62
     7
  5
FB
 10
-4.15
 20
15.0
 30
0.0
 11
-3.7
 21
15.0
 31
0.0
  0
POLYLINE
  8
STANDARD
 62
     7
  5
FC
 66
     1
 10
0.0
 20
0.0
 30
0.0
  0
VERTEX
  8
STANDARD
 62
     7
  5
FD
 10
-4.15
 20
15.0
 30
0.0
  0
VERTEX
  8
STANDARD
 62
     7
  5
FE
 10
-4.07
 20
14.98222
 30
0.0
  0
VERTEX
  8
STANDARD
 62
     7
  5
FF
 10
-4.07
 20
15.01778
 30
0.0
  0
VERTEX
  8
STANDARD
 62
     7
  5
100
 10
-4.15
 20
15.0
 30
0.0
  0
SEQEND
  8
0
  5
101
  0
LINE
  8
STANDARD
 62
     7
  5
102
 10
-4.3
 20
15.6
 30
0.0
 11
-4.3
 21
15.15
 31
0.0
  0
POLYLINE
  8
STANDARD
 62
     7
  5
103
 66
     1
 10
0.0
 20
0.0
 30
0.0
  0
VERTEX
  8
STANDARD
 62
     7
  5
104
 10
-4.3
 20
15.15
 30
0.0
  0
VERTEX
  8
STANDARD
 62
     7
  5
105
 10
-4.28222
 20
15.23
 30
0.0
  0
VERTEX
  8
STANDARD
 62
     7
  5
106
 10
-4.31778
 20
15.23
 30
0.0
  0
VERTEX
  8
STANDARD
 62
     7
  5
107
 10
-4.3
 20
15.15
 30
0.0
  0
SEQEND
  8
0
  5
108
  0
LINE
  8
STANDARD
 62
     7
  5
109
 10
0.7
 20
11.9
 30
0.0
 11
0.7
 21
12.1
 31
0.0
  0
POLYLINE
  8
STANDARD
 62
     7
  5
10A
 66
     1
 10
0.0
 20
0.0
 30
0.0
  0
VERTEX
  8
STANDARD
 62
     7
  5
10B
 10
0.7
 20
12.1
 30
0.0
  0
VERTEX
  8
STANDARD
 62
     7
  5
10C
 10
0.68222
 20
12.02
 30
0.0
  0
VERTEX
  8
STANDARD
 62
     7
  5
10D
 10
0.71778
 20
12.02
 30
0.0
  0
VERTEX
  8
STANDARD
 62
     7
  5
10E
 10
0.7
 20
12.1
 30
0.0
  0
SEQEND
  8
0
  5
10F
  0
LINE
  8
STANDARD
 62
     7
  5
110
 10
-3.1
 20
14.0
 30
0.0
 11
-3.7
 21
14.0
 31
0.0
  0
POLYLINE
  8
STANDARD
 62
     7
  5
111
 66
     1
 10
0.0
 20
0.0
 30
0.0
  0
VERTEX
  8
STANDARD
 62
     7
  5
112
 10
-3.7
 20
14.0
 30
0.0
  0
VERTEX
  8
STANDARD
 62
     7
  5
113
 10
-3.62
 20
13.98222
 30
0.0
  0
VERTEX
  8
STANDARD
 62
     7
  5
114
 10
-3.62
 20
14.01778
 30
0.0
  0
VERTEX
  8
STANDARD
 62
     7
  5
115
 10
-3.7
 20
14.0
 30
0.0
  0
SEQEND
  8
0
  5
116
  0
LINE
  8
STANDARD
 62
     7
  5
117
 10
-3.7
 20
14.0
 30
0.0
 11
-4.8
 21
14.0
 31
0.0
  0
POLYLINE
  8
STANDARD
 62
     7
  5
118
 66
     1
 10
0.0
 20
0.0
 30
0.0
  0
VERTEX
  8
STANDARD
 62
     7
  5
119
 10
-4.8
 20
14.0
 30
0.0
  0
VERTEX
  8
STANDARD
 62
     7
  5
11A
 10
-4.72
 20
13.98222
 30
0.0
  0
VERTEX
  8
STANDARD
 62
     7
  5
11B
 10
-4.72
 20
14.01778
 30
0.0
  0
VERTEX
  8
STANDARD
 62
     7
  5
11C
 10
-4.8
 20
14.0
 30
0.0
  0
SEQEND
  8
0
  5
11D
  0
LINE
  8
STANDARD
 62
     7
  5
11E
 10
-4.45
 20
15.0
 30
0.0
 11
-4.8
 21
15.0
 31
0.0
  0
POLYLINE
  8
STANDARD
 62
     7
  5
11F
 66
     1
 10
0.0
 20
0.0
 30
0.0
  0
VERTEX
  8
STANDARD
 62
     7
  5
120
 10
-4.8
 20
15.0
 30
0.0
  0
VERTEX
  8
STANDARD
 62
     7
  5
121
 10
-4.72
 20
14.98222
 30
0.0
  0
VERTEX
  8
STANDARD
 62
     7
  5
122
 10
-4.72
 20
15.01778
 30
0.0
  0
VERTEX
  8
STANDARD
 62
     7
  5
123
 10
-4.8
 20
15.0
 30
0.0
  0
SEQEND
  8
0
  5
124
  0
LINE
  8
STANDARD
 62
     7
  5
125
 10
-3.7
 20
15.0
 30
0.0
 11
-3.7
 21
14.0
 31
0.0
  0
ARC
  8
STANDARD
 62
     7
  5
126
 10
0.7
 20
12.770871
 30
0.0
 40
0.25
 50
53.130102
 51
126.869898
  0
ARC
  8
STANDARD
 62
     7
  5
127
 10
0.958342
 20
13.082139
 30
0.0
 40
0.409605
 50
129.102571
 51
184.500248
  0
ARC
  8
STANDARD
 62
     7
  5
128
 10
0.441658
 20
13.082139
 30
0.0
 40
0.409605
 50
355.499752
 51
410.897429
  0
LINE
  8
STANDARD
 62
     7
  5
129
 10
0.85
 20
13.05
 30
0.0
 11
0.85
 21
12.970871
 31
0.0
  0
LINE
  8
STANDARD
 62
     7
  5
12A
 10
0.55
 20
13.05
 30
0.0
 11
0.55
 21
12.970871
 31
0.0
  0
LINE
  8
STANDARD
 62
     7
  5
12B
 10
-4.8
 20
12.7
 30
0.0
 11
0.6
 21
12.7
 31
0.0
  0
LINE
  8
STANDARD
 62
     7
  5
12C
 10
0.6
 20
12.7
 30
0.0
 11
0.6
 21
13.0
 31
0.0
  0
POLYLINE
  8
STANDARD
 62
     7
  5
12D
 66
     1
 10
0.0
 20
0.0
 30
0.0
  0
VERTEX
  8
STANDARD
 62
     7
  5
12E
 10
0.6
 20
13.0
 30
0.0
  0
VERTEX
  8
STANDARD
 62
     7
  5
12F
 10
0.58222
 20
12.92
 30
0.0
  0
VERTEX
  8
STANDARD
 62
     7
  5
130
 10
0.61778
 20
12.92
 30
0.0
  0
VERTEX
  8
STANDARD
 62
     7
  5
131
 10
0.6
 20
13.0
 30
0.0
  0
SEQEND
  8
0
  5
132
  0
LINE
  8
STANDARD
 62
     7
  5
133
 10
0.8
 20
12.5
 30
0.0
 11
0.8
 21
13.0
 31
0.0
  0
POLYLINE
  8
STANDARD
 62
     7
  5
134
 66
     1
 10
0.0
 20
0.0
 30
0.0
  0
VERTEX
  8
STANDARD
 62
     7
  5
135
 10
0.8
 20
13.0
 30
0.0
  0
VERTEX
  8
STANDARD
 62
     7
  5
136
 10
0.78222
 20
12.92
 30
0.0
  0
VERTEX
  8
STANDARD
 62
     7
  5
137
 10
0.81778
 20
12.92
 30
0.0
  0
VERTEX
  8
STANDARD
 62
     7
  5
138
 10
0.8
 20
13.0
 30
0.0
  0
SEQEND
  8
0
  5
139
  0
LINE
  8
STANDARD
 62
     7
  5
13A
 10
1.8
 20
11.9
 30
0.0
 11
2.2
 21
11.9
 31
0.0
  0
POLYLINE
  8
STANDARD
 62
     7
  5
13B
 66
     1
 10
0.0
 20
0.0
 30
0.0
  0
VERTEX
  8
STANDARD
 62
     7
  5
13C
 10
1.8
 20
11.9
 30
0.0
  0
VERTEX
  8
STANDARD
 62
     7
  5
13D
 10
1.88
 20
11.88222
 30
0.0
  0
VERTEX
  8
STANDARD
 62
     7
  5
13E
 10
1.88
 20
11.91778
 30
0.0
  0
VERTEX
  8
STANDARD
 62
     7
  5
13F
 10
1.8
 20
11.9
 30
0.0
  0
SEQEND
  8
0
  5
140
  0
LINE
  8
STANDARD
  6
DASH
 62
     7
  5
142
 10
-2.2
 20
16.4
 30
0.0
 11
-2.2
 21
10.9
 31
0.0
  0
TEXT
  8
STANDARD
 62
     7
  5
143
 10
0.2325
 20
16.05
 30
0.0
 40
0.1
  1
update-counters()
  7
STYLE1
 72
     1
 11
0.7
 21
16.1
 31
0.0
 73
     2
  0
TEXT
  8
STANDARD
 62
     7
  5
144
 10
-4.595
 20
16.05
 30
0.0
 40
0.1
  1
capture-position()
  7
STYLE1
 72
     1
 11
-4.1
 21
16.1
 31
0.0
 73
     2
  0
TEXT
  8
STANDARD
 62
     7
  5
145
 10
-5.295
 20
11.1
 30
0.0
 40
0.2
  1
encoder.0
  7
STYLE1
 72
     1
 11
-4.8
 21
11.2
 31
0.0
 73
     2
  0
ENDSEC
  0
EOF
