<?xml version="1.0" encoding="UTF-8" standalone="no"?>
<svg
   xmlns:dc="http://purl.org/dc/elements/1.1/"
   xmlns:cc="http://creativecommons.org/ns#"
   xmlns:rdf="http://www.w3.org/1999/02/22-rdf-syntax-ns#"
   xmlns:svg="http://www.w3.org/2000/svg"
   xmlns="http://www.w3.org/2000/svg"
   xmlns:sodipodi="http://sodipodi.sourceforge.net/DTD/sodipodi-0.dtd"
   xmlns:inkscape="http://www.inkscape.org/namespaces/inkscape"
   width="128"
   height="128"
   viewBox="0 0 128 128"
   version="1.1"
   id="svg8"
   inkscape:version="1.0.2 (e86c8708, 2021-01-15)"
   sodipodi:docname="fullscreen_icons.inkscape Kopie.svg">
  <defs
     id="defs2" />
  <sodipodi:namedview
     id="base"
     pagecolor="#ffffff"
     bordercolor="#666666"
     borderopacity="1.0"
     inkscape:pageopacity="0.0"
     inkscape:pageshadow="2"
     inkscape:zoom="5.4250454"
     inkscape:cx="35.946947"
     inkscape:cy="59.569799"
     inkscape:document-units="px"
     inkscape:current-layer="home-folder"
     inkscape:document-rotation="0"
     showgrid="false"
     units="px"
     showguides="false"
     inkscape:window-width="1923"
     inkscape:window-height="1387"
     inkscape:window-x="2463"
     inkscape:window-y="25"
     inkscape:window-maximized="0" />
  <metadata
     id="metadata5">
    <rdf:RDF>
      <cc:Work
         rdf:about="">
        <dc:format>image/svg+xml</dc:format>
        <dc:type
           rdf:resource="http://purl.org/dc/dcmitype/StillImage" />
        <dc:title />
      </cc:Work>
    </rdf:RDF>
  </metadata>
  <g
     inkscape:label="home-folder"
     inkscape:groupmode="layer"
     id="home-folder"
     style="display:inline">
    <path
       id="path18"
       style="fill:#000000;fill-opacity:1;stroke:none;stroke-width:264.809px;stroke-linecap:butt;stroke-linejoin:miter;stroke-opacity:1"
       d="M 51.6,116.7 V 79.5 h 24.8 v 37.2 h 31 V 67.1 H 126 L 64,11.3 2,67.1 h 18.6 v 49.6 z" />
  </g>
  <g
     inkscape:groupmode="layer"
     id="user-defined-folder"
     inkscape:label="user-defined-folder"
     style="display:inline">
    <path
       id="path41"
       style="fill:#000000;fill-opacity:1;stroke:none;stroke-width:264.809px;stroke-linecap:butt;stroke-linejoin:miter;stroke-opacity:1"
       d="M 113.6,26.8 H 64 L 51.6,14.4 H 14.4 C 7.58,14.4 2.062,19.98 2.062,26.8 L 2,101.2 c 0,6.82 5.58,12.4 12.4,12.4 h 99.2 c 6.82,0 12.4,-5.58 12.4,-12.4 v -62 c 0,-6.82 -5.58,-12.4 -12.4,-12.4 z m -31,18.6 c 6.82,0 12.4,5.58 12.4,12.4 0,6.82 -5.58,12.4 -12.4,12.4 -6.82,0 -12.4,-5.58 -12.4,-12.4 0,-6.82 5.58,-12.4 12.4,-12.4 z M 107.4,95 H 57.8 v -6.2 c 0,-8.246 16.554,-12.4 24.8,-12.4 8.246,0 24.8,4.154 24.8,12.4 z" />
  </g>
</svg>
