<?xml version="1.0" encoding="UTF-8" standalone="no"?>
<svg
   xmlns:dc="http://purl.org/dc/elements/1.1/"
   xmlns:cc="http://creativecommons.org/ns#"
   xmlns:rdf="http://www.w3.org/1999/02/22-rdf-syntax-ns#"
   xmlns:svg="http://www.w3.org/2000/svg"
   xmlns="http://www.w3.org/2000/svg"
   xmlns:sodipodi="http://sodipodi.sourceforge.net/DTD/sodipodi-0.dtd"
   xmlns:inkscape="http://www.inkscape.org/namespaces/inkscape"
   width="128"
   height="128"
   viewBox="0 0 128 128"
   version="1.1"
   id="svg8"
   inkscape:version="1.0.2 (e86c8708, 2021-01-15)"
   sodipodi:docname="main_switch_icons.inkscape.svg">
  <defs
     id="defs2" />
  <sodipodi:namedview
     id="base"
     pagecolor="#ffffff"
     bordercolor="#666666"
     borderopacity="1.0"
     inkscape:pageopacity="0.0"
     inkscape:pageshadow="2"
     inkscape:zoom="5.4250454"
     inkscape:cx="52.35234"
     inkscape:cy="59.569799"
     inkscape:document-units="px"
     inkscape:current-layer="on"
     inkscape:document-rotation="0"
     showgrid="false"
     units="px"
     showguides="false"
     inkscape:window-width="1871"
     inkscape:window-height="1387"
     inkscape:window-x="3009"
     inkscape:window-y="25"
     inkscape:window-maximized="0" />
  <metadata
     id="metadata5">
    <rdf:RDF>
      <cc:Work
         rdf:about="">
        <dc:format>image/svg+xml</dc:format>
        <dc:type
           rdf:resource="http://purl.org/dc/dcmitype/StillImage" />
        <dc:title />
      </cc:Work>
    </rdf:RDF>
  </metadata>
  <g
     inkscape:label="off"
     inkscape:groupmode="layer"
     id="off"
     style="display:inline">
    <path
       id="path870"
       style="fill:#000000;fill-opacity:1;stroke:none;stroke-width:6.70515px;stroke-linecap:butt;stroke-linejoin:miter;stroke-opacity:1"
       d="M 32.869141,29.46875 77.414062,71.644531 32.931641,29.410156 Z" />
    <path
       id="path868"
       style="fill:#0000ff;fill-opacity:1;stroke:none;stroke-width:6.70515px;stroke-linecap:butt;stroke-linejoin:miter;stroke-opacity:1"
       d="M 10.748047,8.5253906 2,16.683594 25.146484,38.613281 c -7.94e-4,0.0033 -0.0012,0.0065 -0.002,0.0098 L 86.501906,96.78519 86.527296,96.76175 117.32031,126 126,117.64648 95.207031,88.539062 77.414062,71.644531 32.869141,29.46875 l -0.0078,0.0078 z" />
    <g
       id="g878">
      <path
         id="path866"
         style="fill:#000000;fill-opacity:1;stroke:none;stroke-width:6.70515px;stroke-linecap:butt;stroke-linejoin:miter;stroke-opacity:1"
         d="m 38.441406,2 v 16.185547 l 65.513674,62 3.37695,-3.197266 V 41.158203 c 0,-6.526319 -6.95929,-13.117998 -13.779296,-13.052734 V 2 H 79.775391 V 28.105469 H 52.220703 V 2 Z M 86.501953,96.785156 25.144531,38.623047 c -0.206395,0.84516 -0.480469,1.689997 -0.480469,2.535156 V 76.921875 L 48.775391,99.894531 V 119.47461 H 83.220703 V 99.894531 Z" />
    </g>
  </g>
  <g
     inkscape:groupmode="layer"
     id="on"
     inkscape:label="on"
     style="display:inline">
    <path
       style="fill:#ff0000;fill-opacity:1;stroke:none;stroke-width:6.70507000000000009px;stroke-linecap:butt;stroke-linejoin:miter;stroke-opacity:1"
       d="M 93.621643,28.105468 93.552734,2 H 79.77541 V 28.105468 H 52.220709 V 2 H 38.443358 v 26.105468 h -0.06891 c -6.819826,-0.06527 -13.708481,6.461105 -13.708481,12.987471 v 35.829756 l 24.11036,22.97281 V 119.47461 H 83.219711 V 99.895505 L 107.33012,76.987959 v -35.89502 c 0,-6.526366 -6.88868,-13.052735 -13.708477,-12.987471 z"
       id="path874" />
  </g>
</svg>
