<?xml version="1.0" encoding="UTF-8" standalone="no"?>
<svg
   xmlns:dc="http://purl.org/dc/elements/1.1/"
   xmlns:cc="http://creativecommons.org/ns#"
   xmlns:rdf="http://www.w3.org/1999/02/22-rdf-syntax-ns#"
   xmlns:svg="http://www.w3.org/2000/svg"
   xmlns="http://www.w3.org/2000/svg"
   xmlns:sodipodi="http://sodipodi.sourceforge.net/DTD/sodipodi-0.dtd"
   xmlns:inkscape="http://www.inkscape.org/namespaces/inkscape"
   width="128"
   height="128"
   viewBox="0 0 128 128"
   version="1.1"
   id="svg8"
   inkscape:version="1.0.2 (e86c8708, 2021-01-15)"
   sodipodi:docname="mode_icons.inkscape.svg">
  <defs
     id="defs2" />
  <sodipodi:namedview
     id="base"
     pagecolor="#ffffff"
     bordercolor="#666666"
     borderopacity="1.0"
     inkscape:pageopacity="0.0"
     inkscape:pageshadow="2"
     inkscape:zoom="4.0090319"
     inkscape:cx="33.853452"
     inkscape:cy="71.692741"
     inkscape:document-units="px"
     inkscape:current-layer="user_tabs"
     inkscape:document-rotation="0"
     showgrid="false"
     units="px"
     showguides="true"
     inkscape:window-width="1871"
     inkscape:window-height="1412"
     inkscape:window-x="3009"
     inkscape:window-y="28"
     inkscape:window-maximized="0"
     inkscape:guide-bbox="true"
     inkscape:snap-bbox="true"
     inkscape:bbox-nodes="true"
     inkscape:snap-bbox-midpoints="true"
     inkscape:bbox-paths="true">
    <sodipodi:guide
       position="26,126"
       orientation="-1,0"
       id="guide971"
       inkscape:label=""
       inkscape:locked="false"
       inkscape:color="rgb(0,0,255)" />
    <sodipodi:guide
       position="26,26"
       orientation="0,1"
       id="guide973"
       inkscape:label=""
       inkscape:locked="false"
       inkscape:color="rgb(0,0,255)" />
    <sodipodi:guide
       position="126,126"
       orientation="0,1"
       id="guide981"
       inkscape:label=""
       inkscape:locked="false"
       inkscape:color="rgb(0,0,255)" />
    <sodipodi:guide
       position="126,26"
       orientation="-1,0"
       id="guide983"
       inkscape:label=""
       inkscape:locked="false"
       inkscape:color="rgb(0,0,255)" />
    <sodipodi:guide
       position="126,126"
       orientation="0.70710678,-0.70710678"
       id="guide1017" />
    <sodipodi:guide
       position="26,126"
       orientation="-0.70710678,-0.70710678"
       id="guide1019" />
  </sodipodi:namedview>
  <metadata
     id="metadata5">
    <rdf:RDF>
      <cc:Work
         rdf:about="">
        <dc:format>image/svg+xml</dc:format>
        <dc:type
           rdf:resource="http://purl.org/dc/dcmitype/StillImage" />
        <dc:title />
      </cc:Work>
    </rdf:RDF>
  </metadata>
  <g
     inkscape:label="manual"
     inkscape:groupmode="layer"
     id="manual"
     style="display:inline">
    <path
       style="fill:#000000;fill-opacity:1;stroke:none;stroke-width:5px;stroke-linecap:butt;stroke-linejoin:miter;stroke-opacity:1"
       d="M 91,29.5 V 2 H 61 v 27.5 l 15,15 z M 53.5,37 H 26 v 30 h 27.5 l 15,-15 z M 61,74.5 V 102 H 91 V 74.5 L 76,59.5 Z M 98.5,37 l -15,15 15,15 H 126 V 37 Z"
       id="path962" />
  </g>
  <g
     inkscape:groupmode="layer"
     id="mdi"
     inkscape:label="mdi"
     style="display:inline">
    <path
       style="fill:#000000;fill-opacity:1;stroke:none;stroke-width:4.54545px;stroke-linecap:butt;stroke-linejoin:miter;stroke-opacity:1"
       d="M 116.90909,13.363636 H 35.090909 c -5,0 -9.090909,4.090909 -9.090909,9.090909 v 59.09091 c 0,5 4.090909,9.090909 9.090909,9.090909 h 81.818181 c 5,0 9.09091,-4.090909 9.09091,-9.090909 v -59.09091 c 0,-5 -4.09091,-9.090909 -9.09091,-9.090909 z M 53.272727,49.727273 v 9.090909 h -9.090909 v -9.090909 z m -9.090909,-9.090909 v -9.090909 h 9.090909 v 9.090909 z m 27.272727,9.090909 v 9.090909 h -9.090909 v -9.090909 z m -9.090909,-9.090909 v -9.090909 h 9.090909 v 9.090909 z m 31.818182,27.272727 v 4.545454 H 57.818182 V 67.909091 Z M 89.636364,49.727273 v 9.090909 h -9.090909 v -9.090909 z m -9.090909,-9.090909 v -9.090909 h 9.090909 v 9.090909 z m 18.181818,18.181818 v -9.090909 h 9.090907 v 9.090909 z m 9.090907,-18.181818 h -9.090907 v -9.090909 h 9.090907 z"
       id="path1015" />
  </g>
  <g
     inkscape:groupmode="layer"
     id="settings"
     inkscape:label="settings"
     style="display:inline">
    <path
       style="fill:#000000;fill-opacity:1;stroke:none;stroke-width:5.55556px;stroke-linecap:butt;stroke-linejoin:miter;stroke-opacity:1"
       d="m 76,40.888889 c -6.111111,0 -11.111111,5 -11.111111,11.111111 0,6.111111 5,11.111111 11.111111,11.111111 6.111111,0 11.111111,-5 11.111111,-11.111111 0,-6.111111 -5,-11.111111 -11.111111,-11.111111 z M 114.88889,2 H 37.111111 C 30.944444,2 26,7 26,13.111111 V 90.888889 C 26,97 30.944444,102 37.111111,102 H 114.88889 C 121.05556,102 126,97 126,90.888889 V 13.111111 C 126,7 121.05556,2 114.88889,2 Z m -9.72222,50 c 0,1.277778 -0.11111,2.555556 -0.27778,3.777778 l 8.22222,6.444444 c 0.72222,0.611111 0.94445,1.666667 0.44445,2.5 l -7.77778,13.444445 c -0.5,0.833333 -1.5,1.166666 -2.38889,0.833333 l -9.666668,-3.888889 c -2,1.555556 -4.222222,2.833333 -6.555555,3.833333 l -1.444445,10.277778 c -0.166666,0.944445 -1,1.666667 -1.944444,1.666667 H 68.222222 c -0.944444,0 -1.777778,-0.722222 -1.944444,-1.611111 L 64.833333,79 c -2.388889,-1 -4.555555,-2.277778 -6.555555,-3.833333 l -9.666667,3.888889 c -0.888889,0.333333 -1.888889,0 -2.388889,-0.833334 L 38.444444,64.777778 c -0.5,-0.833334 -0.277777,-1.888889 0.444445,-2.5 l 8.222222,-6.444445 C 46.944444,54.555556 46.833333,53.277778 46.833333,52 c 0,-1.277778 0.111111,-2.555556 0.277778,-3.777778 l -8.222222,-6.444444 c -0.722222,-0.611111 -0.944445,-1.666667 -0.444445,-2.5 L 46.222222,25.833333 C 46.722222,25 47.722222,24.666667 48.611111,25 l 9.666667,3.888889 c 2,-1.555556 4.222222,-2.833333 6.555555,-3.833333 l 1.444445,-10.277778 c 0.166666,-0.944445 1,-1.666667 1.944444,-1.666667 h 15.555556 c 0.944444,0 1.777778,0.722222 1.944444,1.611111 L 87.166667,25 c 2.388889,1 4.555555,2.277778 6.555555,3.833333 l 9.666668,-3.888889 c 0.88889,-0.333333 1.88889,0 2.38889,0.833334 l 7.77778,13.444444 c 0.5,0.833334 0.27777,1.888889 -0.44445,2.5 l -8.22222,6.444445 c 0.16667,1.277777 0.27778,2.555555 0.27778,3.833333 z"
       id="path1023" />
  </g>
  <g
     inkscape:groupmode="layer"
     id="auto"
     inkscape:label="auto"
     style="display:inline">
    <path
       id="path977"
       style="display:inline;fill:#000000;fill-opacity:1;stroke:none;stroke-width:6.25px;stroke-linecap:butt;stroke-linejoin:miter;stroke-opacity:1"
       d="M 38.5,2 C 31.625,2 26,7.625 26,14.5 v 75 c 0,6.875 5.625,12.5 12.5,12.5 h 75 c 6.875,0 12.5,-5.625 12.5,-12.5 v -75 C 126,7.625 120.375,2 113.5,2 Z M 57.400391,24.099609 94.599609,52 57.400391,79.900391 Z" />
  </g>
  <g
     inkscape:groupmode="layer"
     id="user_tabs"
     inkscape:label="user_tabs"
     style="display:inline">
    <path
       style="fill:#000000;fill-opacity:1;stroke:none;stroke-width:5px;stroke-linecap:butt;stroke-linejoin:miter;stroke-opacity:1"
       d="M 116,22 H 76 L 66,12 H 36 c -5.5,0 -9.95,4.5 -9.95,10 L 26,82 c 0,5.5 4.5,10 10,10 h 80 c 5.5,0 10,-4.5 10,-10 V 32 c 0,-5.5 -4.5,-10 -10,-10 z M 91,37 c 5.5,0 10,4.5 10,10 0,5.5 -4.5,10 -10,10 -5.5,0 -10,-4.5 -10,-10 0,-5.5 4.5,-10 10,-10 z m 20,40 H 71 v -5 c 0,-6.65 13.35,-10 20,-10 6.65,0 20,3.35 20,10 z"
       id="path4359" />
  </g>
  <g
     inkscape:groupmode="layer"
     id="active"
     inkscape:label="active"
     style="display:inline">
    <path
       style="fill:#ff0000;fill-opacity:1;stroke:none;stroke-width:6.2px;stroke-linecap:butt;stroke-linejoin:miter;stroke-opacity:1"
       d="M 14.4,26.8 H 2 v 86.8 c 0,6.82 5.58,12.4 12.4,12.4 h 86.8 V 113.6 H 14.4 Z"
       id="path967" />
  </g>
  <g
     inkscape:groupmode="layer"
     id="inactive"
     inkscape:label="inactive"
     style="display:inline">
    <path
       style="display:inline;fill:#000000;fill-opacity:1;stroke:none;stroke-width:6.2px;stroke-linecap:butt;stroke-linejoin:miter;stroke-opacity:1"
       d="M 14.4,26.8 H 2 v 86.8 c 0,6.82 5.58,12.4 12.4,12.4 h 86.8 V 113.6 H 14.4 Z"
       id="path967-3" />
  </g>
</svg>
