<?xml version="1.0" encoding="UTF-8" standalone="no"?>
<svg
   xmlns:dc="http://purl.org/dc/elements/1.1/"
   xmlns:cc="http://creativecommons.org/ns#"
   xmlns:rdf="http://www.w3.org/1999/02/22-rdf-syntax-ns#"
   xmlns:svg="http://www.w3.org/2000/svg"
   xmlns="http://www.w3.org/2000/svg"
   xmlns:sodipodi="http://sodipodi.sourceforge.net/DTD/sodipodi-0.dtd"
   xmlns:inkscape="http://www.inkscape.org/namespaces/inkscape"
   width="128"
   height="128"
   viewBox="0 0 128 128"
   version="1.1"
   id="svg8"
   inkscape:version="1.0.2 (e86c8708, 2021-01-15)"
   sodipodi:docname="tool_icons.inkscape.svg">
  <defs
     id="defs2">
    <inkscape:path-effect
       effect="offset"
       id="path-effect258"
       is_visible="true"
       lpeversion="1"
       linejoin_type="miter"
       unit="mm"
       offset="0.2"
       miter_limit="4"
       attempt_force_join="true"
       update_on_knot_move="true" />
    <marker
       style="overflow:visible;"
       id="Arrow2Send"
       refX="0.0"
       refY="0.0"
       orient="auto"
       inkscape:stockid="Arrow2Send"
       inkscape:isstock="true">
      <path
         transform="scale(0.3) rotate(180) translate(-2.3,0)"
         d="M 8.7185878,4.0337352 L -2.2072895,0.016013256 L 8.7185884,-4.0017078 C 6.9730900,-1.6296469 6.9831476,1.6157441 8.7185878,4.0337352 z "
         style="fill-rule:evenodd;stroke-width:0.625;stroke-linejoin:round;stroke:#000000;stroke-opacity:1;fill:#000000;fill-opacity:1"
         id="path2663" />
    </marker>
    <marker
       style="overflow:visible"
       id="Arrow2Send-3"
       refX="0"
       refY="0"
       orient="auto"
       inkscape:stockid="Arrow2Send"
       inkscape:isstock="true">
      <path
         transform="matrix(-0.3,0,0,-0.3,0.69,0)"
         d="M 8.7185878,4.0337352 -2.2072895,0.01601326 8.7185884,-4.0017078 c -1.7454984,2.3720609 -1.7354408,5.6174519 -6e-7,8.035443 z"
         style="fill:#000000;fill-opacity:1;fill-rule:evenodd;stroke:#000000;stroke-width:0.625;stroke-linejoin:round;stroke-opacity:1"
         id="path2663-3" />
    </marker>
  </defs>
  <sodipodi:namedview
     id="base"
     pagecolor="#ffffff"
     bordercolor="#666666"
     borderopacity="1.0"
     inkscape:pageopacity="0.0"
     inkscape:pageshadow="2"
     inkscape:zoom="2.0812586"
     inkscape:cx="124.09875"
     inkscape:cy="104.54816"
     inkscape:document-units="px"
     inkscape:current-layer="mill-tool-set-num"
     inkscape:document-rotation="0"
     showgrid="false"
     units="px"
     showguides="true"
     inkscape:window-width="1826"
     inkscape:window-height="1387"
     inkscape:window-x="2604"
     inkscape:window-y="25"
     inkscape:window-maximized="0"
     inkscape:guide-bbox="true"
     inkscape:snap-bbox="true"
     inkscape:bbox-nodes="true"
     inkscape:snap-bbox-midpoints="true"
     inkscape:bbox-paths="true"
     inkscape:snap-nodes="false">
    <sodipodi:guide
       position="126,126"
       orientation="-1,0"
       id="guide983"
       inkscape:label=""
       inkscape:locked="false"
       inkscape:color="rgb(0,0,255)" />
    <sodipodi:guide
       position="2,126"
       orientation="-1,0"
       id="guide3568"
       inkscape:label=""
       inkscape:locked="false"
       inkscape:color="rgb(0,0,255)" />
    <sodipodi:guide
       position="126,2"
       orientation="0,1"
       id="guide3570"
       inkscape:label=""
       inkscape:locked="false"
       inkscape:color="rgb(0,0,255)" />
    <sodipodi:guide
       position="126,126"
       orientation="0,-1"
       id="guide3572" />
  </sodipodi:namedview>
  <metadata
     id="metadata5">
    <rdf:RDF>
      <cc:Work
         rdf:about="">
        <dc:format>image/svg+xml</dc:format>
        <dc:type
           rdf:resource="http://purl.org/dc/dcmitype/StillImage" />
        <dc:title />
      </cc:Work>
    </rdf:RDF>
  </metadata>
  <g
     inkscape:groupmode="layer"
     id="hsk-mill-tool"
     inkscape:label="hsk-mill-tool"
     style="display:inline">
    <g
       id="g2584"
       transform="matrix(1.1372449,0,0,1.1372449,-20.28973,35.311352)"
       style="display:inline;fill:#000000" />
    <path
       id="rect58"
       style="fill:#000000;stroke-width:9.82207;stroke-linecap:round;stroke-linejoin:round;stroke-dashoffset:23.4"
       d="M 41.040038,5 38.360351,32.970703 H 89.639648 L 86.961913,5 H 73.161132 v 6.509766 H 54.840819 V 5 Z m 16.714951,81.03682 v 17.98835 c 2.049112,-2.03835 4.292188,-3.2626 6.279561,-4.492908 2.725214,-1.687078 4.991962,-3.369282 6.210292,-7.490568 V 86.03682 Z m 12.489853,9.535187 c -1.415341,2.302926 -3.336648,3.716131 -5.336075,4.953903 -2.451891,1.51787 -4.981261,2.83823 -7.153778,5.52477 v 5.79229 c 2.049112,-2.03834 4.292188,-3.2626 6.279561,-4.49291 2.725214,-1.68708 4.991962,-3.36928 6.210292,-7.490564 z m 0,7.815413 c -1.415341,2.30293 -3.336648,3.71613 -5.336075,4.9539 -2.451891,1.51788 -4.981261,2.83823 -7.153778,5.52477 v 5.79468 c 2.049112,-2.03834 4.292188,-3.26259 6.279561,-4.4929 2.725214,-1.68708 4.991962,-3.36928 6.210292,-7.49057 z m 0,7.8178 c -1.415341,2.30293 -3.336648,3.71613 -5.336075,4.9539 -2.451891,1.51788 -4.981261,2.83824 -7.153778,5.52478 V 123 h 6.253286 c 0.0085,-0.005 0.01772,-0.0114 0.02627,-0.0167 2.725214,-1.68708 4.991963,-3.36693 6.210292,-7.48818 z m 0,7.8178 c -1.06158,1.72732 -2.406984,2.95428 -3.859936,3.97698 h 3.859936 z M 33.550281,34.481856 H 94.449719 V 46.081751 H 33.550281 Z m 14.534566,11.60106 V 65.60257 h 2.699089 v 3.186945 H 77.215895 V 65.60257 h 2.699088 V 46.082916 Z m -0.18153,23.600826 v 13.012951 l 2.445898,2.4459 h 27.301401 l 2.445899,-2.4459 V 69.683742 Z m 7.294705,4.982566 h 1.222948 v 9.618787 h -1.222948 z m 8.190418,0 h 1.22295 v 9.618787 h -1.22295 z m 8.190421,0 h 1.22295 v 9.618787 h -1.22295 z" />
  </g>
  <g
     inkscape:groupmode="layer"
     id="mill-tool-change"
     inkscape:label="mill-tool-change"
     style="display:inline">
    <path
       id="rect58-9"
       style="display:inline;fill:#000000;stroke-width:8.06417;stroke-linecap:round;stroke-linejoin:round;stroke-dashoffset:23.4"
       d="M 82.14928,29.118976 79.949189,52.083639 H 122.0508 L 119.85231,29.118976 H 108.52152 V 34.46366 H 93.480074 V 29.118976 Z M 95.872683,95.65228 v 14.7689 c 1.682373,-1.67354 3.523996,-2.67868 5.155677,-3.68879 2.23747,-1.38514 4.09853,-2.76627 5.09881,-6.14995 v -4.93016 z m 10.254487,7.82863 c -1.16203,1.89077 -2.73947,3.05104 -4.38105,4.06729 -2.013068,1.24621 -4.089745,2.33025 -5.873437,4.53597 v 4.75562 c 1.682373,-1.67353 3.523996,-2.67868 5.155677,-3.68879 2.23747,-1.38514 4.09853,-2.76627 5.09881,-6.14995 z m 0,6.41666 c -1.16203,1.89076 -2.73947,3.05103 -4.38105,4.06728 -2.013068,1.24621 -4.089745,2.33025 -5.873437,4.53597 v 4.75758 c 1.682373,-1.67353 3.523996,-2.67867 5.155677,-3.68878 2.23747,-1.38514 4.09853,-2.76627 5.09881,-6.14995 z m 0,6.41861 c -1.16203,1.89076 -2.73947,3.05104 -4.38105,4.06728 -2.013068,1.24622 -4.089745,2.33027 -5.873437,4.53598 V 126 h 5.134107 c 0.007,-0.004 0.0145,-0.009 0.0216,-0.0137 2.23747,-1.38514 4.09853,-2.76434 5.0988,-6.14799 z m 0,6.41861 c -0.87158,1.41818 -1.97619,2.42554 -3.1691,3.26521 h 3.1691 z M 75.999998,53.324334 H 126 v 9.52381 H 75.999998 Z M 87.933249,62.8491 v 16.026136 h 2.216021 v 2.616563 h 21.70131 v -2.616563 h 2.21602 V 62.8491 Z M 87.784208,82.225982 V 92.90995 l 2.008145,2.00814 H 112.2075 l 2.00815,-2.00814 V 82.225982 Z m 5.989139,4.090818 h 1.004072 v 7.89727 h -1.004072 z m 6.724543,0 h 1.00407 v 7.89727 h -1.00407 z m 6.72455,0 h 1.00407 v 7.89727 h -1.00407 z" />
    <path
       id="path159-3-9"
       style="fill:#000000;stroke-width:4.49592;stroke-linecap:round;stroke-linejoin:round;stroke-dashoffset:23.4"
       d="m 31.984008,72.045718 c -0.28823,0.451121 -2.041494,0.861191 -2.36866,0.553996 -0.327165,-0.307187 -1.370189,-3.342814 -1.409125,-4.10113 -0.03893,-0.758316 0.671305,-4.204013 0.959535,-4.655133 0.288231,-0.451129 2.041494,-0.861198 2.36866,-0.554004 0.327165,0.307187 1.370189,3.342815 1.409125,4.10113 0.03893,0.758316 -0.671305,4.204012 -0.959535,4.655141 z m -7.149771,0 c -0.28823,0.451121 -2.041493,0.861191 -2.368659,0.553996 -0.327165,-0.307187 -1.370189,-3.342814 -1.409125,-4.10113 -0.03893,-0.758316 0.671304,-4.204013 0.959535,-4.655133 0.28823,-0.451129 2.041494,-0.861198 2.36866,-0.554004 0.327165,0.307187 1.370189,3.342815 1.409124,4.10113 0.03893,0.758316 -0.671305,4.204012 -0.959535,4.655141 z m 18.586437,0 c -0.61517,0.451121 -4.357165,0.861191 -5.055435,0.553996 -0.69827,-0.307187 -2.924397,-3.342814 -3.007497,-4.10113 -0.0831,-0.758316 1.432766,-4.204013 2.047936,-4.655133 0.61517,-0.451129 4.357165,-0.861198 5.055435,-0.554004 0.698271,0.307187 2.924397,3.342815 3.007498,4.10113 0.0831,0.758316 -1.432766,4.204012 -2.047937,4.655141 z m -26.826353,0 c -0.615169,0.451121 -4.357164,0.861191 -5.055434,0.553996 -0.698271,-0.307187 -2.9243983,-3.342814 -3.0074983,-4.10113 -0.083101,-0.758316 1.4327667,-4.204013 2.0479373,-4.655133 0.615169,-0.451129 4.357164,-0.861198 5.055435,-0.554004 0.698269,0.307187 2.924397,3.342815 3.007497,4.10113 0.0831,0.758316 -1.432766,4.204012 -2.047937,4.655141 z m -2.183114,-16.948679 -2.349223,7.413288 c 0.319383,-0.05115 0.651319,-0.0973 0.992606,-0.134706 1.105479,-0.121183 2.224379,-0.168228 2.665127,0.02562 0.765646,0.336842 3.194082,3.477479 3.33702,4.781834 7.01e-4,0.0066 -0.0022,0.01601 -0.0016,0.02241 l 1.638844,0.476261 c 0.179864,-1.534793 0.740108,-4.051984 1.071182,-4.570157 0.249603,-0.390669 0.849912,-0.608586 1.374256,-0.731231 0.524406,-0.122661 1.132547,-0.18753 1.415948,0.07857 0.394482,0.37039 1.260289,2.778942 1.555459,4.174079 l 0.888375,-0.258172 1.003832,0.29185 c 0.247401,-1.45324 0.647007,-3.139684 0.912429,-3.555107 0.249817,-0.390997 0.84993,-0.608593 1.374256,-0.73123 0.52439,-0.122653 1.132713,-0.187382 1.415949,0.07857 0.466998,0.438477 1.604096,3.748779 1.65969,4.831539 0.005,0.09815 -0.0035,0.238992 -0.01122,0.376834 l 1.826462,-0.530777 c 0.483371,-1.672264 1.562787,-3.76776 2.08624,-4.15163 0.414089,-0.303665 1.508377,-0.488215 2.613812,-0.609358 0.737912,-0.08087 1.464903,-0.121364 2.009268,-0.08659 L 39.648087,55.096951 Z M 8.1492825,2 5.9491908,24.964664 H 48.050801 L 45.852316,2 H 34.521522 V 7.3446848 H 19.480078 V 2 Z M 2,26.20536 h 50 v 9.52381 H 2 Z m 11.933251,9.524767 v 16.026137 h 2.216022 v 2.616562 h 21.701311 v -2.616562 h 2.216022 V 35.730127 Z" />
    <path
       d="M 69.564608,113.62981 C 50.16568,111.69813 34.712297,96.24472 32.780622,76.845805 c 0,0 -8.219884,0 -8.219884,0 2.712563,32.756235 34.975611,51.703105 63.416414,43.072195 L 69.564608,101.50547 Z"
       id="path275"
       style="stroke-width:4.10995" />
  </g>
  <g
     inkscape:groupmode="layer"
     id="mill-tool-change-num"
     inkscape:label="mill-tool-change-num"
     style="display:inline">
    <path
       id="path329"
       style="display:inline;fill:#000000;stroke-width:8.06417;stroke-linecap:round;stroke-linejoin:round;stroke-dashoffset:23.4"
       d="M 82.14928,29.118976 79.949189,52.083639 H 122.0508 L 119.85231,29.118976 H 108.52152 V 34.46366 H 93.480074 V 29.118976 Z M 95.872683,95.65228 v 14.7689 c 1.682373,-1.67354 3.523996,-2.67868 5.155677,-3.68879 2.23747,-1.38514 4.09853,-2.76627 5.09881,-6.14995 v -4.93016 z m 10.254487,7.82863 c -1.16203,1.89077 -2.73947,3.05104 -4.38105,4.06729 -2.013068,1.24621 -4.089745,2.33025 -5.873437,4.53597 v 4.75562 c 1.682373,-1.67353 3.523996,-2.67868 5.155677,-3.68879 2.23747,-1.38514 4.09853,-2.76627 5.09881,-6.14995 z m 0,6.41666 c -1.16203,1.89076 -2.73947,3.05103 -4.38105,4.06728 -2.013068,1.24621 -4.089745,2.33025 -5.873437,4.53597 v 4.75758 c 1.682373,-1.67353 3.523996,-2.67867 5.155677,-3.68878 2.23747,-1.38514 4.09853,-2.76627 5.09881,-6.14995 z m 0,6.41861 c -1.16203,1.89076 -2.73947,3.05104 -4.38105,4.06728 -2.013068,1.24622 -4.089745,2.33027 -5.873437,4.53598 V 126 h 5.134107 c 0.007,-0.004 0.0145,-0.009 0.0216,-0.0137 2.23747,-1.38514 4.09853,-2.76434 5.0988,-6.14799 z m 0,6.41861 c -0.87158,1.41818 -1.97619,2.42554 -3.1691,3.26521 h 3.1691 z M 75.999998,53.324334 H 126 v 9.52381 H 75.999998 Z M 87.933249,62.8491 v 16.026136 h 2.216021 v 2.616563 h 21.70131 v -2.616563 h 2.21602 V 62.8491 Z M 87.784208,82.225982 V 92.90995 l 2.008145,2.00814 H 112.2075 l 2.00815,-2.00814 V 82.225982 Z m 5.989139,4.090818 h 1.004072 v 7.89727 h -1.004072 z m 6.724543,0 h 1.00407 v 7.89727 h -1.00407 z m 6.72455,0 h 1.00407 v 7.89727 h -1.00407 z" />
    <path
       d="M 69.564608,113.62981 C 50.16568,111.69813 34.712297,96.24472 32.780622,76.845805 c 0,0 -8.219884,0 -8.219884,0 2.712563,32.756235 34.975611,51.703105 63.416414,43.072195 L 69.564608,101.50547 Z"
       id="path333"
       style="stroke-width:4.10995" />
    <text
       xml:space="preserve"
       style="font-style:normal;font-weight:normal;font-size:44.1701px;line-height:1;font-family:sans-serif;fill:#000000;fill-opacity:1;stroke:none;stroke-width:1.10425"
       x="31.504248"
       y="33.83353"
       id="text339"><tspan
         sodipodi:role="line"
         x="31.504248"
         y="33.83353"
         style="font-style:normal;font-variant:normal;font-weight:800;font-stretch:normal;font-family:Roboto;-inkscape-font-specification:'Roboto Ultra-Bold';text-align:center;text-anchor:middle;stroke-width:1.10425"
         id="tspan341"
         dy="0">T?</tspan><tspan
         sodipodi:role="line"
         x="31.504248"
         y="79.652519"
         style="font-style:normal;font-variant:normal;font-weight:800;font-stretch:normal;font-family:Roboto;-inkscape-font-specification:'Roboto Ultra-Bold';text-align:center;text-anchor:middle;stroke-width:1.10425"
         id="tspan345"
         dy="-11.042516">M6</tspan></text>
  </g>
  <g
     inkscape:groupmode="layer"
     id="mill-tool-set-num"
     inkscape:label="mill-tool-set-num"
     style="display:inline">
    <path
       id="path347"
       style="display:inline;fill:#000000;stroke-width:8.06417;stroke-linecap:round;stroke-linejoin:round;stroke-dashoffset:23.4"
       d="M 82.14928,29.118976 79.949189,52.083639 H 122.0508 L 119.85231,29.118976 H 108.52152 V 34.46366 H 93.480074 V 29.118976 Z M 95.872683,95.65228 v 14.7689 c 1.682373,-1.67354 3.523996,-2.67868 5.155677,-3.68879 2.23747,-1.38514 4.09853,-2.76627 5.09881,-6.14995 v -4.93016 z m 10.254487,7.82863 c -1.16203,1.89077 -2.73947,3.05104 -4.38105,4.06729 -2.013068,1.24621 -4.089745,2.33025 -5.873437,4.53597 v 4.75562 c 1.682373,-1.67353 3.523996,-2.67868 5.155677,-3.68879 2.23747,-1.38514 4.09853,-2.76627 5.09881,-6.14995 z m 0,6.41666 c -1.16203,1.89076 -2.73947,3.05103 -4.38105,4.06728 -2.013068,1.24621 -4.089745,2.33025 -5.873437,4.53597 v 4.75758 c 1.682373,-1.67353 3.523996,-2.67867 5.155677,-3.68878 2.23747,-1.38514 4.09853,-2.76627 5.09881,-6.14995 z m 0,6.41861 c -1.16203,1.89076 -2.73947,3.05104 -4.38105,4.06728 -2.013068,1.24622 -4.089745,2.33027 -5.873437,4.53598 V 126 h 5.134107 c 0.007,-0.004 0.0145,-0.009 0.0216,-0.0137 2.23747,-1.38514 4.09853,-2.76434 5.0988,-6.14799 z m 0,6.41861 c -0.87158,1.41818 -1.97619,2.42554 -3.1691,3.26521 h 3.1691 z M 75.999998,53.324334 H 126 v 9.52381 H 75.999998 Z M 87.933249,62.8491 v 16.026136 h 2.216021 v 2.616563 h 21.70131 v -2.616563 h 2.21602 V 62.8491 Z M 87.784208,82.225982 V 92.90995 l 2.008145,2.00814 H 112.2075 l 2.00815,-2.00814 V 82.225982 Z m 5.989139,4.090818 h 1.004072 v 7.89727 h -1.004072 z m 6.724543,0 h 1.00407 v 7.89727 h -1.00407 z m 6.72455,0 h 1.00407 v 7.89727 h -1.00407 z" />
    <text
       xml:space="preserve"
       style="font-style:normal;font-weight:normal;font-size:44px;line-height:1;font-family:sans-serif;fill:#000000;fill-opacity:1;stroke:none;stroke-width:0.96694"
       x="38.695312"
       y="33.667969"
       id="text355"><tspan
         sodipodi:role="line"
         x="38.695312"
         y="33.667969"
         style="font-style:normal;font-variant:normal;font-weight:800;font-stretch:condensed;font-size:44px;font-family:Roboto;-inkscape-font-specification:'Roboto Ultra-Bold Condensed';text-align:center;text-anchor:middle;stroke-width:0.96694"
         id="tspan351">M61</tspan><tspan
         sodipodi:role="line"
         x="38.695312"
         y="79.310501"
         style="font-style:normal;font-variant:normal;font-weight:bold;font-stretch:normal;font-size:44px;font-family:Roboto;-inkscape-font-specification:'Roboto Bold';text-align:center;text-anchor:middle;stroke-width:0.96694"
         id="tspan373">Q#</tspan></text>
    <path
       sodipodi:type="star"
       style="fill:#000000;stroke-width:8;stroke-linecap:round;stroke-linejoin:round;stroke-dashoffset:23.4"
       id="path379"
       sodipodi:sides="3"
       sodipodi:cx="52.872215"
       sodipodi:cy="104.83619"
       sodipodi:r1="18.264503"
       sodipodi:r2="9.1322517"
       sodipodi:arg1="0"
       sodipodi:arg2="1.0471976"
       inkscape:flatsided="true"
       inkscape:rounded="0.1"
       inkscape:randomized="0"
       d="m 71.136719,104.83619 c 0,3.1635 -24.65708,17.39928 -27.396755,15.81752 -2.739676,-1.58175 -2.739676,-30.053292 0,-31.635045 2.739675,-1.581752 27.396755,12.654015 27.396755,15.817525 z"
       inkscape:transform-center-x="-3.5387475" />
  </g>
</svg>
