<?xml version="1.0" encoding="UTF-8" standalone="no"?>
<svg
   xmlns:dc="http://purl.org/dc/elements/1.1/"
   xmlns:cc="http://creativecommons.org/ns#"
   xmlns:rdf="http://www.w3.org/1999/02/22-rdf-syntax-ns#"
   xmlns:svg="http://www.w3.org/2000/svg"
   xmlns="http://www.w3.org/2000/svg"
   xmlns:sodipodi="http://sodipodi.sourceforge.net/DTD/sodipodi-0.dtd"
   xmlns:inkscape="http://www.inkscape.org/namespaces/inkscape"
   width="128"
   height="128"
   viewBox="0 0 128 128"
   version="1.1"
   id="svg853"
   sodipodi:docname="touch_icons.inkscape.svg"
   inkscape:version="1.0.2 (e86c8708, 2021-01-15)">
  <defs
     id="defs847">
    <inkscape:path-effect
       effect="fillet_chamfer"
       id="path-effect1680"
       is_visible="true"
       lpeversion="1"
       satellites_param="F,0,0,1,0,0,0,1 @ F,0,0,1,0,0,0,1 @ C,0,0,1,0,2,0,1 @ C,0,0,1,0,2,0,1"
       unit="px"
       method="auto"
       mode="F"
       radius="2"
       chamfer_steps="1"
       flexible="false"
       use_knot_distance="true"
       apply_no_radius="true"
       apply_with_radius="true"
       only_selected="true"
       hide_knots="false" />
    <inkscape:perspective
       sodipodi:type="inkscape:persp3d"
       inkscape:vp_x="-27.371798 : 77.340085 : 1"
       inkscape:vp_y="0 : 1281.9176 : 0"
       inkscape:vp_z="134.40246 : 77.340085 : 1"
       inkscape:persp3d-origin="53.51533 : 49.992509 : 1"
       id="perspective1635" />
  </defs>
  <sodipodi:namedview
     id="base"
     pagecolor="#ffffff"
     bordercolor="#666666"
     borderopacity="1.0"
     inkscape:pageopacity="0.0"
     inkscape:pageshadow="2"
     inkscape:zoom="4.2443769"
     inkscape:cx="121.29106"
     inkscape:cy="54.565452"
     inkscape:document-units="px"
     inkscape:current-layer="touch-off"
     inkscape:document-rotation="0"
     showgrid="false"
     units="px"
     inkscape:pagecheckerboard="true"
     inkscape:window-width="1633"
     inkscape:window-height="1148"
     inkscape:window-x="2666"
     inkscape:window-y="111"
     inkscape:window-maximized="0"
     inkscape:snap-bbox="true"
     inkscape:bbox-paths="true"
     inkscape:bbox-nodes="false"
     inkscape:snap-bbox-edge-midpoints="false"
     inkscape:snap-bbox-midpoints="false" />
  <metadata
     id="metadata850">
    <rdf:RDF>
      <cc:Work
         rdf:about="">
        <dc:format>image/svg+xml</dc:format>
        <dc:type
           rdf:resource="http://purl.org/dc/dcmitype/StillImage" />
        <dc:title></dc:title>
      </cc:Work>
    </rdf:RDF>
  </metadata>
  <g
     inkscape:groupmode="layer"
     id="background"
     inkscape:label="background"
     style="display:inline">
    <path
       id="rect458-4"
       style="display:inline;fill:#000000;stroke-width:7.49213;stroke-linecap:round;stroke-linejoin:round;stroke-dashoffset:23.4"
       d="m 27.037109,40.083984 c -0.227694,0 -0.455264,0.203967 -0.595703,0.611328 -0.682479,1.979634 -0.737722,5.993311 -0.68164,9.052735 a 4.0326695,4.0326695 0 0 0 -2.75586,3.824218 4.0326695,4.0326695 0 0 0 4.033203,4.033203 4.0326695,4.0326695 0 0 0 4.033203,-4.033203 4.0326695,4.0326695 0 0 0 -2.755859,-3.824218 c 0.05608,-3.059424 8.39e-4,-7.073101 -0.681641,-9.052735 -0.140438,-0.407361 -0.368008,-0.611328 -0.595703,-0.611328 z m 0,-3.267578 A 16.754858,16.754858 0 0 0 10.283203,53.572265 16.754858,16.754858 0 0 0 27.037109,70.326172 16.754858,16.754858 0 0 0 43.792972,53.572265 16.754858,16.754858 0 0 0 27.037109,36.816406 Z m 0,2.603516 A 14.151061,14.151061 0 0 1 41.187502,53.572265 14.151061,14.151061 0 0 1 27.037109,67.722656 14.151061,14.151061 0 0 1 12.886719,53.572265 14.151061,14.151061 0 0 1 27.037109,39.419922 Z M 8.148437,2 5.949219,24.964844 H 48.050782 L 45.851562,2 H 34.521482 V 7.345703 H 19.480469 V 2 Z M 2,26.205078 v 9.52539 h 11.933594 v 5.419922 a 18.056753,18.056753 0 0 1 13.103515,-5.634765 18.056753,18.056753 0 0 1 13.029293,5.554687 v -5.339844 h 11.9336 v -9.52539 z M 13.214844,65.1875 16.748047,78.222656 c 0,0 -0.381662,1.307669 6.150391,1.730469 h -0.16211 l 1.050781,5.501953 h 1.322266 v 6.201173 a 4.0326695,4.0326695 0 0 0 -2.304687,3.64258 4.0326695,4.0326695 0 0 0 4.033203,4.033202 4.0326695,4.0326695 0 0 0 4.033203,-4.033202 4.0326695,4.0326695 0 0 0 -2.304688,-3.64258 v -6.201173 h 1.322266 l 1.046875,-5.476563 c 6.350315,-0.386663 5.992185,-1.755859 5.992185,-1.755859 l 3.35742,-12.382812 A 18.056753,18.056753 0 0 1 27.037109,71.628906 18.056753,18.056753 0 0 1 13.214844,65.1875 Z" />
    <path
       style="display:inline;fill:none;stroke:#000000;stroke-width:5.75503;stroke-linecap:butt;stroke-linejoin:bevel;stroke-miterlimit:4;stroke-dasharray:none;stroke-opacity:1"
       d="M 33.451432,126 V 103.03439 H 126.00001"
       id="path492"
       sodipodi:nodetypes="ccc" />
  </g>
  <g
     inkscape:groupmode="layer"
     id="touch-off"
     inkscape:label="touch-off"
     style="display:inline">
    <path
       id="path1654"
       style="display:inline;fill:#000000;stroke-width:7.49213;stroke-linecap:round;stroke-linejoin:round;stroke-dashoffset:23.4"
       d="m 64.037108,40.083984 c -0.227694,0 -0.455264,0.203967 -0.595703,0.611328 -0.682479,1.979634 -0.737722,5.993311 -0.68164,9.052735 a 4.0326695,4.0326695 0 0 0 -2.75586,3.824218 4.0326695,4.0326695 0 0 0 4.033203,4.033203 4.0326695,4.0326695 0 0 0 4.033203,-4.033203 4.0326695,4.0326695 0 0 0 -2.755859,-3.824218 c 0.05608,-3.059424 8.39e-4,-7.073101 -0.681641,-9.052735 -0.140438,-0.407361 -0.368008,-0.611328 -0.595703,-0.611328 z m 0,-3.267578 A 16.754858,16.754858 0 0 0 47.283202,53.572265 16.754858,16.754858 0 0 0 64.037108,70.326172 16.754858,16.754858 0 0 0 80.792971,53.572265 16.754858,16.754858 0 0 0 64.037108,36.816406 Z m 0,2.603516 A 14.151061,14.151061 0 0 1 78.187501,53.572265 14.151061,14.151061 0 0 1 64.037108,67.722656 14.151061,14.151061 0 0 1 49.886718,53.572265 14.151061,14.151061 0 0 1 64.037108,39.419922 Z M 45.148436,2 42.949218,24.964844 H 85.050781 L 82.851561,2 H 71.521481 V 7.345703 H 56.480468 V 2 Z m -6.148437,24.205078 v 9.52539 h 11.933594 v 5.419922 a 18.056753,18.056753 0 0 1 13.103515,-5.634765 18.056753,18.056753 0 0 1 13.029293,5.554687 v -5.339844 h 11.9336 v -9.52539 z M 50.214843,65.1875 53.748046,78.222656 c 0,0 -0.381662,1.307669 6.150391,1.730469 h -0.16211 l 1.050781,5.501953 h 1.322266 v 6.201173 a 4.0326695,4.0326695 0 0 0 -2.304687,3.64258 4.0326695,4.0326695 0 0 0 4.033203,4.033202 4.0326695,4.0326695 0 0 0 4.033203,-4.033202 4.0326695,4.0326695 0 0 0 -2.304688,-3.64258 v -6.201173 h 1.322266 l 1.046875,-5.476563 c 6.350315,-0.386663 5.992185,-1.755859 5.992185,-1.755859 l 3.35742,-12.382812 A 18.056753,18.056753 0 0 1 64.037108,71.628906 18.056753,18.056753 0 0 1 50.214843,65.1875 Z" />
    <path
       style="display:inline;fill:none;stroke:#000000;stroke-width:5.75503;stroke-linecap:butt;stroke-linejoin:bevel;stroke-miterlimit:4;stroke-dasharray:none;stroke-opacity:1"
       d="m 73.23601,126 v -22.96561 h 41.89332"
       id="path1656"
       sodipodi:nodetypes="ccc" />
  </g>
  <g
     inkscape:groupmode="layer"
     id="set"
     inkscape:label="set"
     style="display:inline">
    <text
       xml:space="preserve"
       style="font-style:normal;font-weight:normal;font-size:44px;line-height:0.95;font-family:sans-serif;display:inline;fill:#000000;fill-opacity:1;stroke:none"
       x="89.513016"
       y="33.588383"
       id="text1350-1"><tspan
         sodipodi:role="line"
         x="89.513016"
         y="33.588383"
         style="font-style:normal;font-variant:normal;font-weight:500;font-stretch:condensed;font-size:34px;font-family:Roboto;-inkscape-font-specification:'Roboto Medium Condensed';text-align:center;text-anchor:middle"
         id="tspan1356-0">SET</tspan></text>
  </g>
  <g
     inkscape:groupmode="layer"
     id="zero"
     inkscape:label="zero"
     style="display:inline">
    <text
       xml:space="preserve"
       style="font-style:normal;font-weight:normal;font-size:44px;line-height:0.95;font-family:sans-serif;display:inline;fill:#000000;fill-opacity:1;stroke:none"
       x="89.936356"
       y="33.588383"
       id="text1350-1-5"><tspan
         sodipodi:role="line"
         x="89.936356"
         y="33.588383"
         style="font-style:normal;font-variant:normal;font-weight:500;font-stretch:condensed;font-size:34px;font-family:Roboto;-inkscape-font-specification:'Roboto Medium Condensed';text-align:center;text-anchor:middle"
         id="tspan1356-0-7">ZERO</tspan></text>
  </g>
  <g
     inkscape:groupmode="layer"
     id="x"
     inkscape:label="X"
     style="display:inline">
    <text
       xml:space="preserve"
       style="font-style:normal;font-variant:normal;font-weight:normal;font-stretch:normal;font-size:62.7133px;line-height:1.25;font-family:Roboto;-inkscape-font-specification:'Roboto, Normal';font-variant-ligatures:normal;font-variant-caps:normal;font-variant-numeric:normal;font-variant-east-asian:normal;text-align:end;text-anchor:end;fill:#000000;fill-opacity:1;stroke:none;stroke-width:0.979895"
       x="107.02795"
       y="88.957062"
       id="text376"><tspan
         id="tspan374"
         x="107.02795"
         y="88.957062"
         style="font-style:normal;font-variant:normal;font-weight:normal;font-stretch:normal;font-size:62.7133px;font-family:Roboto;-inkscape-font-specification:'Roboto, Normal';font-variant-ligatures:normal;font-variant-caps:normal;font-variant-numeric:normal;font-variant-east-asian:normal;text-align:end;text-anchor:end;stroke-width:0.979895"
         sodipodi:role="line">X</tspan></text>
  </g>
  <g
     inkscape:groupmode="layer"
     id="y"
     inkscape:label="Y"
     style="display:inline">
    <text
       xml:space="preserve"
       style="font-style:normal;font-variant:normal;font-weight:normal;font-stretch:normal;font-size:62.7133px;line-height:1.25;font-family:Roboto;-inkscape-font-specification:'Roboto, Normal';font-variant-ligatures:normal;font-variant-caps:normal;font-variant-numeric:normal;font-variant-east-asian:normal;text-align:end;text-anchor:end;fill:#000000;fill-opacity:1;stroke:none;stroke-width:0.979895"
       x="106.36958"
       y="88.957062"
       id="text381"><tspan
         id="tspan379"
         x="106.36958"
         y="88.957062"
         style="font-style:normal;font-variant:normal;font-weight:normal;font-stretch:normal;font-size:62.7133px;font-family:Roboto;-inkscape-font-specification:'Roboto, Normal';font-variant-ligatures:normal;font-variant-caps:normal;font-variant-numeric:normal;font-variant-east-asian:normal;text-align:end;text-anchor:end;stroke-width:0.979895"
         sodipodi:role="line">Y</tspan></text>
  </g>
  <g
     inkscape:groupmode="layer"
     id="z"
     inkscape:label="Z"
     style="display:inline">
    <text
       xml:space="preserve"
       style="font-style:normal;font-variant:normal;font-weight:normal;font-stretch:normal;font-size:62.7133px;line-height:1.25;font-family:Roboto;-inkscape-font-specification:'Roboto, Normal';font-variant-ligatures:normal;font-variant-caps:normal;font-variant-numeric:normal;font-variant-east-asian:normal;text-align:end;text-anchor:end;fill:#000000;fill-opacity:1;stroke:none;stroke-width:0.979895"
       x="106.15523"
       y="88.957062"
       id="text386"><tspan
         id="tspan384"
         x="106.15523"
         y="88.957062"
         style="font-style:normal;font-variant:normal;font-weight:normal;font-stretch:normal;font-size:62.7133px;font-family:Roboto;-inkscape-font-specification:'Roboto, Normal';font-variant-ligatures:normal;font-variant-caps:normal;font-variant-numeric:normal;font-variant-east-asian:normal;text-align:end;text-anchor:end;stroke-width:0.979895"
         sodipodi:role="line">Z</tspan></text>
  </g>
  <g
     inkscape:groupmode="layer"
     id="a"
     inkscape:label="A"
     style="display:inline">
    <text
       xml:space="preserve"
       style="font-style:normal;font-variant:normal;font-weight:normal;font-stretch:normal;font-size:62.7133px;line-height:1.25;font-family:Roboto;-inkscape-font-specification:'Roboto, Normal';font-variant-ligatures:normal;font-variant-caps:normal;font-variant-numeric:normal;font-variant-east-asian:normal;text-align:end;text-anchor:end;fill:#000000;fill-opacity:1;stroke:none;stroke-width:0.979895"
       x="107.83942"
       y="88.957062"
       id="text391"><tspan
         id="tspan389"
         x="107.83942"
         y="88.957062"
         style="font-style:normal;font-variant:normal;font-weight:normal;font-stretch:normal;font-size:62.7133px;font-family:Roboto;-inkscape-font-specification:'Roboto, Normal';font-variant-ligatures:normal;font-variant-caps:normal;font-variant-numeric:normal;font-variant-east-asian:normal;text-align:end;text-anchor:end;stroke-width:0.979895"
         sodipodi:role="line">A</tspan></text>
  </g>
  <g
     inkscape:groupmode="layer"
     id="b"
     inkscape:label="B"
     style="display:inline">
    <text
       xml:space="preserve"
       style="font-style:normal;font-variant:normal;font-weight:normal;font-stretch:normal;font-size:62.7133px;line-height:1.25;font-family:Roboto;-inkscape-font-specification:'Roboto, Normal';font-variant-ligatures:normal;font-variant-caps:normal;font-variant-numeric:normal;font-variant-east-asian:normal;text-align:end;text-anchor:end;fill:#000000;fill-opacity:1;stroke:none;stroke-width:0.979895"
       x="106.15523"
       y="88.957062"
       id="text396"><tspan
         id="tspan394"
         x="106.15523"
         y="88.957062"
         style="font-style:normal;font-variant:normal;font-weight:normal;font-stretch:normal;font-size:62.7133px;font-family:Roboto;-inkscape-font-specification:'Roboto, Normal';font-variant-ligatures:normal;font-variant-caps:normal;font-variant-numeric:normal;font-variant-east-asian:normal;text-align:end;text-anchor:end;stroke-width:0.979895"
         sodipodi:role="line">B</tspan></text>
  </g>
  <g
     inkscape:groupmode="layer"
     id="c"
     inkscape:label="C"
     style="display:inline">
    <text
       xml:space="preserve"
       style="font-style:normal;font-variant:normal;font-weight:normal;font-stretch:normal;font-size:62.7133px;line-height:1.25;font-family:Roboto;-inkscape-font-specification:'Roboto, Normal';font-variant-ligatures:normal;font-variant-caps:normal;font-variant-numeric:normal;font-variant-east-asian:normal;text-align:end;text-anchor:end;fill:#000000;fill-opacity:1;stroke:none;stroke-width:0.979895"
       x="107.3954"
       y="88.957062"
       id="text401"><tspan
         id="tspan399"
         x="107.3954"
         y="88.957062"
         style="font-style:normal;font-variant:normal;font-weight:normal;font-stretch:normal;font-size:62.7133px;font-family:Roboto;-inkscape-font-specification:'Roboto, Normal';font-variant-ligatures:normal;font-variant-caps:normal;font-variant-numeric:normal;font-variant-east-asian:normal;text-align:end;text-anchor:end;stroke-width:0.979895"
         sodipodi:role="line">C</tspan></text>
  </g>
  <g
     inkscape:groupmode="layer"
     id="u"
     inkscape:label="U"
     style="display:inline">
    <text
       xml:space="preserve"
       style="font-style:normal;font-variant:normal;font-weight:normal;font-stretch:normal;font-size:62.7133px;line-height:1.25;font-family:Roboto;-inkscape-font-specification:'Roboto, Normal';font-variant-ligatures:normal;font-variant-caps:normal;font-variant-numeric:normal;font-variant-east-asian:normal;text-align:end;text-anchor:end;fill:#000000;fill-opacity:1;stroke:none;stroke-width:0.979895"
       x="107.671"
       y="88.650841"
       id="text406"><tspan
         id="tspan404"
         x="107.671"
         y="88.650841"
         style="font-style:normal;font-variant:normal;font-weight:normal;font-stretch:normal;font-size:62.7133px;font-family:Roboto;-inkscape-font-specification:'Roboto, Normal';font-variant-ligatures:normal;font-variant-caps:normal;font-variant-numeric:normal;font-variant-east-asian:normal;text-align:end;text-anchor:end;stroke-width:0.979895"
         sodipodi:role="line">U</tspan></text>
  </g>
  <g
     inkscape:groupmode="layer"
     id="v"
     inkscape:label="V"
     style="display:inline">
    <text
       xml:space="preserve"
       style="font-style:normal;font-variant:normal;font-weight:normal;font-stretch:normal;font-size:62.7133px;line-height:1.25;font-family:Roboto;-inkscape-font-specification:'Roboto, Normal';font-variant-ligatures:normal;font-variant-caps:normal;font-variant-numeric:normal;font-variant-east-asian:normal;text-align:end;text-anchor:end;fill:#000000;fill-opacity:1;stroke:none;stroke-width:0.979895"
       x="107.36479"
       y="88.957062"
       id="text411"><tspan
         id="tspan409"
         x="107.36479"
         y="88.957062"
         style="font-style:normal;font-variant:normal;font-weight:normal;font-stretch:normal;font-size:62.7133px;font-family:Roboto;-inkscape-font-specification:'Roboto, Normal';font-variant-ligatures:normal;font-variant-caps:normal;font-variant-numeric:normal;font-variant-east-asian:normal;text-align:end;text-anchor:end;stroke-width:0.979895"
         sodipodi:role="line">V</tspan></text>
  </g>
  <g
     inkscape:groupmode="layer"
     id="w"
     inkscape:label="W"
     style="display:inline">
    <text
       xml:space="preserve"
       style="font-style:normal;font-variant:normal;font-weight:normal;font-stretch:normal;font-size:62.7133px;line-height:1.25;font-family:Roboto;-inkscape-font-specification:'Roboto, Normal';font-variant-ligatures:normal;font-variant-caps:normal;font-variant-numeric:normal;font-variant-east-asian:normal;text-align:end;letter-spacing:0px;text-anchor:end;fill:#000000;fill-opacity:1;stroke:none;stroke-width:0.979895"
       x="111.0547"
       y="88.957062"
       id="text416"><tspan
         id="tspan414"
         x="111.0547"
         y="88.957062"
         style="font-style:normal;font-variant:normal;font-weight:normal;font-stretch:condensed;font-size:62.7133px;font-family:Roboto;-inkscape-font-specification:'Roboto Condensed';font-variant-ligatures:normal;font-variant-caps:normal;font-variant-numeric:normal;font-variant-east-asian:normal;text-align:end;text-anchor:end;stroke-width:0.979895"
         sodipodi:role="line">W</tspan></text>
  </g>
</svg>
