solid ascii
  facet normal -9.160248e-001 4.011216e-001 1.425070e-016
    outer loop
      vertex   1.487834e+001 4.529464e+001 8.500000e+001
      vertex   1.487834e+001 4.529464e+001 1.050000e+002
      vertex   1.542453e+001 4.654196e+001 8.500000e+001
    endloop
  endfacet
  facet normal -9.902774e-001 1.391064e-001 4.892048e-017
    outer loop
      vertex   1.487834e+001 4.529464e+001 8.500000e+001
      vertex   1.468892e+001 4.394621e+001 1.050000e+002
      vertex   1.487834e+001 4.529464e+001 1.050000e+002
    endloop
  endfacet
  facet normal -9.902774e-001 1.391064e-001 2.747497e-016
    outer loop
      vertex   1.487834e+001 4.529464e+001 8.500000e+001
      vertex   1.468892e+001 4.394621e+001 8.500000e+001
      vertex   1.468892e+001 4.394621e+001 1.050000e+002
    endloop
  endfacet
  facet normal -9.910857e-001 -1.332257e-001 8.138965e-017
    outer loop
      vertex   1.468892e+001 4.394621e+001 1.050000e+002
      vertex   1.468892e+001 4.394621e+001 8.500000e+001
      vertex   1.487033e+001 4.259669e+001 1.050000e+002
    endloop
  endfacet
  facet normal -9.183897e-001 -3.956770e-001 -1.995761e-016
    outer loop
      vertex   1.487033e+001 4.259669e+001 1.250000e+002
      vertex   1.487033e+001 4.259669e+001 1.050000e+002
      vertex   1.540911e+001 4.134615e+001 1.250000e+002
    endloop
  endfacet
  facet normal -9.910857e-001 -1.332257e-001 -7.134237e-018
    outer loop
      vertex   1.487033e+001 4.259669e+001 1.250000e+002
      vertex   1.468892e+001 4.394621e+001 1.050000e+002
      vertex   1.487033e+001 4.259669e+001 1.050000e+002
    endloop
  endfacet
  facet normal -9.910857e-001 -1.332257e-001 -4.733127e-017
    outer loop
      vertex   1.487033e+001 4.259669e+001 1.250000e+002
      vertex   1.468892e+001 4.394621e+001 1.250000e+002
      vertex   1.468892e+001 4.394621e+001 1.050000e+002
    endloop
  endfacet
  facet normal -9.902774e-001 1.391064e-001 4.942053e-017
    outer loop
      vertex   1.468892e+001 4.394621e+001 1.050000e+002
      vertex   1.468892e+001 4.394621e+001 1.250000e+002
      vertex   1.487834e+001 4.529464e+001 1.050000e+002
    endloop
  endfacet
  facet normal -9.902774e-001 1.391064e-001 2.731394e-016
    outer loop
      vertex   1.487834e+001 4.529464e+001 1.050000e+002
      vertex   1.468892e+001 4.394621e+001 1.250000e+002
      vertex   1.487834e+001 4.529464e+001 1.250000e+002
    endloop
  endfacet
  facet normal -9.160248e-001 4.011216e-001 3.669036e-016
    outer loop
      vertex   1.542453e+001 4.654196e+001 1.050000e+002
      vertex   1.487834e+001 4.529464e+001 1.250000e+002
      vertex   1.542453e+001 4.654196e+001 1.250000e+002
    endloop
  endfacet
  facet normal -7.738348e-001 6.333875e-001 4.484378e-016
    outer loop
      vertex   1.628699e+001 4.759567e+001 1.050000e+002
      vertex   1.542453e+001 4.654196e+001 1.250000e+002
      vertex   1.628699e+001 4.759567e+001 1.250000e+002
    endloop
  endfacet
  facet normal -5.742530e-001 8.186779e-001 4.810514e-016
    outer loop
      vertex   1.740176e+001 4.837761e+001 1.050000e+002
      vertex   1.628699e+001 4.759567e+001 1.250000e+002
      vertex   1.740176e+001 4.837761e+001 1.250000e+002
    endloop
  endfacet
  facet normal -3.320815e-001 9.432507e-001 7.297305e-016
    outer loop
      vertex   1.868615e+001 4.882979e+001 1.050000e+002
      vertex   1.740176e+001 4.837761e+001 1.250000e+002
      vertex   1.868615e+001 4.882979e+001 1.250000e+002
    endloop
  endfacet
  facet normal -6.528102e-002 9.978669e-001 7.088374e-016
    outer loop
      vertex   2.004492e+001 4.891868e+001 1.050000e+002
      vertex   1.868615e+001 4.882979e+001 1.250000e+002
      vertex   2.004492e+001 4.891868e+001 1.250000e+002
    endloop
  endfacet
  facet normal 2.063610e-001 9.784759e-001 6.583882e-016
    outer loop
      vertex   2.137727e+001 4.863769e+001 1.050000e+002
      vertex   2.004492e+001 4.891868e+001 1.250000e+002
      vertex   2.137727e+001 4.863769e+001 1.250000e+002
    endloop
  endfacet
  facet normal 4.626983e-001 8.865158e-001 6.278129e-016
    outer loop
      vertex   2.258441e+001 4.800765e+001 1.050000e+002
      vertex   2.137727e+001 4.863769e+001 1.250000e+002
      vertex   2.258441e+001 4.800765e+001 1.250000e+002
    endloop
  endfacet
  facet normal 6.847193e-001 7.288069e-001 5.177418e-016
    outer loop
      vertex   2.357680e+001 4.707529e+001 1.050000e+002
      vertex   2.258441e+001 4.800765e+001 1.250000e+002
      vertex   2.357680e+001 4.707529e+001 1.250000e+002
    endloop
  endfacet
  facet normal 8.559578e-001 5.170457e-001 3.669036e-016
    outer loop
      vertex   2.428085e+001 4.590976e+001 1.050000e+002
      vertex   2.357680e+001 4.707529e+001 1.250000e+002
      vertex   2.428085e+001 4.590976e+001 1.250000e+002
    endloop
  endfacet
  facet normal 9.637138e-001 2.669376e-001 1.895669e-016
    outer loop
      vertex   2.464433e+001 4.459750e+001 1.050000e+002
      vertex   2.428085e+001 4.590976e+001 1.250000e+002
      vertex   2.464433e+001 4.459750e+001 1.250000e+002
    endloop
  endfacet
  facet normal 9.999956e-001 -2.968010e-003 -1.797573e-016
    outer loop
      vertex   2.464029e+001 4.323584e+001 1.050000e+002
      vertex   2.464433e+001 4.459750e+001 1.250000e+002
      vertex   2.464029e+001 4.323584e+001 1.250000e+002
    endloop
  endfacet
  facet normal 9.621123e-001 -2.726535e-001 -1.956819e-016
    outer loop
      vertex   2.426902e+001 4.192577e+001 1.050000e+002
      vertex   2.464029e+001 4.323584e+001 1.250000e+002
      vertex   2.426902e+001 4.192577e+001 1.250000e+002
    endloop
  endfacet
  facet normal 8.528735e-001 -5.221176e-001 -3.709803e-016
    outer loop
      vertex   2.355807e+001 4.076444e+001 1.050000e+002
      vertex   2.426902e+001 4.192577e+001 1.250000e+002
      vertex   2.355807e+001 4.076444e+001 1.250000e+002
    endloop
  endfacet
  facet normal 6.803810e-001 -7.328586e-001 -3.995173e-016
    outer loop
      vertex   2.256016e+001 3.983798e+001 1.050000e+002
      vertex   2.355807e+001 4.076444e+001 1.250000e+002
      vertex   2.256016e+001 3.983798e+001 1.250000e+002
    endloop
  endfacet
  facet normal 4.574278e-001 -8.892468e-001 -3.179831e-016
    outer loop
      vertex   2.134931e+001 3.921512e+001 1.050000e+002
      vertex   2.256016e+001 3.983798e+001 1.250000e+002
      vertex   2.134931e+001 3.921512e+001 1.250000e+002
    endloop
  endfacet
  facet normal 2.005492e-001 -9.796836e-001 -6.950785e-016
    outer loop
      vertex   2.001530e+001 3.894204e+001 1.050000e+002
      vertex   2.134931e+001 3.921512e+001 1.250000e+002
      vertex   2.001530e+001 3.894204e+001 1.250000e+002
    endloop
  endfacet
  facet normal -7.120320e-002 -9.974618e-001 -7.093470e-016
    outer loop
      vertex   1.865709e+001 3.903899e+001 1.050000e+002
      vertex   2.001530e+001 3.894204e+001 1.250000e+002
      vertex   1.865709e+001 3.903899e+001 1.250000e+002
    endloop
  endfacet
  facet normal -3.376748e-001 -9.412628e-001 -7.297305e-016
    outer loop
      vertex   1.737541e+001 3.949879e+001 1.050000e+002
      vertex   1.865709e+001 3.903899e+001 1.250000e+002
      vertex   1.737541e+001 3.949879e+001 1.250000e+002
    endloop
  endfacet
  facet normal -5.791026e-001 -8.152547e-001 -9.702562e-016
    outer loop
      vertex   1.626530e+001 4.028734e+001 1.050000e+002
      vertex   1.737541e+001 3.949879e+001 1.250000e+002
      vertex   1.626530e+001 4.028734e+001 1.250000e+002
    endloop
  endfacet
  facet normal -7.775809e-001 -6.287828e-001 -5.177418e-016
    outer loop
      vertex   1.540911e+001 4.134615e+001 1.050000e+002
      vertex   1.626530e+001 4.028734e+001 1.250000e+002
      vertex   1.540911e+001 4.134615e+001 1.250000e+002
    endloop
  endfacet
  facet normal -9.183897e-001 -3.956770e-001 -3.627148e-016
    outer loop
      vertex   1.487033e+001 4.259669e+001 1.050000e+002
      vertex   1.540911e+001 4.134615e+001 1.050000e+002
      vertex   1.540911e+001 4.134615e+001 1.250000e+002
    endloop
  endfacet
  facet normal -9.183897e-001 -3.956770e-001 -5.900333e-017
    outer loop
      vertex   1.487033e+001 4.259669e+001 1.050000e+002
      vertex   1.487033e+001 4.259669e+001 8.500000e+001
      vertex   1.540911e+001 4.134615e+001 1.050000e+002
    endloop
  endfacet
  facet normal -9.910857e-001 -1.332257e-001 4.076707e-017
    outer loop
      vertex   1.487033e+001 4.259669e+001 1.050000e+002
      vertex   1.468892e+001 4.394621e+001 8.500000e+001
      vertex   1.487033e+001 4.259669e+001 8.500000e+001
    endloop
  endfacet
  facet normal -9.183897e-001 -3.956770e-001 -5.900333e-017
    outer loop
      vertex   1.487033e+001 4.259669e+001 8.500000e+001
      vertex   1.540911e+001 4.134615e+001 8.500000e+001
      vertex   1.540911e+001 4.134615e+001 1.050000e+002
    endloop
  endfacet
  facet normal -7.775809e-001 -6.287828e-001 -1.543255e-016
    outer loop
      vertex   1.540911e+001 4.134615e+001 1.050000e+002
      vertex   1.540911e+001 4.134615e+001 8.500000e+001
      vertex   1.626530e+001 4.028734e+001 1.050000e+002
    endloop
  endfacet
  facet normal -7.775809e-001 -6.287828e-001 -8.112647e-016
    outer loop
      vertex   1.626530e+001 4.028734e+001 1.250000e+002
      vertex   1.540911e+001 4.134615e+001 1.050000e+002
      vertex   1.626530e+001 4.028734e+001 1.050000e+002
    endloop
  endfacet
  facet normal -7.775809e-001 -6.287828e-001 2.762522e-016
    outer loop
      vertex   1.540911e+001 4.134615e+001 8.500000e+001
      vertex   1.626530e+001 4.028734e+001 8.500000e+001
      vertex   1.626530e+001 4.028734e+001 1.050000e+002
    endloop
  endfacet
  facet normal -5.791026e-001 -8.152547e-001 2.057386e-016
    outer loop
      vertex   1.626530e+001 4.028734e+001 1.050000e+002
      vertex   1.626530e+001 4.028734e+001 8.500000e+001
      vertex   1.737541e+001 3.949879e+001 1.050000e+002
    endloop
  endfacet
  facet normal -5.791026e-001 -8.152547e-001 -6.808100e-016
    outer loop
      vertex   1.737541e+001 3.949879e+001 1.250000e+002
      vertex   1.626530e+001 4.028734e+001 1.050000e+002
      vertex   1.737541e+001 3.949879e+001 1.050000e+002
    endloop
  endfacet
  facet normal -5.791026e-001 -8.152547e-001 -8.389810e-017
    outer loop
      vertex   1.626530e+001 4.028734e+001 8.500000e+001
      vertex   1.737541e+001 3.949879e+001 8.500000e+001
      vertex   1.737541e+001 3.949879e+001 1.050000e+002
    endloop
  endfacet
  facet normal -3.376748e-001 -9.412628e-001 -2.144376e-016
    outer loop
      vertex   1.737541e+001 3.949879e+001 1.050000e+002
      vertex   1.737541e+001 3.949879e+001 8.500000e+001
      vertex   1.865709e+001 3.903899e+001 1.050000e+002
    endloop
  endfacet
  facet normal -3.376748e-001 -9.412628e-001 -6.685799e-016
    outer loop
      vertex   1.865709e+001 3.903899e+001 1.250000e+002
      vertex   1.737541e+001 3.949879e+001 1.050000e+002
      vertex   1.865709e+001 3.903899e+001 1.050000e+002
    endloop
  endfacet
  facet normal -3.376748e-001 -9.412628e-001 -2.744206e-016
    outer loop
      vertex   1.737541e+001 3.949879e+001 8.500000e+001
      vertex   1.865709e+001 3.903899e+001 8.500000e+001
      vertex   1.865709e+001 3.903899e+001 1.050000e+002
    endloop
  endfacet
  facet normal -7.120320e-002 -9.974618e-001 -3.417214e-016
    outer loop
      vertex   1.865709e+001 3.903899e+001 1.050000e+002
      vertex   1.865709e+001 3.903899e+001 8.500000e+001
      vertex   2.001530e+001 3.894204e+001 1.050000e+002
    endloop
  endfacet
  facet normal -7.120320e-002 -9.974618e-001 -7.093470e-016
    outer loop
      vertex   2.001530e+001 3.894204e+001 1.250000e+002
      vertex   1.865709e+001 3.903899e+001 1.050000e+002
      vertex   2.001530e+001 3.894204e+001 1.050000e+002
    endloop
  endfacet
  facet normal -7.120320e-002 -9.974618e-001 -3.417214e-016
    outer loop
      vertex   1.865709e+001 3.903899e+001 8.500000e+001
      vertex   2.001530e+001 3.894204e+001 8.500000e+001
      vertex   2.001530e+001 3.894204e+001 1.050000e+002
    endloop
  endfacet
  facet normal 2.005492e-001 -9.796836e-001 -3.836782e-016
    outer loop
      vertex   2.001530e+001 3.894204e+001 1.050000e+002
      vertex   2.001530e+001 3.894204e+001 8.500000e+001
      vertex   2.134931e+001 3.921512e+001 1.050000e+002
    endloop
  endfacet
  facet normal 2.005492e-001 -9.796836e-001 -3.465201e-016
    outer loop
      vertex   2.134931e+001 3.921512e+001 1.250000e+002
      vertex   2.001530e+001 3.894204e+001 1.050000e+002
      vertex   2.134931e+001 3.921512e+001 1.050000e+002
    endloop
  endfacet
  facet normal 2.005492e-001 -9.796836e-001 -7.317318e-016
    outer loop
      vertex   2.001530e+001 3.894204e+001 8.500000e+001
      vertex   2.134931e+001 3.921512e+001 8.500000e+001
      vertex   2.134931e+001 3.921512e+001 1.050000e+002
    endloop
  endfacet
  facet normal 4.574278e-001 -8.892468e-001 -7.131033e-016
    outer loop
      vertex   2.134931e+001 3.921512e+001 1.050000e+002
      vertex   2.134931e+001 3.921512e+001 8.500000e+001
      vertex   2.256016e+001 3.983798e+001 1.050000e+002
    endloop
  endfacet
  facet normal 4.574278e-001 -8.892468e-001 -5.503554e-016
    outer loop
      vertex   2.256016e+001 3.983798e+001 1.250000e+002
      vertex   2.134931e+001 3.921512e+001 1.050000e+002
      vertex   2.256016e+001 3.983798e+001 1.050000e+002
    endloop
  endfacet
  facet normal 4.574278e-001 -8.892468e-001 -3.971794e-016
    outer loop
      vertex   2.134931e+001 3.921512e+001 8.500000e+001
      vertex   2.256016e+001 3.983798e+001 8.500000e+001
      vertex   2.256016e+001 3.983798e+001 1.050000e+002
    endloop
  endfacet
  facet normal 6.803810e-001 -7.328586e-001 -3.812236e-016
    outer loop
      vertex   2.256016e+001 3.983798e+001 1.050000e+002
      vertex   2.256016e+001 3.983798e+001 8.500000e+001
      vertex   2.355807e+001 4.076444e+001 1.050000e+002
    endloop
  endfacet
  facet normal 6.803810e-001 -7.328586e-001 -5.218185e-016
    outer loop
      vertex   2.355807e+001 4.076444e+001 1.250000e+002
      vertex   2.256016e+001 3.983798e+001 1.050000e+002
      vertex   2.355807e+001 4.076444e+001 1.050000e+002
    endloop
  endfacet
  facet normal 6.803810e-001 -7.328586e-001 -3.812236e-016
    outer loop
      vertex   2.256016e+001 3.983798e+001 8.500000e+001
      vertex   2.355807e+001 4.076444e+001 8.500000e+001
      vertex   2.355807e+001 4.076444e+001 1.050000e+002
    endloop
  endfacet
  facet normal 8.528735e-001 -5.221176e-001 -3.369942e-016
    outer loop
      vertex   2.355807e+001 4.076444e+001 1.050000e+002
      vertex   2.355807e+001 4.076444e+001 8.500000e+001
      vertex   2.426902e+001 4.192577e+001 1.050000e+002
    endloop
  endfacet
  facet normal 8.528735e-001 -5.221176e-001 -3.709803e-016
    outer loop
      vertex   2.426902e+001 4.192577e+001 1.250000e+002
      vertex   2.355807e+001 4.076444e+001 1.050000e+002
      vertex   2.426902e+001 4.192577e+001 1.050000e+002
    endloop
  endfacet
  facet normal 8.528735e-001 -5.221176e-001 -3.369942e-016
    outer loop
      vertex   2.355807e+001 4.076444e+001 8.500000e+001
      vertex   2.426902e+001 4.192577e+001 8.500000e+001
      vertex   2.426902e+001 4.192577e+001 1.050000e+002
    endloop
  endfacet
  facet normal 9.621123e-001 -2.726535e-001 -2.677715e-016
    outer loop
      vertex   2.426902e+001 4.192577e+001 1.050000e+002
      vertex   2.426902e+001 4.192577e+001 8.500000e+001
      vertex   2.464029e+001 4.323584e+001 1.050000e+002
    endloop
  endfacet
  facet normal 9.621123e-001 -2.726535e-001 -3.648653e-016
    outer loop
      vertex   2.464029e+001 4.323584e+001 1.250000e+002
      vertex   2.426902e+001 4.192577e+001 1.050000e+002
      vertex   2.464029e+001 4.323584e+001 1.050000e+002
    endloop
  endfacet
  facet normal 9.621123e-001 -2.726535e-001 -9.686599e-017
    outer loop
      vertex   2.426902e+001 4.192577e+001 8.500000e+001
      vertex   2.464029e+001 4.323584e+001 8.500000e+001
      vertex   2.464029e+001 4.323584e+001 1.050000e+002
    endloop
  endfacet
  facet normal 9.999956e-001 -2.968010e-003 -1.054449e-018
    outer loop
      vertex   2.464029e+001 4.323584e+001 1.050000e+002
      vertex   2.464029e+001 4.323584e+001 8.500000e+001
      vertex   2.464433e+001 4.459750e+001 1.050000e+002
    endloop
  endfacet
  facet normal 9.999956e-001 -2.968010e-003 -2.133901e-018
    outer loop
      vertex   2.464433e+001 4.459750e+001 1.250000e+002
      vertex   2.464029e+001 4.323584e+001 1.050000e+002
      vertex   2.464433e+001 4.459750e+001 1.050000e+002
    endloop
  endfacet
  facet normal 9.999956e-001 -2.968010e-003 -1.786894e-016
    outer loop
      vertex   2.464029e+001 4.323584e+001 8.500000e+001
      vertex   2.464433e+001 4.459750e+001 8.500000e+001
      vertex   2.464433e+001 4.459750e+001 1.050000e+002
    endloop
  endfacet
  facet normal 9.637138e-001 2.669376e-001 -7.635466e-017
    outer loop
      vertex   2.464433e+001 4.459750e+001 1.050000e+002
      vertex   2.464433e+001 4.459750e+001 8.500000e+001
      vertex   2.428085e+001 4.590976e+001 1.050000e+002
    endloop
  endfacet
  facet normal 9.637138e-001 2.669376e-001 1.895669e-016
    outer loop
      vertex   2.428085e+001 4.590976e+001 1.250000e+002
      vertex   2.464433e+001 4.459750e+001 1.050000e+002
      vertex   2.428085e+001 4.590976e+001 1.050000e+002
    endloop
  endfacet
  facet normal 9.637138e-001 2.669376e-001 -7.635466e-017
    outer loop
      vertex   2.464433e+001 4.459750e+001 8.500000e+001
      vertex   2.428085e+001 4.590976e+001 8.500000e+001
      vertex   2.428085e+001 4.590976e+001 1.050000e+002
    endloop
  endfacet
  facet normal 8.559578e-001 5.170457e-001 3.164290e-017
    outer loop
      vertex   2.428085e+001 4.590976e+001 1.050000e+002
      vertex   2.428085e+001 4.590976e+001 8.500000e+001
      vertex   2.357680e+001 4.707529e+001 1.050000e+002
    endloop
  endfacet
  facet normal 8.559578e-001 5.170457e-001 3.669036e-016
    outer loop
      vertex   2.357680e+001 4.707529e+001 1.250000e+002
      vertex   2.428085e+001 4.590976e+001 1.050000e+002
      vertex   2.357680e+001 4.707529e+001 1.050000e+002
    endloop
  endfacet
  facet normal 8.559578e-001 5.170457e-001 3.164290e-017
    outer loop
      vertex   2.428085e+001 4.590976e+001 8.500000e+001
      vertex   2.357680e+001 4.707529e+001 8.500000e+001
      vertex   2.357680e+001 4.707529e+001 1.050000e+002
    endloop
  endfacet
  facet normal 6.847193e-001 7.288069e-001 1.372937e-016
    outer loop
      vertex   2.357680e+001 4.707529e+001 1.050000e+002
      vertex   2.357680e+001 4.707529e+001 8.500000e+001
      vertex   2.258441e+001 4.800765e+001 1.050000e+002
    endloop
  endfacet
  facet normal 6.847193e-001 7.288069e-001 5.177418e-016
    outer loop
      vertex   2.258441e+001 4.800765e+001 1.250000e+002
      vertex   2.357680e+001 4.707529e+001 1.050000e+002
      vertex   2.258441e+001 4.800765e+001 1.050000e+002
    endloop
  endfacet
  facet normal 6.847193e-001 7.288069e-001 1.372937e-016
    outer loop
      vertex   2.357680e+001 4.707529e+001 8.500000e+001
      vertex   2.258441e+001 4.800765e+001 8.500000e+001
      vertex   2.258441e+001 4.800765e+001 1.050000e+002
    endloop
  endfacet
  facet normal 4.626983e-001 8.865158e-001 2.327620e-016
    outer loop
      vertex   2.258441e+001 4.800765e+001 1.050000e+002
      vertex   2.258441e+001 4.800765e+001 8.500000e+001
      vertex   2.137727e+001 4.863769e+001 1.050000e+002
    endloop
  endfacet
  facet normal 4.626983e-001 8.865158e-001 5.462787e-016
    outer loop
      vertex   2.137727e+001 4.863769e+001 1.250000e+002
      vertex   2.258441e+001 4.800765e+001 1.050000e+002
      vertex   2.137727e+001 4.863769e+001 1.050000e+002
    endloop
  endfacet
  facet normal 4.626983e-001 8.865158e-001 3.149537e-016
    outer loop
      vertex   2.258441e+001 4.800765e+001 8.500000e+001
      vertex   2.137727e+001 4.863769e+001 8.500000e+001
      vertex   2.137727e+001 4.863769e+001 1.050000e+002
    endloop
  endfacet
  facet normal 2.063610e-001 9.784759e-001 3.476245e-016
    outer loop
      vertex   2.137727e+001 4.863769e+001 1.050000e+002
      vertex   2.137727e+001 4.863769e+001 8.500000e+001
      vertex   2.004492e+001 4.891868e+001 1.050000e+002
    endloop
  endfacet
  facet normal 2.063610e-001 9.784759e-001 6.950785e-016
    outer loop
      vertex   2.004492e+001 4.891868e+001 1.250000e+002
      vertex   2.137727e+001 4.863769e+001 1.050000e+002
      vertex   2.004492e+001 4.891868e+001 1.050000e+002
    endloop
  endfacet
  facet normal 2.063610e-001 9.784759e-001 3.109674e-016
    outer loop
      vertex   2.137727e+001 4.863769e+001 8.500000e+001
      vertex   2.004492e+001 4.891868e+001 8.500000e+001
      vertex   2.004492e+001 4.891868e+001 1.050000e+002
    endloop
  endfacet
  facet normal -6.528102e-002 9.978669e-001 3.661098e-016
    outer loop
      vertex   2.004492e+001 4.891868e+001 1.050000e+002
      vertex   2.004492e+001 4.891868e+001 8.500000e+001
      vertex   1.868615e+001 4.882979e+001 1.050000e+002
    endloop
  endfacet
  facet normal -6.528102e-002 9.978669e-001 7.205579e-016
    outer loop
      vertex   1.868615e+001 4.882979e+001 1.250000e+002
      vertex   2.004492e+001 4.891868e+001 1.050000e+002
      vertex   1.868615e+001 4.882979e+001 1.050000e+002
    endloop
  endfacet
  facet normal -6.528102e-002 9.978669e-001 3.545135e-016
    outer loop
      vertex   2.004492e+001 4.891868e+001 8.500000e+001
      vertex   1.868615e+001 4.882979e+001 8.500000e+001
      vertex   1.868615e+001 4.882979e+001 1.050000e+002
    endloop
  endfacet
  facet normal -3.320815e-001 9.432507e-001 3.351100e-016
    outer loop
      vertex   1.868615e+001 4.882979e+001 1.050000e+002
      vertex   1.868615e+001 4.882979e+001 8.500000e+001
      vertex   1.740176e+001 4.837761e+001 1.050000e+002
    endloop
  endfacet
  facet normal -3.320815e-001 9.432507e-001 6.115060e-016
    outer loop
      vertex   1.740176e+001 4.837761e+001 1.250000e+002
      vertex   1.868615e+001 4.882979e+001 1.050000e+002
      vertex   1.740176e+001 4.837761e+001 1.050000e+002
    endloop
  endfacet
  facet normal -3.320815e-001 9.432507e-001 4.530890e-016
    outer loop
      vertex   1.868615e+001 4.882979e+001 8.500000e+001
      vertex   1.740176e+001 4.837761e+001 8.500000e+001
      vertex   1.740176e+001 4.837761e+001 1.050000e+002
    endloop
  endfacet
  facet normal -5.742530e-001 8.186779e-001 4.948685e-016
    outer loop
      vertex   1.740176e+001 4.837761e+001 1.050000e+002
      vertex   1.740176e+001 4.837761e+001 8.500000e+001
      vertex   1.628699e+001 4.759567e+001 1.050000e+002
    endloop
  endfacet
  facet normal -5.742530e-001 8.186779e-001 5.829691e-016
    outer loop
      vertex   1.628699e+001 4.759567e+001 1.250000e+002
      vertex   1.740176e+001 4.837761e+001 1.050000e+002
      vertex   1.628699e+001 4.759567e+001 1.050000e+002
    endloop
  endfacet
  facet normal -5.742530e-001 8.186779e-001 3.928606e-016
    outer loop
      vertex   1.740176e+001 4.837761e+001 8.500000e+001
      vertex   1.628699e+001 4.759567e+001 8.500000e+001
      vertex   1.628699e+001 4.759567e+001 1.050000e+002
    endloop
  endfacet
  facet normal -7.738348e-001 6.333875e-001 3.624851e-016
    outer loop
      vertex   1.628699e+001 4.759567e+001 1.050000e+002
      vertex   1.628699e+001 4.759567e+001 8.500000e+001
      vertex   1.542453e+001 4.654196e+001 1.050000e+002
    endloop
  endfacet
  facet normal -7.738348e-001 6.333875e-001 5.177418e-016
    outer loop
      vertex   1.542453e+001 4.654196e+001 1.250000e+002
      vertex   1.628699e+001 4.759567e+001 1.050000e+002
      vertex   1.542453e+001 4.654196e+001 1.050000e+002
    endloop
  endfacet
  facet normal -7.738348e-001 6.333875e-001 2.937548e-016
    outer loop
      vertex   1.628699e+001 4.759567e+001 8.500000e+001
      vertex   1.542453e+001 4.654196e+001 8.500000e+001
      vertex   1.542453e+001 4.654196e+001 1.050000e+002
    endloop
  endfacet
  facet normal -9.160248e-001 4.011216e-001 2.238664e-016
    outer loop
      vertex   1.542453e+001 4.654196e+001 1.050000e+002
      vertex   1.542453e+001 4.654196e+001 8.500000e+001
      vertex   1.487834e+001 4.529464e+001 1.050000e+002
    endloop
  endfacet
  facet normal -9.160248e-001 4.011216e-001 4.484378e-016
    outer loop
      vertex   1.487834e+001 4.529464e+001 1.250000e+002
      vertex   1.542453e+001 4.654196e+001 1.050000e+002
      vertex   1.487834e+001 4.529464e+001 1.050000e+002
    endloop
  endfacet
  facet normal -0.000000e+000 -0.000000e+000 -1.000000e+000
    outer loop
      vertex   1.628699e+001 4.759567e+001 8.500000e+001
      vertex   2.426902e+001 4.192577e+001 8.500000e+001
      vertex   1.542453e+001 4.654196e+001 8.500000e+001
    endloop
  endfacet
  facet normal 0.000000e+000 -0.000000e+000 -1.000000e+000
    outer loop
      vertex   1.628699e+001 4.759567e+001 8.500000e+001
      vertex   2.464029e+001 4.323584e+001 8.500000e+001
      vertex   2.426902e+001 4.192577e+001 8.500000e+001
    endloop
  endfacet
  facet normal 0.000000e+000 0.000000e+000 -1.000000e+000
    outer loop
      vertex   1.628699e+001 4.759567e+001 8.500000e+001
      vertex   1.740176e+001 4.837761e+001 8.500000e+001
      vertex   2.464029e+001 4.323584e+001 8.500000e+001
    endloop
  endfacet
  facet normal 0.000000e+000 0.000000e+000 -1.000000e+000
    outer loop
      vertex   2.464029e+001 4.323584e+001 8.500000e+001
      vertex   1.740176e+001 4.837761e+001 8.500000e+001
      vertex   2.464433e+001 4.459750e+001 8.500000e+001
    endloop
  endfacet
  facet normal 0.000000e+000 0.000000e+000 -1.000000e+000
    outer loop
      vertex   2.464433e+001 4.459750e+001 8.500000e+001
      vertex   1.740176e+001 4.837761e+001 8.500000e+001
      vertex   1.868615e+001 4.882979e+001 8.500000e+001
    endloop
  endfacet
  facet normal 0.000000e+000 0.000000e+000 -1.000000e+000
    outer loop
      vertex   2.428085e+001 4.590976e+001 8.500000e+001
      vertex   1.868615e+001 4.882979e+001 8.500000e+001
      vertex   2.004492e+001 4.891868e+001 8.500000e+001
    endloop
  endfacet
  facet normal 0.000000e+000 0.000000e+000 -1.000000e+000
    outer loop
      vertex   2.357680e+001 4.707529e+001 8.500000e+001
      vertex   2.004492e+001 4.891868e+001 8.500000e+001
      vertex   2.137727e+001 4.863769e+001 8.500000e+001
    endloop
  endfacet
  facet normal -0.000000e+000 -0.000000e+000 -1.000000e+000
    outer loop
      vertex   2.258441e+001 4.800765e+001 8.500000e+001
      vertex   2.357680e+001 4.707529e+001 8.500000e+001
      vertex   2.137727e+001 4.863769e+001 8.500000e+001
    endloop
  endfacet
  facet normal 0.000000e+000 0.000000e+000 -1.000000e+000
    outer loop
      vertex   2.464433e+001 4.459750e+001 8.500000e+001
      vertex   1.868615e+001 4.882979e+001 8.500000e+001
      vertex   2.428085e+001 4.590976e+001 8.500000e+001
    endloop
  endfacet
  facet normal 0.000000e+000 0.000000e+000 -1.000000e+000
    outer loop
      vertex   2.428085e+001 4.590976e+001 8.500000e+001
      vertex   2.004492e+001 4.891868e+001 8.500000e+001
      vertex   2.357680e+001 4.707529e+001 8.500000e+001
    endloop
  endfacet
  facet normal -0.000000e+000 0.000000e+000 -1.000000e+000
    outer loop
      vertex   2.426902e+001 4.192577e+001 8.500000e+001
      vertex   2.355807e+001 4.076444e+001 8.500000e+001
      vertex   1.542453e+001 4.654196e+001 8.500000e+001
    endloop
  endfacet
  facet normal -0.000000e+000 -0.000000e+000 -1.000000e+000
    outer loop
      vertex   1.542453e+001 4.654196e+001 8.500000e+001
      vertex   2.355807e+001 4.076444e+001 8.500000e+001
      vertex   1.487834e+001 4.529464e+001 8.500000e+001
    endloop
  endfacet
  facet normal 0.000000e+000 -0.000000e+000 -1.000000e+000
    outer loop
      vertex   1.487834e+001 4.529464e+001 8.500000e+001
      vertex   2.355807e+001 4.076444e+001 8.500000e+001
      vertex   2.256016e+001 3.983798e+001 8.500000e+001
    endloop
  endfacet
  facet normal 0.000000e+000 -0.000000e+000 -1.000000e+000
    outer loop
      vertex   1.468892e+001 4.394621e+001 8.500000e+001
      vertex   2.256016e+001 3.983798e+001 8.500000e+001
      vertex   2.134931e+001 3.921512e+001 8.500000e+001
    endloop
  endfacet
  facet normal 0.000000e+000 -0.000000e+000 -1.000000e+000
    outer loop
      vertex   1.487033e+001 4.259669e+001 8.500000e+001
      vertex   2.134931e+001 3.921512e+001 8.500000e+001
      vertex   2.001530e+001 3.894204e+001 8.500000e+001
    endloop
  endfacet
  facet normal -0.000000e+000 -0.000000e+000 -1.000000e+000
    outer loop
      vertex   1.540911e+001 4.134615e+001 8.500000e+001
      vertex   2.001530e+001 3.894204e+001 8.500000e+001
      vertex   1.865709e+001 3.903899e+001 8.500000e+001
    endloop
  endfacet
  facet normal -0.000000e+000 -0.000000e+000 -1.000000e+000
    outer loop
      vertex   1.626530e+001 4.028734e+001 8.500000e+001
      vertex   1.865709e+001 3.903899e+001 8.500000e+001
      vertex   1.737541e+001 3.949879e+001 8.500000e+001
    endloop
  endfacet
  facet normal 0.000000e+000 0.000000e+000 -1.000000e+000
    outer loop
      vertex   1.626530e+001 4.028734e+001 8.500000e+001
      vertex   1.540911e+001 4.134615e+001 8.500000e+001
      vertex   1.865709e+001 3.903899e+001 8.500000e+001
    endloop
  endfacet
  facet normal -0.000000e+000 -0.000000e+000 -1.000000e+000
    outer loop
      vertex   1.487834e+001 4.529464e+001 8.500000e+001
      vertex   2.256016e+001 3.983798e+001 8.500000e+001
      vertex   1.468892e+001 4.394621e+001 8.500000e+001
    endloop
  endfacet
  facet normal -0.000000e+000 -0.000000e+000 -1.000000e+000
    outer loop
      vertex   1.468892e+001 4.394621e+001 8.500000e+001
      vertex   2.134931e+001 3.921512e+001 8.500000e+001
      vertex   1.487033e+001 4.259669e+001 8.500000e+001
    endloop
  endfacet
  facet normal -0.000000e+000 -0.000000e+000 -1.000000e+000
    outer loop
      vertex   1.487033e+001 4.259669e+001 8.500000e+001
      vertex   2.001530e+001 3.894204e+001 8.500000e+001
      vertex   1.540911e+001 4.134615e+001 8.500000e+001
    endloop
  endfacet
  facet normal -8.528735e-001 5.221176e-001 0.000000e+000
    outer loop
      vertex   1.329235e+001 4.784726e+001 1.300000e+002
      vertex   1.329235e+001 4.784726e+001 1.250000e+002
      vertex   -7.592356e+000 1.373232e+001 1.300000e+002
    endloop
  endfacet
  facet normal -8.528735e-001 5.221176e-001 5.684342e-016
    outer loop
      vertex   -7.592356e+000 1.373232e+001 1.300000e+002
      vertex   1.329235e+001 4.784726e+001 1.250000e+002
      vertex   -7.592356e+000 1.373232e+001 1.250000e+002
    endloop
  endfacet
  facet normal -7.890522e-001 6.143262e-001 0.000000e+000
    outer loop
      vertex   1.329235e+001 4.784726e+001 1.250000e+002
      vertex   1.329235e+001 4.784726e+001 1.300000e+002
      vertex   1.432409e+001 4.917244e+001 1.250000e+002
    endloop
  endfacet
  facet normal -7.890522e-001 6.143262e-001 0.000000e+000
    outer loop
      vertex   1.432409e+001 4.917244e+001 1.250000e+002
      vertex   1.329235e+001 4.784726e+001 1.300000e+002
      vertex   1.432409e+001 4.917244e+001 1.300000e+002
    endloop
  endfacet
  facet normal -6.325686e-001 7.745044e-001 0.000000e+000
    outer loop
      vertex   1.562484e+001 5.023482e+001 1.250000e+002
      vertex   1.432409e+001 4.917244e+001 1.300000e+002
      vertex   1.562484e+001 5.023482e+001 1.300000e+002
    endloop
  endfacet
  facet normal -4.443653e-001 8.958457e-001 0.000000e+000
    outer loop
      vertex   1.712939e+001 5.098112e+001 1.250000e+002
      vertex   1.562484e+001 5.023482e+001 1.300000e+002
      vertex   1.712939e+001 5.098112e+001 1.300000e+002
    endloop
  endfacet
  facet normal -2.338798e-001 9.722655e-001 0.000000e+000
    outer loop
      vertex   1.876227e+001 5.137391e+001 1.250000e+002
      vertex   1.712939e+001 5.098112e+001 1.300000e+002
      vertex   1.876227e+001 5.137391e+001 1.300000e+002
    endloop
  endfacet
  facet normal -1.166647e-002 9.999319e-001 0.000000e+000
    outer loop
      vertex   2.044163e+001 5.139351e+001 1.250000e+002
      vertex   1.876227e+001 5.137391e+001 1.300000e+002
      vertex   2.044163e+001 5.139351e+001 1.300000e+002
    endloop
  endfacet
  facet normal 2.111318e-001 9.774576e-001 0.000000e+000
    outer loop
      vertex   2.208324e+001 5.103892e+001 1.250000e+002
      vertex   2.044163e+001 5.139351e+001 1.300000e+002
      vertex   2.208324e+001 5.103892e+001 1.300000e+002
    endloop
  endfacet
  facet normal 4.233431e-001 9.059694e-001 0.000000e+000
    outer loop
      vertex   2.360478e+001 5.032793e+001 1.250000e+002
      vertex   2.208324e+001 5.103892e+001 1.300000e+002
      vertex   2.360478e+001 5.032793e+001 1.300000e+002
    endloop
  endfacet
  facet normal 6.143262e-001 7.890522e-001 0.000000e+000
    outer loop
      vertex   2.492997e+001 4.929618e+001 1.250000e+002
      vertex   2.360478e+001 5.032793e+001 1.300000e+002
      vertex   2.492997e+001 4.929618e+001 1.300000e+002
    endloop
  endfacet
  facet normal 7.745044e-001 6.325686e-001 0.000000e+000
    outer loop
      vertex   2.599235e+001 4.799543e+001 1.250000e+002
      vertex   2.492997e+001 4.929618e+001 1.300000e+002
      vertex   2.599235e+001 4.799543e+001 1.300000e+002
    endloop
  endfacet
  facet normal 8.958457e-001 4.443653e-001 0.000000e+000
    outer loop
      vertex   2.673864e+001 4.649089e+001 1.250000e+002
      vertex   2.599235e+001 4.799543e+001 1.300000e+002
      vertex   2.673864e+001 4.649089e+001 1.300000e+002
    endloop
  endfacet
  facet normal 9.722655e-001 2.338798e-001 0.000000e+000
    outer loop
      vertex   2.713144e+001 4.485800e+001 1.250000e+002
      vertex   2.673864e+001 4.649089e+001 1.300000e+002
      vertex   2.713144e+001 4.485800e+001 1.300000e+002
    endloop
  endfacet
  facet normal 9.999319e-001 1.166647e-002 0.000000e+000
    outer loop
      vertex   2.715103e+001 4.317865e+001 1.250000e+002
      vertex   2.713144e+001 4.485800e+001 1.300000e+002
      vertex   2.715103e+001 4.317865e+001 1.300000e+002
    endloop
  endfacet
  facet normal 9.774576e-001 -2.111318e-001 0.000000e+000
    outer loop
      vertex   2.679644e+001 4.153704e+001 1.250000e+002
      vertex   2.715103e+001 4.317865e+001 1.300000e+002
      vertex   2.679644e+001 4.153704e+001 1.300000e+002
    endloop
  endfacet
  facet normal 9.059694e-001 -4.233431e-001 0.000000e+000
    outer loop
      vertex   2.608545e+001 4.001549e+001 1.250000e+002
      vertex   2.679644e+001 4.153704e+001 1.300000e+002
      vertex   2.608545e+001 4.001549e+001 1.300000e+002
    endloop
  endfacet
  facet normal 9.059694e-001 -4.233431e-001 0.000000e+000
    outer loop
      vertex   2.608545e+001 4.001549e+001 1.250000e+002
      vertex   2.679644e+001 4.153704e+001 1.250000e+002
      vertex   2.679644e+001 4.153704e+001 1.300000e+002
    endloop
  endfacet
  facet normal -6.325686e-001 7.745044e-001 0.000000e+000
    outer loop
      vertex   1.432409e+001 4.917244e+001 1.250000e+002
      vertex   1.432409e+001 4.917244e+001 1.300000e+002
      vertex   1.562484e+001 5.023482e+001 1.250000e+002
    endloop
  endfacet
  facet normal -4.443653e-001 8.958457e-001 0.000000e+000
    outer loop
      vertex   1.562484e+001 5.023482e+001 1.250000e+002
      vertex   1.562484e+001 5.023482e+001 1.300000e+002
      vertex   1.712939e+001 5.098112e+001 1.250000e+002
    endloop
  endfacet
  facet normal -2.338798e-001 9.722655e-001 0.000000e+000
    outer loop
      vertex   1.712939e+001 5.098112e+001 1.250000e+002
      vertex   1.712939e+001 5.098112e+001 1.300000e+002
      vertex   1.876227e+001 5.137391e+001 1.250000e+002
    endloop
  endfacet
  facet normal -1.166647e-002 9.999319e-001 0.000000e+000
    outer loop
      vertex   1.876227e+001 5.137391e+001 1.250000e+002
      vertex   1.876227e+001 5.137391e+001 1.300000e+002
      vertex   2.044163e+001 5.139351e+001 1.250000e+002
    endloop
  endfacet
  facet normal 2.111318e-001 9.774576e-001 -0.000000e+000
    outer loop
      vertex   2.044163e+001 5.139351e+001 1.250000e+002
      vertex   2.044163e+001 5.139351e+001 1.300000e+002
      vertex   2.208324e+001 5.103892e+001 1.250000e+002
    endloop
  endfacet
  facet normal 4.233431e-001 9.059694e-001 -0.000000e+000
    outer loop
      vertex   2.208324e+001 5.103892e+001 1.250000e+002
      vertex   2.208324e+001 5.103892e+001 1.300000e+002
      vertex   2.360478e+001 5.032793e+001 1.250000e+002
    endloop
  endfacet
  facet normal 6.143262e-001 7.890522e-001 -0.000000e+000
    outer loop
      vertex   2.360478e+001 5.032793e+001 1.250000e+002
      vertex   2.360478e+001 5.032793e+001 1.300000e+002
      vertex   2.492997e+001 4.929618e+001 1.250000e+002
    endloop
  endfacet
  facet normal 7.745044e-001 6.325686e-001 -0.000000e+000
    outer loop
      vertex   2.492997e+001 4.929618e+001 1.250000e+002
      vertex   2.492997e+001 4.929618e+001 1.300000e+002
      vertex   2.599235e+001 4.799543e+001 1.250000e+002
    endloop
  endfacet
  facet normal 8.958457e-001 4.443653e-001 -0.000000e+000
    outer loop
      vertex   2.599235e+001 4.799543e+001 1.250000e+002
      vertex   2.599235e+001 4.799543e+001 1.300000e+002
      vertex   2.673864e+001 4.649089e+001 1.250000e+002
    endloop
  endfacet
  facet normal 9.722655e-001 2.338798e-001 -0.000000e+000
    outer loop
      vertex   2.673864e+001 4.649089e+001 1.250000e+002
      vertex   2.673864e+001 4.649089e+001 1.300000e+002
      vertex   2.713144e+001 4.485800e+001 1.250000e+002
    endloop
  endfacet
  facet normal 9.999319e-001 1.166647e-002 -0.000000e+000
    outer loop
      vertex   2.713144e+001 4.485800e+001 1.250000e+002
      vertex   2.713144e+001 4.485800e+001 1.300000e+002
      vertex   2.715103e+001 4.317865e+001 1.250000e+002
    endloop
  endfacet
  facet normal 9.774576e-001 -2.111318e-001 0.000000e+000
    outer loop
      vertex   2.715103e+001 4.317865e+001 1.250000e+002
      vertex   2.715103e+001 4.317865e+001 1.300000e+002
      vertex   2.679644e+001 4.153704e+001 1.250000e+002
    endloop
  endfacet
  facet normal 8.528735e-001 -5.221176e-001 -2.782401e-016
    outer loop
      vertex   5.200747e+000 5.900552e+000 1.300000e+002
      vertex   5.200747e+000 5.900552e+000 1.250000e+002
      vertex   2.608545e+001 4.001549e+001 1.300000e+002
    endloop
  endfacet
  facet normal 8.528735e-001 -5.221176e-001 0.000000e+000
    outer loop
      vertex   2.608545e+001 4.001549e+001 1.300000e+002
      vertex   5.200747e+000 5.900552e+000 1.250000e+002
      vertex   2.608545e+001 4.001549e+001 1.250000e+002
    endloop
  endfacet
  facet normal 7.890522e-001 -6.143262e-001 -3.273787e-016
    outer loop
      vertex   5.200747e+000 5.900552e+000 1.250000e+002
      vertex   5.200747e+000 5.900552e+000 1.300000e+002
      vertex   4.169007e+000 4.575364e+000 1.250000e+002
    endloop
  endfacet
  facet normal 7.890522e-001 -6.143262e-001 -4.495186e-016
    outer loop
      vertex   4.169007e+000 4.575364e+000 1.250000e+002
      vertex   5.200747e+000 5.900552e+000 1.300000e+002
      vertex   4.169007e+000 4.575364e+000 1.300000e+002
    endloop
  endfacet
  facet normal 6.325686e-001 -7.745044e-001 -5.552876e-016
    outer loop
      vertex   2.868252e+000 3.512986e+000 1.250000e+002
      vertex   4.169007e+000 4.575364e+000 1.300000e+002
      vertex   2.868252e+000 3.512986e+000 1.300000e+002
    endloop
  endfacet
  facet normal 4.443653e-001 -8.958457e-001 -6.346144e-016
    outer loop
      vertex   1.363709e+000 2.766689e+000 1.250000e+002
      vertex   2.868252e+000 3.512986e+000 1.300000e+002
      vertex   1.363709e+000 2.766689e+000 1.300000e+002
    endloop
  endfacet
  facet normal 2.338798e-001 -9.722655e-001 -6.874990e-016
    outer loop
      vertex   -2.691794e-001 2.373896e+000 1.250000e+002
      vertex   1.363709e+000 2.766689e+000 1.300000e+002
      vertex   -2.691794e-001 2.373896e+000 1.300000e+002
    endloop
  endfacet
  facet normal 1.166647e-002 -9.999319e-001 -7.106360e-016
    outer loop
      vertex   -1.948532e+000 2.354302e+000 1.250000e+002
      vertex   -2.691794e-001 2.373896e+000 1.300000e+002
      vertex   -1.948532e+000 2.354302e+000 1.300000e+002
    endloop
  endfacet
  facet normal -2.111318e-001 -9.774576e-001 -7.007201e-016
    outer loop
      vertex   -3.590140e+000 2.708891e+000 1.250000e+002
      vertex   -1.948532e+000 2.354302e+000 1.300000e+002
      vertex   -3.590140e+000 2.708891e+000 1.300000e+002
    endloop
  endfacet
  facet normal -4.233431e-001 -9.059694e-001 -6.610567e-016
    outer loop
      vertex   -5.111686e+000 3.419882e+000 1.250000e+002
      vertex   -3.590140e+000 2.708891e+000 1.300000e+002
      vertex   -5.111686e+000 3.419882e+000 1.300000e+002
    endloop
  endfacet
  facet normal -6.143262e-001 -7.890522e-001 -5.552876e-016
    outer loop
      vertex   -6.436873e+000 4.451623e+000 1.250000e+002
      vertex   -5.111686e+000 3.419882e+000 1.300000e+002
      vertex   -6.436873e+000 4.451623e+000 1.300000e+002
    endloop
  endfacet
  facet normal -7.745044e-001 -6.325686e-001 -4.495186e-016
    outer loop
      vertex   -7.499251e+000 5.752377e+000 1.250000e+002
      vertex   -6.436873e+000 4.451623e+000 1.300000e+002
      vertex   -7.499251e+000 5.752377e+000 1.300000e+002
    endloop
  endfacet
  facet normal -8.958457e-001 -4.443653e-001 -3.173072e-016
    outer loop
      vertex   -8.245548e+000 7.256921e+000 1.250000e+002
      vertex   -7.499251e+000 5.752377e+000 1.300000e+002
      vertex   -8.245548e+000 7.256921e+000 1.300000e+002
    endloop
  endfacet
  facet normal -9.722655e-001 -2.338798e-001 -1.718747e-016
    outer loop
      vertex   -8.638342e+000 8.889809e+000 1.250000e+002
      vertex   -8.245548e+000 7.256921e+000 1.300000e+002
      vertex   -8.638342e+000 8.889809e+000 1.300000e+002
    endloop
  endfacet
  facet normal -9.999319e-001 -1.166647e-002 -8.263209e-018
    outer loop
      vertex   -8.657935e+000 1.056916e+001 1.250000e+002
      vertex   -8.638342e+000 8.889809e+000 1.300000e+002
      vertex   -8.657935e+000 1.056916e+001 1.300000e+002
    endloop
  endfacet
  facet normal -9.774576e-001 2.111318e-001 1.454325e-016
    outer loop
      vertex   -8.303346e+000 1.221077e+001 1.250000e+002
      vertex   -8.657935e+000 1.056916e+001 1.300000e+002
      vertex   -8.303346e+000 1.221077e+001 1.300000e+002
    endloop
  endfacet
  facet normal -9.059694e-001 4.233431e-001 3.173072e-016
    outer loop
      vertex   -7.592356e+000 1.373232e+001 1.250000e+002
      vertex   -8.303346e+000 1.221077e+001 1.300000e+002
      vertex   -7.592356e+000 1.373232e+001 1.300000e+002
    endloop
  endfacet
  facet normal -9.059694e-001 4.233431e-001 3.008034e-016
    outer loop
      vertex   -7.592356e+000 1.373232e+001 1.250000e+002
      vertex   -8.303346e+000 1.221077e+001 1.250000e+002
      vertex   -8.303346e+000 1.221077e+001 1.300000e+002
    endloop
  endfacet
  facet normal 6.325686e-001 -7.745044e-001 -5.503184e-016
    outer loop
      vertex   4.169007e+000 4.575364e+000 1.250000e+002
      vertex   4.169007e+000 4.575364e+000 1.300000e+002
      vertex   2.868252e+000 3.512986e+000 1.250000e+002
    endloop
  endfacet
  facet normal 4.443653e-001 -8.958457e-001 -6.365366e-016
    outer loop
      vertex   2.868252e+000 3.512986e+000 1.250000e+002
      vertex   2.868252e+000 3.512986e+000 1.300000e+002
      vertex   1.363709e+000 2.766689e+000 1.250000e+002
    endloop
  endfacet
  facet normal 2.338798e-001 -9.722655e-001 -6.908362e-016
    outer loop
      vertex   1.363709e+000 2.766689e+000 1.250000e+002
      vertex   1.363709e+000 2.766689e+000 1.300000e+002
      vertex   -2.691794e-001 2.373896e+000 1.250000e+002
    endloop
  endfacet
  facet normal 1.166647e-002 -9.999319e-001 -7.104944e-016
    outer loop
      vertex   -2.691794e-001 2.373896e+000 1.250000e+002
      vertex   -2.691794e-001 2.373896e+000 1.300000e+002
      vertex   -1.948532e+000 2.354302e+000 1.250000e+002
    endloop
  endfacet
  facet normal -2.111318e-001 -9.774576e-001 -6.945254e-016
    outer loop
      vertex   -1.948532e+000 2.354302e+000 1.250000e+002
      vertex   -1.948532e+000 2.354302e+000 1.300000e+002
      vertex   -3.590140e+000 2.708891e+000 1.250000e+002
    endloop
  endfacet
  facet normal -4.233431e-001 -9.059694e-001 -6.437300e-016
    outer loop
      vertex   -3.590140e+000 2.708891e+000 1.250000e+002
      vertex   -3.590140e+000 2.708891e+000 1.300000e+002
      vertex   -5.111686e+000 3.419882e+000 1.250000e+002
    endloop
  endfacet
  facet normal -6.143262e-001 -7.890522e-001 -5.606553e-016
    outer loop
      vertex   -5.111686e+000 3.419882e+000 1.250000e+002
      vertex   -5.111686e+000 3.419882e+000 1.300000e+002
      vertex   -6.436873e+000 4.451623e+000 1.250000e+002
    endloop
  endfacet
  facet normal -7.745044e-001 -6.325686e-001 -4.494670e-016
    outer loop
      vertex   -6.436873e+000 4.451623e+000 1.250000e+002
      vertex   -6.436873e+000 4.451623e+000 1.300000e+002
      vertex   -7.499251e+000 5.752377e+000 1.250000e+002
    endloop
  endfacet
  facet normal -8.958457e-001 -4.443653e-001 -3.157406e-016
    outer loop
      vertex   -7.499251e+000 5.752377e+000 1.250000e+002
      vertex   -7.499251e+000 5.752377e+000 1.300000e+002
      vertex   -8.245548e+000 7.256921e+000 1.250000e+002
    endloop
  endfacet
  facet normal -9.722655e-001 -2.338798e-001 -1.661816e-016
    outer loop
      vertex   -8.245548e+000 7.256921e+000 1.250000e+002
      vertex   -8.245548e+000 7.256921e+000 1.300000e+002
      vertex   -8.638342e+000 8.889809e+000 1.250000e+002
    endloop
  endfacet
  facet normal -9.999319e-001 -1.166647e-002 -8.289525e-018
    outer loop
      vertex   -8.638342e+000 8.889809e+000 1.250000e+002
      vertex   -8.638342e+000 8.889809e+000 1.300000e+002
      vertex   -8.657935e+000 1.056916e+001 1.250000e+002
    endloop
  endfacet
  facet normal -9.774576e-001 2.111318e-001 1.500182e-016
    outer loop
      vertex   -8.657935e+000 1.056916e+001 1.250000e+002
      vertex   -8.657935e+000 1.056916e+001 1.300000e+002
      vertex   -8.303346e+000 1.221077e+001 1.250000e+002
    endloop
  endfacet
  facet normal 0.000000e+000 0.000000e+000 -1.000000e+000
    outer loop
      vertex   1.487834e+001 4.529464e+001 1.250000e+002
      vertex   1.329235e+001 4.784726e+001 1.250000e+002
      vertex   1.542453e+001 4.654196e+001 1.250000e+002
    endloop
  endfacet
  facet normal -0.000000e+000 0.000000e+000 -1.000000e+000
    outer loop
      vertex   1.487834e+001 4.529464e+001 1.250000e+002
      vertex   1.468892e+001 4.394621e+001 1.250000e+002
      vertex   1.329235e+001 4.784726e+001 1.250000e+002
    endloop
  endfacet
  facet normal 4.293588e-016 1.537105e-016 -1.000000e+000
    outer loop
      vertex   1.329235e+001 4.784726e+001 1.250000e+002
      vertex   1.468892e+001 4.394621e+001 1.250000e+002
      vertex   -7.592356e+000 1.373232e+001 1.250000e+002
    endloop
  endfacet
  facet normal 5.394598e-016 7.251633e-017 -1.000000e+000
    outer loop
      vertex   -7.592356e+000 1.373232e+001 1.250000e+002
      vertex   1.468892e+001 4.394621e+001 1.250000e+002
      vertex   1.487033e+001 4.259669e+001 1.250000e+002
    endloop
  endfacet
  facet normal 4.072047e-016 1.754392e-016 -1.000000e+000
    outer loop
      vertex   1.540911e+001 4.134615e+001 1.250000e+002
      vertex   -7.592356e+000 1.373232e+001 1.250000e+002
      vertex   1.487033e+001 4.259669e+001 1.250000e+002
    endloop
  endfacet
  facet normal -2.294733e-015 2.426070e-015 -1.000000e+000
    outer loop
      vertex   1.540911e+001 4.134615e+001 1.250000e+002
      vertex   -8.245548e+000 7.256921e+000 1.250000e+002
      vertex   -7.592356e+000 1.373232e+001 1.250000e+002
    endloop
  endfacet
  facet normal 7.006651e-016 3.475501e-016 -1.000000e+000
    outer loop
      vertex   1.540911e+001 4.134615e+001 1.250000e+002
      vertex   -7.499251e+000 5.752377e+000 1.250000e+002
      vertex   -8.245548e+000 7.256921e+000 1.250000e+002
    endloop
  endfacet
  facet normal 5.498397e-016 4.446223e-016 -1.000000e+000
    outer loop
      vertex   1.540911e+001 4.134615e+001 1.250000e+002
      vertex   1.626530e+001 4.028734e+001 1.250000e+002
      vertex   -7.499251e+000 5.752377e+000 1.250000e+002
    endloop
  endfacet
  facet normal 5.468802e-016 4.466588e-016 -1.000000e+000
    outer loop
      vertex   -7.499251e+000 5.752377e+000 1.250000e+002
      vertex   1.626530e+001 4.028734e+001 1.250000e+002
      vertex   -6.436873e+000 4.451623e+000 1.250000e+002
    endloop
  endfacet
  facet normal 4.135255e-016 5.311400e-016 -1.000000e+000
    outer loop
      vertex   -6.436873e+000 4.451623e+000 1.250000e+002
      vertex   1.626530e+001 4.028734e+001 1.250000e+002
      vertex   -5.111686e+000 3.419882e+000 1.250000e+002
    endloop
  endfacet
  facet normal 3.878581e-016 5.460227e-016 -1.000000e+000
    outer loop
      vertex   -5.111686e+000 3.419882e+000 1.250000e+002
      vertex   1.626530e+001 4.028734e+001 1.250000e+002
      vertex   1.737541e+001 3.949879e+001 1.250000e+002
    endloop
  endfacet
  facet normal 2.301040e-016 6.414111e-016 -1.000000e+000
    outer loop
      vertex   -3.590140e+000 2.708891e+000 1.250000e+002
      vertex   1.737541e+001 3.949879e+001 1.250000e+002
      vertex   1.865709e+001 3.903899e+001 1.250000e+002
    endloop
  endfacet
  facet normal -9.098919e-018 7.798675e-016 -1.000000e+000
    outer loop
      vertex   -1.948532e+000 2.354302e+000 1.250000e+002
      vertex   1.865709e+001 3.903899e+001 1.250000e+002
      vertex   -2.691794e-001 2.373896e+000 1.250000e+002
    endloop
  endfacet
  facet normal 1.492413e-016 6.909285e-016 -1.000000e+000
    outer loop
      vertex   -1.948532e+000 2.354302e+000 1.250000e+002
      vertex   -3.590140e+000 2.708891e+000 1.250000e+002
      vertex   1.865709e+001 3.903899e+001 1.250000e+002
    endloop
  endfacet
  facet normal 2.850801e-016 6.100817e-016 -1.000000e+000
    outer loop
      vertex   -5.111686e+000 3.419882e+000 1.250000e+002
      vertex   1.737541e+001 3.949879e+001 1.250000e+002
      vertex   -3.590140e+000 2.708891e+000 1.250000e+002
    endloop
  endfacet
  facet normal 5.336855e-017 7.476222e-016 -1.000000e+000
    outer loop
      vertex   1.865709e+001 3.903899e+001 1.250000e+002
      vertex   2.001530e+001 3.894204e+001 1.250000e+002
      vertex   -2.691794e-001 2.373896e+000 1.250000e+002
    endloop
  endfacet
  facet normal -7.800967e-016 1.209948e-015 -1.000000e+000
    outer loop
      vertex   -2.691794e-001 2.373896e+000 1.250000e+002
      vertex   2.001530e+001 3.894204e+001 1.250000e+002
      vertex   5.200747e+000 5.900552e+000 1.250000e+002
    endloop
  endfacet
  facet normal 0.000000e+000 -0.000000e+000 -1.000000e+000
    outer loop
      vertex   1.363709e+000 2.766689e+000 1.250000e+002
      vertex   5.200747e+000 5.900552e+000 1.250000e+002
      vertex   2.868252e+000 3.512986e+000 1.250000e+002
    endloop
  endfacet
  facet normal -0.000000e+000 0.000000e+000 -1.000000e+000
    outer loop
      vertex   1.363709e+000 2.766689e+000 1.250000e+002
      vertex   -2.691794e-001 2.373896e+000 1.250000e+002
      vertex   5.200747e+000 5.900552e+000 1.250000e+002
    endloop
  endfacet
  facet normal -1.938814e-016 9.471116e-016 -1.000000e+000
    outer loop
      vertex   2.001530e+001 3.894204e+001 1.250000e+002
      vertex   2.134931e+001 3.921512e+001 1.250000e+002
      vertex   5.200747e+000 5.900552e+000 1.250000e+002
    endloop
  endfacet
  facet normal -5.846225e-016 1.136515e-015 -1.000000e+000
    outer loop
      vertex   5.200747e+000 5.900552e+000 1.250000e+002
      vertex   2.134931e+001 3.921512e+001 1.250000e+002
      vertex   2.256016e+001 3.983798e+001 1.250000e+002
    endloop
  endfacet
  facet normal -4.262292e-015 4.591041e-015 -1.000000e+000
    outer loop
      vertex   2.608545e+001 4.001549e+001 1.250000e+002
      vertex   2.256016e+001 3.983798e+001 1.250000e+002
      vertex   2.355807e+001 4.076444e+001 1.250000e+002
    endloop
  endfacet
  facet normal -0.000000e+000 0.000000e+000 -1.000000e+000
    outer loop
      vertex   2.679644e+001 4.153704e+001 1.250000e+002
      vertex   2.355807e+001 4.076444e+001 1.250000e+002
      vertex   2.715103e+001 4.317865e+001 1.250000e+002
    endloop
  endfacet
  facet normal -2.507833e-015 1.051161e-014 -1.000000e+000
    outer loop
      vertex   2.679644e+001 4.153704e+001 1.250000e+002
      vertex   2.608545e+001 4.001549e+001 1.250000e+002
      vertex   2.355807e+001 4.076444e+001 1.250000e+002
    endloop
  endfacet
  facet normal -4.180975e-015 2.976094e-015 -1.000000e+000
    outer loop
      vertex   5.200747e+000 5.900552e+000 1.250000e+002
      vertex   2.256016e+001 3.983798e+001 1.250000e+002
      vertex   2.608545e+001 4.001549e+001 1.250000e+002
    endloop
  endfacet
  facet normal 0.000000e+000 0.000000e+000 -1.000000e+000
    outer loop
      vertex   2.355807e+001 4.076444e+001 1.250000e+002
      vertex   2.426902e+001 4.192577e+001 1.250000e+002
      vertex   2.715103e+001 4.317865e+001 1.250000e+002
    endloop
  endfacet
  facet normal -0.000000e+000 0.000000e+000 -1.000000e+000
    outer loop
      vertex   2.715103e+001 4.317865e+001 1.250000e+002
      vertex   2.426902e+001 4.192577e+001 1.250000e+002
      vertex   2.713144e+001 4.485800e+001 1.250000e+002
    endloop
  endfacet
  facet normal -0.000000e+000 0.000000e+000 -1.000000e+000
    outer loop
      vertex   2.713144e+001 4.485800e+001 1.250000e+002
      vertex   2.426902e+001 4.192577e+001 1.250000e+002
      vertex   2.464029e+001 4.323584e+001 1.250000e+002
    endloop
  endfacet
  facet normal -0.000000e+000 0.000000e+000 -1.000000e+000
    outer loop
      vertex   2.673864e+001 4.649089e+001 1.250000e+002
      vertex   2.464029e+001 4.323584e+001 1.250000e+002
      vertex   2.464433e+001 4.459750e+001 1.250000e+002
    endloop
  endfacet
  facet normal -0.000000e+000 0.000000e+000 -1.000000e+000
    outer loop
      vertex   2.599235e+001 4.799543e+001 1.250000e+002
      vertex   2.464433e+001 4.459750e+001 1.250000e+002
      vertex   2.428085e+001 4.590976e+001 1.250000e+002
    endloop
  endfacet
  facet normal -0.000000e+000 0.000000e+000 -1.000000e+000
    outer loop
      vertex   2.492997e+001 4.929618e+001 1.250000e+002
      vertex   2.428085e+001 4.590976e+001 1.250000e+002
      vertex   2.357680e+001 4.707529e+001 1.250000e+002
    endloop
  endfacet
  facet normal 0.000000e+000 -0.000000e+000 -1.000000e+000
    outer loop
      vertex   2.258441e+001 4.800765e+001 1.250000e+002
      vertex   2.492997e+001 4.929618e+001 1.250000e+002
      vertex   2.357680e+001 4.707529e+001 1.250000e+002
    endloop
  endfacet
  facet normal 0.000000e+000 0.000000e+000 -1.000000e+000
    outer loop
      vertex   2.258441e+001 4.800765e+001 1.250000e+002
      vertex   2.360478e+001 5.032793e+001 1.250000e+002
      vertex   2.492997e+001 4.929618e+001 1.250000e+002
    endloop
  endfacet
  facet normal 0.000000e+000 0.000000e+000 -1.000000e+000
    outer loop
      vertex   2.258441e+001 4.800765e+001 1.250000e+002
      vertex   2.137727e+001 4.863769e+001 1.250000e+002
      vertex   2.360478e+001 5.032793e+001 1.250000e+002
    endloop
  endfacet
  facet normal -0.000000e+000 0.000000e+000 -1.000000e+000
    outer loop
      vertex   2.360478e+001 5.032793e+001 1.250000e+002
      vertex   2.137727e+001 4.863769e+001 1.250000e+002
      vertex   2.208324e+001 5.103892e+001 1.250000e+002
    endloop
  endfacet
  facet normal -0.000000e+000 0.000000e+000 -1.000000e+000
    outer loop
      vertex   2.208324e+001 5.103892e+001 1.250000e+002
      vertex   2.137727e+001 4.863769e+001 1.250000e+002
      vertex   2.004492e+001 4.891868e+001 1.250000e+002
    endloop
  endfacet
  facet normal 0.000000e+000 0.000000e+000 -1.000000e+000
    outer loop
      vertex   2.044163e+001 5.139351e+001 1.250000e+002
      vertex   2.004492e+001 4.891868e+001 1.250000e+002
      vertex   1.868615e+001 4.882979e+001 1.250000e+002
    endloop
  endfacet
  facet normal 0.000000e+000 0.000000e+000 -1.000000e+000
    outer loop
      vertex   1.876227e+001 5.137391e+001 1.250000e+002
      vertex   1.868615e+001 4.882979e+001 1.250000e+002
      vertex   1.740176e+001 4.837761e+001 1.250000e+002
    endloop
  endfacet
  facet normal 0.000000e+000 -0.000000e+000 -1.000000e+000
    outer loop
      vertex   1.628699e+001 4.759567e+001 1.250000e+002
      vertex   1.876227e+001 5.137391e+001 1.250000e+002
      vertex   1.740176e+001 4.837761e+001 1.250000e+002
    endloop
  endfacet
  facet normal 0.000000e+000 0.000000e+000 -1.000000e+000
    outer loop
      vertex   1.628699e+001 4.759567e+001 1.250000e+002
      vertex   1.712939e+001 5.098112e+001 1.250000e+002
      vertex   1.876227e+001 5.137391e+001 1.250000e+002
    endloop
  endfacet
  facet normal -0.000000e+000 0.000000e+000 -1.000000e+000
    outer loop
      vertex   1.628699e+001 4.759567e+001 1.250000e+002
      vertex   1.542453e+001 4.654196e+001 1.250000e+002
      vertex   1.712939e+001 5.098112e+001 1.250000e+002
    endloop
  endfacet
  facet normal -0.000000e+000 0.000000e+000 -1.000000e+000
    outer loop
      vertex   1.712939e+001 5.098112e+001 1.250000e+002
      vertex   1.542453e+001 4.654196e+001 1.250000e+002
      vertex   1.562484e+001 5.023482e+001 1.250000e+002
    endloop
  endfacet
  facet normal -0.000000e+000 0.000000e+000 -1.000000e+000
    outer loop
      vertex   1.562484e+001 5.023482e+001 1.250000e+002
      vertex   1.542453e+001 4.654196e+001 1.250000e+002
      vertex   1.432409e+001 4.917244e+001 1.250000e+002
    endloop
  endfacet
  facet normal -0.000000e+000 -0.000000e+000 -1.000000e+000
    outer loop
      vertex   1.432409e+001 4.917244e+001 1.250000e+002
      vertex   1.542453e+001 4.654196e+001 1.250000e+002
      vertex   1.329235e+001 4.784726e+001 1.250000e+002
    endloop
  endfacet
  facet normal -0.000000e+000 0.000000e+000 -1.000000e+000
    outer loop
      vertex   2.713144e+001 4.485800e+001 1.250000e+002
      vertex   2.464029e+001 4.323584e+001 1.250000e+002
      vertex   2.673864e+001 4.649089e+001 1.250000e+002
    endloop
  endfacet
  facet normal -0.000000e+000 0.000000e+000 -1.000000e+000
    outer loop
      vertex   2.673864e+001 4.649089e+001 1.250000e+002
      vertex   2.464433e+001 4.459750e+001 1.250000e+002
      vertex   2.599235e+001 4.799543e+001 1.250000e+002
    endloop
  endfacet
  facet normal -0.000000e+000 0.000000e+000 -1.000000e+000
    outer loop
      vertex   2.599235e+001 4.799543e+001 1.250000e+002
      vertex   2.428085e+001 4.590976e+001 1.250000e+002
      vertex   2.492997e+001 4.929618e+001 1.250000e+002
    endloop
  endfacet
  facet normal -0.000000e+000 0.000000e+000 -1.000000e+000
    outer loop
      vertex   2.208324e+001 5.103892e+001 1.250000e+002
      vertex   2.004492e+001 4.891868e+001 1.250000e+002
      vertex   2.044163e+001 5.139351e+001 1.250000e+002
    endloop
  endfacet
  facet normal -0.000000e+000 0.000000e+000 -1.000000e+000
    outer loop
      vertex   2.044163e+001 5.139351e+001 1.250000e+002
      vertex   1.868615e+001 4.882979e+001 1.250000e+002
      vertex   1.876227e+001 5.137391e+001 1.250000e+002
    endloop
  endfacet
  facet normal 0.000000e+000 0.000000e+000 -1.000000e+000
    outer loop
      vertex   5.200747e+000 5.900552e+000 1.250000e+002
      vertex   4.169007e+000 4.575364e+000 1.250000e+002
      vertex   2.868252e+000 3.512986e+000 1.250000e+002
    endloop
  endfacet
  facet normal 6.427756e-015 1.546205e-015 -1.000000e+000
    outer loop
      vertex   -8.245548e+000 7.256921e+000 1.250000e+002
      vertex   -8.638342e+000 8.889809e+000 1.250000e+002
      vertex   -7.592356e+000 1.373232e+001 1.250000e+002
    endloop
  endfacet
  facet normal 1.288984e-014 1.503891e-016 -1.000000e+000
    outer loop
      vertex   -7.592356e+000 1.373232e+001 1.250000e+002
      vertex   -8.638342e+000 8.889809e+000 1.250000e+002
      vertex   -8.657935e+000 1.056916e+001 1.250000e+002
    endloop
  endfacet
  facet normal 3.716856e-014 -8.028446e-015 -1.000000e+000
    outer loop
      vertex   -8.303346e+000 1.221077e+001 1.250000e+002
      vertex   -7.592356e+000 1.373232e+001 1.250000e+002
      vertex   -8.657935e+000 1.056916e+001 1.250000e+002
    endloop
  endfacet
  facet normal 8.873915e-016 -1.376365e-015 1.000000e+000
    outer loop
      vertex   -7.592356e+000 1.373232e+001 1.300000e+002
      vertex   1.876227e+001 5.137391e+001 1.300000e+002
      vertex   1.329235e+001 4.784726e+001 1.300000e+002
    endloop
  endfacet
  facet normal 8.882053e-018 -7.612800e-016 1.000000e+000
    outer loop
      vertex   -7.592356e+000 1.373232e+001 1.300000e+002
      vertex   2.044163e+001 5.139351e+001 1.300000e+002
      vertex   1.876227e+001 5.137391e+001 1.300000e+002
    endloop
  endfacet
  facet normal -1.172755e-015 1.182994e-016 1.000000e+000
    outer loop
      vertex   -7.592356e+000 1.373232e+001 1.300000e+002
      vertex   -8.245548e+000 7.256921e+000 1.300000e+002
      vertex   2.044163e+001 5.139351e+001 1.300000e+002
    endloop
  endfacet
  facet normal 0.000000e+000 0.000000e+000 1.000000e+000
    outer loop
      vertex   -7.592356e+000 1.373232e+001 1.300000e+002
      vertex   -8.638342e+000 8.889809e+000 1.300000e+002
      vertex   -8.245548e+000 7.256921e+000 1.300000e+002
    endloop
  endfacet
  facet normal 0.000000e+000 0.000000e+000 1.000000e+000
    outer loop
      vertex   -7.592356e+000 1.373232e+001 1.300000e+002
      vertex   -8.657935e+000 1.056916e+001 1.300000e+002
      vertex   -8.638342e+000 8.889809e+000 1.300000e+002
    endloop
  endfacet
  facet normal 0.000000e+000 0.000000e+000 1.000000e+000
    outer loop
      vertex   -7.592356e+000 1.373232e+001 1.300000e+002
      vertex   -8.303346e+000 1.221077e+001 1.300000e+002
      vertex   -8.657935e+000 1.056916e+001 1.300000e+002
    endloop
  endfacet
  facet normal -5.619138e-016 -2.787255e-016 1.000000e+000
    outer loop
      vertex   -8.245548e+000 7.256921e+000 1.300000e+002
      vertex   -7.499251e+000 5.752377e+000 1.300000e+002
      vertex   2.044163e+001 5.139351e+001 1.300000e+002
    endloop
  endfacet
  facet normal -1.187993e-016 -5.499941e-016 1.000000e+000
    outer loop
      vertex   2.044163e+001 5.139351e+001 1.300000e+002
      vertex   -7.499251e+000 5.752377e+000 1.300000e+002
      vertex   2.208324e+001 5.103892e+001 1.300000e+002
    endloop
  endfacet
  facet normal -4.269459e-016 -3.487038e-016 1.000000e+000
    outer loop
      vertex   2.208324e+001 5.103892e+001 1.300000e+002
      vertex   -7.499251e+000 5.752377e+000 1.300000e+002
      vertex   -6.436873e+000 4.451623e+000 1.300000e+002
    endloop
  endfacet
  facet normal -3.194669e-016 -4.103294e-016 1.000000e+000
    outer loop
      vertex   2.360478e+001 5.032793e+001 1.300000e+002
      vertex   -6.436873e+000 4.451623e+000 1.300000e+002
      vertex   -5.111686e+000 3.419882e+000 1.300000e+002
    endloop
  endfacet
  facet normal -2.201503e-016 -4.711296e-016 1.000000e+000
    outer loop
      vertex   -3.590140e+000 2.708891e+000 1.300000e+002
      vertex   2.360478e+001 5.032793e+001 1.300000e+002
      vertex   -5.111686e+000 3.419882e+000 1.300000e+002
    endloop
  endfacet
  facet normal -3.216664e-016 -4.131545e-016 1.000000e+000
    outer loop
      vertex   -3.590140e+000 2.708891e+000 1.300000e+002
      vertex   2.492997e+001 4.929618e+001 1.300000e+002
      vertex   2.360478e+001 5.032793e+001 1.300000e+002
    endloop
  endfacet
  facet normal -1.163865e-016 -5.388240e-016 1.000000e+000
    outer loop
      vertex   -3.590140e+000 2.708891e+000 1.300000e+002
      vertex   -1.948532e+000 2.354302e+000 1.300000e+002
      vertex   2.492997e+001 4.929618e+001 1.300000e+002
    endloop
  endfacet
  facet normal -4.357968e-016 -3.559326e-016 1.000000e+000
    outer loop
      vertex   2.492997e+001 4.929618e+001 1.300000e+002
      vertex   -1.948532e+000 2.354302e+000 1.300000e+002
      vertex   2.599235e+001 4.799543e+001 1.300000e+002
    endloop
  endfacet
  facet normal 7.317722e-018 -6.272013e-016 1.000000e+000
    outer loop
      vertex   2.599235e+001 4.799543e+001 1.300000e+002
      vertex   -1.948532e+000 2.354302e+000 1.300000e+002
      vertex   -2.691794e-001 2.373896e+000 1.300000e+002
    endloop
  endfacet
  facet normal -0.000000e+000 0.000000e+000 1.000000e+000
    outer loop
      vertex   5.200747e+000 5.900552e+000 1.300000e+002
      vertex   -2.691794e-001 2.373896e+000 1.300000e+002
      vertex   1.363709e+000 2.766689e+000 1.300000e+002
    endloop
  endfacet
  facet normal 0.000000e+000 -0.000000e+000 1.000000e+000
    outer loop
      vertex   2.868252e+000 3.512986e+000 1.300000e+002
      vertex   5.200747e+000 5.900552e+000 1.300000e+002
      vertex   1.363709e+000 2.766689e+000 1.300000e+002
    endloop
  endfacet
  facet normal 0.000000e+000 0.000000e+000 1.000000e+000
    outer loop
      vertex   2.868252e+000 3.512986e+000 1.300000e+002
      vertex   4.169007e+000 4.575364e+000 1.300000e+002
      vertex   5.200747e+000 5.900552e+000 1.300000e+002
    endloop
  endfacet
  facet normal -2.216661e-016 -4.743733e-016 1.000000e+000
    outer loop
      vertex   2.208324e+001 5.103892e+001 1.300000e+002
      vertex   -6.436873e+000 4.451623e+000 1.300000e+002
      vertex   2.360478e+001 5.032793e+001 1.300000e+002
    endloop
  endfacet
  facet normal 6.387109e-016 -9.906557e-016 1.000000e+000
    outer loop
      vertex   2.599235e+001 4.799543e+001 1.300000e+002
      vertex   -2.691794e-001 2.373896e+000 1.300000e+002
      vertex   5.200747e+000 5.900552e+000 1.300000e+002
    endloop
  endfacet
  facet normal -1.629365e-015 1.643591e-016 1.000000e+000
    outer loop
      vertex   2.673864e+001 4.649089e+001 1.300000e+002
      vertex   5.200747e+000 5.900552e+000 1.300000e+002
      vertex   2.608545e+001 4.001549e+001 1.300000e+002
    endloop
  endfacet
  facet normal -0.000000e+000 0.000000e+000 1.000000e+000
    outer loop
      vertex   2.713144e+001 4.485800e+001 1.300000e+002
      vertex   2.608545e+001 4.001549e+001 1.300000e+002
      vertex   2.715103e+001 4.317865e+001 1.300000e+002
    endloop
  endfacet
  facet normal 0.000000e+000 0.000000e+000 1.000000e+000
    outer loop
      vertex   2.713144e+001 4.485800e+001 1.300000e+002
      vertex   2.673864e+001 4.649089e+001 1.300000e+002
      vertex   2.608545e+001 4.001549e+001 1.300000e+002
    endloop
  endfacet
  facet normal -6.820358e-016 -3.383094e-016 1.000000e+000
    outer loop
      vertex   2.599235e+001 4.799543e+001 1.300000e+002
      vertex   5.200747e+000 5.900552e+000 1.300000e+002
      vertex   2.673864e+001 4.649089e+001 1.300000e+002
    endloop
  endfacet
  facet normal 0.000000e+000 0.000000e+000 1.000000e+000
    outer loop
      vertex   2.608545e+001 4.001549e+001 1.300000e+002
      vertex   2.679644e+001 4.153704e+001 1.300000e+002
      vertex   2.715103e+001 4.317865e+001 1.300000e+002
    endloop
  endfacet
  facet normal 0.000000e+000 0.000000e+000 1.000000e+000
    outer loop
      vertex   1.876227e+001 5.137391e+001 1.300000e+002
      vertex   1.712939e+001 5.098112e+001 1.300000e+002
      vertex   1.329235e+001 4.784726e+001 1.300000e+002
    endloop
  endfacet
  facet normal 0.000000e+000 -0.000000e+000 1.000000e+000
    outer loop
      vertex   1.329235e+001 4.784726e+001 1.300000e+002
      vertex   1.712939e+001 5.098112e+001 1.300000e+002
      vertex   1.562484e+001 5.023482e+001 1.300000e+002
    endloop
  endfacet
  facet normal -0.000000e+000 0.000000e+000 1.000000e+000
    outer loop
      vertex   1.432409e+001 4.917244e+001 1.300000e+002
      vertex   1.329235e+001 4.784726e+001 1.300000e+002
      vertex   1.562484e+001 5.023482e+001 1.300000e+002
    endloop
  endfacet
endsolid
