solid ascii
  facet normal -5.102026e-001 -1.367084e-001 8.491196e-001
    outer loop
      vertex   -1.065900e+000 9.891434e+000 1.242000e+002
      vertex   -1.195804e+000 9.816434e+000 1.241099e+002
      vertex   -1.045804e+000 9.816434e+000 1.242000e+002
    endloop
  endfacet
  facet normal -3.734942e-001 -3.734942e-001 8.491196e-001
    outer loop
      vertex   -1.065900e+000 9.891434e+000 1.242000e+002
      vertex   -1.120804e+000 9.946337e+000 1.242000e+002
      vertex   -1.195804e+000 9.816434e+000 1.241099e+002
    endloop
  endfacet
  facet normal -1.367084e-001 -5.102026e-001 8.491196e-001
    outer loop
      vertex   -1.120804e+000 9.946337e+000 1.242000e+002
      vertex   -1.195804e+000 9.966434e+000 1.242000e+002
      vertex   -1.195804e+000 9.816434e+000 1.241099e+002
    endloop
  endfacet
  facet normal 1.367084e-001 -5.102026e-001 8.491196e-001
    outer loop
      vertex   -1.195804e+000 9.966434e+000 1.242000e+002
      vertex   -1.270804e+000 9.946337e+000 1.242000e+002
      vertex   -1.195804e+000 9.816434e+000 1.241099e+002
    endloop
  endfacet
  facet normal 3.734942e-001 -3.734942e-001 8.491196e-001
    outer loop
      vertex   -1.270804e+000 9.946337e+000 1.242000e+002
      vertex   -1.325708e+000 9.891434e+000 1.242000e+002
      vertex   -1.195804e+000 9.816434e+000 1.241099e+002
    endloop
  endfacet
  facet normal 5.102026e-001 -1.367084e-001 8.491196e-001
    outer loop
      vertex   -1.325708e+000 9.891434e+000 1.242000e+002
      vertex   -1.345804e+000 9.816434e+000 1.242000e+002
      vertex   -1.195804e+000 9.816434e+000 1.241099e+002
    endloop
  endfacet
  facet normal 5.102026e-001 1.367084e-001 8.491196e-001
    outer loop
      vertex   -1.345804e+000 9.816434e+000 1.242000e+002
      vertex   -1.325708e+000 9.741434e+000 1.242000e+002
      vertex   -1.195804e+000 9.816434e+000 1.241099e+002
    endloop
  endfacet
  facet normal 3.734942e-001 3.734942e-001 8.491196e-001
    outer loop
      vertex   -1.325708e+000 9.741434e+000 1.242000e+002
      vertex   -1.270804e+000 9.686530e+000 1.242000e+002
      vertex   -1.195804e+000 9.816434e+000 1.241099e+002
    endloop
  endfacet
  facet normal 1.367084e-001 5.102026e-001 8.491196e-001
    outer loop
      vertex   -1.270804e+000 9.686530e+000 1.242000e+002
      vertex   -1.195804e+000 9.666434e+000 1.242000e+002
      vertex   -1.195804e+000 9.816434e+000 1.241099e+002
    endloop
  endfacet
  facet normal -1.367084e-001 5.102026e-001 8.491196e-001
    outer loop
      vertex   -1.195804e+000 9.666434e+000 1.242000e+002
      vertex   -1.120804e+000 9.686530e+000 1.242000e+002
      vertex   -1.195804e+000 9.816434e+000 1.241099e+002
    endloop
  endfacet
  facet normal -3.734942e-001 3.734942e-001 8.491196e-001
    outer loop
      vertex   -1.120804e+000 9.686530e+000 1.242000e+002
      vertex   -1.065900e+000 9.741434e+000 1.242000e+002
      vertex   -1.195804e+000 9.816434e+000 1.241099e+002
    endloop
  endfacet
  facet normal -5.102026e-001 1.367084e-001 8.491196e-001
    outer loop
      vertex   -1.065900e+000 9.741434e+000 1.242000e+002
      vertex   -1.045804e+000 9.816434e+000 1.242000e+002
      vertex   -1.195804e+000 9.816434e+000 1.241099e+002
    endloop
  endfacet
  facet normal -9.659258e-001 -2.588190e-001 -0.000000e+000
    outer loop
      vertex   -1.065900e+000 9.891434e+000 1.250000e+002
      vertex   -1.065900e+000 9.891434e+000 1.242000e+002
      vertex   -1.045804e+000 9.816434e+000 1.250000e+002
    endloop
  endfacet
  facet normal -7.071068e-001 -7.071068e-001 0.000000e+000
    outer loop
      vertex   -1.065900e+000 9.891434e+000 1.250000e+002
      vertex   -1.120804e+000 9.946337e+000 1.242000e+002
      vertex   -1.065900e+000 9.891434e+000 1.242000e+002
    endloop
  endfacet
  facet normal -7.071068e-001 -7.071068e-001 -0.000000e+000
    outer loop
      vertex   -1.065900e+000 9.891434e+000 1.250000e+002
      vertex   -1.120804e+000 9.946337e+000 1.250000e+002
      vertex   -1.120804e+000 9.946337e+000 1.242000e+002
    endloop
  endfacet
  facet normal -2.588190e-001 -9.659258e-001 0.000000e+000
    outer loop
      vertex   -1.120804e+000 9.946337e+000 1.242000e+002
      vertex   -1.120804e+000 9.946337e+000 1.250000e+002
      vertex   -1.195804e+000 9.966434e+000 1.242000e+002
    endloop
  endfacet
  facet normal -2.588190e-001 -9.659258e-001 0.000000e+000
    outer loop
      vertex   -1.195804e+000 9.966434e+000 1.242000e+002
      vertex   -1.120804e+000 9.946337e+000 1.250000e+002
      vertex   -1.195804e+000 9.966434e+000 1.250000e+002
    endloop
  endfacet
  facet normal 2.588190e-001 -9.659258e-001 7.330812e-017
    outer loop
      vertex   -1.270804e+000 9.946337e+000 1.242000e+002
      vertex   -1.195804e+000 9.966434e+000 1.250000e+002
      vertex   -1.270804e+000 9.946337e+000 1.250000e+002
    endloop
  endfacet
  facet normal 7.071068e-001 -7.071068e-001 0.000000e+000
    outer loop
      vertex   -1.325708e+000 9.891434e+000 1.242000e+002
      vertex   -1.270804e+000 9.946337e+000 1.250000e+002
      vertex   -1.325708e+000 9.891434e+000 1.250000e+002
    endloop
  endfacet
  facet normal 9.659258e-001 -2.588190e-001 0.000000e+000
    outer loop
      vertex   -1.345804e+000 9.816434e+000 1.242000e+002
      vertex   -1.325708e+000 9.891434e+000 1.250000e+002
      vertex   -1.345804e+000 9.816434e+000 1.250000e+002
    endloop
  endfacet
  facet normal 9.659258e-001 2.588190e-001 0.000000e+000
    outer loop
      vertex   -1.325708e+000 9.741434e+000 1.242000e+002
      vertex   -1.345804e+000 9.816434e+000 1.250000e+002
      vertex   -1.325708e+000 9.741434e+000 1.250000e+002
    endloop
  endfacet
  facet normal 7.071068e-001 7.071068e-001 -1.954883e-016
    outer loop
      vertex   -1.270804e+000 9.686530e+000 1.242000e+002
      vertex   -1.325708e+000 9.741434e+000 1.250000e+002
      vertex   -1.270804e+000 9.686530e+000 1.250000e+002
    endloop
  endfacet
  facet normal 2.588190e-001 9.659258e-001 0.000000e+000
    outer loop
      vertex   -1.195804e+000 9.666434e+000 1.242000e+002
      vertex   -1.270804e+000 9.686530e+000 1.250000e+002
      vertex   -1.195804e+000 9.666434e+000 1.250000e+002
    endloop
  endfacet
  facet normal -2.588190e-001 9.659258e-001 0.000000e+000
    outer loop
      vertex   -1.120804e+000 9.686530e+000 1.242000e+002
      vertex   -1.195804e+000 9.666434e+000 1.250000e+002
      vertex   -1.120804e+000 9.686530e+000 1.250000e+002
    endloop
  endfacet
  facet normal -7.071068e-001 7.071068e-001 0.000000e+000
    outer loop
      vertex   -1.065900e+000 9.741434e+000 1.242000e+002
      vertex   -1.120804e+000 9.686530e+000 1.250000e+002
      vertex   -1.065900e+000 9.741434e+000 1.250000e+002
    endloop
  endfacet
  facet normal -9.659258e-001 2.588190e-001 0.000000e+000
    outer loop
      vertex   -1.045804e+000 9.816434e+000 1.242000e+002
      vertex   -1.065900e+000 9.741434e+000 1.250000e+002
      vertex   -1.045804e+000 9.816434e+000 1.250000e+002
    endloop
  endfacet
  facet normal -9.659258e-001 -2.588190e-001 0.000000e+000
    outer loop
      vertex   -1.065900e+000 9.891434e+000 1.242000e+002
      vertex   -1.045804e+000 9.816434e+000 1.242000e+002
      vertex   -1.045804e+000 9.816434e+000 1.250000e+002
    endloop
  endfacet
  facet normal 2.588190e-001 -9.659258e-001 0.000000e+000
    outer loop
      vertex   -1.195804e+000 9.966434e+000 1.242000e+002
      vertex   -1.195804e+000 9.966434e+000 1.250000e+002
      vertex   -1.270804e+000 9.946337e+000 1.242000e+002
    endloop
  endfacet
  facet normal 7.071068e-001 -7.071068e-001 1.962616e-016
    outer loop
      vertex   -1.270804e+000 9.946337e+000 1.242000e+002
      vertex   -1.270804e+000 9.946337e+000 1.250000e+002
      vertex   -1.325708e+000 9.891434e+000 1.242000e+002
    endloop
  endfacet
  facet normal 9.659258e-001 -2.588190e-001 0.000000e+000
    outer loop
      vertex   -1.325708e+000 9.891434e+000 1.242000e+002
      vertex   -1.325708e+000 9.891434e+000 1.250000e+002
      vertex   -1.345804e+000 9.816434e+000 1.242000e+002
    endloop
  endfacet
  facet normal 9.659258e-001 2.588190e-001 -0.000000e+000
    outer loop
      vertex   -1.345804e+000 9.816434e+000 1.242000e+002
      vertex   -1.345804e+000 9.816434e+000 1.250000e+002
      vertex   -1.325708e+000 9.741434e+000 1.242000e+002
    endloop
  endfacet
  facet normal 7.071068e-001 7.071068e-001 -0.000000e+000
    outer loop
      vertex   -1.325708e+000 9.741434e+000 1.242000e+002
      vertex   -1.325708e+000 9.741434e+000 1.250000e+002
      vertex   -1.270804e+000 9.686530e+000 1.242000e+002
    endloop
  endfacet
  facet normal 2.588190e-001 9.659258e-001 -7.183672e-017
    outer loop
      vertex   -1.270804e+000 9.686530e+000 1.242000e+002
      vertex   -1.270804e+000 9.686530e+000 1.250000e+002
      vertex   -1.195804e+000 9.666434e+000 1.242000e+002
    endloop
  endfacet
  facet normal -2.588190e-001 9.659258e-001 0.000000e+000
    outer loop
      vertex   -1.195804e+000 9.666434e+000 1.242000e+002
      vertex   -1.195804e+000 9.666434e+000 1.250000e+002
      vertex   -1.120804e+000 9.686530e+000 1.242000e+002
    endloop
  endfacet
  facet normal -7.071068e-001 7.071068e-001 0.000000e+000
    outer loop
      vertex   -1.120804e+000 9.686530e+000 1.242000e+002
      vertex   -1.120804e+000 9.686530e+000 1.250000e+002
      vertex   -1.065900e+000 9.741434e+000 1.242000e+002
    endloop
  endfacet
  facet normal -9.659258e-001 2.588190e-001 0.000000e+000
    outer loop
      vertex   -1.065900e+000 9.741434e+000 1.242000e+002
      vertex   -1.065900e+000 9.741434e+000 1.250000e+002
      vertex   -1.045804e+000 9.816434e+000 1.242000e+002
    endloop
  endfacet
  facet normal -7.071068e-001 0.000000e+000 -7.071068e-001
    outer loop
      vertex   -6.195804e+000 2.406643e+001 2.150000e+001
      vertex   -9.695804e+000 2.406643e+001 2.500000e+001
      vertex   -6.195804e+000 7.406643e+001 2.150000e+001
    endloop
  endfacet
  facet normal -7.071068e-001 0.000000e+000 -7.071068e-001
    outer loop
      vertex   -6.195804e+000 7.406643e+001 2.150000e+001
      vertex   -9.695804e+000 2.406643e+001 2.500000e+001
      vertex   -9.695804e+000 7.406643e+001 2.500000e+001
    endloop
  endfacet
  facet normal 0.000000e+000 -0.000000e+000 1.000000e+000
    outer loop
      vertex   -1.369580e+001 2.406643e+001 2.150000e+001
      vertex   -6.195804e+000 2.406643e+001 2.150000e+001
      vertex   -1.369580e+001 7.406643e+001 2.150000e+001
    endloop
  endfacet
  facet normal -0.000000e+000 0.000000e+000 1.000000e+000
    outer loop
      vertex   -1.369580e+001 7.406643e+001 2.150000e+001
      vertex   -6.195804e+000 2.406643e+001 2.150000e+001
      vertex   -6.195804e+000 7.406643e+001 2.150000e+001
    endloop
  endfacet
  facet normal 0.000000e+000 -0.000000e+000 1.000000e+000
    outer loop
      vertex   3.804196e+000 2.406643e+001 2.150000e+001
      vertex   1.130420e+001 2.406643e+001 2.150000e+001
      vertex   3.804196e+000 7.406643e+001 2.150000e+001
    endloop
  endfacet
  facet normal -0.000000e+000 0.000000e+000 1.000000e+000
    outer loop
      vertex   3.804196e+000 7.406643e+001 2.150000e+001
      vertex   1.130420e+001 2.406643e+001 2.150000e+001
      vertex   1.130420e+001 7.406643e+001 2.150000e+001
    endloop
  endfacet
  facet normal 7.071068e-001 0.000000e+000 -7.071068e-001
    outer loop
      vertex   7.304196e+000 2.406643e+001 2.500000e+001
      vertex   3.804196e+000 2.406643e+001 2.150000e+001
      vertex   7.304196e+000 7.406643e+001 2.500000e+001
    endloop
  endfacet
  facet normal 7.071068e-001 0.000000e+000 -7.071068e-001
    outer loop
      vertex   7.304196e+000 7.406643e+001 2.500000e+001
      vertex   3.804196e+000 2.406643e+001 2.150000e+001
      vertex   3.804196e+000 7.406643e+001 2.150000e+001
    endloop
  endfacet
  facet normal 0.000000e+000 -0.000000e+000 1.000000e+000
    outer loop
      vertex   -9.695804e+000 2.406643e+001 2.500000e+001
      vertex   7.304196e+000 2.406643e+001 2.500000e+001
      vertex   -9.695804e+000 7.406643e+001 2.500000e+001
    endloop
  endfacet
  facet normal -0.000000e+000 0.000000e+000 1.000000e+000
    outer loop
      vertex   -9.695804e+000 7.406643e+001 2.500000e+001
      vertex   7.304196e+000 2.406643e+001 2.500000e+001
      vertex   7.304196e+000 7.406643e+001 2.500000e+001
    endloop
  endfacet
  facet normal 1.000000e+000 0.000000e+000 0.000000e+000
    outer loop
      vertex   1.130420e+001 7.406643e+001 2.150000e+001
      vertex   1.130420e+001 2.406643e+001 2.150000e+001
      vertex   1.130420e+001 7.406643e+001 0.000000e+000
    endloop
  endfacet
  facet normal 1.000000e+000 0.000000e+000 0.000000e+000
    outer loop
      vertex   1.130420e+001 7.406643e+001 0.000000e+000
      vertex   1.130420e+001 2.406643e+001 2.150000e+001
      vertex   1.130420e+001 -9.335665e-001 0.000000e+000
    endloop
  endfacet
  facet normal 1.000000e+000 0.000000e+000 -0.000000e+000
    outer loop
      vertex   1.130420e+001 -9.335665e-001 0.000000e+000
      vertex   1.130420e+001 2.406643e+001 2.150000e+001
      vertex   1.130420e+001 2.056643e+001 3.500000e+001
    endloop
  endfacet
  facet normal 1.000000e+000 -0.000000e+000 -0.000000e+000
    outer loop
      vertex   1.130420e+001 -9.335665e-001 1.250000e+002
      vertex   1.130420e+001 2.056643e+001 3.500000e+001
      vertex   1.130420e+001 2.056643e+001 1.250000e+002
    endloop
  endfacet
  facet normal 1.000000e+000 -0.000000e+000 0.000000e+000
    outer loop
      vertex   1.130420e+001 -9.335665e-001 1.250000e+002
      vertex   1.130420e+001 -9.335665e-001 0.000000e+000
      vertex   1.130420e+001 2.056643e+001 3.500000e+001
    endloop
  endfacet
  facet normal 1.000000e+000 0.000000e+000 -0.000000e+000
    outer loop
      vertex   1.130420e+001 2.406643e+001 2.150000e+001
      vertex   1.130420e+001 2.406643e+001 3.500000e+001
      vertex   1.130420e+001 2.056643e+001 3.500000e+001
    endloop
  endfacet
  facet normal 0.000000e+000 1.000000e+000 5.526444e-016
    outer loop
      vertex   -1.369580e+001 2.056643e+001 3.500000e+001
      vertex   -1.369580e+001 2.056643e+001 1.250000e+002
      vertex   -6.195804e+000 2.056643e+001 3.500000e+001
    endloop
  endfacet
  facet normal -0.000000e+000 1.000000e+000 5.526444e-016
    outer loop
      vertex   -6.195804e+000 2.056643e+001 3.500000e+001
      vertex   -1.369580e+001 2.056643e+001 1.250000e+002
      vertex   -6.195804e+000 2.056643e+001 1.250000e+002
    endloop
  endfacet
  facet normal -7.071068e-001 -7.071068e-001 -3.907786e-016
    outer loop
      vertex   -6.195804e+000 2.056643e+001 3.500000e+001
      vertex   -6.195804e+000 2.056643e+001 1.250000e+002
      vertex   -9.695804e+000 2.406643e+001 3.500000e+001
    endloop
  endfacet
  facet normal -7.071068e-001 -7.071068e-001 -3.907786e-016
    outer loop
      vertex   -9.695804e+000 2.406643e+001 3.500000e+001
      vertex   -6.195804e+000 2.056643e+001 1.250000e+002
      vertex   -9.695804e+000 2.406643e+001 1.250000e+002
    endloop
  endfacet
  facet normal 0.000000e+000 0.000000e+000 1.000000e+000
    outer loop
      vertex   -6.195804e+000 2.056643e+001 3.500000e+001
      vertex   -9.695804e+000 2.406643e+001 3.500000e+001
      vertex   -1.369580e+001 2.056643e+001 3.500000e+001
    endloop
  endfacet
  facet normal 0.000000e+000 -0.000000e+000 1.000000e+000
    outer loop
      vertex   -1.369580e+001 2.056643e+001 3.500000e+001
      vertex   -9.695804e+000 2.406643e+001 3.500000e+001
      vertex   -1.369580e+001 2.406643e+001 3.500000e+001
    endloop
  endfacet
  facet normal 7.071068e-001 -7.071068e-001 -3.907786e-016
    outer loop
      vertex   7.304196e+000 2.406643e+001 3.500000e+001
      vertex   7.304196e+000 2.406643e+001 1.250000e+002
      vertex   3.804196e+000 2.056643e+001 3.500000e+001
    endloop
  endfacet
  facet normal 7.071068e-001 -7.071068e-001 -3.907786e-016
    outer loop
      vertex   3.804196e+000 2.056643e+001 3.500000e+001
      vertex   7.304196e+000 2.406643e+001 1.250000e+002
      vertex   3.804196e+000 2.056643e+001 1.250000e+002
    endloop
  endfacet
  facet normal 0.000000e+000 1.000000e+000 5.526444e-016
    outer loop
      vertex   3.804196e+000 2.056643e+001 3.500000e+001
      vertex   3.804196e+000 2.056643e+001 1.250000e+002
      vertex   1.130420e+001 2.056643e+001 3.500000e+001
    endloop
  endfacet
  facet normal -0.000000e+000 1.000000e+000 5.526444e-016
    outer loop
      vertex   1.130420e+001 2.056643e+001 3.500000e+001
      vertex   3.804196e+000 2.056643e+001 1.250000e+002
      vertex   1.130420e+001 2.056643e+001 1.250000e+002
    endloop
  endfacet
  facet normal 0.000000e+000 -0.000000e+000 1.000000e+000
    outer loop
      vertex   3.804196e+000 2.056643e+001 3.500000e+001
      vertex   1.130420e+001 2.056643e+001 3.500000e+001
      vertex   7.304196e+000 2.406643e+001 3.500000e+001
    endloop
  endfacet
  facet normal -0.000000e+000 0.000000e+000 1.000000e+000
    outer loop
      vertex   7.304196e+000 2.406643e+001 3.500000e+001
      vertex   1.130420e+001 2.056643e+001 3.500000e+001
      vertex   1.130420e+001 2.406643e+001 3.500000e+001
    endloop
  endfacet
  facet normal -1.000000e+000 -0.000000e+000 -0.000000e+000
    outer loop
      vertex   -1.369580e+001 7.406643e+001 2.150000e+001
      vertex   -1.369580e+001 7.406643e+001 0.000000e+000
      vertex   -1.369580e+001 2.406643e+001 2.150000e+001
    endloop
  endfacet
  facet normal -1.000000e+000 -0.000000e+000 -0.000000e+000
    outer loop
      vertex   -1.369580e+001 2.406643e+001 2.150000e+001
      vertex   -1.369580e+001 7.406643e+001 0.000000e+000
      vertex   -1.369580e+001 -9.335665e-001 0.000000e+000
    endloop
  endfacet
  facet normal -1.000000e+000 -0.000000e+000 0.000000e+000
    outer loop
      vertex   -1.369580e+001 2.056643e+001 3.500000e+001
      vertex   -1.369580e+001 -9.335665e-001 0.000000e+000
      vertex   -1.369580e+001 -9.335665e-001 1.250000e+002
    endloop
  endfacet
  facet normal -1.000000e+000 -0.000000e+000 -0.000000e+000
    outer loop
      vertex   -1.369580e+001 2.056643e+001 1.250000e+002
      vertex   -1.369580e+001 2.056643e+001 3.500000e+001
      vertex   -1.369580e+001 -9.335665e-001 1.250000e+002
    endloop
  endfacet
  facet normal -1.000000e+000 -0.000000e+000 0.000000e+000
    outer loop
      vertex   -1.369580e+001 2.406643e+001 2.150000e+001
      vertex   -1.369580e+001 -9.335665e-001 0.000000e+000
      vertex   -1.369580e+001 2.056643e+001 3.500000e+001
    endloop
  endfacet
  facet normal -1.000000e+000 -0.000000e+000 0.000000e+000
    outer loop
      vertex   -1.369580e+001 2.406643e+001 3.500000e+001
      vertex   -1.369580e+001 2.406643e+001 2.150000e+001
      vertex   -1.369580e+001 2.056643e+001 3.500000e+001
    endloop
  endfacet
  facet normal -1.328049e-013 -1.538931e-013 1.000000e+000
    outer loop
      vertex   -1.065900e+000 9.741434e+000 1.250000e+002
      vertex   1.130420e+001 -9.335665e-001 1.250000e+002
      vertex   -1.045804e+000 9.816434e+000 1.250000e+002
    endloop
  endfacet
  facet normal 0.000000e+000 0.000000e+000 1.000000e+000
    outer loop
      vertex   -1.065900e+000 9.741434e+000 1.250000e+002
      vertex   -1.120804e+000 9.686530e+000 1.250000e+002
      vertex   1.130420e+001 -9.335665e-001 1.250000e+002
    endloop
  endfacet
  facet normal 0.000000e+000 0.000000e+000 1.000000e+000
    outer loop
      vertex   1.130420e+001 -9.335665e-001 1.250000e+002
      vertex   -1.120804e+000 9.686530e+000 1.250000e+002
      vertex   -1.195804e+000 9.666434e+000 1.250000e+002
    endloop
  endfacet
  facet normal 0.000000e+000 -0.000000e+000 1.000000e+000
    outer loop
      vertex   -1.369580e+001 -9.335665e-001 1.250000e+002
      vertex   -1.195804e+000 9.666434e+000 1.250000e+002
      vertex   -1.270804e+000 9.686530e+000 1.250000e+002
    endloop
  endfacet
  facet normal -0.000000e+000 0.000000e+000 1.000000e+000
    outer loop
      vertex   -1.325708e+000 9.741434e+000 1.250000e+002
      vertex   -1.369580e+001 -9.335665e-001 1.250000e+002
      vertex   -1.270804e+000 9.686530e+000 1.250000e+002
    endloop
  endfacet
  facet normal 0.000000e+000 0.000000e+000 1.000000e+000
    outer loop
      vertex   -1.325708e+000 9.741434e+000 1.250000e+002
      vertex   -1.345804e+000 9.816434e+000 1.250000e+002
      vertex   -1.369580e+001 -9.335665e-001 1.250000e+002
    endloop
  endfacet
  facet normal 5.753382e-016 -6.609700e-016 1.000000e+000
    outer loop
      vertex   -1.369580e+001 -9.335665e-001 1.250000e+002
      vertex   -1.345804e+000 9.816434e+000 1.250000e+002
      vertex   -1.369580e+001 2.056643e+001 1.250000e+002
    endloop
  endfacet
  facet normal 9.330552e-016 -2.500114e-016 1.000000e+000
    outer loop
      vertex   -1.369580e+001 2.056643e+001 1.250000e+002
      vertex   -1.345804e+000 9.816434e+000 1.250000e+002
      vertex   -1.325708e+000 9.891434e+000 1.250000e+002
    endloop
  endfacet
  facet normal 9.141696e-016 -9.141696e-016 1.000000e+000
    outer loop
      vertex   -6.195804e+000 2.056643e+001 1.250000e+002
      vertex   -1.325708e+000 9.891434e+000 1.250000e+002
      vertex   -1.270804e+000 9.946337e+000 1.250000e+002
    endloop
  endfacet
  facet normal 3.189169e-016 -1.190214e-015 1.000000e+000
    outer loop
      vertex   -1.195804e+000 9.966434e+000 1.250000e+002
      vertex   -6.195804e+000 2.056643e+001 1.250000e+002
      vertex   -1.270804e+000 9.946337e+000 1.250000e+002
    endloop
  endfacet
  facet normal 0.000000e+000 -1.340647e-015 1.000000e+000
    outer loop
      vertex   -1.195804e+000 9.966434e+000 1.250000e+002
      vertex   3.804196e+000 2.056643e+001 1.250000e+002
      vertex   -6.195804e+000 2.056643e+001 1.250000e+002
    endloop
  endfacet
  facet normal -3.189169e-016 -1.190214e-015 1.000000e+000
    outer loop
      vertex   -1.195804e+000 9.966434e+000 1.250000e+002
      vertex   -1.120804e+000 9.946337e+000 1.250000e+002
      vertex   3.804196e+000 2.056643e+001 1.250000e+002
    endloop
  endfacet
  facet normal -9.141696e-016 -9.141696e-016 1.000000e+000
    outer loop
      vertex   3.804196e+000 2.056643e+001 1.250000e+002
      vertex   -1.120804e+000 9.946337e+000 1.250000e+002
      vertex   -1.065900e+000 9.891434e+000 1.250000e+002
    endloop
  endfacet
  facet normal -1.337379e-013 1.536431e-013 1.000000e+000
    outer loop
      vertex   1.130420e+001 2.056643e+001 1.250000e+002
      vertex   -1.065900e+000 9.891434e+000 1.250000e+002
      vertex   -1.045804e+000 9.816434e+000 1.250000e+002
    endloop
  endfacet
  facet normal 5.753382e-016 -6.609700e-016 1.000000e+000
    outer loop
      vertex   1.130420e+001 -9.335665e-001 1.250000e+002
      vertex   1.130420e+001 2.056643e+001 1.250000e+002
      vertex   -1.045804e+000 9.816434e+000 1.250000e+002
    endloop
  endfacet
  facet normal 0.000000e+000 0.000000e+000 1.000000e+000
    outer loop
      vertex   1.130420e+001 -9.335665e-001 1.250000e+002
      vertex   -1.195804e+000 9.666434e+000 1.250000e+002
      vertex   -1.369580e+001 -9.335665e-001 1.250000e+002
    endloop
  endfacet
  facet normal 0.000000e+000 -1.331228e-015 1.000000e+000
    outer loop
      vertex   -1.369580e+001 2.056643e+001 1.250000e+002
      vertex   -1.325708e+000 9.891434e+000 1.250000e+002
      vertex   -6.195804e+000 2.056643e+001 1.250000e+002
    endloop
  endfacet
  facet normal 0.000000e+000 -1.331228e-015 1.000000e+000
    outer loop
      vertex   3.804196e+000 2.056643e+001 1.250000e+002
      vertex   -1.065900e+000 9.891434e+000 1.250000e+002
      vertex   1.130420e+001 2.056643e+001 1.250000e+002
    endloop
  endfacet
  facet normal 0.000000e+000 0.000000e+000 1.000000e+000
    outer loop
      vertex   7.304196e+000 2.406643e+001 1.250000e+002
      vertex   -9.695804e+000 2.406643e+001 1.250000e+002
      vertex   3.804196e+000 2.056643e+001 1.250000e+002
    endloop
  endfacet
  facet normal 0.000000e+000 0.000000e+000 1.000000e+000
    outer loop
      vertex   3.804196e+000 2.056643e+001 1.250000e+002
      vertex   -9.695804e+000 2.406643e+001 1.250000e+002
      vertex   -6.195804e+000 2.056643e+001 1.250000e+002
    endloop
  endfacet
  facet normal 0.000000e+000 -1.000000e+000 -3.099743e-016
    outer loop
      vertex   1.130420e+001 -9.335665e-001 0.000000e+000
      vertex   1.130420e+001 -9.335665e-001 1.250000e+002
      vertex   -1.369580e+001 -9.335665e-001 0.000000e+000
    endloop
  endfacet
  facet normal -0.000000e+000 -1.000000e+000 -3.099743e-016
    outer loop
      vertex   -1.369580e+001 -9.335665e-001 0.000000e+000
      vertex   1.130420e+001 -9.335665e-001 1.250000e+002
      vertex   -1.369580e+001 -9.335665e-001 1.250000e+002
    endloop
  endfacet
  facet normal 0.000000e+000 1.000000e+000 5.526444e-016
    outer loop
      vertex   -9.695804e+000 2.406643e+001 1.250000e+002
      vertex   7.304196e+000 2.406643e+001 3.500000e+001
      vertex   -9.695804e+000 2.406643e+001 3.500000e+001
    endloop
  endfacet
  facet normal -0.000000e+000 1.000000e+000 5.526444e-016
    outer loop
      vertex   -9.695804e+000 2.406643e+001 1.250000e+002
      vertex   7.304196e+000 2.406643e+001 1.250000e+002
      vertex   7.304196e+000 2.406643e+001 3.500000e+001
    endloop
  endfacet
  facet normal 0.000000e+000 1.000000e+000 -4.973799e-015
    outer loop
      vertex   -9.695804e+000 2.406643e+001 3.500000e+001
      vertex   7.304196e+000 2.406643e+001 3.500000e+001
      vertex   7.304196e+000 2.406643e+001 2.500000e+001
    endloop
  endfacet
  facet normal 0.000000e+000 1.000000e+000 -4.973799e-015
    outer loop
      vertex   -9.695804e+000 2.406643e+001 2.500000e+001
      vertex   -9.695804e+000 2.406643e+001 3.500000e+001
      vertex   7.304196e+000 2.406643e+001 2.500000e+001
    endloop
  endfacet
  facet normal 0.000000e+000 1.000000e+000 -4.973799e-015
    outer loop
      vertex   -9.695804e+000 2.406643e+001 2.500000e+001
      vertex   -1.369580e+001 2.406643e+001 3.500000e+001
      vertex   -9.695804e+000 2.406643e+001 3.500000e+001
    endloop
  endfacet
  facet normal 3.223759e-015 1.000000e+000 -3.684296e-015
    outer loop
      vertex   -9.695804e+000 2.406643e+001 2.500000e+001
      vertex   -1.369580e+001 2.406643e+001 2.150000e+001
      vertex   -1.369580e+001 2.406643e+001 3.500000e+001
    endloop
  endfacet
  facet normal 0.000000e+000 1.000000e+000 0.000000e+000
    outer loop
      vertex   -9.695804e+000 2.406643e+001 2.500000e+001
      vertex   -6.195804e+000 2.406643e+001 2.150000e+001
      vertex   -1.369580e+001 2.406643e+001 2.150000e+001
    endloop
  endfacet
  facet normal 0.000000e+000 1.000000e+000 -4.973799e-015
    outer loop
      vertex   7.304196e+000 2.406643e+001 3.500000e+001
      vertex   1.130420e+001 2.406643e+001 3.500000e+001
      vertex   7.304196e+000 2.406643e+001 2.500000e+001
    endloop
  endfacet
  facet normal -3.223759e-015 1.000000e+000 -3.684296e-015
    outer loop
      vertex   7.304196e+000 2.406643e+001 2.500000e+001
      vertex   1.130420e+001 2.406643e+001 3.500000e+001
      vertex   1.130420e+001 2.406643e+001 2.150000e+001
    endloop
  endfacet
  facet normal -0.000000e+000 1.000000e+000 0.000000e+000
    outer loop
      vertex   3.804196e+000 2.406643e+001 2.150000e+001
      vertex   7.304196e+000 2.406643e+001 2.500000e+001
      vertex   1.130420e+001 2.406643e+001 2.150000e+001
    endloop
  endfacet
  facet normal 0.000000e+000 1.000000e+000 0.000000e+000
    outer loop
      vertex   -9.695804e+000 7.406643e+001 2.500000e+001
      vertex   3.804196e+000 7.406643e+001 2.150000e+001
      vertex   -6.195804e+000 7.406643e+001 2.150000e+001
    endloop
  endfacet
  facet normal -0.000000e+000 1.000000e+000 0.000000e+000
    outer loop
      vertex   -9.695804e+000 7.406643e+001 2.500000e+001
      vertex   7.304196e+000 7.406643e+001 2.500000e+001
      vertex   3.804196e+000 7.406643e+001 2.150000e+001
    endloop
  endfacet
  facet normal 0.000000e+000 1.000000e+000 0.000000e+000
    outer loop
      vertex   1.130420e+001 7.406643e+001 2.150000e+001
      vertex   1.130420e+001 7.406643e+001 0.000000e+000
      vertex   3.804196e+000 7.406643e+001 2.150000e+001
    endloop
  endfacet
  facet normal 0.000000e+000 1.000000e+000 0.000000e+000
    outer loop
      vertex   3.804196e+000 7.406643e+001 2.150000e+001
      vertex   1.130420e+001 7.406643e+001 0.000000e+000
      vertex   -1.369580e+001 7.406643e+001 0.000000e+000
    endloop
  endfacet
  facet normal 0.000000e+000 1.000000e+000 -0.000000e+000
    outer loop
      vertex   -6.195804e+000 7.406643e+001 2.150000e+001
      vertex   -1.369580e+001 7.406643e+001 0.000000e+000
      vertex   -1.369580e+001 7.406643e+001 2.150000e+001
    endloop
  endfacet
  facet normal 0.000000e+000 1.000000e+000 0.000000e+000
    outer loop
      vertex   -6.195804e+000 7.406643e+001 2.150000e+001
      vertex   3.804196e+000 7.406643e+001 2.150000e+001
      vertex   -1.369580e+001 7.406643e+001 0.000000e+000
    endloop
  endfacet
  facet normal 0.000000e+000 0.000000e+000 -1.000000e+000
    outer loop
      vertex   1.130420e+001 -9.335665e-001 0.000000e+000
      vertex   -1.369580e+001 -9.335665e-001 0.000000e+000
      vertex   1.130420e+001 7.406643e+001 0.000000e+000
    endloop
  endfacet
  facet normal -0.000000e+000 0.000000e+000 -1.000000e+000
    outer loop
      vertex   1.130420e+001 7.406643e+001 0.000000e+000
      vertex   -1.369580e+001 -9.335665e-001 0.000000e+000
      vertex   -1.369580e+001 7.406643e+001 0.000000e+000
    endloop
  endfacet
endsolid
