solid ascii
  facet normal -9.906859e-001 -1.361666e-001 1.759812e-016
    outer loop
      vertex   -6.010391e+000 4.771745e+001 9.096662e+001
      vertex   -6.010391e+000 4.771745e+001 9.596662e+001
      vertex   -6.195804e+000 4.906643e+001 9.096662e+001
    endloop
  endfacet
  facet normal -9.172113e-001 -3.984011e-001 1.630683e-016
    outer loop
      vertex   -6.010391e+000 4.771745e+001 9.096662e+001
      vertex   -5.467901e+000 4.646851e+001 9.596662e+001
      vertex   -6.010391e+000 4.771745e+001 9.596662e+001
    endloop
  endfacet
  facet normal -9.172113e-001 -3.984011e-001 1.629295e-016
    outer loop
      vertex   -6.010391e+000 4.771745e+001 9.096662e+001
      vertex   -5.467901e+000 4.646851e+001 9.096662e+001
      vertex   -5.467901e+000 4.646851e+001 9.596662e+001
    endloop
  endfacet
  facet normal -7.757113e-001 -6.310879e-001 1.377940e-016
    outer loop
      vertex   -5.467901e+000 4.646851e+001 9.596662e+001
      vertex   -5.467901e+000 4.646851e+001 9.096662e+001
      vertex   -4.608570e+000 4.541225e+001 9.596662e+001
    endloop
  endfacet
  facet normal -7.757113e-001 -6.310879e-001 1.304546e-016
    outer loop
      vertex   -4.608570e+000 4.541225e+001 9.596662e+001
      vertex   -5.467901e+000 4.646851e+001 9.096662e+001
      vertex   -4.608570e+000 4.541225e+001 9.096662e+001
    endloop
  endfacet
  facet normal -5.766803e-001 -8.169699e-001 9.784096e-017
    outer loop
      vertex   -3.496129e+000 4.462701e+001 9.596662e+001
      vertex   -4.608570e+000 4.541225e+001 9.096662e+001
      vertex   -3.496129e+000 4.462701e+001 9.096662e+001
    endloop
  endfacet
  facet normal -3.348796e-001 -9.422609e-001 3.261365e-017
    outer loop
      vertex   -2.213084e+000 4.417101e+001 9.596662e+001
      vertex   -3.496129e+000 4.462701e+001 9.096662e+001
      vertex   -2.213084e+000 4.417101e+001 9.096662e+001
    endloop
  endfacet
  facet normal -6.824241e-002 -9.976688e-001 8.153414e-018
    outer loop
      vertex   -8.545921e-001 4.407809e+001 9.596662e+001
      vertex   -2.213084e+000 4.417101e+001 9.096662e+001
      vertex   -8.545921e-001 4.407809e+001 9.096662e+001
    endloop
  endfacet
  facet normal 2.034560e-001 -9.790841e-001 -2.446024e-017
    outer loop
      vertex   4.785939e-001 4.435513e+001 9.596662e+001
      vertex   -8.545921e-001 4.407809e+001 9.096662e+001
      vertex   4.785939e-001 4.435513e+001 9.096662e+001
    endloop
  endfacet
  facet normal 4.600650e-001 -8.878852e-001 -3.261365e-017
    outer loop
      vertex   1.687597e+000 4.498158e+001 9.596662e+001
      vertex   4.785939e-001 4.435513e+001 9.096662e+001
      vertex   1.687597e+000 4.498158e+001 9.096662e+001
    endloop
  endfacet
  facet normal 6.825531e-001 -7.308360e-001 -1.304546e-016
    outer loop
      vertex   2.682752e+000 4.591099e+001 9.596662e+001
      vertex   1.687597e+000 4.498158e+001 9.096662e+001
      vertex   2.682752e+000 4.591099e+001 9.096662e+001
    endloop
  endfacet
  facet normal 8.544194e-001 -5.195840e-001 -1.467614e-016
    outer loop
      vertex   3.390252e+000 4.707443e+001 9.596662e+001
      vertex   2.682752e+000 4.591099e+001 9.096662e+001
      vertex   3.390252e+000 4.707443e+001 9.096662e+001
    endloop
  endfacet
  facet normal 9.629173e-001 -2.697968e-001 -1.712217e-016
    outer loop
      vertex   3.757626e+000 4.838560e+001 9.596662e+001
      vertex   3.390252e+000 4.707443e+001 9.096662e+001
      vertex   3.757626e+000 4.838560e+001 9.096662e+001
    endloop
  endfacet
  facet normal 1.000000e+000 1.304546e-015 -1.776357e-016
    outer loop
      vertex   3.757626e+000 4.974727e+001 9.596662e+001
      vertex   3.757626e+000 4.838560e+001 9.096662e+001
      vertex   3.757626e+000 4.974727e+001 9.096662e+001
    endloop
  endfacet
  facet normal 9.629173e-001 2.697968e-001 -1.712217e-016
    outer loop
      vertex   3.390252e+000 5.105844e+001 9.596662e+001
      vertex   3.757626e+000 4.974727e+001 9.096662e+001
      vertex   3.390252e+000 5.105844e+001 9.096662e+001
    endloop
  endfacet
  facet normal 8.544194e-001 5.195840e-001 -1.467614e-016
    outer loop
      vertex   2.682752e+000 5.222187e+001 9.596662e+001
      vertex   3.390252e+000 5.105844e+001 9.096662e+001
      vertex   2.682752e+000 5.222187e+001 9.096662e+001
    endloop
  endfacet
  facet normal 6.825531e-001 7.308360e-001 -6.522731e-017
    outer loop
      vertex   1.687597e+000 5.315128e+001 9.596662e+001
      vertex   2.682752e+000 5.222187e+001 9.096662e+001
      vertex   1.687597e+000 5.315128e+001 9.096662e+001
    endloop
  endfacet
  facet normal 4.600650e-001 8.878852e-001 -4.892048e-017
    outer loop
      vertex   4.785939e-001 5.377774e+001 9.596662e+001
      vertex   1.687597e+000 5.315128e+001 9.096662e+001
      vertex   4.785939e-001 5.377774e+001 9.096662e+001
    endloop
  endfacet
  facet normal 2.034560e-001 9.790841e-001 -1.630683e-017
    outer loop
      vertex   -8.545921e-001 5.405478e+001 9.596662e+001
      vertex   4.785939e-001 5.377774e+001 9.096662e+001
      vertex   -8.545921e-001 5.405478e+001 9.096662e+001
    endloop
  endfacet
  facet normal -6.824241e-002 9.976688e-001 8.153414e-018
    outer loop
      vertex   -2.213084e+000 5.396185e+001 9.596662e+001
      vertex   -8.545921e-001 5.405478e+001 9.096662e+001
      vertex   -2.213084e+000 5.396185e+001 9.096662e+001
    endloop
  endfacet
  facet normal -3.348796e-001 9.422609e-001 0.000000e+000
    outer loop
      vertex   -3.496129e+000 5.350586e+001 9.596662e+001
      vertex   -2.213084e+000 5.396185e+001 9.096662e+001
      vertex   -3.496129e+000 5.350586e+001 9.096662e+001
    endloop
  endfacet
  facet normal -5.766803e-001 8.169699e-001 1.141478e-016
    outer loop
      vertex   -4.608570e+000 5.272061e+001 9.596662e+001
      vertex   -3.496129e+000 5.350586e+001 9.096662e+001
      vertex   -4.608570e+000 5.272061e+001 9.096662e+001
    endloop
  endfacet
  facet normal -7.757113e-001 6.310879e-001 1.467614e-016
    outer loop
      vertex   -5.467901e+000 5.166435e+001 9.596662e+001
      vertex   -4.608570e+000 5.272061e+001 9.096662e+001
      vertex   -5.467901e+000 5.166435e+001 9.096662e+001
    endloop
  endfacet
  facet normal -9.172113e-001 3.984011e-001 1.630683e-016
    outer loop
      vertex   -6.010391e+000 5.041542e+001 9.596662e+001
      vertex   -5.467901e+000 5.166435e+001 9.096662e+001
      vertex   -6.010391e+000 5.041542e+001 9.096662e+001
    endloop
  endfacet
  facet normal -9.906859e-001 1.361666e-001 3.750570e-016
    outer loop
      vertex   -6.195804e+000 4.906643e+001 9.596662e+001
      vertex   -6.010391e+000 5.041542e+001 9.096662e+001
      vertex   -6.195804e+000 4.906643e+001 9.096662e+001
    endloop
  endfacet
  facet normal -9.906859e-001 -1.361666e-001 -1.752327e-017
    outer loop
      vertex   -6.010391e+000 4.771745e+001 9.596662e+001
      vertex   -6.195804e+000 4.906643e+001 9.596662e+001
      vertex   -6.195804e+000 4.906643e+001 9.096662e+001
    endloop
  endfacet
  facet normal -5.766803e-001 -8.169699e-001 1.024390e-016
    outer loop
      vertex   -4.608570e+000 4.541225e+001 9.596662e+001
      vertex   -4.608570e+000 4.541225e+001 9.096662e+001
      vertex   -3.496129e+000 4.462701e+001 9.596662e+001
    endloop
  endfacet
  facet normal -3.348796e-001 -9.422609e-001 5.948657e-017
    outer loop
      vertex   -3.496129e+000 4.462701e+001 9.596662e+001
      vertex   -3.496129e+000 4.462701e+001 9.096662e+001
      vertex   -2.213084e+000 4.417101e+001 9.596662e+001
    endloop
  endfacet
  facet normal -6.824241e-002 -9.976688e-001 6.061144e-018
    outer loop
      vertex   -2.213084e+000 4.417101e+001 9.596662e+001
      vertex   -2.213084e+000 4.417101e+001 9.096662e+001
      vertex   -8.545921e-001 4.407809e+001 9.596662e+001
    endloop
  endfacet
  facet normal 2.034560e-001 -9.790841e-001 -1.807052e-017
    outer loop
      vertex   -8.545921e-001 4.407809e+001 9.596662e+001
      vertex   -8.545921e-001 4.407809e+001 9.096662e+001
      vertex   4.785939e-001 4.435513e+001 9.596662e+001
    endloop
  endfacet
  facet normal 4.600650e-001 -8.878852e-001 -4.086198e-017
    outer loop
      vertex   4.785939e-001 4.435513e+001 9.596662e+001
      vertex   4.785939e-001 4.435513e+001 9.096662e+001
      vertex   1.687597e+000 4.498158e+001 9.596662e+001
    endloop
  endfacet
  facet normal 6.825531e-001 -7.308360e-001 -6.062290e-017
    outer loop
      vertex   1.687597e+000 4.498158e+001 9.596662e+001
      vertex   1.687597e+000 4.498158e+001 9.096662e+001
      vertex   2.682752e+000 4.591099e+001 9.596662e+001
    endloop
  endfacet
  facet normal 8.544194e-001 -5.195840e-001 -1.517754e-016
    outer loop
      vertex   2.682752e+000 4.591099e+001 9.596662e+001
      vertex   2.682752e+000 4.591099e+001 9.096662e+001
      vertex   3.390252e+000 4.707443e+001 9.596662e+001
    endloop
  endfacet
  facet normal 9.629173e-001 -2.697968e-001 -1.710485e-016
    outer loop
      vertex   3.390252e+000 4.707443e+001 9.596662e+001
      vertex   3.390252e+000 4.707443e+001 9.096662e+001
      vertex   3.757626e+000 4.838560e+001 9.596662e+001
    endloop
  endfacet
  facet normal 1.000000e+000 1.304546e-015 -1.776357e-016
    outer loop
      vertex   3.757626e+000 4.838560e+001 9.596662e+001
      vertex   3.757626e+000 4.838560e+001 9.096662e+001
      vertex   3.757626e+000 4.974727e+001 9.596662e+001
    endloop
  endfacet
  facet normal 9.629173e-001 2.697968e-001 -1.710485e-016
    outer loop
      vertex   3.757626e+000 4.974727e+001 9.596662e+001
      vertex   3.757626e+000 4.974727e+001 9.096662e+001
      vertex   3.390252e+000 5.105844e+001 9.596662e+001
    endloop
  endfacet
  facet normal 8.544194e-001 5.195840e-001 -1.517754e-016
    outer loop
      vertex   3.390252e+000 5.105844e+001 9.596662e+001
      vertex   3.390252e+000 5.105844e+001 9.096662e+001
      vertex   2.682752e+000 5.222187e+001 9.596662e+001
    endloop
  endfacet
  facet normal 6.825531e-001 7.308360e-001 -1.212458e-016
    outer loop
      vertex   2.682752e+000 5.222187e+001 9.596662e+001
      vertex   2.682752e+000 5.222187e+001 9.096662e+001
      vertex   1.687597e+000 5.315128e+001 9.596662e+001
    endloop
  endfacet
  facet normal 4.600650e-001 8.878852e-001 -4.086198e-017
    outer loop
      vertex   1.687597e+000 5.315128e+001 9.596662e+001
      vertex   1.687597e+000 5.315128e+001 9.096662e+001
      vertex   4.785939e-001 5.377774e+001 9.596662e+001
    endloop
  endfacet
  facet normal 2.034560e-001 9.790841e-001 -1.807052e-017
    outer loop
      vertex   4.785939e-001 5.377774e+001 9.596662e+001
      vertex   4.785939e-001 5.377774e+001 9.096662e+001
      vertex   -8.545921e-001 5.405478e+001 9.596662e+001
    endloop
  endfacet
  facet normal -6.824241e-002 9.976688e-001 6.061144e-018
    outer loop
      vertex   -8.545921e-001 5.405478e+001 9.596662e+001
      vertex   -8.545921e-001 5.405478e+001 9.096662e+001
      vertex   -2.213084e+000 5.396185e+001 9.596662e+001
    endloop
  endfacet
  facet normal -3.348796e-001 9.422609e-001 2.974328e-017
    outer loop
      vertex   -2.213084e+000 5.396185e+001 9.596662e+001
      vertex   -2.213084e+000 5.396185e+001 9.096662e+001
      vertex   -3.496129e+000 5.350586e+001 9.596662e+001
    endloop
  endfacet
  facet normal -5.766803e-001 8.169699e-001 0.000000e+000
    outer loop
      vertex   -3.496129e+000 5.350586e+001 9.596662e+001
      vertex   -3.496129e+000 5.350586e+001 9.096662e+001
      vertex   -4.608570e+000 5.272061e+001 9.596662e+001
    endloop
  endfacet
  facet normal -7.757113e-001 6.310879e-001 1.377940e-016
    outer loop
      vertex   -4.608570e+000 5.272061e+001 9.596662e+001
      vertex   -4.608570e+000 5.272061e+001 9.096662e+001
      vertex   -5.467901e+000 5.166435e+001 9.596662e+001
    endloop
  endfacet
  facet normal -9.172113e-001 3.984011e-001 1.629295e-016
    outer loop
      vertex   -5.467901e+000 5.166435e+001 9.596662e+001
      vertex   -5.467901e+000 5.166435e+001 9.096662e+001
      vertex   -6.010391e+000 5.041542e+001 9.596662e+001
    endloop
  endfacet
  facet normal -9.906859e-001 1.361666e-001 1.759812e-016
    outer loop
      vertex   -6.010391e+000 5.041542e+001 9.596662e+001
      vertex   -6.010391e+000 5.041542e+001 9.096662e+001
      vertex   -6.195804e+000 4.906643e+001 9.596662e+001
    endloop
  endfacet
  facet normal 0.000000e+000 -0.000000e+000 -1.000000e+000
    outer loop
      vertex   -6.010391e+000 5.041542e+001 9.096662e+001
      vertex   3.757626e+000 4.974727e+001 9.096662e+001
      vertex   -6.195804e+000 4.906643e+001 9.096662e+001
    endloop
  endfacet
  facet normal 0.000000e+000 0.000000e+000 -1.000000e+000
    outer loop
      vertex   -6.010391e+000 5.041542e+001 9.096662e+001
      vertex   3.390252e+000 5.105844e+001 9.096662e+001
      vertex   3.757626e+000 4.974727e+001 9.096662e+001
    endloop
  endfacet
  facet normal 0.000000e+000 0.000000e+000 -1.000000e+000
    outer loop
      vertex   -6.010391e+000 5.041542e+001 9.096662e+001
      vertex   -5.467901e+000 5.166435e+001 9.096662e+001
      vertex   3.390252e+000 5.105844e+001 9.096662e+001
    endloop
  endfacet
  facet normal 0.000000e+000 0.000000e+000 -1.000000e+000
    outer loop
      vertex   3.390252e+000 5.105844e+001 9.096662e+001
      vertex   -5.467901e+000 5.166435e+001 9.096662e+001
      vertex   2.682752e+000 5.222187e+001 9.096662e+001
    endloop
  endfacet
  facet normal -0.000000e+000 0.000000e+000 -1.000000e+000
    outer loop
      vertex   2.682752e+000 5.222187e+001 9.096662e+001
      vertex   -5.467901e+000 5.166435e+001 9.096662e+001
      vertex   -4.608570e+000 5.272061e+001 9.096662e+001
    endloop
  endfacet
  facet normal -0.000000e+000 0.000000e+000 -1.000000e+000
    outer loop
      vertex   1.687597e+000 5.315128e+001 9.096662e+001
      vertex   -4.608570e+000 5.272061e+001 9.096662e+001
      vertex   -3.496129e+000 5.350586e+001 9.096662e+001
    endloop
  endfacet
  facet normal -0.000000e+000 0.000000e+000 -1.000000e+000
    outer loop
      vertex   4.785939e-001 5.377774e+001 9.096662e+001
      vertex   -3.496129e+000 5.350586e+001 9.096662e+001
      vertex   -2.213084e+000 5.396185e+001 9.096662e+001
    endloop
  endfacet
  facet normal -0.000000e+000 -0.000000e+000 -1.000000e+000
    outer loop
      vertex   -8.545921e-001 5.405478e+001 9.096662e+001
      vertex   4.785939e-001 5.377774e+001 9.096662e+001
      vertex   -2.213084e+000 5.396185e+001 9.096662e+001
    endloop
  endfacet
  facet normal 0.000000e+000 0.000000e+000 -1.000000e+000
    outer loop
      vertex   2.682752e+000 5.222187e+001 9.096662e+001
      vertex   -4.608570e+000 5.272061e+001 9.096662e+001
      vertex   1.687597e+000 5.315128e+001 9.096662e+001
    endloop
  endfacet
  facet normal 0.000000e+000 0.000000e+000 -1.000000e+000
    outer loop
      vertex   1.687597e+000 5.315128e+001 9.096662e+001
      vertex   -3.496129e+000 5.350586e+001 9.096662e+001
      vertex   4.785939e-001 5.377774e+001 9.096662e+001
    endloop
  endfacet
  facet normal -0.000000e+000 -0.000000e+000 -1.000000e+000
    outer loop
      vertex   3.757626e+000 4.974727e+001 9.096662e+001
      vertex   3.757626e+000 4.838560e+001 9.096662e+001
      vertex   -6.195804e+000 4.906643e+001 9.096662e+001
    endloop
  endfacet
  facet normal 0.000000e+000 -0.000000e+000 -1.000000e+000
    outer loop
      vertex   -6.195804e+000 4.906643e+001 9.096662e+001
      vertex   3.757626e+000 4.838560e+001 9.096662e+001
      vertex   -6.010391e+000 4.771745e+001 9.096662e+001
    endloop
  endfacet
  facet normal 0.000000e+000 -0.000000e+000 -1.000000e+000
    outer loop
      vertex   -6.010391e+000 4.771745e+001 9.096662e+001
      vertex   3.757626e+000 4.838560e+001 9.096662e+001
      vertex   3.390252e+000 4.707443e+001 9.096662e+001
    endloop
  endfacet
  facet normal 0.000000e+000 -0.000000e+000 -1.000000e+000
    outer loop
      vertex   -5.467901e+000 4.646851e+001 9.096662e+001
      vertex   3.390252e+000 4.707443e+001 9.096662e+001
      vertex   2.682752e+000 4.591099e+001 9.096662e+001
    endloop
  endfacet
  facet normal 0.000000e+000 -0.000000e+000 -1.000000e+000
    outer loop
      vertex   -4.608570e+000 4.541225e+001 9.096662e+001
      vertex   2.682752e+000 4.591099e+001 9.096662e+001
      vertex   1.687597e+000 4.498158e+001 9.096662e+001
    endloop
  endfacet
  facet normal 0.000000e+000 -0.000000e+000 -1.000000e+000
    outer loop
      vertex   -3.496129e+000 4.462701e+001 9.096662e+001
      vertex   1.687597e+000 4.498158e+001 9.096662e+001
      vertex   4.785939e-001 4.435513e+001 9.096662e+001
    endloop
  endfacet
  facet normal 0.000000e+000 -0.000000e+000 -1.000000e+000
    outer loop
      vertex   -2.213084e+000 4.417101e+001 9.096662e+001
      vertex   4.785939e-001 4.435513e+001 9.096662e+001
      vertex   -8.545921e-001 4.407809e+001 9.096662e+001
    endloop
  endfacet
  facet normal 0.000000e+000 0.000000e+000 -1.000000e+000
    outer loop
      vertex   -2.213084e+000 4.417101e+001 9.096662e+001
      vertex   -3.496129e+000 4.462701e+001 9.096662e+001
      vertex   4.785939e-001 4.435513e+001 9.096662e+001
    endloop
  endfacet
  facet normal 0.000000e+000 -0.000000e+000 -1.000000e+000
    outer loop
      vertex   -6.010391e+000 4.771745e+001 9.096662e+001
      vertex   3.390252e+000 4.707443e+001 9.096662e+001
      vertex   -5.467901e+000 4.646851e+001 9.096662e+001
    endloop
  endfacet
  facet normal 0.000000e+000 -0.000000e+000 -1.000000e+000
    outer loop
      vertex   -5.467901e+000 4.646851e+001 9.096662e+001
      vertex   2.682752e+000 4.591099e+001 9.096662e+001
      vertex   -4.608570e+000 4.541225e+001 9.096662e+001
    endloop
  endfacet
  facet normal 0.000000e+000 -0.000000e+000 -1.000000e+000
    outer loop
      vertex   -4.608570e+000 4.541225e+001 9.096662e+001
      vertex   1.687597e+000 4.498158e+001 9.096662e+001
      vertex   -3.496129e+000 4.462701e+001 9.096662e+001
    endloop
  endfacet
  facet normal -1.000000e+000 -1.807521e-015 1.421085e-016
    outer loop
      vertex   -1.369580e+001 4.906643e+001 1.209666e+002
      vertex   -1.369580e+001 4.906643e+001 9.596662e+001
      vertex   -1.369580e+001 2.056643e+001 1.209666e+002
    endloop
  endfacet
  facet normal -1.000000e+000 -1.807521e-015 1.421085e-016
    outer loop
      vertex   -1.369580e+001 2.056643e+001 1.209666e+002
      vertex   -1.369580e+001 4.906643e+001 9.596662e+001
      vertex   -1.369580e+001 2.056643e+001 9.596662e+001
    endloop
  endfacet
  facet normal -9.961947e-001 8.715574e-002 1.911101e-016
    outer loop
      vertex   -1.369580e+001 4.906643e+001 9.596662e+001
      vertex   -1.369580e+001 4.906643e+001 1.209666e+002
      vertex   -1.350590e+001 5.123704e+001 9.596662e+001
    endloop
  endfacet
  facet normal -9.961947e-001 8.715574e-002 2.160429e-016
    outer loop
      vertex   -1.350590e+001 5.123704e+001 9.596662e+001
      vertex   -1.369580e+001 4.906643e+001 1.209666e+002
      vertex   -1.350590e+001 5.123704e+001 1.209666e+002
    endloop
  endfacet
  facet normal -9.659258e-001 2.588190e-001 3.579487e-016
    outer loop
      vertex   -1.294196e+001 5.334169e+001 1.209666e+002
      vertex   -1.350590e+001 5.123704e+001 9.596662e+001
      vertex   -1.350590e+001 5.123704e+001 1.209666e+002
    endloop
  endfacet
  facet normal -9.659258e-001 2.588190e-001 2.843879e-016
    outer loop
      vertex   -1.294196e+001 5.334169e+001 1.209666e+002
      vertex   -1.294196e+001 5.334169e+001 9.596662e+001
      vertex   -1.350590e+001 5.123704e+001 9.596662e+001
    endloop
  endfacet
  facet normal -9.063078e-001 4.226183e-001 3.709416e-016
    outer loop
      vertex   -1.294196e+001 5.334169e+001 1.209666e+002
      vertex   -1.202112e+001 5.531643e+001 1.209666e+002
      vertex   -1.294196e+001 5.334169e+001 9.596662e+001
    endloop
  endfacet
  facet normal -9.063078e-001 4.226183e-001 3.690248e-016
    outer loop
      vertex   -1.294196e+001 5.334169e+001 9.596662e+001
      vertex   -1.202112e+001 5.531643e+001 1.209666e+002
      vertex   -1.202112e+001 5.531643e+001 9.596662e+001
    endloop
  endfacet
  facet normal -8.191520e-001 5.735764e-001 4.424490e-016
    outer loop
      vertex   -1.202112e+001 5.531643e+001 9.596662e+001
      vertex   -1.202112e+001 5.531643e+001 1.209666e+002
      vertex   -1.077136e+001 5.710128e+001 1.209666e+002
    endloop
  endfacet
  facet normal -7.071068e-001 7.071068e-001 5.024296e-016
    outer loop
      vertex   -1.077136e+001 5.710128e+001 9.596662e+001
      vertex   -1.077136e+001 5.710128e+001 1.209666e+002
      vertex   -9.230649e+000 5.864199e+001 1.209666e+002
    endloop
  endfacet
  facet normal -5.735764e-001 8.191520e-001 5.471441e-016
    outer loop
      vertex   -9.230649e+000 5.864199e+001 9.596662e+001
      vertex   -9.230649e+000 5.864199e+001 1.209666e+002
      vertex   -7.445804e+000 5.989175e+001 1.209666e+002
    endloop
  endfacet
  facet normal -4.226183e-001 9.063078e-001 4.701331e-016
    outer loop
      vertex   -7.445804e+000 5.989175e+001 9.596662e+001
      vertex   -7.445804e+000 5.989175e+001 1.209666e+002
      vertex   -5.471056e+000 6.081259e+001 1.209666e+002
    endloop
  endfacet
  facet normal -2.588190e-001 9.659258e-001 5.766506e-016
    outer loop
      vertex   -5.471056e+000 6.081259e+001 9.596662e+001
      vertex   -5.471056e+000 6.081259e+001 1.209666e+002
      vertex   -3.366406e+000 6.137653e+001 1.209666e+002
    endloop
  endfacet
  facet normal -8.715574e-002 9.961947e-001 5.786567e-016
    outer loop
      vertex   -3.366406e+000 6.137653e+001 9.596662e+001
      vertex   -3.366406e+000 6.137653e+001 1.209666e+002
      vertex   -1.195804e+000 6.156643e+001 1.209666e+002
    endloop
  endfacet
  facet normal 8.715574e-002 9.961947e-001 5.554337e-016
    outer loop
      vertex   -1.195804e+000 6.156643e+001 9.596662e+001
      vertex   -1.195804e+000 6.156643e+001 1.209666e+002
      vertex   9.747980e-001 6.137653e+001 1.209666e+002
    endloop
  endfacet
  facet normal 2.588190e-001 9.659258e-001 5.168824e-016
    outer loop
      vertex   9.747980e-001 6.137653e+001 9.596662e+001
      vertex   9.747980e-001 6.137653e+001 1.209666e+002
      vertex   3.079448e+000 6.081259e+001 1.209666e+002
    endloop
  endfacet
  facet normal 4.226183e-001 9.063078e-001 4.701331e-016
    outer loop
      vertex   3.079448e+000 6.081259e+001 9.596662e+001
      vertex   3.079448e+000 6.081259e+001 1.209666e+002
      vertex   5.054196e+000 5.989175e+001 1.209666e+002
    endloop
  endfacet
  facet normal 5.735764e-001 8.191520e-001 4.860116e-016
    outer loop
      vertex   5.054196e+000 5.989175e+001 9.596662e+001
      vertex   5.054196e+000 5.989175e+001 1.209666e+002
      vertex   6.839041e+000 5.864199e+001 1.209666e+002
    endloop
  endfacet
  facet normal 7.071068e-001 7.071068e-001 2.763363e-016
    outer loop
      vertex   6.839041e+000 5.864199e+001 9.596662e+001
      vertex   6.839041e+000 5.864199e+001 1.209666e+002
      vertex   8.379751e+000 5.710128e+001 1.209666e+002
    endloop
  endfacet
  facet normal 8.191520e-001 5.735764e-001 2.096319e-016
    outer loop
      vertex   8.379751e+000 5.710128e+001 9.596662e+001
      vertex   8.379751e+000 5.710128e+001 1.209666e+002
      vertex   9.629513e+000 5.531643e+001 1.209666e+002
    endloop
  endfacet
  facet normal 9.063078e-001 4.226183e-001 1.114366e-016
    outer loop
      vertex   9.629513e+000 5.531643e+001 9.596662e+001
      vertex   9.629513e+000 5.531643e+001 1.209666e+002
      vertex   1.055035e+001 5.334169e+001 1.209666e+002
    endloop
  endfacet
  facet normal 9.659258e-001 2.588190e-001 7.848844e-017
    outer loop
      vertex   1.055035e+001 5.334169e+001 9.596662e+001
      vertex   1.055035e+001 5.334169e+001 1.209666e+002
      vertex   1.111429e+001 5.123704e+001 1.209666e+002
    endloop
  endfacet
  facet normal 9.961947e-001 8.715574e-002 -1.167966e-016
    outer loop
      vertex   1.111429e+001 5.123704e+001 9.596662e+001
      vertex   1.111429e+001 5.123704e+001 1.209666e+002
      vertex   1.130420e+001 4.906643e+001 1.209666e+002
    endloop
  endfacet
  facet normal 9.961947e-001 8.715574e-002 -9.171634e-017
    outer loop
      vertex   1.130420e+001 4.906643e+001 9.596662e+001
      vertex   1.111429e+001 5.123704e+001 9.596662e+001
      vertex   1.130420e+001 4.906643e+001 1.209666e+002
    endloop
  endfacet
  facet normal -8.191520e-001 5.735764e-001 4.424490e-016
    outer loop
      vertex   -1.202112e+001 5.531643e+001 9.596662e+001
      vertex   -1.077136e+001 5.710128e+001 1.209666e+002
      vertex   -1.077136e+001 5.710128e+001 9.596662e+001
    endloop
  endfacet
  facet normal -7.071068e-001 7.071068e-001 5.024296e-016
    outer loop
      vertex   -1.077136e+001 5.710128e+001 9.596662e+001
      vertex   -9.230649e+000 5.864199e+001 1.209666e+002
      vertex   -9.230649e+000 5.864199e+001 9.596662e+001
    endloop
  endfacet
  facet normal -5.735764e-001 8.191520e-001 4.045014e-016
    outer loop
      vertex   -9.230649e+000 5.864199e+001 9.596662e+001
      vertex   -7.445804e+000 5.989175e+001 1.209666e+002
      vertex   -7.445804e+000 5.989175e+001 9.596662e+001
    endloop
  endfacet
  facet normal -4.226183e-001 9.063078e-001 5.602196e-016
    outer loop
      vertex   -7.445804e+000 5.989175e+001 9.596662e+001
      vertex   -5.471056e+000 6.081259e+001 1.209666e+002
      vertex   -5.471056e+000 6.081259e+001 9.596662e+001
    endloop
  endfacet
  facet normal -2.588190e-001 9.659258e-001 5.858457e-016
    outer loop
      vertex   -5.471056e+000 6.081259e+001 9.596662e+001
      vertex   -3.366406e+000 6.137653e+001 1.209666e+002
      vertex   -3.366406e+000 6.137653e+001 9.596662e+001
    endloop
  endfacet
  facet normal -8.715574e-002 9.961947e-001 5.771085e-016
    outer loop
      vertex   -3.366406e+000 6.137653e+001 9.596662e+001
      vertex   -1.195804e+000 6.156643e+001 1.209666e+002
      vertex   -1.195804e+000 6.156643e+001 9.596662e+001
    endloop
  endfacet
  facet normal 8.715574e-002 9.961947e-001 5.554337e-016
    outer loop
      vertex   -1.195804e+000 6.156643e+001 9.596662e+001
      vertex   9.747980e-001 6.137653e+001 1.209666e+002
      vertex   9.747980e-001 6.137653e+001 9.596662e+001
    endloop
  endfacet
  facet normal 2.588190e-001 9.659258e-001 5.214800e-016
    outer loop
      vertex   9.747980e-001 6.137653e+001 9.596662e+001
      vertex   3.079448e+000 6.081259e+001 1.209666e+002
      vertex   3.079448e+000 6.081259e+001 9.596662e+001
    endloop
  endfacet
  facet normal 4.226183e-001 9.063078e-001 5.301907e-016
    outer loop
      vertex   3.079448e+000 6.081259e+001 9.596662e+001
      vertex   5.054196e+000 5.989175e+001 1.209666e+002
      vertex   5.054196e+000 5.989175e+001 9.596662e+001
    endloop
  endfacet
  facet normal 5.735764e-001 8.191520e-001 3.637464e-016
    outer loop
      vertex   5.054196e+000 5.989175e+001 9.596662e+001
      vertex   6.839041e+000 5.864199e+001 1.209666e+002
      vertex   6.839041e+000 5.864199e+001 9.596662e+001
    endloop
  endfacet
  facet normal 7.071068e-001 7.071068e-001 3.014578e-016
    outer loop
      vertex   6.839041e+000 5.864199e+001 9.596662e+001
      vertex   8.379751e+000 5.710128e+001 1.209666e+002
      vertex   8.379751e+000 5.710128e+001 9.596662e+001
    endloop
  endfacet
  facet normal 8.191520e-001 5.735764e-001 2.096319e-016
    outer loop
      vertex   8.379751e+000 5.710128e+001 9.596662e+001
      vertex   9.629513e+000 5.531643e+001 1.209666e+002
      vertex   9.629513e+000 5.531643e+001 9.596662e+001
    endloop
  endfacet
  facet normal 9.063078e-001 4.226183e-001 1.758336e-016
    outer loop
      vertex   9.629513e+000 5.531643e+001 9.596662e+001
      vertex   1.055035e+001 5.334169e+001 1.209666e+002
      vertex   1.055035e+001 5.334169e+001 9.596662e+001
    endloop
  endfacet
  facet normal 9.659258e-001 2.588190e-001 -6.370552e-017
    outer loop
      vertex   1.055035e+001 5.334169e+001 9.596662e+001
      vertex   1.111429e+001 5.123704e+001 1.209666e+002
      vertex   1.111429e+001 5.123704e+001 9.596662e+001
    endloop
  endfacet
  facet normal 1.000000e+000 1.745193e-015 -1.421085e-016
    outer loop
      vertex   1.130420e+001 2.056643e+001 1.209666e+002
      vertex   1.130420e+001 2.056643e+001 9.596662e+001
      vertex   1.130420e+001 4.906643e+001 1.209666e+002
    endloop
  endfacet
  facet normal 1.000000e+000 1.745193e-015 -1.421085e-016
    outer loop
      vertex   1.130420e+001 4.906643e+001 1.209666e+002
      vertex   1.130420e+001 2.056643e+001 9.596662e+001
      vertex   1.130420e+001 4.906643e+001 9.596662e+001
    endloop
  endfacet
  facet normal 1.421085e-015 -1.000000e+000 -5.684342e-016
    outer loop
      vertex   3.804196e+000 2.056643e+001 1.209666e+002
      vertex   3.804196e+000 2.056643e+001 9.596662e+001
      vertex   1.130420e+001 2.056643e+001 1.209666e+002
    endloop
  endfacet
  facet normal 1.421085e-015 -1.000000e+000 -5.684342e-016
    outer loop
      vertex   1.130420e+001 2.056643e+001 1.209666e+002
      vertex   3.804196e+000 2.056643e+001 9.596662e+001
      vertex   1.130420e+001 2.056643e+001 9.596662e+001
    endloop
  endfacet
  facet normal -7.071068e-001 7.071068e-001 4.019437e-016
    outer loop
      vertex   7.304196e+000 2.406643e+001 1.209666e+002
      vertex   7.304196e+000 2.406643e+001 9.596662e+001
      vertex   3.804196e+000 2.056643e+001 1.209666e+002
    endloop
  endfacet
  facet normal -7.071068e-001 7.071068e-001 4.737193e-016
    outer loop
      vertex   3.804196e+000 2.056643e+001 1.209666e+002
      vertex   7.304196e+000 2.406643e+001 9.596662e+001
      vertex   3.804196e+000 2.056643e+001 9.596662e+001
    endloop
  endfacet
  facet normal 1.462882e-015 -1.000000e+000 -5.684342e-016
    outer loop
      vertex   -9.695804e+000 2.406643e+001 1.209666e+002
      vertex   -9.695804e+000 2.406643e+001 9.596662e+001
      vertex   7.304196e+000 2.406643e+001 1.209666e+002
    endloop
  endfacet
  facet normal 1.253899e-015 -1.000000e+000 -4.263256e-016
    outer loop
      vertex   7.304196e+000 2.406643e+001 1.209666e+002
      vertex   -9.695804e+000 2.406643e+001 9.596662e+001
      vertex   7.304196e+000 2.406643e+001 9.596662e+001
    endloop
  endfacet
  facet normal 7.071068e-001 7.071068e-001 3.265792e-016
    outer loop
      vertex   -6.195804e+000 2.056643e+001 1.209666e+002
      vertex   -6.195804e+000 2.056643e+001 9.596662e+001
      vertex   -9.695804e+000 2.406643e+001 1.209666e+002
    endloop
  endfacet
  facet normal 7.071068e-001 7.071068e-001 3.014578e-016
    outer loop
      vertex   -9.695804e+000 2.406643e+001 1.209666e+002
      vertex   -6.195804e+000 2.056643e+001 9.596662e+001
      vertex   -9.695804e+000 2.406643e+001 9.596662e+001
    endloop
  endfacet
  facet normal 1.421085e-015 -1.000000e+000 -5.684342e-016
    outer loop
      vertex   -1.369580e+001 2.056643e+001 1.209666e+002
      vertex   -1.369580e+001 2.056643e+001 9.596662e+001
      vertex   -6.195804e+000 2.056643e+001 1.209666e+002
    endloop
  endfacet
  facet normal 1.421085e-015 -1.000000e+000 -5.684342e-016
    outer loop
      vertex   -6.195804e+000 2.056643e+001 1.209666e+002
      vertex   -1.369580e+001 2.056643e+001 9.596662e+001
      vertex   -6.195804e+000 2.056643e+001 9.596662e+001
    endloop
  endfacet
  facet normal 0.000000e+000 0.000000e+000 -1.000000e+000
    outer loop
      vertex   -6.010391e+000 4.771745e+001 9.596662e+001
      vertex   -1.369580e+001 4.906643e+001 9.596662e+001
      vertex   -6.195804e+000 4.906643e+001 9.596662e+001
    endloop
  endfacet
  facet normal -0.000000e+000 -0.000000e+000 -1.000000e+000
    outer loop
      vertex   -6.010391e+000 4.771745e+001 9.596662e+001
      vertex   -5.467901e+000 4.646851e+001 9.596662e+001
      vertex   -1.369580e+001 4.906643e+001 9.596662e+001
    endloop
  endfacet
  facet normal 1.890299e-016 5.986790e-016 -1.000000e+000
    outer loop
      vertex   -1.369580e+001 4.906643e+001 9.596662e+001
      vertex   -5.467901e+000 4.646851e+001 9.596662e+001
      vertex   -9.695804e+000 2.406643e+001 9.596662e+001
    endloop
  endfacet
  facet normal 0.000000e+000 0.000000e+000 -1.000000e+000
    outer loop
      vertex   -1.369580e+001 2.056643e+001 9.596662e+001
      vertex   -9.695804e+000 2.406643e+001 9.596662e+001
      vertex   -6.195804e+000 2.056643e+001 9.596662e+001
    endloop
  endfacet
  facet normal -4.362982e-016 4.986265e-016 -1.000000e+000
    outer loop
      vertex   -1.369580e+001 2.056643e+001 9.596662e+001
      vertex   -1.369580e+001 4.906643e+001 9.596662e+001
      vertex   -9.695804e+000 2.406643e+001 9.596662e+001
    endloop
  endfacet
  facet normal 6.329058e-016 5.149071e-016 -1.000000e+000
    outer loop
      vertex   -5.467901e+000 4.646851e+001 9.596662e+001
      vertex   -4.608570e+000 4.541225e+001 9.596662e+001
      vertex   -9.695804e+000 2.406643e+001 9.596662e+001
    endloop
  endfacet
  facet normal 4.022619e-016 5.698752e-016 -1.000000e+000
    outer loop
      vertex   -9.695804e+000 2.406643e+001 9.596662e+001
      vertex   -4.608570e+000 4.541225e+001 9.596662e+001
      vertex   -3.496129e+000 4.462701e+001 9.596662e+001
    endloop
  endfacet
  facet normal 2.218658e-016 6.242705e-016 -1.000000e+000
    outer loop
      vertex   -2.213084e+000 4.417101e+001 9.596662e+001
      vertex   -9.695804e+000 2.406643e+001 9.596662e+001
      vertex   -3.496129e+000 4.462701e+001 9.596662e+001
    endloop
  endfacet
  facet normal 4.714929e-017 6.892982e-016 -1.000000e+000
    outer loop
      vertex   -2.213084e+000 4.417101e+001 9.596662e+001
      vertex   -8.545921e-001 4.407809e+001 9.596662e+001
      vertex   -9.695804e+000 2.406643e+001 9.596662e+001
    endloop
  endfacet
  facet normal -8.904298e-031 7.101289e-016 -1.000000e+000
    outer loop
      vertex   -9.695804e+000 2.406643e+001 9.596662e+001
      vertex   -8.545921e-001 4.407809e+001 9.596662e+001
      vertex   7.304196e+000 2.406643e+001 9.596662e+001
    endloop
  endfacet
  facet normal -1.360409e-016 6.546647e-016 -1.000000e+000
    outer loop
      vertex   7.304196e+000 2.406643e+001 9.596662e+001
      vertex   -8.545921e-001 4.407809e+001 9.596662e+001
      vertex   4.785939e-001 4.435513e+001 9.596662e+001
    endloop
  endfacet
  facet normal -3.090592e-016 5.964572e-016 -1.000000e+000
    outer loop
      vertex   1.687597e+000 4.498158e+001 9.596662e+001
      vertex   7.304196e+000 2.406643e+001 9.596662e+001
      vertex   4.785939e-001 4.435513e+001 9.596662e+001
    endloop
  endfacet
  facet normal -5.073266e-016 5.432141e-016 -1.000000e+000
    outer loop
      vertex   1.687597e+000 4.498158e+001 9.596662e+001
      vertex   2.682752e+000 4.591099e+001 9.596662e+001
      vertex   7.304196e+000 2.406643e+001 9.596662e+001
    endloop
  endfacet
  facet normal -2.209873e-016 6.037922e-016 -1.000000e+000
    outer loop
      vertex   7.304196e+000 2.406643e+001 9.596662e+001
      vertex   2.682752e+000 4.591099e+001 9.596662e+001
      vertex   1.130420e+001 4.906643e+001 9.596662e+001
    endloop
  endfacet
  facet normal 4.362982e-016 4.986265e-016 -1.000000e+000
    outer loop
      vertex   1.130420e+001 2.056643e+001 9.596662e+001
      vertex   7.304196e+000 2.406643e+001 9.596662e+001
      vertex   1.130420e+001 4.906643e+001 9.596662e+001
    endloop
  endfacet
  facet normal -0.000000e+000 0.000000e+000 -1.000000e+000
    outer loop
      vertex   1.130420e+001 2.056643e+001 9.596662e+001
      vertex   3.804196e+000 2.056643e+001 9.596662e+001
      vertex   7.304196e+000 2.406643e+001 9.596662e+001
    endloop
  endfacet
  facet normal 0.000000e+000 0.000000e+000 -1.000000e+000
    outer loop
      vertex   2.682752e+000 4.591099e+001 9.596662e+001
      vertex   3.390252e+000 4.707443e+001 9.596662e+001
      vertex   1.130420e+001 4.906643e+001 9.596662e+001
    endloop
  endfacet
  facet normal -0.000000e+000 0.000000e+000 -1.000000e+000
    outer loop
      vertex   1.130420e+001 4.906643e+001 9.596662e+001
      vertex   3.390252e+000 4.707443e+001 9.596662e+001
      vertex   3.757626e+000 4.838560e+001 9.596662e+001
    endloop
  endfacet
  facet normal 0.000000e+000 -0.000000e+000 -1.000000e+000
    outer loop
      vertex   3.757626e+000 4.974727e+001 9.596662e+001
      vertex   1.130420e+001 4.906643e+001 9.596662e+001
      vertex   3.757626e+000 4.838560e+001 9.596662e+001
    endloop
  endfacet
  facet normal 0.000000e+000 0.000000e+000 -1.000000e+000
    outer loop
      vertex   3.757626e+000 4.974727e+001 9.596662e+001
      vertex   1.111429e+001 5.123704e+001 9.596662e+001
      vertex   1.130420e+001 4.906643e+001 9.596662e+001
    endloop
  endfacet
  facet normal 0.000000e+000 0.000000e+000 -1.000000e+000
    outer loop
      vertex   3.757626e+000 4.974727e+001 9.596662e+001
      vertex   1.055035e+001 5.334169e+001 9.596662e+001
      vertex   1.111429e+001 5.123704e+001 9.596662e+001
    endloop
  endfacet
  facet normal 0.000000e+000 0.000000e+000 -1.000000e+000
    outer loop
      vertex   3.757626e+000 4.974727e+001 9.596662e+001
      vertex   9.629513e+000 5.531643e+001 9.596662e+001
      vertex   1.055035e+001 5.334169e+001 9.596662e+001
    endloop
  endfacet
  facet normal 0.000000e+000 0.000000e+000 -1.000000e+000
    outer loop
      vertex   3.757626e+000 4.974727e+001 9.596662e+001
      vertex   8.379751e+000 5.710128e+001 9.596662e+001
      vertex   9.629513e+000 5.531643e+001 9.596662e+001
    endloop
  endfacet
  facet normal 0.000000e+000 0.000000e+000 -1.000000e+000
    outer loop
      vertex   3.757626e+000 4.974727e+001 9.596662e+001
      vertex   3.390252e+000 5.105844e+001 9.596662e+001
      vertex   8.379751e+000 5.710128e+001 9.596662e+001
    endloop
  endfacet
  facet normal -0.000000e+000 0.000000e+000 -1.000000e+000
    outer loop
      vertex   8.379751e+000 5.710128e+001 9.596662e+001
      vertex   3.390252e+000 5.105844e+001 9.596662e+001
      vertex   6.839041e+000 5.864199e+001 9.596662e+001
    endloop
  endfacet
  facet normal -0.000000e+000 0.000000e+000 -1.000000e+000
    outer loop
      vertex   6.839041e+000 5.864199e+001 9.596662e+001
      vertex   3.390252e+000 5.105844e+001 9.596662e+001
      vertex   2.682752e+000 5.222187e+001 9.596662e+001
    endloop
  endfacet
  facet normal -0.000000e+000 0.000000e+000 -1.000000e+000
    outer loop
      vertex   5.054196e+000 5.989175e+001 9.596662e+001
      vertex   2.682752e+000 5.222187e+001 9.596662e+001
      vertex   1.687597e+000 5.315128e+001 9.596662e+001
    endloop
  endfacet
  facet normal -0.000000e+000 0.000000e+000 -1.000000e+000
    outer loop
      vertex   3.079448e+000 6.081259e+001 9.596662e+001
      vertex   1.687597e+000 5.315128e+001 9.596662e+001
      vertex   4.785939e-001 5.377774e+001 9.596662e+001
    endloop
  endfacet
  facet normal -0.000000e+000 0.000000e+000 -1.000000e+000
    outer loop
      vertex   9.747980e-001 6.137653e+001 9.596662e+001
      vertex   4.785939e-001 5.377774e+001 9.596662e+001
      vertex   -8.545921e-001 5.405478e+001 9.596662e+001
    endloop
  endfacet
  facet normal 0.000000e+000 -0.000000e+000 -1.000000e+000
    outer loop
      vertex   -1.195804e+000 6.156643e+001 9.596662e+001
      vertex   -8.545921e-001 5.405478e+001 9.596662e+001
      vertex   -2.213084e+000 5.396185e+001 9.596662e+001
    endloop
  endfacet
  facet normal 0.000000e+000 -0.000000e+000 -1.000000e+000
    outer loop
      vertex   -3.366406e+000 6.137653e+001 9.596662e+001
      vertex   -2.213084e+000 5.396185e+001 9.596662e+001
      vertex   -3.496129e+000 5.350586e+001 9.596662e+001
    endloop
  endfacet
  facet normal 0.000000e+000 -0.000000e+000 -1.000000e+000
    outer loop
      vertex   -5.471056e+000 6.081259e+001 9.596662e+001
      vertex   -3.496129e+000 5.350586e+001 9.596662e+001
      vertex   -4.608570e+000 5.272061e+001 9.596662e+001
    endloop
  endfacet
  facet normal 0.000000e+000 -0.000000e+000 -1.000000e+000
    outer loop
      vertex   -7.445804e+000 5.989175e+001 9.596662e+001
      vertex   -4.608570e+000 5.272061e+001 9.596662e+001
      vertex   -5.467901e+000 5.166435e+001 9.596662e+001
    endloop
  endfacet
  facet normal 0.000000e+000 -0.000000e+000 -1.000000e+000
    outer loop
      vertex   -9.230649e+000 5.864199e+001 9.596662e+001
      vertex   -5.467901e+000 5.166435e+001 9.596662e+001
      vertex   -6.010391e+000 5.041542e+001 9.596662e+001
    endloop
  endfacet
  facet normal -0.000000e+000 -0.000000e+000 -1.000000e+000
    outer loop
      vertex   -1.077136e+001 5.710128e+001 9.596662e+001
      vertex   -6.010391e+000 5.041542e+001 9.596662e+001
      vertex   -1.202112e+001 5.531643e+001 9.596662e+001
    endloop
  endfacet
  facet normal 0.000000e+000 0.000000e+000 -1.000000e+000
    outer loop
      vertex   -1.077136e+001 5.710128e+001 9.596662e+001
      vertex   -9.230649e+000 5.864199e+001 9.596662e+001
      vertex   -6.010391e+000 5.041542e+001 9.596662e+001
    endloop
  endfacet
  facet normal -0.000000e+000 0.000000e+000 -1.000000e+000
    outer loop
      vertex   6.839041e+000 5.864199e+001 9.596662e+001
      vertex   2.682752e+000 5.222187e+001 9.596662e+001
      vertex   5.054196e+000 5.989175e+001 9.596662e+001
    endloop
  endfacet
  facet normal -0.000000e+000 0.000000e+000 -1.000000e+000
    outer loop
      vertex   5.054196e+000 5.989175e+001 9.596662e+001
      vertex   1.687597e+000 5.315128e+001 9.596662e+001
      vertex   3.079448e+000 6.081259e+001 9.596662e+001
    endloop
  endfacet
  facet normal -0.000000e+000 0.000000e+000 -1.000000e+000
    outer loop
      vertex   3.079448e+000 6.081259e+001 9.596662e+001
      vertex   4.785939e-001 5.377774e+001 9.596662e+001
      vertex   9.747980e-001 6.137653e+001 9.596662e+001
    endloop
  endfacet
  facet normal -0.000000e+000 0.000000e+000 -1.000000e+000
    outer loop
      vertex   9.747980e-001 6.137653e+001 9.596662e+001
      vertex   -8.545921e-001 5.405478e+001 9.596662e+001
      vertex   -1.195804e+000 6.156643e+001 9.596662e+001
    endloop
  endfacet
  facet normal -0.000000e+000 0.000000e+000 -1.000000e+000
    outer loop
      vertex   -1.195804e+000 6.156643e+001 9.596662e+001
      vertex   -2.213084e+000 5.396185e+001 9.596662e+001
      vertex   -3.366406e+000 6.137653e+001 9.596662e+001
    endloop
  endfacet
  facet normal -0.000000e+000 0.000000e+000 -1.000000e+000
    outer loop
      vertex   -3.366406e+000 6.137653e+001 9.596662e+001
      vertex   -3.496129e+000 5.350586e+001 9.596662e+001
      vertex   -5.471056e+000 6.081259e+001 9.596662e+001
    endloop
  endfacet
  facet normal -0.000000e+000 -0.000000e+000 -1.000000e+000
    outer loop
      vertex   -5.471056e+000 6.081259e+001 9.596662e+001
      vertex   -4.608570e+000 5.272061e+001 9.596662e+001
      vertex   -7.445804e+000 5.989175e+001 9.596662e+001
    endloop
  endfacet
  facet normal -0.000000e+000 -0.000000e+000 -1.000000e+000
    outer loop
      vertex   -7.445804e+000 5.989175e+001 9.596662e+001
      vertex   -5.467901e+000 5.166435e+001 9.596662e+001
      vertex   -9.230649e+000 5.864199e+001 9.596662e+001
    endloop
  endfacet
  facet normal -0.000000e+000 0.000000e+000 -1.000000e+000
    outer loop
      vertex   -6.010391e+000 5.041542e+001 9.596662e+001
      vertex   -6.195804e+000 4.906643e+001 9.596662e+001
      vertex   -1.202112e+001 5.531643e+001 9.596662e+001
    endloop
  endfacet
  facet normal -0.000000e+000 -0.000000e+000 -1.000000e+000
    outer loop
      vertex   -1.202112e+001 5.531643e+001 9.596662e+001
      vertex   -6.195804e+000 4.906643e+001 9.596662e+001
      vertex   -1.294196e+001 5.334169e+001 9.596662e+001
    endloop
  endfacet
  facet normal -0.000000e+000 -0.000000e+000 -1.000000e+000
    outer loop
      vertex   -1.294196e+001 5.334169e+001 9.596662e+001
      vertex   -6.195804e+000 4.906643e+001 9.596662e+001
      vertex   -1.350590e+001 5.123704e+001 9.596662e+001
    endloop
  endfacet
  facet normal 0.000000e+000 -0.000000e+000 -1.000000e+000
    outer loop
      vertex   -1.350590e+001 5.123704e+001 9.596662e+001
      vertex   -6.195804e+000 4.906643e+001 9.596662e+001
      vertex   -1.369580e+001 4.906643e+001 9.596662e+001
    endloop
  endfacet
  facet normal 4.362982e-016 -4.986265e-016 1.000000e+000
    outer loop
      vertex   -1.369580e+001 2.056643e+001 1.209666e+002
      vertex   -9.695804e+000 2.406643e+001 1.209666e+002
      vertex   -1.369580e+001 4.906643e+001 1.209666e+002
    endloop
  endfacet
  facet normal 0.000000e+000 -0.000000e+000 1.000000e+000
    outer loop
      vertex   -1.369580e+001 2.056643e+001 1.209666e+002
      vertex   -6.195804e+000 2.056643e+001 1.209666e+002
      vertex   -9.695804e+000 2.406643e+001 1.209666e+002
    endloop
  endfacet
  facet normal 8.315522e-031 -5.684342e-016 1.000000e+000
    outer loop
      vertex   -9.695804e+000 2.406643e+001 1.209666e+002
      vertex   7.304196e+000 2.406643e+001 1.209666e+002
      vertex   -1.369580e+001 4.906643e+001 1.209666e+002
    endloop
  endfacet
  facet normal 3.385351e-016 -2.840647e-016 1.000000e+000
    outer loop
      vertex   -1.369580e+001 4.906643e+001 1.209666e+002
      vertex   7.304196e+000 2.406643e+001 1.209666e+002
      vertex   -3.366406e+000 6.137653e+001 1.209666e+002
    endloop
  endfacet
  facet normal -0.000000e+000 0.000000e+000 1.000000e+000
    outer loop
      vertex   -5.471056e+000 6.081259e+001 1.209666e+002
      vertex   -1.369580e+001 4.906643e+001 1.209666e+002
      vertex   -3.366406e+000 6.137653e+001 1.209666e+002
    endloop
  endfacet
  facet normal 0.000000e+000 0.000000e+000 1.000000e+000
    outer loop
      vertex   -5.471056e+000 6.081259e+001 1.209666e+002
      vertex   -7.445804e+000 5.989175e+001 1.209666e+002
      vertex   -1.369580e+001 4.906643e+001 1.209666e+002
    endloop
  endfacet
  facet normal 0.000000e+000 -0.000000e+000 1.000000e+000
    outer loop
      vertex   -1.369580e+001 4.906643e+001 1.209666e+002
      vertex   -7.445804e+000 5.989175e+001 1.209666e+002
      vertex   -9.230649e+000 5.864199e+001 1.209666e+002
    endloop
  endfacet
  facet normal -0.000000e+000 0.000000e+000 1.000000e+000
    outer loop
      vertex   -1.077136e+001 5.710128e+001 1.209666e+002
      vertex   -1.369580e+001 4.906643e+001 1.209666e+002
      vertex   -9.230649e+000 5.864199e+001 1.209666e+002
    endloop
  endfacet
  facet normal 0.000000e+000 0.000000e+000 1.000000e+000
    outer loop
      vertex   -1.077136e+001 5.710128e+001 1.209666e+002
      vertex   -1.202112e+001 5.531643e+001 1.209666e+002
      vertex   -1.369580e+001 4.906643e+001 1.209666e+002
    endloop
  endfacet
  facet normal 0.000000e+000 -0.000000e+000 1.000000e+000
    outer loop
      vertex   -1.369580e+001 4.906643e+001 1.209666e+002
      vertex   -1.202112e+001 5.531643e+001 1.209666e+002
      vertex   -1.294196e+001 5.334169e+001 1.209666e+002
    endloop
  endfacet
  facet normal -0.000000e+000 0.000000e+000 1.000000e+000
    outer loop
      vertex   -1.350590e+001 5.123704e+001 1.209666e+002
      vertex   -1.369580e+001 4.906643e+001 1.209666e+002
      vertex   -1.294196e+001 5.334169e+001 1.209666e+002
    endloop
  endfacet
  facet normal 0.000000e+000 -0.000000e+000 1.000000e+000
    outer loop
      vertex   3.804196e+000 2.056643e+001 1.209666e+002
      vertex   1.130420e+001 2.056643e+001 1.209666e+002
      vertex   7.304196e+000 2.406643e+001 1.209666e+002
    endloop
  endfacet
  facet normal -4.362982e-016 -4.986265e-016 1.000000e+000
    outer loop
      vertex   7.304196e+000 2.406643e+001 1.209666e+002
      vertex   1.130420e+001 2.056643e+001 1.209666e+002
      vertex   1.130420e+001 4.906643e+001 1.209666e+002
    endloop
  endfacet
  facet normal -0.000000e+000 -0.000000e+000 1.000000e+000
    outer loop
      vertex   9.747980e-001 6.137653e+001 1.209666e+002
      vertex   1.130420e+001 4.906643e+001 1.209666e+002
      vertex   3.079448e+000 6.081259e+001 1.209666e+002
    endloop
  endfacet
  facet normal -5.689465e-016 -4.774028e-016 1.000000e+000
    outer loop
      vertex   9.747980e-001 6.137653e+001 1.209666e+002
      vertex   7.304196e+000 2.406643e+001 1.209666e+002
      vertex   1.130420e+001 4.906643e+001 1.209666e+002
    endloop
  endfacet
  facet normal -3.382514e-017 -3.866232e-016 1.000000e+000
    outer loop
      vertex   9.747980e-001 6.137653e+001 1.209666e+002
      vertex   -1.195804e+000 6.156643e+001 1.209666e+002
      vertex   7.304196e+000 2.406643e+001 1.209666e+002
    endloop
  endfacet
  facet normal 3.250967e-017 -3.715873e-016 1.000000e+000
    outer loop
      vertex   7.304196e+000 2.406643e+001 1.209666e+002
      vertex   -1.195804e+000 6.156643e+001 1.209666e+002
      vertex   -3.366406e+000 6.137653e+001 1.209666e+002
    endloop
  endfacet
  facet normal 0.000000e+000 0.000000e+000 1.000000e+000
    outer loop
      vertex   1.111429e+001 5.123704e+001 1.209666e+002
      vertex   1.055035e+001 5.334169e+001 1.209666e+002
      vertex   1.130420e+001 4.906643e+001 1.209666e+002
    endloop
  endfacet
  facet normal 0.000000e+000 0.000000e+000 1.000000e+000
    outer loop
      vertex   1.130420e+001 4.906643e+001 1.209666e+002
      vertex   1.055035e+001 5.334169e+001 1.209666e+002
      vertex   9.629513e+000 5.531643e+001 1.209666e+002
    endloop
  endfacet
  facet normal -0.000000e+000 -0.000000e+000 1.000000e+000
    outer loop
      vertex   8.379751e+000 5.710128e+001 1.209666e+002
      vertex   1.130420e+001 4.906643e+001 1.209666e+002
      vertex   9.629513e+000 5.531643e+001 1.209666e+002
    endloop
  endfacet
  facet normal 0.000000e+000 0.000000e+000 1.000000e+000
    outer loop
      vertex   8.379751e+000 5.710128e+001 1.209666e+002
      vertex   6.839041e+000 5.864199e+001 1.209666e+002
      vertex   1.130420e+001 4.906643e+001 1.209666e+002
    endloop
  endfacet
  facet normal 0.000000e+000 0.000000e+000 1.000000e+000
    outer loop
      vertex   1.130420e+001 4.906643e+001 1.209666e+002
      vertex   6.839041e+000 5.864199e+001 1.209666e+002
      vertex   5.054196e+000 5.989175e+001 1.209666e+002
    endloop
  endfacet
  facet normal -0.000000e+000 -0.000000e+000 1.000000e+000
    outer loop
      vertex   3.079448e+000 6.081259e+001 1.209666e+002
      vertex   1.130420e+001 4.906643e+001 1.209666e+002
      vertex   5.054196e+000 5.989175e+001 1.209666e+002
    endloop
  endfacet
endsolid
