solid ascii
  facet normal -0.000000e+000 -7.071068e-001 -7.071068e-001
    outer loop
      vertex   1.380420e+001 4.588713e+001 3.150000e+001
      vertex   -1.619580e+001 4.588713e+001 3.150000e+001
      vertex   1.380420e+001 4.938713e+001 2.800000e+001
    endloop
  endfacet
  facet normal -1.674765e-016 -7.071068e-001 -7.071068e-001
    outer loop
      vertex   1.380420e+001 4.938713e+001 2.800000e+001
      vertex   -1.619580e+001 4.588713e+001 3.150000e+001
      vertex   -1.619580e+001 4.938713e+001 2.800000e+001
    endloop
  endfacet
  facet normal 1.184238e-016 -2.804839e-032 1.000000e+000
    outer loop
      vertex   1.380420e+001 4.188713e+001 2.800000e+001
      vertex   1.380420e+001 4.938713e+001 2.800000e+001
      vertex   -1.619580e+001 4.188713e+001 2.800000e+001
    endloop
  endfacet
  facet normal 1.121936e-031 4.736952e-016 1.000000e+000
    outer loop
      vertex   -1.619580e+001 4.188713e+001 2.800000e+001
      vertex   1.380420e+001 4.938713e+001 2.800000e+001
      vertex   -1.619580e+001 4.938713e+001 2.800000e+001
    endloop
  endfacet
  facet normal 0.000000e+000 7.071068e-001 -7.071068e-001
    outer loop
      vertex   1.380420e+001 5.938713e+001 2.800000e+001
      vertex   -1.619580e+001 5.938713e+001 2.800000e+001
      vertex   1.380420e+001 6.288713e+001 3.150000e+001
    endloop
  endfacet
  facet normal 0.000000e+000 7.071068e-001 -7.071068e-001
    outer loop
      vertex   1.380420e+001 6.288713e+001 3.150000e+001
      vertex   -1.619580e+001 5.938713e+001 2.800000e+001
      vertex   -1.619580e+001 6.288713e+001 3.150000e+001
    endloop
  endfacet
  facet normal 0.000000e+000 -0.000000e+000 1.000000e+000
    outer loop
      vertex   1.380420e+001 5.938713e+001 2.800000e+001
      vertex   1.380420e+001 6.688713e+001 2.800000e+001
      vertex   -1.619580e+001 5.938713e+001 2.800000e+001
    endloop
  endfacet
  facet normal 0.000000e+000 -0.000000e+000 1.000000e+000
    outer loop
      vertex   -1.619580e+001 5.938713e+001 2.800000e+001
      vertex   1.380420e+001 6.688713e+001 2.800000e+001
      vertex   -1.619580e+001 6.688713e+001 2.800000e+001
    endloop
  endfacet
  facet normal 0.000000e+000 -0.000000e+000 1.000000e+000
    outer loop
      vertex   1.380420e+001 4.588713e+001 3.150000e+001
      vertex   1.380420e+001 6.288713e+001 3.150000e+001
      vertex   -1.619580e+001 4.588713e+001 3.150000e+001
    endloop
  endfacet
  facet normal 0.000000e+000 -0.000000e+000 1.000000e+000
    outer loop
      vertex   -1.619580e+001 4.588713e+001 3.150000e+001
      vertex   1.380420e+001 6.288713e+001 3.150000e+001
      vertex   -1.619580e+001 6.288713e+001 3.150000e+001
    endloop
  endfacet
  facet normal -1.000000e+000 0.000000e+000 -0.000000e+000
    outer loop
      vertex   -1.619580e+001 4.188713e+001 2.800000e+001
      vertex   -1.619580e+001 4.938713e+001 2.800000e+001
      vertex   -1.619580e+001 4.188713e+001 2.150000e+001
    endloop
  endfacet
  facet normal -1.000000e+000 3.552714e-016 -4.099285e-016
    outer loop
      vertex   -1.619580e+001 4.188713e+001 2.150000e+001
      vertex   -1.619580e+001 4.938713e+001 2.800000e+001
      vertex   -1.619580e+001 5.938713e+001 2.800000e+001
    endloop
  endfacet
  facet normal -1.000000e+000 0.000000e+000 0.000000e+000
    outer loop
      vertex   -1.619580e+001 6.688713e+001 2.150000e+001
      vertex   -1.619580e+001 5.938713e+001 2.800000e+001
      vertex   -1.619580e+001 6.688713e+001 2.800000e+001
    endloop
  endfacet
  facet normal -1.000000e+000 1.421085e-016 1.639714e-016
    outer loop
      vertex   -1.619580e+001 6.688713e+001 2.150000e+001
      vertex   -1.619580e+001 4.188713e+001 2.150000e+001
      vertex   -1.619580e+001 5.938713e+001 2.800000e+001
    endloop
  endfacet
  facet normal -1.000000e+000 2.089832e-016 2.089832e-016
    outer loop
      vertex   -1.619580e+001 4.588713e+001 3.150000e+001
      vertex   -1.619580e+001 6.288713e+001 3.150000e+001
      vertex   -1.619580e+001 4.938713e+001 2.800000e+001
    endloop
  endfacet
  facet normal -1.000000e+000 3.552714e-016 -3.552714e-016
    outer loop
      vertex   -1.619580e+001 4.938713e+001 2.800000e+001
      vertex   -1.619580e+001 6.288713e+001 3.150000e+001
      vertex   -1.619580e+001 5.938713e+001 2.800000e+001
    endloop
  endfacet
  facet normal 1.000000e+000 -2.368476e-016 -2.732857e-016
    outer loop
      vertex   1.380420e+001 4.188713e+001 2.800000e+001
      vertex   1.380420e+001 4.188713e+001 2.150000e+001
      vertex   1.380420e+001 4.938713e+001 2.800000e+001
    endloop
  endfacet
  facet normal 1.000000e+000 -1.421085e-016 -3.825999e-016
    outer loop
      vertex   1.380420e+001 4.938713e+001 2.800000e+001
      vertex   1.380420e+001 4.188713e+001 2.150000e+001
      vertex   1.380420e+001 6.688713e+001 2.150000e+001
    endloop
  endfacet
  facet normal 1.000000e+000 -2.368476e-016 -2.732857e-016
    outer loop
      vertex   1.380420e+001 5.938713e+001 2.800000e+001
      vertex   1.380420e+001 6.688713e+001 2.150000e+001
      vertex   1.380420e+001 6.688713e+001 2.800000e+001
    endloop
  endfacet
  facet normal 1.000000e+000 0.000000e+000 0.000000e+000
    outer loop
      vertex   1.380420e+001 5.938713e+001 2.800000e+001
      vertex   1.380420e+001 4.938713e+001 2.800000e+001
      vertex   1.380420e+001 6.688713e+001 2.150000e+001
    endloop
  endfacet
  facet normal 1.000000e+000 0.000000e+000 -5.075305e-016
    outer loop
      vertex   1.380420e+001 5.938713e+001 2.800000e+001
      vertex   1.380420e+001 4.588713e+001 3.150000e+001
      vertex   1.380420e+001 4.938713e+001 2.800000e+001
    endloop
  endfacet
  facet normal 1.000000e+000 -1.044916e-016 -9.105695e-016
    outer loop
      vertex   1.380420e+001 5.938713e+001 2.800000e+001
      vertex   1.380420e+001 6.288713e+001 3.150000e+001
      vertex   1.380420e+001 4.588713e+001 3.150000e+001
    endloop
  endfacet
  facet normal -3.552714e-016 3.786532e-032 -1.000000e+000
    outer loop
      vertex   -6.195804e+000 6.688713e+001 2.150000e+001
      vertex   -6.195804e+000 4.188713e+001 2.150000e+001
      vertex   -1.619580e+001 6.688713e+001 2.150000e+001
    endloop
  endfacet
  facet normal -3.552714e-016 5.048710e-032 -1.000000e+000
    outer loop
      vertex   -1.619580e+001 6.688713e+001 2.150000e+001
      vertex   -6.195804e+000 4.188713e+001 2.150000e+001
      vertex   -1.619580e+001 4.188713e+001 2.150000e+001
    endloop
  endfacet
  facet normal 7.071068e-001 -1.004859e-016 7.071068e-001
    outer loop
      vertex   -9.695804e+000 6.688713e+001 2.500000e+001
      vertex   -9.695804e+000 4.188713e+001 2.500000e+001
      vertex   -6.195804e+000 6.688713e+001 2.150000e+001
    endloop
  endfacet
  facet normal 7.071068e-001 -7.177566e-017 7.071068e-001
    outer loop
      vertex   -6.195804e+000 6.688713e+001 2.150000e+001
      vertex   -9.695804e+000 4.188713e+001 2.500000e+001
      vertex   -6.195804e+000 4.188713e+001 2.150000e+001
    endloop
  endfacet
  facet normal -0.000000e+000 0.000000e+000 -1.000000e+000
    outer loop
      vertex   7.304196e+000 6.688713e+001 2.500000e+001
      vertex   7.304196e+000 4.188713e+001 2.500000e+001
      vertex   -9.695804e+000 6.688713e+001 2.500000e+001
    endloop
  endfacet
  facet normal -0.000000e+000 -0.000000e+000 -1.000000e+000
    outer loop
      vertex   -9.695804e+000 6.688713e+001 2.500000e+001
      vertex   7.304196e+000 4.188713e+001 2.500000e+001
      vertex   -9.695804e+000 4.188713e+001 2.500000e+001
    endloop
  endfacet
  facet normal -7.071068e-001 8.792518e-017 7.071068e-001
    outer loop
      vertex   3.804196e+000 6.688713e+001 2.150000e+001
      vertex   3.804196e+000 4.188713e+001 2.150000e+001
      vertex   7.304196e+000 6.688713e+001 2.500000e+001
    endloop
  endfacet
  facet normal -7.071068e-001 7.177566e-017 7.071068e-001
    outer loop
      vertex   7.304196e+000 6.688713e+001 2.500000e+001
      vertex   3.804196e+000 4.188713e+001 2.150000e+001
      vertex   7.304196e+000 4.188713e+001 2.500000e+001
    endloop
  endfacet
  facet normal -0.000000e+000 0.000000e+000 -1.000000e+000
    outer loop
      vertex   1.380420e+001 6.688713e+001 2.150000e+001
      vertex   1.380420e+001 4.188713e+001 2.150000e+001
      vertex   3.804196e+000 6.688713e+001 2.150000e+001
    endloop
  endfacet
  facet normal -0.000000e+000 -0.000000e+000 -1.000000e+000
    outer loop
      vertex   3.804196e+000 6.688713e+001 2.150000e+001
      vertex   1.380420e+001 4.188713e+001 2.150000e+001
      vertex   3.804196e+000 4.188713e+001 2.150000e+001
    endloop
  endfacet
  facet normal -0.000000e+000 -1.000000e+000 0.000000e+000
    outer loop
      vertex   1.380420e+001 4.188713e+001 2.150000e+001
      vertex   1.380420e+001 4.188713e+001 2.800000e+001
      vertex   7.304196e+000 4.188713e+001 2.500000e+001
    endloop
  endfacet
  facet normal 0.000000e+000 -1.000000e+000 0.000000e+000
    outer loop
      vertex   3.804196e+000 4.188713e+001 2.150000e+001
      vertex   1.380420e+001 4.188713e+001 2.150000e+001
      vertex   7.304196e+000 4.188713e+001 2.500000e+001
    endloop
  endfacet
  facet normal 0.000000e+000 -1.000000e+000 0.000000e+000
    outer loop
      vertex   -1.619580e+001 4.188713e+001 2.150000e+001
      vertex   -9.695804e+000 4.188713e+001 2.500000e+001
      vertex   -1.619580e+001 4.188713e+001 2.800000e+001
    endloop
  endfacet
  facet normal 0.000000e+000 -1.000000e+000 0.000000e+000
    outer loop
      vertex   -1.619580e+001 4.188713e+001 2.150000e+001
      vertex   -6.195804e+000 4.188713e+001 2.150000e+001
      vertex   -9.695804e+000 4.188713e+001 2.500000e+001
    endloop
  endfacet
  facet normal 0.000000e+000 -1.000000e+000 0.000000e+000
    outer loop
      vertex   -9.695804e+000 4.188713e+001 2.500000e+001
      vertex   7.304196e+000 4.188713e+001 2.500000e+001
      vertex   -1.619580e+001 4.188713e+001 2.800000e+001
    endloop
  endfacet
  facet normal 0.000000e+000 -1.000000e+000 0.000000e+000
    outer loop
      vertex   -1.619580e+001 4.188713e+001 2.800000e+001
      vertex   7.304196e+000 4.188713e+001 2.500000e+001
      vertex   1.380420e+001 4.188713e+001 2.800000e+001
    endloop
  endfacet
  facet normal -0.000000e+000 1.000000e+000 0.000000e+000
    outer loop
      vertex   -1.619580e+001 6.688713e+001 2.150000e+001
      vertex   -1.619580e+001 6.688713e+001 2.800000e+001
      vertex   -9.695804e+000 6.688713e+001 2.500000e+001
    endloop
  endfacet
  facet normal 0.000000e+000 1.000000e+000 -0.000000e+000
    outer loop
      vertex   -6.195804e+000 6.688713e+001 2.150000e+001
      vertex   -1.619580e+001 6.688713e+001 2.150000e+001
      vertex   -9.695804e+000 6.688713e+001 2.500000e+001
    endloop
  endfacet
  facet normal 0.000000e+000 1.000000e+000 -0.000000e+000
    outer loop
      vertex   1.380420e+001 6.688713e+001 2.150000e+001
      vertex   7.304196e+000 6.688713e+001 2.500000e+001
      vertex   1.380420e+001 6.688713e+001 2.800000e+001
    endloop
  endfacet
  facet normal 0.000000e+000 1.000000e+000 -0.000000e+000
    outer loop
      vertex   1.380420e+001 6.688713e+001 2.150000e+001
      vertex   3.804196e+000 6.688713e+001 2.150000e+001
      vertex   7.304196e+000 6.688713e+001 2.500000e+001
    endloop
  endfacet
  facet normal 0.000000e+000 1.000000e+000 -0.000000e+000
    outer loop
      vertex   7.304196e+000 6.688713e+001 2.500000e+001
      vertex   -9.695804e+000 6.688713e+001 2.500000e+001
      vertex   1.380420e+001 6.688713e+001 2.800000e+001
    endloop
  endfacet
  facet normal 0.000000e+000 1.000000e+000 0.000000e+000
    outer loop
      vertex   1.380420e+001 6.688713e+001 2.800000e+001
      vertex   -9.695804e+000 6.688713e+001 2.500000e+001
      vertex   -1.619580e+001 6.688713e+001 2.800000e+001
    endloop
  endfacet
endsolid
