solid ascii
  facet normal 2.842171e-016 1.000000e+000 0.000000e+000
    outer loop
      vertex   -4.863327e+001 6.994712e+001 3.800000e+001
      vertex   5.136673e+001 6.994712e+001 3.800000e+001
      vertex   -4.863327e+001 6.994712e+001 2.800000e+001
    endloop
  endfacet
  facet normal 2.842171e-016 1.000000e+000 0.000000e+000
    outer loop
      vertex   -4.863327e+001 6.994712e+001 2.800000e+001
      vertex   5.136673e+001 6.994712e+001 3.800000e+001
      vertex   5.136673e+001 6.994712e+001 2.800000e+001
    endloop
  endfacet
  facet normal 1.421085e-016 0.000000e+000 1.000000e+000
    outer loop
      vertex   -4.863327e+001 6.566141e+001 3.800000e+001
      vertex   5.136673e+001 6.566141e+001 3.800000e+001
      vertex   -4.863327e+001 6.994712e+001 3.800000e+001
    endloop
  endfacet
  facet normal 1.421085e-016 -0.000000e+000 1.000000e+000
    outer loop
      vertex   -4.863327e+001 6.994712e+001 3.800000e+001
      vertex   5.136673e+001 6.566141e+001 3.800000e+001
      vertex   5.136673e+001 6.994712e+001 3.800000e+001
    endloop
  endfacet
  facet normal -1.421085e-016 -1.000000e+000 0.000000e+000
    outer loop
      vertex   -4.863327e+001 6.566141e+001 3.645230e+001
      vertex   5.136673e+001 6.566141e+001 3.645230e+001
      vertex   -4.863327e+001 6.566141e+001 3.800000e+001
    endloop
  endfacet
  facet normal -1.421085e-016 -1.000000e+000 0.000000e+000
    outer loop
      vertex   -4.863327e+001 6.566141e+001 3.800000e+001
      vertex   5.136673e+001 6.566141e+001 3.645230e+001
      vertex   5.136673e+001 6.566141e+001 3.800000e+001
    endloop
  endfacet
  facet normal 1.421085e-016 0.000000e+000 1.000000e+000
    outer loop
      vertex   -4.863327e+001 6.137569e+001 3.645230e+001
      vertex   5.136673e+001 6.137569e+001 3.645230e+001
      vertex   -4.863327e+001 6.566141e+001 3.645230e+001
    endloop
  endfacet
  facet normal 1.421085e-016 -0.000000e+000 1.000000e+000
    outer loop
      vertex   -4.863327e+001 6.566141e+001 3.645230e+001
      vertex   5.136673e+001 6.137569e+001 3.645230e+001
      vertex   5.136673e+001 6.566141e+001 3.645230e+001
    endloop
  endfacet
  facet normal 2.842171e-016 1.000000e+000 0.000000e+000
    outer loop
      vertex   -4.863327e+001 6.137569e+001 3.800000e+001
      vertex   5.136673e+001 6.137569e+001 3.800000e+001
      vertex   -4.863327e+001 6.137569e+001 3.645230e+001
    endloop
  endfacet
  facet normal 2.842171e-016 1.000000e+000 0.000000e+000
    outer loop
      vertex   -4.863327e+001 6.137569e+001 3.645230e+001
      vertex   5.136673e+001 6.137569e+001 3.800000e+001
      vertex   5.136673e+001 6.137569e+001 3.645230e+001
    endloop
  endfacet
  facet normal 1.421085e-016 0.000000e+000 1.000000e+000
    outer loop
      vertex   -4.863327e+001 5.708998e+001 3.800000e+001
      vertex   5.136673e+001 5.708998e+001 3.800000e+001
      vertex   -4.863327e+001 6.137569e+001 3.800000e+001
    endloop
  endfacet
  facet normal 1.421085e-016 -0.000000e+000 1.000000e+000
    outer loop
      vertex   -4.863327e+001 6.137569e+001 3.800000e+001
      vertex   5.136673e+001 5.708998e+001 3.800000e+001
      vertex   5.136673e+001 6.137569e+001 3.800000e+001
    endloop
  endfacet
  facet normal -2.131628e-016 -1.000000e+000 0.000000e+000
    outer loop
      vertex   -4.863327e+001 5.708998e+001 3.645230e+001
      vertex   5.136673e+001 5.708998e+001 3.645230e+001
      vertex   -4.863327e+001 5.708998e+001 3.800000e+001
    endloop
  endfacet
  facet normal -2.131628e-016 -1.000000e+000 0.000000e+000
    outer loop
      vertex   -4.863327e+001 5.708998e+001 3.800000e+001
      vertex   5.136673e+001 5.708998e+001 3.645230e+001
      vertex   5.136673e+001 5.708998e+001 3.800000e+001
    endloop
  endfacet
  facet normal 1.421085e-016 0.000000e+000 1.000000e+000
    outer loop
      vertex   -4.863327e+001 5.280426e+001 3.645230e+001
      vertex   5.136673e+001 5.280426e+001 3.645230e+001
      vertex   -4.863327e+001 5.708998e+001 3.645230e+001
    endloop
  endfacet
  facet normal 1.421085e-016 -2.356065e-031 1.000000e+000
    outer loop
      vertex   -4.863327e+001 5.708998e+001 3.645230e+001
      vertex   5.136673e+001 5.280426e+001 3.645230e+001
      vertex   5.136673e+001 5.708998e+001 3.645230e+001
    endloop
  endfacet
  facet normal 2.131628e-016 1.000000e+000 0.000000e+000
    outer loop
      vertex   -4.863327e+001 5.280426e+001 3.800000e+001
      vertex   5.136673e+001 5.280426e+001 3.800000e+001
      vertex   -4.863327e+001 5.280426e+001 3.645230e+001
    endloop
  endfacet
  facet normal 2.131628e-016 1.000000e+000 0.000000e+000
    outer loop
      vertex   -4.863327e+001 5.280426e+001 3.645230e+001
      vertex   5.136673e+001 5.280426e+001 3.800000e+001
      vertex   5.136673e+001 5.280426e+001 3.645230e+001
    endloop
  endfacet
  facet normal 1.421085e-016 0.000000e+000 1.000000e+000
    outer loop
      vertex   -4.863327e+001 4.851855e+001 3.800000e+001
      vertex   5.136673e+001 4.851855e+001 3.800000e+001
      vertex   -4.863327e+001 5.280426e+001 3.800000e+001
    endloop
  endfacet
  facet normal 1.421085e-016 -0.000000e+000 1.000000e+000
    outer loop
      vertex   -4.863327e+001 5.280426e+001 3.800000e+001
      vertex   5.136673e+001 4.851855e+001 3.800000e+001
      vertex   5.136673e+001 5.280426e+001 3.800000e+001
    endloop
  endfacet
  facet normal -2.842171e-016 -1.000000e+000 0.000000e+000
    outer loop
      vertex   -4.863327e+001 4.851855e+001 3.645230e+001
      vertex   5.136673e+001 4.851855e+001 3.645230e+001
      vertex   -4.863327e+001 4.851855e+001 3.800000e+001
    endloop
  endfacet
  facet normal -2.842171e-016 -1.000000e+000 0.000000e+000
    outer loop
      vertex   -4.863327e+001 4.851855e+001 3.800000e+001
      vertex   5.136673e+001 4.851855e+001 3.645230e+001
      vertex   5.136673e+001 4.851855e+001 3.800000e+001
    endloop
  endfacet
  facet normal 1.421085e-016 0.000000e+000 1.000000e+000
    outer loop
      vertex   -4.863327e+001 4.423283e+001 3.645230e+001
      vertex   5.136673e+001 4.423283e+001 3.645230e+001
      vertex   -4.863327e+001 4.851855e+001 3.645230e+001
    endloop
  endfacet
  facet normal 1.421085e-016 -0.000000e+000 1.000000e+000
    outer loop
      vertex   -4.863327e+001 4.851855e+001 3.645230e+001
      vertex   5.136673e+001 4.423283e+001 3.645230e+001
      vertex   5.136673e+001 4.851855e+001 3.645230e+001
    endloop
  endfacet
  facet normal 2.842171e-016 1.000000e+000 0.000000e+000
    outer loop
      vertex   -4.863327e+001 4.423283e+001 3.800000e+001
      vertex   5.136673e+001 4.423283e+001 3.800000e+001
      vertex   -4.863327e+001 4.423283e+001 3.645230e+001
    endloop
  endfacet
  facet normal 2.842171e-016 1.000000e+000 0.000000e+000
    outer loop
      vertex   -4.863327e+001 4.423283e+001 3.645230e+001
      vertex   5.136673e+001 4.423283e+001 3.800000e+001
      vertex   5.136673e+001 4.423283e+001 3.645230e+001
    endloop
  endfacet
  facet normal 1.421085e-016 0.000000e+000 1.000000e+000
    outer loop
      vertex   -4.863327e+001 3.994712e+001 3.800000e+001
      vertex   5.136673e+001 3.994712e+001 3.800000e+001
      vertex   -4.863327e+001 4.423283e+001 3.800000e+001
    endloop
  endfacet
  facet normal 1.421085e-016 -0.000000e+000 1.000000e+000
    outer loop
      vertex   -4.863327e+001 4.423283e+001 3.800000e+001
      vertex   5.136673e+001 3.994712e+001 3.800000e+001
      vertex   5.136673e+001 4.423283e+001 3.800000e+001
    endloop
  endfacet
  facet normal -2.842171e-016 -1.000000e+000 0.000000e+000
    outer loop
      vertex   -4.863327e+001 3.994712e+001 2.734508e+001
      vertex   5.136673e+001 3.994712e+001 2.734508e+001
      vertex   -4.863327e+001 3.994712e+001 3.800000e+001
    endloop
  endfacet
  facet normal -2.842171e-016 -1.000000e+000 0.000000e+000
    outer loop
      vertex   -4.863327e+001 3.994712e+001 3.800000e+001
      vertex   5.136673e+001 3.994712e+001 2.734508e+001
      vertex   5.136673e+001 3.994712e+001 3.800000e+001
    endloop
  endfacet
  facet normal -1.065814e-016 0.000000e+000 -1.000000e+000
    outer loop
      vertex   -4.863327e+001 4.851403e+001 2.734508e+001
      vertex   5.136673e+001 4.851403e+001 2.734508e+001
      vertex   -4.863327e+001 3.994712e+001 2.734508e+001
    endloop
  endfacet
  facet normal -1.065814e-016 -0.000000e+000 -1.000000e+000
    outer loop
      vertex   -4.863327e+001 3.994712e+001 2.734508e+001
      vertex   5.136673e+001 4.851403e+001 2.734508e+001
      vertex   5.136673e+001 3.994712e+001 2.734508e+001
    endloop
  endfacet
  facet normal 2.260933e-016 7.071068e-001 7.071068e-001
    outer loop
      vertex   -4.863327e+001 4.501403e+001 3.084508e+001
      vertex   5.136673e+001 4.501403e+001 3.084508e+001
      vertex   -4.863327e+001 4.851403e+001 2.734508e+001
    endloop
  endfacet
  facet normal 2.260933e-016 7.071068e-001 7.071068e-001
    outer loop
      vertex   -4.863327e+001 4.851403e+001 2.734508e+001
      vertex   5.136673e+001 4.501403e+001 3.084508e+001
      vertex   5.136673e+001 4.851403e+001 2.734508e+001
    endloop
  endfacet
  facet normal -1.421085e-016 0.000000e+000 -1.000000e+000
    outer loop
      vertex   -4.863327e+001 6.223221e+001 3.084508e+001
      vertex   5.136673e+001 6.223221e+001 3.084508e+001
      vertex   -4.863327e+001 4.501403e+001 3.084508e+001
    endloop
  endfacet
  facet normal -1.065814e-016 -2.063350e-016 -1.000000e+000
    outer loop
      vertex   -4.863327e+001 4.501403e+001 3.084508e+001
      vertex   5.136673e+001 6.223221e+001 3.084508e+001
      vertex   5.136673e+001 4.501403e+001 3.084508e+001
    endloop
  endfacet
  facet normal -1.256074e-016 -7.071068e-001 7.071068e-001
    outer loop
      vertex   -4.863327e+001 5.938713e+001 2.800000e+001
      vertex   5.136673e+001 5.938713e+001 2.800000e+001
      vertex   -4.863327e+001 6.223221e+001 3.084508e+001
    endloop
  endfacet
  facet normal -1.015426e-016 -7.071068e-001 7.071068e-001
    outer loop
      vertex   -4.863327e+001 6.223221e+001 3.084508e+001
      vertex   5.136673e+001 5.938713e+001 2.800000e+001
      vertex   5.136673e+001 6.223221e+001 3.084508e+001
    endloop
  endfacet
  facet normal -1.065814e-016 0.000000e+000 -1.000000e+000
    outer loop
      vertex   -4.863327e+001 6.994712e+001 2.800000e+001
      vertex   5.136673e+001 6.994712e+001 2.800000e+001
      vertex   -4.863327e+001 5.938713e+001 2.800000e+001
    endloop
  endfacet
  facet normal -1.065814e-016 7.171467e-032 -1.000000e+000
    outer loop
      vertex   -4.863327e+001 5.938713e+001 2.800000e+001
      vertex   5.136673e+001 6.994712e+001 2.800000e+001
      vertex   5.136673e+001 5.938713e+001 2.800000e+001
    endloop
  endfacet
  facet normal 1.000000e+000 -6.728628e-016 -1.824580e-015
    outer loop
      vertex   5.136673e+001 5.938713e+001 2.800000e+001
      vertex   5.136673e+001 6.994712e+001 2.800000e+001
      vertex   5.136673e+001 6.223221e+001 3.084508e+001
    endloop
  endfacet
  facet normal 1.000000e+000 -0.000000e+000 -0.000000e+000
    outer loop
      vertex   5.136673e+001 6.223221e+001 3.084508e+001
      vertex   5.136673e+001 6.994712e+001 2.800000e+001
      vertex   5.136673e+001 6.566141e+001 3.645230e+001
    endloop
  endfacet
  facet normal 1.000000e+000 -0.000000e+000 0.000000e+000
    outer loop
      vertex   5.136673e+001 6.137569e+001 3.645230e+001
      vertex   5.136673e+001 6.223221e+001 3.084508e+001
      vertex   5.136673e+001 6.566141e+001 3.645230e+001
    endloop
  endfacet
  facet normal 1.000000e+000 0.000000e+000 0.000000e+000
    outer loop
      vertex   5.136673e+001 6.137569e+001 3.645230e+001
      vertex   5.136673e+001 5.708998e+001 3.645230e+001
      vertex   5.136673e+001 6.223221e+001 3.084508e+001
    endloop
  endfacet
  facet normal 1.000000e+000 0.000000e+000 -0.000000e+000
    outer loop
      vertex   5.136673e+001 6.137569e+001 3.645230e+001
      vertex   5.136673e+001 6.137569e+001 3.800000e+001
      vertex   5.136673e+001 5.708998e+001 3.645230e+001
    endloop
  endfacet
  facet normal 1.000000e+000 0.000000e+000 -0.000000e+000
    outer loop
      vertex   5.136673e+001 5.708998e+001 3.645230e+001
      vertex   5.136673e+001 6.137569e+001 3.800000e+001
      vertex   5.136673e+001 5.708998e+001 3.800000e+001
    endloop
  endfacet
  facet normal 1.000000e+000 0.000000e+000 -0.000000e+000
    outer loop
      vertex   5.136673e+001 6.994712e+001 2.800000e+001
      vertex   5.136673e+001 6.994712e+001 3.800000e+001
      vertex   5.136673e+001 6.566141e+001 3.645230e+001
    endloop
  endfacet
  facet normal 1.000000e+000 0.000000e+000 -0.000000e+000
    outer loop
      vertex   5.136673e+001 6.566141e+001 3.645230e+001
      vertex   5.136673e+001 6.994712e+001 3.800000e+001
      vertex   5.136673e+001 6.566141e+001 3.800000e+001
    endloop
  endfacet
  facet normal 1.000000e+000 -1.657933e-015 -1.520446e-015
    outer loop
      vertex   5.136673e+001 5.708998e+001 3.645230e+001
      vertex   5.136673e+001 5.280426e+001 3.645230e+001
      vertex   5.136673e+001 6.223221e+001 3.084508e+001
    endloop
  endfacet
  facet normal 1.000000e+000 -4.126701e-016 5.733319e-016
    outer loop
      vertex   5.136673e+001 6.223221e+001 3.084508e+001
      vertex   5.136673e+001 5.280426e+001 3.645230e+001
      vertex   5.136673e+001 4.501403e+001 3.084508e+001
    endloop
  endfacet
  facet normal 1.000000e+000 0.000000e+000 -0.000000e+000
    outer loop
      vertex   5.136673e+001 4.501403e+001 3.084508e+001
      vertex   5.136673e+001 5.280426e+001 3.645230e+001
      vertex   5.136673e+001 4.851855e+001 3.645230e+001
    endloop
  endfacet
  facet normal 1.000000e+000 -0.000000e+000 0.000000e+000
    outer loop
      vertex   5.136673e+001 4.423283e+001 3.645230e+001
      vertex   5.136673e+001 4.501403e+001 3.084508e+001
      vertex   5.136673e+001 4.851855e+001 3.645230e+001
    endloop
  endfacet
  facet normal 1.000000e+000 0.000000e+000 0.000000e+000
    outer loop
      vertex   5.136673e+001 4.423283e+001 3.645230e+001
      vertex   5.136673e+001 3.994712e+001 3.800000e+001
      vertex   5.136673e+001 4.501403e+001 3.084508e+001
    endloop
  endfacet
  facet normal 1.000000e+000 0.000000e+000 -0.000000e+000
    outer loop
      vertex   5.136673e+001 4.423283e+001 3.645230e+001
      vertex   5.136673e+001 4.423283e+001 3.800000e+001
      vertex   5.136673e+001 3.994712e+001 3.800000e+001
    endloop
  endfacet
  facet normal 1.000000e+000 0.000000e+000 -0.000000e+000
    outer loop
      vertex   5.136673e+001 5.280426e+001 3.645230e+001
      vertex   5.136673e+001 5.280426e+001 3.800000e+001
      vertex   5.136673e+001 4.851855e+001 3.645230e+001
    endloop
  endfacet
  facet normal 1.000000e+000 0.000000e+000 -0.000000e+000
    outer loop
      vertex   5.136673e+001 4.851855e+001 3.645230e+001
      vertex   5.136673e+001 5.280426e+001 3.800000e+001
      vertex   5.136673e+001 4.851855e+001 3.800000e+001
    endloop
  endfacet
  facet normal 1.000000e+000 -0.000000e+000 0.000000e+000
    outer loop
      vertex   5.136673e+001 3.994712e+001 3.800000e+001
      vertex   5.136673e+001 3.994712e+001 2.734508e+001
      vertex   5.136673e+001 4.501403e+001 3.084508e+001
    endloop
  endfacet
  facet normal 1.000000e+000 -0.000000e+000 0.000000e+000
    outer loop
      vertex   5.136673e+001 4.501403e+001 3.084508e+001
      vertex   5.136673e+001 3.994712e+001 2.734508e+001
      vertex   5.136673e+001 4.851403e+001 2.734508e+001
    endloop
  endfacet
  facet normal -1.000000e+000 3.315866e-015 0.000000e+000
    outer loop
      vertex   -4.863327e+001 6.566141e+001 3.800000e+001
      vertex   -4.863327e+001 6.994712e+001 3.800000e+001
      vertex   -4.863327e+001 6.566141e+001 3.645230e+001
    endloop
  endfacet
  facet normal -1.000000e+000 2.802669e-015 1.421085e-015
    outer loop
      vertex   -4.863327e+001 6.566141e+001 3.645230e+001
      vertex   -4.863327e+001 6.994712e+001 3.800000e+001
      vertex   -4.863327e+001 6.994712e+001 2.800000e+001
    endloop
  endfacet
  facet normal -1.000000e+000 -0.000000e+000 -0.000000e+000
    outer loop
      vertex   -4.863327e+001 6.223221e+001 3.084508e+001
      vertex   -4.863327e+001 6.994712e+001 2.800000e+001
      vertex   -4.863327e+001 5.938713e+001 2.800000e+001
    endloop
  endfacet
  facet normal -1.000000e+000 0.000000e+000 0.000000e+000
    outer loop
      vertex   -4.863327e+001 6.223221e+001 3.084508e+001
      vertex   -4.863327e+001 6.566141e+001 3.645230e+001
      vertex   -4.863327e+001 6.994712e+001 2.800000e+001
    endloop
  endfacet
  facet normal -1.000000e+000 0.000000e+000 0.000000e+000
    outer loop
      vertex   -4.863327e+001 6.223221e+001 3.084508e+001
      vertex   -4.863327e+001 6.137569e+001 3.645230e+001
      vertex   -4.863327e+001 6.566141e+001 3.645230e+001
    endloop
  endfacet
  facet normal -1.000000e+000 0.000000e+000 0.000000e+000
    outer loop
      vertex   -4.863327e+001 6.223221e+001 3.084508e+001
      vertex   -4.863327e+001 5.708998e+001 3.645230e+001
      vertex   -4.863327e+001 6.137569e+001 3.645230e+001
    endloop
  endfacet
  facet normal -1.000000e+000 0.000000e+000 0.000000e+000
    outer loop
      vertex   -4.863327e+001 6.223221e+001 3.084508e+001
      vertex   -4.863327e+001 5.280426e+001 3.645230e+001
      vertex   -4.863327e+001 5.708998e+001 3.645230e+001
    endloop
  endfacet
  facet normal -1.000000e+000 0.000000e+000 0.000000e+000
    outer loop
      vertex   -4.863327e+001 6.223221e+001 3.084508e+001
      vertex   -4.863327e+001 4.501403e+001 3.084508e+001
      vertex   -4.863327e+001 5.280426e+001 3.645230e+001
    endloop
  endfacet
  facet normal -1.000000e+000 -0.000000e+000 0.000000e+000
    outer loop
      vertex   -4.863327e+001 5.280426e+001 3.645230e+001
      vertex   -4.863327e+001 4.501403e+001 3.084508e+001
      vertex   -4.863327e+001 4.851855e+001 3.645230e+001
    endloop
  endfacet
  facet normal -1.000000e+000 -0.000000e+000 -0.000000e+000
    outer loop
      vertex   -4.863327e+001 4.851855e+001 3.800000e+001
      vertex   -4.863327e+001 5.280426e+001 3.645230e+001
      vertex   -4.863327e+001 4.851855e+001 3.645230e+001
    endloop
  endfacet
  facet normal -1.000000e+000 0.000000e+000 0.000000e+000
    outer loop
      vertex   -4.863327e+001 4.851855e+001 3.800000e+001
      vertex   -4.863327e+001 5.280426e+001 3.800000e+001
      vertex   -4.863327e+001 5.280426e+001 3.645230e+001
    endloop
  endfacet
  facet normal -1.000000e+000 0.000000e+000 0.000000e+000
    outer loop
      vertex   -4.863327e+001 4.851403e+001 2.734508e+001
      vertex   -4.863327e+001 3.994712e+001 2.734508e+001
      vertex   -4.863327e+001 4.501403e+001 3.084508e+001
    endloop
  endfacet
  facet normal -1.000000e+000 -0.000000e+000 0.000000e+000
    outer loop
      vertex   -4.863327e+001 4.501403e+001 3.084508e+001
      vertex   -4.863327e+001 3.994712e+001 2.734508e+001
      vertex   -4.863327e+001 3.994712e+001 3.800000e+001
    endloop
  endfacet
  facet normal -1.000000e+000 0.000000e+000 0.000000e+000
    outer loop
      vertex   -4.863327e+001 4.423283e+001 3.645230e+001
      vertex   -4.863327e+001 3.994712e+001 3.800000e+001
      vertex   -4.863327e+001 4.423283e+001 3.800000e+001
    endloop
  endfacet
  facet normal -1.000000e+000 -0.000000e+000 -0.000000e+000
    outer loop
      vertex   -4.863327e+001 4.423283e+001 3.645230e+001
      vertex   -4.863327e+001 4.501403e+001 3.084508e+001
      vertex   -4.863327e+001 3.994712e+001 3.800000e+001
    endloop
  endfacet
  facet normal -1.000000e+000 0.000000e+000 -0.000000e+000
    outer loop
      vertex   -4.863327e+001 4.423283e+001 3.645230e+001
      vertex   -4.863327e+001 4.851855e+001 3.645230e+001
      vertex   -4.863327e+001 4.501403e+001 3.084508e+001
    endloop
  endfacet
  facet normal -1.000000e+000 0.000000e+000 0.000000e+000
    outer loop
      vertex   -4.863327e+001 5.708998e+001 3.645230e+001
      vertex   -4.863327e+001 5.708998e+001 3.800000e+001
      vertex   -4.863327e+001 6.137569e+001 3.645230e+001
    endloop
  endfacet
  facet normal -1.000000e+000 0.000000e+000 0.000000e+000
    outer loop
      vertex   -4.863327e+001 6.137569e+001 3.645230e+001
      vertex   -4.863327e+001 5.708998e+001 3.800000e+001
      vertex   -4.863327e+001 6.137569e+001 3.800000e+001
    endloop
  endfacet
endsolid
