<?xml version="1.0" encoding="UTF-8" standalone="no"?>
<!-- Created with Inkscape (http://www.inkscape.org/) -->

<svg
   version="1.1"
   id="svg1"
   width="380"
   height="577.33331"
   viewBox="0 0 380 577.33331"
   sodipodi:docname="CMS_buffer.svg"
   inkscape:version="1.3 (0e150ed, 2023-07-21)"
   xmlns:inkscape="http://www.inkscape.org/namespaces/inkscape"
   xmlns:sodipodi="http://sodipodi.sourceforge.net/DTD/sodipodi-0.dtd"
   xmlns="http://www.w3.org/2000/svg"
   xmlns:svg="http://www.w3.org/2000/svg">
  <defs
     id="defs1" />
  <sodipodi:namedview
     id="namedview1"
     pagecolor="#ffffff"
     bordercolor="#000000"
     borderopacity="0.25"
     inkscape:showpageshadow="2"
     inkscape:pageopacity="0.0"
     inkscape:pagecheckerboard="0"
     inkscape:deskcolor="#d1d1d1"
     inkscape:zoom="0.40877599"
     inkscape:cx="189.59039"
     inkscape:cy="288.66666"
     inkscape:window-width="1440"
     inkscape:window-height="449"
     inkscape:window-x="0"
     inkscape:window-y="25"
     inkscape:window-maximized="0"
     inkscape:current-layer="g1">
    <inkscape:page
       x="0"
       y="0"
       inkscape:label="1"
       id="page1"
       width="380"
       height="577.33331"
       margin="0"
       bleed="0" />
  </sodipodi:namedview>
  <g
     id="g1"
     inkscape:groupmode="layer"
     inkscape:label="1">
    <path
       id="path1"
       d="m 28.418,14.1719 h 2806.25 v 4294.42 H 28.418 Z"
       style="fill:#ffffff;fill-opacity:1;fill-rule:nonzero;stroke:#000000;stroke-width:28.346;stroke-linecap:butt;stroke-linejoin:miter;stroke-miterlimit:10;stroke-dasharray:none;stroke-opacity:1"
       transform="matrix(0.13333333,0,0,-0.13333333,0,577.33333)" />
    <path
       id="path2"
       d="M 28.418,3770.02 H 2806.32"
       style="fill:none;stroke:#000000;stroke-width:28.346;stroke-linecap:butt;stroke-linejoin:miter;stroke-miterlimit:10;stroke-dasharray:none;stroke-opacity:1"
       transform="matrix(0.13333333,0,0,-0.13333333,0,577.33333)" />
    <path
       id="path3"
       d="M 14.2461,2324.37 2820.5,2310.2"
       style="fill:none;stroke:#000000;stroke-width:28.346;stroke-linecap:butt;stroke-linejoin:miter;stroke-miterlimit:10;stroke-dasharray:none;stroke-opacity:1"
       transform="matrix(0.13333333,0,0,-0.13333333,0,577.33333)" />
    <path
       id="path4"
       d="m 259.691,4041.28 v -44.59 h 26.989 c 9.164,0 15.949,1.84 20.347,5.5 4.426,3.67 6.637,9.28 6.637,16.83 0,7.61 -2.211,13.21 -6.637,16.83 -4.398,3.62 -11.183,5.43 -20.347,5.43 h -26.989 m 0,49.28 v -35.2 h 24.899 c 8.211,0 14.324,1.44 18.332,4.33 4.035,2.9 6.051,7.33 6.051,13.27 0,5.89 -2.016,10.29 -6.051,13.2 -4.008,2.93 -10.121,4.4 -18.332,4.4 h -24.899 m -16.425,14.08 h 42.535 c 12.683,0 22.449,-2.58 29.293,-7.74 6.871,-5.15 10.304,-12.49 10.304,-22 0,-7.36 -1.734,-13.22 -5.207,-17.6 -3.468,-4.35 -8.566,-7.06 -15.289,-8.14 7.969,-1.76 14.153,-5.44 18.555,-11.03 4.422,-5.58 6.637,-12.56 6.637,-20.94 0,-11.03 -3.692,-19.54 -11.074,-25.56 -7.383,-6.01 -17.895,-9.02 -31.536,-9.02 h -44.218 v 122.03"
       style="fill:#000000;fill-opacity:1;fill-rule:nonzero;stroke:none"
       transform="matrix(0.13333333,0,0,-0.13333333,0,577.33333)" />
    <path
       id="path5"
       d="m 360.863,4018.77 v 55.36 h 14.082 v -54.81 c 0,-9.1 1.782,-15.93 5.352,-20.5 3.57,-4.55 8.933,-6.82 16.098,-6.82 8.578,0 15.363,2.7 20.347,8.1 4.988,5.43 7.481,12.81 7.481,22.15 v 51.88 h 14.082 v -91.52 h -14.082 v 14.08 c -3.762,-5.55 -8.125,-9.68 -13.09,-12.39 -4.938,-2.69 -10.68,-4.03 -17.231,-4.03 -10.832,0 -19.043,3.26 -24.64,9.79 -5.598,6.55 -8.399,16.12 -8.399,28.71"
       style="fill:#000000;fill-opacity:1;fill-rule:nonzero;stroke:none"
       transform="matrix(0.13333333,0,0,-0.13333333,0,577.33333)" />
    <path
       id="path6"
       d="m 515.848,4111.68 v -11.73 h -13.164 c -5.621,0 -9.532,-1.23 -11.731,-3.67 -2.176,-2.42 -3.265,-6.8 -3.265,-13.13 v -9.02 H 513.5 v -11.73 h -25.812 v -79.79 h -14.079 v 79.79 h -14.082 v 11.73 h 14.082 v 7.15 c 0,10.59 2.336,18.3 7.004,23.14 4.668,4.84 12.086,7.26 22.254,7.26 h 12.981"
       style="fill:#000000;fill-opacity:1;fill-rule:nonzero;stroke:none"
       transform="matrix(0.13333333,0,0,-0.13333333,0,577.33333)" />
    <path
       id="path7"
       d="m 575.848,4111.68 v -11.73 h -13.164 c -5.621,0 -9.532,-1.23 -11.731,-3.67 -2.176,-2.42 -3.265,-6.8 -3.265,-13.13 v -9.02 H 573.5 v -11.73 h -25.812 v -79.79 h -14.079 v 79.79 h -14.082 v 11.73 h 14.082 v 7.15 c 0,10.59 2.332,18.3 7.004,23.14 4.668,4.84 12.086,7.26 22.254,7.26 h 12.981"
       style="fill:#000000;fill-opacity:1;fill-rule:nonzero;stroke:none"
       transform="matrix(0.13333333,0,0,-0.13333333,0,577.33333)" />
    <path
       id="path8"
       d="m 671.047,4032.19 v -7.34 h -70.399 c 0.661,-10.68 3.79,-18.83 9.387,-24.45 5.598,-5.6 13.383,-8.4 23.356,-8.4 5.793,0 11.402,0.78 16.828,2.35 5.429,1.56 10.804,3.91 16.133,7.04 v -14.08 c -5.45,-2.3 -11.036,-4.05 -16.754,-5.25 -5.723,-1.19 -11.516,-1.79 -17.379,-1.79 -14.766,0 -26.461,4.25 -35.09,12.76 -8.606,8.51 -12.906,20.01 -12.906,34.5 0,15.01 4.14,26.91 12.429,35.71 8.286,8.83 19.457,13.24 33.512,13.24 12.59,0 22.551,-3.97 29.883,-11.92 7.332,-7.94 11,-18.74 11,-32.37 m -14.082,4.4 c -0.121,8.55 -2.527,15.38 -7.223,20.49 -4.668,5.11 -10.851,7.67 -18.551,7.67 -8.726,0 -15.718,-2.47 -20.972,-7.41 -5.258,-4.94 -8.278,-11.88 -9.059,-20.83 l 55.805,0.08"
       style="fill:#000000;fill-opacity:1;fill-rule:nonzero;stroke:none"
       transform="matrix(0.13333333,0,0,-0.13333333,0,577.33333)" />
    <path
       id="path9"
       d="m 750.832,4060.05 c -1.762,1.61 -3.668,2.8 -5.719,3.56 -2.054,0.76 -4.328,1.14 -6.82,1.14 -8.801,0 -15.559,-2.93 -20.277,-8.77 -4.719,-5.82 -7.078,-14.18 -7.078,-25.08 v -48.29 h -14.079 v 91.52 h 14.079 v -14.08 c 3.253,5.55 7.503,9.67 12.761,12.36 5.281,2.71 11.66,4.07 19.141,4.07 1.098,0 2.285,0 3.555,0 1.296,0 2.738,0 4.328,0 l 0.109,-16.43"
       style="fill:#000000;fill-opacity:1;fill-rule:nonzero;stroke:none"
       transform="matrix(0.13333333,0,0,-0.13333333,0,577.33333)" />
    <path
       id="path10"
       d="m 824.059,4104.64 h 22.695 l 54.742,-102.08 v 102.08 h 16.426 v -122.03 h -22.695 l -54.743,102.08 v -102.08 h -16.425 v 122.03"
       style="fill:#000000;fill-opacity:1;fill-rule:nonzero;stroke:none"
       transform="matrix(0.13333333,0,0,-0.13333333,0,577.33333)" />
    <path
       id="path11"
       d="m 994.391,4029.55 c -12.688,0 -21.473,-1.47 -26.364,-4.41 -4.886,-2.9 -7.332,-7.87 -7.332,-14.88 0,-5.6 1.832,-10.05 5.5,-13.35 3.664,-3.27 8.653,-4.91 14.961,-4.91 8.699,0 15.68,3.11 20.934,9.31 5.26,6.24 7.88,14.51 7.88,24.83 v 3.41 h -15.579 m 29.659,6.19 v -53.13 h -14.08 v 14.08 c -3.47,-5.62 -7.82,-9.76 -13.048,-12.43 -5.207,-2.66 -11.574,-3.99 -19.106,-3.99 -9.531,0 -17.121,2.66 -22.769,7.99 -5.621,5.33 -8.434,12.48 -8.434,21.45 0,10.44 3.461,18.31 10.379,23.61 6.918,5.31 17.246,7.96 30.981,7.96 h 21.997 v 1.5 c 0,6.99 -2.29,12.4 -6.89,16.21 -4.596,3.84 -11.072,5.76 -19.432,5.76 -5.304,0 -10.476,-0.59 -15.511,-1.77 -5.012,-1.17 -9.836,-2.93 -14.481,-5.27 v 14.08 c 5.5,1.56 10.828,2.73 15.985,3.51 5.16,0.79 10.183,1.18 15.07,1.18 13.199,0 23.049,-3.37 29.559,-10.12 6.52,-6.72 9.78,-16.93 9.78,-30.62"
       style="fill:#000000;fill-opacity:1;fill-rule:nonzero;stroke:none"
       transform="matrix(0.13333333,0,0,-0.13333333,0,577.33333)" />
    <path
       id="path12"
       d="m 1131.96,4056.68 c 3.89,6.75 8.51,11.73 13.86,14.96 5.38,3.23 11.69,4.84 18.92,4.84 9.8,0 17.36,-3.34 22.66,-10.01 5.31,-6.67 7.96,-16.18 7.96,-28.53 v -55.33 h -14.08 v 54.85 c 0,9.25 -1.65,16.1 -4.95,20.58 -3.3,4.47 -8.35,6.71 -15.14,6.71 -8.27,0 -14.81,-2.72 -19.62,-8.14 -4.82,-5.43 -7.22,-12.82 -7.22,-22.19 v -51.81 h -14.08 v 54.85 c 0,9.29 -1.66,16.17 -4.99,20.61 -3.3,4.45 -8.39,6.68 -15.25,6.68 -8.19,0 -14.69,-2.73 -19.51,-8.18 -4.79,-5.45 -7.19,-12.84 -7.19,-22.15 v -51.81 h -14.08 v 91.52 h 14.08 v -14.08 c 3.55,5.6 7.8,9.73 12.76,12.4 4.96,2.68 10.86,4.03 17.68,4.03 6.84,0 12.67,-1.69 17.49,-5.06 4.84,-3.37 8.4,-8.29 10.7,-14.74"
       style="fill:#000000;fill-opacity:1;fill-rule:nonzero;stroke:none"
       transform="matrix(0.13333333,0,0,-0.13333333,0,577.33333)" />
    <path
       id="path13"
       d="m 1307.04,4032.19 v -7.34 h -70.4 c 0.66,-10.68 3.79,-18.83 9.38,-24.45 5.6,-5.6 13.39,-8.4 23.36,-8.4 5.79,0 11.4,0.78 16.83,2.35 5.43,1.56 10.81,3.91 16.13,7.04 v -14.08 c -5.45,-2.3 -11.04,-4.05 -16.75,-5.25 -5.72,-1.19 -11.52,-1.79 -17.38,-1.79 -14.77,0 -26.46,4.25 -35.09,12.76 -8.61,8.51 -12.91,20.01 -12.91,34.5 0,15.01 4.15,26.91 12.43,35.71 8.29,8.83 19.46,13.24 33.51,13.24 12.59,0 22.55,-3.97 29.89,-11.92 7.33,-7.94 11,-18.74 11,-32.37 m -14.08,4.4 c -0.12,8.55 -2.53,15.38 -7.23,20.49 -4.67,5.11 -10.85,7.67 -18.55,7.67 -8.73,0 -15.72,-2.47 -20.97,-7.41 -5.26,-4.94 -8.28,-11.88 -9.06,-20.83 l 55.81,0.08"
       style="fill:#000000;fill-opacity:1;fill-rule:nonzero;stroke:none"
       transform="matrix(0.13333333,0,0,-0.13333333,0,577.33333)" />
    <path
       id="path14"
       d="m 1385.7,4111.68 h 32.85 v -11.73 h -18.77 v -126.72 h 18.77 v -11.74 h -32.85 v 150.19"
       style="fill:#000000;fill-opacity:1;fill-rule:nonzero;stroke:none"
       transform="matrix(0.13333333,0,0,-0.13333333,0,577.33333)" />
    <path
       id="path15"
       d="m 1505.7,4048.91 c 8.46,-1.69 15.07,-5.22 19.84,-10.6 4.76,-5.38 7.15,-12.01 7.15,-19.91 0,-12.15 -4.24,-21.55 -12.73,-28.2 -8.46,-6.62 -20.48,-9.93 -36.08,-9.93 -5.23,0 -10.62,0.58 -16.17,1.76 -5.52,1.17 -11.24,2.93 -17.16,5.28 v 16.42 c 4.7,-3.08 9.84,-5.41 15.44,-7 5.62,-1.59 11.47,-2.38 17.56,-2.38 10.66,0 18.78,2.04 24.35,6.12 5.57,4.11 8.36,10.06 8.36,17.86 0,7.18 -2.69,12.81 -8.07,16.86 -5.35,4.06 -12.8,6.09 -22.33,6.09 h -14.19 v 14.08 h 14.85 c 8.09,0 14.29,1.59 18.59,4.77 4.3,3.17 6.46,7.75 6.46,13.71 0,6.14 -2.23,10.84 -6.68,14.12 -4.42,3.29 -10.76,4.95 -19.03,4.95 -4.37,0 -9.07,-0.38 -14.08,-1.14 -5.01,-0.76 -10.52,-1.95 -16.53,-3.56 v 14.08 c 6.18,1.57 11.96,2.74 17.34,3.52 5.4,0.78 10.5,1.17 15.29,1.17 12.34,0 22.11,-2.83 29.3,-8.5 7.21,-5.65 10.81,-13.28 10.81,-22.92 0,-6.72 -1.93,-12.39 -5.79,-17.01 -3.86,-4.62 -9.36,-7.84 -16.5,-9.64"
       style="fill:#000000;fill-opacity:1;fill-rule:nonzero;stroke:none"
       transform="matrix(0.13333333,0,0,-0.13333333,0,577.33333)" />
    <path
       id="path16"
       d="m 1580.5,3996.69 h 58.55 v -14.08 h -78.1 v 14.08 c 6.33,6.46 14.97,15.13 25.93,26.04 10.97,10.9 17.86,17.93 20.67,21.08 5.36,5.92 9.1,10.92 11.22,15.03 2.13,4.11 3.19,8.14 3.19,12.1 0,6.48 -2.33,11.76 -7,15.84 -4.67,4.08 -10.75,6.13 -18.26,6.13 -5.3,0 -10.91,-0.78 -16.83,-2.35 -5.89,-1.54 -12.2,-3.89 -18.92,-7.04 v 16.43 c 6.77,2.34 13.1,4.1 19,5.28 5.89,1.17 11.28,1.75 16.16,1.75 12.86,0 23.12,-3.16 30.77,-9.49 7.67,-6.31 11.51,-14.74 11.51,-25.3 0,-5.01 -0.96,-9.77 -2.89,-14.26 -1.91,-4.5 -5.37,-9.8 -10.38,-15.92 -1.42,-1.56 -5.84,-6.12 -13.28,-13.67 -7.4,-7.53 -17.85,-18.08 -31.34,-31.65"
       style="fill:#000000;fill-opacity:1;fill-rule:nonzero;stroke:none"
       transform="matrix(0.13333333,0,0,-0.13333333,0,577.33333)" />
    <path
       id="path17"
       d="m 1796.95,4071.79 v -14.08 c -4.25,2.34 -8.51,4.1 -12.76,5.27 -4.26,1.18 -8.55,1.77 -12.87,1.77 -9.73,0 -17.28,-3.2 -22.66,-9.57 -5.36,-6.38 -8.03,-15.32 -8.03,-26.81 0,-11.49 2.67,-20.42 8.03,-26.8 5.38,-6.38 12.93,-9.57 22.66,-9.57 4.32,0 8.61,0.59 12.87,1.76 4.25,1.17 8.51,2.93 12.76,5.28 v -14.08 c -4.21,-1.57 -8.57,-2.74 -13.09,-3.52 -4.52,-0.78 -9.33,-1.17 -14.41,-1.17 -13.84,0 -24.84,4.32 -33,12.98 -8.16,8.68 -12.25,20.38 -12.25,35.12 0,14.94 4.12,26.68 12.36,35.24 8.26,8.58 19.55,12.87 33.88,12.87 4.64,0 9.18,-0.39 13.6,-1.18 4.45,-0.78 8.75,-1.95 12.91,-3.51"
       style="fill:#000000;fill-opacity:1;fill-rule:nonzero;stroke:none"
       transform="matrix(0.13333333,0,0,-0.13333333,0,577.33333)" />
    <path
       id="path18"
       d="m 1904.68,4037.94 v -55.33 h -14.08 v 54.85 c 0,9.12 -1.8,15.94 -5.39,20.47 -3.57,4.54 -8.93,6.82 -16.1,6.82 -8.6,0 -15.38,-2.72 -20.35,-8.14 -4.96,-5.43 -7.44,-12.82 -7.44,-22.19 v -51.81 h -14.08 v 129.07 h 14.08 v -51.63 c 3.69,5.5 8.04,9.61 13.06,12.32 5.03,2.74 10.82,4.11 17.37,4.11 10.86,0 19.06,-3.27 24.61,-9.79 5.55,-6.5 8.32,-16.08 8.32,-28.75"
       style="fill:#000000;fill-opacity:1;fill-rule:nonzero;stroke:none"
       transform="matrix(0.13333333,0,0,-0.13333333,0,577.33333)" />
    <path
       id="path19"
       d="m 1978.38,4029.55 c -12.69,0 -21.48,-1.47 -26.37,-4.41 -4.88,-2.9 -7.33,-7.87 -7.33,-14.88 0,-5.6 1.83,-10.05 5.5,-13.35 3.66,-3.27 8.65,-4.91 14.96,-4.91 8.7,0 15.68,3.11 20.93,9.31 5.26,6.24 7.89,14.51 7.89,24.83 v 3.41 h -15.58 m 29.66,6.19 v -53.13 h -14.08 v 14.08 c -3.47,-5.62 -7.82,-9.76 -13.05,-12.43 -5.21,-2.66 -11.58,-3.99 -19.11,-3.99 -9.53,0 -17.12,2.66 -22.77,7.99 -5.62,5.33 -8.43,12.48 -8.43,21.45 0,10.44 3.46,18.31 10.38,23.61 6.91,5.31 17.24,7.96 30.98,7.96 h 22 v 1.5 c 0,6.99 -2.3,12.4 -6.89,16.21 -4.6,3.84 -11.08,5.76 -19.44,5.76 -5.3,0 -10.47,-0.59 -15.51,-1.77 -5.01,-1.17 -9.83,-2.93 -14.48,-5.27 v 14.08 c 5.5,1.56 10.83,2.73 15.99,3.51 5.15,0.79 10.17,1.18 15.07,1.18 13.19,0 23.05,-3.37 29.55,-10.12 6.52,-6.72 9.79,-16.93 9.79,-30.62"
       style="fill:#000000;fill-opacity:1;fill-rule:nonzero;stroke:none"
       transform="matrix(0.13333333,0,0,-0.13333333,0,577.33333)" />
    <path
       id="path20"
       d="m 2097.21,4060.05 c -1.76,1.61 -3.67,2.8 -5.72,3.56 -2.05,0.76 -4.33,1.14 -6.82,1.14 -8.8,0 -15.56,-2.93 -20.28,-8.77 -4.71,-5.82 -7.07,-14.18 -7.07,-25.08 v -48.29 h -14.08 v 91.52 h 14.08 v -14.08 c 3.25,5.55 7.5,9.67 12.76,12.36 5.28,2.71 11.66,4.07 19.13,4.07 1.11,0 2.29,0 3.56,0 1.3,0 2.74,0 4.33,0 l 0.11,-16.43"
       style="fill:#000000;fill-opacity:1;fill-rule:nonzero;stroke:none"
       transform="matrix(0.13333333,0,0,-0.13333333,0,577.33333)" />
    <path
       id="path21"
       d="m 2148.09,4111.68 v -150.19 h -32.86 v 11.74 h 18.78 v 126.72 h -18.78 v 11.73 h 32.86"
       style="fill:#000000;fill-opacity:1;fill-rule:nonzero;stroke:none"
       transform="matrix(0.13333333,0,0,-0.13333333,0,577.33333)" />
    <path
       id="path22"
       d="m 292.266,3542.5 v -16.42 c -5.645,4.72 -11.661,8.24 -18.039,10.56 -6.356,2.34 -13.141,3.52 -20.352,3.52 -14.129,0 -24.957,-4.23 -32.484,-12.69 -7.504,-8.45 -11.258,-20.67 -11.258,-36.63 0,-15.91 3.754,-28.1 11.258,-36.55 7.527,-8.46 18.355,-12.69 32.484,-12.69 7.211,0 13.996,1.16 20.352,3.48 6.378,2.35 12.394,5.88 18.039,10.6 v -16.43 c -5.793,-3.91 -11.93,-6.84 -18.407,-8.8 -6.453,-1.95 -13.285,-2.93 -20.496,-2.93 -18.504,0 -33.074,5.66 -43.707,16.98 -10.633,11.31 -15.949,26.76 -15.949,46.34 0,19.63 5.316,35.11 15.949,46.42 10.633,11.32 25.203,16.98 43.707,16.98 7.332,0 14.227,-0.99 20.68,-2.97 6.477,-1.96 12.551,-4.88 18.223,-8.77"
       style="fill:#000000;fill-opacity:1;fill-rule:nonzero;stroke:none"
       transform="matrix(0.13333333,0,0,-0.13333333,0,577.33333)" />
    <path
       id="path23"
       d="m 320.746,3551.89 h 25.043 l 31.238,-83.05 31.387,83.05 h 24.969 v -122.02 h -16.426 v 107.17 l -31.57,-83.71 h -16.645 l -31.57,83.71 v -107.17 h -16.426 v 122.02"
       style="fill:#000000;fill-opacity:1;fill-rule:nonzero;stroke:none"
       transform="matrix(0.13333333,0,0,-0.13333333,0,577.33333)" />
    <path
       id="path24"
       d="m 544.637,3547.2 v -16.43 c -6.407,3.18 -12.457,5.54 -18.153,7.08 -5.695,1.54 -11.183,2.31 -16.461,2.31 -9.214,0 -16.316,-1.77 -21.304,-5.32 -4.961,-3.54 -7.442,-8.57 -7.442,-15.07 0,-5.47 1.672,-9.62 5.024,-12.43 3.347,-2.79 9.715,-5.03 19.101,-6.75 l 10.34,-2.05 c 12.27,-2.32 21.328,-6.39 27.168,-12.21 5.844,-5.79 8.766,-13.58 8.766,-23.35 0,-11.64 -4.035,-20.46 -12.102,-26.48 -8.039,-5.98 -19.847,-8.98 -35.418,-8.98 -5.867,0 -12.113,0.6 -18.738,1.8 -6.625,1.17 -13.48,2.92 -20.57,5.24 v 16.42 c 6.918,-3.12 13.703,-5.47 20.351,-7.03 6.649,-1.57 13.176,-2.35 19.578,-2.35 9.731,0 17.235,1.77 22.516,5.32 5.305,3.54 7.957,8.59 7.957,15.14 0,5.74 -1.906,10.23 -5.723,13.46 -3.812,3.25 -10.07,5.68 -18.773,7.29 l -10.41,1.94 c -12.516,2.5 -21.563,6.41 -27.133,11.74 -5.574,5.33 -8.363,12.75 -8.363,22.26 0,11 3.863,19.66 11.59,25.99 7.722,6.33 18.367,9.5 31.933,9.5 5.793,0 11.711,-0.59 17.746,-1.76 6.039,-1.15 12.211,-2.91 18.52,-5.28"
       style="fill:#000000;fill-opacity:1;fill-rule:nonzero;stroke:none"
       transform="matrix(0.13333333,0,0,-0.13333333,0,577.33333)" />
    <path
       id="path25"
       d="m 635.141,3551.89 h 16.425 v -49.28 h 61.012 v 49.28 h 16.43 v -122.02 h -16.43 v 58.66 h -61.012 v -58.66 h -16.425 v 122.02"
       style="fill:#000000;fill-opacity:1;fill-rule:nonzero;stroke:none"
       transform="matrix(0.13333333,0,0,-0.13333333,0,577.33333)" />
    <path
       id="path26"
       d="m 844.523,3479.44 v -7.33 h -70.398 c 0.66,-10.69 3.789,-18.84 9.387,-24.46 5.597,-5.6 13.383,-8.4 23.355,-8.4 5.793,0 11.403,0.79 16.832,2.35 5.426,1.56 10.801,3.91 16.133,7.04 v -14.08 c -5.453,-2.3 -11.039,-4.04 -16.758,-5.24 -5.719,-1.2 -11.511,-1.8 -17.379,-1.8 -14.765,0 -26.461,4.25 -35.09,12.76 -8.605,8.51 -12.906,20.01 -12.906,34.5 0,15.01 4.141,26.92 12.43,35.72 8.285,8.82 19.457,13.23 33.512,13.23 12.589,0 22.55,-3.97 29.882,-11.91 7.332,-7.95 11,-18.74 11,-32.38 m -14.078,4.4 c -0.125,8.55 -2.531,15.39 -7.222,20.5 -4.672,5.11 -10.856,7.66 -18.555,7.66 -8.727,0 -15.719,-2.47 -20.973,-7.41 -5.257,-4.93 -8.273,-11.88 -9.058,-20.82 l 55.808,0.07"
       style="fill:#000000;fill-opacity:1;fill-rule:nonzero;stroke:none"
       transform="matrix(0.13333333,0,0,-0.13333333,0,577.33333)" />
    <path
       id="path27"
       d="m 911.074,3476.8 c -12.687,0 -21.476,-1.47 -26.363,-4.4 -4.891,-2.91 -7.336,-7.87 -7.336,-14.89 0,-5.6 1.836,-10.05 5.5,-13.34 3.668,-3.28 8.656,-4.92 14.961,-4.92 8.703,0 15.68,3.11 20.937,9.32 5.254,6.23 7.883,14.5 7.883,24.82 v 3.41 h -15.582 m 29.66,6.2 v -53.13 h -14.078 v 14.08 c -3.472,-5.63 -7.824,-9.77 -13.054,-12.43 -5.207,-2.67 -11.575,-4 -19.102,-4 -9.535,0 -17.125,2.66 -22.77,7.99 -5.625,5.33 -8.433,12.48 -8.433,21.45 0,10.44 3.457,18.31 10.375,23.61 6.918,5.31 17.246,7.96 30.984,7.96 h 22 v 1.51 c 0,6.99 -2.297,12.39 -6.894,16.2 -4.594,3.84 -11.074,5.76 -19.434,5.76 -5.305,0 -10.473,-0.59 -15.508,-1.76 -5.011,-1.17 -9.84,-2.94 -14.484,-5.28 v 14.08 c 5.5,1.56 10.828,2.74 15.988,3.52 5.156,0.78 10.18,1.17 15.067,1.17 13.203,0 23.054,-3.37 29.554,-10.12 6.528,-6.72 9.789,-16.93 9.789,-30.61"
       style="fill:#000000;fill-opacity:1;fill-rule:nonzero;stroke:none"
       transform="matrix(0.13333333,0,0,-0.13333333,0,577.33333)" />
    <path
       id="path28"
       d="m 1036.95,3507.3 v 51.63 h 14.08 v -129.06 h -14.08 v 14.08 c -3.23,-5.58 -7.3,-9.71 -12.21,-12.4 -4.92,-2.69 -10.81,-4.03 -17.68,-4.03 -11.29,0 -20.482,4.41 -27.568,13.24 -7.066,8.85 -10.597,20.47 -10.597,34.87 0,14.39 3.531,26 10.597,34.83 7.086,8.85 16.278,13.27 27.568,13.27 6.87,0 12.76,-1.34 17.68,-4.03 4.91,-2.69 8.98,-6.82 12.21,-12.4 m -51.63,-31.64 c 0,-11.36 2.285,-20.27 6.86,-26.73 4.593,-6.45 10.9,-9.68 18.92,-9.68 8.02,0 14.32,3.23 18.92,9.68 4.62,6.46 6.93,15.37 6.93,26.73 0,11.34 -2.31,20.23 -6.93,26.66 -4.6,6.45 -10.9,9.68 -18.92,9.68 -8.02,0 -14.327,-3.23 -18.92,-9.68 -4.575,-6.43 -6.86,-15.32 -6.86,-26.66"
       style="fill:#000000;fill-opacity:1;fill-rule:nonzero;stroke:none"
       transform="matrix(0.13333333,0,0,-0.13333333,0,577.33333)" />
    <path
       id="path29"
       d="m 1166.12,3479.44 v -7.33 h -70.4 c 0.66,-10.69 3.79,-18.84 9.39,-24.46 5.59,-5.6 13.38,-8.4 23.35,-8.4 5.79,0 11.41,0.79 16.83,2.35 5.43,1.56 10.81,3.91 16.14,7.04 v -14.08 c -5.46,-2.3 -11.04,-4.04 -16.76,-5.24 -5.72,-1.2 -11.51,-1.8 -17.38,-1.8 -14.77,0 -26.46,4.25 -35.09,12.76 -8.61,8.51 -12.91,20.01 -12.91,34.5 0,15.01 4.15,26.92 12.43,35.72 8.29,8.82 19.46,13.23 33.51,13.23 12.59,0 22.56,-3.97 29.89,-11.91 7.33,-7.95 11,-18.74 11,-32.38 m -14.08,4.4 c -0.12,8.55 -2.53,15.39 -7.22,20.5 -4.67,5.11 -10.86,7.66 -18.56,7.66 -8.72,0 -15.72,-2.47 -20.97,-7.41 -5.25,-4.93 -8.27,-11.88 -9.06,-20.82 l 55.81,0.07"
       style="fill:#000000;fill-opacity:1;fill-rule:nonzero;stroke:none"
       transform="matrix(0.13333333,0,0,-0.13333333,0,577.33333)" />
    <path
       id="path30"
       d="m 1245.9,3507.3 c -1.76,1.62 -3.66,2.81 -5.72,3.56 -2.05,0.76 -4.32,1.14 -6.82,1.14 -8.8,0 -15.56,-2.92 -20.27,-8.77 -4.72,-5.81 -7.08,-14.17 -7.08,-25.07 v -48.29 h -14.08 v 91.52 h 14.08 v -14.09 c 3.25,5.56 7.51,9.67 12.76,12.36 5.28,2.72 11.66,4.07 19.14,4.07 1.1,0 2.29,0 3.56,0 1.29,0 2.74,0 4.32,0 l 0.11,-16.43"
       style="fill:#000000;fill-opacity:1;fill-rule:nonzero;stroke:none"
       transform="matrix(0.13333333,0,0,-0.13333333,0,577.33333)" />
    <path
       id="path31"
       d="m 1387.18,3415.79 v -11.74 h -4.95 c -12.95,0 -21.63,2 -26.03,5.98 -4.38,3.99 -6.56,11.93 -6.56,23.83 v 18.59 c 0,8.29 -1.5,14.02 -4.48,17.2 -2.98,3.2 -8.41,4.8 -16.28,4.8 h -5.06 v 11.74 h 5.06 c 7.92,0 13.36,1.6 16.32,4.8 2.96,3.22 4.44,8.99 4.44,17.31 v 20.09 c 0,12.22 2.18,20.36 6.56,24.42 4.4,4.08 13.08,6.12 26.03,6.12 h 4.95 v -11.73 h -5.39 c -7.48,0 -12.37,-1.24 -14.66,-3.7 -2.28,-2.45 -3.42,-7.61 -3.42,-15.48 v -20.75 c 0,-8.7 -1.16,-15.04 -3.48,-18.99 -2.32,-3.94 -6.29,-6.6 -11.91,-8 5.67,-1.46 9.65,-4.1 11.95,-7.92 2.3,-3.79 3.44,-9.87 3.44,-18.26 v -19.91 c 0,-7.55 1.14,-12.5 3.42,-14.85 2.29,-2.37 7.18,-3.55 14.66,-3.55 h 5.39"
       style="fill:#000000;fill-opacity:1;fill-rule:nonzero;stroke:none"
       transform="matrix(0.13333333,0,0,-0.13333333,0,577.33333)" />
    <path
       id="path32"
       d="m 1474.79,3260.59 c 3.42,-1.2 6.73,-3.79 9.93,-7.77 3.23,-3.96 6.48,-9.41 9.75,-16.36 l 16.87,-33.36 h -17.78 l -14.78,31.35 c -4.21,8.16 -8.29,13.58 -12.24,16.24 -3.97,2.69 -9.36,4.03 -16.18,4.03 h -18.81 v -51.62 h -16.42 v 122.03 h 38.13 c 13.98,0 24.42,-2.92 31.31,-8.73 6.89,-5.79 10.34,-14.55 10.34,-26.26 0,-7.65 -1.71,-14 -5.13,-19.06 -3.42,-5.04 -8.42,-8.53 -14.99,-10.49 m -43.24,50.45 v -42.24 h 21.71 c 8.34,0 14.62,1.8 18.85,5.4 4.25,3.59 6.38,8.85 6.38,15.8 0,6.96 -2.13,12.21 -6.38,15.73 -4.23,3.54 -10.51,5.31 -18.85,5.31 h -21.71"
       style="fill:#000000;fill-opacity:1;fill-rule:nonzero;stroke:none"
       transform="matrix(0.13333333,0,0,-0.13333333,0,577.33333)" />
    <path
       id="path33"
       d="m 1607.71,3252.67 v -7.33 h -70.4 c 0.66,-10.68 3.79,-18.84 9.39,-24.46 5.6,-5.59 13.38,-8.4 23.35,-8.4 5.8,0 11.41,0.79 16.84,2.35 5.42,1.56 10.8,3.91 16.13,7.04 v -14.08 c -5.45,-2.3 -11.04,-4.04 -16.76,-5.24 -5.72,-1.2 -11.51,-1.8 -17.38,-1.8 -14.76,0 -26.46,4.25 -35.09,12.76 -8.6,8.51 -12.9,20.01 -12.9,34.51 0,15 4.14,26.91 12.43,35.71 8.28,8.82 19.45,13.23 33.51,13.23 12.59,0 22.55,-3.97 29.88,-11.91 7.34,-7.95 11,-18.74 11,-32.38 m -14.08,4.4 c -0.12,8.56 -2.53,15.39 -7.22,20.5 -4.67,5.11 -10.86,7.66 -18.55,7.66 -8.73,0 -15.72,-2.47 -20.98,-7.41 -5.25,-4.93 -8.27,-11.87 -9.06,-20.82 l 55.81,0.07"
       style="fill:#000000;fill-opacity:1;fill-rule:nonzero;stroke:none"
       transform="matrix(0.13333333,0,0,-0.13333333,0,577.33333)" />
    <path
       id="path34"
       d="m 1674.26,3250.03 c -12.69,0 -21.47,-1.46 -26.36,-4.4 -4.89,-2.91 -7.34,-7.87 -7.34,-14.88 0,-5.6 1.84,-10.05 5.5,-13.35 3.67,-3.28 8.66,-4.92 14.96,-4.92 8.71,0 15.68,3.11 20.94,9.32 5.25,6.23 7.88,14.5 7.88,24.82 v 3.41 h -15.58 m 29.66,6.2 v -53.13 h -14.08 v 14.08 c -3.47,-5.63 -7.82,-9.77 -13.05,-12.43 -5.21,-2.67 -11.58,-4 -19.1,-4 -9.54,0 -17.13,2.67 -22.77,8 -5.62,5.32 -8.44,12.47 -8.44,21.45 0,10.43 3.46,18.3 10.38,23.61 6.92,5.3 17.25,7.96 30.98,7.96 h 22 v 1.5 c 0,6.99 -2.29,12.39 -6.89,16.2 -4.59,3.84 -11.07,5.76 -19.43,5.76 -5.31,0 -10.48,-0.59 -15.51,-1.76 -5.01,-1.17 -9.84,-2.93 -14.49,-5.28 v 14.08 c 5.5,1.57 10.83,2.74 15.99,3.52 5.16,0.78 10.18,1.17 15.07,1.17 13.2,0 23.05,-3.37 29.55,-10.12 6.53,-6.72 9.79,-16.92 9.79,-30.61"
       style="fill:#000000;fill-opacity:1;fill-rule:nonzero;stroke:none"
       transform="matrix(0.13333333,0,0,-0.13333333,0,577.33333)" />
    <path
       id="path35"
       d="m 1800.14,3280.54 v 51.62 h 14.07 V 3203.1 h -14.07 v 14.08 c -3.23,-5.57 -7.3,-9.71 -12.21,-12.39 -4.92,-2.69 -10.81,-4.04 -17.68,-4.04 -11.29,0 -20.48,4.41 -27.57,13.24 -7.07,8.85 -10.6,20.47 -10.6,34.87 0,14.39 3.53,26.01 10.6,34.83 7.09,8.85 16.28,13.27 27.57,13.27 6.87,0 12.76,-1.34 17.68,-4.03 4.91,-2.69 8.98,-6.82 12.21,-12.39 m -51.63,-31.65 c 0,-11.36 2.28,-20.27 6.86,-26.73 4.59,-6.45 10.9,-9.68 18.92,-9.68 8.01,0 14.32,3.23 18.92,9.68 4.61,6.46 6.93,15.37 6.93,26.73 0,11.35 -2.32,20.23 -6.93,26.66 -4.6,6.45 -10.91,9.68 -18.92,9.68 -8.02,0 -14.33,-3.23 -18.92,-9.68 -4.58,-6.43 -6.86,-15.31 -6.86,-26.66"
       style="fill:#000000;fill-opacity:1;fill-rule:nonzero;stroke:none"
       transform="matrix(0.13333333,0,0,-0.13333333,0,577.33333)" />
    <path
       id="path36"
       d="m 1851.87,3224.22 h 16.42 v -13.93 l -11.73,-25.97 h -11.73 l 7.04,25.97 v 13.93"
       style="fill:#000000;fill-opacity:1;fill-rule:nonzero;stroke:none"
       transform="matrix(0.13333333,0,0,-0.13333333,0,577.33333)" />
    <path
       id="path37"
       d="m 1415.13,3098.36 h 25.04 l 31.24,-83.06 31.39,83.06 h 24.97 v -122.03 h -16.43 v 107.17 l -31.57,-83.7 h -16.64 l -31.58,83.7 v -107.17 h -16.42 v 122.03"
       style="fill:#000000;fill-opacity:1;fill-rule:nonzero;stroke:none"
       transform="matrix(0.13333333,0,0,-0.13333333,0,577.33333)" />
    <path
       id="path38"
       d="m 1643.71,3025.9 v -7.33 h -70.4 c 0.66,-10.68 3.79,-18.84 9.39,-24.46 5.6,-5.59 13.38,-8.4 23.35,-8.4 5.8,0 11.41,0.79 16.83,2.35 5.43,1.57 10.81,3.91 16.14,7.04 v -14.08 c -5.45,-2.29 -11.04,-4.04 -16.76,-5.24 -5.72,-1.2 -11.51,-1.8 -17.38,-1.8 -14.76,0 -26.46,4.26 -35.09,12.76 -8.6,8.51 -12.9,20.01 -12.9,34.51 0,15 4.14,26.91 12.43,35.71 8.28,8.83 19.45,13.24 33.51,13.24 12.59,0 22.55,-3.98 29.88,-11.92 7.33,-7.94 11,-18.74 11,-32.38 m -14.08,4.4 c -0.12,8.56 -2.53,15.39 -7.22,20.5 -4.67,5.11 -10.86,7.66 -18.55,7.66 -8.73,0 -15.72,-2.47 -20.98,-7.41 -5.25,-4.93 -8.27,-11.87 -9.06,-20.82 l 55.81,0.07"
       style="fill:#000000;fill-opacity:1;fill-rule:nonzero;stroke:none"
       transform="matrix(0.13333333,0,0,-0.13333333,0,577.33333)" />
    <path
       id="path39"
       d="m 1728.19,3065.5 v -14.08 c -4.4,2.35 -8.97,4.11 -13.71,5.28 -4.75,1.18 -9.65,1.76 -14.71,1.76 -7.72,0 -13.53,-1.17 -17.41,-3.52 -3.86,-2.34 -5.8,-5.87 -5.8,-10.56 0,-3.59 1.43,-6.42 4.3,-8.47 2.88,-2.03 8.65,-3.96 17.3,-5.79 l 5.54,-1.17 c 10.56,-2.3 18.06,-5.54 22.51,-9.72 4.45,-4.18 6.67,-10.02 6.67,-17.53 0,-8.53 -3.38,-15.29 -10.15,-20.27 -6.77,-4.97 -16.09,-7.45 -27.94,-7.45 -4.91,0 -10.05,0.4 -15.4,1.18 -5.35,0.78 -10.99,1.95 -16.91,3.52 v 16.42 c 5.72,-3.1 11.37,-5.45 16.94,-7.04 5.6,-1.56 11.13,-2.35 16.58,-2.35 7.33,0 12.96,1.25 16.9,3.75 3.94,2.51 5.9,6.05 5.9,10.59 0,4.23 -1.49,7.47 -4.47,9.72 -2.96,2.25 -9.42,4.41 -19.4,6.49 l -5.61,1.25 c -9.48,1.95 -16.32,4.96 -20.53,9.02 -4.2,4.06 -6.31,9.61 -6.31,16.68 0,8.63 3.11,15.28 9.32,19.95 6.23,4.69 15.07,7.04 26.51,7.04 5.69,0 11.03,-0.4 16.02,-1.18 5.01,-0.78 9.63,-1.95 13.86,-3.52"
       style="fill:#000000;fill-opacity:1;fill-rule:nonzero;stroke:none"
       transform="matrix(0.13333333,0,0,-0.13333333,0,577.33333)" />
    <path
       id="path40"
       d="m 1819.39,3065.5 v -14.08 c -4.4,2.35 -8.97,4.11 -13.71,5.28 -4.75,1.18 -9.65,1.76 -14.71,1.76 -7.72,0 -13.53,-1.17 -17.42,-3.52 -3.86,-2.34 -5.79,-5.87 -5.79,-10.56 0,-3.59 1.43,-6.42 4.29,-8.47 2.89,-2.03 8.66,-3.96 17.31,-5.79 l 5.53,-1.17 c 10.56,-2.3 18.07,-5.54 22.52,-9.72 4.45,-4.18 6.67,-10.02 6.67,-17.53 0,-8.53 -3.38,-15.29 -10.15,-20.27 -6.78,-4.97 -16.09,-7.45 -27.95,-7.45 -4.91,0 -10.04,0.4 -15.39,1.18 -5.36,0.78 -10.99,1.95 -16.91,3.52 v 16.42 c 5.72,-3.1 11.37,-5.45 16.94,-7.04 5.6,-1.56 11.12,-2.35 16.58,-2.35 7.33,0 12.96,1.25 16.9,3.75 3.94,2.51 5.9,6.05 5.9,10.59 0,4.23 -1.49,7.47 -4.47,9.72 -2.96,2.25 -9.42,4.41 -19.4,6.49 l -5.61,1.25 c -9.48,1.95 -16.33,4.96 -20.53,9.02 -4.2,4.06 -6.31,9.61 -6.31,16.68 0,8.63 3.11,15.28 9.32,19.95 6.23,4.69 15.07,7.04 26.5,7.04 5.7,0 11.04,-0.4 16.03,-1.18 5.01,-0.78 9.63,-1.95 13.86,-3.52"
       style="fill:#000000;fill-opacity:1;fill-rule:nonzero;stroke:none"
       transform="matrix(0.13333333,0,0,-0.13333333,0,577.33333)" />
    <path
       id="path41"
       d="m 1892.66,3023.26 c -12.69,0 -21.48,-1.46 -26.37,-4.4 -4.88,-2.91 -7.33,-7.87 -7.33,-14.88 0,-5.6 1.83,-10.05 5.5,-13.35 3.67,-3.27 8.65,-4.92 14.96,-4.92 8.7,0 15.68,3.11 20.94,9.32 5.25,6.23 7.88,14.51 7.88,24.82 v 3.41 h -15.58 m 29.66,6.2 v -53.13 h -14.08 v 14.08 c -3.47,-5.62 -7.82,-9.77 -13.05,-12.43 -5.21,-2.66 -11.58,-4 -19.11,-4 -9.53,0 -17.12,2.67 -22.77,8 -5.62,5.32 -8.43,12.48 -8.43,21.45 0,10.43 3.46,18.3 10.38,23.61 6.92,5.3 17.24,7.96 30.98,7.96 h 22 v 1.5 c 0,6.99 -2.3,12.39 -6.89,16.21 -4.6,3.83 -11.08,5.75 -19.44,5.75 -5.3,0 -10.47,-0.58 -15.51,-1.76 -5.01,-1.17 -9.83,-2.93 -14.48,-5.28 v 14.08 c 5.5,1.57 10.83,2.74 15.99,3.52 5.16,0.78 10.18,1.18 15.07,1.18 13.2,0 23.05,-3.38 29.55,-10.13 6.53,-6.71 9.79,-16.92 9.79,-30.61"
       style="fill:#000000;fill-opacity:1;fill-rule:nonzero;stroke:none"
       transform="matrix(0.13333333,0,0,-0.13333333,0,577.33333)" />
    <path
       id="path42"
       d="m 2018.53,3023.19 c 0,11.2 -2.27,19.87 -6.82,26.03 -4.52,6.16 -10.86,9.24 -19.03,9.24 -8.14,0 -14.47,-3.08 -18.99,-9.24 -4.52,-6.16 -6.78,-14.83 -6.78,-26.03 0,-11.1 2.26,-19.73 6.78,-25.89 4.52,-6.16 10.85,-9.24 18.99,-9.24 8.17,0 14.51,3.08 19.03,9.24 4.55,6.16 6.82,14.79 6.82,25.89 m 14.08,-36.26 c 0,-15.45 -3.45,-26.94 -10.34,-34.47 -6.87,-7.55 -17.4,-11.33 -31.61,-11.33 -5.25,0 -10.21,0.39 -14.88,1.17 -4.67,0.79 -9.19,1.96 -13.57,3.52 v 14.08 c 4.45,-2.39 8.85,-4.17 13.2,-5.31 4.35,-1.15 8.78,-1.73 13.27,-1.73 10,0 17.47,2.62 22.41,7.85 4.96,5.23 7.44,13.13 7.44,23.69 v 8.36 c -3.17,-5.5 -7.23,-9.62 -12.17,-12.36 -4.94,-2.71 -10.84,-4.07 -17.71,-4.07 -11.47,0 -20.69,4.28 -27.69,12.83 -6.99,8.58 -10.48,19.94 -10.48,34.07 0,14.17 3.49,25.54 10.48,34.09 7,8.59 16.22,12.88 27.69,12.88 6.87,0 12.77,-1.37 17.71,-4.11 4.94,-2.71 9,-6.82 12.17,-12.32 v 14.08 h 14.08 v -80.92"
       style="fill:#000000;fill-opacity:1;fill-rule:nonzero;stroke:none"
       transform="matrix(0.13333333,0,0,-0.13333333,0,577.33333)" />
    <path
       id="path43"
       d="m 2147.7,3025.9 v -7.33 h -70.4 c 0.66,-10.68 3.79,-18.84 9.39,-24.46 5.6,-5.59 13.38,-8.4 23.36,-8.4 5.79,0 11.4,0.79 16.83,2.35 5.42,1.57 10.8,3.91 16.13,7.04 v -14.08 c -5.45,-2.29 -11.04,-4.04 -16.76,-5.24 -5.71,-1.2 -11.51,-1.8 -17.37,-1.8 -14.77,0 -26.47,4.26 -35.09,12.76 -8.61,8.51 -12.91,20.01 -12.91,34.51 0,15 4.14,26.91 12.43,35.71 8.28,8.83 19.46,13.24 33.51,13.24 12.59,0 22.55,-3.98 29.88,-11.92 7.34,-7.94 11,-18.74 11,-32.38 m -14.07,4.4 c -0.13,8.56 -2.54,15.39 -7.23,20.5 -4.67,5.11 -10.85,7.66 -18.55,7.66 -8.73,0 -15.72,-2.47 -20.97,-7.41 -5.26,-4.93 -8.28,-11.87 -9.06,-20.82 l 55.81,0.07"
       style="fill:#000000;fill-opacity:1;fill-rule:nonzero;stroke:none"
       transform="matrix(0.13333333,0,0,-0.13333333,0,577.33333)" />
    <path
       id="path44"
       d="m 2228.71,3098.36 h 16.43 v -122.03 h -16.43 v 122.03"
       style="fill:#000000;fill-opacity:1;fill-rule:nonzero;stroke:none"
       transform="matrix(0.13333333,0,0,-0.13333333,0,577.33333)" />
    <path
       id="path45"
       d="m 2295.54,3084.28 v -93.87 H 2316 c 17.26,0 29.89,3.77 37.91,11.29 8.02,7.56 12.03,19.47 12.03,35.75 0,16.19 -4.01,28.03 -12.03,35.53 -8.02,7.53 -20.65,11.3 -37.91,11.3 h -20.46 m -16.43,14.08 h 34.29 c 23.76,0 41.19,-4.93 52.28,-14.78 11.12,-9.83 16.69,-25.2 16.69,-46.13 0,-21.02 -5.59,-36.47 -16.76,-46.34 -11.17,-9.86 -28.57,-14.78 -52.21,-14.78 h -34.29 v 122.03"
       style="fill:#000000;fill-opacity:1;fill-rule:nonzero;stroke:none"
       transform="matrix(0.13333333,0,0,-0.13333333,0,577.33333)" />
    <path
       id="path46"
       d="m 1415.13,2871.59 h 25.04 l 31.24,-83.05 31.39,83.05 h 24.97 v -122.03 h -16.43 v 107.18 l -31.57,-83.71 h -16.64 l -31.58,83.71 v -107.18 h -16.42 v 122.03"
       style="fill:#000000;fill-opacity:1;fill-rule:nonzero;stroke:none"
       transform="matrix(0.13333333,0,0,-0.13333333,0,577.33333)" />
    <path
       id="path47"
       d="m 1643.71,2799.14 v -7.34 h -70.4 c 0.66,-10.68 3.79,-18.83 9.39,-24.46 5.6,-5.59 13.38,-8.39 23.35,-8.39 5.8,0 11.41,0.78 16.83,2.35 5.43,1.56 10.81,3.91 16.14,7.04 v -14.09 c -5.45,-2.29 -11.04,-4.04 -16.76,-5.24 -5.72,-1.19 -11.51,-1.8 -17.38,-1.8 -14.76,0 -26.46,4.26 -35.09,12.77 -8.6,8.5 -12.9,20 -12.9,34.5 0,15.01 4.14,26.91 12.43,35.71 8.28,8.83 19.45,13.24 33.51,13.24 12.59,0 22.55,-3.97 29.88,-11.92 7.33,-7.94 11,-18.74 11,-32.37 m -14.08,4.4 c -0.12,8.55 -2.53,15.38 -7.22,20.49 -4.67,5.11 -10.86,7.67 -18.55,7.67 -8.73,0 -15.72,-2.47 -20.98,-7.41 -5.25,-4.94 -8.27,-11.88 -9.06,-20.83 l 55.81,0.08"
       style="fill:#000000;fill-opacity:1;fill-rule:nonzero;stroke:none"
       transform="matrix(0.13333333,0,0,-0.13333333,0,577.33333)" />
    <path
       id="path48"
       d="m 1728.19,2838.73 v -14.07 c -4.4,2.34 -8.97,4.1 -13.71,5.27 -4.75,1.18 -9.65,1.77 -14.71,1.77 -7.72,0 -13.53,-1.18 -17.41,-3.52 -3.86,-2.35 -5.8,-5.87 -5.8,-10.57 0,-3.59 1.43,-6.41 4.3,-8.47 2.88,-2.02 8.65,-3.96 17.3,-5.79 l 5.54,-1.17 c 10.56,-2.3 18.06,-5.54 22.51,-9.72 4.45,-4.18 6.67,-10.02 6.67,-17.53 0,-8.52 -3.38,-15.29 -10.15,-20.27 -6.77,-4.96 -16.09,-7.45 -27.94,-7.45 -4.91,0 -10.05,0.4 -15.4,1.18 -5.35,0.78 -10.99,1.95 -16.91,3.52 v 16.43 c 5.72,-3.11 11.37,-5.46 16.94,-7.04 5.6,-1.57 11.13,-2.35 16.58,-2.35 7.33,0 12.96,1.25 16.9,3.74 3.94,2.52 5.9,6.05 5.9,10.6 0,4.23 -1.49,7.46 -4.47,9.71 -2.96,2.25 -9.42,4.41 -19.4,6.49 l -5.61,1.25 c -9.48,1.96 -16.32,4.96 -20.53,9.02 -4.2,4.06 -6.31,9.62 -6.31,16.68 0,8.63 3.11,15.28 9.32,19.95 6.23,4.69 15.07,7.04 26.51,7.04 5.69,0 11.03,-0.39 16.02,-1.18 5.01,-0.78 9.63,-1.95 13.86,-3.52"
       style="fill:#000000;fill-opacity:1;fill-rule:nonzero;stroke:none"
       transform="matrix(0.13333333,0,0,-0.13333333,0,577.33333)" />
    <path
       id="path49"
       d="m 1819.39,2838.73 v -14.07 c -4.4,2.34 -8.97,4.1 -13.71,5.27 -4.75,1.18 -9.65,1.77 -14.71,1.77 -7.72,0 -13.53,-1.18 -17.42,-3.52 -3.86,-2.35 -5.79,-5.87 -5.79,-10.57 0,-3.59 1.43,-6.41 4.29,-8.47 2.89,-2.02 8.66,-3.96 17.31,-5.79 l 5.53,-1.17 c 10.56,-2.3 18.07,-5.54 22.52,-9.72 4.45,-4.18 6.67,-10.02 6.67,-17.53 0,-8.52 -3.38,-15.29 -10.15,-20.27 -6.78,-4.96 -16.09,-7.45 -27.95,-7.45 -4.91,0 -10.04,0.4 -15.39,1.18 -5.36,0.78 -10.99,1.95 -16.91,3.52 v 16.43 c 5.72,-3.11 11.37,-5.46 16.94,-7.04 5.6,-1.57 11.12,-2.35 16.58,-2.35 7.33,0 12.96,1.25 16.9,3.74 3.94,2.52 5.9,6.05 5.9,10.6 0,4.23 -1.49,7.46 -4.47,9.71 -2.96,2.25 -9.42,4.41 -19.4,6.49 l -5.61,1.25 c -9.48,1.96 -16.33,4.96 -20.53,9.02 -4.2,4.06 -6.31,9.62 -6.31,16.68 0,8.63 3.11,15.28 9.32,19.95 6.23,4.69 15.07,7.04 26.5,7.04 5.7,0 11.04,-0.39 16.03,-1.18 5.01,-0.78 9.63,-1.95 13.86,-3.52"
       style="fill:#000000;fill-opacity:1;fill-rule:nonzero;stroke:none"
       transform="matrix(0.13333333,0,0,-0.13333333,0,577.33333)" />
    <path
       id="path50"
       d="m 1892.66,2796.5 c -12.69,0 -21.48,-1.47 -26.37,-4.41 -4.88,-2.9 -7.33,-7.87 -7.33,-14.88 0,-5.6 1.83,-10.05 5.5,-13.35 3.67,-3.27 8.65,-4.91 14.96,-4.91 8.7,0 15.68,3.1 20.94,9.31 5.25,6.24 7.88,14.51 7.88,24.83 v 3.41 h -15.58 m 29.66,6.19 v -53.13 h -14.08 v 14.08 c -3.47,-5.62 -7.82,-9.76 -13.05,-12.43 -5.21,-2.66 -11.58,-4 -19.11,-4 -9.53,0 -17.12,2.67 -22.77,8 -5.62,5.33 -8.43,12.48 -8.43,21.45 0,10.44 3.46,18.31 10.38,23.61 6.92,5.31 17.24,7.96 30.98,7.96 h 22 v 1.5 c 0,6.99 -2.3,12.4 -6.89,16.21 -4.6,3.84 -11.08,5.76 -19.44,5.76 -5.3,0 -10.47,-0.59 -15.51,-1.77 -5.01,-1.17 -9.83,-2.93 -14.48,-5.27 v 14.07 c 5.5,1.57 10.83,2.74 15.99,3.52 5.16,0.79 10.18,1.18 15.07,1.18 13.2,0 23.05,-3.38 29.55,-10.12 6.53,-6.72 9.79,-16.93 9.79,-30.62"
       style="fill:#000000;fill-opacity:1;fill-rule:nonzero;stroke:none"
       transform="matrix(0.13333333,0,0,-0.13333333,0,577.33333)" />
    <path
       id="path51"
       d="m 2018.53,2796.42 c 0,11.2 -2.27,19.88 -6.82,26.03 -4.52,6.16 -10.86,9.25 -19.03,9.25 -8.14,0 -14.47,-3.09 -18.99,-9.25 -4.52,-6.15 -6.78,-14.83 -6.78,-26.03 0,-11.1 2.26,-19.72 6.78,-25.88 4.52,-6.16 10.85,-9.24 18.99,-9.24 8.17,0 14.51,3.08 19.03,9.24 4.55,6.16 6.82,14.78 6.82,25.88 m 14.08,-36.26 c 0,-15.45 -3.45,-26.94 -10.34,-34.47 -6.87,-7.55 -17.4,-11.33 -31.61,-11.33 -5.25,0 -10.21,0.39 -14.88,1.18 -4.67,0.78 -9.19,1.95 -13.57,3.51 v 14.09 c 4.45,-2.4 8.85,-4.17 13.2,-5.32 4.35,-1.15 8.78,-1.72 13.27,-1.72 10,0 17.47,2.61 22.41,7.84 4.96,5.23 7.44,13.13 7.44,23.69 v 8.36 c -3.17,-5.5 -7.23,-9.62 -12.17,-12.36 -4.94,-2.71 -10.84,-4.07 -17.71,-4.07 -11.47,0 -20.69,4.28 -27.69,12.83 -6.99,8.59 -10.48,19.94 -10.48,34.07 0,14.18 3.49,25.54 10.48,34.1 7,8.58 16.22,12.87 27.69,12.87 6.87,0 12.77,-1.37 17.71,-4.11 4.94,-2.71 9,-6.82 12.17,-12.32 v 14.08 h 14.08 v -80.92"
       style="fill:#000000;fill-opacity:1;fill-rule:nonzero;stroke:none"
       transform="matrix(0.13333333,0,0,-0.13333333,0,577.33333)" />
    <path
       id="path52"
       d="m 2147.7,2799.14 v -7.34 h -70.4 c 0.66,-10.68 3.79,-18.83 9.39,-24.46 5.6,-5.59 13.38,-8.39 23.36,-8.39 5.79,0 11.4,0.78 16.83,2.35 5.42,1.56 10.8,3.91 16.13,7.04 v -14.09 c -5.45,-2.29 -11.04,-4.04 -16.76,-5.24 -5.71,-1.19 -11.51,-1.8 -17.37,-1.8 -14.77,0 -26.47,4.26 -35.09,12.77 -8.61,8.5 -12.91,20 -12.91,34.5 0,15.01 4.14,26.91 12.43,35.71 8.28,8.83 19.46,13.24 33.51,13.24 12.59,0 22.55,-3.97 29.88,-11.92 7.34,-7.94 11,-18.74 11,-32.37 m -14.07,4.4 c -0.13,8.55 -2.54,15.38 -7.23,20.49 -4.67,5.11 -10.85,7.67 -18.55,7.67 -8.73,0 -15.72,-2.47 -20.97,-7.41 -5.26,-4.94 -8.28,-11.88 -9.06,-20.83 l 55.81,0.08"
       style="fill:#000000;fill-opacity:1;fill-rule:nonzero;stroke:none"
       transform="matrix(0.13333333,0,0,-0.13333333,0,577.33333)" />
    <path
       id="path53"
       d="m 2303.81,2866.89 v -16.42 c -6.41,3.17 -12.46,5.53 -18.15,7.07 -5.7,1.55 -11.19,2.32 -16.46,2.32 -9.22,0 -16.32,-1.78 -21.31,-5.32 -4.96,-3.55 -7.44,-8.57 -7.44,-15.07 0,-5.48 1.67,-9.62 5.02,-12.43 3.35,-2.79 9.72,-5.04 19.1,-6.75 l 10.34,-2.05 c 12.27,-2.32 21.33,-6.39 27.17,-12.21 5.85,-5.8 8.77,-13.58 8.77,-23.36 0,-11.63 -4.04,-20.46 -12.1,-26.47 -8.05,-5.99 -19.85,-8.99 -35.42,-8.99 -5.87,0 -12.12,0.61 -18.74,1.8 -6.63,1.18 -13.48,2.92 -20.57,5.24 v 16.43 c 6.92,-3.13 13.7,-5.47 20.35,-7.04 6.65,-1.56 13.18,-2.34 19.58,-2.34 9.73,0 17.23,1.77 22.51,5.31 5.31,3.55 7.96,8.59 7.96,15.14 0,5.75 -1.9,10.23 -5.72,13.46 -3.81,3.25 -10.07,5.68 -18.77,7.3 l -10.41,1.94 c -12.52,2.5 -21.57,6.41 -27.14,11.73 -5.57,5.34 -8.36,12.75 -8.36,22.26 0,11 3.86,19.67 11.59,26 7.72,6.33 18.37,9.49 31.93,9.49 5.8,0 11.71,-0.58 17.75,-1.75 6.04,-1.15 12.21,-2.91 18.52,-5.29"
       style="fill:#000000;fill-opacity:1;fill-rule:nonzero;stroke:none"
       transform="matrix(0.13333333,0,0,-0.13333333,0,577.33333)" />
    <path
       id="path54"
       d="m 2339.11,2841.08 h 14.08 v -91.52 h -14.08 v 91.52 m 0,37.55 h 14.08 v -18.77 h -14.08 v 18.77"
       style="fill:#000000;fill-opacity:1;fill-rule:nonzero;stroke:none"
       transform="matrix(0.13333333,0,0,-0.13333333,0,577.33333)" />
    <path
       id="path55"
       d="m 2380.07,2841.08 h 72.75 v -13.78 l -57.57,-66 h 57.57 v -11.74 h -75.09 v 13.79 l 57.86,66 h -55.52 v 11.73"
       style="fill:#000000;fill-opacity:1;fill-rule:nonzero;stroke:none"
       transform="matrix(0.13333333,0,0,-0.13333333,0,577.33333)" />
    <path
       id="path56"
       d="m 2558.1,2799.14 v -7.34 h -70.4 c 0.66,-10.68 3.78,-18.83 9.38,-24.46 5.6,-5.59 13.39,-8.39 23.36,-8.39 5.79,0 11.4,0.78 16.83,2.35 5.43,1.56 10.8,3.91 16.13,7.04 v -14.09 c -5.45,-2.29 -11.03,-4.04 -16.75,-5.24 -5.72,-1.19 -11.52,-1.8 -17.38,-1.8 -14.77,0 -26.47,4.26 -35.09,12.77 -8.61,8.5 -12.91,20 -12.91,34.5 0,15.01 4.14,26.91 12.43,35.71 8.29,8.83 19.46,13.24 33.51,13.24 12.59,0 22.55,-3.97 29.89,-11.92 7.33,-7.94 11,-18.74 11,-32.37 m -14.08,4.4 c -0.13,8.55 -2.53,15.38 -7.23,20.49 -4.66,5.11 -10.85,7.67 -18.55,7.67 -8.72,0 -15.72,-2.47 -20.97,-7.41 -5.26,-4.94 -8.28,-11.88 -9.06,-20.83 l 55.81,0.08"
       style="fill:#000000;fill-opacity:1;fill-rule:nonzero;stroke:none"
       transform="matrix(0.13333333,0,0,-0.13333333,0,577.33333)" />
    <path
       id="path57"
       d="m 1419.82,2508.71 h 5.57 c 7.43,0 12.27,1.17 14.52,3.49 2.25,2.3 3.38,7.27 3.38,14.92 v 19.91 c 0,8.38 1.15,14.47 3.44,18.26 2.32,3.82 6.34,6.45 12.03,7.92 -5.69,1.4 -9.71,4.06 -12.03,7.99 -2.29,3.96 -3.44,10.3 -3.44,19 v 20.75 c 0,7.94 -1.13,13.13 -3.38,15.55 -2.25,2.42 -7.09,3.63 -14.52,3.63 h -5.57 v 11.73 h 5.02 c 12.98,0 21.65,-2.04 26,-6.12 4.35,-4.06 6.53,-12.2 6.53,-24.42 v -20.1 c 0,-8.31 1.49,-14.08 4.47,-17.3 2.98,-3.21 8.39,-4.81 16.21,-4.81 h 5.13 v -11.73 h -5.13 c -7.82,0 -13.23,-1.6 -16.21,-4.8 -2.98,-3.18 -4.47,-8.91 -4.47,-17.2 v -18.59 c 0,-11.9 -2.18,-19.85 -6.53,-23.83 -4.35,-3.99 -13.02,-5.98 -26,-5.98 h -5.02 v 11.73"
       style="fill:#000000;fill-opacity:1;fill-rule:nonzero;stroke:none"
       transform="matrix(0.13333333,0,0,-0.13333333,0,577.33333)" />
    <path
       id="path58"
       d="m 869.133,1397.69 v -93.87 h 20.457 c 17.258,0 29.898,3.77 37.914,11.3 8.019,7.55 12.027,19.47 12.027,35.75 0,16.18 -4.008,28.02 -12.027,35.52 -8.016,7.54 -20.656,11.3 -37.914,11.3 h -20.457 m -16.426,14.08 h 34.281 c 23.758,0 41.188,-4.93 52.285,-14.78 11.122,-9.83 16.684,-25.2 16.684,-46.12 0,-21.03 -5.586,-36.48 -16.758,-46.35 -11.168,-9.85 -28.574,-14.78 -52.211,-14.78 h -34.281 v 122.03"
       style="fill:#000000;fill-opacity:1;fill-rule:nonzero;stroke:none"
       transform="matrix(0.13333333,0,0,-0.13333333,0,577.33333)" />
    <path
       id="path59"
       d="m 1025.44,1336.68 c -12.69,0 -21.48,-1.47 -26.366,-4.4 -4.886,-2.91 -7.332,-7.87 -7.332,-14.89 0,-5.6 1.832,-10.05 5.5,-13.35 3.668,-3.27 8.648,-4.91 14.958,-4.91 8.71,0 15.68,3.1 20.94,9.31 5.25,6.24 7.88,14.51 7.88,24.83 v 3.41 h -15.58 m 29.66,6.19 v -53.13 h -14.08 v 14.08 c -3.47,-5.62 -7.82,-9.76 -13.05,-12.43 -5.21,-2.66 -11.58,-4 -19.1,-4 -9.538,0 -17.128,2.67 -22.772,8 -5.625,5.33 -8.434,12.48 -8.434,21.45 0,10.44 3.457,18.31 10.375,23.61 6.918,5.31 17.251,7.96 30.981,7.96 h 22 v 1.5 c 0,6.99 -2.29,12.39 -6.89,16.21 -4.59,3.84 -11.08,5.76 -19.43,5.76 -5.31,0 -10.48,-0.59 -15.512,-1.76 -5.012,-1.18 -9.84,-2.94 -14.485,-5.28 v 14.07 c 5.5,1.57 10.828,2.74 15.987,3.52 5.16,0.79 10.18,1.18 15.07,1.18 13.2,0 23.05,-3.38 29.55,-10.12 6.53,-6.72 9.79,-16.93 9.79,-30.62"
       style="fill:#000000;fill-opacity:1;fill-rule:nonzero;stroke:none"
       transform="matrix(0.13333333,0,0,-0.13333333,0,577.33333)" />
    <path
       id="path60"
       d="m 1104.38,1407.07 v -25.81 h 30.51 v -11.73 h -30.51 v -50.31 c 0,-7.55 1,-12.4 3.01,-14.55 2.03,-2.13 6.11,-3.19 12.24,-3.19 h 15.26 v -11.74 h -15.26 c -11.12,0 -18.79,2.12 -23.02,6.35 -4.21,4.25 -6.31,11.96 -6.31,23.13 v 50.31 h -11.73 v 11.73 h 11.73 v 25.81 h 14.08"
       style="fill:#000000;fill-opacity:1;fill-rule:nonzero;stroke:none"
       transform="matrix(0.13333333,0,0,-0.13333333,0,577.33333)" />
    <path
       id="path61"
       d="m 1198.24,1336.68 c -12.69,0 -21.48,-1.47 -26.36,-4.4 -4.9,-2.91 -7.34,-7.87 -7.34,-14.89 0,-5.6 1.84,-10.05 5.5,-13.35 3.67,-3.27 8.66,-4.91 14.96,-4.91 8.7,0 15.68,3.1 20.94,9.31 5.25,6.24 7.88,14.51 7.88,24.83 v 3.41 h -15.58 m 29.66,6.19 v -53.13 h -14.08 v 14.08 c -3.47,-5.62 -7.82,-9.76 -13.05,-12.43 -5.21,-2.66 -11.58,-4 -19.11,-4 -9.53,0 -17.12,2.67 -22.77,8 -5.62,5.33 -8.43,12.48 -8.43,21.45 0,10.44 3.46,18.31 10.38,23.61 6.91,5.31 17.24,7.96 30.98,7.96 h 22 v 1.5 c 0,6.99 -2.3,12.39 -6.89,16.21 -4.6,3.84 -11.08,5.76 -19.44,5.76 -5.3,0 -10.47,-0.59 -15.51,-1.76 -5.01,-1.18 -9.84,-2.94 -14.48,-5.28 v 14.07 c 5.5,1.57 10.83,2.74 15.99,3.52 5.15,0.79 10.18,1.18 15.07,1.18 13.2,0 23.05,-3.38 29.55,-10.12 6.53,-6.72 9.79,-16.93 9.79,-30.62"
       style="fill:#000000;fill-opacity:1;fill-rule:nonzero;stroke:none"
       transform="matrix(0.13333333,0,0,-0.13333333,0,577.33333)" />
    <path
       id="path62"
       d="m 1393.39,1407.07 v -16.42 c -6.41,3.18 -12.45,5.53 -18.15,7.08 -5.69,1.54 -11.18,2.31 -16.46,2.31 -9.22,0 -16.32,-1.78 -21.31,-5.32 -4.96,-3.54 -7.44,-8.57 -7.44,-15.07 0,-5.48 1.68,-9.62 5.02,-12.43 3.35,-2.79 9.72,-5.04 19.11,-6.75 l 10.34,-2.05 c 12.27,-2.32 21.32,-6.39 27.17,-12.21 5.84,-5.8 8.76,-13.58 8.76,-23.36 0,-11.63 -4.03,-20.46 -12.1,-26.47 -8.04,-5.99 -19.85,-8.99 -35.42,-8.99 -5.87,0 -12.11,0.61 -18.73,1.8 -6.63,1.18 -13.49,2.92 -20.57,5.25 v 16.42 c 6.91,-3.13 13.69,-5.47 20.34,-7.04 6.65,-1.56 13.18,-2.34 19.59,-2.34 9.72,0 17.23,1.77 22.51,5.31 5.3,3.55 7.95,8.6 7.95,15.15 0,5.74 -1.9,10.22 -5.71,13.45 -3.82,3.25 -10.08,5.68 -18.78,7.3 l -10.41,1.94 c -12.52,2.5 -21.56,6.41 -27.14,11.74 -5.57,5.33 -8.35,12.74 -8.35,22.25 0,11 3.85,19.67 11.58,26 7.72,6.33 18.37,9.49 31.94,9.49 5.79,0 11.71,-0.58 17.75,-1.75 6.03,-1.15 12.2,-2.91 18.51,-5.29"
       style="fill:#000000;fill-opacity:1;fill-rule:nonzero;stroke:none"
       transform="matrix(0.13333333,0,0,-0.13333333,0,577.33333)" />
    <path
       id="path63"
       d="m 1442.78,1303.82 v -49.28 h -14.08 v 126.72 h 14.08 v -14.08 c 3.2,5.57 7.26,9.71 12.17,12.39 4.94,2.7 10.82,4.04 17.64,4.04 11.31,0 20.52,-4.43 27.61,-13.27 7.09,-8.83 10.63,-20.44 10.63,-34.84 0,-14.39 -3.54,-26.02 -10.63,-34.87 -7.09,-8.82 -16.3,-13.24 -27.61,-13.24 -6.82,0 -12.7,1.35 -17.64,4.04 -4.91,2.69 -8.97,6.82 -12.17,12.39 m 51.62,31.72 c 0,11.34 -2.29,20.23 -6.89,26.66 -4.57,6.45 -10.88,9.68 -18.92,9.68 -8.02,0 -14.32,-3.23 -18.92,-9.68 -4.6,-6.43 -6.89,-15.32 -6.89,-26.66 0,-11.37 2.29,-20.28 6.89,-26.73 4.6,-6.45 10.9,-9.68 18.92,-9.68 8.04,0 14.35,3.23 18.92,9.68 4.6,6.45 6.89,15.36 6.89,26.73"
       style="fill:#000000;fill-opacity:1;fill-rule:nonzero;stroke:none"
       transform="matrix(0.13333333,0,0,-0.13333333,0,577.33333)" />
    <path
       id="path64"
       d="m 1579.83,1336.68 c -12.69,0 -21.47,-1.47 -26.36,-4.4 -4.89,-2.91 -7.34,-7.87 -7.34,-14.89 0,-5.6 1.84,-10.05 5.5,-13.35 3.67,-3.27 8.66,-4.91 14.96,-4.91 8.71,0 15.68,3.1 20.94,9.31 5.26,6.24 7.88,14.51 7.88,24.83 v 3.41 h -15.58 m 29.66,6.19 v -53.13 h -14.08 v 14.08 c -3.47,-5.62 -7.82,-9.76 -13.05,-12.43 -5.21,-2.66 -11.57,-4 -19.1,-4 -9.54,0 -17.13,2.67 -22.77,8 -5.62,5.33 -8.44,12.48 -8.44,21.45 0,10.44 3.46,18.31 10.38,23.61 6.92,5.31 17.25,7.96 30.98,7.96 h 22 v 1.5 c 0,6.99 -2.29,12.39 -6.89,16.21 -4.59,3.84 -11.07,5.76 -19.43,5.76 -5.31,0 -10.48,-0.59 -15.51,-1.76 -5.01,-1.18 -9.84,-2.94 -14.49,-5.28 v 14.07 c 5.5,1.57 10.83,2.74 15.99,3.52 5.16,0.79 10.18,1.18 15.07,1.18 13.2,0 23.05,-3.38 29.55,-10.12 6.53,-6.72 9.79,-16.93 9.79,-30.62"
       style="fill:#000000;fill-opacity:1;fill-rule:nonzero;stroke:none"
       transform="matrix(0.13333333,0,0,-0.13333333,0,577.33333)" />
    <path
       id="path65"
       d="m 1710.4,1378.91 v -14.07 c -4.26,2.34 -8.51,4.1 -12.76,5.28 -4.25,1.17 -8.55,1.76 -12.87,1.76 -9.73,0 -17.28,-3.19 -22.66,-9.58 -5.36,-6.37 -8.03,-15.31 -8.03,-26.8 0,-11.48 2.67,-20.42 8.03,-26.8 5.38,-6.38 12.93,-9.57 22.66,-9.57 4.32,0 8.62,0.58 12.87,1.76 4.25,1.17 8.5,2.93 12.76,5.28 v -14.08 c -4.2,-1.57 -8.57,-2.74 -13.09,-3.52 -4.52,-0.78 -9.33,-1.18 -14.41,-1.18 -13.84,0 -24.84,4.33 -33,12.99 -8.17,8.67 -12.25,20.38 -12.25,35.12 0,14.94 4.12,26.68 12.36,35.24 8.26,8.58 19.55,12.87 33.88,12.87 4.64,0 9.18,-0.39 13.6,-1.18 4.45,-0.78 8.75,-1.95 12.91,-3.52"
       style="fill:#000000;fill-opacity:1;fill-rule:nonzero;stroke:none"
       transform="matrix(0.13333333,0,0,-0.13333333,0,577.33333)" />
    <path
       id="path66"
       d="m 1820.48,1339.32 v -7.34 h -70.4 c 0.66,-10.68 3.79,-18.83 9.38,-24.45 5.6,-5.6 13.39,-8.4 23.36,-8.4 5.79,0 11.4,0.78 16.83,2.35 5.43,1.56 10.8,3.91 16.14,7.04 v -14.08 c -5.46,-2.3 -11.04,-4.05 -16.76,-5.25 -5.72,-1.19 -11.51,-1.8 -17.38,-1.8 -14.77,0 -26.46,4.26 -35.09,12.77 -8.61,8.5 -12.91,20 -12.91,34.5 0,15.01 4.14,26.91 12.43,35.71 8.29,8.83 19.46,13.24 33.51,13.24 12.59,0 22.55,-3.97 29.89,-11.92 7.33,-7.94 11,-18.73 11,-32.37 m -14.08,4.39 c -0.13,8.56 -2.53,15.39 -7.23,20.5 -4.67,5.11 -10.85,7.67 -18.55,7.67 -8.73,0 -15.72,-2.47 -20.97,-7.41 -5.26,-4.94 -8.27,-11.88 -9.06,-20.83 l 55.81,0.07"
       style="fill:#000000;fill-opacity:1;fill-rule:nonzero;stroke:none"
       transform="matrix(0.13333333,0,0,-0.13333333,0,577.33333)" />
  </g>
</svg>
