<?xml version="1.0" encoding="UTF-8" standalone="no"?>
<!DOCTYPE svg PUBLIC "-//W3C//DTD SVG 1.1//EN"
 "http://www.w3.org/Graphics/SVG/1.1/DTD/svg11.dtd">
<!-- Generated by graphviz version 2.38.0 (20140413.2041)
 -->
<!-- Title: homing Pages: 1 -->
<svg width="845pt" height="1463pt"
 viewBox="0.00 0.00 845.24 1463.00" xmlns="http://www.w3.org/2000/svg" xmlns:xlink="http://www.w3.org/1999/xlink">
<g id="graph0" class="graph" transform="scale(1 1) rotate(0) translate(4 1459)">
<title>homing</title>
<polygon fill="white" stroke="none" points="-4,4 -4,-1459 841.243,-1459 841.243,4 -4,4"/>
<!-- HOME_IDLE -->
<g id="node1" class="node"><title>HOME_IDLE</title>
<ellipse fill="none" stroke="black" cx="146.243" cy="-1437" rx="61.99" ry="18"/>
<text text-anchor="middle" x="146.243" y="-1433.3" font-family="Times,serif" font-size="14.00">HOME_IDLE</text>
</g>
<!-- HOME_START -->
<g id="node2" class="node"><title>HOME_START</title>
<ellipse fill="none" stroke="black" cx="179.243" cy="-1335" rx="69.5877" ry="18"/>
<text text-anchor="middle" x="179.243" y="-1331.3" font-family="Times,serif" font-size="14.00">HOME_START</text>
</g>
<!-- HOME_IDLE&#45;&gt;HOME_START -->
<g id="edge1" class="edge"><title>HOME_IDLE&#45;&gt;HOME_START</title>
<path fill="none" stroke="black" d="M98.9581,-1425.21C86.5564,-1420 74.6063,-1412.32 67.2428,-1401 59.9707,-1389.82 59.345,-1381.74 67.2428,-1371 76.498,-1358.41 90.261,-1350.22 105,-1344.93"/>
<polygon fill="black" stroke="black" points="106.299,-1348.19 114.789,-1341.85 104.199,-1341.51 106.299,-1348.19"/>
<text text-anchor="middle" x="136.243" y="-1382.3" font-family="Times,serif" font-size="14.00">en EMCMOT_HOME(j)</text>
</g>
<!-- HOME_START&#45;&gt;HOME_IDLE -->
<g id="edge2" class="edge"><title>HOME_START&#45;&gt;HOME_IDLE</title>
<path fill="none" stroke="black" d="M194.89,-1352.55C199.083,-1358.01 203.056,-1364.39 205.243,-1371 209.43,-1383.66 211.841,-1389.41 205.243,-1401 201.758,-1407.12 196.736,-1412.28 191.072,-1416.6"/>
<polygon fill="black" stroke="black" points="188.821,-1413.89 182.42,-1422.33 192.689,-1419.72 188.821,-1413.89"/>
<text text-anchor="middle" x="258.743" y="-1389.8" font-family="Times,serif" font-size="14.00">home compartido</text>
<text text-anchor="middle" x="258.743" y="-1374.8" font-family="Times,serif" font-size="14.00">switch cerrado</text>
</g>
<!-- HOME_SET_SWITCH_POSITION -->
<g id="node3" class="node"><title>HOME_SET_SWITCH_POSITION</title>
<ellipse fill="none" stroke="black" cx="198.243" cy="-483" rx="139.976" ry="18"/>
<text text-anchor="middle" x="198.243" y="-479.3" font-family="Times,serif" font-size="14.00">HOME_SET_SWITCH_POSITION</text>
</g>
<!-- HOME_START&#45;&gt;HOME_SET_SWITCH_POSITION -->
<g id="edge3" class="edge"><title>HOME_START&#45;&gt;HOME_SET_SWITCH_POSITION</title>
<path fill="none" stroke="black" d="M142.88,-1319.51C110.176,-1303.8 67.2428,-1275.32 67.2428,-1234 67.2428,-1234 67.2428,-1234 67.2428,-599 67.2428,-554.641 110.189,-523.378 146.903,-504.757"/>
<polygon fill="black" stroke="black" points="148.612,-507.817 156.072,-500.295 145.549,-501.523 148.612,-507.817"/>
<text text-anchor="middle" x="130.743" y="-900.8" font-family="Times,serif" font-size="14.00">sin switch para este eje</text>
<text text-anchor="middle" x="130.743" y="-885.8" font-family="Times,serif" font-size="14.00">immediato</text>
</g>
<!-- HOME_INITIAL_SEARCH_START -->
<g id="node4" class="node"><title>HOME_INITIAL_SEARCH_START</title>
<ellipse fill="none" stroke="black" cx="288.243" cy="-1233" rx="144.874" ry="18"/>
<text text-anchor="middle" x="288.243" y="-1229.3" font-family="Times,serif" font-size="14.00">HOME_INITIAL_SEARCH_START</text>
</g>
<!-- HOME_START&#45;&gt;HOME_INITIAL_SEARCH_START -->
<g id="edge4" class="edge"><title>HOME_START&#45;&gt;HOME_INITIAL_SEARCH_START</title>
<path fill="none" stroke="black" d="M197.242,-1317.49C214.964,-1301.23 242.217,-1276.23 262.282,-1257.82"/>
<polygon fill="black" stroke="black" points="264.85,-1260.21 269.853,-1250.87 260.118,-1255.05 264.85,-1260.21"/>
<text text-anchor="middle" x="287.743" y="-1287.8" font-family="Times,serif" font-size="14.00">de otra forma</text>
<text text-anchor="middle" x="287.743" y="-1272.8" font-family="Times,serif" font-size="14.00">inmediato</text>
</g>
<!-- HOME_FINAL_MOVE_START -->
<g id="node18" class="node"><title>HOME_FINAL_MOVE_START</title>
<ellipse fill="none" stroke="black" cx="316.243" cy="-207" rx="129.977" ry="18"/>
<text text-anchor="middle" x="316.243" y="-203.3" font-family="Times,serif" font-size="14.00">HOME_FINAL_MOVE_START</text>
</g>
<!-- HOME_SET_SWITCH_POSITION&#45;&gt;HOME_FINAL_MOVE_START -->
<g id="edge22" class="edge"><title>HOME_SET_SWITCH_POSITION&#45;&gt;HOME_FINAL_MOVE_START</title>
<path fill="none" stroke="black" d="M200.265,-464.995C205.167,-428.438 219.981,-340.459 255.243,-276 264.13,-259.754 277.601,-244.181 289.625,-232.047"/>
<polygon fill="black" stroke="black" points="292.168,-234.455 296.87,-224.961 287.274,-229.451 292.168,-234.455"/>
<text text-anchor="middle" x="258.743" y="-341.3" font-family="Times,serif" font-size="14.00">inmediato</text>
</g>
<!-- HOME_INITIAL_BACKOFF_START -->
<g id="node5" class="node"><title>HOME_INITIAL_BACKOFF_START</title>
<ellipse fill="none" stroke="black" cx="360.243" cy="-1116" rx="150.574" ry="18"/>
<text text-anchor="middle" x="360.243" y="-1112.3" font-family="Times,serif" font-size="14.00">HOME_INITIAL_BACKOFF_START</text>
</g>
<!-- HOME_INITIAL_SEARCH_START&#45;&gt;HOME_INITIAL_BACKOFF_START -->
<g id="edge7" class="edge"><title>HOME_INITIAL_SEARCH_START&#45;&gt;HOME_INITIAL_BACKOFF_START</title>
<path fill="none" stroke="black" d="M298.867,-1215.03C310.831,-1195.92 330.404,-1164.66 344.225,-1142.58"/>
<polygon fill="black" stroke="black" points="347.235,-1144.37 349.575,-1134.04 341.302,-1140.66 347.235,-1144.37"/>
<text text-anchor="middle" x="415.743" y="-1185.8" font-family="Times,serif" font-size="14.00">despues de HOME_DELAY</text>
<text text-anchor="middle" x="415.743" y="-1170.8" font-family="Times,serif" font-size="14.00">si switch home cerrado</text>
<text text-anchor="middle" x="415.743" y="-1155.8" font-family="Times,serif" font-size="14.00">inmediato</text>
</g>
<!-- HOME_INITIAL_SEARCH_WAIT -->
<g id="node7" class="node"><title>HOME_INITIAL_SEARCH_WAIT</title>
<ellipse fill="none" stroke="black" cx="669.243" cy="-1116" rx="140.275" ry="18"/>
<text text-anchor="middle" x="669.243" y="-1112.3" font-family="Times,serif" font-size="14.00">HOME_INITIAL_SEARCH_WAIT</text>
</g>
<!-- HOME_INITIAL_SEARCH_START&#45;&gt;HOME_INITIAL_SEARCH_WAIT -->
<g id="edge8" class="edge"><title>HOME_INITIAL_SEARCH_START&#45;&gt;HOME_INITIAL_SEARCH_WAIT</title>
<path fill="none" stroke="black" d="M392.09,-1220.42C426.357,-1215.09 464.359,-1207.53 498.243,-1197 545.733,-1182.24 597.001,-1156.87 630.885,-1138.66"/>
<polygon fill="black" stroke="black" points="632.848,-1141.57 639.963,-1133.72 629.505,-1135.42 632.848,-1141.57"/>
<text text-anchor="middle" x="680.743" y="-1185.8" font-family="Times,serif" font-size="14.00">despues de HOME_DELAY</text>
<text text-anchor="middle" x="680.743" y="-1170.8" font-family="Times,serif" font-size="14.00">si switch home abierto</text>
<text text-anchor="middle" x="680.743" y="-1155.8" font-family="Times,serif" font-size="14.00">inmediato</text>
</g>
<!-- HOME_INITIAL_BACKOFF_WAIT -->
<g id="node6" class="node"><title>HOME_INITIAL_BACKOFF_WAIT</title>
<ellipse fill="none" stroke="black" cx="294.243" cy="-1014" rx="146.474" ry="18"/>
<text text-anchor="middle" x="294.243" y="-1010.3" font-family="Times,serif" font-size="14.00">HOME_INITIAL_BACKOFF_WAIT</text>
</g>
<!-- HOME_INITIAL_BACKOFF_START&#45;&gt;HOME_INITIAL_BACKOFF_WAIT -->
<g id="edge5" class="edge"><title>HOME_INITIAL_BACKOFF_START&#45;&gt;HOME_INITIAL_BACKOFF_WAIT</title>
<path fill="none" stroke="black" d="M349.047,-1098.04C338.617,-1082.23 322.927,-1058.46 311.005,-1040.4"/>
<polygon fill="black" stroke="black" points="313.923,-1038.47 305.494,-1032.05 308.081,-1042.32 313.923,-1038.47"/>
<text text-anchor="middle" x="415.743" y="-1061.3" font-family="Times,serif" font-size="14.00">despues de HOME_DELAY</text>
</g>
<!-- HOME_INITIAL_BACKOFF_WAIT&#45;&gt;HOME_INITIAL_SEARCH_START -->
<g id="edge6" class="edge"><title>HOME_INITIAL_BACKOFF_WAIT&#45;&gt;HOME_INITIAL_SEARCH_START</title>
<path fill="none" stroke="black" d="M224.29,-1029.82C187.137,-1041.63 144.631,-1062.34 122.243,-1098 89.8579,-1149.59 167.583,-1190.19 227.315,-1212.64"/>
<polygon fill="black" stroke="black" points="226.134,-1215.93 236.728,-1216.08 228.54,-1209.36 226.134,-1215.93"/>
<text text-anchor="middle" x="161.243" y="-1112.3" font-family="Times,serif" font-size="14.00">home_sw_fall</text>
</g>
<!-- HOME_SET_COARSE_POSITION -->
<g id="node8" class="node"><title>HOME_SET_COARSE_POSITION</title>
<ellipse fill="none" stroke="black" cx="633.243" cy="-1014" rx="140.275" ry="18"/>
<text text-anchor="middle" x="633.243" y="-1010.3" font-family="Times,serif" font-size="14.00">HOME_SET_COARSE_POSITION</text>
</g>
<!-- HOME_INITIAL_SEARCH_WAIT&#45;&gt;HOME_SET_COARSE_POSITION -->
<g id="edge9" class="edge"><title>HOME_INITIAL_SEARCH_WAIT&#45;&gt;HOME_SET_COARSE_POSITION</title>
<path fill="none" stroke="black" d="M662.972,-1097.58C657.449,-1082.24 649.315,-1059.65 642.951,-1041.97"/>
<polygon fill="black" stroke="black" points="646.122,-1040.44 639.442,-1032.22 639.536,-1042.81 646.122,-1040.44"/>
<text text-anchor="middle" x="696.743" y="-1068.8" font-family="Times,serif" font-size="14.00">home_sw_rise</text>
<text text-anchor="middle" x="696.743" y="-1053.8" font-family="Times,serif" font-size="14.00">inmediato</text>
</g>
<!-- HOME_FINAL_BACKOFF_START -->
<g id="node9" class="node"><title>HOME_FINAL_BACKOFF_START</title>
<ellipse fill="none" stroke="black" cx="633.243" cy="-897" rx="144.075" ry="18"/>
<text text-anchor="middle" x="633.243" y="-893.3" font-family="Times,serif" font-size="14.00">HOME_FINAL_BACKOFF_START</text>
</g>
<!-- HOME_SET_COARSE_POSITION&#45;&gt;HOME_FINAL_BACKOFF_START -->
<g id="edge10" class="edge"><title>HOME_SET_COARSE_POSITION&#45;&gt;HOME_FINAL_BACKOFF_START</title>
<path fill="none" stroke="black" d="M633.243,-995.534C633.243,-976.936 633.243,-947.244 633.243,-925.501"/>
<polygon fill="black" stroke="black" points="636.743,-925.254 633.243,-915.254 629.743,-925.254 636.743,-925.254"/>
<text text-anchor="middle" x="705.743" y="-966.8" font-family="Times,serif" font-size="14.00">busqueda y enclavamiento</text>
<text text-anchor="middle" x="705.743" y="-951.8" font-family="Times,serif" font-size="14.00">tienen igual direccion</text>
<text text-anchor="middle" x="705.743" y="-936.8" font-family="Times,serif" font-size="14.00">inmediato</text>
</g>
<!-- HOME_FALL_SEARCH_START -->
<g id="node10" class="node"><title>HOME_FALL_SEARCH_START</title>
<ellipse fill="none" stroke="black" cx="455.243" cy="-843" rx="134.576" ry="18"/>
<text text-anchor="middle" x="455.243" y="-839.3" font-family="Times,serif" font-size="14.00">HOME_FALL_SEARCH_START</text>
</g>
<!-- HOME_SET_COARSE_POSITION&#45;&gt;HOME_FALL_SEARCH_START -->
<g id="edge11" class="edge"><title>HOME_SET_COARSE_POSITION&#45;&gt;HOME_FALL_SEARCH_START</title>
<path fill="none" stroke="black" d="M543.459,-1000.07C517.342,-994.593 493.368,-987.287 484.243,-978 456.459,-949.723 452.552,-901.524 453.214,-871.292"/>
<polygon fill="black" stroke="black" points="456.721,-871.17 453.629,-861.037 449.727,-870.887 456.721,-871.17"/>
<text text-anchor="middle" x="556.743" y="-966.8" font-family="Times,serif" font-size="14.00">busqueda y enclavamiento</text>
<text text-anchor="middle" x="556.743" y="-951.8" font-family="Times,serif" font-size="14.00">tienen direccion opuesta</text>
<text text-anchor="middle" x="556.743" y="-936.8" font-family="Times,serif" font-size="14.00">inmediato</text>
</g>
<!-- HOME_FINAL_BACKOFF_WAIT -->
<g id="node11" class="node"><title>HOME_FINAL_BACKOFF_WAIT</title>
<ellipse fill="none" stroke="black" cx="633.243" cy="-789" rx="139.976" ry="18"/>
<text text-anchor="middle" x="633.243" y="-785.3" font-family="Times,serif" font-size="14.00">HOME_FINAL_BACKOFF_WAIT</text>
</g>
<!-- HOME_FINAL_BACKOFF_START&#45;&gt;HOME_FINAL_BACKOFF_WAIT -->
<g id="edge12" class="edge"><title>HOME_FINAL_BACKOFF_START&#45;&gt;HOME_FINAL_BACKOFF_WAIT</title>
<path fill="none" stroke="black" d="M633.243,-878.969C633.243,-862.378 633.243,-836.883 633.243,-817.431"/>
<polygon fill="black" stroke="black" points="636.743,-817.341 633.243,-807.341 629.743,-817.341 636.743,-817.341"/>
<text text-anchor="middle" x="711.743" y="-839.3" font-family="Times,serif" font-size="14.00">despues de HOME_DELAY</text>
</g>
<!-- HOME_FALL_SEARCH_WAIT -->
<g id="node15" class="node"><title>HOME_FALL_SEARCH_WAIT</title>
<ellipse fill="none" stroke="black" cx="348.243" cy="-600" rx="129.977" ry="18"/>
<text text-anchor="middle" x="348.243" y="-596.3" font-family="Times,serif" font-size="14.00">HOME_FALL_SEARCH_WAIT</text>
</g>
<!-- HOME_FALL_SEARCH_START&#45;&gt;HOME_FALL_SEARCH_WAIT -->
<g id="edge17" class="edge"><title>HOME_FALL_SEARCH_START&#45;&gt;HOME_FALL_SEARCH_WAIT</title>
<path fill="none" stroke="black" d="M447.548,-824.668C429.078,-783.068 382.137,-677.341 360.06,-627.616"/>
<polygon fill="black" stroke="black" points="363.125,-625.894 355.868,-618.175 356.727,-628.735 363.125,-625.894"/>
<text text-anchor="middle" x="493.743" y="-734.3" font-family="Times,serif" font-size="14.00">despues de HOME_DELAY</text>
</g>
<!-- HOME_RISE_SEARCH_START -->
<g id="node12" class="node"><title>HOME_RISE_SEARCH_START</title>
<ellipse fill="none" stroke="black" cx="633.243" cy="-687" rx="131.877" ry="18"/>
<text text-anchor="middle" x="633.243" y="-683.3" font-family="Times,serif" font-size="14.00">HOME_RISE_SEARCH_START</text>
</g>
<!-- HOME_FINAL_BACKOFF_WAIT&#45;&gt;HOME_RISE_SEARCH_START -->
<g id="edge13" class="edge"><title>HOME_FINAL_BACKOFF_WAIT&#45;&gt;HOME_RISE_SEARCH_START</title>
<path fill="none" stroke="black" d="M633.243,-770.581C633.243,-755.382 633.243,-733.067 633.243,-715.464"/>
<polygon fill="black" stroke="black" points="636.743,-715.219 633.243,-705.219 629.743,-715.219 636.743,-715.219"/>
<text text-anchor="middle" x="672.243" y="-741.8" font-family="Times,serif" font-size="14.00">home_sw_fall</text>
<text text-anchor="middle" x="672.243" y="-726.8" font-family="Times,serif" font-size="14.00">inmediato</text>
</g>
<!-- HOME_RISE_SEARCH_WAIT -->
<g id="node13" class="node"><title>HOME_RISE_SEARCH_WAIT</title>
<ellipse fill="none" stroke="black" cx="633.243" cy="-600" rx="127.277" ry="18"/>
<text text-anchor="middle" x="633.243" y="-596.3" font-family="Times,serif" font-size="14.00">HOME_RISE_SEARCH_WAIT</text>
</g>
<!-- HOME_RISE_SEARCH_START&#45;&gt;HOME_RISE_SEARCH_WAIT -->
<g id="edge14" class="edge"><title>HOME_RISE_SEARCH_START&#45;&gt;HOME_RISE_SEARCH_WAIT</title>
<path fill="none" stroke="black" d="M633.243,-668.799C633.243,-657.163 633.243,-641.548 633.243,-628.237"/>
<polygon fill="black" stroke="black" points="636.743,-628.175 633.243,-618.175 629.743,-628.175 636.743,-628.175"/>
<text text-anchor="middle" x="711.743" y="-639.8" font-family="Times,serif" font-size="14.00">despues de HOME_DELAY</text>
</g>
<!-- HOME_RISE_SEARCH_WAIT&#45;&gt;HOME_SET_SWITCH_POSITION -->
<g id="edge16" class="edge"><title>HOME_RISE_SEARCH_WAIT&#45;&gt;HOME_SET_SWITCH_POSITION</title>
<path fill="none" stroke="black" d="M536.186,-588.216C519.524,-582.911 503.375,-575.189 490.243,-564 473.718,-549.921 488.533,-532.128 471.243,-519 467.828,-516.407 382.398,-505.717 308.008,-496.825"/>
<polygon fill="black" stroke="black" points="308.407,-493.348 298.063,-495.639 307.578,-500.299 308.407,-493.348"/>
<text text-anchor="middle" x="553.743" y="-552.8" font-family="Times,serif" font-size="14.00">home_sw_rise</text>
<text text-anchor="middle" x="553.743" y="-537.8" font-family="Times,serif" font-size="14.00">!HOME_USE_INDEX</text>
<text text-anchor="middle" x="553.743" y="-522.8" font-family="Times,serif" font-size="14.00">inmediato</text>
</g>
<!-- HOME_INDEX_SEARCH_START -->
<g id="node14" class="node"><title>HOME_INDEX_SEARCH_START</title>
<ellipse fill="none" stroke="black" cx="495.243" cy="-483" rx="139.976" ry="18"/>
<text text-anchor="middle" x="495.243" y="-479.3" font-family="Times,serif" font-size="14.00">HOME_INDEX_SEARCH_START</text>
</g>
<!-- HOME_RISE_SEARCH_WAIT&#45;&gt;HOME_INDEX_SEARCH_START -->
<g id="edge15" class="edge"><title>HOME_RISE_SEARCH_WAIT&#45;&gt;HOME_INDEX_SEARCH_START</title>
<path fill="none" stroke="black" d="M635.648,-581.785C637.13,-563.889 636.413,-536.144 621.243,-519 614.586,-511.476 606.465,-505.508 597.586,-500.782"/>
<polygon fill="black" stroke="black" points="599.015,-497.586 588.481,-496.458 596.013,-503.909 599.015,-497.586"/>
<text text-anchor="middle" x="697.243" y="-552.8" font-family="Times,serif" font-size="14.00">home_sw_rise</text>
<text text-anchor="middle" x="697.243" y="-537.8" font-family="Times,serif" font-size="14.00">HOME_USE_INDEX</text>
<text text-anchor="middle" x="697.243" y="-522.8" font-family="Times,serif" font-size="14.00">inmediato</text>
</g>
<!-- HOME_INDEX_SEARCH_WAIT -->
<g id="node16" class="node"><title>HOME_INDEX_SEARCH_WAIT</title>
<ellipse fill="none" stroke="black" cx="424.243" cy="-396" rx="135.676" ry="18"/>
<text text-anchor="middle" x="424.243" y="-392.3" font-family="Times,serif" font-size="14.00">HOME_INDEX_SEARCH_WAIT</text>
</g>
<!-- HOME_INDEX_SEARCH_START&#45;&gt;HOME_INDEX_SEARCH_WAIT -->
<g id="edge20" class="edge"><title>HOME_INDEX_SEARCH_START&#45;&gt;HOME_INDEX_SEARCH_WAIT</title>
<path fill="none" stroke="black" d="M480.875,-464.799C470.578,-452.471 456.551,-435.679 445.033,-421.89"/>
<polygon fill="black" stroke="black" points="447.686,-419.607 438.589,-414.175 442.314,-424.094 447.686,-419.607"/>
<text text-anchor="middle" x="491.743" y="-435.8" font-family="Times,serif" font-size="14.00">inmediato</text>
</g>
<!-- HOME_FALL_SEARCH_WAIT&#45;&gt;HOME_SET_SWITCH_POSITION -->
<g id="edge19" class="edge"><title>HOME_FALL_SEARCH_WAIT&#45;&gt;HOME_SET_SWITCH_POSITION</title>
<path fill="none" stroke="black" d="M264.518,-586.211C239.499,-580.693 216.509,-573.329 208.243,-564 195.712,-549.859 193.616,-528.389 194.434,-511.25"/>
<polygon fill="black" stroke="black" points="197.925,-511.494 195.252,-501.242 190.949,-510.923 197.925,-511.494"/>
<text text-anchor="middle" x="271.743" y="-552.8" font-family="Times,serif" font-size="14.00">home_sw_fall</text>
<text text-anchor="middle" x="271.743" y="-537.8" font-family="Times,serif" font-size="14.00">!HOME_USE_INDEX</text>
<text text-anchor="middle" x="271.743" y="-522.8" font-family="Times,serif" font-size="14.00">inmediato</text>
</g>
<!-- HOME_FALL_SEARCH_WAIT&#45;&gt;HOME_INDEX_SEARCH_START -->
<g id="edge18" class="edge"><title>HOME_FALL_SEARCH_WAIT&#45;&gt;HOME_INDEX_SEARCH_START</title>
<path fill="none" stroke="black" d="M342.948,-582.001C338.571,-564.286 335.112,-536.69 349.243,-519 355.914,-510.649 373.294,-504.056 393.838,-498.953"/>
<polygon fill="black" stroke="black" points="394.857,-502.31 403.807,-496.639 393.274,-495.491 394.857,-502.31"/>
<text text-anchor="middle" x="410.243" y="-552.8" font-family="Times,serif" font-size="14.00">home_sw_fall</text>
<text text-anchor="middle" x="410.243" y="-537.8" font-family="Times,serif" font-size="14.00">HOME_USE_INDEX</text>
<text text-anchor="middle" x="410.243" y="-522.8" font-family="Times,serif" font-size="14.00">inmediato</text>
</g>
<!-- HOME_SET_INDEX_POSITION -->
<g id="node17" class="node"><title>HOME_SET_INDEX_POSITION</title>
<ellipse fill="none" stroke="black" cx="397.243" cy="-294" rx="133.477" ry="18"/>
<text text-anchor="middle" x="397.243" y="-290.3" font-family="Times,serif" font-size="14.00">HOME_SET_INDEX_POSITION</text>
</g>
<!-- HOME_INDEX_SEARCH_WAIT&#45;&gt;HOME_SET_INDEX_POSITION -->
<g id="edge21" class="edge"><title>HOME_INDEX_SEARCH_WAIT&#45;&gt;HOME_SET_INDEX_POSITION</title>
<path fill="none" stroke="black" d="M419.54,-377.581C415.397,-362.238 409.297,-339.645 404.524,-321.968"/>
<polygon fill="black" stroke="black" points="407.878,-320.961 401.892,-312.219 401.12,-322.786 407.878,-320.961"/>
<text text-anchor="middle" x="462.243" y="-348.8" font-family="Times,serif" font-size="14.00">index encontrado</text>
<text text-anchor="middle" x="462.243" y="-333.8" font-family="Times,serif" font-size="14.00">inmediato</text>
</g>
<!-- HOME_SET_INDEX_POSITION&#45;&gt;HOME_FINAL_MOVE_START -->
<g id="edge23" class="edge"><title>HOME_SET_INDEX_POSITION&#45;&gt;HOME_FINAL_MOVE_START</title>
<path fill="none" stroke="black" d="M380.851,-275.799C368.916,-263.274 352.589,-246.141 339.334,-232.231"/>
<polygon fill="black" stroke="black" points="341.766,-229.71 332.334,-224.885 336.698,-234.539 341.766,-229.71"/>
<text text-anchor="middle" x="389.743" y="-246.8" font-family="Times,serif" font-size="14.00">inmediato</text>
</g>
<!-- HOME_FINAL_MOVE_WAIT -->
<g id="node19" class="node"><title>HOME_FINAL_MOVE_WAIT</title>
<ellipse fill="none" stroke="black" cx="316.243" cy="-120" rx="126.178" ry="18"/>
<text text-anchor="middle" x="316.243" y="-116.3" font-family="Times,serif" font-size="14.00">HOME_FINAL_MOVE_WAIT</text>
</g>
<!-- HOME_FINAL_MOVE_START&#45;&gt;HOME_FINAL_MOVE_WAIT -->
<g id="edge24" class="edge"><title>HOME_FINAL_MOVE_START&#45;&gt;HOME_FINAL_MOVE_WAIT</title>
<path fill="none" stroke="black" d="M316.243,-188.799C316.243,-177.163 316.243,-161.548 316.243,-148.237"/>
<polygon fill="black" stroke="black" points="319.743,-148.175 316.243,-138.175 312.743,-148.175 319.743,-148.175"/>
<text text-anchor="middle" x="394.743" y="-159.8" font-family="Times,serif" font-size="14.00">despues de HOME_DELAY</text>
</g>
<!-- HOME_ABORT -->
<g id="node20" class="node"><title>HOME_ABORT</title>
<ellipse fill="none" stroke="black" cx="528.243" cy="-18" rx="71.4873" ry="18"/>
<text text-anchor="middle" x="528.243" y="-14.3" font-family="Times,serif" font-size="14.00">HOME_ABORT</text>
</g>
<!-- HOME_FINAL_MOVE_WAIT&#45;&gt;HOME_ABORT -->
<g id="edge25" class="edge"><title>HOME_FINAL_MOVE_WAIT&#45;&gt;HOME_ABORT</title>
<path fill="none" stroke="black" d="M351.25,-102.487C388.486,-84.9229 447.353,-57.1556 486.858,-38.5209"/>
<polygon fill="black" stroke="black" points="488.414,-41.657 495.965,-34.2252 485.428,-35.326 488.414,-41.657"/>
<text text-anchor="middle" x="478.743" y="-65.3" font-family="Times,serif" font-size="14.00">en limite</text>
</g>
<!-- HOME_FINISHED -->
<g id="node21" class="node"><title>HOME_FINISHED</title>
<ellipse fill="none" stroke="black" cx="81.2428" cy="-18" rx="81.4863" ry="18"/>
<text text-anchor="middle" x="81.2428" y="-14.3" font-family="Times,serif" font-size="14.00">HOME_FINISHED</text>
</g>
<!-- HOME_FINAL_MOVE_WAIT&#45;&gt;HOME_FINISHED -->
<g id="edge26" class="edge"><title>HOME_FINAL_MOVE_WAIT&#45;&gt;HOME_FINISHED</title>
<path fill="none" stroke="black" d="M278.225,-102.822C236.835,-85.2095 170.675,-57.0563 126.603,-38.3023"/>
<polygon fill="black" stroke="black" points="127.849,-35.0288 117.277,-34.3338 125.108,-41.4699 127.849,-35.0288"/>
<text text-anchor="middle" x="303.243" y="-65.3" font-family="Times,serif" font-size="14.00">posicion home alcanzada</text>
</g>
<!-- HOME_ABORT&#45;&gt;HOME_IDLE -->
<g id="edge29" class="edge"><title>HOME_ABORT&#45;&gt;HOME_IDLE</title>
<path fill="none" stroke="black" d="M591.519,-26.4771C681.921,-38.9519 837.243,-67.8305 837.243,-119 837.243,-1336 837.243,-1336 837.243,-1336 837.243,-1398.17 393.433,-1424.92 217.168,-1433.09"/>
<polygon fill="black" stroke="black" points="216.789,-1429.6 206.959,-1433.56 217.108,-1436.6 216.789,-1429.6"/>
</g>
<!-- HOME_FINISHED&#45;&gt;HOME_IDLE -->
<g id="edge27" class="edge"><title>HOME_FINISHED&#45;&gt;HOME_IDLE</title>
<path fill="none" stroke="black" d="M63.5653,-35.5975C45.8668,-54.0946 21.2428,-85.796 21.2428,-119 21.2428,-1336 21.2428,-1336 21.2428,-1336 21.2428,-1369.24 33.1627,-1379.18 58.2428,-1401 67.8354,-1409.34 79.6622,-1415.84 91.4982,-1420.85"/>
<polygon fill="black" stroke="black" points="90.362,-1424.16 100.95,-1424.55 92.9137,-1417.64 90.362,-1424.16"/>
</g>
<!-- cualquiera -->
<g id="node22" class="node"><title>cualquiera</title>
<ellipse fill="none" stroke="black" cx="528.243" cy="-120" rx="47.3916" ry="18"/>
<text text-anchor="middle" x="528.243" y="-116.3" font-family="Times,serif" font-size="14.00">cualquiera</text>
</g>
<!-- cualquiera&#45;&gt;HOME_ABORT -->
<g id="edge28" class="edge"><title>cualquiera&#45;&gt;HOME_ABORT</title>
<path fill="none" stroke="black" d="M528.243,-101.581C528.243,-86.3816 528.243,-64.0669 528.243,-46.4644"/>
<polygon fill="black" stroke="black" points="531.743,-46.219 528.243,-36.2191 524.743,-46.2191 531.743,-46.219"/>
<text text-anchor="middle" x="579.743" y="-72.8" font-family="Times,serif" font-size="14.00">limite tocado</text>
<text text-anchor="middle" x="579.743" y="-57.8" font-family="Times,serif" font-size="14.00">fin de movimiento</text>
</g>
</g>
</svg>
