<?xml version="1.0" encoding="UTF-8" standalone="no"?>
<!DOCTYPE svg PUBLIC "-//W3C//DTD SVG 1.1//EN"
 "http://www.w3.org/Graphics/SVG/1.1/DTD/svg11.dtd">
<!-- Generated by graphviz version 2.38.0 (20140413.2041)
 -->
<!-- Title: net Pages: 1 -->
<svg width="401pt" height="359pt"
 viewBox="0.00 0.00 401.35 359.00" xmlns="http://www.w3.org/2000/svg" xmlns:xlink="http://www.w3.org/1999/xlink">
<g id="graph0" class="graph" transform="scale(1 1) rotate(0) translate(4 355)">
<title>net</title>
<polygon fill="white" stroke="none" points="-4,4 -4,-355 397.347,-355 397.347,4 -4,4"/>
<!-- IDLE -->
<g id="node1" class="node"><title>IDLE</title>
<ellipse fill="none" stroke="black" cx="147.347" cy="-333" rx="30.5947" ry="18"/>
<text text-anchor="middle" x="147.347" y="-329.3" font-family="Times,serif" font-size="14.00">IDLE</text>
</g>
<!-- START -->
<g id="node3" class="node"><title>START</title>
<ellipse fill="none" stroke="black" cx="38.3466" cy="-241.5" rx="38.1938" ry="18"/>
<text text-anchor="middle" x="38.3466" y="-237.8" font-family="Times,serif" font-size="14.00">START</text>
</g>
<!-- IDLE&#45;&gt;START -->
<g id="edge1" class="edge"><title>IDLE&#45;&gt;START</title>
<path fill="none" stroke="black" d="M117.281,-328.951C79.5552,-324.432 18.1139,-314.543 4.3466,-297 -3.68659,-286.764 2.66596,-274.537 11.9596,-264.26"/>
<polygon fill="black" stroke="black" points="14.4588,-266.711 19.0829,-257.178 9.52351,-261.747 14.4588,-266.711"/>
<text text-anchor="middle" x="68.8466" y="-285.8" font-family="Times,serif" font-size="14.00">EMCMOT_HOME(&#45;1)</text>
</g>
<!-- START_JOINTS -->
<g id="node2" class="node"><title>START_JOINTS</title>
<ellipse fill="none" stroke="black" cx="95.3466" cy="-135" rx="72.2875" ry="18"/>
<text text-anchor="middle" x="95.3466" y="-131.3" font-family="Times,serif" font-size="14.00">START_JOINTS</text>
</g>
<!-- START_JOINTS&#45;&gt;IDLE -->
<g id="edge5" class="edge"><title>START_JOINTS&#45;&gt;IDLE</title>
<path fill="none" stroke="black" d="M99.8969,-153.151C108.966,-187.334 129.353,-264.179 140.216,-305.124"/>
<polygon fill="black" stroke="black" points="136.876,-306.181 142.823,-314.949 143.641,-304.386 136.876,-306.181"/>
<text text-anchor="middle" x="167.847" y="-252.8" font-family="Times,serif" font-size="14.00">si no quedan</text>
<text text-anchor="middle" x="167.847" y="-237.8" font-family="Times,serif" font-size="14.00"> articulaciones</text>
<text text-anchor="middle" x="167.847" y="-222.8" font-family="Times,serif" font-size="14.00">sin home</text>
</g>
<!-- WAIT_JOINTS -->
<g id="node4" class="node"><title>WAIT_JOINTS</title>
<ellipse fill="none" stroke="black" cx="112.347" cy="-18" rx="67.6881" ry="18"/>
<text text-anchor="middle" x="112.347" y="-14.3" font-family="Times,serif" font-size="14.00">WAIT_JOINTS</text>
</g>
<!-- START_JOINTS&#45;&gt;WAIT_JOINTS -->
<g id="edge3" class="edge"><title>START_JOINTS&#45;&gt;WAIT_JOINTS</title>
<path fill="none" stroke="black" d="M92.2721,-116.846C89.9467,-100.441 87.9782,-75.1414 93.3466,-54 94.1049,-51.0137 95.1749,-48.0066 96.4252,-45.0763"/>
<polygon fill="black" stroke="black" points="99.5702,-46.6121 100.872,-36.0975 93.2974,-43.5054 99.5702,-46.6121"/>
</g>
<!-- START&#45;&gt;START_JOINTS -->
<g id="edge2" class="edge"><title>START&#45;&gt;START_JOINTS</title>
<path fill="none" stroke="black" d="M47.5046,-223.71C56.5916,-207.051 70.6455,-181.285 81.1739,-161.983"/>
<polygon fill="black" stroke="black" points="84.306,-163.55 86.0219,-153.095 78.1607,-160.198 84.306,-163.55"/>
</g>
<!-- WAIT_JOINTS&#45;&gt;IDLE -->
<g id="edge6" class="edge"><title>WAIT_JOINTS&#45;&gt;IDLE</title>
<path fill="none" stroke="black" d="M168.991,-28.0196C197.868,-33.8953 228.699,-42.5982 237.347,-54 294.179,-128.931 252.735,-179.551 211.347,-264 202.341,-282.376 186.656,-299.162 173.069,-311.46"/>
<polygon fill="black" stroke="black" points="170.619,-308.952 165.377,-318.159 175.217,-314.23 170.619,-308.952"/>
<text text-anchor="middle" x="324.347" y="-189.8" font-family="Times,serif" font-size="14.00">la articulacion tiene error</text>
<text text-anchor="middle" x="324.347" y="-174.8" font-family="Times,serif" font-size="14.00"> en su camino a home</text>
</g>
<!-- WAIT_JOINTS&#45;&gt;START_JOINTS -->
<g id="edge4" class="edge"><title>WAIT_JOINTS&#45;&gt;START_JOINTS</title>
<path fill="none" stroke="black" d="M109.796,-36.2536C107.047,-54.8515 102.632,-84.7175 99.4048,-106.548"/>
<polygon fill="black" stroke="black" points="95.9286,-106.13 97.9285,-116.534 102.853,-107.153 95.9286,-106.13"/>
<text text-anchor="middle" x="169.847" y="-87.8" font-family="Times,serif" font-size="14.00">todas las articulaciones</text>
<text text-anchor="middle" x="169.847" y="-72.8" font-family="Times,serif" font-size="14.00">en la secuencia</text>
<text text-anchor="middle" x="169.847" y="-57.8" font-family="Times,serif" font-size="14.00"> han adquirido home</text>
</g>
<!-- WAIT_JOINTS&#45;&gt;WAIT_JOINTS -->
<g id="edge7" class="edge"><title>WAIT_JOINTS&#45;&gt;WAIT_JOINTS</title>
<path fill="none" stroke="black" d="M166.26,-28.8743C183.897,-28.8181 197.941,-25.1934 197.941,-18 197.941,-12.2678 189.023,-8.80167 176.475,-7.60163"/>
<polygon fill="black" stroke="black" points="176.412,-4.09498 166.26,-7.12566 176.086,-11.0874 176.412,-4.09498"/>
</g>
</g>
</svg>
