solid link5_vismach
   facet normal -1.000000e+00 0.000000e+00 0.000000e+00
      outer loop
         vertex -6.000000e+01 -6.000000e+01 -2.068804e+02
         vertex -6.000000e+01 6.000000e+01 -3.217871e+02
         vertex -6.000000e+01 -6.000000e+01 -3.217871e+02
      endloop
   endfacet
   facet normal 0.000000e+00 -1.000000e+00 0.000000e+00
      outer loop
         vertex 6.000000e+01 -6.000000e+01 -3.217871e+02
         vertex -6.000000e+01 -6.000000e+01 -2.068804e+02
         vertex -6.000000e+01 -6.000000e+01 -3.217871e+02
      endloop
   endfacet
   facet normal 0.000000e+00 0.000000e+00 -1.000000e+00
      outer loop
         vertex -6.000000e+01 6.000000e+01 -3.217871e+02
         vertex 6.000000e+01 -6.000000e+01 -3.217871e+02
         vertex -6.000000e+01 -6.000000e+01 -3.217871e+02
      endloop
   endfacet
   facet normal -0.000000e+00 -1.000000e+00 -0.000000e+00
      outer loop
         vertex 6.000000e+01 -6.000000e+01 -2.068804e+02
         vertex -6.000000e+01 -6.000000e+01 -2.068804e+02
         vertex 6.000000e+01 -6.000000e+01 -3.217871e+02
      endloop
   endfacet
   facet normal 1.000000e+00 0.000000e+00 0.000000e+00
      outer loop
         vertex 6.000000e+01 6.000000e+01 -2.068804e+02
         vertex 6.000000e+01 -6.000000e+01 -2.068804e+02
         vertex 6.000000e+01 -6.000000e+01 -3.217871e+02
      endloop
   endfacet
   facet normal 1.000000e+00 0.000000e+00 -0.000000e+00
      outer loop
         vertex 6.000000e+01 6.000000e+01 -3.217871e+02
         vertex 6.000000e+01 6.000000e+01 -2.068804e+02
         vertex 6.000000e+01 -6.000000e+01 -3.217871e+02
      endloop
   endfacet
   facet normal 0.000000e+00 0.000000e+00 -1.000000e+00
      outer loop
         vertex -6.000000e+01 6.000000e+01 -3.217871e+02
         vertex 6.000000e+01 6.000000e+01 -3.217871e+02
         vertex 6.000000e+01 -6.000000e+01 -3.217871e+02
      endloop
   endfacet
   facet normal -1.000000e+00 -0.000000e+00 -0.000000e+00
      outer loop
         vertex -6.000000e+01 6.000000e+01 -2.068804e+02
         vertex -6.000000e+01 6.000000e+01 -3.217871e+02
         vertex -6.000000e+01 -6.000000e+01 -2.068804e+02
      endloop
   endfacet
   facet normal 0.000000e+00 -1.000000e+00 0.000000e+00
      outer loop
         vertex 6.000000e+01 -6.000000e+01 -2.068804e+02
         vertex -4.500000e+01 -6.000000e+01 3.212847e+00
         vertex -6.000000e+01 -6.000000e+01 -2.068804e+02
      endloop
   endfacet
   facet normal -9.974609e-01 0.000000e+00 7.121557e-02
      outer loop
         vertex -5.164693e+01 -3.500000e+01 -8.988545e+01
         vertex -6.000000e+01 6.000000e+01 -2.068804e+02
         vertex -6.000000e+01 -6.000000e+01 -2.068804e+02
      endloop
   endfacet
   facet normal -9.974609e-01 -4.422371e-08 7.121558e-02
      outer loop
         vertex -4.500000e+01 -6.000000e+01 3.212847e+00
         vertex -5.164693e+01 -3.500000e+01 -8.988545e+01
         vertex -6.000000e+01 -6.000000e+01 -2.068804e+02
      endloop
   endfacet
   facet normal -0.000000e+00 -1.000000e+00 -0.000000e+00
      outer loop
         vertex 4.500000e+01 -6.000000e+01 3.212847e+00
         vertex -4.500000e+01 -6.000000e+01 3.212847e+00
         vertex 6.000000e+01 -6.000000e+01 -2.068804e+02
      endloop
   endfacet
   facet normal 9.974609e-01 -4.422371e-08 7.121558e-02
      outer loop
         vertex 5.164693e+01 -3.500000e+01 -8.988545e+01
         vertex 4.500000e+01 -6.000000e+01 3.212847e+00
         vertex 6.000000e+01 -6.000000e+01 -2.068804e+02
      endloop
   endfacet
   facet normal 9.974609e-01 0.000000e+00 7.121557e-02
      outer loop
         vertex 5.164693e+01 3.500000e+01 -8.988545e+01
         vertex 5.164693e+01 -3.500000e+01 -8.988545e+01
         vertex 6.000000e+01 -6.000000e+01 -2.068804e+02
      endloop
   endfacet
   facet normal 9.974609e-01 0.000000e+00 7.121557e-02
      outer loop
         vertex 6.000000e+01 6.000000e+01 -2.068804e+02
         vertex 5.164693e+01 3.500000e+01 -8.988545e+01
         vertex 6.000000e+01 -6.000000e+01 -2.068804e+02
      endloop
   endfacet
   facet normal 0.000000e+00 -1.000000e+00 0.000000e+00
      outer loop
         vertex 4.500000e+01 -6.000000e+01 3.212847e+00
         vertex 4.247271e+01 -6.000000e+01 1.521156e+01
         vertex -4.500000e+01 -6.000000e+01 3.212847e+00
      endloop
   endfacet
   facet normal -0.000000e+00 -1.000000e+00 0.000000e+00
      outer loop
         vertex 4.247271e+01 -6.000000e+01 1.521156e+01
         vertex 3.680782e+01 -6.000000e+01 2.608652e+01
         vertex -4.500000e+01 -6.000000e+01 3.212847e+00
      endloop
   endfacet
   facet normal -0.000000e+00 -1.000000e+00 0.000000e+00
      outer loop
         vertex 3.680782e+01 -6.000000e+01 2.608652e+01
         vertex 2.842381e+01 -6.000000e+01 3.503440e+01
         vertex -4.500000e+01 -6.000000e+01 3.212847e+00
      endloop
   endfacet
   facet normal -0.000000e+00 -1.000000e+00 0.000000e+00
      outer loop
         vertex 2.842381e+01 -6.000000e+01 3.503440e+01
         vertex 1.794004e+01 -6.000000e+01 4.139418e+01
         vertex -4.500000e+01 -6.000000e+01 3.212847e+00
      endloop
   endfacet
   facet normal -0.000000e+00 -1.000000e+00 0.000000e+00
      outer loop
         vertex 1.794004e+01 -6.000000e+01 4.139418e+01
         vertex 6.130987e+00 -6.000000e+01 4.469601e+01
         vertex -4.500000e+01 -6.000000e+01 3.212847e+00
      endloop
   endfacet
   facet normal -0.000000e+00 -1.000000e+00 0.000000e+00
      outer loop
         vertex 6.130987e+00 -6.000000e+01 4.469601e+01
         vertex -6.130987e+00 -6.000000e+01 4.469601e+01
         vertex -4.500000e+01 -6.000000e+01 3.212847e+00
      endloop
   endfacet
   facet normal 0.000000e+00 -1.000000e+00 0.000000e+00
      outer loop
         vertex -6.130987e+00 -6.000000e+01 4.469601e+01
         vertex -1.794004e+01 -6.000000e+01 4.139418e+01
         vertex -4.500000e+01 -6.000000e+01 3.212847e+00
      endloop
   endfacet
   facet normal 0.000000e+00 -1.000000e+00 0.000000e+00
      outer loop
         vertex -1.794004e+01 -6.000000e+01 4.139418e+01
         vertex -2.842381e+01 -6.000000e+01 3.503440e+01
         vertex -4.500000e+01 -6.000000e+01 3.212847e+00
      endloop
   endfacet
   facet normal 0.000000e+00 -1.000000e+00 0.000000e+00
      outer loop
         vertex -2.842381e+01 -6.000000e+01 3.503440e+01
         vertex -3.680782e+01 -6.000000e+01 2.608652e+01
         vertex -4.500000e+01 -6.000000e+01 3.212847e+00
      endloop
   endfacet
   facet normal 0.000000e+00 -1.000000e+00 0.000000e+00
      outer loop
         vertex -3.680782e+01 -6.000000e+01 2.608652e+01
         vertex -4.247271e+01 -6.000000e+01 1.521156e+01
         vertex -4.500000e+01 -6.000000e+01 3.212847e+00
      endloop
   endfacet
   facet normal -9.974609e-01 0.000000e+00 7.121559e-02
      outer loop
         vertex -4.500000e+01 -3.500000e+01 3.212847e+00
         vertex -5.164693e+01 -3.500000e+01 -8.988545e+01
         vertex -4.500000e+01 -6.000000e+01 3.212847e+00
      endloop
   endfacet
   facet normal -9.785293e-01 0.000000e+00 2.061079e-01
      outer loop
         vertex -4.247271e+01 -6.000000e+01 1.521156e+01
         vertex -4.500000e+01 -3.500000e+01 3.212847e+00
         vertex -4.500000e+01 -6.000000e+01 3.212847e+00
      endloop
   endfacet
   facet normal 9.785293e-01 0.000000e+00 2.061079e-01
      outer loop
         vertex 4.500000e+01 -3.500000e+01 3.212847e+00
         vertex 4.247271e+01 -3.500000e+01 1.521156e+01
         vertex 4.500000e+01 -6.000000e+01 3.212847e+00
      endloop
   endfacet
   facet normal 9.785293e-01 0.000000e+00 2.061079e-01
      outer loop
         vertex 4.247271e+01 -3.500000e+01 1.521156e+01
         vertex 4.247271e+01 -6.000000e+01 1.521156e+01
         vertex 4.500000e+01 -6.000000e+01 3.212847e+00
      endloop
   endfacet
   facet normal 9.974609e-01 0.000000e+00 7.121559e-02
      outer loop
         vertex 5.164693e+01 -3.500000e+01 -8.988545e+01
         vertex 4.500000e+01 -3.500000e+01 3.212847e+00
         vertex 4.500000e+01 -6.000000e+01 3.212847e+00
      endloop
   endfacet
   facet normal -8.868856e-01 0.000000e+00 4.619891e-01
      outer loop
         vertex -3.680782e+01 -6.000000e+01 2.608652e+01
         vertex -4.247271e+01 -3.500000e+01 1.521156e+01
         vertex -4.247271e+01 -6.000000e+01 1.521156e+01
      endloop
   endfacet
   facet normal -9.785293e-01 0.000000e+00 2.061079e-01
      outer loop
         vertex -4.247271e+01 -3.500000e+01 1.521156e+01
         vertex -4.500000e+01 -3.500000e+01 3.212847e+00
         vertex -4.247271e+01 -6.000000e+01 1.521156e+01
      endloop
   endfacet
   facet normal 8.868856e-01 0.000000e+00 4.619891e-01
      outer loop
         vertex 4.247271e+01 -3.500000e+01 1.521156e+01
         vertex 3.680782e+01 -3.500000e+01 2.608652e+01
         vertex 4.247271e+01 -6.000000e+01 1.521156e+01
      endloop
   endfacet
   facet normal 8.868856e-01 0.000000e+00 4.619891e-01
      outer loop
         vertex 3.680782e+01 -3.500000e+01 2.608652e+01
         vertex 3.680782e+01 -6.000000e+01 2.608652e+01
         vertex 4.247271e+01 -6.000000e+01 1.521156e+01
      endloop
   endfacet
   facet normal -7.297256e-01 0.000000e+00 6.837401e-01
      outer loop
         vertex -2.842381e+01 -6.000000e+01 3.503440e+01
         vertex -3.680782e+01 -3.500000e+01 2.608652e+01
         vertex -3.680782e+01 -6.000000e+01 2.608652e+01
      endloop
   endfacet
   facet normal -8.868856e-01 0.000000e+00 4.619891e-01
      outer loop
         vertex -3.680782e+01 -3.500000e+01 2.608652e+01
         vertex -4.247271e+01 -3.500000e+01 1.521156e+01
         vertex -3.680782e+01 -6.000000e+01 2.608652e+01
      endloop
   endfacet
   facet normal 7.297256e-01 0.000000e+00 6.837401e-01
      outer loop
         vertex 3.680782e+01 -3.500000e+01 2.608652e+01
         vertex 2.842381e+01 -3.500000e+01 3.503440e+01
         vertex 3.680782e+01 -6.000000e+01 2.608652e+01
      endloop
   endfacet
   facet normal 7.297256e-01 0.000000e+00 6.837401e-01
      outer loop
         vertex 2.842381e+01 -3.500000e+01 3.503440e+01
         vertex 2.842381e+01 -6.000000e+01 3.503440e+01
         vertex 3.680782e+01 -6.000000e+01 2.608652e+01
      endloop
   endfacet
   facet normal -5.186588e-01 0.000000e+00 8.549813e-01
      outer loop
         vertex -1.794004e+01 -6.000000e+01 4.139418e+01
         vertex -2.842381e+01 -3.500000e+01 3.503440e+01
         vertex -2.842381e+01 -6.000000e+01 3.503440e+01
      endloop
   endfacet
   facet normal -7.297256e-01 0.000000e+00 6.837401e-01
      outer loop
         vertex -2.842381e+01 -3.500000e+01 3.503440e+01
         vertex -3.680782e+01 -3.500000e+01 2.608652e+01
         vertex -2.842381e+01 -6.000000e+01 3.503440e+01
      endloop
   endfacet
   facet normal 5.186588e-01 0.000000e+00 8.549813e-01
      outer loop
         vertex 2.842381e+01 -3.500000e+01 3.503440e+01
         vertex 1.794004e+01 -3.500000e+01 4.139418e+01
         vertex 2.842381e+01 -6.000000e+01 3.503440e+01
      endloop
   endfacet
   facet normal 5.186588e-01 0.000000e+00 8.549813e-01
      outer loop
         vertex 1.794004e+01 -3.500000e+01 4.139418e+01
         vertex 1.794004e+01 -6.000000e+01 4.139418e+01
         vertex 2.842381e+01 -6.000000e+01 3.503440e+01
      endloop
   endfacet
   facet normal -2.692739e-01 0.000000e+00 9.630636e-01
      outer loop
         vertex -6.130987e+00 -6.000000e+01 4.469601e+01
         vertex -1.794004e+01 -3.500000e+01 4.139418e+01
         vertex -1.794004e+01 -6.000000e+01 4.139418e+01
      endloop
   endfacet
   facet normal -5.186588e-01 0.000000e+00 8.549813e-01
      outer loop
         vertex -1.794004e+01 -3.500000e+01 4.139418e+01
         vertex -2.842381e+01 -3.500000e+01 3.503440e+01
         vertex -1.794004e+01 -6.000000e+01 4.139418e+01
      endloop
   endfacet
   facet normal 2.692739e-01 0.000000e+00 9.630636e-01
      outer loop
         vertex 1.794004e+01 -3.500000e+01 4.139418e+01
         vertex 6.130987e+00 -3.500000e+01 4.469601e+01
         vertex 1.794004e+01 -6.000000e+01 4.139418e+01
      endloop
   endfacet
   facet normal 2.692739e-01 0.000000e+00 9.630636e-01
      outer loop
         vertex 6.130987e+00 -3.500000e+01 4.469601e+01
         vertex 6.130987e+00 -6.000000e+01 4.469601e+01
         vertex 1.794004e+01 -6.000000e+01 4.139418e+01
      endloop
   endfacet
   facet normal 0.000000e+00 0.000000e+00 1.000000e+00
      outer loop
         vertex 6.130987e+00 -6.000000e+01 4.469601e+01
         vertex -6.130987e+00 -3.500000e+01 4.469601e+01
         vertex -6.130987e+00 -6.000000e+01 4.469601e+01
      endloop
   endfacet
   facet normal -2.692739e-01 0.000000e+00 9.630636e-01
      outer loop
         vertex -6.130987e+00 -3.500000e+01 4.469601e+01
         vertex -1.794004e+01 -3.500000e+01 4.139418e+01
         vertex -6.130987e+00 -6.000000e+01 4.469601e+01
      endloop
   endfacet
   facet normal 0.000000e+00 0.000000e+00 1.000000e+00
      outer loop
         vertex 6.130987e+00 -3.500000e+01 4.469601e+01
         vertex -6.130987e+00 -3.500000e+01 4.469601e+01
         vertex 6.130987e+00 -6.000000e+01 4.469601e+01
      endloop
   endfacet
   facet normal -9.974609e-01 0.000000e+00 7.121557e-02
      outer loop
         vertex -5.164693e+01 3.500000e+01 -8.988545e+01
         vertex -6.000000e+01 6.000000e+01 -2.068804e+02
         vertex -5.164693e+01 -3.500000e+01 -8.988545e+01
      endloop
   endfacet
   facet normal 0.000000e+00 0.000000e+00 1.000000e+00
      outer loop
         vertex 5.164693e+01 -3.500000e+01 -8.988545e+01
         vertex -5.164693e+01 3.500000e+01 -8.988545e+01
         vertex -5.164693e+01 -3.500000e+01 -8.988545e+01
      endloop
   endfacet
   facet normal 0.000000e+00 1.000000e+00 0.000000e+00
      outer loop
         vertex 4.500000e+01 -3.500000e+01 3.212847e+00
         vertex 5.164693e+01 -3.500000e+01 -8.988545e+01
         vertex -5.164693e+01 -3.500000e+01 -8.988545e+01
      endloop
   endfacet
   facet normal -0.000000e+00 1.000000e+00 0.000000e+00
      outer loop
         vertex -4.500000e+01 -3.500000e+01 3.212847e+00
         vertex 4.500000e+01 -3.500000e+01 3.212847e+00
         vertex -5.164693e+01 -3.500000e+01 -8.988545e+01
      endloop
   endfacet
   facet normal 0.000000e+00 0.000000e+00 1.000000e+00
      outer loop
         vertex 5.164693e+01 3.500000e+01 -8.988545e+01
         vertex -5.164693e+01 3.500000e+01 -8.988545e+01
         vertex 5.164693e+01 -3.500000e+01 -8.988545e+01
      endloop
   endfacet
   facet normal 0.000000e+00 1.000000e+00 0.000000e+00
      outer loop
         vertex 2.842381e+01 -3.500000e+01 3.503440e+01
         vertex 3.680782e+01 -3.500000e+01 2.608652e+01
         vertex -4.500000e+01 -3.500000e+01 3.212847e+00
      endloop
   endfacet
   facet normal -0.000000e+00 1.000000e+00 0.000000e+00
      outer loop
         vertex -4.247271e+01 -3.500000e+01 1.521156e+01
         vertex 2.842381e+01 -3.500000e+01 3.503440e+01
         vertex -4.500000e+01 -3.500000e+01 3.212847e+00
      endloop
   endfacet
   facet normal 0.000000e+00 1.000000e+00 0.000000e+00
      outer loop
         vertex 4.247271e+01 -3.500000e+01 1.521156e+01
         vertex 4.500000e+01 -3.500000e+01 3.212847e+00
         vertex -4.500000e+01 -3.500000e+01 3.212847e+00
      endloop
   endfacet
   facet normal 0.000000e+00 1.000000e+00 0.000000e+00
      outer loop
         vertex 3.680782e+01 -3.500000e+01 2.608652e+01
         vertex 4.247271e+01 -3.500000e+01 1.521156e+01
         vertex -4.500000e+01 -3.500000e+01 3.212847e+00
      endloop
   endfacet
   facet normal -0.000000e+00 1.000000e+00 0.000000e+00
      outer loop
         vertex -3.680782e+01 -3.500000e+01 2.608652e+01
         vertex 2.842381e+01 -3.500000e+01 3.503440e+01
         vertex -4.247271e+01 -3.500000e+01 1.521156e+01
      endloop
   endfacet
   facet normal -0.000000e+00 1.000000e+00 0.000000e+00
      outer loop
         vertex -2.842381e+01 -3.500000e+01 3.503440e+01
         vertex 2.842381e+01 -3.500000e+01 3.503440e+01
         vertex -3.680782e+01 -3.500000e+01 2.608652e+01
      endloop
   endfacet
   facet normal 0.000000e+00 1.000000e+00 0.000000e+00
      outer loop
         vertex -1.794004e+01 -3.500000e+01 4.139418e+01
         vertex 2.842381e+01 -3.500000e+01 3.503440e+01
         vertex -2.842381e+01 -3.500000e+01 3.503440e+01
      endloop
   endfacet
   facet normal -0.000000e+00 1.000000e+00 0.000000e+00
      outer loop
         vertex -1.794004e+01 -3.500000e+01 4.139418e+01
         vertex -6.130987e+00 -3.500000e+01 4.469601e+01
         vertex 2.842381e+01 -3.500000e+01 3.503440e+01
      endloop
   endfacet
   facet normal -0.000000e+00 1.000000e+00 0.000000e+00
      outer loop
         vertex -6.130987e+00 -3.500000e+01 4.469601e+01
         vertex 6.130987e+00 -3.500000e+01 4.469601e+01
         vertex 2.842381e+01 -3.500000e+01 3.503440e+01
      endloop
   endfacet
   facet normal 0.000000e+00 1.000000e+00 0.000000e+00
      outer loop
         vertex 6.130987e+00 -3.500000e+01 4.469601e+01
         vertex 1.794004e+01 -3.500000e+01 4.139418e+01
         vertex 2.842381e+01 -3.500000e+01 3.503440e+01
      endloop
   endfacet
   facet normal -9.974609e-01 0.000000e+00 7.121559e-02
      outer loop
         vertex -4.500000e+01 3.500000e+01 3.212847e+00
         vertex -4.500000e+01 6.000000e+01 3.212847e+00
         vertex -5.164693e+01 3.500000e+01 -8.988545e+01
      endloop
   endfacet
   facet normal -9.974609e-01 4.422371e-08 7.121558e-02
      outer loop
         vertex -4.500000e+01 6.000000e+01 3.212847e+00
         vertex -6.000000e+01 6.000000e+01 -2.068804e+02
         vertex -5.164693e+01 3.500000e+01 -8.988545e+01
      endloop
   endfacet
   facet normal 0.000000e+00 -1.000000e+00 0.000000e+00
      outer loop
         vertex 5.164693e+01 3.500000e+01 -8.988545e+01
         vertex -4.500000e+01 3.500000e+01 3.212847e+00
         vertex -5.164693e+01 3.500000e+01 -8.988545e+01
      endloop
   endfacet
   facet normal 9.974609e-01 0.000000e+00 7.121559e-02
      outer loop
         vertex 4.500000e+01 6.000000e+01 3.212847e+00
         vertex 4.500000e+01 3.500000e+01 3.212847e+00
         vertex 5.164693e+01 3.500000e+01 -8.988545e+01
      endloop
   endfacet
   facet normal 9.974609e-01 4.422371e-08 7.121558e-02
      outer loop
         vertex 6.000000e+01 6.000000e+01 -2.068804e+02
         vertex 4.500000e+01 6.000000e+01 3.212847e+00
         vertex 5.164693e+01 3.500000e+01 -8.988545e+01
      endloop
   endfacet
   facet normal -0.000000e+00 -1.000000e+00 -0.000000e+00
      outer loop
         vertex 4.500000e+01 3.500000e+01 3.212847e+00
         vertex -4.500000e+01 3.500000e+01 3.212847e+00
         vertex 5.164693e+01 3.500000e+01 -8.988545e+01
      endloop
   endfacet
   facet normal -9.785293e-01 0.000000e+00 2.061079e-01
      outer loop
         vertex -4.247271e+01 3.500000e+01 1.521156e+01
         vertex -4.500000e+01 6.000000e+01 3.212847e+00
         vertex -4.500000e+01 3.500000e+01 3.212847e+00
      endloop
   endfacet
   facet normal 0.000000e+00 -1.000000e+00 0.000000e+00
      outer loop
         vertex 4.500000e+01 3.500000e+01 3.212847e+00
         vertex 4.247271e+01 3.500000e+01 1.521156e+01
         vertex -4.500000e+01 3.500000e+01 3.212847e+00
      endloop
   endfacet
   facet normal -0.000000e+00 -1.000000e+00 0.000000e+00
      outer loop
         vertex 4.247271e+01 3.500000e+01 1.521156e+01
         vertex 3.680782e+01 3.500000e+01 2.608652e+01
         vertex -4.500000e+01 3.500000e+01 3.212847e+00
      endloop
   endfacet
   facet normal 0.000000e+00 -1.000000e+00 0.000000e+00
      outer loop
         vertex 3.680782e+01 3.500000e+01 2.608652e+01
         vertex -4.247271e+01 3.500000e+01 1.521156e+01
         vertex -4.500000e+01 3.500000e+01 3.212847e+00
      endloop
   endfacet
   facet normal 9.785293e-01 0.000000e+00 2.061079e-01
      outer loop
         vertex 4.500000e+01 6.000000e+01 3.212847e+00
         vertex 4.247271e+01 6.000000e+01 1.521156e+01
         vertex 4.500000e+01 3.500000e+01 3.212847e+00
      endloop
   endfacet
   facet normal 9.785293e-01 0.000000e+00 2.061079e-01
      outer loop
         vertex 4.247271e+01 6.000000e+01 1.521156e+01
         vertex 4.247271e+01 3.500000e+01 1.521156e+01
         vertex 4.500000e+01 3.500000e+01 3.212847e+00
      endloop
   endfacet
   facet normal -8.868856e-01 0.000000e+00 4.619891e-01
      outer loop
         vertex -3.680782e+01 3.500000e+01 2.608652e+01
         vertex -4.247271e+01 6.000000e+01 1.521156e+01
         vertex -4.247271e+01 3.500000e+01 1.521156e+01
      endloop
   endfacet
   facet normal -9.785293e-01 0.000000e+00 2.061079e-01
      outer loop
         vertex -4.247271e+01 6.000000e+01 1.521156e+01
         vertex -4.500000e+01 6.000000e+01 3.212847e+00
         vertex -4.247271e+01 3.500000e+01 1.521156e+01
      endloop
   endfacet
   facet normal -0.000000e+00 -1.000000e+00 0.000000e+00
      outer loop
         vertex 3.680782e+01 3.500000e+01 2.608652e+01
         vertex -3.680782e+01 3.500000e+01 2.608652e+01
         vertex -4.247271e+01 3.500000e+01 1.521156e+01
      endloop
   endfacet
   facet normal 8.868856e-01 0.000000e+00 4.619891e-01
      outer loop
         vertex 4.247271e+01 6.000000e+01 1.521156e+01
         vertex 3.680782e+01 6.000000e+01 2.608652e+01
         vertex 4.247271e+01 3.500000e+01 1.521156e+01
      endloop
   endfacet
   facet normal 8.868856e-01 0.000000e+00 4.619891e-01
      outer loop
         vertex 3.680782e+01 6.000000e+01 2.608652e+01
         vertex 3.680782e+01 3.500000e+01 2.608652e+01
         vertex 4.247271e+01 3.500000e+01 1.521156e+01
      endloop
   endfacet
   facet normal -7.297256e-01 0.000000e+00 6.837401e-01
      outer loop
         vertex -2.842381e+01 3.500000e+01 3.503440e+01
         vertex -3.680782e+01 6.000000e+01 2.608652e+01
         vertex -3.680782e+01 3.500000e+01 2.608652e+01
      endloop
   endfacet
   facet normal -8.868856e-01 0.000000e+00 4.619891e-01
      outer loop
         vertex -3.680782e+01 6.000000e+01 2.608652e+01
         vertex -4.247271e+01 6.000000e+01 1.521156e+01
         vertex -3.680782e+01 3.500000e+01 2.608652e+01
      endloop
   endfacet
   facet normal 0.000000e+00 -1.000000e+00 0.000000e+00
      outer loop
         vertex 3.680782e+01 3.500000e+01 2.608652e+01
         vertex -2.842381e+01 3.500000e+01 3.503440e+01
         vertex -3.680782e+01 3.500000e+01 2.608652e+01
      endloop
   endfacet
   facet normal 7.297256e-01 0.000000e+00 6.837401e-01
      outer loop
         vertex 3.680782e+01 6.000000e+01 2.608652e+01
         vertex 2.842381e+01 6.000000e+01 3.503440e+01
         vertex 3.680782e+01 3.500000e+01 2.608652e+01
      endloop
   endfacet
   facet normal 7.297256e-01 0.000000e+00 6.837401e-01
      outer loop
         vertex 2.842381e+01 6.000000e+01 3.503440e+01
         vertex 2.842381e+01 3.500000e+01 3.503440e+01
         vertex 3.680782e+01 3.500000e+01 2.608652e+01
      endloop
   endfacet
   facet normal -0.000000e+00 -1.000000e+00 -0.000000e+00
      outer loop
         vertex 2.842381e+01 3.500000e+01 3.503440e+01
         vertex -2.842381e+01 3.500000e+01 3.503440e+01
         vertex 3.680782e+01 3.500000e+01 2.608652e+01
      endloop
   endfacet
   facet normal -5.186588e-01 0.000000e+00 8.549813e-01
      outer loop
         vertex -1.794004e+01 3.500000e+01 4.139418e+01
         vertex -2.842381e+01 6.000000e+01 3.503440e+01
         vertex -2.842381e+01 3.500000e+01 3.503440e+01
      endloop
   endfacet
   facet normal -7.297256e-01 0.000000e+00 6.837401e-01
      outer loop
         vertex -2.842381e+01 6.000000e+01 3.503440e+01
         vertex -3.680782e+01 6.000000e+01 2.608652e+01
         vertex -2.842381e+01 3.500000e+01 3.503440e+01
      endloop
   endfacet
   facet normal 0.000000e+00 -1.000000e+00 0.000000e+00
      outer loop
         vertex 2.842381e+01 3.500000e+01 3.503440e+01
         vertex 1.794004e+01 3.500000e+01 4.139418e+01
         vertex -2.842381e+01 3.500000e+01 3.503440e+01
      endloop
   endfacet
   facet normal -0.000000e+00 -1.000000e+00 0.000000e+00
      outer loop
         vertex 1.794004e+01 3.500000e+01 4.139418e+01
         vertex 6.130987e+00 3.500000e+01 4.469601e+01
         vertex -2.842381e+01 3.500000e+01 3.503440e+01
      endloop
   endfacet
   facet normal -0.000000e+00 -1.000000e+00 0.000000e+00
      outer loop
         vertex 6.130987e+00 3.500000e+01 4.469601e+01
         vertex -6.130987e+00 3.500000e+01 4.469601e+01
         vertex -2.842381e+01 3.500000e+01 3.503440e+01
      endloop
   endfacet
   facet normal 0.000000e+00 -1.000000e+00 0.000000e+00
      outer loop
         vertex -6.130987e+00 3.500000e+01 4.469601e+01
         vertex -1.794004e+01 3.500000e+01 4.139418e+01
         vertex -2.842381e+01 3.500000e+01 3.503440e+01
      endloop
   endfacet
   facet normal 5.186588e-01 0.000000e+00 8.549813e-01
      outer loop
         vertex 2.842381e+01 6.000000e+01 3.503440e+01
         vertex 1.794004e+01 6.000000e+01 4.139418e+01
         vertex 2.842381e+01 3.500000e+01 3.503440e+01
      endloop
   endfacet
   facet normal 5.186588e-01 0.000000e+00 8.549813e-01
      outer loop
         vertex 1.794004e+01 6.000000e+01 4.139418e+01
         vertex 1.794004e+01 3.500000e+01 4.139418e+01
         vertex 2.842381e+01 3.500000e+01 3.503440e+01
      endloop
   endfacet
   facet normal -2.692739e-01 0.000000e+00 9.630636e-01
      outer loop
         vertex -6.130987e+00 3.500000e+01 4.469601e+01
         vertex -1.794004e+01 6.000000e+01 4.139418e+01
         vertex -1.794004e+01 3.500000e+01 4.139418e+01
      endloop
   endfacet
   facet normal -5.186588e-01 0.000000e+00 8.549813e-01
      outer loop
         vertex -1.794004e+01 6.000000e+01 4.139418e+01
         vertex -2.842381e+01 6.000000e+01 3.503440e+01
         vertex -1.794004e+01 3.500000e+01 4.139418e+01
      endloop
   endfacet
   facet normal 2.692739e-01 0.000000e+00 9.630636e-01
      outer loop
         vertex 1.794004e+01 6.000000e+01 4.139418e+01
         vertex 6.130987e+00 6.000000e+01 4.469601e+01
         vertex 1.794004e+01 3.500000e+01 4.139418e+01
      endloop
   endfacet
   facet normal 2.692739e-01 0.000000e+00 9.630636e-01
      outer loop
         vertex 6.130987e+00 6.000000e+01 4.469601e+01
         vertex 6.130987e+00 3.500000e+01 4.469601e+01
         vertex 1.794004e+01 3.500000e+01 4.139418e+01
      endloop
   endfacet
   facet normal 0.000000e+00 0.000000e+00 1.000000e+00
      outer loop
         vertex 6.130987e+00 3.500000e+01 4.469601e+01
         vertex -6.130987e+00 6.000000e+01 4.469601e+01
         vertex -6.130987e+00 3.500000e+01 4.469601e+01
      endloop
   endfacet
   facet normal -2.692739e-01 0.000000e+00 9.630636e-01
      outer loop
         vertex -6.130987e+00 6.000000e+01 4.469601e+01
         vertex -1.794004e+01 6.000000e+01 4.139418e+01
         vertex -6.130987e+00 3.500000e+01 4.469601e+01
      endloop
   endfacet
   facet normal 0.000000e+00 0.000000e+00 1.000000e+00
      outer loop
         vertex 6.130987e+00 6.000000e+01 4.469601e+01
         vertex -6.130987e+00 6.000000e+01 4.469601e+01
         vertex 6.130987e+00 3.500000e+01 4.469601e+01
      endloop
   endfacet
   facet normal 0.000000e+00 1.000000e+00 0.000000e+00
      outer loop
         vertex 6.000000e+01 6.000000e+01 -2.068804e+02
         vertex 6.000000e+01 6.000000e+01 -3.217871e+02
         vertex -6.000000e+01 6.000000e+01 -3.217871e+02
      endloop
   endfacet
   facet normal -0.000000e+00 1.000000e+00 0.000000e+00
      outer loop
         vertex -6.000000e+01 6.000000e+01 -2.068804e+02
         vertex 6.000000e+01 6.000000e+01 -2.068804e+02
         vertex -6.000000e+01 6.000000e+01 -3.217871e+02
      endloop
   endfacet
   facet normal 0.000000e+00 1.000000e+00 0.000000e+00
      outer loop
         vertex 4.500000e+01 6.000000e+01 3.212847e+00
         vertex 6.000000e+01 6.000000e+01 -2.068804e+02
         vertex -6.000000e+01 6.000000e+01 -2.068804e+02
      endloop
   endfacet
   facet normal -0.000000e+00 1.000000e+00 0.000000e+00
      outer loop
         vertex -4.500000e+01 6.000000e+01 3.212847e+00
         vertex 4.500000e+01 6.000000e+01 3.212847e+00
         vertex -6.000000e+01 6.000000e+01 -2.068804e+02
      endloop
   endfacet
   facet normal 0.000000e+00 1.000000e+00 0.000000e+00
      outer loop
         vertex -4.247271e+01 6.000000e+01 1.521156e+01
         vertex 4.500000e+01 6.000000e+01 3.212847e+00
         vertex -4.500000e+01 6.000000e+01 3.212847e+00
      endloop
   endfacet
   facet normal -0.000000e+00 1.000000e+00 0.000000e+00
      outer loop
         vertex -4.247271e+01 6.000000e+01 1.521156e+01
         vertex -3.680782e+01 6.000000e+01 2.608652e+01
         vertex 4.500000e+01 6.000000e+01 3.212847e+00
      endloop
   endfacet
   facet normal -0.000000e+00 1.000000e+00 0.000000e+00
      outer loop
         vertex -3.680782e+01 6.000000e+01 2.608652e+01
         vertex -2.842381e+01 6.000000e+01 3.503440e+01
         vertex 4.500000e+01 6.000000e+01 3.212847e+00
      endloop
   endfacet
   facet normal -0.000000e+00 1.000000e+00 0.000000e+00
      outer loop
         vertex -2.842381e+01 6.000000e+01 3.503440e+01
         vertex -1.794004e+01 6.000000e+01 4.139418e+01
         vertex 4.500000e+01 6.000000e+01 3.212847e+00
      endloop
   endfacet
   facet normal -0.000000e+00 1.000000e+00 0.000000e+00
      outer loop
         vertex -1.794004e+01 6.000000e+01 4.139418e+01
         vertex -6.130987e+00 6.000000e+01 4.469601e+01
         vertex 4.500000e+01 6.000000e+01 3.212847e+00
      endloop
   endfacet
   facet normal -0.000000e+00 1.000000e+00 0.000000e+00
      outer loop
         vertex -6.130987e+00 6.000000e+01 4.469601e+01
         vertex 6.130987e+00 6.000000e+01 4.469601e+01
         vertex 4.500000e+01 6.000000e+01 3.212847e+00
      endloop
   endfacet
   facet normal 0.000000e+00 1.000000e+00 0.000000e+00
      outer loop
         vertex 6.130987e+00 6.000000e+01 4.469601e+01
         vertex 4.247271e+01 6.000000e+01 1.521156e+01
         vertex 4.500000e+01 6.000000e+01 3.212847e+00
      endloop
   endfacet
   facet normal 0.000000e+00 1.000000e+00 0.000000e+00
      outer loop
         vertex 6.130987e+00 6.000000e+01 4.469601e+01
         vertex 3.680782e+01 6.000000e+01 2.608652e+01
         vertex 4.247271e+01 6.000000e+01 1.521156e+01
      endloop
   endfacet
   facet normal 0.000000e+00 1.000000e+00 0.000000e+00
      outer loop
         vertex 6.130987e+00 6.000000e+01 4.469601e+01
         vertex 2.842381e+01 6.000000e+01 3.503440e+01
         vertex 3.680782e+01 6.000000e+01 2.608652e+01
      endloop
   endfacet
   facet normal 0.000000e+00 1.000000e+00 0.000000e+00
      outer loop
         vertex 6.130987e+00 6.000000e+01 4.469601e+01
         vertex 1.794004e+01 6.000000e+01 4.139418e+01
         vertex 2.842381e+01 6.000000e+01 3.503440e+01
      endloop
   endfacet
endsolid