# Blender v2.93.1 OBJ File: ''
# www.blender.org
mtllib gantri.mtl
o 1_Gantri
v 1528.799683 156.585159 -140.999969
v -271.200287 156.585159 -140.999969
v -271.200287 26.585163 -140.999969
v 1528.799683 26.585163 -140.999969
v -271.200287 156.585159 -130.999969
v 1528.799683 156.585159 -130.999969
v 1528.799683 176.585159 -130.999969
v -271.200287 176.585159 -130.999969
v 1528.799683 176.585159 -140.999969
v -271.200287 176.585159 -140.999969
v 1528.799683 191.585159 -140.999969
v -271.200287 191.585159 -140.999969
v 1528.799683 26.585163 -130.999969
v -271.200287 26.585163 -130.999969
v -271.200287 6.585164 -130.999969
v 1528.799683 6.585164 -130.999969
v -271.200287 6.585164 -140.999969
v 1528.799683 6.585164 -140.999969
v 1528.799683 -222.414841 -140.999969
v 1528.799683 -222.414841 -89.799973
v 1528.799683 191.585159 -89.799973
v 1631.199707 -222.414841 -89.799973
v 1631.199707 191.585159 -89.799973
v 1631.199707 191.585159 -492.199982
v 1631.199707 -222.414841 -492.199982
v 1302.599731 -222.414841 -492.199982
v 1302.599731 -222.414841 -140.999969
v 1302.599731 191.585159 -492.199982
v -271.200287 191.585159 -89.799973
v -271.200287 -222.414841 -89.799973
v -271.200287 -222.414841 -140.999969
v -373.600281 191.585159 -89.799973
v -373.600281 -222.414841 -89.799973
v -373.600281 -222.414841 -492.199982
v -373.600281 191.585159 -492.199982
v -45.000290 -222.414841 -492.199982
v -45.000290 -222.414841 -140.999969
v -45.000290 191.585159 -492.199982
v -45.000290 191.585159 -270.499969
v 1302.599731 191.585159 -270.499969
v 1302.599731 -8.414836 -140.999969
v -45.000290 -8.414836 -140.999969
v -45.000290 -8.414836 -270.499969
v 1302.599731 -8.414836 -270.499969
vn 0.0000 0.0000 1.0000
vn 0.0000 -1.0000 0.0000
vn 0.0000 1.0000 0.0000
vn -1.0000 0.0000 0.0000
vn 1.0000 0.0000 0.0000
vn 0.0000 0.0000 -1.0000
usemtl None
s off
f 1//1 2//1 3//1
f 3//1 4//1 1//1
f 5//2 2//2 1//2
f 1//2 6//2 5//2
f 7//1 8//1 5//1
f 5//1 6//1 7//1
f 7//3 9//3 10//3
f 10//3 8//3 7//3
f 11//1 12//1 10//1
f 10//1 9//1 11//1
f 13//3 4//3 3//3
f 3//3 14//3 13//3
f 13//1 14//1 15//1
f 15//1 16//1 13//1
f 15//2 17//2 18//2
f 18//2 16//2 15//2
f 19//4 20//4 16//4
f 20//4 6//4 13//4
f 13//4 16//4 20//4
f 4//4 13//4 6//4
f 6//4 1//4 4//4
f 21//4 7//4 6//4
f 6//4 20//4 21//4
f 11//4 9//4 7//4
f 7//4 21//4 11//4
f 16//4 18//4 19//4
f 22//1 23//1 21//1
f 21//1 20//1 22//1
f 24//5 23//5 22//5
f 22//5 25//5 24//5
f 26//2 25//2 19//2
f 22//2 20//2 19//2
f 19//2 25//2 22//2
f 19//2 27//2 26//2
f 24//6 25//6 26//6
f 26//6 28//6 24//6
f 12//5 29//5 8//5
f 29//5 14//5 5//5
f 5//5 8//5 29//5
f 2//5 5//5 14//5
f 14//5 3//5 2//5
f 29//5 30//5 15//5
f 15//5 14//5 29//5
f 31//5 17//5 15//5
f 15//5 30//5 31//5
f 8//5 10//5 12//5
f 32//1 33//1 30//1
f 30//1 29//1 32//1
f 34//4 33//4 32//4
f 32//4 35//4 34//4
f 33//2 34//2 31//2
f 36//2 37//2 31//2
f 31//2 34//2 36//2
f 31//2 30//2 33//2
f 34//6 35//6 38//6
f 38//6 36//6 34//6
f 35//3 12//3 39//3
f 32//3 29//3 12//3
f 12//3 35//3 32//3
f 12//3 11//3 40//3
f 40//3 39//3 12//3
f 24//3 28//3 40//3
f 23//3 24//3 11//3
f 40//3 11//3 24//3
f 39//3 38//3 35//3
f 11//3 21//3 23//3
f 19//1 18//1 41//1
f 17//1 42//1 41//1
f 41//1 18//1 17//1
f 31//1 37//1 42//1
f 42//1 17//1 31//1
f 41//1 27//1 19//1
f 37//5 36//5 43//5
f 38//5 39//5 43//5
f 43//5 36//5 38//5
f 43//5 42//5 37//5
f 28//4 26//4 44//4
f 27//4 41//4 44//4
f 44//4 26//4 27//4
f 44//4 40//4 28//4
f 44//2 41//2 42//2
f 42//2 43//2 44//2
f 44//6 43//6 39//6
f 39//6 40//6 44//6
